<svg id="Layer_1" data-name="Layer 1" xmlns="http://www.w3.org/2000/svg" viewBox="0 0 970 250"><defs><style>.cls-1{fill:#fff;}.cls-2{fill:#f1b533;}</style></defs><path class="cls-1" d="M52.43,165.05V162.7l2.78-.47V141.85l-2.73-.53V139H63.54v2.29l-2.93.53v8.57H70.82v-8.57l-2.77-.53V139H79v2.29l-2.73.53v20.39l2.73.46v2.35H68.08V162.7l2.74-.47v-9.11H60.61v9.11l2.93.47v2.35Z"/><path class="cls-1" d="M81.55,159.85a5.3,5.3,0,0,1,.45-2.24,5.39,5.39,0,0,1,1.25-1.71,7.33,7.33,0,0,1,1.87-1.24,12.59,12.59,0,0,1,2.33-.85,17.71,17.71,0,0,1,2.59-.49c.9-.1,1.8-.16,2.7-.19v-.82a3.92,3.92,0,0,0-.79-2.77,3.47,3.47,0,0,0-2.61-.83,12.91,12.91,0,0,0-1.85.14c-.62.1-1.22.22-1.79.36a14.77,14.77,0,0,0-1.58.48c-.48.18-.9.34-1.24.5h0l-1-2.28a8.76,8.76,0,0,1,1.21-.77,16.31,16.31,0,0,1,2.05-.91,20.42,20.42,0,0,1,2.65-.77,13.49,13.49,0,0,1,3-.32,10.73,10.73,0,0,1,3.22.41,5,5,0,0,1,2.16,1.26A5.18,5.18,0,0,1,97.35,149a10.88,10.88,0,0,1,.38,3.09v10.66h2.12v2.1l-.8.18c-.32.08-.67.15-1.06.21s-.8.11-1.25.16a12.14,12.14,0,0,1-1.36.07c-.41,0-.76,0-1.06-.05a1.65,1.65,0,0,1-.7-.24,1.13,1.13,0,0,1-.38-.54,3,3,0,0,1-.12-1v-1a6.63,6.63,0,0,1-.8.87,7.8,7.8,0,0,1-1.24.91,8.28,8.28,0,0,1-1.65.71,7.29,7.29,0,0,1-2,.28,7.64,7.64,0,0,1-2.27-.33,5.1,5.1,0,0,1-1.85-1A4.83,4.83,0,0,1,82,162.36,6.18,6.18,0,0,1,81.55,159.85Zm8.12,2.29a3.85,3.85,0,0,0,.7-.08,8.12,8.12,0,0,0,.82-.24c.28-.11.56-.23.84-.37a3.42,3.42,0,0,0,.71-.49V155.3a10.8,10.8,0,0,0-2.77.31,5.23,5.23,0,0,0-1.79.82,3,3,0,0,0-1,1.18A3.6,3.6,0,0,0,87,159a3.46,3.46,0,0,0,.69,2.32A2.54,2.54,0,0,0,89.67,162.14Z"/><path class="cls-1" d="M102.06,165.05v-2.29l2.2-.35V149.27l-2.32-.72V146l6.12-.83h.08l.91.73v2a9.24,9.24,0,0,1,1.33-1,11.45,11.45,0,0,1,1.67-.88,11.27,11.27,0,0,1,1.89-.6,8.39,8.39,0,0,1,2-.23,7.8,7.8,0,0,1,2.75.42,3.78,3.78,0,0,1,1.75,1.37,6.22,6.22,0,0,1,.92,2.42,20.07,20.07,0,0,1,.28,3.56v9.47l2.42.33v2.29h-9.62v-2.29l1.86-.33V152.9a15.19,15.19,0,0,0-.12-2.05,4,4,0,0,0-.43-1.41,2,2,0,0,0-.87-.81,3.29,3.29,0,0,0-1.43-.26,5.54,5.54,0,0,0-1.15.12,6.91,6.91,0,0,0-1.06.34,5.73,5.73,0,0,0-.93.45,6.86,6.86,0,0,0-.72.49v12.64l2.29.35v2.29Z"/><path class="cls-1" d="M133.42,165.42a7.7,7.7,0,0,1-3-.57,6.33,6.33,0,0,1-2.4-1.77,8.67,8.67,0,0,1-1.61-3,14.36,14.36,0,0,1-.58-4.29,12.55,12.55,0,0,1,.7-4.3,9.54,9.54,0,0,1,2-3.38,9.13,9.13,0,0,1,3.18-2.21,10.86,10.86,0,0,1,4.26-.8c.48,0,.94,0,1.39.07a12.41,12.41,0,0,1,1.29.21v-5.81l-3.13-.53v-2l7.23-.74h.09l1.06.81v25.53h1.89v2.15l-1.94.41a12.76,12.76,0,0,1-2.4.21,2.6,2.6,0,0,1-1.62-.46,2,2,0,0,1-.58-1.68v-.66a7.7,7.7,0,0,1-1,1.05,7.52,7.52,0,0,1-1.33.89,8.22,8.22,0,0,1-1.62.61A7.65,7.65,0,0,1,133.42,165.42Zm2.17-3.09a4.22,4.22,0,0,0,1.85-.39,3.89,3.89,0,0,0,1.24-.89V148.16a2.47,2.47,0,0,0-1-.55,4.67,4.67,0,0,0-1.59-.24,4,4,0,0,0-1.74.4,3.58,3.58,0,0,0-1.43,1.3,7.48,7.48,0,0,0-1,2.4,16.86,16.86,0,0,0-.4,3.68,15.7,15.7,0,0,0,.24,3.27,6.9,6.9,0,0,0,.8,2.23,3.21,3.21,0,0,0,1.28,1.28A3.53,3.53,0,0,0,135.59,162.33Z"/><path class="cls-1" d="M159.29,165.05v-2.29l2.5-.33V149.27l-2.31-.73V146l6.27-.83h.09l1.24.73v16.54l2.48.35v2.29Zm4.55-22.8a2.59,2.59,0,0,1-1.07-.22,2.48,2.48,0,0,1-.79-.59,2.58,2.58,0,0,1-.48-.88,3.67,3.67,0,0,1-.16-1.06,4.26,4.26,0,0,1,.18-1.26,2.86,2.86,0,0,1,.56-1,2.6,2.6,0,0,1,.93-.7,2.92,2.92,0,0,1,1.29-.26h0a3,3,0,0,1,1.2.23,2.43,2.43,0,0,1,.85.62,2.55,2.55,0,0,1,.5.88,3.24,3.24,0,0,1,.16,1,4.33,4.33,0,0,1-.18,1.27,2.9,2.9,0,0,1-.58,1,2.57,2.57,0,0,1-1,.68,3.66,3.66,0,0,1-1.43.25Z"/><path class="cls-1" d="M172.07,165.05v-2.29l2.21-.35V149.27l-2.32-.72V146l6.11-.83h.09l.9.73v2a9.36,9.36,0,0,1,1.34-1,11.86,11.86,0,0,1,1.66-.88,11.57,11.57,0,0,1,1.89-.6,8.47,8.47,0,0,1,2-.23,7.7,7.7,0,0,1,2.74.42,3.81,3.81,0,0,1,1.76,1.37,6.22,6.22,0,0,1,.92,2.42,20.17,20.17,0,0,1,.27,3.56v9.47l2.43.33v2.29h-9.62v-2.29l1.86-.33V152.9a15.19,15.19,0,0,0-.12-2.05,3.78,3.78,0,0,0-.44-1.41,2,2,0,0,0-.87-.81,3.25,3.25,0,0,0-1.42-.26,5.54,5.54,0,0,0-1.15.12,7.42,7.42,0,0,0-1.07.34,6,6,0,0,0-.92.45,8.37,8.37,0,0,0-.73.49v12.64l2.29.35v2.29Z"/><path class="cls-1" d="M206.87,165.05v-2.29l2.1-.35V139.6l-2.56-.43v-2l6.65-.84h.08l1,.81,0,8.05-.28,2.72a10.78,10.78,0,0,1,2.72-1.79,11.27,11.27,0,0,1,1.91-.67,9,9,0,0,1,2.18-.26,7.16,7.16,0,0,1,2.77.46,3.89,3.89,0,0,1,1.73,1.42,6.34,6.34,0,0,1,.91,2.42,20.26,20.26,0,0,1,.26,3.46v9.46l2.41.35v2.29h-9.57v-2.23l1.9-.37V152.9a15.19,15.19,0,0,0-.12-2.05,3.6,3.6,0,0,0-.46-1.41,2.07,2.07,0,0,0-.92-.81,3.66,3.66,0,0,0-1.51-.26,5.2,5.2,0,0,0-1.09.12,9.15,9.15,0,0,0-1.09.29,6.72,6.72,0,0,0-1,.42,4.73,4.73,0,0,0-.77.46v12.75l2.34.35v2.29Z"/><path class="cls-1" d="M230.5,159.85a5.3,5.3,0,0,1,.46-2.24,5.39,5.39,0,0,1,1.25-1.71,7.33,7.33,0,0,1,1.87-1.24,12.48,12.48,0,0,1,2.32-.85,17.85,17.85,0,0,1,2.6-.49c.9-.1,1.8-.16,2.7-.19v-.82a3.92,3.92,0,0,0-.8-2.77,3.45,3.45,0,0,0-2.6-.83,12.94,12.94,0,0,0-1.86.14c-.62.1-1.21.22-1.78.36a14.1,14.1,0,0,0-1.58.48c-.49.18-.9.34-1.24.5h0l-1-2.28a9,9,0,0,1,1.22-.77,15.68,15.68,0,0,1,2.05-.91,20,20,0,0,1,2.65-.77,13.37,13.37,0,0,1,3-.32,10.82,10.82,0,0,1,3.22.41,4.94,4.94,0,0,1,2.15,1.26A5.07,5.07,0,0,1,246.3,149a10.85,10.85,0,0,1,.39,3.09v10.66h2.12v2.1L248,165c-.31.08-.67.15-1.05.21s-.81.11-1.25.16a12.32,12.32,0,0,1-1.37.07,10.26,10.26,0,0,1-1.05-.05,1.6,1.6,0,0,1-.7-.24,1.08,1.08,0,0,1-.39-.54,3,3,0,0,1-.12-1v-1a6.63,6.63,0,0,1-.8.87,7,7,0,0,1-1.24.91,7.81,7.81,0,0,1-1.65.71,7.17,7.17,0,0,1-2,.28,7.55,7.55,0,0,1-2.27-.33,5.07,5.07,0,0,1-1.86-1,4.7,4.7,0,0,1-1.25-1.75A6.18,6.18,0,0,1,230.5,159.85Zm8.12,2.29a3.76,3.76,0,0,0,.7-.08,7.43,7.43,0,0,0,.82-.24,7.91,7.91,0,0,0,.84-.37,3.79,3.79,0,0,0,.72-.49V155.3a10.89,10.89,0,0,0-2.78.31,5.18,5.18,0,0,0-1.78.82,2.93,2.93,0,0,0-.95,1.18,3.6,3.6,0,0,0-.28,1.42,3.46,3.46,0,0,0,.69,2.32A2.52,2.52,0,0,0,238.62,162.14Z"/><path class="cls-1" d="M251,165.05v-2.29l2.21-.35V149.27l-2.33-.72V146l6.12-.83h.09l.9.73v2a9.83,9.83,0,0,1,1.33-1A12,12,0,0,1,261,146a11.57,11.57,0,0,1,1.89-.6,8.47,8.47,0,0,1,2-.23,7.74,7.74,0,0,1,2.74.42,3.74,3.74,0,0,1,1.75,1.37,6.22,6.22,0,0,1,.93,2.42,20.17,20.17,0,0,1,.27,3.56v9.47l2.43.33v2.29h-9.63v-2.29l1.87-.33V152.9a15.19,15.19,0,0,0-.12-2.05,4,4,0,0,0-.44-1.41,2,2,0,0,0-.87-.81,3.29,3.29,0,0,0-1.43-.26,5.45,5.45,0,0,0-1.14.12,7,7,0,0,0-1.07.34,5.62,5.62,0,0,0-.92.45,8.37,8.37,0,0,0-.73.49v12.64l2.29.35v2.29Z"/><path class="cls-1" d="M282.37,165.42a7.62,7.62,0,0,1-3-.57,6.26,6.26,0,0,1-2.4-1.77,8.51,8.51,0,0,1-1.61-3,14,14,0,0,1-.58-4.29,12.8,12.8,0,0,1,.69-4.3,9.69,9.69,0,0,1,2-3.38,9.08,9.08,0,0,1,3.19-2.21,10.81,10.81,0,0,1,4.25-.8c.48,0,.95,0,1.4.07a12.41,12.41,0,0,1,1.29.21v-5.81l-3.13-.53v-2l7.23-.74h.08l1.06.81v25.53h1.9v2.15c-.57.13-1.22.26-1.95.41a12.73,12.73,0,0,1-2.39.21,2.56,2.56,0,0,1-1.62-.46,2,2,0,0,1-.59-1.68v-.66a7,7,0,0,1-2.35,1.94,7.77,7.77,0,0,1-1.62.61A7.65,7.65,0,0,1,282.37,165.42Zm2.17-3.09a4.24,4.24,0,0,0,1.86-.39,4,4,0,0,0,1.24-.89V148.16a2.64,2.64,0,0,0-1-.55,4.71,4.71,0,0,0-1.59-.24,4,4,0,0,0-1.74.4,3.61,3.61,0,0,0-1.44,1.3,7.26,7.26,0,0,0-1,2.4,16.27,16.27,0,0,0-.4,3.68,14.44,14.44,0,0,0,.24,3.27,6.91,6.91,0,0,0,.79,2.23,3.27,3.27,0,0,0,1.28,1.28A3.58,3.58,0,0,0,284.54,162.33Z"/><path class="cls-1" d="M52.19,207.05v-2.26l2.73-.46V190.55h-3V188.5l3-.85v-1a7.85,7.85,0,0,1,.84-3.65,9.29,9.29,0,0,1,2.15-2.78,9.79,9.79,0,0,1,2.94-1.76,9,9,0,0,1,3.2-.61,6.29,6.29,0,0,1,1.32.1,6.44,6.44,0,0,1,.68.19v5.11a2.71,2.71,0,0,0-.62-.47,5.1,5.1,0,0,0-.91-.41,8.22,8.22,0,0,0-1.09-.3,5.74,5.74,0,0,0-1.17-.12,3.12,3.12,0,0,0-.84.1,1.37,1.37,0,0,0-.64.37,1.57,1.57,0,0,0-.41.72,3.69,3.69,0,0,0-.15,1.15l0,3.35h4.39v2.9H60.24v13.88l3.79.36v2.26Z"/><path class="cls-1" d="M66.51,197.37a11.86,11.86,0,0,1,.8-4.53,9.55,9.55,0,0,1,2.14-3.21,8.72,8.72,0,0,1,3.08-1.91,10.74,10.74,0,0,1,3.65-.64,10.44,10.44,0,0,1,3.93.7,7.64,7.64,0,0,1,2.88,2,8.67,8.67,0,0,1,1.76,3.16,14.06,14.06,0,0,1,.59,4.22,11.92,11.92,0,0,1-.8,4.61A9.17,9.17,0,0,1,82.4,205a8.33,8.33,0,0,1-3.07,1.86,10.87,10.87,0,0,1-3.64.61,10.44,10.44,0,0,1-3.93-.69,7.87,7.87,0,0,1-2.88-2,8.59,8.59,0,0,1-1.77-3.17A13.69,13.69,0,0,1,66.51,197.37ZM76,205.08a3,3,0,0,0,1.62-.42,3.15,3.15,0,0,0,1.14-1.31,7.79,7.79,0,0,0,.66-2.3,21.58,21.58,0,0,0,.22-3.35,28.53,28.53,0,0,0-.2-3.55,10.12,10.12,0,0,0-.63-2.59A3.78,3.78,0,0,0,77.65,190a2.82,2.82,0,0,0-1.74-.54,3.07,3.07,0,0,0-1.63.42,3.23,3.23,0,0,0-1.16,1.32,8,8,0,0,0-.68,2.3,21.5,21.5,0,0,0-.22,3.35,28.48,28.48,0,0,0,.2,3.54,9.94,9.94,0,0,0,.66,2.59,3.83,3.83,0,0,0,1.16,1.58A2.8,2.8,0,0,0,76,205.08Z"/><path class="cls-1" d="M88,207.05v-2.29l2.46-.33V191.27l-2.32-.72V188l5.84-.83H94l.91.73v1.42l0,2.67H95a7.41,7.41,0,0,1,.74-1.38A9.78,9.78,0,0,1,97.08,189a7.9,7.9,0,0,1,1.82-1.33,4.69,4.69,0,0,1,2.25-.56,5.31,5.31,0,0,1,.81,0,2.18,2.18,0,0,1,.47.11v5.91a3.2,3.2,0,0,0-1-.3,10.79,10.79,0,0,0-3.08-.09,8.75,8.75,0,0,0-1.12.18,6.16,6.16,0,0,0-.93.26,3.49,3.49,0,0,0-.64.31v10.9l4.26.41v2.23Z"/><path class="cls-2" d="M115.39,207.05v-2.29l2.1-.35V181.6l-2.56-.43v-2l6.64-.84h.09l1,.81,0,8.05-.28,2.72a9.6,9.6,0,0,1,1.16-.91,10.44,10.44,0,0,1,1.56-.88,11.27,11.27,0,0,1,1.91-.67,9,9,0,0,1,2.17-.26,7.12,7.12,0,0,1,2.77.46,3.86,3.86,0,0,1,1.74,1.42,6.34,6.34,0,0,1,.9,2.42,19.21,19.21,0,0,1,.27,3.46v9.46l2.41.35v2.29h-9.57v-2.23l1.89-.37V194.9a17.23,17.23,0,0,0-.11-2.05,3.77,3.77,0,0,0-.46-1.41,2.07,2.07,0,0,0-.92-.81,3.66,3.66,0,0,0-1.51-.26,5.29,5.29,0,0,0-1.1.12,9.52,9.52,0,0,0-1.08.29,6.72,6.72,0,0,0-1,.42,4.73,4.73,0,0,0-.77.46v12.75l2.34.35v2.29Z"/><path class="cls-2" d="M148.34,207.44a10.43,10.43,0,0,1-4.15-.75,7.49,7.49,0,0,1-2.85-2.1,8.47,8.47,0,0,1-1.65-3.2,15,15,0,0,1-.53-4.07,12.69,12.69,0,0,1,.67-4.28,9.17,9.17,0,0,1,1.91-3.21,8.28,8.28,0,0,1,3-2,10.19,10.19,0,0,1,3.82-.7q7.09,0,7.4,6.92c0,.79,0,1.5,0,2.13a10.47,10.47,0,0,1-.18,1.6H144.58a10.52,10.52,0,0,0,.49,2.89,5.88,5.88,0,0,0,1.08,1.94,3.84,3.84,0,0,0,1.58,1.1,5.65,5.65,0,0,0,2,.34,8.29,8.29,0,0,0,1.62-.14,10.1,10.1,0,0,0,1.39-.34,7.92,7.92,0,0,0,1.17-.46,9.79,9.79,0,0,0,.89-.5l.89,2.07a6.22,6.22,0,0,1-1.18.93,10.59,10.59,0,0,1-1.75.9,13.86,13.86,0,0,1-2.12.68A9.48,9.48,0,0,1,148.34,207.44Zm-.46-18.05a3.15,3.15,0,0,0-1.24.24,2.23,2.23,0,0,0-1,.91,5.94,5.94,0,0,0-.72,1.85,16.49,16.49,0,0,0-.35,3.07h6.14v-.24c0-.1,0-.21,0-.32s0-.23,0-.33v-.22a13.38,13.38,0,0,0-.12-1.77,5.76,5.76,0,0,0-.44-1.6,2.94,2.94,0,0,0-.87-1.14A2.18,2.18,0,0,0,147.88,189.39Z"/><path class="cls-2" d="M158.27,201.85a5.3,5.3,0,0,1,.45-2.24A5.39,5.39,0,0,1,160,197.9a7.33,7.33,0,0,1,1.87-1.24,12.75,12.75,0,0,1,2.32-.85,17.85,17.85,0,0,1,2.6-.49c.9-.1,1.8-.16,2.7-.19v-.82a4,4,0,0,0-.79-2.77,3.47,3.47,0,0,0-2.61-.83,13,13,0,0,0-1.86.14c-.62.1-1.21.22-1.78.36a14.1,14.1,0,0,0-1.58.48c-.49.18-.9.34-1.24.5h0l-1-2.28a9,9,0,0,1,1.22-.77,16.31,16.31,0,0,1,2.05-.91,20.42,20.42,0,0,1,2.65-.77,13.43,13.43,0,0,1,3-.32,10.78,10.78,0,0,1,3.22.41,4.94,4.94,0,0,1,2.15,1.26,5.2,5.2,0,0,1,1.22,2.16,11.25,11.25,0,0,1,.38,3.09v10.66h2.12v2.1l-.8.18c-.32.08-.68.15-1.06.21s-.81.11-1.25.16a12.32,12.32,0,0,1-1.37.07,10.26,10.26,0,0,1-1.05-.05,1.65,1.65,0,0,1-.7-.24,1.07,1.07,0,0,1-.38-.54,3,3,0,0,1-.12-1v-1a7.6,7.6,0,0,1-.81.87,7,7,0,0,1-1.24.91,7.81,7.81,0,0,1-1.65.71,7.17,7.17,0,0,1-2,.28,7.55,7.55,0,0,1-2.27-.33,5.07,5.07,0,0,1-1.86-1,4.81,4.81,0,0,1-1.25-1.75A6.18,6.18,0,0,1,158.27,201.85Zm8.11,2.29a3.76,3.76,0,0,0,.7-.08,6.84,6.84,0,0,0,.82-.24,7.91,7.91,0,0,0,.84-.37,3.5,3.5,0,0,0,.72-.49V197.3a10.89,10.89,0,0,0-2.78.31,5.27,5.27,0,0,0-1.78.82,2.93,2.93,0,0,0-1,1.18,3.6,3.6,0,0,0-.28,1.42,3.46,3.46,0,0,0,.69,2.32A2.54,2.54,0,0,0,166.38,204.14Z"/><path class="cls-2" d="M178.65,207.05v-2.29l2.47-.33V191.27l-2.33-.72V188l5.85-.83h.1l.9.73V192h.07a6.86,6.86,0,0,1,.74-1.38,9.7,9.7,0,0,1,1.33-1.61,8,8,0,0,1,1.83-1.33,4.69,4.69,0,0,1,2.25-.56,5.41,5.41,0,0,1,.81,0,2.33,2.33,0,0,1,.47.11v5.91a3.31,3.31,0,0,0-1-.3,9.45,9.45,0,0,0-1.89-.16,9.66,9.66,0,0,0-1.2.07,9,9,0,0,0-1.12.18,6.16,6.16,0,0,0-.93.26,3.69,3.69,0,0,0-.63.31v10.9l4.25.41v2.23Z"/><path class="cls-2" d="M197.25,202.94V190.37h-2.41v-2a3.25,3.25,0,0,0,.43-.15l.62-.23c.21-.08.4-.15.57-.23a2.56,2.56,0,0,0,.33-.16A5.53,5.53,0,0,0,198,186c.11-.23.24-.49.38-.8s.27-.61.4-1,.25-.65.37-1,.21-.62.29-.88h3l.05,5.06h5v2.91h-5v9.46c0,.92,0,1.64,0,2.17a4.09,4.09,0,0,0,.21,1.22.83.83,0,0,0,.5.53,2.94,2.94,0,0,0,.94.12h0a6.63,6.63,0,0,0,.86-.07l.89-.16c.29-.07.56-.13.8-.21l.61-.19h0l.8,2A7.87,7.87,0,0,1,207,206a11.89,11.89,0,0,1-1.64.71,13.39,13.39,0,0,1-1.89.51,10.54,10.54,0,0,1-2,.2h0a5.71,5.71,0,0,1-1.92-.29,3,3,0,0,1-1.28-.87,3.5,3.5,0,0,1-.71-1.4A7.56,7.56,0,0,1,197.25,202.94Z"/><path class="cls-2" d="M220.63,207.05v-2.29l2.1-.35V181.6l-2.56-.43v-2l6.64-.84h.09l1,.81,0,8.05-.28,2.72a9.6,9.6,0,0,1,1.16-.91,10.44,10.44,0,0,1,1.56-.88,11.15,11.15,0,0,1,1.9-.67,9.1,9.1,0,0,1,2.18-.26,7.12,7.12,0,0,1,2.77.46,3.86,3.86,0,0,1,1.74,1.42,6.34,6.34,0,0,1,.9,2.42,19.21,19.21,0,0,1,.27,3.46v9.46l2.41.35v2.29H233v-2.23l1.89-.37V194.9a15.19,15.19,0,0,0-.12-2.05,3.78,3.78,0,0,0-.45-1.41,2.07,2.07,0,0,0-.92-.81,3.66,3.66,0,0,0-1.51-.26,5.29,5.29,0,0,0-1.1.12,9,9,0,0,0-1.08.29,7.36,7.36,0,0,0-1,.42,5.06,5.06,0,0,0-.76.46v12.75l2.34.35v2.29Z"/><path class="cls-2" d="M253.58,207.44a10.43,10.43,0,0,1-4.15-.75,7.49,7.49,0,0,1-2.85-2.1,8.47,8.47,0,0,1-1.65-3.2,15,15,0,0,1-.53-4.07,12.69,12.69,0,0,1,.67-4.28,9.17,9.17,0,0,1,1.91-3.21,8.28,8.28,0,0,1,3-2,10.19,10.19,0,0,1,3.82-.7q7.1,0,7.4,6.92c0,.79,0,1.5,0,2.13a10.47,10.47,0,0,1-.18,1.6H249.82a10.52,10.52,0,0,0,.49,2.89,5.88,5.88,0,0,0,1.08,1.94,3.84,3.84,0,0,0,1.58,1.1,5.65,5.65,0,0,0,2,.34,8.29,8.29,0,0,0,1.62-.14,10.1,10.1,0,0,0,1.39-.34,7.92,7.92,0,0,0,1.17-.46,9.79,9.79,0,0,0,.89-.5l.89,2.07a6,6,0,0,1-1.19.93,10.09,10.09,0,0,1-1.74.9,13.86,13.86,0,0,1-2.12.68A9.48,9.48,0,0,1,253.58,207.44Zm-.46-18.05a3.15,3.15,0,0,0-1.24.24,2.23,2.23,0,0,0-1,.91,5.94,5.94,0,0,0-.72,1.85,15.68,15.68,0,0,0-.35,3.07h6.14v-.24c0-.1,0-.21,0-.32s0-.23,0-.33v-.22a13.38,13.38,0,0,0-.12-1.77,5.76,5.76,0,0,0-.44-1.6,2.94,2.94,0,0,0-.87-1.14A2.18,2.18,0,0,0,253.12,189.39Z"/><path class="cls-2" d="M263.5,201.85a5.3,5.3,0,0,1,.46-2.24,5.39,5.39,0,0,1,1.25-1.71,7.33,7.33,0,0,1,1.87-1.24,12.48,12.48,0,0,1,2.32-.85,17.85,17.85,0,0,1,2.6-.49c.9-.1,1.8-.16,2.7-.19v-.82a3.92,3.92,0,0,0-.8-2.77,3.45,3.45,0,0,0-2.6-.83,12.94,12.94,0,0,0-1.86.14c-.62.1-1.21.22-1.78.36a14.1,14.1,0,0,0-1.58.48c-.49.18-.9.34-1.24.5h0l-1-2.28a9,9,0,0,1,1.22-.77,16.31,16.31,0,0,1,2.05-.91,20,20,0,0,1,2.65-.77,13.37,13.37,0,0,1,3-.32,10.82,10.82,0,0,1,3.22.41,4.94,4.94,0,0,1,2.15,1.26A5.07,5.07,0,0,1,279.3,191a10.85,10.85,0,0,1,.39,3.09v10.66h2.12v2.1L281,207c-.31.08-.67.15-1.05.21s-.81.11-1.25.16a12.32,12.32,0,0,1-1.37.07,10.26,10.26,0,0,1-1.05-.05,1.6,1.6,0,0,1-.7-.24,1.08,1.08,0,0,1-.39-.54,3,3,0,0,1-.12-1v-1a6.63,6.63,0,0,1-.8.87,7,7,0,0,1-1.24.91,7.81,7.81,0,0,1-1.65.71,7.17,7.17,0,0,1-2,.28,7.55,7.55,0,0,1-2.27-.33,5.07,5.07,0,0,1-1.86-1,4.7,4.7,0,0,1-1.25-1.75A6.18,6.18,0,0,1,263.5,201.85Zm8.12,2.29a3.76,3.76,0,0,0,.7-.08,7.43,7.43,0,0,0,.82-.24,7.91,7.91,0,0,0,.84-.37,3.79,3.79,0,0,0,.72-.49V197.3a10.89,10.89,0,0,0-2.78.31,5.18,5.18,0,0,0-1.78.82,2.93,2.93,0,0,0-.95,1.18,3.6,3.6,0,0,0-.28,1.42,3.46,3.46,0,0,0,.69,2.32A2.52,2.52,0,0,0,271.62,204.14Z"/><path class="cls-2" d="M283.36,207.05v-2.29l2.48-.35V181.6l-2.54-.43v-2l6.68-.84h0l1.08.81v25.27l2.58.35v2.29Z"/><path class="cls-2" d="M297.86,202.94V190.37h-2.41v-2a3.25,3.25,0,0,0,.43-.15l.62-.23c.21-.08.4-.15.57-.23a1.76,1.76,0,0,0,.32-.16,5.37,5.37,0,0,0,1.22-1.64c.11-.23.24-.49.37-.8s.27-.61.41-1,.25-.65.36-1,.21-.62.29-.88h3l.06,5.06h5v2.91h-5v9.46c0,.92,0,1.64,0,2.17a4.5,4.5,0,0,0,.2,1.22.87.87,0,0,0,.51.53,2.94,2.94,0,0,0,.94.12h0a6.63,6.63,0,0,0,.86-.07l.89-.16c.29-.07.56-.13.8-.21l.61-.19h0l.81,2a7.87,7.87,0,0,1-1.26.79,11.89,11.89,0,0,1-1.64.71,13.53,13.53,0,0,1-1.9.51,10.36,10.36,0,0,1-2,.2h0a5.71,5.71,0,0,1-1.92-.29,3,3,0,0,1-1.28-.87,3.5,3.5,0,0,1-.71-1.4A7.56,7.56,0,0,1,297.86,202.94Z"/><path class="cls-2" d="M310.25,207.05v-2.29l2.1-.35V181.6l-2.56-.43v-2l6.64-.84h.09l1,.81,0,8.05-.28,2.72a9.6,9.6,0,0,1,1.16-.91,10.44,10.44,0,0,1,1.56-.88,11.15,11.15,0,0,1,1.9-.67,9.1,9.1,0,0,1,2.18-.26,7.12,7.12,0,0,1,2.77.46,3.86,3.86,0,0,1,1.74,1.42,6.34,6.34,0,0,1,.9,2.42,19.21,19.21,0,0,1,.27,3.46v9.46l2.41.35v2.29h-9.57v-2.23l1.89-.37V194.9a15.19,15.19,0,0,0-.12-2.05,3.78,3.78,0,0,0-.45-1.41,2.07,2.07,0,0,0-.92-.81,3.66,3.66,0,0,0-1.51-.26,5.29,5.29,0,0,0-1.1.12,9,9,0,0,0-1.08.29,7.36,7.36,0,0,0-1,.42,5.06,5.06,0,0,0-.76.46v12.75l2.34.35v2.29Z"/><path class="cls-2" d="M338.67,207.34a3.7,3.7,0,0,1-1.15-.19,3,3,0,0,1-1-.55,2.72,2.72,0,0,1-.64-.86,2.64,2.64,0,0,1-.24-1.14,3,3,0,0,1,.27-1.29,3.18,3.18,0,0,1,.75-1,3.35,3.35,0,0,1,1.11-.69,3.56,3.56,0,0,1,1.35-.25,4,4,0,0,1,1.42.22,2.67,2.67,0,0,1,.95.6,2.29,2.29,0,0,1,.53.87,3.32,3.32,0,0,1,.16,1.06,3.36,3.36,0,0,1-.26,1.33,3,3,0,0,1-.74,1,3.4,3.4,0,0,1-1.13.66A4.31,4.31,0,0,1,338.67,207.34Z"/></svg>