<svg id="Layer_1" data-name="Layer 1" xmlns="http://www.w3.org/2000/svg" viewBox="0 0 728 90"><defs><style>.cls-1{fill:#fff;}.cls-2{fill:#f1b533;}</style></defs><path class="cls-1" d="M44.14,53.69a13,13,0,0,1-2.34-.19c-.72-.12-1.36-.26-1.94-.41s-1.06-.29-1.47-.42a4.89,4.89,0,0,0-1-.23l.23-5.18h2.46l.6,3.39a3.29,3.29,0,0,0,1.19.74,5.38,5.38,0,0,0,2,.34,5.18,5.18,0,0,0,1.63-.22,2.78,2.78,0,0,0,1.08-.63,2.43,2.43,0,0,0,.61-.94,3.68,3.68,0,0,0,.18-1.17,2.81,2.81,0,0,0-.31-1.31,3.8,3.8,0,0,0-.91-1.09,8.9,8.9,0,0,0-1.43-1q-.86-.47-1.92-1a19,19,0,0,1-1.74-.93,8.29,8.29,0,0,1-1.7-1.34,7.12,7.12,0,0,1-1.3-1.86,5.51,5.51,0,0,1-.52-2.47,4.93,4.93,0,0,1,.46-2.12,4.75,4.75,0,0,1,1.36-1.74,6.9,6.9,0,0,1,2.24-1.19,10.05,10.05,0,0,1,3.1-.43,12.49,12.49,0,0,1,1.85.13c.6.09,1.16.2,1.68.31s1,.23,1.38.33a8,8,0,0,0,.9.22L50.42,38H48l-.56-3.1a1.11,1.11,0,0,0-.36-.26c-.17-.08-.37-.16-.59-.24a4.89,4.89,0,0,0-.73-.17,4.36,4.36,0,0,0-.81-.07,5.13,5.13,0,0,0-1.45.18,2.57,2.57,0,0,0-1,.53,2,2,0,0,0-.56.81,2.8,2.8,0,0,0-.18,1,2.68,2.68,0,0,0,.36,1.4,4.14,4.14,0,0,0,1,1.12,9.63,9.63,0,0,0,1.51,1q.87.47,1.92,1c.6.3,1.21.64,1.84,1a10.08,10.08,0,0,1,1.72,1.3,6.56,6.56,0,0,1,1.28,1.69,4.65,4.65,0,0,1,.49,2.16,6.05,6.05,0,0,1-.43,2.2,5.64,5.64,0,0,1-1.35,2,6.91,6.91,0,0,1-2.41,1.49A9.73,9.73,0,0,1,44.14,53.69Z"/><path class="cls-1" d="M53.62,49.22A4.11,4.11,0,0,1,55,46.06a5.89,5.89,0,0,1,1.49-1,11.69,11.69,0,0,1,1.86-.68A15.3,15.3,0,0,1,60.41,44c.72-.09,1.44-.14,2.16-.16v-.65A3.17,3.17,0,0,0,61.94,41a2.78,2.78,0,0,0-2.09-.67,9.23,9.23,0,0,0-1.48.12,14.44,14.44,0,0,0-1.43.29,12,12,0,0,0-1.27.38c-.38.14-.71.28-1,.4h0l-.81-1.83a7.89,7.89,0,0,1,1-.61,13,13,0,0,1,1.64-.73,15.72,15.72,0,0,1,2.12-.61,10.63,10.63,0,0,1,2.4-.26,9,9,0,0,1,2.57.32,4,4,0,0,1,1.73,1,4.12,4.12,0,0,1,1,1.73,9,9,0,0,1,.3,2.46v8.53h1.7V53.2l-.64.14c-.26.06-.54.11-.85.16s-.64.1-1,.13a9.69,9.69,0,0,1-1.09.06c-.33,0-.61,0-.84,0a1.19,1.19,0,0,1-.56-.19A.8.8,0,0,1,63,53a2.25,2.25,0,0,1-.1-.76v-.8a4.84,4.84,0,0,1-.64.7,5.29,5.29,0,0,1-1,.73,6.63,6.63,0,0,1-1.32.56,5.58,5.58,0,0,1-1.63.23,6.3,6.3,0,0,1-1.82-.26A4,4,0,0,1,55,52.62a3.76,3.76,0,0,1-1-1.39A5,5,0,0,1,53.62,49.22Zm6.49,1.83a2.44,2.44,0,0,0,.56-.07,4.78,4.78,0,0,0,.66-.19A6.46,6.46,0,0,0,62,50.5a3.16,3.16,0,0,0,.57-.39V45.58a8.28,8.28,0,0,0-2.22.25,4.13,4.13,0,0,0-1.43.65,2.43,2.43,0,0,0-.76,1,2.85,2.85,0,0,0-.22,1.13,2.73,2.73,0,0,0,.55,1.85A2,2,0,0,0,60.11,51.05Z"/><path class="cls-1" d="M69.71,53.37v-1.8l2.19-.37v-11H69.49V38.54l2.41-.68v-.8a6.28,6.28,0,0,1,.67-2.92,7.27,7.27,0,0,1,1.72-2.22,7.7,7.7,0,0,1,2.35-1.41A7.35,7.35,0,0,1,79.2,30a5.43,5.43,0,0,1,1,.08l.55.15v4.09a2.09,2.09,0,0,0-.5-.37,3.76,3.76,0,0,0-.73-.33,5.52,5.52,0,0,0-.87-.24,4.92,4.92,0,0,0-.94-.1,2.31,2.31,0,0,0-.67.09,1.08,1.08,0,0,0-.51.29,1.43,1.43,0,0,0-.33.57,3,3,0,0,0-.12.93l0,2.68h3.51v2.32H76.15v11.1l3,.29v1.8Z"/><path class="cls-1" d="M88.58,53.69a8.31,8.31,0,0,1-3.32-.6A5.9,5.9,0,0,1,83,51.41a6.77,6.77,0,0,1-1.32-2.56,11.58,11.58,0,0,1-.43-3.26,10.14,10.14,0,0,1,.54-3.42A7.32,7.32,0,0,1,83.3,39.6,6.39,6.39,0,0,1,85.66,38a8.15,8.15,0,0,1,3.07-.56c3.78,0,5.75,1.84,5.92,5.54,0,.62,0,1.19,0,1.7a8.33,8.33,0,0,1-.14,1.28H85.57A8.67,8.67,0,0,0,86,48.25a4.67,4.67,0,0,0,.87,1.56,3,3,0,0,0,1.26.87A4.61,4.61,0,0,0,89.7,51a6.77,6.77,0,0,0,1.3-.11,8.2,8.2,0,0,0,1.11-.27A6.67,6.67,0,0,0,93,50.2a7.59,7.59,0,0,0,.72-.39l.71,1.65a5.42,5.42,0,0,1-1,.75,10.13,10.13,0,0,1-1.4.71,11.54,11.54,0,0,1-1.69.55A7.73,7.73,0,0,1,88.58,53.69Zm-.37-14.44a2.54,2.54,0,0,0-1,.19,1.83,1.83,0,0,0-.8.73,4.75,4.75,0,0,0-.58,1.48,13.27,13.27,0,0,0-.28,2.45h4.91a1.58,1.58,0,0,1,0-.19c0-.08,0-.17,0-.26a2.26,2.26,0,0,0,0-.26v-.17a9.78,9.78,0,0,0-.1-1.42A4.45,4.45,0,0,0,90,40.52a2.34,2.34,0,0,0-.69-.91A1.77,1.77,0,0,0,88.21,39.25Z"/><path class="cls-1" d="M98.36,50.09V40H96.44V38.47l.35-.11.49-.19.46-.18.26-.13a4.57,4.57,0,0,0,1-1.32l.3-.63c.11-.24.21-.5.32-.76s.2-.53.29-.79.17-.49.23-.7h2.44l0,4.05h4V40h-4V47.6q0,1.09,0,1.74a3.33,3.33,0,0,0,.17,1,.69.69,0,0,0,.4.43,2.47,2.47,0,0,0,.75.09h0a5.89,5.89,0,0,0,.69,0l.71-.13c.23,0,.44-.11.64-.17l.49-.15h0l.64,1.59a7.26,7.26,0,0,1-1,.63,10.07,10.07,0,0,1-1.32.57,9.81,9.81,0,0,1-1.51.41,8,8,0,0,1-1.61.16h0a4.67,4.67,0,0,1-1.54-.23,2.49,2.49,0,0,1-1-.69,2.94,2.94,0,0,1-.57-1.13A6,6,0,0,1,98.36,50.09Z"/><path class="cls-1" d="M111.75,60.35l-.6,0-.65,0-.56-.06a2.26,2.26,0,0,1-.36-.07V56.81a5,5,0,0,0,.81.22,6.64,6.64,0,0,0,1.43.13,4.88,4.88,0,0,0,.89-.09,2.72,2.72,0,0,0,1-.48,5.15,5.15,0,0,0,1-1.14,9.76,9.76,0,0,0,1-2.08h-2.46l-4.92-13.53-1.25-.38V37.71h7.92v1.73l-2.07.4L115.65,48l1.06,3.72.93-3.72,2.08-8.11-1.78-.4V37.71h6v1.75l-1.26.38c-.27.83-.55,1.72-.84,2.69l-.9,2.91c-.3,1-.6,1.93-.89,2.86s-.55,1.78-.79,2.54-.44,1.42-.62,2-.31.9-.39,1.09a13.91,13.91,0,0,1-2.74,4.81A5.07,5.07,0,0,1,111.75,60.35Z"/><path class="cls-1" d="M133.73,49.22a4.06,4.06,0,0,1,.37-1.79,4.33,4.33,0,0,1,1-1.37,6.13,6.13,0,0,1,1.5-1,11.34,11.34,0,0,1,1.86-.68,15.3,15.3,0,0,1,2.08-.38c.72-.09,1.44-.14,2.16-.16v-.65a3.12,3.12,0,0,0-.64-2.22A2.75,2.75,0,0,0,140,40.3a9.45,9.45,0,0,0-1.49.12c-.49.08-1,.17-1.42.29a12,12,0,0,0-1.27.38c-.39.14-.72.28-1,.4h0L134,39.66a7.17,7.17,0,0,1,1-.61,13,13,0,0,1,1.64-.73,15.3,15.3,0,0,1,2.12-.61,10.48,10.48,0,0,1,2.39-.26,9.17,9.17,0,0,1,2.58.32,3.93,3.93,0,0,1,1.72,1,4,4,0,0,1,1,1.73,8.56,8.56,0,0,1,.31,2.46v8.53h1.7V53.2l-.65.14c-.25.06-.53.11-.84.16s-.65.1-1,.13a9.87,9.87,0,0,1-1.1.06c-.32,0-.6,0-.84,0a1.23,1.23,0,0,1-.56-.19.92.92,0,0,1-.31-.43,2.58,2.58,0,0,1-.09-.76v-.8a5.51,5.51,0,0,1-.64.7,6,6,0,0,1-1,.73,6.63,6.63,0,0,1-1.32.56,5.63,5.63,0,0,1-1.63.23,6.3,6.3,0,0,1-1.82-.26,4,4,0,0,1-1.48-.81,3.79,3.79,0,0,1-1-1.39A5.15,5.15,0,0,1,133.73,49.22Zm6.5,1.83a2.44,2.44,0,0,0,.56-.07,4.3,4.3,0,0,0,.65-.19,5,5,0,0,0,.67-.29,3.66,3.66,0,0,0,.58-.39V45.58a8.18,8.18,0,0,0-2.22.25,4,4,0,0,0-1.43.65,2.34,2.34,0,0,0-.76,1,2.85,2.85,0,0,0-.23,1.13,2.73,2.73,0,0,0,.56,1.85A2,2,0,0,0,140.23,51.05Z"/><path class="cls-1" d="M150.14,53.37V51.54l1.76-.27V40.75L150,40.18V38.12l4.9-.67H155l.72.58v1.63a9,9,0,0,1,1.07-.81,8.77,8.77,0,0,1,1.33-.69,9.19,9.19,0,0,1,1.51-.49,7.2,7.2,0,0,1,1.6-.18,6.09,6.09,0,0,1,2.2.34,3,3,0,0,1,1.4,1.09,5.14,5.14,0,0,1,.74,1.94,16.61,16.61,0,0,1,.21,2.85v7.57l2,.26v1.83H160V51.54l1.49-.26V43.65a11,11,0,0,0-.1-1.63,3,3,0,0,0-.35-1.13,1.55,1.55,0,0,0-.69-.65,2.7,2.7,0,0,0-1.14-.21,4,4,0,0,0-.92.1,5.75,5.75,0,0,0-.86.27,6.2,6.2,0,0,0-.73.36,4.16,4.16,0,0,0-.58.39V51.27l1.83.27v1.83Z"/><path class="cls-1" d="M175.23,53.67a6.17,6.17,0,0,1-2.37-.45,5.13,5.13,0,0,1-1.93-1.42,7,7,0,0,1-1.28-2.41,11.35,11.35,0,0,1-.47-3.44,10.26,10.26,0,0,1,.56-3.44,7.77,7.77,0,0,1,1.6-2.7A7.13,7.13,0,0,1,173.89,38a8.7,8.7,0,0,1,3.4-.63,10.26,10.26,0,0,1,1.12.05c.36,0,.7.09,1,.16V33l-2.5-.43V31l5.78-.58h.07l.85.64V51.47h1.51V53.2l-1.56.32a10.28,10.28,0,0,1-1.91.17,2,2,0,0,1-1.3-.37,1.63,1.63,0,0,1-.46-1.34v-.53a5.87,5.87,0,0,1-.82.84A5.76,5.76,0,0,1,178,53a6.48,6.48,0,0,1-1.3.49A6.13,6.13,0,0,1,175.23,53.67ZM177,51.2a3.39,3.39,0,0,0,1.49-.31,3,3,0,0,0,1-.72V39.87a2,2,0,0,0-.77-.44,3.69,3.69,0,0,0-1.27-.19,3.14,3.14,0,0,0-1.39.31,3,3,0,0,0-1.15,1,5.94,5.94,0,0,0-.79,1.92,14,14,0,0,0-.32,3,12.69,12.69,0,0,0,.19,2.62,5.68,5.68,0,0,0,.64,1.78,2.63,2.63,0,0,0,1,1A2.93,2.93,0,0,0,177,51.2Z"/><path class="cls-1" d="M195.78,53.37V51.54l1.68-.27V33l-2.05-.35V31.08l5.32-.67h.06l.84.64,0,6.44-.22,2.17a7,7,0,0,1,.92-.72,8.7,8.7,0,0,1,1.25-.71,9.36,9.36,0,0,1,1.52-.53,7.17,7.17,0,0,1,1.75-.21,5.63,5.63,0,0,1,2.21.37A3,3,0,0,1,210.48,39a5.28,5.28,0,0,1,.73,1.94,15.82,15.82,0,0,1,.21,2.76v7.58l1.92.27v1.83h-7.65V51.6l1.52-.3V43.65a12.59,12.59,0,0,0-.1-1.63,2.84,2.84,0,0,0-.36-1.13,1.67,1.67,0,0,0-.74-.65A3,3,0,0,0,204.8,40a4,4,0,0,0-.88.1,5.71,5.71,0,0,0-.86.24,6.2,6.2,0,0,0-.79.32,3.6,3.6,0,0,0-.61.38v10.2l1.87.27v1.83Z"/><path class="cls-1" d="M222.14,53.69a8.34,8.34,0,0,1-3.32-.6,5.9,5.9,0,0,1-2.28-1.68,6.77,6.77,0,0,1-1.32-2.56,11.58,11.58,0,0,1-.43-3.26,10.14,10.14,0,0,1,.54-3.42,7.32,7.32,0,0,1,1.53-2.57A6.39,6.39,0,0,1,219.22,38a8.18,8.18,0,0,1,3.07-.56c3.78,0,5.75,1.84,5.92,5.54,0,.62,0,1.19,0,1.7a8.33,8.33,0,0,1-.14,1.28h-8.93a8.67,8.67,0,0,0,.39,2.31,4.67,4.67,0,0,0,.87,1.56,3,3,0,0,0,1.26.87,4.61,4.61,0,0,0,1.61.27,6.77,6.77,0,0,0,1.3-.11,8.2,8.2,0,0,0,1.11-.27,6.67,6.67,0,0,0,.93-.37,7.59,7.59,0,0,0,.72-.39l.71,1.65a5.42,5.42,0,0,1-.95.75,10.13,10.13,0,0,1-1.4.71,11.54,11.54,0,0,1-1.69.55A7.73,7.73,0,0,1,222.14,53.69Zm-.37-14.44a2.46,2.46,0,0,0-1,.19,1.8,1.8,0,0,0-.81.73,4.75,4.75,0,0,0-.58,1.48,13.27,13.27,0,0,0-.28,2.45H224a1.58,1.58,0,0,1,0-.19c0-.08,0-.17,0-.26a2.26,2.26,0,0,0,0-.26v-.17a9.78,9.78,0,0,0-.1-1.42,4.8,4.8,0,0,0-.34-1.28,2.47,2.47,0,0,0-.7-.91A1.77,1.77,0,0,0,221.77,39.25Z"/><path class="cls-1" d="M230.08,49.22a4.21,4.21,0,0,1,.36-1.79,4.36,4.36,0,0,1,1-1.37,5.78,5.78,0,0,1,1.5-1,11,11,0,0,1,1.86-.68,14.88,14.88,0,0,1,2.07-.38c.72-.09,1.44-.14,2.16-.16v-.65A3.17,3.17,0,0,0,238.4,41a2.78,2.78,0,0,0-2.09-.67,9.33,9.33,0,0,0-1.48.12c-.5.08-1,.17-1.43.29a11.79,11.79,0,0,0-1.26.38c-.39.14-.72.28-1,.4h0l-.8-1.83a7.17,7.17,0,0,1,1-.61,12.39,12.39,0,0,1,1.64-.73,14.91,14.91,0,0,1,2.12-.61,10.48,10.48,0,0,1,2.39-.26,9.17,9.17,0,0,1,2.58.32,4,4,0,0,1,1.72,1,4.12,4.12,0,0,1,1,1.73A8.92,8.92,0,0,1,243,43v8.53h1.69V53.2l-.64.14c-.26.06-.54.11-.85.16s-.64.1-1,.13a9.69,9.69,0,0,1-1.09.06c-.33,0-.61,0-.84,0a1.23,1.23,0,0,1-.56-.19.86.86,0,0,1-.31-.43,2.54,2.54,0,0,1-.1-.76v-.8a4.32,4.32,0,0,1-.64.7,5.29,5.29,0,0,1-1,.73,6.63,6.63,0,0,1-1.32.56,5.53,5.53,0,0,1-1.63.23,6.23,6.23,0,0,1-1.81-.26,4,4,0,0,1-1.49-.81,3.76,3.76,0,0,1-1-1.39A5,5,0,0,1,230.08,49.22Zm6.49,1.83a2.38,2.38,0,0,0,.56-.07,4.78,4.78,0,0,0,.66-.19,5.65,5.65,0,0,0,.67-.29,3.16,3.16,0,0,0,.57-.39V45.58a8.28,8.28,0,0,0-2.22.25,4.13,4.13,0,0,0-1.43.65,2.4,2.4,0,0,0-.75,1,2.69,2.69,0,0,0-.23,1.13,2.73,2.73,0,0,0,.55,1.85A2,2,0,0,0,236.57,51.05Z"/><path class="cls-1" d="M246.39,53.37V51.54l2-.26V40.75l-1.86-.57V38.12l4.67-.67h.09L252,38V41.3H252a6,6,0,0,1,.6-1.1,7.27,7.27,0,0,1,1.06-1.28,6.38,6.38,0,0,1,1.47-1.07,3.68,3.68,0,0,1,1.79-.44,5.21,5.21,0,0,1,.65,0,1.63,1.63,0,0,1,.38.09v4.73a2.72,2.72,0,0,0-.79-.24,7.32,7.32,0,0,0-1.51-.13c-.32,0-.64,0-.95,0s-.62.09-.9.15a5.13,5.13,0,0,0-.74.21,2,2,0,0,0-.51.25v8.72l3.4.33v1.77Z"/><path class="cls-1" d="M261.26,50.09V40h-1.92V38.47l.35-.11.49-.19.46-.18.26-.13a4.39,4.39,0,0,0,1-1.32l.3-.63c.11-.24.21-.5.32-.76s.2-.53.29-.79.17-.49.23-.7h2.44l0,4.05h4V40h-4V47.6q0,1.09,0,1.74a3.33,3.33,0,0,0,.17,1,.69.69,0,0,0,.4.43,2.47,2.47,0,0,0,.75.09h0a5.75,5.75,0,0,0,.69,0l.71-.13c.23,0,.44-.11.64-.17l.49-.15h0l.64,1.59a7.26,7.26,0,0,1-1,.63,10.07,10.07,0,0,1-1.32.57,9.81,9.81,0,0,1-1.51.41,8,8,0,0,1-1.61.16h0a4.56,4.56,0,0,1-1.53-.23,2.47,2.47,0,0,1-1-.69,2.94,2.94,0,0,1-.57-1.13A6,6,0,0,1,261.26,50.09Z"/><path class="cls-1" d="M280,53.37V51.54l1.68-.27V33l-2-.35V31.08l5.32-.67H285l.83.64,0,6.44-.22,2.17a7,7,0,0,1,.92-.72,8.7,8.7,0,0,1,1.25-.71,9.15,9.15,0,0,1,1.53-.53,7,7,0,0,1,1.74-.21,5.63,5.63,0,0,1,2.21.37A3,3,0,0,1,294.67,39a5.28,5.28,0,0,1,.73,1.94,15.82,15.82,0,0,1,.21,2.76v7.58l1.93.27v1.83h-7.66V51.6l1.52-.3V43.65a11,11,0,0,0-.1-1.63,2.84,2.84,0,0,0-.36-1.13,1.62,1.62,0,0,0-.74-.65A3,3,0,0,0,289,40a3.81,3.81,0,0,0-.87.1,7.59,7.59,0,0,0-1.66.56,4.06,4.06,0,0,0-.61.38v10.2l1.87.27v1.83Z"/><path class="cls-1" d="M306.33,53.69a8.34,8.34,0,0,1-3.32-.6,6.06,6.06,0,0,1-2.28-1.68,6.77,6.77,0,0,1-1.32-2.56,12,12,0,0,1-.42-3.26,10.14,10.14,0,0,1,.54-3.42,7.16,7.16,0,0,1,1.52-2.57A6.42,6.42,0,0,1,303.42,38a8.13,8.13,0,0,1,3.06-.56c3.78,0,5.75,1.84,5.92,5.54,0,.62,0,1.19,0,1.7a8.33,8.33,0,0,1-.14,1.28h-8.93a8.64,8.64,0,0,0,.4,2.31,4.49,4.49,0,0,0,.86,1.56,3,3,0,0,0,1.26.87,4.65,4.65,0,0,0,1.61.27,6.7,6.7,0,0,0,1.3-.11,8.2,8.2,0,0,0,1.11-.27,6.67,6.67,0,0,0,.93-.37,7.59,7.59,0,0,0,.72-.39l.71,1.65a5.42,5.42,0,0,1-1,.75,10.58,10.58,0,0,1-1.39.71,11.68,11.68,0,0,1-1.7.55A7.67,7.67,0,0,1,306.33,53.69ZM306,39.25a2.46,2.46,0,0,0-1,.19,1.8,1.8,0,0,0-.81.73,4.76,4.76,0,0,0-.57,1.48,12.46,12.46,0,0,0-.28,2.45h4.9s0-.1,0-.19a2.17,2.17,0,0,0,0-.26,2.26,2.26,0,0,0,0-.26v-.17a11.4,11.4,0,0,0-.09-1.42,4.79,4.79,0,0,0-.35-1.28,2.37,2.37,0,0,0-.7-.91A1.77,1.77,0,0,0,306,39.25Z"/><path class="cls-1" d="M314.27,49.22a4.21,4.21,0,0,1,.36-1.79,4.36,4.36,0,0,1,1-1.37,5.78,5.78,0,0,1,1.5-1,11,11,0,0,1,1.86-.68,15,15,0,0,1,2.08-.38c.72-.09,1.44-.14,2.16-.16v-.65a3.16,3.16,0,0,0-.64-2.22,2.76,2.76,0,0,0-2.09-.67,9.33,9.33,0,0,0-1.48.12c-.5.08-1,.17-1.43.29a12.54,12.54,0,0,0-1.26.38c-.39.14-.72.28-1,.4h0l-.8-1.83a7.17,7.17,0,0,1,1-.61,12.39,12.39,0,0,1,1.64-.73,15.3,15.3,0,0,1,2.12-.61,10.48,10.48,0,0,1,2.39-.26,9.17,9.17,0,0,1,2.58.32,3.84,3.84,0,0,1,2.69,2.75,8.56,8.56,0,0,1,.31,2.46v8.53h1.69V53.2l-.64.14c-.25.06-.54.11-.85.16s-.64.1-1,.13a9.56,9.56,0,0,1-1.09.06c-.33,0-.61,0-.84,0a1.23,1.23,0,0,1-.56-.19.92.92,0,0,1-.31-.43,2.58,2.58,0,0,1-.09-.76v-.8a5,5,0,0,1-.65.7,5.29,5.29,0,0,1-1,.73,6.39,6.39,0,0,1-1.32.56,5.51,5.51,0,0,1-1.62.23,6.25,6.25,0,0,1-1.82-.26,4,4,0,0,1-1.49-.81,3.88,3.88,0,0,1-1-1.39A5,5,0,0,1,314.27,49.22Zm6.49,1.83a2.46,2.46,0,0,0,.57-.07,4.66,4.66,0,0,0,.65-.19,5.65,5.65,0,0,0,.67-.29,3.66,3.66,0,0,0,.58-.39V45.58a8.31,8.31,0,0,0-2.23.25,4.08,4.08,0,0,0-1.42.65,2.34,2.34,0,0,0-.76,1,2.85,2.85,0,0,0-.23,1.13,2.78,2.78,0,0,0,.55,1.85A2,2,0,0,0,320.76,51.05Z"/><path class="cls-1" d="M330.16,53.37V51.54l2-.27V33l-2-.35V31.08l5.35-.67h0l.86.64V51.27l2.07.27v1.83Z"/><path class="cls-1" d="M341.75,50.09V40h-1.93V38.47l.35-.11.49-.19.46-.18.26-.13a4.23,4.23,0,0,0,1-1.32l.3-.63c.11-.24.22-.5.32-.76s.21-.53.3-.79.17-.49.23-.7h2.43l.05,4.05h4V40h-4V47.6q0,1.09,0,1.74a3.39,3.39,0,0,0,.16,1,.7.7,0,0,0,.41.43,2.47,2.47,0,0,0,.75.09h0a5.6,5.6,0,0,0,.69,0l.71-.13c.24,0,.45-.11.65-.17l.48-.15h0l.64,1.59a7.42,7.42,0,0,1-1,.63,9.37,9.37,0,0,1-1.31.57,9.94,9.94,0,0,1-1.52.41,7.82,7.82,0,0,1-1.6.16h0a4.67,4.67,0,0,1-1.54-.23,2.49,2.49,0,0,1-1-.69,2.94,2.94,0,0,1-.57-1.13A6,6,0,0,1,341.75,50.09Z"/><path class="cls-1" d="M351.66,53.37V51.54l1.68-.27V33l-2-.35V31.08l5.32-.67h.07l.83.64,0,6.44-.22,2.17a8,8,0,0,1,.93-.72,8.19,8.19,0,0,1,1.25-.71A9,9,0,0,1,361,37.7a7,7,0,0,1,1.74-.21,5.65,5.65,0,0,1,2.22.37A3,3,0,0,1,366.37,39a5.1,5.1,0,0,1,.72,1.94,15.82,15.82,0,0,1,.21,2.76v7.58l1.93.27v1.83h-7.65V51.6l1.51-.3V43.65A12.76,12.76,0,0,0,363,42a3,3,0,0,0-.37-1.13,1.59,1.59,0,0,0-.73-.65,3,3,0,0,0-1.21-.21,3.83,3.83,0,0,0-.88.1,6.2,6.2,0,0,0-.87.24,6.06,6.06,0,0,0-.78.32,4.2,4.2,0,0,0-.62.38v10.2l1.88.27v1.83Z"/><path class="cls-1" d="M379.36,49.22a4.21,4.21,0,0,1,.36-1.79,4.52,4.52,0,0,1,1-1.37,6.13,6.13,0,0,1,1.5-1,11,11,0,0,1,1.86-.68,15,15,0,0,1,2.08-.38c.72-.09,1.44-.14,2.16-.16v-.65a3.12,3.12,0,0,0-.64-2.22,2.75,2.75,0,0,0-2.08-.67,9.36,9.36,0,0,0-1.49.12c-.49.08-1,.17-1.43.29a12.54,12.54,0,0,0-1.26.38c-.39.14-.72.28-1,.4h0l-.81-1.83a7.17,7.17,0,0,1,1-.61,13,13,0,0,1,1.64-.73,15.3,15.3,0,0,1,2.12-.61,10.48,10.48,0,0,1,2.39-.26,9.17,9.17,0,0,1,2.58.32A3.84,3.84,0,0,1,392,40.52a8.56,8.56,0,0,1,.31,2.46v8.53H394V53.2l-.64.14c-.25.06-.54.11-.85.16s-.64.1-1,.13a9.87,9.87,0,0,1-1.1.06c-.33,0-.61,0-.84,0a1.23,1.23,0,0,1-.56-.19.92.92,0,0,1-.31-.43,2.58,2.58,0,0,1-.09-.76v-.8a5.51,5.51,0,0,1-.64.7,5.74,5.74,0,0,1-1,.73,6.3,6.3,0,0,1-1.31.56,5.63,5.63,0,0,1-1.63.23,6.3,6.3,0,0,1-1.82-.26,3.88,3.88,0,0,1-1.48-.81,3.79,3.79,0,0,1-1-1.39A5.15,5.15,0,0,1,379.36,49.22Zm6.5,1.83a2.44,2.44,0,0,0,.56-.07,4.3,4.3,0,0,0,.65-.19,5.65,5.65,0,0,0,.67-.29,3.66,3.66,0,0,0,.58-.39V45.58a8.18,8.18,0,0,0-2.22.25,4,4,0,0,0-1.43.65,2.34,2.34,0,0,0-.76,1,2.85,2.85,0,0,0-.23,1.13,2.73,2.73,0,0,0,.56,1.85A2,2,0,0,0,385.86,51.05Z"/><path class="cls-1" d="M395.67,53.37V51.54l2-.26V40.75l-1.86-.57V38.12l4.68-.67h.08l.72.58V41.3h.06a5.84,5.84,0,0,1,.59-1.1A7.34,7.34,0,0,1,403,38.92a6.32,6.32,0,0,1,1.46-1.07,3.69,3.69,0,0,1,1.8-.44,5.32,5.32,0,0,1,.65,0,1.54,1.54,0,0,1,.37.09v4.73a2.73,2.73,0,0,0-.78-.24,7.45,7.45,0,0,0-1.51-.13c-.32,0-.64,0-1,0s-.62.09-.9.15a6,6,0,0,0-.74.21,2,2,0,0,0-.51.25v8.72l3.41.33v1.77Z"/><path class="cls-1" d="M416.15,53.69a8.29,8.29,0,0,1-3.31-.6,6,6,0,0,1-2.29-1.68,6.9,6.9,0,0,1-1.31-2.56,11.58,11.58,0,0,1-.43-3.26,10.14,10.14,0,0,1,.54-3.42,7.32,7.32,0,0,1,1.53-2.57A6.39,6.39,0,0,1,413.24,38a8.13,8.13,0,0,1,3.06-.56c3.79,0,5.76,1.84,5.92,5.54,0,.62,0,1.19,0,1.7a8.2,8.2,0,0,1-.15,1.28h-8.92a8.28,8.28,0,0,0,.39,2.31,4.83,4.83,0,0,0,.86,1.56,3.15,3.15,0,0,0,1.27.87,4.59,4.59,0,0,0,1.6.27,6.63,6.63,0,0,0,1.3-.11,8.36,8.36,0,0,0,1.12-.27,6.67,6.67,0,0,0,.93-.37,7.32,7.32,0,0,0,.71-.39l.72,1.65a5.42,5.42,0,0,1-.95.75,10.13,10.13,0,0,1-1.4.71,11.54,11.54,0,0,1-1.69.55A7.76,7.76,0,0,1,416.15,53.69Zm-.37-14.44a2.53,2.53,0,0,0-1,.19,1.83,1.83,0,0,0-.8.73,4.51,4.51,0,0,0-.58,1.48,13.27,13.27,0,0,0-.28,2.45H418a1.58,1.58,0,0,1,0-.19c0-.08,0-.17,0-.26a2.26,2.26,0,0,0,0-.26v-.17a9.78,9.78,0,0,0-.1-1.42,4.45,4.45,0,0,0-.35-1.28,2.44,2.44,0,0,0-.69-.91A1.78,1.78,0,0,0,415.78,39.25Z"/><path class="cls-2" d="M432.93,45.64a9.38,9.38,0,0,1,.64-3.63,7.61,7.61,0,0,1,1.71-2.57,6.94,6.94,0,0,1,2.47-1.53,8.46,8.46,0,0,1,2.92-.5,8.3,8.3,0,0,1,3.14.55,6.17,6.17,0,0,1,2.3,1.59,6.92,6.92,0,0,1,1.41,2.53,11,11,0,0,1,.48,3.38,9.62,9.62,0,0,1-.65,3.69,7.28,7.28,0,0,1-1.71,2.56,6.75,6.75,0,0,1-2.46,1.49,8.63,8.63,0,0,1-2.91.49,8.3,8.3,0,0,1-3.14-.56,6.09,6.09,0,0,1-2.31-1.59A6.84,6.84,0,0,1,433.41,49,11,11,0,0,1,432.93,45.64Zm7.57,6.16a2.46,2.46,0,0,0,1.3-.33,2.53,2.53,0,0,0,.91-1.06,6,6,0,0,0,.53-1.83,17.29,17.29,0,0,0,.18-2.68,23.6,23.6,0,0,0-.16-2.84,8.23,8.23,0,0,0-.51-2.07,3,3,0,0,0-.91-1.27,2.28,2.28,0,0,0-1.39-.43,2.44,2.44,0,0,0-1.31.34,2.52,2.52,0,0,0-.92,1,6.08,6.08,0,0,0-.55,1.84,17.32,17.32,0,0,0-.17,2.68,21.92,21.92,0,0,0,.16,2.84,7.6,7.6,0,0,0,.53,2.07,3.1,3.1,0,0,0,.93,1.26A2.19,2.19,0,0,0,440.5,51.8Z"/><path class="cls-2" d="M463,53.69a2.07,2.07,0,0,1-1.46-.44,1.69,1.69,0,0,1-.47-1.3v-.49a5.65,5.65,0,0,1-.86.81,8,8,0,0,1-1.13.71,6.36,6.36,0,0,1-1.32.52,5.54,5.54,0,0,1-1.39.19,7.54,7.54,0,0,1-2.31-.32,3.5,3.5,0,0,1-1.57-1,4.36,4.36,0,0,1-.91-1.84,10.9,10.9,0,0,1-.3-2.75V40l-1.36-.51v-1.6l4.92-.39h0l.63.38v10a8.13,8.13,0,0,0,.12,1.52,2.37,2.37,0,0,0,.39,1,1.5,1.5,0,0,0,.72.57,3.06,3.06,0,0,0,1.12.18,3.62,3.62,0,0,0,1-.11,4.75,4.75,0,0,0,.78-.26,3.15,3.15,0,0,0,.61-.32,3.76,3.76,0,0,0,.43-.31V40l-1.89-.53V37.8l5.3-.35h0l.75.38V51.51h1.52v1.7l-1.38.3A9.49,9.49,0,0,1,463,53.69Z"/><path class="cls-2" d="M468.41,53.37V51.54l2-.26V40.75l-1.86-.57V38.12l4.67-.67h.08L474,38V41.3H474a6.49,6.49,0,0,1,.59-1.1,7.81,7.81,0,0,1,1.07-1.28,6.54,6.54,0,0,1,1.46-1.07,3.72,3.72,0,0,1,1.8-.44,5.32,5.32,0,0,1,.65,0,1.63,1.63,0,0,1,.38.09v4.73a2.72,2.72,0,0,0-.79-.24,7.38,7.38,0,0,0-1.51-.13c-.32,0-.64,0-1,0s-.61.09-.89.15a5.7,5.7,0,0,0-.75.21,1.93,1.93,0,0,0-.5.25v8.72l3.4.33v1.77Z"/><path class="cls-2" d="M492.07,50.09V40h-1.92V38.47l.34-.11.5-.19.45-.18.26-.13a4.23,4.23,0,0,0,1-1.32c.1-.18.2-.39.31-.63l.32-.76c.1-.27.2-.53.29-.79s.17-.49.23-.7h2.44l0,4.05h4V40h-4V47.6q0,1.09,0,1.74a3,3,0,0,0,.17,1,.69.69,0,0,0,.4.43,2.47,2.47,0,0,0,.75.09h0a5.89,5.89,0,0,0,.69,0l.71-.13c.23,0,.44-.11.64-.17l.48-.15h0l.64,1.59a7.26,7.26,0,0,1-1,.63,10.54,10.54,0,0,1-2.83,1,8,8,0,0,1-1.61.16h0a4.67,4.67,0,0,1-1.54-.23,2.49,2.49,0,0,1-1-.69,2.94,2.94,0,0,1-.57-1.13A6,6,0,0,1,492.07,50.09Z"/><path class="cls-2" d="M501.9,45.64a9.38,9.38,0,0,1,.65-3.63,7.44,7.44,0,0,1,1.7-2.57,7.12,7.12,0,0,1,2.47-1.53,8.5,8.5,0,0,1,2.92-.5,8.32,8.32,0,0,1,3.15.55,6.13,6.13,0,0,1,2.29,1.59,6.92,6.92,0,0,1,1.41,2.53,11,11,0,0,1,.48,3.38,9.63,9.63,0,0,1-.64,3.69,7.28,7.28,0,0,1-1.71,2.56,6.75,6.75,0,0,1-2.46,1.49,8.63,8.63,0,0,1-2.91.49,8.31,8.31,0,0,1-3.15-.56,6.05,6.05,0,0,1-2.3-1.59A6.72,6.72,0,0,1,502.38,49,11,11,0,0,1,501.9,45.64Zm7.58,6.16a2.49,2.49,0,0,0,1.3-.33,2.68,2.68,0,0,0,.91-1.06,6.34,6.34,0,0,0,.53-1.83,18.77,18.77,0,0,0,.17-2.68,21.7,21.7,0,0,0-.16-2.84,7.85,7.85,0,0,0-.5-2.07,3.05,3.05,0,0,0-.92-1.27,2.28,2.28,0,0,0-1.39-.43,2.4,2.4,0,0,0-1.3.34,2.54,2.54,0,0,0-.93,1,6.4,6.4,0,0,0-.54,1.84,17.2,17.2,0,0,0-.18,2.68,21.92,21.92,0,0,0,.16,2.84,8,8,0,0,0,.53,2.07,3.1,3.1,0,0,0,.93,1.26A2.21,2.21,0,0,0,509.48,51.8Z"/><path class="cls-2" d="M518.73,58.42l2-.34V40.75l-1.86-.57V38.12l4.9-.67h.07l.69.58v1.45a6.68,6.68,0,0,1,.81-.77,5.75,5.75,0,0,1,1-.66,6.46,6.46,0,0,1,1.26-.47,5.78,5.78,0,0,1,1.48-.17,6.53,6.53,0,0,1,2.35.42,4.74,4.74,0,0,1,1.92,1.35,6.6,6.6,0,0,1,1.3,2.38,11.74,11.74,0,0,1,.47,3.53,10,10,0,0,1-.56,3.38,7.89,7.89,0,0,1-1.59,2.73A7.45,7.45,0,0,1,530.53,53a8.19,8.19,0,0,1-3.36.66c-.23,0-.45,0-.68,0l-.64-.07c-.21,0-.39-.05-.55-.08l-.4-.08L525,55.7v2.38l2.71.34v1.74h-9Zm8.7-18.53a3.37,3.37,0,0,0-1.46.3,2.94,2.94,0,0,0-1,.66V51.2a2,2,0,0,0,.75.46,3.62,3.62,0,0,0,1.26.2,3.23,3.23,0,0,0,1.4-.32,3.05,3.05,0,0,0,1.16-1.06,6.23,6.23,0,0,0,.79-1.95,13.29,13.29,0,0,0,.33-3,11.87,11.87,0,0,0-.2-2.62,5.6,5.6,0,0,0-.65-1.77,2.7,2.7,0,0,0-1-1A3.06,3.06,0,0,0,527.43,39.89Z"/><path class="cls-2" d="M545.84,58.42l2.06-.34V40.75L546,40.18V38.12l4.89-.67H551l.7.58v1.45a5.91,5.91,0,0,1,.8-.77,5.75,5.75,0,0,1,1-.66,6.46,6.46,0,0,1,1.26-.47,5.83,5.83,0,0,1,1.48-.17,6.49,6.49,0,0,1,2.35.42,4.84,4.84,0,0,1,1.93,1.35,6.74,6.74,0,0,1,1.29,2.38,11.74,11.74,0,0,1,.47,3.53,10.28,10.28,0,0,1-.55,3.38,7.91,7.91,0,0,1-1.6,2.73A7.45,7.45,0,0,1,557.64,53a8.19,8.19,0,0,1-3.36.66c-.23,0-.45,0-.68,0l-.64-.07-.55-.08-.4-.08.08,2.27v2.38l2.71.34v1.74h-9Zm8.7-18.53a3.4,3.4,0,0,0-1.46.3,2.94,2.94,0,0,0-1,.66V51.2a2,2,0,0,0,.75.46,3.62,3.62,0,0,0,1.26.2,3.23,3.23,0,0,0,1.4-.32,3,3,0,0,0,1.16-1.06,6.23,6.23,0,0,0,.79-1.95,13.29,13.29,0,0,0,.33-3,11.87,11.87,0,0,0-.2-2.62,5.6,5.6,0,0,0-.65-1.77,2.63,2.63,0,0,0-1-1A3,3,0,0,0,554.54,39.89Z"/><path class="cls-2" d="M564.49,53.37V51.54l2-.26V40.75l-1.86-.57V38.12l4.68-.67h.08l.72.58V41.3h.06a5.84,5.84,0,0,1,.59-1.1,7.34,7.34,0,0,1,1.07-1.28,6.32,6.32,0,0,1,1.46-1.07,3.69,3.69,0,0,1,1.8-.44,5.32,5.32,0,0,1,.65,0,1.54,1.54,0,0,1,.37.09v4.73a2.73,2.73,0,0,0-.78-.24,7.45,7.45,0,0,0-1.51-.13c-.32,0-.64,0-1,0s-.62.09-.9.15a6,6,0,0,0-.74.21,2,2,0,0,0-.51.25v8.72l3.41.33v1.77Z"/><path class="cls-2" d="M577.8,53.37V51.54l2-.26V40.75L578,40.17V38.12l5-.67H583l1,.58V51.27l2,.27v1.83Zm3.63-18.23a1.93,1.93,0,0,1-.85-.18,2,2,0,0,1-.63-.47,1.9,1.9,0,0,1-.38-.7,2.67,2.67,0,0,1-.13-.86,3.27,3.27,0,0,1,.14-1,2.45,2.45,0,0,1,.44-.83,2.24,2.24,0,0,1,.75-.56,2.56,2.56,0,0,1,1-.2h0a2.35,2.35,0,0,1,1,.18,2.12,2.12,0,0,1,.68.49,2.07,2.07,0,0,1,.4.71,2.53,2.53,0,0,1,.13.83,3.31,3.31,0,0,1-.15,1,2.21,2.21,0,0,1-.46.82,2.08,2.08,0,0,1-.79.55,3.09,3.09,0,0,1-1.14.2Z"/><path class="cls-2" d="M587.61,45.64a9.57,9.57,0,0,1,.64-3.63A7.61,7.61,0,0,1,590,39.44a7,7,0,0,1,2.47-1.53,8.5,8.5,0,0,1,2.92-.5,8.35,8.35,0,0,1,3.15.55,6.13,6.13,0,0,1,2.29,1.59,6.92,6.92,0,0,1,1.41,2.53,11,11,0,0,1,.48,3.38,9.82,9.82,0,0,1-.64,3.69,7.28,7.28,0,0,1-1.71,2.56,6.75,6.75,0,0,1-2.46,1.49,8.65,8.65,0,0,1-2.92.49,8.3,8.3,0,0,1-3.14-.56,6.05,6.05,0,0,1-2.3-1.59A6.72,6.72,0,0,1,588.09,49,11,11,0,0,1,587.61,45.64Zm7.58,6.16a2.49,2.49,0,0,0,1.3-.33,2.58,2.58,0,0,0,.9-1.06,6,6,0,0,0,.54-1.83,18.77,18.77,0,0,0,.17-2.68,21.7,21.7,0,0,0-.16-2.84,7.85,7.85,0,0,0-.5-2.07,3.05,3.05,0,0,0-.92-1.27,2.28,2.28,0,0,0-1.39-.43,2.4,2.4,0,0,0-1.3.34,2.54,2.54,0,0,0-.93,1,6.1,6.1,0,0,0-.54,1.84,17.2,17.2,0,0,0-.18,2.68,21.92,21.92,0,0,0,.16,2.84,8,8,0,0,0,.53,2.07,3.1,3.1,0,0,0,.93,1.26A2.21,2.21,0,0,0,595.19,51.8Z"/><path class="cls-2" d="M604.77,53.37V51.54l2-.26V40.75l-1.86-.57V38.12l4.68-.67h.08l.72.58V41.3h0a6,6,0,0,1,.6-1.1,7.74,7.74,0,0,1,1.06-1.28,6.6,6.6,0,0,1,1.47-1.07,3.69,3.69,0,0,1,1.8-.44,5.14,5.14,0,0,1,.64,0,1.52,1.52,0,0,1,.38.09v4.73a2.72,2.72,0,0,0-.79-.24,7.32,7.32,0,0,0-1.51-.13c-.32,0-.63,0-.95,0s-.62.09-.9.15a5.13,5.13,0,0,0-.74.21,2,2,0,0,0-.51.25v8.72l3.4.33v1.77Z"/><path class="cls-2" d="M618.07,53.37V51.54l2-.26V40.75l-1.85-.58V38.12l5-.67h.07l1,.58V51.27l2,.27v1.83Zm3.64-18.23a1.93,1.93,0,0,1-.85-.18,1.89,1.89,0,0,1-.63-.47,2.08,2.08,0,0,1-.39-.7,3,3,0,0,1-.13-.86,3.27,3.27,0,0,1,.15-1,2.29,2.29,0,0,1,.44-.83,2.24,2.24,0,0,1,.75-.56,2.52,2.52,0,0,1,1-.2h0a2.37,2.37,0,0,1,1,.18,2,2,0,0,1,.67.49,1.94,1.94,0,0,1,.41.71,2.83,2.83,0,0,1,.13.83,3.31,3.31,0,0,1-.15,1,2.36,2.36,0,0,1-.46.82,2.16,2.16,0,0,1-.79.55,3.11,3.11,0,0,1-1.15.2Z"/><path class="cls-2" d="M629.69,50.09V40h-1.92V38.47l.35-.11.49-.19.46-.18.26-.13a4.57,4.57,0,0,0,1-1.32l.3-.63c.11-.24.21-.5.32-.76s.2-.53.29-.79.17-.49.23-.7h2.44l0,4.05h4V40h-4V47.6q0,1.09,0,1.74a3.33,3.33,0,0,0,.17,1,.69.69,0,0,0,.4.43,2.47,2.47,0,0,0,.75.09h0a5.75,5.75,0,0,0,.69,0l.71-.13c.23,0,.44-.11.64-.17l.49-.15h0l.64,1.59a7.26,7.26,0,0,1-1,.63,10.07,10.07,0,0,1-1.32.57,9.81,9.81,0,0,1-1.51.41,8,8,0,0,1-1.61.16h0a4.67,4.67,0,0,1-1.54-.23,2.49,2.49,0,0,1-1-.69,2.94,2.94,0,0,1-.57-1.13A6,6,0,0,1,629.69,50.09Z"/><path class="cls-2" d="M639.76,53.37V51.54l2-.26V40.75l-1.84-.58V38.12l5-.67H645l1,.58V51.27l2,.27v1.83Zm3.63-18.23a1.93,1.93,0,0,1-.85-.18,2,2,0,0,1-.63-.47,1.9,1.9,0,0,1-.38-.7,2.67,2.67,0,0,1-.13-.86,3.61,3.61,0,0,1,.14-1,2.47,2.47,0,0,1,.45-.83,2.2,2.2,0,0,1,.74-.56,2.56,2.56,0,0,1,1-.2h0a2.35,2.35,0,0,1,1,.18,2.12,2.12,0,0,1,.68.49,2.07,2.07,0,0,1,.4.71,2.53,2.53,0,0,1,.13.83,3.31,3.31,0,0,1-.15,1,2.21,2.21,0,0,1-.46.82,2.08,2.08,0,0,1-.79.55,3.05,3.05,0,0,1-1.14.2Z"/><path class="cls-2" d="M657,53.69a8.29,8.29,0,0,1-3.31-.6,6,6,0,0,1-2.29-1.68,6.9,6.9,0,0,1-1.31-2.56,11.58,11.58,0,0,1-.43-3.26,10.14,10.14,0,0,1,.54-3.42,7.32,7.32,0,0,1,1.53-2.57A6.39,6.39,0,0,1,654.07,38a8.13,8.13,0,0,1,3.06-.56c3.79,0,5.76,1.84,5.92,5.54,0,.62,0,1.19,0,1.7a8.2,8.2,0,0,1-.15,1.28H654a8.28,8.28,0,0,0,.39,2.31,4.83,4.83,0,0,0,.86,1.56,3.15,3.15,0,0,0,1.27.87,4.59,4.59,0,0,0,1.6.27,6.63,6.63,0,0,0,1.3-.11,8.36,8.36,0,0,0,1.12-.27,6.67,6.67,0,0,0,.93-.37c.28-.13.51-.27.72-.39l.71,1.65a5.42,5.42,0,0,1-1,.75,10.13,10.13,0,0,1-1.4.71,11.54,11.54,0,0,1-1.69.55A7.76,7.76,0,0,1,657,53.69Zm-.37-14.44a2.53,2.53,0,0,0-1,.19,1.83,1.83,0,0,0-.8.73,4.51,4.51,0,0,0-.58,1.48A13.27,13.27,0,0,0,654,44.1h4.91a1.58,1.58,0,0,1,0-.19c0-.08,0-.17,0-.26a2.26,2.26,0,0,0,0-.26v-.17a9.78,9.78,0,0,0-.1-1.42,4.45,4.45,0,0,0-.35-1.28,2.44,2.44,0,0,0-.69-.91A1.78,1.78,0,0,0,656.61,39.25Z"/><path class="cls-2" d="M665.61,52.5V48.66h2.52l.71,2.13a1.41,1.41,0,0,0,.37.36,3.36,3.36,0,0,0,.6.31,5.28,5.28,0,0,0,.79.23,4.57,4.57,0,0,0,.92.08,3.18,3.18,0,0,0,1.11-.16,1.93,1.93,0,0,0,.69-.42,1.45,1.45,0,0,0,.36-.57,2.27,2.27,0,0,0,.09-.62,1.68,1.68,0,0,0-.29-1,3,3,0,0,0-.84-.77,9.13,9.13,0,0,0-1.3-.68l-1.7-.71A10.66,10.66,0,0,1,668,46a6.18,6.18,0,0,1-1.28-1.06,4.35,4.35,0,0,1-.81-1.31,4.46,4.46,0,0,1-.29-1.63,4,4,0,0,1,.4-1.8,4,4,0,0,1,1.2-1.43,5.84,5.84,0,0,1,2-1,9.66,9.66,0,0,1,2.72-.35,10.77,10.77,0,0,1,1.6.11c.47.07.9.16,1.28.25s.74.2,1.06.3a5.54,5.54,0,0,0,.93.24v3.78l-2.38,0-.65-1.81a1.81,1.81,0,0,0-.72-.61,2.86,2.86,0,0,0-1.35-.31,3.44,3.44,0,0,0-1,.14,1.8,1.8,0,0,0-.67.37,1.26,1.26,0,0,0-.36.51,1.6,1.6,0,0,0-.11.57,1.86,1.86,0,0,0,.37,1.17,3.36,3.36,0,0,0,.93.77,8.64,8.64,0,0,0,1.23.55c.45.16.87.33,1.27.51.6.27,1.18.55,1.73.84a7.44,7.44,0,0,1,1.45,1,4.35,4.35,0,0,1,1,1.36,4.16,4.16,0,0,1,.38,1.84,4.34,4.34,0,0,1-.39,1.84,4,4,0,0,1-1.18,1.48,5.63,5.63,0,0,1-2,1,9.59,9.59,0,0,1-2.77.36,12.08,12.08,0,0,1-2-.15c-.6-.1-1.14-.22-1.63-.35s-.92-.27-1.3-.4A9.12,9.12,0,0,0,665.61,52.5Z"/><path class="cls-2" d="M682.89,53.61a2.76,2.76,0,0,1-.91-.15,2.25,2.25,0,0,1-.77-.44,2.1,2.1,0,0,1-.52-.69,2.06,2.06,0,0,1-.19-.91,2.32,2.32,0,0,1,.22-1,2.6,2.6,0,0,1,.6-.83,2.72,2.72,0,0,1,.89-.55,2.8,2.8,0,0,1,1.08-.2,3.11,3.11,0,0,1,1.13.18,1.93,1.93,0,0,1,.76.47,1.82,1.82,0,0,1,.43.7,3,3,0,0,1,.13.85,2.56,2.56,0,0,1-.8,1.89,2.71,2.71,0,0,1-.91.52A3.49,3.49,0,0,1,682.89,53.61Z"/></svg>