<svg id="Layer_1" data-name="Layer 1" xmlns="http://www.w3.org/2000/svg" viewBox="0 0 160 600"><defs><style>.cls-1{fill:#fff;}.cls-2{fill:#f1b533;}</style></defs><path class="cls-1" d="M15,373.77V372.7l1-.22,3.77-10.65h2.5L26,372.48l1.09.22v1.07H22V372.7l1.27-.22-.59-1.91H18.45l-.55,1.92,1.29.21v1.07Zm5.3-9.45-1.46,5h3.52l-1.54-5-.27-1.14Z"/><path class="cls-1" d="M32.51,373.27v-2.2h1.43l.41,1.22a.89.89,0,0,0,.22.21,2.63,2.63,0,0,0,.34.18,2.44,2.44,0,0,0,.45.12,2.24,2.24,0,0,0,.52.06,1.91,1.91,0,0,0,.64-.1,1.08,1.08,0,0,0,.39-.24.75.75,0,0,0,.21-.32,1.63,1.63,0,0,0,.05-.36.92.92,0,0,0-.17-.57,1.64,1.64,0,0,0-.47-.43,4.36,4.36,0,0,0-.75-.39l-1-.41a5.86,5.86,0,0,1-1-.49,3.34,3.34,0,0,1-.73-.6,2.41,2.41,0,0,1-.46-.75,2.52,2.52,0,0,1-.17-.93,2.39,2.39,0,0,1,.23-1,2.44,2.44,0,0,1,.69-.82,3.34,3.34,0,0,1,1.12-.54,5.28,5.28,0,0,1,1.56-.2,6.36,6.36,0,0,1,.92.06l.73.14.6.17a3.79,3.79,0,0,0,.53.14v2.16l-1.36,0-.37-1a1.05,1.05,0,0,0-.41-.35,1.76,1.76,0,0,0-.78-.18,2,2,0,0,0-.59.08,1.07,1.07,0,0,0-.38.21,1.12,1.12,0,0,0-.21.29,1,1,0,0,0-.06.33,1.05,1.05,0,0,0,.21.67,1.92,1.92,0,0,0,.53.44,4.6,4.6,0,0,0,.71.31,7.76,7.76,0,0,1,.72.3q.52.23,1,.48a3.88,3.88,0,0,1,.83.59,2.74,2.74,0,0,1,.58.77,2.47,2.47,0,0,1,.21,1.06,2.44,2.44,0,0,1-.22,1,2.33,2.33,0,0,1-.67.84,3.42,3.42,0,0,1-1.13.57,5.67,5.67,0,0,1-1.58.2,6.55,6.55,0,0,1-1.13-.09,7.19,7.19,0,0,1-.93-.2c-.28-.07-.52-.15-.74-.22A5.53,5.53,0,0,0,32.51,373.27Z"/><path class="cls-1" d="M40.67,373.77v-1l1.14-.15v-6l-1.05-.34v-1.17l2.86-.38h0l.57.33v7.57l1.14.15v1Zm2.08-10.42a1.26,1.26,0,0,1-.49-.1,1.22,1.22,0,0,1-.36-.27,1.2,1.2,0,0,1-.22-.4,1.61,1.61,0,0,1-.07-.49,2.12,2.12,0,0,1,.08-.57,1.57,1.57,0,0,1,.25-.48,1.26,1.26,0,0,1,1-.43h0a1.32,1.32,0,0,1,.55.1,1.39,1.39,0,0,1,.39.28,1.23,1.23,0,0,1,.23.4,1.55,1.55,0,0,1,.07.48,1.81,1.81,0,0,1-.09.58,1.18,1.18,0,0,1-.71.78,1.64,1.64,0,0,1-.65.12Z"/><path class="cls-1" d="M46.55,373.77v-1l1-.18v-6l-1.06-.33v-1.18l2.77-.38h0l.42.33v.93a3.94,3.94,0,0,1,.64-.47,5.05,5.05,0,0,1,.81-.39,5.62,5.62,0,0,1,.88-.28,4.55,4.55,0,0,1,.86-.1,3,3,0,0,1,1.43.29,1.8,1.8,0,0,1,.81.92,4.49,4.49,0,0,1,.57-.41,6.46,6.46,0,0,1,.79-.39,5.93,5.93,0,0,1,.9-.29,3.75,3.75,0,0,1,.92-.12,3.29,3.29,0,0,1,1.22.19,1.6,1.6,0,0,1,.79.61,2.84,2.84,0,0,1,.43,1.1,9.49,9.49,0,0,1,.12,1.64v4.34l1.1.18v1H57.62v-1l.82-.18V368.3a7.36,7.36,0,0,0-.06-1,2,2,0,0,0-.22-.67.93.93,0,0,0-.43-.38,1.59,1.59,0,0,0-.66-.12,1.77,1.77,0,0,0-.43.06,4.12,4.12,0,0,0-.47.13,4.68,4.68,0,0,0-.45.19,3.5,3.5,0,0,0-.39.2,3.93,3.93,0,0,1,.09.72c0,.25,0,.53,0,.84v4.33l1,.17v1H52.11v-1l.94-.17v-4.37a5.11,5.11,0,0,0-.07-.93,1.72,1.72,0,0,0-.21-.64.89.89,0,0,0-.42-.37,1.41,1.41,0,0,0-.66-.13,2.1,2.1,0,0,0-.48.06,4.1,4.1,0,0,0-.5.14,3,3,0,0,0-.45.18,2.51,2.51,0,0,0-.34.22v5.83l1.06.18v1Z"/><path class="cls-1" d="M62.73,376.65l1.18-.19v-9.9l-1.07-.33v-1.18l2.8-.38h0l.4.33v.83a3.24,3.24,0,0,1,.46-.44,3.15,3.15,0,0,1,.59-.38,3.73,3.73,0,0,1,1.56-.37,3.77,3.77,0,0,1,1.35.25,2.69,2.69,0,0,1,1.1.77,3.75,3.75,0,0,1,.74,1.36,6.63,6.63,0,0,1,.27,2,5.79,5.79,0,0,1-.32,1.93,4.58,4.58,0,0,1-.91,1.56,4.19,4.19,0,0,1-1.44,1,4.75,4.75,0,0,1-1.93.38l-.38,0-.37,0-.32,0-.22-.05,0,1.3v1.36l1.55.19v1H62.73Zm5-10.58a2,2,0,0,0-.83.16,1.88,1.88,0,0,0-.57.38v5.92a1.22,1.22,0,0,0,.43.26,2.18,2.18,0,0,0,.72.11,1.84,1.84,0,0,0,.8-.18,1.6,1.6,0,0,0,.66-.61,3.6,3.6,0,0,0,.46-1.11,7.78,7.78,0,0,0,.18-1.68,6.65,6.65,0,0,0-.11-1.5,3.29,3.29,0,0,0-.37-1,1.53,1.53,0,0,0-.59-.57A1.66,1.66,0,0,0,67.7,366.07Z"/><path class="cls-1" d="M73.15,373.77v-1l1.13-.15V362.14l-1.16-.2V361l3-.39h0l.5.37v11.56l1.18.15v1Z"/><path class="cls-1" d="M83,374a4.92,4.92,0,0,1-1.9-.34,3.43,3.43,0,0,1-1.3-1,4,4,0,0,1-.76-1.47,6.76,6.76,0,0,1-.24-1.86,5.62,5.62,0,0,1,.31-1.95A4,4,0,0,1,80,365.9a3.88,3.88,0,0,1,1.35-.93,4.7,4.7,0,0,1,1.75-.32q3.24,0,3.38,3.17c0,.36,0,.68,0,1a4.51,4.51,0,0,1-.08.73h-5.1a4.77,4.77,0,0,0,.22,1.32,2.62,2.62,0,0,0,.5.89,1.71,1.71,0,0,0,.72.5,2.69,2.69,0,0,0,.92.16,3.51,3.51,0,0,0,.74-.07,5.47,5.47,0,0,0,.64-.15,3.66,3.66,0,0,0,.53-.21l.41-.23.4.95a3.4,3.4,0,0,1-.54.42,4.6,4.6,0,0,1-.8.41,5.51,5.51,0,0,1-1,.31A4.14,4.14,0,0,1,83,374Zm-.22-8.25a1.47,1.47,0,0,0-.56.11,1,1,0,0,0-.46.41,2.74,2.74,0,0,0-.33.85,7,7,0,0,0-.16,1.4h2.8a.54.54,0,0,1,0-.11.86.86,0,0,1,0-.15V368a5.49,5.49,0,0,0-.06-.8,2.51,2.51,0,0,0-.19-.73,1.43,1.43,0,0,0-.4-.53A1.06,1.06,0,0,0,82.76,365.7Z"/><path class="cls-1" d="M16.23,395.27v-2.2h1.43l.41,1.22a1,1,0,0,0,.21.21l.35.18a2.44,2.44,0,0,0,.45.12,2.18,2.18,0,0,0,.52.06,1.91,1.91,0,0,0,.64-.1,1.08,1.08,0,0,0,.39-.24.64.64,0,0,0,.2-.32,1.23,1.23,0,0,0,.06-.36,1,1,0,0,0-.17-.57,1.64,1.64,0,0,0-.47-.43,4.36,4.36,0,0,0-.75-.39l-1-.41a5.86,5.86,0,0,1-1-.49,3.34,3.34,0,0,1-.73-.6,2.41,2.41,0,0,1-.46-.75,2.52,2.52,0,0,1-.17-.93,2.39,2.39,0,0,1,.23-1,2.33,2.33,0,0,1,.69-.82,3.34,3.34,0,0,1,1.12-.54,5.28,5.28,0,0,1,1.56-.2,6.12,6.12,0,0,1,.91.06c.27,0,.52.09.73.14l.61.17a3.79,3.79,0,0,0,.53.14v2.16l-1.36,0-.37-1a1.05,1.05,0,0,0-.41-.35,1.76,1.76,0,0,0-.78-.18,2,2,0,0,0-.59.08,1,1,0,0,0-.38.21.93.93,0,0,0-.21.29,1,1,0,0,0-.06.33,1.05,1.05,0,0,0,.21.67,1.92,1.92,0,0,0,.53.44,4.6,4.6,0,0,0,.71.31,7.76,7.76,0,0,1,.72.3c.35.15.67.31,1,.48a3.88,3.88,0,0,1,.83.59,2.74,2.74,0,0,1,.58.77,2.47,2.47,0,0,1,.21,1.06,2.44,2.44,0,0,1-.22,1,2.33,2.33,0,0,1-.67.84,3.42,3.42,0,0,1-1.13.57,5.67,5.67,0,0,1-1.58.2,6.55,6.55,0,0,1-1.13-.09,7.19,7.19,0,0,1-.93-.2c-.28-.07-.53-.15-.74-.22A5.53,5.53,0,0,0,16.23,395.27Z"/><path class="cls-1" d="M24.31,391.4a5.7,5.7,0,0,1,.32-1.93,4.35,4.35,0,0,1,.9-1.5A4,4,0,0,1,27,387a4.78,4.78,0,0,1,1.86-.35,7.06,7.06,0,0,1,1,.06c.29,0,.55.09.78.14s.43.11.6.16l.4.13-.07,2.66H30.1l-.45-1.37a1.71,1.71,0,0,0-.42-.52,1,1,0,0,0-.61-.19,1.32,1.32,0,0,0-.67.18,1.58,1.58,0,0,0-.56.56,3,3,0,0,0-.4,1,6,6,0,0,0-.15,1.45,7.05,7.05,0,0,0,.16,1.64,3.14,3.14,0,0,0,.44,1.09,1.7,1.7,0,0,0,.72.59,2.19,2.19,0,0,0,.94.19,3.6,3.6,0,0,0,1.25-.2,4.64,4.64,0,0,0,.89-.42l.42.94a2.65,2.65,0,0,1-.48.4,4,4,0,0,1-.72.4,4.53,4.53,0,0,1-.9.31,4,4,0,0,1-1,.13,5,5,0,0,1-1.9-.34,3.43,3.43,0,0,1-1.3-1,3.68,3.68,0,0,1-.76-1.44A6.14,6.14,0,0,1,24.31,391.4Z"/><path class="cls-1" d="M32.77,395.77v-1l1.13-.15v-6l-1.07-.33v-1.18l2.68-.38h0L36,387v1.87h0a3.72,3.72,0,0,1,.34-.63,5,5,0,0,1,.61-.73,3.48,3.48,0,0,1,.84-.61,2.09,2.09,0,0,1,1-.26l.37,0,.22,0v2.71a1.56,1.56,0,0,0-.45-.14,4.33,4.33,0,0,0-.86-.07,4.93,4.93,0,0,0-.55,0l-.51.08a2.43,2.43,0,0,0-.43.12l-.29.14v5l2,.18v1Z"/><path class="cls-1" d="M44.48,396a4.92,4.92,0,0,1-1.9-.34,3.43,3.43,0,0,1-1.3-1,4,4,0,0,1-.76-1.47,6.76,6.76,0,0,1-.24-1.86,5.62,5.62,0,0,1,.31-1.95,4,4,0,0,1,.87-1.47,3.88,3.88,0,0,1,1.35-.93,4.7,4.7,0,0,1,1.75-.32q3.24,0,3.38,3.17c0,.36,0,.68,0,1a4.51,4.51,0,0,1-.08.73h-5.1a4.77,4.77,0,0,0,.22,1.32,2.62,2.62,0,0,0,.5.89,1.71,1.71,0,0,0,.72.5,2.69,2.69,0,0,0,.92.16,3.51,3.51,0,0,0,.74-.07,5.47,5.47,0,0,0,.64-.15A3.66,3.66,0,0,0,47,394l.41-.23.4.95a3.4,3.4,0,0,1-.54.42,4.6,4.6,0,0,1-.8.41,5.51,5.51,0,0,1-1,.31A4.14,4.14,0,0,1,44.48,396Zm-.22-8.25a1.47,1.47,0,0,0-.56.11,1,1,0,0,0-.46.41,2.74,2.74,0,0,0-.33.85,7,7,0,0,0-.16,1.4h2.8a.54.54,0,0,1,0-.11.86.86,0,0,1,0-.15V390a5.49,5.49,0,0,0-.06-.8,2.51,2.51,0,0,0-.19-.73,1.43,1.43,0,0,0-.4-.53A1.06,1.06,0,0,0,44.26,387.7Z"/><path class="cls-1" d="M53.27,396a4.91,4.91,0,0,1-1.89-.34,3.46,3.46,0,0,1-1.31-1,3.94,3.94,0,0,1-.75-1.47,6.76,6.76,0,0,1-.24-1.86,5.62,5.62,0,0,1,.31-1.95,4,4,0,0,1,.87-1.47,3.79,3.79,0,0,1,1.35-.93,4.66,4.66,0,0,1,1.75-.32q3.24,0,3.38,3.17c0,.36,0,.68,0,1a6,6,0,0,1-.08.73H51.55a5.14,5.14,0,0,0,.23,1.32,2.79,2.79,0,0,0,.49.89,1.8,1.8,0,0,0,.73.5,2.63,2.63,0,0,0,.91.16,3.54,3.54,0,0,0,.75-.07,5.3,5.3,0,0,0,.63-.15,3.25,3.25,0,0,0,.53-.21l.41-.23.41.95a3.4,3.4,0,0,1-.54.42,4.6,4.6,0,0,1-.8.41,5.51,5.51,0,0,1-1,.31A4.22,4.22,0,0,1,53.27,396Zm-.21-8.25a1.47,1.47,0,0,0-.56.11,1.06,1.06,0,0,0-.47.41,2.75,2.75,0,0,0-.32.85,7,7,0,0,0-.16,1.4h2.8v-.11a.66.66,0,0,0,0-.15.71.71,0,0,0,0-.14V390a5.49,5.49,0,0,0-.06-.8,2.23,2.23,0,0,0-.2-.73,1.33,1.33,0,0,0-.4-.53A1,1,0,0,0,53.06,387.7Z"/><path class="cls-1" d="M58.07,395.77v-1l1-.15v-6L58,388.23v-1.18l2.8-.38h0l.41.33v.93a6.46,6.46,0,0,1,.61-.46,5.58,5.58,0,0,1,.77-.4,5.75,5.75,0,0,1,.86-.27,4,4,0,0,1,.91-.11,3.54,3.54,0,0,1,1.26.2,1.76,1.76,0,0,1,.8.62,2.8,2.8,0,0,1,.42,1.11,9.45,9.45,0,0,1,.12,1.63v4.32l1.11.15v1H63.73v-1l.85-.15v-4.36a6.31,6.31,0,0,0-.06-.93,1.56,1.56,0,0,0-.2-.64.84.84,0,0,0-.4-.37,1.34,1.34,0,0,0-.65-.13,2.31,2.31,0,0,0-.52.06,2.56,2.56,0,0,0-.49.16,4.09,4.09,0,0,0-.42.2,2.35,2.35,0,0,0-.33.23v5.78l1,.15v1Z"/><path class="cls-1" d="M69,395.77v-1l1.14-.15v-6l-1.06-.34v-1.17l2.87-.38h0l.57.33v7.57l1.13.15v1Zm2.08-10.42a1.22,1.22,0,0,1-.49-.1,1.1,1.1,0,0,1-.36-.27,1.2,1.2,0,0,1-.22-.4,1.61,1.61,0,0,1-.07-.49,1.79,1.79,0,0,1,.08-.57,1.2,1.2,0,0,1,.68-.8,1.35,1.35,0,0,1,.59-.11h0a1.37,1.37,0,0,1,.56.1,1.21,1.21,0,0,1,.38.28,1.07,1.07,0,0,1,.23.4,1.56,1.56,0,0,1,.08.48,1.81,1.81,0,0,1-.09.58,1.27,1.27,0,0,1-.26.47,1.21,1.21,0,0,1-.45.31,1.69,1.69,0,0,1-.66.12Z"/><path class="cls-1" d="M74.88,395.77v-1l1-.15v-6l-1.06-.33v-1.18l2.79-.38h0l.42.33v.93a4.61,4.61,0,0,1,.61-.46,4.94,4.94,0,0,1,.76-.4,5.75,5.75,0,0,1,.86-.27,4.06,4.06,0,0,1,.92-.11,3.48,3.48,0,0,1,1.25.2,1.71,1.71,0,0,1,.8.62,2.8,2.8,0,0,1,.42,1.11,8.46,8.46,0,0,1,.13,1.63v4.32l1.11.15v1h-4.4v-1l.85-.15v-4.36a6.31,6.31,0,0,0-.06-.93,1.73,1.73,0,0,0-.19-.64.89.89,0,0,0-.4-.37,1.41,1.41,0,0,0-.66-.13,2.31,2.31,0,0,0-.52.06,2.81,2.81,0,0,0-.49.16,4.09,4.09,0,0,0-.42.2,2.35,2.35,0,0,0-.33.23v5.78l1.05.15v1Z"/><path class="cls-1" d="M89.84,392.71a7.08,7.08,0,0,1-1.18-.09,1,1,0,0,0-.22.31.88.88,0,0,0-.09.41.82.82,0,0,0,.1.44.68.68,0,0,0,.32.25,2,2,0,0,0,.56.12c.23,0,.5,0,.82,0h1.56a4.46,4.46,0,0,1,2.51.57,2.12,2.12,0,0,1,.83,1.87,2.62,2.62,0,0,1-.41,1.43,3.73,3.73,0,0,1-1.11,1.09,5.76,5.76,0,0,1-1.61.7,7.52,7.52,0,0,1-1.91.24h0a8,8,0,0,1-1.89-.19,4,4,0,0,1-1.29-.54,2.16,2.16,0,0,1-1-1.86,1.72,1.72,0,0,1,.14-.68,2,2,0,0,1,.35-.58,2.22,2.22,0,0,1,.51-.45,3.11,3.11,0,0,1,.6-.31,1.75,1.75,0,0,1-.69-.59,1.48,1.48,0,0,1-.24-.84,1.6,1.6,0,0,1,.31-1,3.11,3.11,0,0,1,.8-.72,2.44,2.44,0,0,1-1.18-1,3.08,3.08,0,0,1-.38-1.56,2.58,2.58,0,0,1,.32-1.27,3.09,3.09,0,0,1,.86-1,4.55,4.55,0,0,1,1.27-.62,5.65,5.65,0,0,1,1.56-.22h0a4.64,4.64,0,0,1,2.9.75,2.67,2.67,0,0,1,.29-.27,2.52,2.52,0,0,1,.43-.24,3.42,3.42,0,0,1,.54-.18,2.59,2.59,0,0,1,.63-.08h.36v1.75H93.69a3.07,3.07,0,0,1,.14.52,2.86,2.86,0,0,1,0,.6,2.91,2.91,0,0,1-.29,1.29,3.11,3.11,0,0,1-.83,1,3.89,3.89,0,0,1-1.28.67,5.26,5.26,0,0,1-1.63.24Zm-.4,3.16a5.49,5.49,0,0,1-.93-.07,2,2,0,0,0-.3.45,1.76,1.76,0,0,0-.13.76,2.4,2.4,0,0,0,.14.9,1.4,1.4,0,0,0,.41.59,1.73,1.73,0,0,0,.68.33,3.73,3.73,0,0,0,.93.1h0a3.69,3.69,0,0,0,.93-.11,2.65,2.65,0,0,0,.81-.33,1.9,1.9,0,0,0,.57-.56,1.43,1.43,0,0,0,.21-.79,2,2,0,0,0-.07-.58.84.84,0,0,0-.27-.4,1.32,1.32,0,0,0-.52-.22,4,4,0,0,0-.85-.07Zm.59-4.2h0a1.34,1.34,0,0,0,.66-.16,1.16,1.16,0,0,0,.41-.44,1.93,1.93,0,0,0,.21-.64,6.7,6.7,0,0,0,.05-.79,2.64,2.64,0,0,0-.33-1.5,1.24,1.24,0,0,0-1.09-.46h0a1.22,1.22,0,0,0-1.07.46,2.61,2.61,0,0,0-.32,1.43,4.5,4.5,0,0,0,.07.85,1.72,1.72,0,0,0,.24.67,1.19,1.19,0,0,0,.46.43A1.49,1.49,0,0,0,90,391.67Z"/><path class="cls-1" d="M100.85,395.77v-1l1.25-.21v-6.3h-1.37v-.94l1.37-.39v-.45a3.66,3.66,0,0,1,.38-1.67,4.3,4.3,0,0,1,2.33-2.07,4.06,4.06,0,0,1,1.46-.28,3,3,0,0,1,.6,0l.32.09v2.33a1.45,1.45,0,0,0-.29-.21,3.14,3.14,0,0,0-.41-.19,3.65,3.65,0,0,0-.5-.13,2.48,2.48,0,0,0-.54-.06,1.46,1.46,0,0,0-.38.05.58.58,0,0,0-.29.17.78.78,0,0,0-.19.32,1.62,1.62,0,0,0-.07.53v1.53h2v1.33h-2v6.34l1.73.17v1Z"/><path class="cls-1" d="M107.4,391.35a5.47,5.47,0,0,1,.36-2.07,4.3,4.3,0,0,1,1-1.47,4.14,4.14,0,0,1,1.41-.88,5,5,0,0,1,1.67-.29,4.78,4.78,0,0,1,1.8.32,3.59,3.59,0,0,1,1.31.91,4,4,0,0,1,.8,1.45,6,6,0,0,1,.28,1.93,5.64,5.64,0,0,1-.37,2.11,4.17,4.17,0,0,1-1,1.46,3.79,3.79,0,0,1-1.4.85,4.92,4.92,0,0,1-1.67.28,4.76,4.76,0,0,1-1.79-.32,3.51,3.51,0,0,1-1.32-.91,3.83,3.83,0,0,1-.81-1.44A6.38,6.38,0,0,1,107.4,391.35Zm4.33,3.52a1.38,1.38,0,0,0,.74-.19,1.48,1.48,0,0,0,.52-.6,3.75,3.75,0,0,0,.3-1.05,9.72,9.72,0,0,0,.1-1.53,12.93,12.93,0,0,0-.09-1.62,4.71,4.71,0,0,0-.29-1.19,1.68,1.68,0,0,0-.52-.72,1.25,1.25,0,0,0-.8-.25,1.48,1.48,0,0,0-.74.19,1.46,1.46,0,0,0-.53.61,3.54,3.54,0,0,0-.31,1.05,9.55,9.55,0,0,0-.1,1.53,12.93,12.93,0,0,0,.09,1.62,4.31,4.31,0,0,0,.3,1.18,1.78,1.78,0,0,0,.53.72A1.25,1.25,0,0,0,111.73,394.87Z"/><path class="cls-1" d="M117.2,395.77v-1l1.13-.15v-6l-1.07-.33v-1.18l2.68-.38h0l.42.33v1.87h0a3.72,3.72,0,0,1,.34-.63,4.46,4.46,0,0,1,.61-.73,3.48,3.48,0,0,1,.84-.61,2.09,2.09,0,0,1,1-.26l.37,0,.22,0v2.71a1.56,1.56,0,0,0-.45-.14,4.33,4.33,0,0,0-.86-.07,4.93,4.93,0,0,0-.55,0l-.51.08a2.43,2.43,0,0,0-.43.12l-.29.14v5l2,.18v1Z"/><path class="cls-2" d="M15.91,417.77v-1l1-.15V406.14l-1.18-.2V405l3-.39h0l.48.37v3.68l-.12,1.24a5.51,5.51,0,0,1,.53-.41,4.37,4.37,0,0,1,.71-.4,5.57,5.57,0,0,1,.87-.31,4.09,4.09,0,0,1,1-.12,3.25,3.25,0,0,1,1.26.21,1.77,1.77,0,0,1,.8.65,3,3,0,0,1,.41,1.11,9,9,0,0,1,.12,1.58v4.33l1.1.15v1H21.57v-1l.87-.17v-4.37a6.31,6.31,0,0,0-.06-.93,1.42,1.42,0,0,0-.21-.64.89.89,0,0,0-.42-.37,1.55,1.55,0,0,0-.69-.13,2.2,2.2,0,0,0-.5.06,3.5,3.5,0,0,0-.49.14,3,3,0,0,0-.45.18,2.84,2.84,0,0,0-.36.22v5.83l1.07.15v1Z"/><path class="cls-2" d="M31,418a4.92,4.92,0,0,1-1.9-.34,3.43,3.43,0,0,1-1.3-1,4.1,4.1,0,0,1-.76-1.47,6.76,6.76,0,0,1-.24-1.86,5.87,5.87,0,0,1,.31-1.95A4.28,4.28,0,0,1,28,409.9,4,4,0,0,1,29.3,409a4.7,4.7,0,0,1,1.75-.32q3.24,0,3.39,3.17c0,.36,0,.68,0,1a4.51,4.51,0,0,1-.08.73h-5.1a4.74,4.74,0,0,0,.23,1.32,2.45,2.45,0,0,0,.49.89,1.71,1.71,0,0,0,.72.5,2.73,2.73,0,0,0,.92.16,3.51,3.51,0,0,0,.74-.07,5.47,5.47,0,0,0,.64-.15,3.66,3.66,0,0,0,.53-.21l.41-.23.4.95a3,3,0,0,1-.54.42,4.87,4.87,0,0,1-.79.41,5.79,5.79,0,0,1-1,.31A4.22,4.22,0,0,1,31,418Zm-.21-8.25a1.52,1.52,0,0,0-.57.11,1,1,0,0,0-.46.41,3,3,0,0,0-.33.85,7.86,7.86,0,0,0-.16,1.4h2.81v-.11a.86.86,0,0,1,0-.15V412a7.31,7.31,0,0,0-.05-.8,2.87,2.87,0,0,0-.2-.73,1.43,1.43,0,0,0-.4-.53A1,1,0,0,0,30.76,409.7Z"/><path class="cls-2" d="M35.51,415.39a2.54,2.54,0,0,1,.2-1,2.46,2.46,0,0,1,.57-.78,3.78,3.78,0,0,1,.86-.57,5.79,5.79,0,0,1,1.06-.39,9,9,0,0,1,1.19-.22q.61-.07,1.23-.09V412a1.82,1.82,0,0,0-.36-1.27,1.6,1.6,0,0,0-1.19-.38,5,5,0,0,0-.85.07c-.28,0-.55.1-.81.16s-.51.14-.73.22-.41.16-.56.23h0l-.46-1.05a3.72,3.72,0,0,1,.55-.34,6,6,0,0,1,.94-.42,8.72,8.72,0,0,1,1.21-.35,6.19,6.19,0,0,1,1.37-.15,4.81,4.81,0,0,1,1.47.19,2.21,2.21,0,0,1,1,.57,2.29,2.29,0,0,1,.56,1,4.93,4.93,0,0,1,.18,1.41v4.88h1v1l-.36.08c-.15,0-.31.07-.49.09l-.57.08c-.2,0-.41,0-.62,0l-.48,0a.8.8,0,0,1-.32-.11.52.52,0,0,1-.18-.25,1.3,1.3,0,0,1-.05-.43v-.46a3.31,3.31,0,0,1-.94.82,3.68,3.68,0,0,1-.75.32,3,3,0,0,1-.93.13,3.49,3.49,0,0,1-1-.15,2.33,2.33,0,0,1-.85-.46,2.16,2.16,0,0,1-.57-.8A2.85,2.85,0,0,1,35.51,415.39Zm3.71,1.05a1.33,1.33,0,0,0,.32,0,1.92,1.92,0,0,0,.37-.11,2.2,2.2,0,0,0,.39-.17,1.21,1.21,0,0,0,.32-.22v-2.58a4.69,4.69,0,0,0-1.27.14,2.35,2.35,0,0,0-.81.37,1.39,1.39,0,0,0-.44.54A1.75,1.75,0,0,0,38,415a1.58,1.58,0,0,0,.31,1.06A1.17,1.17,0,0,0,39.22,416.44Z"/><path class="cls-2" d="M44.83,417.77v-1l1.12-.15v-6l-1.06-.33v-1.18l2.67-.38h0L48,409v1.87h0a3.11,3.11,0,0,1,.34-.63,4,4,0,0,1,.61-.73,3.63,3.63,0,0,1,.83-.61,2.16,2.16,0,0,1,1-.26l.37,0,.21,0v2.71a1.36,1.36,0,0,0-.44-.14,4.51,4.51,0,0,0-.87-.07l-.55,0-.51.08a2.1,2.1,0,0,0-.42.12,2,2,0,0,0-.29.14v5l1.94.18v1Z"/><path class="cls-2" d="M53.33,415.89v-5.75h-1.1v-.89l.19-.06.29-.11L53,409l.15-.08a2.49,2.49,0,0,0,.55-.75c0-.1.11-.22.17-.36s.13-.28.19-.43l.16-.45c.06-.15.1-.29.14-.41h1.39l0,2.32H58v1.32h-2.3v4.33c0,.42,0,.75,0,1a1.8,1.8,0,0,0,.09.56.39.39,0,0,0,.23.24,1.27,1.27,0,0,0,.43.06h0l.4,0,.4-.08.37-.09L58,416h0l.36.91a3.53,3.53,0,0,1-.57.36,5.13,5.13,0,0,1-.75.32,5.52,5.52,0,0,1-.87.24,4.7,4.7,0,0,1-.92.09h0a2.51,2.51,0,0,1-.88-.13,1.38,1.38,0,0,1-.59-.4,1.61,1.61,0,0,1-.32-.64A3.41,3.41,0,0,1,53.33,415.89Z"/><path class="cls-2" d="M64,417.77v-1l1-.15V406.14l-1.18-.2V405l3-.39h0l.48.37v3.68l-.12,1.24a5.51,5.51,0,0,1,.53-.41,4.37,4.37,0,0,1,.71-.4,5.57,5.57,0,0,1,.87-.31,4.09,4.09,0,0,1,1-.12,3.25,3.25,0,0,1,1.26.21,1.77,1.77,0,0,1,.8.65,3,3,0,0,1,.41,1.11,9,9,0,0,1,.12,1.58v4.33l1.1.15v1H69.68v-1l.87-.17v-4.37a6.31,6.31,0,0,0-.06-.93,1.42,1.42,0,0,0-.21-.64.89.89,0,0,0-.42-.37,1.55,1.55,0,0,0-.69-.13,2.2,2.2,0,0,0-.5.06,4.1,4.1,0,0,0-.5.14,3.38,3.38,0,0,0-.44.18,2.27,2.27,0,0,0-.36.22v5.83l1.07.15v1Z"/><path class="cls-2" d="M79.08,418a4.92,4.92,0,0,1-1.9-.34,3.43,3.43,0,0,1-1.3-1,4.1,4.1,0,0,1-.76-1.47,6.76,6.76,0,0,1-.24-1.86,5.62,5.62,0,0,1,.31-1.95,4.28,4.28,0,0,1,.87-1.47,4,4,0,0,1,1.35-.93,4.7,4.7,0,0,1,1.75-.32q3.24,0,3.39,3.17c0,.36,0,.68,0,1a4.51,4.51,0,0,1-.08.73h-5.1a4.77,4.77,0,0,0,.22,1.32,2.62,2.62,0,0,0,.5.89,1.71,1.71,0,0,0,.72.5,2.69,2.69,0,0,0,.92.16,3.51,3.51,0,0,0,.74-.07,5.47,5.47,0,0,0,.64-.15,3.66,3.66,0,0,0,.53-.21l.41-.23.4.95a3.4,3.4,0,0,1-.54.42,4.6,4.6,0,0,1-.8.41,5.68,5.68,0,0,1-1,.31A4.22,4.22,0,0,1,79.08,418Zm-.21-8.25a1.48,1.48,0,0,0-.57.11,1,1,0,0,0-.46.41,3,3,0,0,0-.33.85,7,7,0,0,0-.16,1.4h2.81v-.11a.86.86,0,0,1,0-.15V412a7.31,7.31,0,0,0,0-.8,2.87,2.87,0,0,0-.2-.73,1.43,1.43,0,0,0-.4-.53A1,1,0,0,0,78.87,409.7Z"/><path class="cls-2" d="M83.62,415.39a2.54,2.54,0,0,1,.2-1,2.46,2.46,0,0,1,.57-.78,3.78,3.78,0,0,1,.86-.57,5.79,5.79,0,0,1,1.06-.39,9,9,0,0,1,1.19-.22q.61-.07,1.23-.09V412a1.82,1.82,0,0,0-.36-1.27,1.6,1.6,0,0,0-1.19-.38,5,5,0,0,0-.85.07c-.28,0-.55.1-.82.16s-.5.14-.72.22-.41.16-.56.23h0l-.46-1.05a3.72,3.72,0,0,1,.55-.34,5.58,5.58,0,0,1,.94-.42,8.72,8.72,0,0,1,1.21-.35,6.19,6.19,0,0,1,1.37-.15,4.81,4.81,0,0,1,1.47.19,2.21,2.21,0,0,1,1,.57,2.29,2.29,0,0,1,.56,1,5,5,0,0,1,.17,1.41v4.88h1v1l-.36.08c-.15,0-.31.07-.49.09l-.57.08c-.2,0-.41,0-.62,0l-.48,0a.8.8,0,0,1-.32-.11.47.47,0,0,1-.18-.25,1.3,1.3,0,0,1,0-.43v-.46a3.31,3.31,0,0,1-.94.82,3.68,3.68,0,0,1-.75.32,3,3,0,0,1-.93.13,3.49,3.49,0,0,1-1-.15,2.33,2.33,0,0,1-.85-.46,2.16,2.16,0,0,1-.57-.8A2.85,2.85,0,0,1,83.62,415.39Zm3.71,1.05a1.33,1.33,0,0,0,.32,0,1.92,1.92,0,0,0,.37-.11,2.2,2.2,0,0,0,.39-.17,1.21,1.21,0,0,0,.32-.22v-2.58a4.64,4.64,0,0,0-1.27.14,2.35,2.35,0,0,0-.81.37,1.39,1.39,0,0,0-.44.54,1.75,1.75,0,0,0-.13.65,1.58,1.58,0,0,0,.32,1.06A1.17,1.17,0,0,0,87.33,416.44Z"/><path class="cls-2" d="M92.69,417.77v-1l1.14-.15V406.14l-1.17-.2V405l3.06-.39h0l.49.37v11.56l1.18.15v1Z"/><path class="cls-2" d="M99.32,415.89v-5.75h-1.1v-.89l.2-.06.28-.11L99,409l.15-.08a2.33,2.33,0,0,0,.55-.75c0-.1.11-.22.17-.36s.13-.28.19-.43.11-.31.17-.45l.13-.41h1.39l0,2.32H104v1.32h-2.3v4.33c0,.42,0,.75,0,1a2.09,2.09,0,0,0,.1.56.37.37,0,0,0,.23.24,1.19,1.19,0,0,0,.43.06h0l.4,0,.41-.08.36-.09L104,416h0l.36.91a3.53,3.53,0,0,1-.57.36,5.13,5.13,0,0,1-.75.32,5.52,5.52,0,0,1-.87.24,4.68,4.68,0,0,1-.91.09h0a2.55,2.55,0,0,1-.88-.13,1.29,1.29,0,0,1-.58-.4,1.62,1.62,0,0,1-.33-.64A3.41,3.41,0,0,1,99.32,415.89Z"/><path class="cls-2" d="M105,417.77v-1l1-.15V406.14l-1.17-.2V405l3-.39h0l.48.37v3.68l-.12,1.24a4.49,4.49,0,0,1,.53-.41,4,4,0,0,1,.71-.4,5.57,5.57,0,0,1,.87-.31,4.09,4.09,0,0,1,1-.12,3.25,3.25,0,0,1,1.26.21,1.77,1.77,0,0,1,.8.65,3,3,0,0,1,.41,1.11,9,9,0,0,1,.12,1.58v4.33l1.1.15v1h-4.37v-1l.86-.17v-4.37a6.43,6.43,0,0,0-.05-.93,1.72,1.72,0,0,0-.21-.64.89.89,0,0,0-.42-.37,1.55,1.55,0,0,0-.69-.13,2.2,2.2,0,0,0-.5.06,4.1,4.1,0,0,0-.5.14,3,3,0,0,0-.45.18,2.67,2.67,0,0,0-.35.22v5.83l1.07.15v1Z"/><path class="cls-2" d="M118,417.9a1.84,1.84,0,0,1-.53-.08,1.48,1.48,0,0,1-.44-.25,1.18,1.18,0,0,1-.29-.4,1.1,1.1,0,0,1-.11-.52,1.45,1.45,0,0,1,.12-.59,1.6,1.6,0,0,1,.35-.47,1.53,1.53,0,0,1,.5-.32,1.84,1.84,0,0,1,.62-.11,1.78,1.78,0,0,1,.65.1,1.11,1.11,0,0,1,.43.28.9.9,0,0,1,.25.39,1.57,1.57,0,0,1,.07.49,1.54,1.54,0,0,1-.12.61,1.32,1.32,0,0,1-.34.47,1.44,1.44,0,0,1-.51.3A2,2,0,0,1,118,417.9Z"/><path class="cls-1" d="M15,373.77V372.7l1-.22,3.77-10.65h2.5L26,372.48l1.09.22v1.07H22V372.7l1.27-.22-.59-1.91H18.45l-.55,1.92,1.29.21v1.07Zm5.3-9.45-1.46,5h3.52l-1.54-5-.27-1.14Z"/><path class="cls-1" d="M32.51,373.27v-2.2h1.43l.41,1.22a.89.89,0,0,0,.22.21,2.63,2.63,0,0,0,.34.18,2.44,2.44,0,0,0,.45.12,2.24,2.24,0,0,0,.52.06,1.91,1.91,0,0,0,.64-.1,1.08,1.08,0,0,0,.39-.24.75.75,0,0,0,.21-.32,1.63,1.63,0,0,0,.05-.36.92.92,0,0,0-.17-.57,1.64,1.64,0,0,0-.47-.43,4.36,4.36,0,0,0-.75-.39l-1-.41a5.86,5.86,0,0,1-1-.49,3.34,3.34,0,0,1-.73-.6,2.41,2.41,0,0,1-.46-.75,2.52,2.52,0,0,1-.17-.93,2.39,2.39,0,0,1,.23-1,2.44,2.44,0,0,1,.69-.82,3.34,3.34,0,0,1,1.12-.54,5.28,5.28,0,0,1,1.56-.2,6.36,6.36,0,0,1,.92.06l.73.14.6.17a3.79,3.79,0,0,0,.53.14v2.16l-1.36,0-.37-1a1.05,1.05,0,0,0-.41-.35,1.76,1.76,0,0,0-.78-.18,2,2,0,0,0-.59.08,1.07,1.07,0,0,0-.38.21,1.12,1.12,0,0,0-.21.29,1,1,0,0,0-.06.33,1.05,1.05,0,0,0,.21.67,1.92,1.92,0,0,0,.53.44,4.6,4.6,0,0,0,.71.31,7.76,7.76,0,0,1,.72.3q.52.23,1,.48a3.88,3.88,0,0,1,.83.59,2.74,2.74,0,0,1,.58.77,2.47,2.47,0,0,1,.21,1.06,2.44,2.44,0,0,1-.22,1,2.33,2.33,0,0,1-.67.84,3.42,3.42,0,0,1-1.13.57,5.67,5.67,0,0,1-1.58.2,6.55,6.55,0,0,1-1.13-.09,7.19,7.19,0,0,1-.93-.2c-.28-.07-.52-.15-.74-.22A5.53,5.53,0,0,0,32.51,373.27Z"/><path class="cls-1" d="M40.67,373.77v-1l1.14-.15v-6l-1.05-.34v-1.17l2.86-.38h0l.57.33v7.57l1.14.15v1Zm2.08-10.42a1.26,1.26,0,0,1-.49-.1,1.22,1.22,0,0,1-.36-.27,1.2,1.2,0,0,1-.22-.4,1.61,1.61,0,0,1-.07-.49,2.12,2.12,0,0,1,.08-.57,1.57,1.57,0,0,1,.25-.48,1.26,1.26,0,0,1,1-.43h0a1.32,1.32,0,0,1,.55.1,1.39,1.39,0,0,1,.39.28,1.23,1.23,0,0,1,.23.4,1.55,1.55,0,0,1,.07.48,1.81,1.81,0,0,1-.09.58,1.18,1.18,0,0,1-.71.78,1.64,1.64,0,0,1-.65.12Z"/><path class="cls-1" d="M46.55,373.77v-1l1-.18v-6l-1.06-.33v-1.18l2.77-.38h0l.42.33v.93a3.94,3.94,0,0,1,.64-.47,5.05,5.05,0,0,1,.81-.39,5.62,5.62,0,0,1,.88-.28,4.55,4.55,0,0,1,.86-.1,3,3,0,0,1,1.43.29,1.8,1.8,0,0,1,.81.92,4.49,4.49,0,0,1,.57-.41,6.46,6.46,0,0,1,.79-.39,5.93,5.93,0,0,1,.9-.29,3.75,3.75,0,0,1,.92-.12,3.29,3.29,0,0,1,1.22.19,1.6,1.6,0,0,1,.79.61,2.84,2.84,0,0,1,.43,1.1,9.49,9.49,0,0,1,.12,1.64v4.34l1.1.18v1H57.62v-1l.82-.18V368.3a7.36,7.36,0,0,0-.06-1,2,2,0,0,0-.22-.67.93.93,0,0,0-.43-.38,1.59,1.59,0,0,0-.66-.12,1.77,1.77,0,0,0-.43.06,4.12,4.12,0,0,0-.47.13,4.68,4.68,0,0,0-.45.19,3.5,3.5,0,0,0-.39.2,3.93,3.93,0,0,1,.09.72c0,.25,0,.53,0,.84v4.33l1,.17v1H52.11v-1l.94-.17v-4.37a5.11,5.11,0,0,0-.07-.93,1.72,1.72,0,0,0-.21-.64.89.89,0,0,0-.42-.37,1.41,1.41,0,0,0-.66-.13,2.1,2.1,0,0,0-.48.06,4.1,4.1,0,0,0-.5.14,3,3,0,0,0-.45.18,2.51,2.51,0,0,0-.34.22v5.83l1.06.18v1Z"/><path class="cls-1" d="M62.73,376.65l1.18-.19v-9.9l-1.07-.33v-1.18l2.8-.38h0l.4.33v.83a3.24,3.24,0,0,1,.46-.44,3.15,3.15,0,0,1,.59-.38,3.73,3.73,0,0,1,1.56-.37,3.77,3.77,0,0,1,1.35.25,2.69,2.69,0,0,1,1.1.77,3.75,3.75,0,0,1,.74,1.36,6.63,6.63,0,0,1,.27,2,5.79,5.79,0,0,1-.32,1.93,4.58,4.58,0,0,1-.91,1.56,4.19,4.19,0,0,1-1.44,1,4.75,4.75,0,0,1-1.93.38l-.38,0-.37,0-.32,0-.22-.05,0,1.3v1.36l1.55.19v1H62.73Zm5-10.58a2,2,0,0,0-.83.16,1.88,1.88,0,0,0-.57.38v5.92a1.22,1.22,0,0,0,.43.26,2.18,2.18,0,0,0,.72.11,1.84,1.84,0,0,0,.8-.18,1.6,1.6,0,0,0,.66-.61,3.6,3.6,0,0,0,.46-1.11,7.78,7.78,0,0,0,.18-1.68,6.65,6.65,0,0,0-.11-1.5,3.29,3.29,0,0,0-.37-1,1.53,1.53,0,0,0-.59-.57A1.66,1.66,0,0,0,67.7,366.07Z"/><path class="cls-1" d="M73.15,373.77v-1l1.13-.15V362.14l-1.16-.2V361l3-.39h0l.5.37v11.56l1.18.15v1Z"/><path class="cls-1" d="M83,374a4.92,4.92,0,0,1-1.9-.34,3.43,3.43,0,0,1-1.3-1,4,4,0,0,1-.76-1.47,6.76,6.76,0,0,1-.24-1.86,5.62,5.62,0,0,1,.31-1.95A4,4,0,0,1,80,365.9a3.88,3.88,0,0,1,1.35-.93,4.7,4.7,0,0,1,1.75-.32q3.24,0,3.38,3.17c0,.36,0,.68,0,1a4.51,4.51,0,0,1-.08.73h-5.1a4.77,4.77,0,0,0,.22,1.32,2.62,2.62,0,0,0,.5.89,1.71,1.71,0,0,0,.72.5,2.69,2.69,0,0,0,.92.16,3.51,3.51,0,0,0,.74-.07,5.47,5.47,0,0,0,.64-.15,3.66,3.66,0,0,0,.53-.21l.41-.23.4.95a3.4,3.4,0,0,1-.54.42,4.6,4.6,0,0,1-.8.41,5.51,5.51,0,0,1-1,.31A4.14,4.14,0,0,1,83,374Zm-.22-8.25a1.47,1.47,0,0,0-.56.11,1,1,0,0,0-.46.41,2.74,2.74,0,0,0-.33.85,7,7,0,0,0-.16,1.4h2.8a.54.54,0,0,1,0-.11.86.86,0,0,1,0-.15V368a5.49,5.49,0,0,0-.06-.8,2.51,2.51,0,0,0-.19-.73,1.43,1.43,0,0,0-.4-.53A1.06,1.06,0,0,0,82.76,365.7Z"/><path class="cls-1" d="M16.23,395.27v-2.2h1.43l.41,1.22a1,1,0,0,0,.21.21l.35.18a2.44,2.44,0,0,0,.45.12,2.18,2.18,0,0,0,.52.06,1.91,1.91,0,0,0,.64-.1,1.08,1.08,0,0,0,.39-.24.64.64,0,0,0,.2-.32,1.23,1.23,0,0,0,.06-.36,1,1,0,0,0-.17-.57,1.64,1.64,0,0,0-.47-.43,4.36,4.36,0,0,0-.75-.39l-1-.41a5.86,5.86,0,0,1-1-.49,3.34,3.34,0,0,1-.73-.6,2.41,2.41,0,0,1-.46-.75,2.52,2.52,0,0,1-.17-.93,2.39,2.39,0,0,1,.23-1,2.33,2.33,0,0,1,.69-.82,3.34,3.34,0,0,1,1.12-.54,5.28,5.28,0,0,1,1.56-.2,6.12,6.12,0,0,1,.91.06c.27,0,.52.09.73.14l.61.17a3.79,3.79,0,0,0,.53.14v2.16l-1.36,0-.37-1a1.05,1.05,0,0,0-.41-.35,1.76,1.76,0,0,0-.78-.18,2,2,0,0,0-.59.08,1,1,0,0,0-.38.21.93.93,0,0,0-.21.29,1,1,0,0,0-.06.33,1.05,1.05,0,0,0,.21.67,1.92,1.92,0,0,0,.53.44,4.6,4.6,0,0,0,.71.31,7.76,7.76,0,0,1,.72.3c.35.15.67.31,1,.48a3.88,3.88,0,0,1,.83.59,2.74,2.74,0,0,1,.58.77,2.47,2.47,0,0,1,.21,1.06,2.44,2.44,0,0,1-.22,1,2.33,2.33,0,0,1-.67.84,3.42,3.42,0,0,1-1.13.57,5.67,5.67,0,0,1-1.58.2,6.55,6.55,0,0,1-1.13-.09,7.19,7.19,0,0,1-.93-.2c-.28-.07-.53-.15-.74-.22A5.53,5.53,0,0,0,16.23,395.27Z"/><path class="cls-1" d="M24.31,391.4a5.7,5.7,0,0,1,.32-1.93,4.35,4.35,0,0,1,.9-1.5A4,4,0,0,1,27,387a4.78,4.78,0,0,1,1.86-.35,7.06,7.06,0,0,1,1,.06c.29,0,.55.09.78.14s.43.11.6.16l.4.13-.07,2.66H30.1l-.45-1.37a1.71,1.71,0,0,0-.42-.52,1,1,0,0,0-.61-.19,1.32,1.32,0,0,0-.67.18,1.58,1.58,0,0,0-.56.56,3,3,0,0,0-.4,1,6,6,0,0,0-.15,1.45,7.05,7.05,0,0,0,.16,1.64,3.14,3.14,0,0,0,.44,1.09,1.7,1.7,0,0,0,.72.59,2.19,2.19,0,0,0,.94.19,3.6,3.6,0,0,0,1.25-.2,4.64,4.64,0,0,0,.89-.42l.42.94a2.65,2.65,0,0,1-.48.4,4,4,0,0,1-.72.4,4.53,4.53,0,0,1-.9.31,4,4,0,0,1-1,.13,5,5,0,0,1-1.9-.34,3.43,3.43,0,0,1-1.3-1,3.68,3.68,0,0,1-.76-1.44A6.14,6.14,0,0,1,24.31,391.4Z"/><path class="cls-1" d="M32.77,395.77v-1l1.13-.15v-6l-1.07-.33v-1.18l2.68-.38h0L36,387v1.87h0a3.72,3.72,0,0,1,.34-.63,5,5,0,0,1,.61-.73,3.48,3.48,0,0,1,.84-.61,2.09,2.09,0,0,1,1-.26l.37,0,.22,0v2.71a1.56,1.56,0,0,0-.45-.14,4.33,4.33,0,0,0-.86-.07,4.93,4.93,0,0,0-.55,0l-.51.08a2.43,2.43,0,0,0-.43.12l-.29.14v5l2,.18v1Z"/><path class="cls-1" d="M44.48,396a4.92,4.92,0,0,1-1.9-.34,3.43,3.43,0,0,1-1.3-1,4,4,0,0,1-.76-1.47,6.76,6.76,0,0,1-.24-1.86,5.62,5.62,0,0,1,.31-1.95,4,4,0,0,1,.87-1.47,3.88,3.88,0,0,1,1.35-.93,4.7,4.7,0,0,1,1.75-.32q3.24,0,3.38,3.17c0,.36,0,.68,0,1a4.51,4.51,0,0,1-.08.73h-5.1a4.77,4.77,0,0,0,.22,1.32,2.62,2.62,0,0,0,.5.89,1.71,1.71,0,0,0,.72.5,2.69,2.69,0,0,0,.92.16,3.51,3.51,0,0,0,.74-.07,5.47,5.47,0,0,0,.64-.15A3.66,3.66,0,0,0,47,394l.41-.23.4.95a3.4,3.4,0,0,1-.54.42,4.6,4.6,0,0,1-.8.41,5.51,5.51,0,0,1-1,.31A4.14,4.14,0,0,1,44.48,396Zm-.22-8.25a1.47,1.47,0,0,0-.56.11,1,1,0,0,0-.46.41,2.74,2.74,0,0,0-.33.85,7,7,0,0,0-.16,1.4h2.8a.54.54,0,0,1,0-.11.86.86,0,0,1,0-.15V390a5.49,5.49,0,0,0-.06-.8,2.51,2.51,0,0,0-.19-.73,1.43,1.43,0,0,0-.4-.53A1.06,1.06,0,0,0,44.26,387.7Z"/><path class="cls-1" d="M53.27,396a4.91,4.91,0,0,1-1.89-.34,3.46,3.46,0,0,1-1.31-1,3.94,3.94,0,0,1-.75-1.47,6.76,6.76,0,0,1-.24-1.86,5.62,5.62,0,0,1,.31-1.95,4,4,0,0,1,.87-1.47,3.79,3.79,0,0,1,1.35-.93,4.66,4.66,0,0,1,1.75-.32q3.24,0,3.38,3.17c0,.36,0,.68,0,1a6,6,0,0,1-.08.73H51.55a5.14,5.14,0,0,0,.23,1.32,2.79,2.79,0,0,0,.49.89,1.8,1.8,0,0,0,.73.5,2.63,2.63,0,0,0,.91.16,3.54,3.54,0,0,0,.75-.07,5.3,5.3,0,0,0,.63-.15,3.25,3.25,0,0,0,.53-.21l.41-.23.41.95a3.4,3.4,0,0,1-.54.42,4.6,4.6,0,0,1-.8.41,5.51,5.51,0,0,1-1,.31A4.22,4.22,0,0,1,53.27,396Zm-.21-8.25a1.47,1.47,0,0,0-.56.11,1.06,1.06,0,0,0-.47.41,2.75,2.75,0,0,0-.32.85,7,7,0,0,0-.16,1.4h2.8v-.11a.66.66,0,0,0,0-.15.71.71,0,0,0,0-.14V390a5.49,5.49,0,0,0-.06-.8,2.23,2.23,0,0,0-.2-.73,1.33,1.33,0,0,0-.4-.53A1,1,0,0,0,53.06,387.7Z"/><path class="cls-1" d="M58.07,395.77v-1l1-.15v-6L58,388.23v-1.18l2.8-.38h0l.41.33v.93a6.46,6.46,0,0,1,.61-.46,5.58,5.58,0,0,1,.77-.4,5.75,5.75,0,0,1,.86-.27,4,4,0,0,1,.91-.11,3.54,3.54,0,0,1,1.26.2,1.76,1.76,0,0,1,.8.62,2.8,2.8,0,0,1,.42,1.11,9.45,9.45,0,0,1,.12,1.63v4.32l1.11.15v1H63.73v-1l.85-.15v-4.36a6.31,6.31,0,0,0-.06-.93,1.56,1.56,0,0,0-.2-.64.84.84,0,0,0-.4-.37,1.34,1.34,0,0,0-.65-.13,2.31,2.31,0,0,0-.52.06,2.56,2.56,0,0,0-.49.16,4.09,4.09,0,0,0-.42.2,2.35,2.35,0,0,0-.33.23v5.78l1,.15v1Z"/><path class="cls-1" d="M69,395.77v-1l1.14-.15v-6l-1.06-.34v-1.17l2.87-.38h0l.57.33v7.57l1.13.15v1Zm2.08-10.42a1.22,1.22,0,0,1-.49-.1,1.1,1.1,0,0,1-.36-.27,1.2,1.2,0,0,1-.22-.4,1.61,1.61,0,0,1-.07-.49,1.79,1.79,0,0,1,.08-.57,1.2,1.2,0,0,1,.68-.8,1.35,1.35,0,0,1,.59-.11h0a1.37,1.37,0,0,1,.56.1,1.21,1.21,0,0,1,.38.28,1.07,1.07,0,0,1,.23.4,1.56,1.56,0,0,1,.08.48,1.81,1.81,0,0,1-.09.58,1.27,1.27,0,0,1-.26.47,1.21,1.21,0,0,1-.45.31,1.69,1.69,0,0,1-.66.12Z"/><path class="cls-1" d="M74.88,395.77v-1l1-.15v-6l-1.06-.33v-1.18l2.79-.38h0l.42.33v.93a4.61,4.61,0,0,1,.61-.46,4.94,4.94,0,0,1,.76-.4,5.75,5.75,0,0,1,.86-.27,4.06,4.06,0,0,1,.92-.11,3.48,3.48,0,0,1,1.25.2,1.71,1.71,0,0,1,.8.62,2.8,2.8,0,0,1,.42,1.11,8.46,8.46,0,0,1,.13,1.63v4.32l1.11.15v1h-4.4v-1l.85-.15v-4.36a6.31,6.31,0,0,0-.06-.93,1.73,1.73,0,0,0-.19-.64.89.89,0,0,0-.4-.37,1.41,1.41,0,0,0-.66-.13,2.31,2.31,0,0,0-.52.06,2.81,2.81,0,0,0-.49.16,4.09,4.09,0,0,0-.42.2,2.35,2.35,0,0,0-.33.23v5.78l1.05.15v1Z"/><path class="cls-1" d="M89.84,392.71a7.08,7.08,0,0,1-1.18-.09,1,1,0,0,0-.22.31.88.88,0,0,0-.09.41.82.82,0,0,0,.1.44.68.68,0,0,0,.32.25,2,2,0,0,0,.56.12c.23,0,.5,0,.82,0h1.56a4.46,4.46,0,0,1,2.51.57,2.12,2.12,0,0,1,.83,1.87,2.62,2.62,0,0,1-.41,1.43,3.73,3.73,0,0,1-1.11,1.09,5.76,5.76,0,0,1-1.61.7,7.52,7.52,0,0,1-1.91.24h0a8,8,0,0,1-1.89-.19,4,4,0,0,1-1.29-.54,2.16,2.16,0,0,1-1-1.86,1.72,1.72,0,0,1,.14-.68,2,2,0,0,1,.35-.58,2.22,2.22,0,0,1,.51-.45,3.11,3.11,0,0,1,.6-.31,1.75,1.75,0,0,1-.69-.59,1.48,1.48,0,0,1-.24-.84,1.6,1.6,0,0,1,.31-1,3.11,3.11,0,0,1,.8-.72,2.44,2.44,0,0,1-1.18-1,3.08,3.08,0,0,1-.38-1.56,2.58,2.58,0,0,1,.32-1.27,3.09,3.09,0,0,1,.86-1,4.55,4.55,0,0,1,1.27-.62,5.65,5.65,0,0,1,1.56-.22h0a4.64,4.64,0,0,1,2.9.75,2.67,2.67,0,0,1,.29-.27,2.52,2.52,0,0,1,.43-.24,3.42,3.42,0,0,1,.54-.18,2.59,2.59,0,0,1,.63-.08h.36v1.75H93.69a3.07,3.07,0,0,1,.14.52,2.86,2.86,0,0,1,0,.6,2.91,2.91,0,0,1-.29,1.29,3.11,3.11,0,0,1-.83,1,3.89,3.89,0,0,1-1.28.67,5.26,5.26,0,0,1-1.63.24Zm-.4,3.16a5.49,5.49,0,0,1-.93-.07,2,2,0,0,0-.3.45,1.76,1.76,0,0,0-.13.76,2.4,2.4,0,0,0,.14.9,1.4,1.4,0,0,0,.41.59,1.73,1.73,0,0,0,.68.33,3.73,3.73,0,0,0,.93.1h0a3.69,3.69,0,0,0,.93-.11,2.65,2.65,0,0,0,.81-.33,1.9,1.9,0,0,0,.57-.56,1.43,1.43,0,0,0,.21-.79,2,2,0,0,0-.07-.58.84.84,0,0,0-.27-.4,1.32,1.32,0,0,0-.52-.22,4,4,0,0,0-.85-.07Zm.59-4.2h0a1.34,1.34,0,0,0,.66-.16,1.16,1.16,0,0,0,.41-.44,1.93,1.93,0,0,0,.21-.64,6.7,6.7,0,0,0,.05-.79,2.64,2.64,0,0,0-.33-1.5,1.24,1.24,0,0,0-1.09-.46h0a1.22,1.22,0,0,0-1.07.46,2.61,2.61,0,0,0-.32,1.43,4.5,4.5,0,0,0,.07.85,1.72,1.72,0,0,0,.24.67,1.19,1.19,0,0,0,.46.43A1.49,1.49,0,0,0,90,391.67Z"/><path class="cls-1" d="M100.85,395.77v-1l1.25-.21v-6.3h-1.37v-.94l1.37-.39v-.45a3.66,3.66,0,0,1,.38-1.67,4.3,4.3,0,0,1,2.33-2.07,4.06,4.06,0,0,1,1.46-.28,3,3,0,0,1,.6,0l.32.09v2.33a1.45,1.45,0,0,0-.29-.21,3.14,3.14,0,0,0-.41-.19,3.65,3.65,0,0,0-.5-.13,2.48,2.48,0,0,0-.54-.06,1.46,1.46,0,0,0-.38.05.58.58,0,0,0-.29.17.78.78,0,0,0-.19.32,1.62,1.62,0,0,0-.07.53v1.53h2v1.33h-2v6.34l1.73.17v1Z"/><path class="cls-1" d="M107.4,391.35a5.47,5.47,0,0,1,.36-2.07,4.3,4.3,0,0,1,1-1.47,4.14,4.14,0,0,1,1.41-.88,5,5,0,0,1,1.67-.29,4.78,4.78,0,0,1,1.8.32,3.59,3.59,0,0,1,1.31.91,4,4,0,0,1,.8,1.45,6,6,0,0,1,.28,1.93,5.64,5.64,0,0,1-.37,2.11,4.17,4.17,0,0,1-1,1.46,3.79,3.79,0,0,1-1.4.85,4.92,4.92,0,0,1-1.67.28,4.76,4.76,0,0,1-1.79-.32,3.51,3.51,0,0,1-1.32-.91,3.83,3.83,0,0,1-.81-1.44A6.38,6.38,0,0,1,107.4,391.35Zm4.33,3.52a1.38,1.38,0,0,0,.74-.19,1.48,1.48,0,0,0,.52-.6,3.75,3.75,0,0,0,.3-1.05,9.72,9.72,0,0,0,.1-1.53,12.93,12.93,0,0,0-.09-1.62,4.71,4.71,0,0,0-.29-1.19,1.68,1.68,0,0,0-.52-.72,1.25,1.25,0,0,0-.8-.25,1.48,1.48,0,0,0-.74.19,1.46,1.46,0,0,0-.53.61,3.54,3.54,0,0,0-.31,1.05,9.55,9.55,0,0,0-.1,1.53,12.93,12.93,0,0,0,.09,1.62,4.31,4.31,0,0,0,.3,1.18,1.78,1.78,0,0,0,.53.72A1.25,1.25,0,0,0,111.73,394.87Z"/><path class="cls-1" d="M117.2,395.77v-1l1.13-.15v-6l-1.07-.33v-1.18l2.68-.38h0l.42.33v1.87h0a3.72,3.72,0,0,1,.34-.63,4.46,4.46,0,0,1,.61-.73,3.48,3.48,0,0,1,.84-.61,2.09,2.09,0,0,1,1-.26l.37,0,.22,0v2.71a1.56,1.56,0,0,0-.45-.14,4.33,4.33,0,0,0-.86-.07,4.93,4.93,0,0,0-.55,0l-.51.08a2.43,2.43,0,0,0-.43.12l-.29.14v5l2,.18v1Z"/><path class="cls-2" d="M15.91,417.77v-1l1-.15V406.14l-1.18-.2V405l3-.39h0l.48.37v3.68l-.12,1.24a5.51,5.51,0,0,1,.53-.41,4.37,4.37,0,0,1,.71-.4,5.57,5.57,0,0,1,.87-.31,4.09,4.09,0,0,1,1-.12,3.25,3.25,0,0,1,1.26.21,1.77,1.77,0,0,1,.8.65,3,3,0,0,1,.41,1.11,9,9,0,0,1,.12,1.58v4.33l1.1.15v1H21.57v-1l.87-.17v-4.37a6.31,6.31,0,0,0-.06-.93,1.42,1.42,0,0,0-.21-.64.89.89,0,0,0-.42-.37,1.55,1.55,0,0,0-.69-.13,2.2,2.2,0,0,0-.5.06,3.5,3.5,0,0,0-.49.14,3,3,0,0,0-.45.18,2.84,2.84,0,0,0-.36.22v5.83l1.07.15v1Z"/><path class="cls-2" d="M31,418a4.92,4.92,0,0,1-1.9-.34,3.43,3.43,0,0,1-1.3-1,4.1,4.1,0,0,1-.76-1.47,6.76,6.76,0,0,1-.24-1.86,5.87,5.87,0,0,1,.31-1.95A4.28,4.28,0,0,1,28,409.9,4,4,0,0,1,29.3,409a4.7,4.7,0,0,1,1.75-.32q3.24,0,3.39,3.17c0,.36,0,.68,0,1a4.51,4.51,0,0,1-.08.73h-5.1a4.74,4.74,0,0,0,.23,1.32,2.45,2.45,0,0,0,.49.89,1.71,1.71,0,0,0,.72.5,2.73,2.73,0,0,0,.92.16,3.51,3.51,0,0,0,.74-.07,5.47,5.47,0,0,0,.64-.15,3.66,3.66,0,0,0,.53-.21l.41-.23.4.95a3,3,0,0,1-.54.42,4.87,4.87,0,0,1-.79.41,5.79,5.79,0,0,1-1,.31A4.22,4.22,0,0,1,31,418Zm-.21-8.25a1.52,1.52,0,0,0-.57.11,1,1,0,0,0-.46.41,3,3,0,0,0-.33.85,7.86,7.86,0,0,0-.16,1.4h2.81v-.11a.86.86,0,0,1,0-.15V412a7.31,7.31,0,0,0-.05-.8,2.87,2.87,0,0,0-.2-.73,1.43,1.43,0,0,0-.4-.53A1,1,0,0,0,30.76,409.7Z"/><path class="cls-2" d="M35.51,415.39a2.54,2.54,0,0,1,.2-1,2.46,2.46,0,0,1,.57-.78,3.78,3.78,0,0,1,.86-.57,5.79,5.79,0,0,1,1.06-.39,9,9,0,0,1,1.19-.22q.61-.07,1.23-.09V412a1.82,1.82,0,0,0-.36-1.27,1.6,1.6,0,0,0-1.19-.38,5,5,0,0,0-.85.07c-.28,0-.55.1-.81.16s-.51.14-.73.22-.41.16-.56.23h0l-.46-1.05a3.72,3.72,0,0,1,.55-.34,6,6,0,0,1,.94-.42,8.72,8.72,0,0,1,1.21-.35,6.19,6.19,0,0,1,1.37-.15,4.81,4.81,0,0,1,1.47.19,2.21,2.21,0,0,1,1,.57,2.29,2.29,0,0,1,.56,1,4.93,4.93,0,0,1,.18,1.41v4.88h1v1l-.36.08c-.15,0-.31.07-.49.09l-.57.08c-.2,0-.41,0-.62,0l-.48,0a.8.8,0,0,1-.32-.11.52.52,0,0,1-.18-.25,1.3,1.3,0,0,1-.05-.43v-.46a3.31,3.31,0,0,1-.94.82,3.68,3.68,0,0,1-.75.32,3,3,0,0,1-.93.13,3.49,3.49,0,0,1-1-.15,2.33,2.33,0,0,1-.85-.46,2.16,2.16,0,0,1-.57-.8A2.85,2.85,0,0,1,35.51,415.39Zm3.71,1.05a1.33,1.33,0,0,0,.32,0,1.92,1.92,0,0,0,.37-.11,2.2,2.2,0,0,0,.39-.17,1.21,1.21,0,0,0,.32-.22v-2.58a4.69,4.69,0,0,0-1.27.14,2.35,2.35,0,0,0-.81.37,1.39,1.39,0,0,0-.44.54A1.75,1.75,0,0,0,38,415a1.58,1.58,0,0,0,.31,1.06A1.17,1.17,0,0,0,39.22,416.44Z"/><path class="cls-2" d="M44.83,417.77v-1l1.12-.15v-6l-1.06-.33v-1.18l2.67-.38h0L48,409v1.87h0a3.11,3.11,0,0,1,.34-.63,4,4,0,0,1,.61-.73,3.63,3.63,0,0,1,.83-.61,2.16,2.16,0,0,1,1-.26l.37,0,.21,0v2.71a1.36,1.36,0,0,0-.44-.14,4.51,4.51,0,0,0-.87-.07l-.55,0-.51.08a2.1,2.1,0,0,0-.42.12,2,2,0,0,0-.29.14v5l1.94.18v1Z"/><path class="cls-2" d="M53.33,415.89v-5.75h-1.1v-.89l.19-.06.29-.11L53,409l.15-.08a2.49,2.49,0,0,0,.55-.75c0-.1.11-.22.17-.36s.13-.28.19-.43l.16-.45c.06-.15.1-.29.14-.41h1.39l0,2.32H58v1.32h-2.3v4.33c0,.42,0,.75,0,1a1.8,1.8,0,0,0,.09.56.39.39,0,0,0,.23.24,1.27,1.27,0,0,0,.43.06h0l.4,0,.4-.08.37-.09L58,416h0l.36.91a3.53,3.53,0,0,1-.57.36,5.13,5.13,0,0,1-.75.32,5.52,5.52,0,0,1-.87.24,4.7,4.7,0,0,1-.92.09h0a2.51,2.51,0,0,1-.88-.13,1.38,1.38,0,0,1-.59-.4,1.61,1.61,0,0,1-.32-.64A3.41,3.41,0,0,1,53.33,415.89Z"/><path class="cls-2" d="M64,417.77v-1l1-.15V406.14l-1.18-.2V405l3-.39h0l.48.37v3.68l-.12,1.24a5.51,5.51,0,0,1,.53-.41,4.37,4.37,0,0,1,.71-.4,5.57,5.57,0,0,1,.87-.31,4.09,4.09,0,0,1,1-.12,3.25,3.25,0,0,1,1.26.21,1.77,1.77,0,0,1,.8.65,3,3,0,0,1,.41,1.11,9,9,0,0,1,.12,1.58v4.33l1.1.15v1H69.68v-1l.87-.17v-4.37a6.31,6.31,0,0,0-.06-.93,1.42,1.42,0,0,0-.21-.64.89.89,0,0,0-.42-.37,1.55,1.55,0,0,0-.69-.13,2.2,2.2,0,0,0-.5.06,4.1,4.1,0,0,0-.5.14,3.38,3.38,0,0,0-.44.18,2.27,2.27,0,0,0-.36.22v5.83l1.07.15v1Z"/><path class="cls-2" d="M79.08,418a4.92,4.92,0,0,1-1.9-.34,3.43,3.43,0,0,1-1.3-1,4.1,4.1,0,0,1-.76-1.47,6.76,6.76,0,0,1-.24-1.86,5.62,5.62,0,0,1,.31-1.95,4.28,4.28,0,0,1,.87-1.47,4,4,0,0,1,1.35-.93,4.7,4.7,0,0,1,1.75-.32q3.24,0,3.39,3.17c0,.36,0,.68,0,1a4.51,4.51,0,0,1-.08.73h-5.1a4.77,4.77,0,0,0,.22,1.32,2.62,2.62,0,0,0,.5.89,1.71,1.71,0,0,0,.72.5,2.69,2.69,0,0,0,.92.16,3.51,3.51,0,0,0,.74-.07,5.47,5.47,0,0,0,.64-.15,3.66,3.66,0,0,0,.53-.21l.41-.23.4.95a3.4,3.4,0,0,1-.54.42,4.6,4.6,0,0,1-.8.41,5.68,5.68,0,0,1-1,.31A4.22,4.22,0,0,1,79.08,418Zm-.21-8.25a1.48,1.48,0,0,0-.57.11,1,1,0,0,0-.46.41,3,3,0,0,0-.33.85,7,7,0,0,0-.16,1.4h2.81v-.11a.86.86,0,0,1,0-.15V412a7.31,7.31,0,0,0,0-.8,2.87,2.87,0,0,0-.2-.73,1.43,1.43,0,0,0-.4-.53A1,1,0,0,0,78.87,409.7Z"/><path class="cls-2" d="M83.62,415.39a2.54,2.54,0,0,1,.2-1,2.46,2.46,0,0,1,.57-.78,3.78,3.78,0,0,1,.86-.57,5.79,5.79,0,0,1,1.06-.39,9,9,0,0,1,1.19-.22q.61-.07,1.23-.09V412a1.82,1.82,0,0,0-.36-1.27,1.6,1.6,0,0,0-1.19-.38,5,5,0,0,0-.85.07c-.28,0-.55.1-.82.16s-.5.14-.72.22-.41.16-.56.23h0l-.46-1.05a3.72,3.72,0,0,1,.55-.34,5.58,5.58,0,0,1,.94-.42,8.72,8.72,0,0,1,1.21-.35,6.19,6.19,0,0,1,1.37-.15,4.81,4.81,0,0,1,1.47.19,2.21,2.21,0,0,1,1,.57,2.29,2.29,0,0,1,.56,1,5,5,0,0,1,.17,1.41v4.88h1v1l-.36.08c-.15,0-.31.07-.49.09l-.57.08c-.2,0-.41,0-.62,0l-.48,0a.8.8,0,0,1-.32-.11.47.47,0,0,1-.18-.25,1.3,1.3,0,0,1,0-.43v-.46a3.31,3.31,0,0,1-.94.82,3.68,3.68,0,0,1-.75.32,3,3,0,0,1-.93.13,3.49,3.49,0,0,1-1-.15,2.33,2.33,0,0,1-.85-.46,2.16,2.16,0,0,1-.57-.8A2.85,2.85,0,0,1,83.62,415.39Zm3.71,1.05a1.33,1.33,0,0,0,.32,0,1.92,1.92,0,0,0,.37-.11,2.2,2.2,0,0,0,.39-.17,1.21,1.21,0,0,0,.32-.22v-2.58a4.64,4.64,0,0,0-1.27.14,2.35,2.35,0,0,0-.81.37,1.39,1.39,0,0,0-.44.54,1.75,1.75,0,0,0-.13.65,1.58,1.58,0,0,0,.32,1.06A1.17,1.17,0,0,0,87.33,416.44Z"/><path class="cls-2" d="M92.69,417.77v-1l1.14-.15V406.14l-1.17-.2V405l3.06-.39h0l.49.37v11.56l1.18.15v1Z"/><path class="cls-2" d="M99.32,415.89v-5.75h-1.1v-.89l.2-.06.28-.11L99,409l.15-.08a2.33,2.33,0,0,0,.55-.75c0-.1.11-.22.17-.36s.13-.28.19-.43.11-.31.17-.45l.13-.41h1.39l0,2.32H104v1.32h-2.3v4.33c0,.42,0,.75,0,1a2.09,2.09,0,0,0,.1.56.37.37,0,0,0,.23.24,1.19,1.19,0,0,0,.43.06h0l.4,0,.41-.08.36-.09L104,416h0l.36.91a3.53,3.53,0,0,1-.57.36,5.13,5.13,0,0,1-.75.32,5.52,5.52,0,0,1-.87.24,4.68,4.68,0,0,1-.91.09h0a2.55,2.55,0,0,1-.88-.13,1.29,1.29,0,0,1-.58-.4,1.62,1.62,0,0,1-.33-.64A3.41,3.41,0,0,1,99.32,415.89Z"/><path class="cls-2" d="M105,417.77v-1l1-.15V406.14l-1.17-.2V405l3-.39h0l.48.37v3.68l-.12,1.24a4.49,4.49,0,0,1,.53-.41,4,4,0,0,1,.71-.4,5.57,5.57,0,0,1,.87-.31,4.09,4.09,0,0,1,1-.12,3.25,3.25,0,0,1,1.26.21,1.77,1.77,0,0,1,.8.65,3,3,0,0,1,.41,1.11,9,9,0,0,1,.12,1.58v4.33l1.1.15v1h-4.37v-1l.86-.17v-4.37a6.43,6.43,0,0,0-.05-.93,1.72,1.72,0,0,0-.21-.64.89.89,0,0,0-.42-.37,1.55,1.55,0,0,0-.69-.13,2.2,2.2,0,0,0-.5.06,4.1,4.1,0,0,0-.5.14,3,3,0,0,0-.45.18,2.67,2.67,0,0,0-.35.22v5.83l1.07.15v1Z"/><path class="cls-2" d="M118,417.9a1.84,1.84,0,0,1-.53-.08,1.48,1.48,0,0,1-.44-.25,1.18,1.18,0,0,1-.29-.4,1.1,1.1,0,0,1-.11-.52,1.45,1.45,0,0,1,.12-.59,1.6,1.6,0,0,1,.35-.47,1.53,1.53,0,0,1,.5-.32,1.84,1.84,0,0,1,.62-.11,1.78,1.78,0,0,1,.65.1,1.11,1.11,0,0,1,.43.28.9.9,0,0,1,.25.39,1.57,1.57,0,0,1,.07.49,1.54,1.54,0,0,1-.12.61,1.32,1.32,0,0,1-.34.47,1.44,1.44,0,0,1-.51.3A2,2,0,0,1,118,417.9Z"/><path class="cls-1" d="M15,373.77V372.7l1-.22,3.77-10.65h2.5L26,372.48l1.09.22v1.07H22V372.7l1.27-.22-.59-1.91H18.45l-.55,1.92,1.29.21v1.07Zm5.3-9.45-1.46,5h3.52l-1.54-5-.27-1.14Z"/><path class="cls-1" d="M32.51,373.27v-2.2h1.43l.41,1.22a.89.89,0,0,0,.22.21,2.63,2.63,0,0,0,.34.18,2.44,2.44,0,0,0,.45.12,2.24,2.24,0,0,0,.52.06,1.91,1.91,0,0,0,.64-.1,1.08,1.08,0,0,0,.39-.24.75.75,0,0,0,.21-.32,1.63,1.63,0,0,0,.05-.36.92.92,0,0,0-.17-.57,1.64,1.64,0,0,0-.47-.43,4.36,4.36,0,0,0-.75-.39l-1-.41a5.86,5.86,0,0,1-1-.49,3.34,3.34,0,0,1-.73-.6,2.41,2.41,0,0,1-.46-.75,2.52,2.52,0,0,1-.17-.93,2.39,2.39,0,0,1,.23-1,2.44,2.44,0,0,1,.69-.82,3.34,3.34,0,0,1,1.12-.54,5.28,5.28,0,0,1,1.56-.2,6.36,6.36,0,0,1,.92.06l.73.14.6.17a3.79,3.79,0,0,0,.53.14v2.16l-1.36,0-.37-1a1.05,1.05,0,0,0-.41-.35,1.76,1.76,0,0,0-.78-.18,2,2,0,0,0-.59.08,1.07,1.07,0,0,0-.38.21,1.12,1.12,0,0,0-.21.29,1,1,0,0,0-.06.33,1.05,1.05,0,0,0,.21.67,1.92,1.92,0,0,0,.53.44,4.6,4.6,0,0,0,.71.31,7.76,7.76,0,0,1,.72.3q.52.23,1,.48a3.88,3.88,0,0,1,.83.59,2.74,2.74,0,0,1,.58.77,2.47,2.47,0,0,1,.21,1.06,2.44,2.44,0,0,1-.22,1,2.33,2.33,0,0,1-.67.84,3.42,3.42,0,0,1-1.13.57,5.67,5.67,0,0,1-1.58.2,6.55,6.55,0,0,1-1.13-.09,7.19,7.19,0,0,1-.93-.2c-.28-.07-.52-.15-.74-.22A5.53,5.53,0,0,0,32.51,373.27Z"/><path class="cls-1" d="M40.67,373.77v-1l1.14-.15v-6l-1.05-.34v-1.17l2.86-.38h0l.57.33v7.57l1.14.15v1Zm2.08-10.42a1.26,1.26,0,0,1-.49-.1,1.22,1.22,0,0,1-.36-.27,1.2,1.2,0,0,1-.22-.4,1.61,1.61,0,0,1-.07-.49,2.12,2.12,0,0,1,.08-.57,1.57,1.57,0,0,1,.25-.48,1.26,1.26,0,0,1,1-.43h0a1.32,1.32,0,0,1,.55.1,1.39,1.39,0,0,1,.39.28,1.23,1.23,0,0,1,.23.4,1.55,1.55,0,0,1,.07.48,1.81,1.81,0,0,1-.09.58,1.18,1.18,0,0,1-.71.78,1.64,1.64,0,0,1-.65.12Z"/><path class="cls-1" d="M46.55,373.77v-1l1-.18v-6l-1.06-.33v-1.18l2.77-.38h0l.42.33v.93a3.94,3.94,0,0,1,.64-.47,5.05,5.05,0,0,1,.81-.39,5.62,5.62,0,0,1,.88-.28,4.55,4.55,0,0,1,.86-.1,3,3,0,0,1,1.43.29,1.8,1.8,0,0,1,.81.92,4.49,4.49,0,0,1,.57-.41,6.46,6.46,0,0,1,.79-.39,5.93,5.93,0,0,1,.9-.29,3.75,3.75,0,0,1,.92-.12,3.29,3.29,0,0,1,1.22.19,1.6,1.6,0,0,1,.79.61,2.84,2.84,0,0,1,.43,1.1,9.49,9.49,0,0,1,.12,1.64v4.34l1.1.18v1H57.62v-1l.82-.18V368.3a7.36,7.36,0,0,0-.06-1,2,2,0,0,0-.22-.67.93.93,0,0,0-.43-.38,1.59,1.59,0,0,0-.66-.12,1.77,1.77,0,0,0-.43.06,4.12,4.12,0,0,0-.47.13,4.68,4.68,0,0,0-.45.19,3.5,3.5,0,0,0-.39.2,3.93,3.93,0,0,1,.09.72c0,.25,0,.53,0,.84v4.33l1,.17v1H52.11v-1l.94-.17v-4.37a5.11,5.11,0,0,0-.07-.93,1.72,1.72,0,0,0-.21-.64.89.89,0,0,0-.42-.37,1.41,1.41,0,0,0-.66-.13,2.1,2.1,0,0,0-.48.06,4.1,4.1,0,0,0-.5.14,3,3,0,0,0-.45.18,2.51,2.51,0,0,0-.34.22v5.83l1.06.18v1Z"/><path class="cls-1" d="M62.73,376.65l1.18-.19v-9.9l-1.07-.33v-1.18l2.8-.38h0l.4.33v.83a3.24,3.24,0,0,1,.46-.44,3.15,3.15,0,0,1,.59-.38,3.73,3.73,0,0,1,1.56-.37,3.77,3.77,0,0,1,1.35.25,2.69,2.69,0,0,1,1.1.77,3.75,3.75,0,0,1,.74,1.36,6.63,6.63,0,0,1,.27,2,5.79,5.79,0,0,1-.32,1.93,4.58,4.58,0,0,1-.91,1.56,4.19,4.19,0,0,1-1.44,1,4.75,4.75,0,0,1-1.93.38l-.38,0-.37,0-.32,0-.22-.05,0,1.3v1.36l1.55.19v1H62.73Zm5-10.58a2,2,0,0,0-.83.16,1.88,1.88,0,0,0-.57.38v5.92a1.22,1.22,0,0,0,.43.26,2.18,2.18,0,0,0,.72.11,1.84,1.84,0,0,0,.8-.18,1.6,1.6,0,0,0,.66-.61,3.6,3.6,0,0,0,.46-1.11,7.78,7.78,0,0,0,.18-1.68,6.65,6.65,0,0,0-.11-1.5,3.29,3.29,0,0,0-.37-1,1.53,1.53,0,0,0-.59-.57A1.66,1.66,0,0,0,67.7,366.07Z"/><path class="cls-1" d="M73.15,373.77v-1l1.13-.15V362.14l-1.16-.2V361l3-.39h0l.5.37v11.56l1.18.15v1Z"/><path class="cls-1" d="M83,374a4.92,4.92,0,0,1-1.9-.34,3.43,3.43,0,0,1-1.3-1,4,4,0,0,1-.76-1.47,6.76,6.76,0,0,1-.24-1.86,5.62,5.62,0,0,1,.31-1.95A4,4,0,0,1,80,365.9a3.88,3.88,0,0,1,1.35-.93,4.7,4.7,0,0,1,1.75-.32q3.24,0,3.38,3.17c0,.36,0,.68,0,1a4.51,4.51,0,0,1-.08.73h-5.1a4.77,4.77,0,0,0,.22,1.32,2.62,2.62,0,0,0,.5.89,1.71,1.71,0,0,0,.72.5,2.69,2.69,0,0,0,.92.16,3.51,3.51,0,0,0,.74-.07,5.47,5.47,0,0,0,.64-.15,3.66,3.66,0,0,0,.53-.21l.41-.23.4.95a3.4,3.4,0,0,1-.54.42,4.6,4.6,0,0,1-.8.41,5.51,5.51,0,0,1-1,.31A4.14,4.14,0,0,1,83,374Zm-.22-8.25a1.47,1.47,0,0,0-.56.11,1,1,0,0,0-.46.41,2.74,2.74,0,0,0-.33.85,7,7,0,0,0-.16,1.4h2.8a.54.54,0,0,1,0-.11.86.86,0,0,1,0-.15V368a5.49,5.49,0,0,0-.06-.8,2.51,2.51,0,0,0-.19-.73,1.43,1.43,0,0,0-.4-.53A1.06,1.06,0,0,0,82.76,365.7Z"/><path class="cls-1" d="M16.23,395.27v-2.2h1.43l.41,1.22a1,1,0,0,0,.21.21l.35.18a2.44,2.44,0,0,0,.45.12,2.18,2.18,0,0,0,.52.06,1.91,1.91,0,0,0,.64-.1,1.08,1.08,0,0,0,.39-.24.64.64,0,0,0,.2-.32,1.23,1.23,0,0,0,.06-.36,1,1,0,0,0-.17-.57,1.64,1.64,0,0,0-.47-.43,4.36,4.36,0,0,0-.75-.39l-1-.41a5.86,5.86,0,0,1-1-.49,3.34,3.34,0,0,1-.73-.6,2.41,2.41,0,0,1-.46-.75,2.52,2.52,0,0,1-.17-.93,2.39,2.39,0,0,1,.23-1,2.33,2.33,0,0,1,.69-.82,3.34,3.34,0,0,1,1.12-.54,5.28,5.28,0,0,1,1.56-.2,6.12,6.12,0,0,1,.91.06c.27,0,.52.09.73.14l.61.17a3.79,3.79,0,0,0,.53.14v2.16l-1.36,0-.37-1a1.05,1.05,0,0,0-.41-.35,1.76,1.76,0,0,0-.78-.18,2,2,0,0,0-.59.08,1,1,0,0,0-.38.21.93.93,0,0,0-.21.29,1,1,0,0,0-.06.33,1.05,1.05,0,0,0,.21.67,1.92,1.92,0,0,0,.53.44,4.6,4.6,0,0,0,.71.31,7.76,7.76,0,0,1,.72.3c.35.15.67.31,1,.48a3.88,3.88,0,0,1,.83.59,2.74,2.74,0,0,1,.58.77,2.47,2.47,0,0,1,.21,1.06,2.44,2.44,0,0,1-.22,1,2.33,2.33,0,0,1-.67.84,3.42,3.42,0,0,1-1.13.57,5.67,5.67,0,0,1-1.58.2,6.55,6.55,0,0,1-1.13-.09,7.19,7.19,0,0,1-.93-.2c-.28-.07-.53-.15-.74-.22A5.53,5.53,0,0,0,16.23,395.27Z"/><path class="cls-1" d="M24.31,391.4a5.7,5.7,0,0,1,.32-1.93,4.35,4.35,0,0,1,.9-1.5A4,4,0,0,1,27,387a4.78,4.78,0,0,1,1.86-.35,7.06,7.06,0,0,1,1,.06c.29,0,.55.09.78.14s.43.11.6.16l.4.13-.07,2.66H30.1l-.45-1.37a1.71,1.71,0,0,0-.42-.52,1,1,0,0,0-.61-.19,1.32,1.32,0,0,0-.67.18,1.58,1.58,0,0,0-.56.56,3,3,0,0,0-.4,1,6,6,0,0,0-.15,1.45,7.05,7.05,0,0,0,.16,1.64,3.14,3.14,0,0,0,.44,1.09,1.7,1.7,0,0,0,.72.59,2.19,2.19,0,0,0,.94.19,3.6,3.6,0,0,0,1.25-.2,4.64,4.64,0,0,0,.89-.42l.42.94a2.65,2.65,0,0,1-.48.4,4,4,0,0,1-.72.4,4.53,4.53,0,0,1-.9.31,4,4,0,0,1-1,.13,5,5,0,0,1-1.9-.34,3.43,3.43,0,0,1-1.3-1,3.68,3.68,0,0,1-.76-1.44A6.14,6.14,0,0,1,24.31,391.4Z"/><path class="cls-1" d="M32.77,395.77v-1l1.13-.15v-6l-1.07-.33v-1.18l2.68-.38h0L36,387v1.87h0a3.72,3.72,0,0,1,.34-.63,5,5,0,0,1,.61-.73,3.48,3.48,0,0,1,.84-.61,2.09,2.09,0,0,1,1-.26l.37,0,.22,0v2.71a1.56,1.56,0,0,0-.45-.14,4.33,4.33,0,0,0-.86-.07,4.93,4.93,0,0,0-.55,0l-.51.08a2.43,2.43,0,0,0-.43.12l-.29.14v5l2,.18v1Z"/><path class="cls-1" d="M44.48,396a4.92,4.92,0,0,1-1.9-.34,3.43,3.43,0,0,1-1.3-1,4,4,0,0,1-.76-1.47,6.76,6.76,0,0,1-.24-1.86,5.62,5.62,0,0,1,.31-1.95,4,4,0,0,1,.87-1.47,3.88,3.88,0,0,1,1.35-.93,4.7,4.7,0,0,1,1.75-.32q3.24,0,3.38,3.17c0,.36,0,.68,0,1a4.51,4.51,0,0,1-.08.73h-5.1a4.77,4.77,0,0,0,.22,1.32,2.62,2.62,0,0,0,.5.89,1.71,1.71,0,0,0,.72.5,2.69,2.69,0,0,0,.92.16,3.51,3.51,0,0,0,.74-.07,5.47,5.47,0,0,0,.64-.15A3.66,3.66,0,0,0,47,394l.41-.23.4.95a3.4,3.4,0,0,1-.54.42,4.6,4.6,0,0,1-.8.41,5.51,5.51,0,0,1-1,.31A4.14,4.14,0,0,1,44.48,396Zm-.22-8.25a1.47,1.47,0,0,0-.56.11,1,1,0,0,0-.46.41,2.74,2.74,0,0,0-.33.85,7,7,0,0,0-.16,1.4h2.8a.54.54,0,0,1,0-.11.86.86,0,0,1,0-.15V390a5.49,5.49,0,0,0-.06-.8,2.51,2.51,0,0,0-.19-.73,1.43,1.43,0,0,0-.4-.53A1.06,1.06,0,0,0,44.26,387.7Z"/><path class="cls-1" d="M53.27,396a4.91,4.91,0,0,1-1.89-.34,3.46,3.46,0,0,1-1.31-1,3.94,3.94,0,0,1-.75-1.47,6.76,6.76,0,0,1-.24-1.86,5.62,5.62,0,0,1,.31-1.95,4,4,0,0,1,.87-1.47,3.79,3.79,0,0,1,1.35-.93,4.66,4.66,0,0,1,1.75-.32q3.24,0,3.38,3.17c0,.36,0,.68,0,1a6,6,0,0,1-.08.73H51.55a5.14,5.14,0,0,0,.23,1.32,2.79,2.79,0,0,0,.49.89,1.8,1.8,0,0,0,.73.5,2.63,2.63,0,0,0,.91.16,3.54,3.54,0,0,0,.75-.07,5.3,5.3,0,0,0,.63-.15,3.25,3.25,0,0,0,.53-.21l.41-.23.41.95a3.4,3.4,0,0,1-.54.42,4.6,4.6,0,0,1-.8.41,5.51,5.51,0,0,1-1,.31A4.22,4.22,0,0,1,53.27,396Zm-.21-8.25a1.47,1.47,0,0,0-.56.11,1.06,1.06,0,0,0-.47.41,2.75,2.75,0,0,0-.32.85,7,7,0,0,0-.16,1.4h2.8v-.11a.66.66,0,0,0,0-.15.71.71,0,0,0,0-.14V390a5.49,5.49,0,0,0-.06-.8,2.23,2.23,0,0,0-.2-.73,1.33,1.33,0,0,0-.4-.53A1,1,0,0,0,53.06,387.7Z"/><path class="cls-1" d="M58.07,395.77v-1l1-.15v-6L58,388.23v-1.18l2.8-.38h0l.41.33v.93a6.46,6.46,0,0,1,.61-.46,5.58,5.58,0,0,1,.77-.4,5.75,5.75,0,0,1,.86-.27,4,4,0,0,1,.91-.11,3.54,3.54,0,0,1,1.26.2,1.76,1.76,0,0,1,.8.62,2.8,2.8,0,0,1,.42,1.11,9.45,9.45,0,0,1,.12,1.63v4.32l1.11.15v1H63.73v-1l.85-.15v-4.36a6.31,6.31,0,0,0-.06-.93,1.56,1.56,0,0,0-.2-.64.84.84,0,0,0-.4-.37,1.34,1.34,0,0,0-.65-.13,2.31,2.31,0,0,0-.52.06,2.56,2.56,0,0,0-.49.16,4.09,4.09,0,0,0-.42.2,2.35,2.35,0,0,0-.33.23v5.78l1,.15v1Z"/><path class="cls-1" d="M69,395.77v-1l1.14-.15v-6l-1.06-.34v-1.17l2.87-.38h0l.57.33v7.57l1.13.15v1Zm2.08-10.42a1.22,1.22,0,0,1-.49-.1,1.1,1.1,0,0,1-.36-.27,1.2,1.2,0,0,1-.22-.4,1.61,1.61,0,0,1-.07-.49,1.79,1.79,0,0,1,.08-.57,1.2,1.2,0,0,1,.68-.8,1.35,1.35,0,0,1,.59-.11h0a1.37,1.37,0,0,1,.56.1,1.21,1.21,0,0,1,.38.28,1.07,1.07,0,0,1,.23.4,1.56,1.56,0,0,1,.08.48,1.81,1.81,0,0,1-.09.58,1.27,1.27,0,0,1-.26.47,1.21,1.21,0,0,1-.45.31,1.69,1.69,0,0,1-.66.12Z"/><path class="cls-1" d="M74.88,395.77v-1l1-.15v-6l-1.06-.33v-1.18l2.79-.38h0l.42.33v.93a4.61,4.61,0,0,1,.61-.46,4.94,4.94,0,0,1,.76-.4,5.75,5.75,0,0,1,.86-.27,4.06,4.06,0,0,1,.92-.11,3.48,3.48,0,0,1,1.25.2,1.71,1.71,0,0,1,.8.62,2.8,2.8,0,0,1,.42,1.11,8.46,8.46,0,0,1,.13,1.63v4.32l1.11.15v1h-4.4v-1l.85-.15v-4.36a6.31,6.31,0,0,0-.06-.93,1.73,1.73,0,0,0-.19-.64.89.89,0,0,0-.4-.37,1.41,1.41,0,0,0-.66-.13,2.31,2.31,0,0,0-.52.06,2.81,2.81,0,0,0-.49.16,4.09,4.09,0,0,0-.42.2,2.35,2.35,0,0,0-.33.23v5.78l1.05.15v1Z"/><path class="cls-1" d="M89.84,392.71a7.08,7.08,0,0,1-1.18-.09,1,1,0,0,0-.22.31.88.88,0,0,0-.09.41.82.82,0,0,0,.1.44.68.68,0,0,0,.32.25,2,2,0,0,0,.56.12c.23,0,.5,0,.82,0h1.56a4.46,4.46,0,0,1,2.51.57,2.12,2.12,0,0,1,.83,1.87,2.62,2.62,0,0,1-.41,1.43,3.73,3.73,0,0,1-1.11,1.09,5.76,5.76,0,0,1-1.61.7,7.52,7.52,0,0,1-1.91.24h0a8,8,0,0,1-1.89-.19,4,4,0,0,1-1.29-.54,2.16,2.16,0,0,1-1-1.86,1.72,1.72,0,0,1,.14-.68,2,2,0,0,1,.35-.58,2.22,2.22,0,0,1,.51-.45,3.11,3.11,0,0,1,.6-.31,1.75,1.75,0,0,1-.69-.59,1.48,1.48,0,0,1-.24-.84,1.6,1.6,0,0,1,.31-1,3.11,3.11,0,0,1,.8-.72,2.44,2.44,0,0,1-1.18-1,3.08,3.08,0,0,1-.38-1.56,2.58,2.58,0,0,1,.32-1.27,3.09,3.09,0,0,1,.86-1,4.55,4.55,0,0,1,1.27-.62,5.65,5.65,0,0,1,1.56-.22h0a4.64,4.64,0,0,1,2.9.75,2.67,2.67,0,0,1,.29-.27,2.52,2.52,0,0,1,.43-.24,3.42,3.42,0,0,1,.54-.18,2.59,2.59,0,0,1,.63-.08h.36v1.75H93.69a3.07,3.07,0,0,1,.14.52,2.86,2.86,0,0,1,0,.6,2.91,2.91,0,0,1-.29,1.29,3.11,3.11,0,0,1-.83,1,3.89,3.89,0,0,1-1.28.67,5.26,5.26,0,0,1-1.63.24Zm-.4,3.16a5.49,5.49,0,0,1-.93-.07,2,2,0,0,0-.3.45,1.76,1.76,0,0,0-.13.76,2.4,2.4,0,0,0,.14.9,1.4,1.4,0,0,0,.41.59,1.73,1.73,0,0,0,.68.33,3.73,3.73,0,0,0,.93.1h0a3.69,3.69,0,0,0,.93-.11,2.65,2.65,0,0,0,.81-.33,1.9,1.9,0,0,0,.57-.56,1.43,1.43,0,0,0,.21-.79,2,2,0,0,0-.07-.58.84.84,0,0,0-.27-.4,1.32,1.32,0,0,0-.52-.22,4,4,0,0,0-.85-.07Zm.59-4.2h0a1.34,1.34,0,0,0,.66-.16,1.16,1.16,0,0,0,.41-.44,1.93,1.93,0,0,0,.21-.64,6.7,6.7,0,0,0,.05-.79,2.64,2.64,0,0,0-.33-1.5,1.24,1.24,0,0,0-1.09-.46h0a1.22,1.22,0,0,0-1.07.46,2.61,2.61,0,0,0-.32,1.43,4.5,4.5,0,0,0,.07.85,1.72,1.72,0,0,0,.24.67,1.19,1.19,0,0,0,.46.43A1.49,1.49,0,0,0,90,391.67Z"/><path class="cls-1" d="M100.85,395.77v-1l1.25-.21v-6.3h-1.37v-.94l1.37-.39v-.45a3.66,3.66,0,0,1,.38-1.67,4.3,4.3,0,0,1,2.33-2.07,4.06,4.06,0,0,1,1.46-.28,3,3,0,0,1,.6,0l.32.09v2.33a1.45,1.45,0,0,0-.29-.21,3.14,3.14,0,0,0-.41-.19,3.65,3.65,0,0,0-.5-.13,2.48,2.48,0,0,0-.54-.06,1.46,1.46,0,0,0-.38.05.58.58,0,0,0-.29.17.78.78,0,0,0-.19.32,1.62,1.62,0,0,0-.07.53v1.53h2v1.33h-2v6.34l1.73.17v1Z"/><path class="cls-1" d="M107.4,391.35a5.47,5.47,0,0,1,.36-2.07,4.3,4.3,0,0,1,1-1.47,4.14,4.14,0,0,1,1.41-.88,5,5,0,0,1,1.67-.29,4.78,4.78,0,0,1,1.8.32,3.59,3.59,0,0,1,1.31.91,4,4,0,0,1,.8,1.45,6,6,0,0,1,.28,1.93,5.64,5.64,0,0,1-.37,2.11,4.17,4.17,0,0,1-1,1.46,3.79,3.79,0,0,1-1.4.85,4.92,4.92,0,0,1-1.67.28,4.76,4.76,0,0,1-1.79-.32,3.51,3.51,0,0,1-1.32-.91,3.83,3.83,0,0,1-.81-1.44A6.38,6.38,0,0,1,107.4,391.35Zm4.33,3.52a1.38,1.38,0,0,0,.74-.19,1.48,1.48,0,0,0,.52-.6,3.75,3.75,0,0,0,.3-1.05,9.72,9.72,0,0,0,.1-1.53,12.93,12.93,0,0,0-.09-1.62,4.71,4.71,0,0,0-.29-1.19,1.68,1.68,0,0,0-.52-.72,1.25,1.25,0,0,0-.8-.25,1.48,1.48,0,0,0-.74.19,1.46,1.46,0,0,0-.53.61,3.54,3.54,0,0,0-.31,1.05,9.55,9.55,0,0,0-.1,1.53,12.93,12.93,0,0,0,.09,1.62,4.31,4.31,0,0,0,.3,1.18,1.78,1.78,0,0,0,.53.72A1.25,1.25,0,0,0,111.73,394.87Z"/><path class="cls-1" d="M117.2,395.77v-1l1.13-.15v-6l-1.07-.33v-1.18l2.68-.38h0l.42.33v1.87h0a3.72,3.72,0,0,1,.34-.63,4.46,4.46,0,0,1,.61-.73,3.48,3.48,0,0,1,.84-.61,2.09,2.09,0,0,1,1-.26l.37,0,.22,0v2.71a1.56,1.56,0,0,0-.45-.14,4.33,4.33,0,0,0-.86-.07,4.93,4.93,0,0,0-.55,0l-.51.08a2.43,2.43,0,0,0-.43.12l-.29.14v5l2,.18v1Z"/><path class="cls-2" d="M15.91,417.77v-1l1-.15V406.14l-1.18-.2V405l3-.39h0l.48.37v3.68l-.12,1.24a5.51,5.51,0,0,1,.53-.41,4.37,4.37,0,0,1,.71-.4,5.57,5.57,0,0,1,.87-.31,4.09,4.09,0,0,1,1-.12,3.25,3.25,0,0,1,1.26.21,1.77,1.77,0,0,1,.8.65,3,3,0,0,1,.41,1.11,9,9,0,0,1,.12,1.58v4.33l1.1.15v1H21.57v-1l.87-.17v-4.37a6.31,6.31,0,0,0-.06-.93,1.42,1.42,0,0,0-.21-.64.89.89,0,0,0-.42-.37,1.55,1.55,0,0,0-.69-.13,2.2,2.2,0,0,0-.5.06,3.5,3.5,0,0,0-.49.14,3,3,0,0,0-.45.18,2.84,2.84,0,0,0-.36.22v5.83l1.07.15v1Z"/><path class="cls-2" d="M31,418a4.92,4.92,0,0,1-1.9-.34,3.43,3.43,0,0,1-1.3-1,4.1,4.1,0,0,1-.76-1.47,6.76,6.76,0,0,1-.24-1.86,5.87,5.87,0,0,1,.31-1.95A4.28,4.28,0,0,1,28,409.9,4,4,0,0,1,29.3,409a4.7,4.7,0,0,1,1.75-.32q3.24,0,3.39,3.17c0,.36,0,.68,0,1a4.51,4.51,0,0,1-.08.73h-5.1a4.74,4.74,0,0,0,.23,1.32,2.45,2.45,0,0,0,.49.89,1.71,1.71,0,0,0,.72.5,2.73,2.73,0,0,0,.92.16,3.51,3.51,0,0,0,.74-.07,5.47,5.47,0,0,0,.64-.15,3.66,3.66,0,0,0,.53-.21l.41-.23.4.95a3,3,0,0,1-.54.42,4.87,4.87,0,0,1-.79.41,5.79,5.79,0,0,1-1,.31A4.22,4.22,0,0,1,31,418Zm-.21-8.25a1.52,1.52,0,0,0-.57.11,1,1,0,0,0-.46.41,3,3,0,0,0-.33.85,7.86,7.86,0,0,0-.16,1.4h2.81v-.11a.86.86,0,0,1,0-.15V412a7.31,7.31,0,0,0-.05-.8,2.87,2.87,0,0,0-.2-.73,1.43,1.43,0,0,0-.4-.53A1,1,0,0,0,30.76,409.7Z"/><path class="cls-2" d="M35.51,415.39a2.54,2.54,0,0,1,.2-1,2.46,2.46,0,0,1,.57-.78,3.78,3.78,0,0,1,.86-.57,5.79,5.79,0,0,1,1.06-.39,9,9,0,0,1,1.19-.22q.61-.07,1.23-.09V412a1.82,1.82,0,0,0-.36-1.27,1.6,1.6,0,0,0-1.19-.38,5,5,0,0,0-.85.07c-.28,0-.55.1-.81.16s-.51.14-.73.22-.41.16-.56.23h0l-.46-1.05a3.72,3.72,0,0,1,.55-.34,6,6,0,0,1,.94-.42,8.72,8.72,0,0,1,1.21-.35,6.19,6.19,0,0,1,1.37-.15,4.81,4.81,0,0,1,1.47.19,2.21,2.21,0,0,1,1,.57,2.29,2.29,0,0,1,.56,1,4.93,4.93,0,0,1,.18,1.41v4.88h1v1l-.36.08c-.15,0-.31.07-.49.09l-.57.08c-.2,0-.41,0-.62,0l-.48,0a.8.8,0,0,1-.32-.11.52.52,0,0,1-.18-.25,1.3,1.3,0,0,1-.05-.43v-.46a3.31,3.31,0,0,1-.94.82,3.68,3.68,0,0,1-.75.32,3,3,0,0,1-.93.13,3.49,3.49,0,0,1-1-.15,2.33,2.33,0,0,1-.85-.46,2.16,2.16,0,0,1-.57-.8A2.85,2.85,0,0,1,35.51,415.39Zm3.71,1.05a1.33,1.33,0,0,0,.32,0,1.92,1.92,0,0,0,.37-.11,2.2,2.2,0,0,0,.39-.17,1.21,1.21,0,0,0,.32-.22v-2.58a4.69,4.69,0,0,0-1.27.14,2.35,2.35,0,0,0-.81.37,1.39,1.39,0,0,0-.44.54A1.75,1.75,0,0,0,38,415a1.58,1.58,0,0,0,.31,1.06A1.17,1.17,0,0,0,39.22,416.44Z"/><path class="cls-2" d="M44.83,417.77v-1l1.12-.15v-6l-1.06-.33v-1.18l2.67-.38h0L48,409v1.87h0a3.11,3.11,0,0,1,.34-.63,4,4,0,0,1,.61-.73,3.63,3.63,0,0,1,.83-.61,2.16,2.16,0,0,1,1-.26l.37,0,.21,0v2.71a1.36,1.36,0,0,0-.44-.14,4.51,4.51,0,0,0-.87-.07l-.55,0-.51.08a2.1,2.1,0,0,0-.42.12,2,2,0,0,0-.29.14v5l1.94.18v1Z"/><path class="cls-2" d="M53.33,415.89v-5.75h-1.1v-.89l.19-.06.29-.11L53,409l.15-.08a2.49,2.49,0,0,0,.55-.75c0-.1.11-.22.17-.36s.13-.28.19-.43l.16-.45c.06-.15.1-.29.14-.41h1.39l0,2.32H58v1.32h-2.3v4.33c0,.42,0,.75,0,1a1.8,1.8,0,0,0,.09.56.39.39,0,0,0,.23.24,1.27,1.27,0,0,0,.43.06h0l.4,0,.4-.08.37-.09L58,416h0l.36.91a3.53,3.53,0,0,1-.57.36,5.13,5.13,0,0,1-.75.32,5.52,5.52,0,0,1-.87.24,4.7,4.7,0,0,1-.92.09h0a2.51,2.51,0,0,1-.88-.13,1.38,1.38,0,0,1-.59-.4,1.61,1.61,0,0,1-.32-.64A3.41,3.41,0,0,1,53.33,415.89Z"/><path class="cls-2" d="M64,417.77v-1l1-.15V406.14l-1.18-.2V405l3-.39h0l.48.37v3.68l-.12,1.24a5.51,5.51,0,0,1,.53-.41,4.37,4.37,0,0,1,.71-.4,5.57,5.57,0,0,1,.87-.31,4.09,4.09,0,0,1,1-.12,3.25,3.25,0,0,1,1.26.21,1.77,1.77,0,0,1,.8.65,3,3,0,0,1,.41,1.11,9,9,0,0,1,.12,1.58v4.33l1.1.15v1H69.68v-1l.87-.17v-4.37a6.31,6.31,0,0,0-.06-.93,1.42,1.42,0,0,0-.21-.64.89.89,0,0,0-.42-.37,1.55,1.55,0,0,0-.69-.13,2.2,2.2,0,0,0-.5.06,4.1,4.1,0,0,0-.5.14,3.38,3.38,0,0,0-.44.18,2.27,2.27,0,0,0-.36.22v5.83l1.07.15v1Z"/><path class="cls-2" d="M79.08,418a4.92,4.92,0,0,1-1.9-.34,3.43,3.43,0,0,1-1.3-1,4.1,4.1,0,0,1-.76-1.47,6.76,6.76,0,0,1-.24-1.86,5.62,5.62,0,0,1,.31-1.95,4.28,4.28,0,0,1,.87-1.47,4,4,0,0,1,1.35-.93,4.7,4.7,0,0,1,1.75-.32q3.24,0,3.39,3.17c0,.36,0,.68,0,1a4.51,4.51,0,0,1-.08.73h-5.1a4.77,4.77,0,0,0,.22,1.32,2.62,2.62,0,0,0,.5.89,1.71,1.71,0,0,0,.72.5,2.69,2.69,0,0,0,.92.16,3.51,3.51,0,0,0,.74-.07,5.47,5.47,0,0,0,.64-.15,3.66,3.66,0,0,0,.53-.21l.41-.23.4.95a3.4,3.4,0,0,1-.54.42,4.6,4.6,0,0,1-.8.41,5.68,5.68,0,0,1-1,.31A4.22,4.22,0,0,1,79.08,418Zm-.21-8.25a1.48,1.48,0,0,0-.57.11,1,1,0,0,0-.46.41,3,3,0,0,0-.33.85,7,7,0,0,0-.16,1.4h2.81v-.11a.86.86,0,0,1,0-.15V412a7.31,7.31,0,0,0,0-.8,2.87,2.87,0,0,0-.2-.73,1.43,1.43,0,0,0-.4-.53A1,1,0,0,0,78.87,409.7Z"/><path class="cls-2" d="M83.62,415.39a2.54,2.54,0,0,1,.2-1,2.46,2.46,0,0,1,.57-.78,3.78,3.78,0,0,1,.86-.57,5.79,5.79,0,0,1,1.06-.39,9,9,0,0,1,1.19-.22q.61-.07,1.23-.09V412a1.82,1.82,0,0,0-.36-1.27,1.6,1.6,0,0,0-1.19-.38,5,5,0,0,0-.85.07c-.28,0-.55.1-.82.16s-.5.14-.72.22-.41.16-.56.23h0l-.46-1.05a3.72,3.72,0,0,1,.55-.34,5.58,5.58,0,0,1,.94-.42,8.72,8.72,0,0,1,1.21-.35,6.19,6.19,0,0,1,1.37-.15,4.81,4.81,0,0,1,1.47.19,2.21,2.21,0,0,1,1,.57,2.29,2.29,0,0,1,.56,1,5,5,0,0,1,.17,1.41v4.88h1v1l-.36.08c-.15,0-.31.07-.49.09l-.57.08c-.2,0-.41,0-.62,0l-.48,0a.8.8,0,0,1-.32-.11.47.47,0,0,1-.18-.25,1.3,1.3,0,0,1,0-.43v-.46a3.31,3.31,0,0,1-.94.82,3.68,3.68,0,0,1-.75.32,3,3,0,0,1-.93.13,3.49,3.49,0,0,1-1-.15,2.33,2.33,0,0,1-.85-.46,2.16,2.16,0,0,1-.57-.8A2.85,2.85,0,0,1,83.62,415.39Zm3.71,1.05a1.33,1.33,0,0,0,.32,0,1.92,1.92,0,0,0,.37-.11,2.2,2.2,0,0,0,.39-.17,1.21,1.21,0,0,0,.32-.22v-2.58a4.64,4.64,0,0,0-1.27.14,2.35,2.35,0,0,0-.81.37,1.39,1.39,0,0,0-.44.54,1.75,1.75,0,0,0-.13.65,1.58,1.58,0,0,0,.32,1.06A1.17,1.17,0,0,0,87.33,416.44Z"/><path class="cls-2" d="M92.69,417.77v-1l1.14-.15V406.14l-1.17-.2V405l3.06-.39h0l.49.37v11.56l1.18.15v1Z"/><path class="cls-2" d="M99.32,415.89v-5.75h-1.1v-.89l.2-.06.28-.11L99,409l.15-.08a2.33,2.33,0,0,0,.55-.75c0-.1.11-.22.17-.36s.13-.28.19-.43.11-.31.17-.45l.13-.41h1.39l0,2.32H104v1.32h-2.3v4.33c0,.42,0,.75,0,1a2.09,2.09,0,0,0,.1.56.37.37,0,0,0,.23.24,1.19,1.19,0,0,0,.43.06h0l.4,0,.41-.08.36-.09L104,416h0l.36.91a3.53,3.53,0,0,1-.57.36,5.13,5.13,0,0,1-.75.32,5.52,5.52,0,0,1-.87.24,4.68,4.68,0,0,1-.91.09h0a2.55,2.55,0,0,1-.88-.13,1.29,1.29,0,0,1-.58-.4,1.62,1.62,0,0,1-.33-.64A3.41,3.41,0,0,1,99.32,415.89Z"/><path class="cls-2" d="M105,417.77v-1l1-.15V406.14l-1.17-.2V405l3-.39h0l.48.37v3.68l-.12,1.24a4.49,4.49,0,0,1,.53-.41,4,4,0,0,1,.71-.4,5.57,5.57,0,0,1,.87-.31,4.09,4.09,0,0,1,1-.12,3.25,3.25,0,0,1,1.26.21,1.77,1.77,0,0,1,.8.65,3,3,0,0,1,.41,1.11,9,9,0,0,1,.12,1.58v4.33l1.1.15v1h-4.37v-1l.86-.17v-4.37a6.43,6.43,0,0,0-.05-.93,1.72,1.72,0,0,0-.21-.64.89.89,0,0,0-.42-.37,1.55,1.55,0,0,0-.69-.13,2.2,2.2,0,0,0-.5.06,4.1,4.1,0,0,0-.5.14,3,3,0,0,0-.45.18,2.67,2.67,0,0,0-.35.22v5.83l1.07.15v1Z"/><path class="cls-2" d="M118,417.9a1.84,1.84,0,0,1-.53-.08,1.48,1.48,0,0,1-.44-.25,1.18,1.18,0,0,1-.29-.4,1.1,1.1,0,0,1-.11-.52,1.45,1.45,0,0,1,.12-.59,1.6,1.6,0,0,1,.35-.47,1.53,1.53,0,0,1,.5-.32,1.84,1.84,0,0,1,.62-.11,1.78,1.78,0,0,1,.65.1,1.11,1.11,0,0,1,.43.28.9.9,0,0,1,.25.39,1.57,1.57,0,0,1,.07.49,1.54,1.54,0,0,1-.12.61,1.32,1.32,0,0,1-.34.47,1.44,1.44,0,0,1-.51.3A2,2,0,0,1,118,417.9Z"/></svg>