<svg id="Layer_1" data-name="Layer 1" xmlns="http://www.w3.org/2000/svg" xmlns:xlink="http://www.w3.org/1999/xlink" viewBox="0 0 160 600"><defs><style>.cls-1{fill:#435563;}.cls-2{opacity:0.1;}.cls-3{fill:#fff;}.cls-4{fill:url(#linear-gradient);}</style><linearGradient id="linear-gradient" x1="80" y1="240.31" x2="80" y2="345.03" gradientUnits="userSpaceOnUse"><stop offset="0" stop-color="#445665" stop-opacity="0"/><stop offset="0.26" stop-color="#445665" stop-opacity="0.41"/><stop offset="0.51" stop-color="#445665" stop-opacity="0.73"/><stop offset="0.72" stop-color="#445665" stop-opacity="0.93"/><stop offset="0.86" stop-color="#445665"/></linearGradient></defs><rect class="cls-1" y="345.03" width="160" height="254.97"/><g class="cls-2"><path class="cls-3" d="M80.55,505.35a3.11,3.11,0,0,1-2-.89l-5.79-5.77c-1.24-1.23-2.25-.81-2.25.94v16.06a8.81,8.81,0,0,0,2.24,5.4l5.06,5.06a3.18,3.18,0,0,0,2.76.87,3,3,0,0,0,1.73-.87L116.43,492a3.25,3.25,0,0,1,4.48,0l15.36,15.4a8.79,8.79,0,0,0,5.41,2.25l15.34,0c1.75,0,2.16-1,.93-2.25l-36.69-36.71a3.17,3.17,0,0,0-2.39-.9,3.2,3.2,0,0,0-2.1.9L83,504.45A3.17,3.17,0,0,1,80.55,505.35Z"/><path class="cls-3" d="M161.09,588.58l-33.77-33.77a3.12,3.12,0,0,1-.84-2.94,3.17,3.17,0,0,1,.84-1.55l5.8-5.81c1.23-1.23.81-2.23-.92-2.23H116.09a8.82,8.82,0,0,0-5.41,2.23l-5.07,5.09a3.08,3.08,0,0,0-.92,2.27,3.14,3.14,0,0,0,.92,2.22l34.15,34.13a3.2,3.2,0,0,1,0,4.49l-15.37,15.35a8.81,8.81,0,0,0-2.25,5.41l0,15.42c0,1.74,1,2.17,2.24.92l36.74-36.74a3.09,3.09,0,0,0,.88-2.62A3.14,3.14,0,0,0,161.09,588.58Z"/><path class="cls-3" d="M79.32,598.21a3.19,3.19,0,0,1,2.15.91l5.79,5.79c1.23,1.24,2.24.81,2.24-.93v-16.1a8.81,8.81,0,0,0-2.25-5.42l-5-5a3.18,3.18,0,0,0-4.5,0L43.57,611.56a3.24,3.24,0,0,1-4.49,0l-15.36-15.4a8.94,8.94,0,0,0-5.42-2.26l-15.5-.08c-1.74,0-2.16,1-.93,2.23l36.87,36.84a3.21,3.21,0,0,0,4.48,0L77,599.12A3.18,3.18,0,0,1,79.32,598.21Z"/><path class="cls-3" d="M46.64,584.08a3.14,3.14,0,0,1,.92,2.23v8.14c0,1.75,1,2.16,2.25.94L61.19,584a8.82,8.82,0,0,0,2.26-5.41v-7.14a3.25,3.25,0,0,0-3.18-3.17H12a3.19,3.19,0,0,1-3.17-3.17V543.36A8.55,8.55,0,0,0,6.52,538L-4.24,527.59c-1.25-1.22-2.28-.78-2.28,1V580a3.11,3.11,0,0,0,1.06,2.35,3.15,3.15,0,0,0,2.12.82H44.39A3.19,3.19,0,0,1,46.64,584.08Z"/><path class="cls-3" d="M32.66,548.75a3.24,3.24,0,0,1,.89,2.77,3.14,3.14,0,0,1-.88,1.71L26.88,559c-1.23,1.24-.81,2.25.94,2.25H43.91A8.84,8.84,0,0,0,49.33,559l5-5a3.23,3.23,0,0,0,0-4.49L20.24,515.37a3.2,3.2,0,0,1-.73-3.35,3.16,3.16,0,0,1,.73-1.15L35.6,495.52a8.56,8.56,0,0,0,2.19-5.4l-.25-15c0-1.75-1.07-2.16-2.3-.93L-1.07,510.52a3.14,3.14,0,0,0-.84,1.5,3.19,3.19,0,0,0,.84,3Z"/><path class="cls-3" d="M123.6,582l-11.35-11.41a8.86,8.86,0,0,0-5.42-2.24H99.67a3.16,3.16,0,0,0-3.17,3.17v48.27A3.22,3.22,0,0,1,93.32,623H71.58a8.59,8.59,0,0,0-5.38,2.29L55.79,636c-1.21,1.26-.79,2.29,1,2.29h51.39a3.2,3.2,0,0,0,3.17-3.17V587.41a3.12,3.12,0,0,1,.78-2,3.18,3.18,0,0,1,2.4-1.13h8.18C124.41,584.23,124.84,583.22,123.6,582Z"/><path class="cls-3" d="M36.37,521.61,47.75,533a8.87,8.87,0,0,0,5.42,2.23h7.15a3.24,3.24,0,0,0,3.18-3.16V483.79a3.21,3.21,0,0,1,3.17-3.16H88.41a8.72,8.72,0,0,0,5.38-2.28l10.42-10.79c1.2-1.26.78-2.28-1-2.28H51.84a3.16,3.16,0,0,0-3.17,3.16v47.77a3.19,3.19,0,0,1-.83,2.11,3.15,3.15,0,0,1-2.35,1.06H37.3C35.55,519.38,35.13,520.37,36.37,521.61Z"/><path class="cls-3" d="M165.59,521.4a3.21,3.21,0,0,0-2.24-.93H115.6a3.19,3.19,0,0,1-3.18-3.16v-8.22c0-1.75-1-2.15-2.23-.93L98.8,519.55A8.84,8.84,0,0,0,96.56,525v7.14a3.11,3.11,0,0,0,.71,2,3.14,3.14,0,0,0,2.46,1.2H148a3.18,3.18,0,0,1,2.28,1,3.27,3.27,0,0,1,.9,2.22v21.75a8.56,8.56,0,0,0,2.28,5.37L164.24,576c1.25,1.22,2.28.78,2.28-1V523.65A3.2,3.2,0,0,0,165.59,521.4Z"/></g><rect class="cls-4" y="240.31" width="160" height="104.72"/></svg>