<svg id="Layer_1" data-name="Layer 1" xmlns="http://www.w3.org/2000/svg" viewBox="0 0 970 250"><defs><style>.cls-1{fill:#f1b533;}.cls-2{fill:#fff;}</style></defs><path class="cls-1" d="M52.43,205.05V202.7l2.78-.47V181.85l-2.73-.53V179H63.54v2.29l-2.93.53v8.57H70.82v-8.57l-2.77-.53V179H79v2.29l-2.73.53v20.39l2.73.46v2.35H68.08V202.7l2.74-.47v-9.11H60.61v9.11l2.93.47v2.35Z"/><path class="cls-1" d="M90.86,205.44a10.41,10.41,0,0,1-4.14-.75,7.42,7.42,0,0,1-2.85-2.1,8.47,8.47,0,0,1-1.65-3.2,14.58,14.58,0,0,1-.53-4.07,12.69,12.69,0,0,1,.67-4.28,9.17,9.17,0,0,1,1.91-3.21,8.24,8.24,0,0,1,3-2,10.24,10.24,0,0,1,3.83-.7q7.1,0,7.4,6.92c0,.79,0,1.5,0,2.13a10.47,10.47,0,0,1-.18,1.6H87.1a10.89,10.89,0,0,0,.5,2.89,5.55,5.55,0,0,0,1.08,1.94,3.84,3.84,0,0,0,1.58,1.1,5.65,5.65,0,0,0,2,.34,8.29,8.29,0,0,0,1.62-.14,10.47,10.47,0,0,0,1.39-.34,7.38,7.38,0,0,0,1.16-.46,8.84,8.84,0,0,0,.9-.5l.89,2.07a6.32,6.32,0,0,1-1.19.93,10.88,10.88,0,0,1-1.74.9,14.23,14.23,0,0,1-2.12.68A9.51,9.51,0,0,1,90.86,205.44Zm-.46-18.05a3.19,3.19,0,0,0-1.24.24,2.26,2.26,0,0,0-1,.91,5.48,5.48,0,0,0-.72,1.85,15.68,15.68,0,0,0-.35,3.07h6.13a2.27,2.27,0,0,1,0-.24c0-.1,0-.21,0-.32s0-.23,0-.33v-.22a13.38,13.38,0,0,0-.12-1.77,5.76,5.76,0,0,0-.44-1.6,2.94,2.94,0,0,0-.87-1.14A2.2,2.2,0,0,0,90.4,187.39Z"/><path class="cls-1" d="M100.79,199.85a5.15,5.15,0,0,1,.46-2.24,5.36,5.36,0,0,1,1.24-1.71,7.51,7.51,0,0,1,1.87-1.24,12.86,12.86,0,0,1,2.33-.85,17.85,17.85,0,0,1,2.6-.49c.9-.1,1.8-.16,2.7-.19v-.82a3.92,3.92,0,0,0-.8-2.77,3.45,3.45,0,0,0-2.6-.83,12.94,12.94,0,0,0-1.86.14c-.62.1-1.21.22-1.78.36a14.1,14.1,0,0,0-1.58.48c-.49.18-.9.34-1.24.5h0l-1-2.28a8.76,8.76,0,0,1,1.21-.77,17,17,0,0,1,2-.91,20.42,20.42,0,0,1,2.65-.77,13.49,13.49,0,0,1,3-.32,10.85,10.85,0,0,1,3.23.41,4.94,4.94,0,0,1,2.15,1.26,5.07,5.07,0,0,1,1.21,2.16,10.85,10.85,0,0,1,.39,3.09v10.66h2.12v2.1l-.81.18c-.32.08-.67.15-1.06.21s-.8.11-1.24.16a12.32,12.32,0,0,1-1.37.07,10.26,10.26,0,0,1-1.05-.05,1.6,1.6,0,0,1-.7-.24,1.08,1.08,0,0,1-.39-.54,3,3,0,0,1-.12-1v-1a6.63,6.63,0,0,1-.8.87,7.37,7.37,0,0,1-1.24.91,7.81,7.81,0,0,1-1.65.71,7.17,7.17,0,0,1-2,.28,7.66,7.66,0,0,1-2.28-.33,5.1,5.1,0,0,1-1.85-1,4.83,4.83,0,0,1-1.26-1.75A6.35,6.35,0,0,1,100.79,199.85Zm8.12,2.29a3.76,3.76,0,0,0,.7-.08,7.43,7.43,0,0,0,.82-.24,7.91,7.91,0,0,0,.84-.37A3.79,3.79,0,0,0,112,201V195.3a10.89,10.89,0,0,0-2.78.31,5.32,5.32,0,0,0-1.79.82,2.9,2.9,0,0,0-.94,1.18,3.61,3.61,0,0,0-.29,1.42,3.4,3.4,0,0,0,.7,2.32A2.52,2.52,0,0,0,108.91,202.14Z"/><path class="cls-1" d="M120.65,205.05v-2.29l2.48-.35V179.6l-2.55-.43v-2l6.69-.84h0l1.07.81v25.27l2.58.35v2.29Z"/><path class="cls-1" d="M135.14,200.94V188.37h-2.41v-2a3.25,3.25,0,0,0,.44-.15l.61-.23c.22-.08.41-.15.58-.23a1.76,1.76,0,0,0,.32-.16A5.53,5.53,0,0,0,135.9,184l.37-.8c.14-.3.27-.61.4-1s.26-.65.37-1,.21-.62.29-.88h3l0,5.06h5v2.91h-5v9.46c0,.92,0,1.64.05,2.17a4.14,4.14,0,0,0,.2,1.22.87.87,0,0,0,.51.53,2.9,2.9,0,0,0,.94.12h0a6.78,6.78,0,0,0,.87-.07l.89-.16c.29-.07.55-.13.8-.21l.6-.19h0l.81,2a8.89,8.89,0,0,1-1.26.79,12.44,12.44,0,0,1-1.64.71,13.53,13.53,0,0,1-1.9.51,10.46,10.46,0,0,1-2,.2h0a5.71,5.71,0,0,1-1.92-.29,3,3,0,0,1-1.29-.87,3.49,3.49,0,0,1-.7-1.4A7.54,7.54,0,0,1,135.14,200.94Z"/><path class="cls-1" d="M147.53,205.05v-2.29l2.11-.35V179.6l-2.57-.43v-2l6.65-.84h.09l1,.81,0,8.05-.27,2.72a10.27,10.27,0,0,1,1.15-.91,10.56,10.56,0,0,1,1.57-.88,11.15,11.15,0,0,1,1.9-.67,9.1,9.1,0,0,1,2.18-.26,7.12,7.12,0,0,1,2.77.46,3.78,3.78,0,0,1,1.73,1.42,6.34,6.34,0,0,1,.91,2.42,19.29,19.29,0,0,1,.26,3.46v9.46l2.41.35v2.29h-9.57v-2.23l1.9-.37V192.9a15.19,15.19,0,0,0-.12-2.05,3.78,3.78,0,0,0-.45-1.41,2.07,2.07,0,0,0-.92-.81,3.71,3.71,0,0,0-1.52-.26,5.27,5.27,0,0,0-1.09.12,9.15,9.15,0,0,0-1.09.29,7.81,7.81,0,0,0-1,.42,5.21,5.21,0,0,0-.77.46v12.75l2.34.35v2.29Z"/><path class="cls-1" d="M175.66,213.76c-.22,0-.47,0-.75,0s-.54,0-.8-.05l-.71-.07a1.92,1.92,0,0,1-.45-.1v-4.19a5.61,5.61,0,0,0,1,.29,8.62,8.62,0,0,0,1.79.16,5.86,5.86,0,0,0,1.12-.12,3.17,3.17,0,0,0,1.25-.6,5.81,5.81,0,0,0,1.32-1.43,12.28,12.28,0,0,0,1.3-2.58h-3.08l-6.15-16.92-1.55-.48v-2.19h9.89v2.17l-2.58.5,3.26,10.13,1.34,4.65,1.16-4.65,2.6-10.13-2.22-.5v-2.17H191v2.19l-1.57.48q-.49,1.55-1,3.36c-.37,1.2-.75,2.41-1.12,3.63l-1.11,3.59c-.37,1.16-.7,2.22-1,3.17s-.55,1.78-.77,2.45-.39,1.13-.49,1.37a17.29,17.29,0,0,1-3.42,6A6.36,6.36,0,0,1,175.66,213.76Z"/><path class="cls-1" d="M203.3,205.05v-2.29l2.1-.35V179.6l-2.56-.43v-2l6.64-.84h.09l1,.81,0,8.05-.28,2.72a9.6,9.6,0,0,1,1.16-.91,10.44,10.44,0,0,1,1.56-.88,11.27,11.27,0,0,1,1.91-.67,9,9,0,0,1,2.17-.26,7.12,7.12,0,0,1,2.77.46,3.86,3.86,0,0,1,1.74,1.42,6.34,6.34,0,0,1,.9,2.42,19.21,19.21,0,0,1,.27,3.46v9.46l2.41.35v2.29h-9.57v-2.23l1.89-.37V192.9a17.23,17.23,0,0,0-.11-2.05,3.77,3.77,0,0,0-.46-1.41,2.07,2.07,0,0,0-.92-.81,3.66,3.66,0,0,0-1.51-.26,5.29,5.29,0,0,0-1.1.12,9.52,9.52,0,0,0-1.08.29,6.72,6.72,0,0,0-1,.42,4.73,4.73,0,0,0-.77.46v12.75l2.34.35v2.29Z"/><path class="cls-1" d="M236.25,205.44a10.43,10.43,0,0,1-4.15-.75,7.49,7.49,0,0,1-2.85-2.1,8.47,8.47,0,0,1-1.65-3.2,15,15,0,0,1-.53-4.07,12.69,12.69,0,0,1,.67-4.28,9.17,9.17,0,0,1,1.91-3.21,8.28,8.28,0,0,1,3-2,10.19,10.19,0,0,1,3.82-.7q7.09,0,7.4,6.92,0,1.18,0,2.13a10.47,10.47,0,0,1-.18,1.6H232.49a10.52,10.52,0,0,0,.49,2.89,5.88,5.88,0,0,0,1.08,1.94,3.84,3.84,0,0,0,1.58,1.1,5.65,5.65,0,0,0,2,.34,8.29,8.29,0,0,0,1.62-.14,10.1,10.1,0,0,0,1.39-.34,7.92,7.92,0,0,0,1.17-.46,9.79,9.79,0,0,0,.89-.5l.89,2.07a6.22,6.22,0,0,1-1.18.93,10.59,10.59,0,0,1-1.75.9,13.86,13.86,0,0,1-2.12.68A9.48,9.48,0,0,1,236.25,205.44Zm-.46-18.05a3.15,3.15,0,0,0-1.24.24,2.23,2.23,0,0,0-1,.91,5.94,5.94,0,0,0-.72,1.85,16.49,16.49,0,0,0-.35,3.07h6.14v-.24c0-.1,0-.21,0-.32s0-.23,0-.33v-.22a13.38,13.38,0,0,0-.12-1.77,5.76,5.76,0,0,0-.44-1.6,2.94,2.94,0,0,0-.87-1.14A2.18,2.18,0,0,0,235.79,187.39Z"/><path class="cls-1" d="M246.18,199.85a5.3,5.3,0,0,1,.45-2.24,5.39,5.39,0,0,1,1.25-1.71,7.33,7.33,0,0,1,1.87-1.24,12.75,12.75,0,0,1,2.32-.85,17.85,17.85,0,0,1,2.6-.49c.9-.1,1.8-.16,2.7-.19v-.82a3.92,3.92,0,0,0-.79-2.77,3.47,3.47,0,0,0-2.61-.83,12.8,12.8,0,0,0-1.85.14c-.63.1-1.22.22-1.79.36a14.1,14.1,0,0,0-1.58.48c-.49.18-.9.34-1.24.5h0l-1-2.28a9,9,0,0,1,1.22-.77,16.31,16.31,0,0,1,2.05-.91,20.42,20.42,0,0,1,2.65-.77,13.43,13.43,0,0,1,3-.32,10.78,10.78,0,0,1,3.22.41,4.94,4.94,0,0,1,2.15,1.26A5.09,5.09,0,0,1,262,189a11.25,11.25,0,0,1,.38,3.09v10.66h2.12v2.1l-.8.18c-.32.08-.68.15-1.06.21s-.81.11-1.25.16a12.19,12.19,0,0,1-1.37.07,10.26,10.26,0,0,1-1.05-.05,1.65,1.65,0,0,1-.7-.24,1.07,1.07,0,0,1-.38-.54,3,3,0,0,1-.12-1v-1a6.79,6.79,0,0,1-.81.87,7,7,0,0,1-1.24.91,7.81,7.81,0,0,1-1.65.71,7.17,7.17,0,0,1-2,.28,7.6,7.6,0,0,1-2.27-.33,5.07,5.07,0,0,1-1.86-1,4.81,4.81,0,0,1-1.25-1.75A6.18,6.18,0,0,1,246.18,199.85Zm8.11,2.29a4,4,0,0,0,.71-.08,8.12,8.12,0,0,0,.82-.24,8.75,8.75,0,0,0,.83-.37,3.25,3.25,0,0,0,.72-.49V195.3a10.94,10.94,0,0,0-2.78.31,5.27,5.27,0,0,0-1.78.82,2.93,2.93,0,0,0-.95,1.18,3.6,3.6,0,0,0-.28,1.42,3.46,3.46,0,0,0,.69,2.32A2.54,2.54,0,0,0,254.29,202.14Z"/><path class="cls-1" d="M266.56,205.05v-2.29l2.47-.33V189.27l-2.33-.72V186l5.85-.83h.1l.9.73V190h.07a6.86,6.86,0,0,1,.74-1.38,9.7,9.7,0,0,1,1.33-1.61,8,8,0,0,1,1.83-1.33,4.69,4.69,0,0,1,2.25-.56,5.41,5.41,0,0,1,.81,0,2.33,2.33,0,0,1,.47.11v5.91a3.31,3.31,0,0,0-1-.3,9.45,9.45,0,0,0-1.89-.16,9.66,9.66,0,0,0-1.2.07,9,9,0,0,0-1.12.18,6.51,6.51,0,0,0-.93.26,3.69,3.69,0,0,0-.63.31v10.9l4.25.41v2.23Z"/><path class="cls-1" d="M285.16,200.94V188.37h-2.41v-2a3.25,3.25,0,0,0,.43-.15l.62-.23c.21-.08.4-.15.57-.23a2.56,2.56,0,0,0,.33-.16,5.53,5.53,0,0,0,1.21-1.64c.11-.23.24-.49.38-.8s.27-.61.4-1,.25-.65.36-1,.22-.62.3-.88h3l.05,5.06h5v2.91h-5v9.46c0,.92,0,1.64,0,2.17a4.09,4.09,0,0,0,.21,1.22.83.83,0,0,0,.5.53,2.94,2.94,0,0,0,.94.12h0a6.63,6.63,0,0,0,.86-.07l.89-.16c.29-.07.56-.13.8-.21l.61-.19h0l.8,2a7.87,7.87,0,0,1-1.26.79,11.89,11.89,0,0,1-1.64.71,13.77,13.77,0,0,1-1.89.51,10.54,10.54,0,0,1-2,.2h0a5.71,5.71,0,0,1-1.92-.29,3,3,0,0,1-1.28-.87,3.5,3.5,0,0,1-.71-1.4A7.56,7.56,0,0,1,285.16,200.94Z"/><path class="cls-1" d="M298.25,204v-4.8h3.14l.89,2.67a2,2,0,0,0,.47.44,3.3,3.3,0,0,0,.75.39,5.83,5.83,0,0,0,1,.29,6,6,0,0,0,1.14.11,3.84,3.84,0,0,0,1.39-.21,2.61,2.61,0,0,0,.87-.52,1.7,1.7,0,0,0,.44-.72,2.74,2.74,0,0,0,.12-.78,2,2,0,0,0-.37-1.23,3.6,3.6,0,0,0-1-1,11.61,11.61,0,0,0-1.63-.85l-2.12-.89a14,14,0,0,1-2.12-1.06,7.6,7.6,0,0,1-1.6-1.33,5.33,5.33,0,0,1-1.37-3.67,4.93,4.93,0,0,1,2-4.05,7.62,7.62,0,0,1,2.46-1.19,12,12,0,0,1,3.4-.44,13.39,13.39,0,0,1,2,.14c.58.09,1.12.2,1.6.32s.91.24,1.31.37a9.46,9.46,0,0,0,1.16.3V191l-3-.05-.8-2.28a2.41,2.41,0,0,0-.91-.76,3.64,3.64,0,0,0-1.69-.38,4.34,4.34,0,0,0-1.29.17,2.24,2.24,0,0,0-.84.46,1.79,1.79,0,0,0-.45.64,2,2,0,0,0-.14.71,2.3,2.3,0,0,0,.46,1.46,4.08,4.08,0,0,0,1.16,1,10.38,10.38,0,0,0,1.54.69c.56.2,1.09.41,1.59.64q1.13.49,2.16,1a9,9,0,0,1,1.82,1.29,5.66,5.66,0,0,1,1.26,1.7,5.27,5.27,0,0,1,.47,2.3,5.41,5.41,0,0,1-.49,2.31,5,5,0,0,1-1.47,1.84,6.93,6.93,0,0,1-2.46,1.23,11.9,11.9,0,0,1-3.46.45,14.5,14.5,0,0,1-2.47-.19c-.74-.13-1.42-.27-2-.43s-1.15-.33-1.63-.5A11.39,11.39,0,0,0,298.25,204Z"/><path class="cls-2" d="M327.61,204v-4.8h3.14l.89,2.67a2.26,2.26,0,0,0,.47.44,3.3,3.3,0,0,0,.75.39,6.11,6.11,0,0,0,1,.29,6,6,0,0,0,1.14.11,3.84,3.84,0,0,0,1.39-.21,2.61,2.61,0,0,0,.87-.52,1.7,1.7,0,0,0,.44-.72,2.74,2.74,0,0,0,.12-.78,2,2,0,0,0-.37-1.23,3.6,3.6,0,0,0-1-1,11.61,11.61,0,0,0-1.63-.85l-2.12-.89a14.45,14.45,0,0,1-2.12-1.06,7.86,7.86,0,0,1-1.6-1.33,5.68,5.68,0,0,1-1-1.64,5.44,5.44,0,0,1-.36-2,4.93,4.93,0,0,1,2-4.05,7.62,7.62,0,0,1,2.46-1.19,12,12,0,0,1,3.4-.44,13.39,13.39,0,0,1,2,.14c.58.09,1.12.2,1.6.32s.91.24,1.31.37a9.46,9.46,0,0,0,1.16.3V191l-3-.05-.8-2.28a2.41,2.41,0,0,0-.91-.76,3.64,3.64,0,0,0-1.69-.38,4.34,4.34,0,0,0-1.29.17,2.24,2.24,0,0,0-.84.46,1.79,1.79,0,0,0-.45.64,2,2,0,0,0-.14.71,2.3,2.3,0,0,0,.46,1.46,4,4,0,0,0,1.17,1,9.81,9.81,0,0,0,1.53.69c.56.2,1.09.41,1.59.64q1.13.49,2.16,1a9,9,0,0,1,1.82,1.29,5.66,5.66,0,0,1,1.26,1.7,5.27,5.27,0,0,1,.47,2.3,5.41,5.41,0,0,1-.49,2.31,5,5,0,0,1-1.47,1.84,6.93,6.93,0,0,1-2.46,1.23,11.9,11.9,0,0,1-3.46.45,14.5,14.5,0,0,1-2.47-.19c-.74-.13-1.42-.27-2-.43s-1.15-.33-1.63-.5A11.39,11.39,0,0,0,327.61,204Z"/><path class="cls-2" d="M347.43,200.94V188.37H345v-2a3.25,3.25,0,0,0,.44-.15l.61-.23c.22-.08.41-.15.58-.23a1.76,1.76,0,0,0,.32-.16,5.53,5.53,0,0,0,1.22-1.64l.37-.8c.14-.3.27-.61.4-1s.26-.65.37-1,.21-.62.29-.88h3l0,5.06h5v2.91h-5v9.46c0,.92,0,1.64.05,2.17a4.14,4.14,0,0,0,.2,1.22.87.87,0,0,0,.51.53,2.9,2.9,0,0,0,.94.12h0a6.78,6.78,0,0,0,.87-.07l.88-.16c.29-.07.56-.13.81-.21l.6-.19h0l.8,2a8.21,8.21,0,0,1-1.25.79,12.44,12.44,0,0,1-1.64.71,13.53,13.53,0,0,1-1.9.51,10.46,10.46,0,0,1-2,.2h0a5.71,5.71,0,0,1-1.92-.29,3,3,0,0,1-1.29-.87,3.49,3.49,0,0,1-.7-1.4A7.54,7.54,0,0,1,347.43,200.94Z"/><path class="cls-2" d="M359.67,199.85a5.3,5.3,0,0,1,.45-2.24,5.39,5.39,0,0,1,1.25-1.71,7.33,7.33,0,0,1,1.87-1.24,12.59,12.59,0,0,1,2.33-.85,17.71,17.71,0,0,1,2.59-.49c.9-.1,1.8-.16,2.7-.19v-.82a3.92,3.92,0,0,0-.79-2.77,3.47,3.47,0,0,0-2.61-.83,12.91,12.91,0,0,0-1.85.14c-.62.1-1.22.22-1.79.36a14.77,14.77,0,0,0-1.58.48c-.48.18-.9.34-1.24.5h0l-1-2.28a8.76,8.76,0,0,1,1.21-.77,16.31,16.31,0,0,1,2.05-.91,20.42,20.42,0,0,1,2.65-.77,13.49,13.49,0,0,1,3-.32,10.73,10.73,0,0,1,3.22.41,5,5,0,0,1,2.16,1.26,5.18,5.18,0,0,1,1.21,2.16,10.88,10.88,0,0,1,.38,3.09v10.66H378v2.1l-.8.18c-.32.08-.67.15-1.06.21s-.8.11-1.25.16a12.14,12.14,0,0,1-1.36.07,10.47,10.47,0,0,1-1.06-.05,1.65,1.65,0,0,1-.7-.24,1.13,1.13,0,0,1-.38-.54,3,3,0,0,1-.12-1v-1a6.63,6.63,0,0,1-.8.87,7.8,7.8,0,0,1-1.24.91,8.28,8.28,0,0,1-1.65.71,7.29,7.29,0,0,1-2,.28,7.64,7.64,0,0,1-2.27-.33,5.1,5.1,0,0,1-1.85-1,4.83,4.83,0,0,1-1.26-1.75A6.18,6.18,0,0,1,359.67,199.85Zm8.12,2.29a3.85,3.85,0,0,0,.7-.08,8.12,8.12,0,0,0,.82-.24c.28-.11.56-.23.84-.37a3.42,3.42,0,0,0,.71-.49V195.3a10.8,10.8,0,0,0-2.77.31,5.32,5.32,0,0,0-1.79.82,3,3,0,0,0-.95,1.18,3.6,3.6,0,0,0-.28,1.42,3.46,3.46,0,0,0,.69,2.32A2.54,2.54,0,0,0,367.79,202.14Z"/><path class="cls-2" d="M380.06,205.05v-2.29l2.46-.33V189.27l-2.32-.72V186l5.84-.83h.1l.91.73v1.42l0,2.67h.07a7.41,7.41,0,0,1,.74-1.38,9.78,9.78,0,0,1,1.34-1.61,8.12,8.12,0,0,1,1.82-1.33,4.69,4.69,0,0,1,2.25-.56,5.31,5.31,0,0,1,.81,0,2.18,2.18,0,0,1,.47.11v5.91a3.2,3.2,0,0,0-1-.3,10.79,10.79,0,0,0-3.08-.09,8.75,8.75,0,0,0-1.12.18,6.16,6.16,0,0,0-.93.26,3.49,3.49,0,0,0-.64.31v10.9l4.26.41v2.23Z"/><path class="cls-2" d="M398.65,200.94V188.37h-2.41v-2a3.25,3.25,0,0,0,.44-.15l.61-.23c.21-.08.41-.15.58-.23a2.22,2.22,0,0,0,.32-.16A5.37,5.37,0,0,0,399.4,184c.12-.23.24-.49.38-.8s.27-.61.4-1,.25-.65.37-1,.21-.62.29-.88h3l.05,5.06h5v2.91h-5v9.46c0,.92,0,1.64.05,2.17a3.83,3.83,0,0,0,.2,1.22.88.88,0,0,0,.5.53,3,3,0,0,0,.94.12h0a6.49,6.49,0,0,0,.86-.07l.89-.16c.29-.07.56-.13.81-.21l.6-.19h0l.8,2a8.21,8.21,0,0,1-1.25.79,12.44,12.44,0,0,1-1.64.71,13.53,13.53,0,0,1-1.9.51,10.54,10.54,0,0,1-2,.2h0a5.66,5.66,0,0,1-1.92-.29,3,3,0,0,1-1.29-.87,3.63,3.63,0,0,1-.71-1.4A8,8,0,0,1,398.65,200.94Z"/><path class="cls-2" d="M422,205.05v-2.29l2.1-.35V179.6l-2.56-.43v-2l6.65-.84h.08l1,.81,0,8.05-.27,2.72a9.43,9.43,0,0,1,1.15-.91,10.44,10.44,0,0,1,1.56-.88,11.27,11.27,0,0,1,1.91-.67,9,9,0,0,1,2.18-.26,7.16,7.16,0,0,1,2.77.46,3.83,3.83,0,0,1,1.73,1.42,6.34,6.34,0,0,1,.91,2.42,20.26,20.26,0,0,1,.26,3.46v9.46l2.41.35v2.29h-9.57v-2.23l1.9-.37V192.9a15.19,15.19,0,0,0-.12-2.05,3.78,3.78,0,0,0-.45-1.41,2.1,2.1,0,0,0-.93-.81,3.66,3.66,0,0,0-1.51-.26,5.2,5.2,0,0,0-1.09.12,9.15,9.15,0,0,0-1.09.29,7.22,7.22,0,0,0-1,.42,4.73,4.73,0,0,0-.77.46v12.75l2.34.35v2.29Z"/><path class="cls-2" d="M455,205.44a10.35,10.35,0,0,1-4.14-.75,7.53,7.53,0,0,1-2.86-2.1,8.76,8.76,0,0,1-1.65-3.2,15,15,0,0,1-.53-4.07,12.69,12.69,0,0,1,.68-4.28,9.15,9.15,0,0,1,1.9-3.21,8.28,8.28,0,0,1,3-2,10.24,10.24,0,0,1,3.83-.7q7.09,0,7.4,6.92c0,.79,0,1.5,0,2.13a10.47,10.47,0,0,1-.18,1.6H451.22a10.5,10.5,0,0,0,.5,2.89,5.7,5.7,0,0,0,1.07,1.94,3.91,3.91,0,0,0,1.58,1.1,5.65,5.65,0,0,0,2,.34,8.29,8.29,0,0,0,1.62-.14,10.26,10.26,0,0,0,1.4-.34,7.79,7.79,0,0,0,1.16-.46,8.84,8.84,0,0,0,.9-.5l.89,2.07a6.32,6.32,0,0,1-1.19.93,10.88,10.88,0,0,1-1.74.9,14.61,14.61,0,0,1-2.12.68A9.51,9.51,0,0,1,455,205.44Zm-.46-18.05a3.15,3.15,0,0,0-1.24.24,2.28,2.28,0,0,0-1,.91,5.94,5.94,0,0,0-.72,1.85,17.39,17.39,0,0,0-.35,3.07h6.14a2.27,2.27,0,0,1,0-.24c0-.1,0-.21,0-.32s0-.23,0-.33v-.22a13.38,13.38,0,0,0-.12-1.77,5.76,5.76,0,0,0-.43-1.6,2.94,2.94,0,0,0-.87-1.14A2.2,2.2,0,0,0,454.52,187.39Z"/><path class="cls-2" d="M465.35,205.05v-2.29l2.46-.33V189.27l-2.32-.72V186l5.84-.83h.11l.9.73V190h.06a7.56,7.56,0,0,1,.75-1.38,9.7,9.7,0,0,1,1.33-1.61,8,8,0,0,1,1.83-1.33,4.69,4.69,0,0,1,2.25-.56,5.41,5.41,0,0,1,.81,0,2.33,2.33,0,0,1,.47.11v5.91a3.31,3.31,0,0,0-1-.3,9.45,9.45,0,0,0-1.89-.16,9.66,9.66,0,0,0-1.2.07,9,9,0,0,0-1.12.18,6.16,6.16,0,0,0-.93.26,3.69,3.69,0,0,0-.63.31v10.9l4.25.41v2.23Z"/><path class="cls-2" d="M491,205.44a10.41,10.41,0,0,1-4.14-.75,7.42,7.42,0,0,1-2.85-2.1,8.47,8.47,0,0,1-1.65-3.2,14.58,14.58,0,0,1-.53-4.07,12.69,12.69,0,0,1,.67-4.28,9.17,9.17,0,0,1,1.91-3.21,8.24,8.24,0,0,1,2.95-2,10.24,10.24,0,0,1,3.83-.7q7.1,0,7.4,6.92c0,.79,0,1.5,0,2.13a10.47,10.47,0,0,1-.18,1.6H487.19a10.89,10.89,0,0,0,.5,2.89,5.55,5.55,0,0,0,1.08,1.94,3.84,3.84,0,0,0,1.58,1.1,5.65,5.65,0,0,0,2,.34,8.29,8.29,0,0,0,1.62-.14,10.47,10.47,0,0,0,1.39-.34,7.38,7.38,0,0,0,1.16-.46,8.84,8.84,0,0,0,.9-.5l.89,2.07a6.32,6.32,0,0,1-1.19.93,10.88,10.88,0,0,1-1.74.9,14.23,14.23,0,0,1-2.12.68A9.51,9.51,0,0,1,491,205.44Zm-.46-18.05a3.19,3.19,0,0,0-1.24.24,2.26,2.26,0,0,0-1,.91,5.48,5.48,0,0,0-.72,1.85,15.68,15.68,0,0,0-.35,3.07h6.13a2.27,2.27,0,0,1,0-.24c0-.1,0-.21,0-.32s0-.23,0-.33v-.22a13.38,13.38,0,0,0-.12-1.77,5.76,5.76,0,0,0-.44-1.6,2.94,2.94,0,0,0-.87-1.14A2.2,2.2,0,0,0,490.49,187.39Z"/><path class="cls-2" d="M505.67,205.34a3.7,3.7,0,0,1-1.15-.19,2.89,2.89,0,0,1-.95-.55,2.61,2.61,0,0,1-.65-.86,2.64,2.64,0,0,1-.24-1.14,3,3,0,0,1,.27-1.29,3.18,3.18,0,0,1,.75-1,3.35,3.35,0,0,1,1.11-.69,3.63,3.63,0,0,1,1.35-.25,3.92,3.92,0,0,1,1.42.22,2.58,2.58,0,0,1,.95.6,2.18,2.18,0,0,1,.53.87,3.32,3.32,0,0,1,.16,1.06,3.36,3.36,0,0,1-.26,1.33,3,3,0,0,1-.74,1,3.46,3.46,0,0,1-1.12.66A4.42,4.42,0,0,1,505.67,205.34Z"/></svg>