<svg id="Layer_1" data-name="Layer 1" xmlns="http://www.w3.org/2000/svg" viewBox="0 0 300 600"><defs><style>.cls-1{fill:#fff;}.cls-2{fill:#f1b533;}</style></defs><path class="cls-1" d="M39.59,496.48a15.15,15.15,0,0,1-2.51-.19c-.76-.13-1.46-.28-2.07-.44s-1.14-.31-1.58-.46a5,5,0,0,0-1-.24l.25-5.55h2.64l.64,3.63a3.39,3.39,0,0,0,1.28.79,5.61,5.61,0,0,0,2.18.37,5.54,5.54,0,0,0,1.74-.24,3,3,0,0,0,1.17-.68,2.49,2.49,0,0,0,.64-1,3.85,3.85,0,0,0,.2-1.25,2.84,2.84,0,0,0-.34-1.4,4.27,4.27,0,0,0-1-1.17,9.19,9.19,0,0,0-1.54-1.06c-.61-.33-1.29-.69-2-1.06a20.34,20.34,0,0,1-1.87-1,8.61,8.61,0,0,1-1.82-1.44,7.57,7.57,0,0,1-1.4-2,6,6,0,0,1-.55-2.65,5.33,5.33,0,0,1,.49-2.27,5,5,0,0,1,1.46-1.87A7.37,7.37,0,0,1,37,474a10.77,10.77,0,0,1,3.32-.47,12.81,12.81,0,0,1,2,.15q1,.15,1.8.33c.56.12,1,.24,1.48.36a9.52,9.52,0,0,0,1,.23l-.19,5.06H43.74l-.6-3.33a1.31,1.31,0,0,0-.39-.27,4.81,4.81,0,0,0-.63-.26,7.43,7.43,0,0,0-.78-.19,6.25,6.25,0,0,0-.87-.07,5.4,5.4,0,0,0-1.55.2,2.76,2.76,0,0,0-1.05.56,2.32,2.32,0,0,0-.59.87,3.2,3.2,0,0,0,.19,2.6,4.53,4.53,0,0,0,1.06,1.2,11.07,11.07,0,0,0,1.62,1.05c.63.34,1.31.69,2.05,1.06s1.31.69,2,1.1a10.58,10.58,0,0,1,1.85,1.4,6.67,6.67,0,0,1,1.36,1.8,4.92,4.92,0,0,1,.53,2.31,6.72,6.72,0,0,1-.46,2.36A6,6,0,0,1,46,494.27a7.32,7.32,0,0,1-2.58,1.6A10.59,10.59,0,0,1,39.59,496.48Z"/><path class="cls-1" d="M49.75,491.69a4.58,4.58,0,0,1,.38-1.91,4.71,4.71,0,0,1,1.07-1.47,6.36,6.36,0,0,1,1.61-1.07,11.68,11.68,0,0,1,2-.72A15.45,15.45,0,0,1,57,486.1c.77-.09,1.54-.14,2.31-.16v-.71a3.42,3.42,0,0,0-.68-2.38,3,3,0,0,0-2.23-.71,10.65,10.65,0,0,0-1.59.13,13.34,13.34,0,0,0-1.53.31A11.5,11.5,0,0,0,52,483c-.41.15-.77.29-1.06.43h0l-.86-2a6.91,6.91,0,0,1,1-.66,13.65,13.65,0,0,1,1.76-.78,18.71,18.71,0,0,1,2.27-.66,11.41,11.41,0,0,1,2.56-.28,9.51,9.51,0,0,1,2.76.35,4.36,4.36,0,0,1,1.85,1.09,4.41,4.41,0,0,1,1,1.85,9.42,9.42,0,0,1,.33,2.64v9.15h1.81V496l-.68.15-.91.18-1.07.14c-.38,0-.77.05-1.17.05a7.82,7.82,0,0,1-.9,0,1.37,1.37,0,0,1-.6-.2.85.85,0,0,1-.33-.47,2.51,2.51,0,0,1-.11-.81v-.85a5,5,0,0,1-.69.75,5.69,5.69,0,0,1-1.06.77,6.09,6.09,0,0,1-3.15.85,6.76,6.76,0,0,1-1.95-.27,4.39,4.39,0,0,1-1.59-.87,4.12,4.12,0,0,1-1.08-1.49A5.48,5.48,0,0,1,49.75,491.69Zm7,2a2.76,2.76,0,0,0,.6-.08,4.25,4.25,0,0,0,.71-.2,5.67,5.67,0,0,0,.72-.32,3.09,3.09,0,0,0,.61-.41V487.8a9.39,9.39,0,0,0-2.38.26,4.54,4.54,0,0,0-1.53.7,2.52,2.52,0,0,0-.81,1,3.07,3.07,0,0,0-.24,1.21,2.94,2.94,0,0,0,.59,2A2.17,2.17,0,0,0,56.7,493.66Z"/><path class="cls-1" d="M67,496.15v-1.94l2.34-.39V482H66.75v-1.76l2.58-.73v-.85a6.77,6.77,0,0,1,.72-3.13,8,8,0,0,1,1.84-2.38,8.5,8.5,0,0,1,2.52-1.5,7.53,7.53,0,0,1,2.74-.53,5.25,5.25,0,0,1,1.13.09,3.89,3.89,0,0,1,.59.16v4.38a2.53,2.53,0,0,0-.54-.41,5,5,0,0,0-.77-.35,6.31,6.31,0,0,0-.93-.25,5,5,0,0,0-1-.11,2.63,2.63,0,0,0-.72.09,1.22,1.22,0,0,0-.55.32,1.44,1.44,0,0,0-.35.61,3.08,3.08,0,0,0-.13,1l0,2.87h3.76V482H73.89v11.9l3.25.3v1.94Z"/><path class="cls-1" d="M87.2,496.48a8.9,8.9,0,0,1-3.55-.64,6.57,6.57,0,0,1-2.45-1.79,7.4,7.4,0,0,1-1.41-2.75,12.87,12.87,0,0,1-.45-3.49,11,11,0,0,1,.57-3.67,7.87,7.87,0,0,1,1.64-2.75,7,7,0,0,1,2.53-1.74,8.67,8.67,0,0,1,3.28-.6q6.09,0,6.35,5.94c0,.67,0,1.28,0,1.82a9.08,9.08,0,0,1-.16,1.37H84a9.24,9.24,0,0,0,.42,2.47,4.92,4.92,0,0,0,.93,1.67,3.31,3.31,0,0,0,1.35.94,4.78,4.78,0,0,0,1.72.29,7.53,7.53,0,0,0,1.39-.11,9.56,9.56,0,0,0,1.2-.3,5.67,5.67,0,0,0,1-.39,7.35,7.35,0,0,0,.77-.43l.77,1.78a6.36,6.36,0,0,1-1,.8,10.48,10.48,0,0,1-1.5.76,11.63,11.63,0,0,1-1.81.59A8.27,8.27,0,0,1,87.2,496.48ZM86.81,481a2.72,2.72,0,0,0-1.07.2,2,2,0,0,0-.86.78,5,5,0,0,0-.61,1.59,13.17,13.17,0,0,0-.31,2.63h5.26c0-.05,0-.12,0-.21s0-.18,0-.28v-.47a11.15,11.15,0,0,0-.1-1.51,5,5,0,0,0-.37-1.37,2.55,2.55,0,0,0-.75-1A1.87,1.87,0,0,0,86.81,481Z"/><path class="cls-1" d="M97.69,492.63V481.85H95.62v-1.67l.38-.12.53-.2.49-.2a1.19,1.19,0,0,0,.27-.14,4.39,4.39,0,0,0,1-1.4l.33-.69c.11-.25.23-.53.34-.81s.22-.56.32-.84.18-.53.25-.76h2.6l0,4.34h4.3v2.49h-4.3V490q0,1.17,0,1.86a3.78,3.78,0,0,0,.18,1,.74.74,0,0,0,.43.45,2.54,2.54,0,0,0,.81.1h0a4.81,4.81,0,0,0,.74-.06c.26,0,.51-.08.76-.13l.69-.18.52-.17h0l.68,1.71a7.66,7.66,0,0,1-1.07.68,11.49,11.49,0,0,1-1.41.61,12.77,12.77,0,0,1-1.62.44,9.21,9.21,0,0,1-1.73.16h0a5,5,0,0,1-1.65-.24,2.64,2.64,0,0,1-1.1-.74,3.07,3.07,0,0,1-.61-1.21A6.37,6.37,0,0,1,97.69,492.63Z"/><path class="cls-1" d="M112,503.62l-.64,0-.69,0-.61-.07a1.72,1.72,0,0,1-.39-.08v-3.59a5.34,5.34,0,0,0,.87.25,7.67,7.67,0,0,0,1.53.14,4.79,4.79,0,0,0,1-.11,2.78,2.78,0,0,0,1.08-.51,5.22,5.22,0,0,0,1.13-1.22,10.6,10.6,0,0,0,1.11-2.22h-2.63l-5.28-14.5-1.33-.41v-1.88h8.48v1.86l-2.21.43,2.8,8.68,1.14,4,1-4,2.23-8.68-1.9-.43v-1.86h6.47v1.88l-1.35.41c-.28.88-.58,1.84-.9,2.87s-.63,2.07-1,3.12-.64,2.08-1,3.07-.59,1.91-.85,2.73-.47,1.52-.66,2.09-.33,1-.42,1.17a14.79,14.79,0,0,1-2.93,5.15A5.44,5.44,0,0,1,112,503.62Z"/><path class="cls-1" d="M135.59,491.69a4.43,4.43,0,0,1,.38-1.91,4.71,4.71,0,0,1,1.07-1.47,6.36,6.36,0,0,1,1.61-1.07,11.68,11.68,0,0,1,2-.72,15.45,15.45,0,0,1,2.23-.42c.77-.09,1.54-.14,2.31-.16v-.71a3.42,3.42,0,0,0-.68-2.38,3,3,0,0,0-2.23-.71,10.65,10.65,0,0,0-1.59.13,13.34,13.34,0,0,0-1.53.31,11.5,11.5,0,0,0-1.36.41c-.41.15-.77.29-1.06.43h0l-.86-2a6.91,6.91,0,0,1,1-.66,13.65,13.65,0,0,1,1.76-.78,18.71,18.71,0,0,1,2.27-.66,11.41,11.41,0,0,1,2.56-.28,9.51,9.51,0,0,1,2.76.35,4.36,4.36,0,0,1,1.85,1.09,4.41,4.41,0,0,1,1,1.85,9.42,9.42,0,0,1,.33,2.64v9.15h1.81V496l-.68.15-.91.18-1.07.14c-.38,0-.77.05-1.17.05a7.71,7.71,0,0,1-.9,0,1.37,1.37,0,0,1-.6-.2.85.85,0,0,1-.33-.47,2.51,2.51,0,0,1-.11-.81v-.85a5,5,0,0,1-.69.75,5.69,5.69,0,0,1-1.06.77,6.09,6.09,0,0,1-3.15.85,6.76,6.76,0,0,1-1.95-.27,4.39,4.39,0,0,1-1.59-.87,4.12,4.12,0,0,1-1.08-1.49A5.48,5.48,0,0,1,135.59,491.69Zm6.95,2a2.76,2.76,0,0,0,.6-.08,4.25,4.25,0,0,0,.71-.2,5.67,5.67,0,0,0,.72-.32,3.42,3.42,0,0,0,.61-.41V487.8a9.39,9.39,0,0,0-2.38.26,4.54,4.54,0,0,0-1.53.7,2.52,2.52,0,0,0-.81,1,3.38,3.38,0,0,0,.35,3.2A2.17,2.17,0,0,0,142.54,493.66Z"/><path class="cls-1" d="M153.16,496.15v-2l1.89-.29V482.63l-2-.62V479.8l5.25-.72h.07l.78.63v1.75a7.73,7.73,0,0,1,1.14-.87,9.64,9.64,0,0,1,1.43-.75,11.65,11.65,0,0,1,1.61-.52,7.68,7.68,0,0,1,1.72-.19,6.64,6.64,0,0,1,2.35.36,3.24,3.24,0,0,1,1.5,1.17,5.26,5.26,0,0,1,.79,2.08,16.61,16.61,0,0,1,.24,3.05v8.12l2.08.27v2h-8.25v-2l1.6-.27v-8.18a12.68,12.68,0,0,0-.11-1.75,3.26,3.26,0,0,0-.37-1.21,1.67,1.67,0,0,0-.75-.69,2.82,2.82,0,0,0-1.22-.23,4.6,4.6,0,0,0-1,.11,5.48,5.48,0,0,0-.92.29,5.26,5.26,0,0,0-.79.38c-.24.15-.44.29-.62.42v10.84l2,.29v2Z"/><path class="cls-1" d="M180,496.47a6.53,6.53,0,0,1-2.54-.49,5.5,5.5,0,0,1-2.06-1.52,7.35,7.35,0,0,1-1.37-2.58,12.24,12.24,0,0,1-.5-3.69,11.14,11.14,0,0,1,.59-3.68,8.29,8.29,0,0,1,1.72-2.89,7.62,7.62,0,0,1,2.73-1.9,9.17,9.17,0,0,1,3.65-.68,11.56,11.56,0,0,1,1.19.06,9.88,9.88,0,0,1,1.11.17v-5l-2.68-.45v-1.67l6.19-.63h.07l.91.69v21.88h1.63V496l-1.67.34a10.94,10.94,0,0,1-2,.18,2.19,2.19,0,0,1-1.39-.39,1.72,1.72,0,0,1-.5-1.44v-.57a6.68,6.68,0,0,1-.87.9,6.4,6.4,0,0,1-1.15.77,6.91,6.91,0,0,1-1.39.52A6.42,6.42,0,0,1,180,496.47Zm1.86-2.65a3.51,3.51,0,0,0,1.59-.34,3.27,3.27,0,0,0,1.07-.76V481.67a2.13,2.13,0,0,0-.82-.46,4,4,0,0,0-1.37-.21,3.35,3.35,0,0,0-1.49.34,3.07,3.07,0,0,0-1.23,1.11,6.49,6.49,0,0,0-.84,2.06,14.4,14.4,0,0,0-.35,3.16,12.92,12.92,0,0,0,.21,2.8,5.83,5.83,0,0,0,.68,1.91,2.74,2.74,0,0,0,1.1,1.09A3,3,0,0,0,181.9,493.82Z"/><path class="cls-1" d="M202.06,496.15v-2l1.8-.29V474.34l-2.19-.37v-1.71l5.69-.72h.08l.89.69,0,6.9-.24,2.33a9,9,0,0,1,1-.78,10,10,0,0,1,1.34-.76,10.51,10.51,0,0,1,1.64-.57,7.55,7.55,0,0,1,1.87-.22,6.25,6.25,0,0,1,2.37.39,3.37,3.37,0,0,1,1.49,1.22,5.49,5.49,0,0,1,.77,2.07,17,17,0,0,1,.23,3v8.11l2.06.29v2h-8.2v-1.91l1.63-.32v-8.19a12.68,12.68,0,0,0-.11-1.75,3.08,3.08,0,0,0-.38-1.21,1.74,1.74,0,0,0-.8-.69,3.14,3.14,0,0,0-1.29-.23,4.42,4.42,0,0,0-.94.1,9.07,9.07,0,0,0-.93.26,6.41,6.41,0,0,0-.84.35,4.24,4.24,0,0,0-.66.4v10.93l2,.29v2Z"/><path class="cls-1" d="M230.3,496.48a8.9,8.9,0,0,1-3.55-.64,6.57,6.57,0,0,1-2.45-1.79,7.4,7.4,0,0,1-1.41-2.75,12.87,12.87,0,0,1-.45-3.49,11,11,0,0,1,.57-3.67,8,8,0,0,1,1.64-2.75,7,7,0,0,1,2.53-1.74,8.67,8.67,0,0,1,3.28-.6q6.09,0,6.35,5.94c0,.67,0,1.28,0,1.82a10.79,10.79,0,0,1-.15,1.37h-9.57a9.24,9.24,0,0,0,.42,2.47,4.92,4.92,0,0,0,.93,1.67,3.31,3.31,0,0,0,1.35.94,4.78,4.78,0,0,0,1.72.29,7.72,7.72,0,0,0,1.4-.11,9.39,9.39,0,0,0,1.19-.3,5.67,5.67,0,0,0,1-.39,7.35,7.35,0,0,0,.77-.43l.77,1.78a6.36,6.36,0,0,1-1,.8,10,10,0,0,1-1.5.76,11.63,11.63,0,0,1-1.81.59A8.27,8.27,0,0,1,230.3,496.48ZM229.91,481a2.72,2.72,0,0,0-1.07.2,2,2,0,0,0-.86.78,5,5,0,0,0-.61,1.59,12.55,12.55,0,0,0-.3,2.63h5.25c0-.05,0-.12,0-.21s0-.18,0-.28v-.47a11.15,11.15,0,0,0-.1-1.51,5,5,0,0,0-.37-1.37,2.55,2.55,0,0,0-.75-1A1.85,1.85,0,0,0,229.91,481Z"/><path class="cls-1" d="M238.81,491.69a4.43,4.43,0,0,1,.39-1.91,4.71,4.71,0,0,1,1.07-1.47,6.36,6.36,0,0,1,1.61-1.07,11.37,11.37,0,0,1,2-.72,15.57,15.57,0,0,1,2.22-.42c.78-.09,1.55-.14,2.32-.16v-.71a3.42,3.42,0,0,0-.68-2.38,3,3,0,0,0-2.24-.71,10.87,10.87,0,0,0-1.59.13,14.27,14.27,0,0,0-1.53.31A10.78,10.78,0,0,0,241,483a11,11,0,0,0-1.06.43h0l-.86-2a6.91,6.91,0,0,1,1-.66,13.65,13.65,0,0,1,1.76-.78,18.71,18.71,0,0,1,2.27-.66,11.41,11.41,0,0,1,2.56-.28,9.6,9.6,0,0,1,2.76.35,4.36,4.36,0,0,1,1.85,1.09,4.41,4.41,0,0,1,1,1.85,9.42,9.42,0,0,1,.33,2.64v9.15h1.81V496l-.69.15-.9.18-1.07.14c-.38,0-.78.05-1.18.05a7.82,7.82,0,0,1-.9,0,1.37,1.37,0,0,1-.6-.2,1,1,0,0,1-.33-.47,2.54,2.54,0,0,1-.1-.81v-.85a6.32,6.32,0,0,1-.69.75,6,6,0,0,1-1.06.77,6.45,6.45,0,0,1-1.41.61,6,6,0,0,1-1.75.24,6.74,6.74,0,0,1-1.94-.27,4.39,4.39,0,0,1-1.59-.87,4,4,0,0,1-1.08-1.49A5.48,5.48,0,0,1,238.81,491.69Zm7,2a2.76,2.76,0,0,0,.6-.08,4.25,4.25,0,0,0,.71-.2,5,5,0,0,0,.71-.32,3.18,3.18,0,0,0,.62-.41V487.8a9.39,9.39,0,0,0-2.38.26,4.54,4.54,0,0,0-1.53.7,2.54,2.54,0,0,0-.82,1,3.07,3.07,0,0,0-.24,1.21,2.94,2.94,0,0,0,.6,2A2.17,2.17,0,0,0,245.77,493.66Z"/><path class="cls-1" d="M256.29,496.15v-2l2.11-.27V482.63l-2-.62V479.8l5-.72h.08l.78.63v3.5h.05A6.88,6.88,0,0,1,263,482a8.37,8.37,0,0,1,1.14-1.37,7,7,0,0,1,1.57-1.15,4.54,4.54,0,0,1,2.62-.43,1.8,1.8,0,0,1,.41.09v5.07a2.92,2.92,0,0,0-.85-.26,8.31,8.31,0,0,0-1.61-.14,9.38,9.38,0,0,0-2,.22,5.12,5.12,0,0,0-.8.22,2.69,2.69,0,0,0-.54.27v9.34l3.65.35v1.91Z"/><path class="cls-1" d="M272.23,492.63V481.85h-2.07v-1.67l.37-.12.53-.2.49-.2a1.36,1.36,0,0,0,.28-.14,4.54,4.54,0,0,0,1-1.4c.1-.2.21-.43.32-.69s.23-.53.35-.81.21-.56.31-.84.18-.53.25-.76h2.61l0,4.34h4.31v2.49h-4.31V490c0,.78,0,1.4,0,1.86a3.15,3.15,0,0,0,.18,1,.71.71,0,0,0,.43.45,2.44,2.44,0,0,0,.8.1h0a4.91,4.91,0,0,0,.74-.06c.26,0,.51-.08.76-.13l.69-.18.52-.17h0l.69,1.71a7.26,7.26,0,0,1-1.08.68,10.71,10.71,0,0,1-1.4.61,12.93,12.93,0,0,1-1.63.44,9,9,0,0,1-1.72.16h0a5,5,0,0,1-1.65-.24,2.71,2.71,0,0,1-1.1-.74,3.06,3.06,0,0,1-.6-1.21A6.37,6.37,0,0,1,272.23,492.63Z"/><path class="cls-1" d="M31.74,532.15v-2l1.8-.29V510.34L31.35,510v-1.71l5.7-.72h.07l.89.69,0,6.9-.23,2.33a7.44,7.44,0,0,1,1-.78,8.89,8.89,0,0,1,1.34-.76,10,10,0,0,1,1.63-.57,7.55,7.55,0,0,1,1.87-.22,6.21,6.21,0,0,1,2.37.39,3.31,3.31,0,0,1,1.49,1.22,5.49,5.49,0,0,1,.77,2.07,17,17,0,0,1,.23,3v8.11l2.07.29v2H42.36v-1.91l1.63-.32v-8.19a12.82,12.82,0,0,0-.1-1.75,3.25,3.25,0,0,0-.39-1.21,1.76,1.76,0,0,0-.79-.69,3.22,3.22,0,0,0-1.3-.23,4.49,4.49,0,0,0-.94.1,9.07,9.07,0,0,0-.93.26,7,7,0,0,0-.84.35,4.77,4.77,0,0,0-.66.4v10.93l2,.29v2Z"/><path class="cls-1" d="M60,532.48a8.92,8.92,0,0,1-3.56-.64A6.54,6.54,0,0,1,54,530.05a7.57,7.57,0,0,1-1.42-2.75,12.87,12.87,0,0,1-.45-3.49,10.79,10.79,0,0,1,.58-3.67,7.85,7.85,0,0,1,1.63-2.75,6.94,6.94,0,0,1,2.54-1.74,8.63,8.63,0,0,1,3.28-.6q6.08,0,6.34,5.94c0,.67,0,1.28,0,1.82a8.05,8.05,0,0,1-.15,1.37H56.76a8.84,8.84,0,0,0,.43,2.47,4.75,4.75,0,0,0,.92,1.67,3.31,3.31,0,0,0,1.35.94,4.83,4.83,0,0,0,1.73.29,7.68,7.68,0,0,0,1.39-.11,9,9,0,0,0,1.19-.3,6.13,6.13,0,0,0,1-.39,8.53,8.53,0,0,0,.77-.43l.76,1.78a6.36,6.36,0,0,1-1,.8,9.85,9.85,0,0,1-1.49.76,12.12,12.12,0,0,1-1.82.59A8.24,8.24,0,0,1,60,532.48ZM59.59,517a2.63,2.63,0,0,0-1.06.2,2,2,0,0,0-.87.78,5,5,0,0,0-.61,1.59,14.06,14.06,0,0,0-.3,2.63H62V522c0-.09,0-.18,0-.28s0-.19,0-.28v-.19a11.19,11.19,0,0,0-.11-1.51,4.66,4.66,0,0,0-.37-1.37,2.55,2.55,0,0,0-.75-1A1.84,1.84,0,0,0,59.59,517Z"/><path class="cls-1" d="M68.5,527.69a4.43,4.43,0,0,1,.38-1.91A4.71,4.71,0,0,1,70,524.31a6.36,6.36,0,0,1,1.61-1.07,11.68,11.68,0,0,1,2-.72,15.45,15.45,0,0,1,2.23-.42c.77-.09,1.54-.14,2.31-.16v-.71a3.42,3.42,0,0,0-.68-2.38,3,3,0,0,0-2.23-.71,10.65,10.65,0,0,0-1.59.13,13.34,13.34,0,0,0-1.53.31,11.5,11.5,0,0,0-1.36.41c-.41.15-.77.29-1.06.43h0l-.86-2a6.91,6.91,0,0,1,1-.66,13.65,13.65,0,0,1,1.76-.78,18.71,18.71,0,0,1,2.27-.66,11.41,11.41,0,0,1,2.56-.28,9.51,9.51,0,0,1,2.76.35A4.36,4.36,0,0,1,81,516.52a4.41,4.41,0,0,1,1,1.85,9.42,9.42,0,0,1,.33,2.64v9.15h1.81V532l-.68.15-.91.18-1.07.14c-.38,0-.77.05-1.17.05a7.82,7.82,0,0,1-.9,0,1.37,1.37,0,0,1-.6-.2.85.85,0,0,1-.33-.47,2.51,2.51,0,0,1-.11-.81v-.85a5,5,0,0,1-.69.75,5.69,5.69,0,0,1-1.06.77,6.09,6.09,0,0,1-3.15.85,6.76,6.76,0,0,1-2-.27,4.39,4.39,0,0,1-1.59-.87,4.12,4.12,0,0,1-1.08-1.49A5.48,5.48,0,0,1,68.5,527.69Zm7,2a2.76,2.76,0,0,0,.6-.08,4.25,4.25,0,0,0,.71-.2,5.67,5.67,0,0,0,.72-.32,3.09,3.09,0,0,0,.61-.41V523.8a9.39,9.39,0,0,0-2.38.26,4.54,4.54,0,0,0-1.53.7,2.52,2.52,0,0,0-.81,1,3.08,3.08,0,0,0-.25,1.21,2.94,2.94,0,0,0,.6,2A2.17,2.17,0,0,0,75.45,529.66Z"/><path class="cls-1" d="M85.52,532.15v-2l2.12-.29V510.34L85.46,510v-1.71l5.73-.72h0l.92.69v21.66l2.22.29v2Z"/><path class="cls-1" d="M97.94,528.63V517.85H95.87v-1.67l.38-.12.52-.2.5-.2a1.49,1.49,0,0,0,.27-.14,4.39,4.39,0,0,0,1-1.4l.33-.69c.11-.25.23-.53.34-.81s.22-.56.32-.84.18-.53.24-.76h2.61l0,4.34h4.3v2.49h-4.3V526q0,1.17,0,1.86a3.43,3.43,0,0,0,.18,1,.74.74,0,0,0,.43.45,2.5,2.5,0,0,0,.81.1h0a4.81,4.81,0,0,0,.74-.06c.26,0,.51-.08.76-.13l.69-.18.52-.17h0l.68,1.71a7.66,7.66,0,0,1-1.07.68,11.49,11.49,0,0,1-1.41.61,12.77,12.77,0,0,1-1.62.44,9.21,9.21,0,0,1-1.73.16h0a4.94,4.94,0,0,1-1.64-.24,2.64,2.64,0,0,1-1.1-.74,3.07,3.07,0,0,1-.61-1.21A6.37,6.37,0,0,1,97.94,528.63Z"/><path class="cls-1" d="M108.56,532.15v-2l1.8-.29V510.34l-2.2-.37v-1.71l5.7-.72h.08l.89.69,0,6.9-.24,2.33a9,9,0,0,1,1-.78,10,10,0,0,1,1.34-.76,10.51,10.51,0,0,1,1.64-.57,7.52,7.52,0,0,1,1.86-.22,6.27,6.27,0,0,1,2.38.39,3.29,3.29,0,0,1,1.48,1.22,5.33,5.33,0,0,1,.78,2.07,17,17,0,0,1,.23,3v8.11l2.06.29v2h-8.2v-1.91l1.63-.32v-8.19a12.68,12.68,0,0,0-.11-1.75,3.08,3.08,0,0,0-.39-1.21,1.71,1.71,0,0,0-.79-.69,3.17,3.17,0,0,0-1.29-.23,4.36,4.36,0,0,0-.94.1,9.07,9.07,0,0,0-.93.26,6.41,6.41,0,0,0-.84.35,3.81,3.81,0,0,0-.66.4v10.93l2,.29v2Z"/><path class="cls-1" d="M138.24,527.69a4.43,4.43,0,0,1,.39-1.91,4.53,4.53,0,0,1,1.06-1.47,6.36,6.36,0,0,1,1.61-1.07,11.68,11.68,0,0,1,2-.72,15.71,15.71,0,0,1,2.23-.42c.77-.09,1.54-.14,2.31-.16v-.71a3.42,3.42,0,0,0-.68-2.38,3,3,0,0,0-2.23-.71,10.65,10.65,0,0,0-1.59.13,13.79,13.79,0,0,0-1.53.31,11.5,11.5,0,0,0-1.36.41c-.41.15-.77.29-1.06.43h0l-.87-2a7.48,7.48,0,0,1,1-.66,14.3,14.3,0,0,1,1.76-.78,18.71,18.71,0,0,1,2.27-.66,11.41,11.41,0,0,1,2.56-.28,9.51,9.51,0,0,1,2.76.35,4.3,4.3,0,0,1,1.85,1.09,4.41,4.41,0,0,1,1,1.85,9.42,9.42,0,0,1,.33,2.64v9.15h1.82V532l-.69.15-.91.18-1.07.14c-.38,0-.77.05-1.17.05a7.82,7.82,0,0,1-.9,0,1.37,1.37,0,0,1-.6-.2.9.9,0,0,1-.33-.47,2.51,2.51,0,0,1-.11-.81v-.85a5.41,5.41,0,0,1-.68.75,6.14,6.14,0,0,1-1.07.77,6.09,6.09,0,0,1-3.15.85,6.76,6.76,0,0,1-1.95-.27,4.39,4.39,0,0,1-1.59-.87,4.12,4.12,0,0,1-1.08-1.49A5.48,5.48,0,0,1,138.24,527.69Zm7,2a2.92,2.92,0,0,0,.6-.08,4.43,4.43,0,0,0,.7-.2,5.67,5.67,0,0,0,.72-.32,3.09,3.09,0,0,0,.61-.41V523.8a9.39,9.39,0,0,0-2.38.26,4.54,4.54,0,0,0-1.53.7,2.52,2.52,0,0,0-.81,1,3.07,3.07,0,0,0-.24,1.21,2.94,2.94,0,0,0,.59,2A2.18,2.18,0,0,0,145.2,529.66Z"/><path class="cls-1" d="M155.71,532.15v-2l2.11-.27V518.63l-2-.62V515.8l5-.72h.09l.77.63v3.5h.06a7.46,7.46,0,0,1,.63-1.18,8,8,0,0,1,1.15-1.37,6.56,6.56,0,0,1,1.57-1.15A4.07,4.07,0,0,1,167,515a4.23,4.23,0,0,1,.7,0,1.83,1.83,0,0,1,.4.09v5.07a2.93,2.93,0,0,0-.84-.26,8.5,8.5,0,0,0-1.62-.14,9,9,0,0,0-1,.06,8.73,8.73,0,0,0-1,.16,5,5,0,0,0-.79.22,2.55,2.55,0,0,0-.55.27v9.34l3.65.35v1.91Z"/><path class="cls-1" d="M177.66,532.48a8.92,8.92,0,0,1-3.56-.64,6.54,6.54,0,0,1-2.44-1.79,7.57,7.57,0,0,1-1.42-2.75,12.87,12.87,0,0,1-.45-3.49,10.79,10.79,0,0,1,.58-3.67,7.85,7.85,0,0,1,1.63-2.75,7,7,0,0,1,2.54-1.74,8.63,8.63,0,0,1,3.28-.6q6.08,0,6.34,5.94c0,.67,0,1.28,0,1.82a8.05,8.05,0,0,1-.15,1.37h-9.57a8.84,8.84,0,0,0,.43,2.47,4.75,4.75,0,0,0,.92,1.67,3.28,3.28,0,0,0,1.36.94,4.74,4.74,0,0,0,1.72.29,7.61,7.61,0,0,0,1.39-.11,9,9,0,0,0,1.19-.3,6.13,6.13,0,0,0,1-.39,8.53,8.53,0,0,0,.77-.43l.76,1.78a5.57,5.57,0,0,1-1,.8,9.85,9.85,0,0,1-1.49.76,11.76,11.76,0,0,1-1.82.59A8.24,8.24,0,0,1,177.66,532.48Zm-.4-15.46a2.67,2.67,0,0,0-1.06.2,2,2,0,0,0-.87.78,5,5,0,0,0-.61,1.59,14.06,14.06,0,0,0-.3,2.63h5.26V522c0-.09,0-.18,0-.28s0-.19,0-.28v-.19a11.19,11.19,0,0,0-.11-1.51,4.66,4.66,0,0,0-.37-1.37,2.55,2.55,0,0,0-.75-1A1.84,1.84,0,0,0,177.26,517Z"/><path class="cls-2" d="M195.63,523.86a10.09,10.09,0,0,1,.69-3.89,8.08,8.08,0,0,1,1.83-2.75,7.38,7.38,0,0,1,2.64-1.64,9.2,9.2,0,0,1,3.13-.54,9,9,0,0,1,3.37.59,6.56,6.56,0,0,1,2.46,1.71,7.22,7.22,0,0,1,1.51,2.71,11.85,11.85,0,0,1,.51,3.62,10.3,10.3,0,0,1-.69,4,7.89,7.89,0,0,1-1.83,2.75,7.31,7.31,0,0,1-2.63,1.59,9.37,9.37,0,0,1-3.12.52,8.82,8.82,0,0,1-3.37-.59,6.46,6.46,0,0,1-2.47-1.71,7.24,7.24,0,0,1-1.52-2.71A11.83,11.83,0,0,1,195.63,523.86Zm8.12,6.6a2.45,2.45,0,0,0,2.36-1.48,6.6,6.6,0,0,0,.57-2,19.62,19.62,0,0,0,.19-2.88,24.9,24.9,0,0,0-.17-3,8.79,8.79,0,0,0-.55-2.21,3.09,3.09,0,0,0-1-1.36,2.35,2.35,0,0,0-1.48-.46,2.5,2.5,0,0,0-2.39,1.49,6.77,6.77,0,0,0-.59,2,19.47,19.47,0,0,0-.19,2.87,22.92,22.92,0,0,0,.18,3,8.54,8.54,0,0,0,.56,2.22,3.32,3.32,0,0,0,1,1.35A2.36,2.36,0,0,0,203.75,530.46Z"/><path class="cls-2" d="M227.83,532.48a2.23,2.23,0,0,1-1.57-.46,1.85,1.85,0,0,1-.5-1.4v-.52a5.51,5.51,0,0,1-.92.86,8.72,8.72,0,0,1-1.22.77,7.41,7.41,0,0,1-1.4.55,5.53,5.53,0,0,1-1.5.2,7.88,7.88,0,0,1-2.47-.34,3.79,3.79,0,0,1-1.69-1.11,4.73,4.73,0,0,1-1-2,11.93,11.93,0,0,1-.32-2.95v-8.35l-1.46-.54v-1.71l5.27-.43h0l.67.41v10.72a9.49,9.49,0,0,0,.12,1.64,3,3,0,0,0,.42,1.09,1.67,1.67,0,0,0,.78.61,3.2,3.2,0,0,0,1.2.2,4.22,4.22,0,0,0,1-.12,5.51,5.51,0,0,0,.84-.28,4,4,0,0,0,.65-.35,4.58,4.58,0,0,0,.45-.32V517.76l-2-.57v-1.73l5.69-.38h0l.8.41v14.67h1.63V532c-.37.09-.87.2-1.48.32A10.16,10.16,0,0,1,227.83,532.48Z"/><path class="cls-2" d="M233.64,532.15v-2l2.11-.27V518.63l-2-.62V515.8l5-.72h.09l.77.63v3.5h.06a6.71,6.71,0,0,1,.63-1.18,8,8,0,0,1,1.15-1.37,6.56,6.56,0,0,1,1.57-1.15A4.07,4.07,0,0,1,245,515a4.23,4.23,0,0,1,.7,0,1.83,1.83,0,0,1,.4.09v5.07a2.93,2.93,0,0,0-.84-.26,8.5,8.5,0,0,0-1.62-.14,9,9,0,0,0-1,.06,8.73,8.73,0,0,0-1,.16,5,5,0,0,0-.79.22,2.55,2.55,0,0,0-.55.27v9.34l3.65.35v1.91Z"/><path class="cls-2" d="M33.59,564.63V553.85H31.52v-1.67l.38-.12.52-.2.5-.2a1.49,1.49,0,0,0,.27-.14,4.39,4.39,0,0,0,1-1.4l.33-.69c.11-.25.23-.53.34-.81s.22-.56.31-.84.19-.53.25-.76h2.61l0,4.34h4.3v2.49h-4.3V562q0,1.17,0,1.86a3.43,3.43,0,0,0,.18,1,.71.71,0,0,0,.43.45,2.5,2.5,0,0,0,.81.1h0a4.91,4.91,0,0,0,.74-.06c.26,0,.51-.08.76-.13l.69-.18.52-.17h0l.69,1.71a7.66,7.66,0,0,1-1.07.68,11.49,11.49,0,0,1-1.41.61,12.48,12.48,0,0,1-1.63.44,9,9,0,0,1-1.72.16h0a4.94,4.94,0,0,1-1.64-.24,2.64,2.64,0,0,1-1.1-.74,3.07,3.07,0,0,1-.61-1.21A6.37,6.37,0,0,1,33.59,564.63Z"/><path class="cls-2" d="M44.12,559.86a10.09,10.09,0,0,1,.69-3.89,8.08,8.08,0,0,1,1.83-2.75,7.38,7.38,0,0,1,2.64-1.64,9.24,9.24,0,0,1,3.13-.54,9,9,0,0,1,3.37.59,6.56,6.56,0,0,1,2.46,1.71,7.22,7.22,0,0,1,1.51,2.71,11.85,11.85,0,0,1,.51,3.62,10.5,10.5,0,0,1-.68,4,7.77,7.77,0,0,1-1.84,2.75A7.31,7.31,0,0,1,55.11,568a9.37,9.37,0,0,1-3.12.52,8.82,8.82,0,0,1-3.37-.59,6.46,6.46,0,0,1-2.47-1.71,7.38,7.38,0,0,1-1.52-2.71A11.83,11.83,0,0,1,44.12,559.86Zm8.12,6.6A2.45,2.45,0,0,0,54.6,565a6.6,6.6,0,0,0,.57-2,19.62,19.62,0,0,0,.19-2.88,24.9,24.9,0,0,0-.17-3,8.41,8.41,0,0,0-.54-2.21,3.26,3.26,0,0,0-1-1.36,2.4,2.4,0,0,0-1.49-.46,2.5,2.5,0,0,0-2.39,1.49,6.77,6.77,0,0,0-.59,2,19.47,19.47,0,0,0-.19,2.87,22.92,22.92,0,0,0,.18,3,8.54,8.54,0,0,0,.56,2.22,3.32,3.32,0,0,0,1,1.35A2.36,2.36,0,0,0,52.24,566.46Z"/><path class="cls-2" d="M62.15,573.55l2.2-.36V554.63l-2-.62V551.8l5.24-.72h.08l.74.63v1.55a7.67,7.67,0,0,1,.87-.82,5.69,5.69,0,0,1,1.11-.71,6.74,6.74,0,0,1,1.35-.5,6.11,6.11,0,0,1,1.58-.19,7.05,7.05,0,0,1,2.53.45,5.39,5.39,0,0,1,2.06,1.44,7.25,7.25,0,0,1,1.38,2.56,12.37,12.37,0,0,1,.5,3.78,10.71,10.71,0,0,1-.59,3.63,8.52,8.52,0,0,1-1.71,2.92,7.75,7.75,0,0,1-2.71,1.95,8.63,8.63,0,0,1-3.6.71l-.72,0-.69-.08-.6-.09-.42-.08.09,2.43v2.55l2.9.36v1.86h-9.6Zm9.32-19.85a3.73,3.73,0,0,0-1.57.32,3.26,3.26,0,0,0-1.05.71v11.09a2,2,0,0,0,.8.49,3.83,3.83,0,0,0,1.35.21,3.36,3.36,0,0,0,1.5-.34A3.11,3.11,0,0,0,73.74,565a6.62,6.62,0,0,0,.85-2.08,14.47,14.47,0,0,0,.35-3.16,12.86,12.86,0,0,0-.21-2.81,5.54,5.54,0,0,0-.7-1.89,2.81,2.81,0,0,0-1.1-1.07A3.2,3.2,0,0,0,71.47,553.7Z"/><path class="cls-2" d="M91.2,573.55l2.2-.36V554.63l-2-.62V551.8l5.24-.72h.07l.75.63v1.55a6.79,6.79,0,0,1,.86-.82,6.09,6.09,0,0,1,1.12-.71,6.74,6.74,0,0,1,1.35-.5,6.06,6.06,0,0,1,1.58-.19,7,7,0,0,1,2.52.45,5.25,5.25,0,0,1,2.06,1.44,7.11,7.11,0,0,1,1.39,2.56,12.68,12.68,0,0,1,.5,3.78,11,11,0,0,1-.59,3.63,8.86,8.86,0,0,1-1.71,2.92,7.75,7.75,0,0,1-2.71,1.95,8.63,8.63,0,0,1-3.6.71l-.73,0-.68-.08-.6-.09-.42-.08.09,2.43v2.55l2.9.36v1.86H91.2Zm9.32-19.85A3.73,3.73,0,0,0,99,554a3.26,3.26,0,0,0-1,.71v11.09a2,2,0,0,0,.8.49,3.83,3.83,0,0,0,1.35.21,3.36,3.36,0,0,0,1.5-.34,3.18,3.18,0,0,0,1.24-1.14,6.86,6.86,0,0,0,.85-2.08,14.47,14.47,0,0,0,.35-3.16,12.86,12.86,0,0,0-.21-2.81,5.75,5.75,0,0,0-.7-1.89A2.77,2.77,0,0,0,102,554,3.16,3.16,0,0,0,100.52,553.7Z"/><path class="cls-2" d="M111.18,568.15v-2l2.11-.27V554.63l-2-.62V551.8l5-.72h.09l.77.63v3.5h.06a6.71,6.71,0,0,1,.63-1.18,8,8,0,0,1,1.15-1.37,6.7,6.7,0,0,1,1.56-1.15,4.11,4.11,0,0,1,1.93-.47,4.23,4.23,0,0,1,.7,0,1.83,1.83,0,0,1,.4.09v5.07a2.93,2.93,0,0,0-.84-.26,8.5,8.5,0,0,0-1.62-.14,8.89,8.89,0,0,0-1,.06,8.73,8.73,0,0,0-1,.16,5.12,5.12,0,0,0-.8.22,2.69,2.69,0,0,0-.54.27v9.34l3.65.35v1.91Z"/><path class="cls-2" d="M125.43,568.15v-2l2.14-.27V554.63l-2-.63v-2.2l5.37-.72H131l1.07.63v14.18l2.13.29v2Zm3.9-19.54a2.17,2.17,0,0,1-.91-.19,2.06,2.06,0,0,1-.68-.51,2.1,2.1,0,0,1-.41-.75,3,3,0,0,1-.14-.91,3.49,3.49,0,0,1,.16-1.08,2.4,2.4,0,0,1,.47-.88,2.31,2.31,0,0,1,.8-.61,2.75,2.75,0,0,1,1.11-.22h0a2.46,2.46,0,0,1,1,.2,2.18,2.18,0,0,1,.73.53,2.16,2.16,0,0,1,.43.75,3,3,0,0,1,.14.9,3.5,3.5,0,0,1-.16,1.09,2.44,2.44,0,0,1-.49.88,2.18,2.18,0,0,1-.85.58,3.09,3.09,0,0,1-1.22.22Z"/><path class="cls-2" d="M136,559.86a10.09,10.09,0,0,1,.69-3.89,8.08,8.08,0,0,1,1.83-2.75,7.34,7.34,0,0,1,2.65-1.64,9.14,9.14,0,0,1,3.12-.54,9,9,0,0,1,3.37.59,6.56,6.56,0,0,1,2.46,1.71,7.22,7.22,0,0,1,1.51,2.71,11.85,11.85,0,0,1,.51,3.62,10.3,10.3,0,0,1-.68,4,7.89,7.89,0,0,1-1.83,2.75,7.44,7.44,0,0,1-2.64,1.59,9.37,9.37,0,0,1-3.12.52,8.85,8.85,0,0,1-3.37-.59,6.46,6.46,0,0,1-2.47-1.71,7.38,7.38,0,0,1-1.52-2.71A11.83,11.83,0,0,1,136,559.86Zm8.12,6.6a2.45,2.45,0,0,0,2.36-1.48,6.6,6.6,0,0,0,.57-2,18.32,18.32,0,0,0,.19-2.88,24.9,24.9,0,0,0-.17-3,8.41,8.41,0,0,0-.54-2.21,3.26,3.26,0,0,0-1-1.36,2.4,2.4,0,0,0-1.49-.46,2.5,2.5,0,0,0-2.39,1.49,6.49,6.49,0,0,0-.58,2,18.07,18.07,0,0,0-.2,2.87,22.92,22.92,0,0,0,.18,3,9,9,0,0,0,.56,2.22,3.32,3.32,0,0,0,1,1.35A2.38,2.38,0,0,0,144.07,566.46Z"/><path class="cls-2" d="M154.34,568.15v-2l2.11-.27V554.63l-2-.62V551.8l5-.72h.09l.78.63v1.22l0,2.28h.06A6.88,6.88,0,0,1,161,554a8.37,8.37,0,0,1,1.14-1.37,7,7,0,0,1,1.57-1.15,4.07,4.07,0,0,1,1.92-.47,4.16,4.16,0,0,1,.7,0,1.7,1.7,0,0,1,.4.09v5.07a2.71,2.71,0,0,0-.84-.26,8.35,8.35,0,0,0-1.62-.14,8.72,8.72,0,0,0-1,.06,8.35,8.35,0,0,0-1,.16,4.83,4.83,0,0,0-.8.22,2.23,2.23,0,0,0-.54.27v9.34l3.64.35v1.91Z"/><path class="cls-2" d="M168.59,568.15v-2l2.14-.27V554.63l-2-.63v-2.2l5.38-.72h.07l1.07.63v14.18l2.12.29v2Zm3.9-19.54a2.22,2.22,0,0,1-.92-.19,2,2,0,0,1-.67-.51,2,2,0,0,1-.41-.75,2.71,2.71,0,0,1-.14-.91,3.81,3.81,0,0,1,.15-1.08,2.43,2.43,0,0,1,1.27-1.49,2.75,2.75,0,0,1,1.11-.22h0a2.49,2.49,0,0,1,1,.2,2,2,0,0,1,.72.53,2,2,0,0,1,.43.75,2.73,2.73,0,0,1,.14.9,3.5,3.5,0,0,1-.16,1.09,2.3,2.3,0,0,1-.49.88,2.18,2.18,0,0,1-.85.58,3,3,0,0,1-1.22.22Z"/><path class="cls-2" d="M181,564.63V553.85H179v-1.67l.38-.12.53-.2.49-.2a1.19,1.19,0,0,0,.27-.14,4.39,4.39,0,0,0,1-1.4l.33-.69c.11-.25.23-.53.34-.81s.22-.56.32-.84.18-.53.25-.76h2.6l0,4.34h4.3v2.49h-4.3V562q0,1.17,0,1.86a3.78,3.78,0,0,0,.18,1,.74.74,0,0,0,.43.45,2.5,2.5,0,0,0,.81.1h0a4.81,4.81,0,0,0,.74-.06c.26,0,.51-.08.76-.13l.69-.18.52-.17h0l.68,1.71a7.66,7.66,0,0,1-1.07.68,11.49,11.49,0,0,1-1.41.61,12.77,12.77,0,0,1-1.62.44,9.21,9.21,0,0,1-1.73.16h0a4.94,4.94,0,0,1-1.64-.24,2.64,2.64,0,0,1-1.1-.74,3.07,3.07,0,0,1-.61-1.21A6.37,6.37,0,0,1,181,564.63Z"/><path class="cls-2" d="M191.82,568.15v-2l2.14-.27V554.63l-2-.63v-2.2l5.38-.72h.07l1.07.63v14.18l2.12.29v2Zm3.9-19.54a2.26,2.26,0,0,1-.92-.19,2,2,0,0,1-.67-.51,2.1,2.1,0,0,1-.41-.75,2.71,2.71,0,0,1-.14-.91,3.81,3.81,0,0,1,.15-1.08,2.28,2.28,0,0,1,.48-.88,2.22,2.22,0,0,1,.8-.61,2.66,2.66,0,0,1,1.1-.22h0a2.49,2.49,0,0,1,1,.2,2.18,2.18,0,0,1,.73.53,2.33,2.33,0,0,1,.43.75,3,3,0,0,1,.14.9,3.83,3.83,0,0,1-.16,1.09,2.6,2.6,0,0,1-.49.88,2.34,2.34,0,0,1-.85.58,3.11,3.11,0,0,1-1.23.22Z"/><path class="cls-2" d="M210.28,568.48a8.87,8.87,0,0,1-3.55-.64,6.5,6.5,0,0,1-2.45-1.79,7.4,7.4,0,0,1-1.41-2.75,12.49,12.49,0,0,1-.46-3.49,10.79,10.79,0,0,1,.58-3.67,8,8,0,0,1,1.63-2.75,7,7,0,0,1,2.54-1.74,8.63,8.63,0,0,1,3.28-.6q6.08,0,6.34,5.94c0,.67,0,1.28,0,1.82a9.08,9.08,0,0,1-.16,1.37h-9.56a8.86,8.86,0,0,0,.42,2.47,4.75,4.75,0,0,0,.92,1.67,3.34,3.34,0,0,0,1.36.94,4.74,4.74,0,0,0,1.72.29,7.61,7.61,0,0,0,1.39-.11,9,9,0,0,0,1.19-.3,6.13,6.13,0,0,0,1-.39,7.35,7.35,0,0,0,.77-.43l.76,1.78a5.57,5.57,0,0,1-1,.8,9.85,9.85,0,0,1-1.49.76,11.76,11.76,0,0,1-1.82.59A8.24,8.24,0,0,1,210.28,568.48Zm-.4-15.46a2.67,2.67,0,0,0-1.06.2,2,2,0,0,0-.86.78,5,5,0,0,0-.62,1.59,14.06,14.06,0,0,0-.3,2.63h5.26a1.79,1.79,0,0,1,0-.21c0-.09,0-.18,0-.28a2.72,2.72,0,0,0,0-.28v-.19a13,13,0,0,0-.1-1.51,5,5,0,0,0-.38-1.37,2.62,2.62,0,0,0-.74-1A1.88,1.88,0,0,0,209.88,553Z"/><path class="cls-2" d="M219.52,567.21v-4.12h2.7l.76,2.29a1.64,1.64,0,0,0,.4.38,3,3,0,0,0,.65.34,5.61,5.61,0,0,0,.84.24,5.18,5.18,0,0,0,1,.09,3.3,3.3,0,0,0,1.19-.17,2.12,2.12,0,0,0,.74-.45,1.28,1.28,0,0,0,.38-.61,2.34,2.34,0,0,0,.11-.67,1.8,1.8,0,0,0-.32-1.06,3.23,3.23,0,0,0-.89-.82,10,10,0,0,0-1.4-.73l-1.82-.76a11.75,11.75,0,0,1-1.81-.91,6.24,6.24,0,0,1-1.37-1.14,4.49,4.49,0,0,1-.87-1.41,4.57,4.57,0,0,1-.31-1.74,4.33,4.33,0,0,1,.43-1.93,4.24,4.24,0,0,1,1.28-1.53,6.39,6.39,0,0,1,2.11-1,10.26,10.26,0,0,1,2.92-.37,12.65,12.65,0,0,1,1.72.11,13.73,13.73,0,0,1,1.37.28c.41.1.78.21,1.12.32a8.59,8.59,0,0,0,1,.25v4.05l-2.55-.05-.69-1.95a2,2,0,0,0-.77-.65,3.11,3.11,0,0,0-1.45-.33,3.55,3.55,0,0,0-1.11.15,2,2,0,0,0-.72.39,1.55,1.55,0,0,0-.39.55,1.87,1.87,0,0,0-.11.61,1.93,1.93,0,0,0,.39,1.25,3.39,3.39,0,0,0,1,.83,8,8,0,0,0,1.32.59c.48.18.93.36,1.36.55.64.29,1.26.59,1.85.91a7.66,7.66,0,0,1,1.56,1.1,5,5,0,0,1,1.08,1.46,4.44,4.44,0,0,1,.4,2,4.84,4.84,0,0,1-.41,2,4.41,4.41,0,0,1-1.26,1.58,6.23,6.23,0,0,1-2.11,1.05,10.2,10.2,0,0,1-3,.38,12.61,12.61,0,0,1-2.12-.16A16.44,16.44,0,0,1,222,568c-.52-.14-1-.28-1.4-.43S219.82,567.28,219.52,567.21Z"/><path class="cls-2" d="M238,568.4a3.19,3.19,0,0,1-1-.16,2.45,2.45,0,0,1-.82-.47,2.27,2.27,0,0,1-.56-.74,2.24,2.24,0,0,1-.21-1,2.5,2.5,0,0,1,.24-1.1,2.85,2.85,0,0,1,.64-.89,3,3,0,0,1,1-.59,3.14,3.14,0,0,1,1.15-.22,3.35,3.35,0,0,1,1.22.2,2.08,2.08,0,0,1,.81.51,1.93,1.93,0,0,1,.46.75,2.92,2.92,0,0,1,.13.9,2.88,2.88,0,0,1-.22,1.15,2.5,2.5,0,0,1-.63.87,2.68,2.68,0,0,1-1,.57A3.72,3.72,0,0,1,238,568.4Z"/></svg>