<svg id="Layer_1" data-name="Layer 1" xmlns="http://www.w3.org/2000/svg" viewBox="0 0 1200 628"><defs><style>.cls-1{fill:#f1b533;}.cls-2{fill:#fff;}</style></defs><path class="cls-1" d="M83.27,553.9v-3.35l4-.68v-29.1L83.34,520v-3.27h15.8V520l-4.17.76V533h14.57V520.77l-4-.76v-3.27h15.57V520l-3.9.76v29.12l3.9.66v3.35H105.63v-3.35l3.91-.68v-13H95v13l4.17.68v3.35Z"/><path class="cls-1" d="M138.18,554.46a14.73,14.73,0,0,1-5.92-1.08,10.77,10.77,0,0,1-4.08-3,12.24,12.24,0,0,1-2.35-4.57,21.07,21.07,0,0,1-.76-5.82,18.18,18.18,0,0,1,1-6.11,13.26,13.26,0,0,1,2.72-4.59,11.64,11.64,0,0,1,4.23-2.89,14.36,14.36,0,0,1,5.47-1q10.13,0,10.57,9.88c0,1.13,0,2.14,0,3a14.4,14.4,0,0,1-.26,2.29H132.81a14.74,14.74,0,0,0,.71,4.12,8.09,8.09,0,0,0,1.53,2.78,5.67,5.67,0,0,0,2.26,1.57,8.27,8.27,0,0,0,2.87.49,13,13,0,0,0,2.32-.2,14.85,14.85,0,0,0,2-.49,11,11,0,0,0,1.66-.66,12,12,0,0,0,1.28-.71l1.27,3a9.32,9.32,0,0,1-1.7,1.33,16,16,0,0,1-2.49,1.28,19.79,19.79,0,0,1-3,1A14.2,14.2,0,0,1,138.18,554.46Zm-.66-25.78a4.47,4.47,0,0,0-1.77.34,3.24,3.24,0,0,0-1.44,1.29,8.46,8.46,0,0,0-1,2.65,24.34,24.34,0,0,0-.5,4.38h8.77c0-.08,0-.19,0-.34s0-.3,0-.46,0-.32,0-.47v-.31a19.79,19.79,0,0,0-.17-2.53,8.35,8.35,0,0,0-.63-2.28,4.35,4.35,0,0,0-1.24-1.64A3.18,3.18,0,0,0,137.52,528.68Z"/><path class="cls-1" d="M152.36,546.47a7.48,7.48,0,0,1,.65-3.19,8,8,0,0,1,1.78-2.45,11,11,0,0,1,2.68-1.78,19.13,19.13,0,0,1,3.32-1.21,25.38,25.38,0,0,1,3.71-.69c1.28-.15,2.57-.24,3.85-.27v-1.17a5.62,5.62,0,0,0-1.13-4,5,5,0,0,0-3.72-1.18,18.18,18.18,0,0,0-2.65.2c-.89.14-1.74.31-2.55.52A21.75,21.75,0,0,0,156,532q-1,.38-1.77.72h0l-1.44-3.27a12.29,12.29,0,0,1,1.74-1.09,21.17,21.17,0,0,1,2.93-1.3,27.91,27.91,0,0,1,3.78-1.1,19.47,19.47,0,0,1,4.27-.47,15.68,15.68,0,0,1,4.6.59,7,7,0,0,1,3.08,1.81,7.18,7.18,0,0,1,1.73,3.09,15.5,15.5,0,0,1,.55,4.4v15.24h3v3c-.31.06-.69.15-1.15.26s-1,.2-1.51.29-1.15.16-1.78.23-1.29.1-2,.1a12.8,12.8,0,0,1-1.5-.08,2,2,0,0,1-1-.34,1.54,1.54,0,0,1-.55-.77,4.39,4.39,0,0,1-.17-1.35V550.5a9.52,9.52,0,0,1-1.15,1.25A9.41,9.41,0,0,1,166,553a10.28,10.28,0,0,1-2.35,1,9.89,9.89,0,0,1-2.91.41,10.94,10.94,0,0,1-3.24-.47,7.1,7.1,0,0,1-2.65-1.44,6.78,6.78,0,0,1-1.8-2.49A8.92,8.92,0,0,1,152.36,546.47Zm11.6,3.28a4.29,4.29,0,0,0,1-.13,8.41,8.41,0,0,0,1.17-.34,9.06,9.06,0,0,0,1.2-.52,5.23,5.23,0,0,0,1-.7V540a15.3,15.3,0,0,0-4,.44,7.2,7.2,0,0,0-2.55,1.17,4.17,4.17,0,0,0-1.36,1.69,5.09,5.09,0,0,0-.4,2,4.9,4.9,0,0,0,1,3.31A3.62,3.62,0,0,0,164,549.75Z"/><path class="cls-1" d="M180.73,553.9v-3.28l3.54-.48v-32.6l-3.64-.61v-2.85l9.55-1.2h.07l1.54,1.15v36.11l3.69.48v3.28Z"/><path class="cls-1" d="M201.44,548v-18H198v-2.78l.63-.21.88-.33.81-.33a3.36,3.36,0,0,0,.47-.23,7.59,7.59,0,0,0,1.73-2.35c.16-.32.34-.7.54-1.13s.38-.88.57-1.36.36-.94.53-1.4.3-.88.41-1.26h4.35l.07,7.23h7.18v4.15H209v13.52c0,1.31,0,2.34.06,3.1a6,6,0,0,0,.29,1.74,1.22,1.22,0,0,0,.72.75,4.07,4.07,0,0,0,1.35.18h0a9,9,0,0,0,1.23-.1c.43-.07.86-.14,1.27-.23s.8-.19,1.15-.3.64-.2.87-.28h0l1.15,2.86a13.31,13.31,0,0,1-1.79,1.12,17.66,17.66,0,0,1-2.35,1,19.88,19.88,0,0,1-2.71.73,15.42,15.42,0,0,1-2.87.28h0a7.89,7.89,0,0,1-2.74-.42,4.13,4.13,0,0,1-1.83-1.23,5,5,0,0,1-1-2A10.93,10.93,0,0,1,201.44,548Z"/><path class="cls-1" d="M219.14,553.9v-3.28l3-.48v-32.6l-3.66-.61v-2.85l9.49-1.2h.13l1.48,1.15,0,11.5-.39,3.88a14,14,0,0,1,1.65-1.29,14.28,14.28,0,0,1,2.23-1.26,16.21,16.21,0,0,1,2.73-1,12.1,12.1,0,0,1,3.11-.38,10.3,10.3,0,0,1,4,.66,5.45,5.45,0,0,1,2.47,2,9.23,9.23,0,0,1,1.3,3.46,28.27,28.27,0,0,1,.38,4.94v13.53l3.44.48v3.28H236.84v-3.18l2.71-.53V536.54a22.2,22.2,0,0,0-.17-2.92,5.46,5.46,0,0,0-.65-2,2.92,2.92,0,0,0-1.32-1.16,5.16,5.16,0,0,0-2.16-.38,7.68,7.68,0,0,0-1.56.17,12.13,12.13,0,0,0-1.55.43,11.23,11.23,0,0,0-1.41.58,7.57,7.57,0,0,0-1.1.67v18.22l3.35.48v3.28Z"/><path class="cls-1" d="M259.32,566.35l-1.07,0c-.39,0-.78,0-1.15-.07s-.71-.07-1-.11a4.24,4.24,0,0,1-.65-.13v-6a7.78,7.78,0,0,0,1.45.41,12.76,12.76,0,0,0,2.55.23,8.64,8.64,0,0,0,1.6-.17,4.61,4.61,0,0,0,1.8-.86,8.75,8.75,0,0,0,1.88-2,17.83,17.83,0,0,0,1.85-3.7h-4.39l-8.79-24.17-2.22-.69v-3.12H265.3V529l-3.68.71,4.66,14.47,1.9,6.64,1.66-6.64,3.71-14.47-3.17-.71v-3.1h10.79V529l-2.24.69q-.72,2.22-1.51,4.79c-.52,1.72-1.06,3.45-1.59,5.2s-1.07,3.46-1.59,5.12l-1.42,4.54c-.42,1.37-.79,2.53-1.11,3.49s-.55,1.61-.69,2a25,25,0,0,1-4.89,8.59A9.06,9.06,0,0,1,259.32,566.35Z"/><path class="cls-1" d="M298.8,553.9v-3.28l3-.48v-32.6l-3.66-.61v-2.85l9.5-1.2h.12l1.49,1.15.05,11.5-.39,3.88a14.7,14.7,0,0,1,1.64-1.29,14.4,14.4,0,0,1,2.24-1.26,16.09,16.09,0,0,1,2.72-1,12.16,12.16,0,0,1,3.11-.38,10.23,10.23,0,0,1,4,.66,5.48,5.48,0,0,1,2.48,2,9.06,9.06,0,0,1,1.29,3.46,28.27,28.27,0,0,1,.38,4.94v13.53l3.44.48v3.28H316.5v-3.18l2.71-.53V536.54a22.2,22.2,0,0,0-.17-2.92,5.28,5.28,0,0,0-.65-2,2.92,2.92,0,0,0-1.32-1.16,5.16,5.16,0,0,0-2.16-.38,7.83,7.83,0,0,0-1.56.17,12.6,12.6,0,0,0-1.55.43,10.5,10.5,0,0,0-1.4.58,7.06,7.06,0,0,0-1.1.67v18.22l3.34.48v3.28Z"/><path class="cls-1" d="M345.87,554.46a14.73,14.73,0,0,1-5.92-1.08,10.77,10.77,0,0,1-4.08-3,12.24,12.24,0,0,1-2.35-4.57,21.07,21.07,0,0,1-.76-5.82,18.18,18.18,0,0,1,1-6.11,13.12,13.12,0,0,1,2.73-4.59,11.52,11.52,0,0,1,4.22-2.89,14.36,14.36,0,0,1,5.47-1q10.13,0,10.57,9.88c0,1.13,0,2.14,0,3a14.4,14.4,0,0,1-.26,2.29H340.5a15.11,15.11,0,0,0,.71,4.12,8.09,8.09,0,0,0,1.53,2.78,5.67,5.67,0,0,0,2.26,1.57,8.27,8.27,0,0,0,2.87.49,13,13,0,0,0,2.32-.2,14.85,14.85,0,0,0,2-.49,11,11,0,0,0,1.66-.66,12,12,0,0,0,1.28-.71l1.27,3a9.32,9.32,0,0,1-1.7,1.33,16,16,0,0,1-2.49,1.28,19.79,19.79,0,0,1-3,1A14.2,14.2,0,0,1,345.87,554.46Zm-.66-25.78a4.54,4.54,0,0,0-1.77.34,3.3,3.3,0,0,0-1.44,1.29,8.46,8.46,0,0,0-1,2.65,24.34,24.34,0,0,0-.5,4.38h8.77c0-.08,0-.19,0-.34s0-.3,0-.46,0-.32,0-.47v-.31a19.79,19.79,0,0,0-.17-2.53,8.35,8.35,0,0,0-.63-2.28,4.35,4.35,0,0,0-1.24-1.64A3.18,3.18,0,0,0,345.21,528.68Z"/><path class="cls-1" d="M360.05,546.47a7.48,7.48,0,0,1,.65-3.19,8,8,0,0,1,1.78-2.45,11,11,0,0,1,2.68-1.78,19.13,19.13,0,0,1,3.32-1.21,25.38,25.38,0,0,1,3.71-.69c1.28-.15,2.57-.24,3.85-.27v-1.17a5.62,5.62,0,0,0-1.13-4,5,5,0,0,0-3.72-1.18,18.18,18.18,0,0,0-2.65.2c-.89.14-1.74.31-2.55.52a21.75,21.75,0,0,0-2.26.68q-1,.38-1.77.72h0l-1.44-3.27a12.29,12.29,0,0,1,1.74-1.09,21.17,21.17,0,0,1,2.93-1.3,27.91,27.91,0,0,1,3.78-1.1,19.47,19.47,0,0,1,4.27-.47,15.8,15.8,0,0,1,4.61.59,7.05,7.05,0,0,1,3.07,1.81,7.18,7.18,0,0,1,1.73,3.09,15.5,15.5,0,0,1,.55,4.4v15.24h3v3c-.31.06-.69.15-1.15.26s-1,.2-1.51.29-1.15.16-1.78.23-1.29.1-2,.1a12.8,12.8,0,0,1-1.5-.08,2,2,0,0,1-1-.34,1.54,1.54,0,0,1-.55-.77,4.39,4.39,0,0,1-.17-1.35V550.5a9.52,9.52,0,0,1-1.15,1.25,9.66,9.66,0,0,1-1.76,1.29,10.55,10.55,0,0,1-2.36,1,9.89,9.89,0,0,1-2.91.41,11,11,0,0,1-3.24-.47,7.1,7.1,0,0,1-2.65-1.44,6.78,6.78,0,0,1-1.8-2.49A8.92,8.92,0,0,1,360.05,546.47Zm11.6,3.28a4.29,4.29,0,0,0,1-.13,8,8,0,0,0,1.17-.34,9.06,9.06,0,0,0,1.2-.52,5.23,5.23,0,0,0,1-.7V540a15.3,15.3,0,0,0-4,.44,7.2,7.2,0,0,0-2.55,1.17,4.17,4.17,0,0,0-1.36,1.69,5.09,5.09,0,0,0-.4,2,4.9,4.9,0,0,0,1,3.31A3.62,3.62,0,0,0,371.65,549.75Z"/><path class="cls-1" d="M389.18,553.9v-3.28l3.52-.46v-18.8l-3.32-1v-3.69l8.34-1.2h.15l1.3,1v2l0,3.81h.1a10.69,10.69,0,0,1,1.06-2,13.26,13.26,0,0,1,1.91-2.29,11.26,11.26,0,0,1,2.61-1.91,6.75,6.75,0,0,1,3.21-.79,8.5,8.5,0,0,1,1.16.06,3.89,3.89,0,0,1,.67.16v8.45a4.77,4.77,0,0,0-1.4-.43,15.44,15.44,0,0,0-4.41-.13c-.57.06-1.1.15-1.6.25a9.27,9.27,0,0,0-1.33.38,4.56,4.56,0,0,0-.91.44v15.58l6.08.58v3.18Z"/><path class="cls-1" d="M415.74,548v-18H412.3v-2.78l.62-.21.88-.33.82-.33a3,3,0,0,0,.46-.23,7.59,7.59,0,0,0,1.74-2.35c.16-.32.34-.7.53-1.13s.39-.88.58-1.36.36-.94.52-1.4.3-.88.42-1.26h4.34l.08,7.23h7.17v4.15h-7.17v13.52c0,1.31,0,2.34.06,3.1a6,6,0,0,0,.29,1.74,1.17,1.17,0,0,0,.72.75,4,4,0,0,0,1.34.18h0a9,9,0,0,0,1.23-.1c.43-.07.86-.14,1.27-.23s.8-.19,1.15-.3.64-.2.86-.28h0l1.15,2.86a12.86,12.86,0,0,1-1.8,1.12,18.09,18.09,0,0,1-2.34,1,20.28,20.28,0,0,1-2.71.73,15.42,15.42,0,0,1-2.87.28h-.05a8,8,0,0,1-2.75-.42,4.24,4.24,0,0,1-1.83-1.23,5.15,5.15,0,0,1-1-2A10.9,10.9,0,0,1,415.74,548Z"/><path class="cls-1" d="M434.44,552.33v-6.86h4.5l1.27,3.81a2.59,2.59,0,0,0,.67.64,5.11,5.11,0,0,0,1.07.56,8.3,8.3,0,0,0,1.4.4A8,8,0,0,0,445,551a5.81,5.81,0,0,0,2-.29,3.67,3.67,0,0,0,1.23-.75,2.41,2.41,0,0,0,.64-1,4.11,4.11,0,0,0,.17-1.11,3,3,0,0,0-.53-1.77,5.1,5.1,0,0,0-1.49-1.37,15.18,15.18,0,0,0-2.33-1.21l-3-1.27a17.86,17.86,0,0,1-3-1.53,10.25,10.25,0,0,1-2.28-1.89,7.73,7.73,0,0,1-1.46-2.34,7.86,7.86,0,0,1-.51-2.91,7.26,7.26,0,0,1,.72-3.21,7.13,7.13,0,0,1,2.14-2.56,10.84,10.84,0,0,1,3.51-1.71,17.33,17.33,0,0,1,4.86-.62,19,19,0,0,1,2.87.19q1.26.2,2.28.45c.69.18,1.31.36,1.88.54a12.32,12.32,0,0,0,1.66.43v6.74l-4.25-.08-1.14-3.24a3.35,3.35,0,0,0-1.3-1.09,5.17,5.17,0,0,0-2.41-.55,5.79,5.79,0,0,0-1.85.25,3.16,3.16,0,0,0-1.19.66,2.33,2.33,0,0,0-.65.91,2.75,2.75,0,0,0-.2,1,3.21,3.21,0,0,0,.66,2.09,5.62,5.62,0,0,0,1.66,1.38,14.34,14.34,0,0,0,2.2,1c.8.28,1.55.59,2.27.92,1.08.47,2.1,1,3.08,1.5a13,13,0,0,1,2.6,1.84,8.09,8.09,0,0,1,1.8,2.43,7.38,7.38,0,0,1,.68,3.28,7.87,7.87,0,0,1-.7,3.3,7.15,7.15,0,0,1-2.1,2.64,10.45,10.45,0,0,1-3.52,1.75,16.92,16.92,0,0,1-4.94.64,21.28,21.28,0,0,1-3.53-.27c-1.06-.18-2-.39-2.9-.62s-1.65-.48-2.33-.71A18,18,0,0,0,434.44,552.33Z"/><path class="cls-2" d="M476.39,552.33v-6.86h4.49l1.27,3.81a2.59,2.59,0,0,0,.67.64,5.11,5.11,0,0,0,1.07.56,8.42,8.42,0,0,0,1.41.4,7.84,7.84,0,0,0,1.63.16,5.77,5.77,0,0,0,2-.29,3.62,3.62,0,0,0,1.24-.75,2.39,2.39,0,0,0,.63-1,4.11,4.11,0,0,0,.17-1.11,3,3,0,0,0-.52-1.77,5.23,5.23,0,0,0-1.49-1.37,15.66,15.66,0,0,0-2.33-1.21l-3-1.27a18.64,18.64,0,0,1-3-1.53,10.72,10.72,0,0,1-2.28-1.89,7.6,7.6,0,0,1-2-5.25,7,7,0,0,1,2.86-5.77,10.9,10.9,0,0,1,3.52-1.71,17.21,17.21,0,0,1,4.85-.62,18.9,18.9,0,0,1,2.87.19c.84.13,1.6.28,2.29.45s1.3.36,1.88.54a12,12,0,0,0,1.66.43v6.74l-4.25-.08-1.15-3.24a3.38,3.38,0,0,0-1.29-1.09,5.21,5.21,0,0,0-2.42-.55,5.72,5.72,0,0,0-1.84.25,3.13,3.13,0,0,0-1.2.66,2.44,2.44,0,0,0-.65.91,2.74,2.74,0,0,0-.19,1,3.21,3.21,0,0,0,.66,2.09,5.49,5.49,0,0,0,1.66,1.38,14.22,14.22,0,0,0,2.19,1c.8.28,1.56.59,2.27.92,1.08.47,2.1,1,3.08,1.5a12.77,12.77,0,0,1,2.6,1.84,8.12,8.12,0,0,1,1.81,2.43,7.52,7.52,0,0,1,.67,3.28,7.72,7.72,0,0,1-.7,3.3,7.15,7.15,0,0,1-2.1,2.64,10.31,10.31,0,0,1-3.51,1.75,17,17,0,0,1-4.95.64,21.16,21.16,0,0,1-3.52-.27c-1.07-.18-2-.39-2.91-.62s-1.65-.48-2.33-.71A18,18,0,0,0,476.39,552.33Z"/><path class="cls-2" d="M504.71,548v-18h-3.45v-2.78l.63-.21.88-.33.81-.33a3.36,3.36,0,0,0,.47-.23,7.59,7.59,0,0,0,1.73-2.35c.16-.32.34-.7.54-1.13s.39-.88.57-1.36.36-.94.53-1.4.3-.88.41-1.26h4.35l.07,7.23h7.18v4.15h-7.18v13.52c0,1.31,0,2.34.06,3.1a6,6,0,0,0,.29,1.74,1.21,1.21,0,0,0,.73.75,4,4,0,0,0,1.34.18h0a9,9,0,0,0,1.23-.1c.44-.07.86-.14,1.27-.23s.8-.19,1.15-.3.64-.2.87-.28h0l1.15,2.86a13.31,13.31,0,0,1-1.79,1.12,17.66,17.66,0,0,1-2.35,1,19.49,19.49,0,0,1-2.71.73,15.42,15.42,0,0,1-2.87.28h0a8,8,0,0,1-2.75-.42,4.13,4.13,0,0,1-1.83-1.23,5.16,5.16,0,0,1-1-2A10.93,10.93,0,0,1,504.71,548Z"/><path class="cls-2" d="M522.19,546.47a7.48,7.48,0,0,1,.64-3.19,8,8,0,0,1,1.79-2.45,10.72,10.72,0,0,1,2.67-1.78,19.44,19.44,0,0,1,3.32-1.21,25.89,25.89,0,0,1,3.71-.69c1.29-.15,2.57-.24,3.86-.27v-1.17a5.62,5.62,0,0,0-1.14-4,5,5,0,0,0-3.72-1.18,18.29,18.29,0,0,0-2.65.2c-.89.14-1.74.31-2.55.52a22.51,22.51,0,0,0-2.26.68q-1,.38-1.77.72h0l-1.44-3.27a12.66,12.66,0,0,1,1.73-1.09,21.17,21.17,0,0,1,2.93-1.3,28.34,28.34,0,0,1,3.78-1.1,19.56,19.56,0,0,1,4.28-.47,15.73,15.73,0,0,1,4.6.59,7.09,7.09,0,0,1,3.08,1.81,7.4,7.4,0,0,1,1.73,3.09,15.87,15.87,0,0,1,.55,4.4v15.24h3v3l-1.14.26c-.46.1-1,.2-1.52.29s-1.14.16-1.78.23-1.28.1-1.95.1a12.55,12.55,0,0,1-1.5-.08,2,2,0,0,1-1-.34,1.43,1.43,0,0,1-.55-.77,4.11,4.11,0,0,1-.17-1.35V550.5a9.52,9.52,0,0,1-1.15,1.25A10.12,10.12,0,0,1,535.8,553a10.36,10.36,0,0,1-2.36,1,9.87,9.87,0,0,1-2.9.41,11,11,0,0,1-3.25-.47,7.18,7.18,0,0,1-2.65-1.44,6.75,6.75,0,0,1-1.79-2.49A8.92,8.92,0,0,1,522.19,546.47Zm11.59,3.28a4.37,4.37,0,0,0,1-.13,8.83,8.83,0,0,0,1.17-.34,9.54,9.54,0,0,0,1.19-.52,5.31,5.31,0,0,0,1-.7V540a15.38,15.38,0,0,0-4,.44,7.29,7.29,0,0,0-2.55,1.17,4.25,4.25,0,0,0-1.36,1.69,5.27,5.27,0,0,0-.4,2,4.9,4.9,0,0,0,1,3.31A3.62,3.62,0,0,0,533.78,549.75Z"/><path class="cls-2" d="M551.31,553.9v-3.28l3.52-.46v-18.8l-3.32-1v-3.69l8.35-1.2H560l1.3,1v2l0,3.81h.1a11.34,11.34,0,0,1,1.06-2,13.73,13.73,0,0,1,1.91-2.29,11.48,11.48,0,0,1,2.61-1.91,6.78,6.78,0,0,1,3.21-.79,8.4,8.4,0,0,1,1.16.06,3.89,3.89,0,0,1,.67.16v8.45a4.77,4.77,0,0,0-1.4-.43,15.44,15.44,0,0,0-4.41-.13c-.57.06-1.1.15-1.6.25a9.66,9.66,0,0,0-1.33.38,4.18,4.18,0,0,0-.9.44v15.58l6.08.58v3.18Z"/><path class="cls-2" d="M577.88,548v-18h-3.45v-2.78l.63-.21.88-.33.81-.33a3.36,3.36,0,0,0,.47-.23,7.59,7.59,0,0,0,1.73-2.35c.16-.32.34-.7.54-1.13s.38-.88.57-1.36.36-.94.53-1.4.3-.88.41-1.26h4.35l.07,7.23h7.18v4.15h-7.18v13.52c0,1.31,0,2.34.06,3.1a6,6,0,0,0,.29,1.74,1.22,1.22,0,0,0,.72.75,4.07,4.07,0,0,0,1.35.18h0a9,9,0,0,0,1.23-.1c.44-.07.86-.14,1.27-.23s.8-.19,1.15-.3.64-.2.87-.28h0l1.15,2.86a13.31,13.31,0,0,1-1.79,1.12,17.66,17.66,0,0,1-2.35,1,19.88,19.88,0,0,1-2.71.73,15.42,15.42,0,0,1-2.87.28h-.05A7.89,7.89,0,0,1,581,554a4.13,4.13,0,0,1-1.83-1.23,5,5,0,0,1-1-2A10.93,10.93,0,0,1,577.88,548Z"/><path class="cls-2" d="M611.27,553.9v-3.28l3-.48v-32.6l-3.66-.61v-2.85l9.49-1.2h.12l1.49,1.15,0,11.5-.39,3.88a14,14,0,0,1,1.65-1.29,14.28,14.28,0,0,1,2.23-1.26,15.9,15.9,0,0,1,2.73-1,12.1,12.1,0,0,1,3.11-.38,10.21,10.21,0,0,1,3.95.66,5.48,5.48,0,0,1,2.48,2,9.23,9.23,0,0,1,1.3,3.46,28.36,28.36,0,0,1,.37,4.94v13.53l3.45.48v3.28H629v-3.18l2.71-.53V536.54a20.59,20.59,0,0,0-.17-2.92,5.29,5.29,0,0,0-.64-2,2.92,2.92,0,0,0-1.32-1.16,5.16,5.16,0,0,0-2.16-.38,7.68,7.68,0,0,0-1.56.17,12.13,12.13,0,0,0-1.55.43,11.23,11.23,0,0,0-1.41.58,7.57,7.57,0,0,0-1.1.67v18.22l3.35.48v3.28Z"/><path class="cls-2" d="M658.34,554.46a14.8,14.8,0,0,1-5.92-1.08,10.66,10.66,0,0,1-4.07-3,12.26,12.26,0,0,1-2.36-4.57,21.45,21.45,0,0,1-.76-5.82,18.17,18.17,0,0,1,1-6.11,13.1,13.1,0,0,1,2.72-4.59,11.61,11.61,0,0,1,4.22-2.89,14.4,14.4,0,0,1,5.47-1q10.14,0,10.57,9.88c0,1.13,0,2.14,0,3a14.53,14.53,0,0,1-.25,2.29H653a15.11,15.11,0,0,0,.71,4.12,7.94,7.94,0,0,0,1.54,2.78,5.61,5.61,0,0,0,2.26,1.57,8.23,8.23,0,0,0,2.87.49,13,13,0,0,0,2.32-.2,15.65,15.65,0,0,0,2-.49,11,11,0,0,0,1.66-.66,13.11,13.11,0,0,0,1.28-.71l1.27,3a9.68,9.68,0,0,1-1.7,1.33,16,16,0,0,1-2.49,1.28,19.92,19.92,0,0,1-3,1A14.07,14.07,0,0,1,658.34,554.46Zm-.65-25.78a4.47,4.47,0,0,0-1.77.34,3.32,3.32,0,0,0-1.45,1.29,8.72,8.72,0,0,0-1,2.65,22.64,22.64,0,0,0-.5,4.38h8.76c0-.08,0-.19,0-.34s0-.3,0-.46,0-.32,0-.47v-.31a18.12,18.12,0,0,0-.17-2.53A8,8,0,0,0,661,531a4.38,4.38,0,0,0-1.25-1.64A3.14,3.14,0,0,0,657.69,528.68Z"/><path class="cls-2" d="M673.16,553.9v-3.28l3.52-.46v-18.8l-3.32-1v-3.69l8.35-1.2h.15l1.29,1v2l0,3.81h.1a10.84,10.84,0,0,1,1.07-2,13.19,13.19,0,0,1,1.9-2.29,11.7,11.7,0,0,1,2.61-1.91,6.81,6.81,0,0,1,3.21-.79,8.4,8.4,0,0,1,1.16.06,3.89,3.89,0,0,1,.67.16v8.45a4.66,4.66,0,0,0-1.4-.43,15.44,15.44,0,0,0-4.41-.13c-.57.06-1.1.15-1.6.25a9.66,9.66,0,0,0-1.33.38,4.18,4.18,0,0,0-.9.44v15.58l6.08.58v3.18Z"/><path class="cls-2" d="M709.74,554.46a14.73,14.73,0,0,1-5.92-1.08,10.62,10.62,0,0,1-4.08-3,12.26,12.26,0,0,1-2.36-4.57,21.46,21.46,0,0,1-.75-5.82,18.18,18.18,0,0,1,1-6.11,13.1,13.1,0,0,1,2.72-4.59,11.56,11.56,0,0,1,4.23-2.89,14.31,14.31,0,0,1,5.46-1q10.14,0,10.58,9.88c0,1.13,0,2.14,0,3a14.53,14.53,0,0,1-.25,2.29H704.37a15.14,15.14,0,0,0,.7,4.12,8.1,8.1,0,0,0,1.54,2.78,5.67,5.67,0,0,0,2.26,1.57,8.27,8.27,0,0,0,2.87.49,13,13,0,0,0,2.32-.2,15.24,15.24,0,0,0,2-.49,11,11,0,0,0,1.66-.66,13.11,13.11,0,0,0,1.28-.71l1.27,3a9.32,9.32,0,0,1-1.7,1.33,16,16,0,0,1-2.49,1.28,19.57,19.57,0,0,1-3,1A14,14,0,0,1,709.74,554.46Zm-.66-25.78a4.47,4.47,0,0,0-1.77.34,3.24,3.24,0,0,0-1.44,1.29,8.46,8.46,0,0,0-1,2.65,23.46,23.46,0,0,0-.5,4.38h8.77c0-.08,0-.19,0-.34s0-.3,0-.46,0-.32,0-.47v-.31a18.12,18.12,0,0,0-.17-2.53,8,8,0,0,0-.62-2.28,4.46,4.46,0,0,0-1.24-1.64A3.18,3.18,0,0,0,709.08,528.68Z"/><path class="cls-2" d="M730.76,554.31a5,5,0,0,1-1.64-.27,4.11,4.11,0,0,1-1.37-.78,3.62,3.62,0,0,1-.92-1.23,3.7,3.7,0,0,1-.35-1.62,4.21,4.21,0,0,1,.4-1.85,4.56,4.56,0,0,1,1.07-1.48,4.78,4.78,0,0,1,1.59-1,5.12,5.12,0,0,1,1.92-.36,5.73,5.73,0,0,1,2,.32,3.85,3.85,0,0,1,1.36.85,3.15,3.15,0,0,1,.75,1.25,5.1,5.1,0,0,1-.14,3.42,4.44,4.44,0,0,1-1.05,1.46,4.68,4.68,0,0,1-1.61.94A6.15,6.15,0,0,1,730.76,554.31Z"/></svg>