<svg id="Layer_1" data-name="Layer 1" xmlns="http://www.w3.org/2000/svg" viewBox="0 0 300 600"><defs><style>.cls-1{fill:#fff;}.cls-2{fill:#f1b533;}</style></defs><path class="cls-1" d="M38,496.29l-6.18-20L30,475.82v-2h9.14v2l-2.47.46,3.7,13.38.57,3,.57-3,3.2-10.75-.87-2.64-2-.45v-2h9.35v2l-2.58.46,3.67,13.38.68,3.25.57-3.25,3.5-13.38-2.8-.46v-2h7.58v2l-2,.46-5.86,20H49.86l-4-13.46L42,496.29Z"/><path class="cls-1" d="M70.06,496.48a8.9,8.9,0,0,1-3.55-.64,6.57,6.57,0,0,1-2.45-1.79,7.4,7.4,0,0,1-1.41-2.75,12.87,12.87,0,0,1-.45-3.49,10.79,10.79,0,0,1,.58-3.67,7.85,7.85,0,0,1,1.63-2.75,7,7,0,0,1,2.53-1.74,8.67,8.67,0,0,1,3.28-.6q6.09,0,6.35,5.94c0,.67,0,1.28,0,1.82a9.22,9.22,0,0,1-.15,1.37H66.84a8.84,8.84,0,0,0,.43,2.47,4.75,4.75,0,0,0,.92,1.67,3.31,3.31,0,0,0,1.35.94,4.82,4.82,0,0,0,1.72.29,7.72,7.72,0,0,0,1.4-.11,9.39,9.39,0,0,0,1.19-.3,6.13,6.13,0,0,0,1-.39c.29-.15.55-.29.77-.43l.76,1.78a6.36,6.36,0,0,1-1,.8,10.34,10.34,0,0,1-1.49.76,12.12,12.12,0,0,1-1.82.59A8.27,8.27,0,0,1,70.06,496.48ZM69.67,481a2.63,2.63,0,0,0-1.06.2,2,2,0,0,0-.87.78,5,5,0,0,0-.61,1.59,13.26,13.26,0,0,0-.3,2.63h5.25c0-.05,0-.12,0-.21s0-.18,0-.28v-.47a11.15,11.15,0,0,0-.1-1.51,5,5,0,0,0-.37-1.37,2.55,2.55,0,0,0-.75-1A1.85,1.85,0,0,0,69.67,481Z"/><path class="cls-1" d="M88,496.15v-2l1.9-.27V474.34L87.79,474v-1.71l5.67-.72h0l.92.69v13.11l-.07,2.27,5.7-5.86-2.29-.4v-2H106v2l-2.73.53-3.63,3.33,5.65,8.68,1.8.29v2H98.83v-2l1.48-.32-3.59-6.12L94.35,490l.07,1.75v2.12l2,.29v2Z"/><path class="cls-1" d="M108.37,496.15v-2l1.89-.29V482.63l-2-.62V479.8l5.24-.72h.07l.78.63v1.75a7.73,7.73,0,0,1,1.14-.87,10.16,10.16,0,0,1,1.43-.75,11.37,11.37,0,0,1,1.62-.52,7.66,7.66,0,0,1,1.71-.19,6.6,6.6,0,0,1,2.35.36,3.22,3.22,0,0,1,1.51,1.17,5.42,5.42,0,0,1,.79,2.08,17.64,17.64,0,0,1,.23,3.05v8.12l2.08.27v2H119v-2l1.6-.27v-8.18a12.82,12.82,0,0,0-.1-1.75,3.25,3.25,0,0,0-.38-1.21,1.65,1.65,0,0,0-.74-.69,2.9,2.9,0,0,0-1.23-.23,4.67,4.67,0,0,0-1,.11,5.37,5.37,0,0,0-.91.29,5.26,5.26,0,0,0-.79.38q-.36.22-.63.42v10.84l2,.29v2Z"/><path class="cls-1" d="M128.69,487.86a10.09,10.09,0,0,1,.69-3.89,7.8,7.8,0,0,1,1.83-2.75,7.38,7.38,0,0,1,2.64-1.64A9.16,9.16,0,0,1,137,479a9,9,0,0,1,3.37.59,6.73,6.73,0,0,1,2.46,1.71,7.51,7.51,0,0,1,1.51,2.71,11.85,11.85,0,0,1,.51,3.62,10.3,10.3,0,0,1-.69,3.95,7.89,7.89,0,0,1-1.83,2.75,7.27,7.27,0,0,1-2.64,1.59,9.29,9.29,0,0,1-3.12.52,8.85,8.85,0,0,1-3.37-.59,6.53,6.53,0,0,1-2.47-1.71,7.36,7.36,0,0,1-1.51-2.71A11.83,11.83,0,0,1,128.69,487.86Zm8.11,6.6a2.59,2.59,0,0,0,1.39-.36,2.66,2.66,0,0,0,1-1.12,6.6,6.6,0,0,0,.57-2,19.76,19.76,0,0,0,.18-2.88,23,23,0,0,0-.17-3,8.41,8.41,0,0,0-.54-2.21,3.26,3.26,0,0,0-1-1.36,2.38,2.38,0,0,0-1.49-.46,2.47,2.47,0,0,0-2.38,1.49,6.48,6.48,0,0,0-.59,2,18.19,18.19,0,0,0-.19,2.87,24.9,24.9,0,0,0,.17,3,8.52,8.52,0,0,0,.57,2.22,3.39,3.39,0,0,0,1,1.35A2.4,2.4,0,0,0,136.8,494.46Z"/><path class="cls-1" d="M152.14,496.38l-4.86-14.73-1.63-.41v-1.88H154v1.86l-2.29.43,2,7.64.76,3.4.73-3.4,2.87-9.93h3.84l2.91,9.93.74,3.25.67-3.23,2.08-7.65-2.36-.44v-1.86H173v1.86l-1.75.43-4.57,14.73h-3.66L160,486.66l-.63-2.63-.56,2.63-3,9.72Z"/><path class="cls-1" d="M188.42,496.38l-4.86-14.73-1.63-.41v-1.88h8.35v1.86l-2.28.43,2,7.64.76,3.4.73-3.4,2.87-9.93h3.84l2.92,9.93.73,3.25.67-3.23,2.08-7.65-2.35-.44v-1.86h7v1.86l-1.74.43L203,496.38h-3.66l-3.07-9.72-.63-2.63-.55,2.63-3,9.72Z"/><path class="cls-1" d="M210,496.15v-2l1.8-.29V474.34l-2.19-.37v-1.71l5.69-.72h.08l.89.69,0,6.9-.23,2.33a8,8,0,0,1,1-.78,10,10,0,0,1,1.34-.76,10.51,10.51,0,0,1,1.64-.57,7.55,7.55,0,0,1,1.87-.22,6.25,6.25,0,0,1,2.37.39,3.37,3.37,0,0,1,1.49,1.22,5.49,5.49,0,0,1,.77,2.07,17,17,0,0,1,.23,3v8.11l2.06.29v2h-8.2v-1.91l1.63-.32v-8.19a12.68,12.68,0,0,0-.11-1.75,3.08,3.08,0,0,0-.38-1.21,1.74,1.74,0,0,0-.8-.69,3.14,3.14,0,0,0-1.29-.23,4.42,4.42,0,0,0-.94.1,9.07,9.07,0,0,0-.93.26,6.41,6.41,0,0,0-.84.35,4.77,4.77,0,0,0-.66.4v10.93l2,.29v2Z"/><path class="cls-1" d="M230.23,491.69a4.43,4.43,0,0,1,.39-1.91,4.56,4.56,0,0,1,1.07-1.47,6.3,6.3,0,0,1,1.6-1.07,12,12,0,0,1,2-.72,16,16,0,0,1,2.23-.42c.77-.09,1.54-.14,2.31-.16v-.71a3.37,3.37,0,0,0-.68-2.38,3,3,0,0,0-2.23-.71,10.65,10.65,0,0,0-1.59.13,14.27,14.27,0,0,0-1.53.31,11.5,11.5,0,0,0-1.36.41c-.41.15-.76.29-1.06.43h0l-.87-2a7.48,7.48,0,0,1,1-.66,14.3,14.3,0,0,1,1.76-.78,18.71,18.71,0,0,1,2.27-.66,11.48,11.48,0,0,1,2.56-.28,9.63,9.63,0,0,1,2.77.35,4.11,4.11,0,0,1,2.88,2.94,9.42,9.42,0,0,1,.33,2.64v9.15h1.82V496l-.69.15-.91.18-1.07.14c-.38,0-.77.05-1.17.05a7.82,7.82,0,0,1-.9,0,1.37,1.37,0,0,1-.6-.2,1,1,0,0,1-.33-.47,2.54,2.54,0,0,1-.1-.81v-.85a6.32,6.32,0,0,1-.69.75,6,6,0,0,1-1.06.77,6.33,6.33,0,0,1-1.42.61,6,6,0,0,1-1.74.24,6.86,6.86,0,0,1-2-.27,4.56,4.56,0,0,1-1.59-.87,4.24,4.24,0,0,1-1.08-1.49A5.48,5.48,0,0,1,230.23,491.69Zm7,2a2.92,2.92,0,0,0,.6-.08,4.15,4.15,0,0,0,.7-.2,5.1,5.1,0,0,0,.72-.32,3.09,3.09,0,0,0,.61-.41V487.8a9.44,9.44,0,0,0-2.38.26,4.54,4.54,0,0,0-1.53.7,2.52,2.52,0,0,0-.81,1,3.07,3.07,0,0,0-.24,1.21,3,3,0,0,0,.59,2A2.21,2.21,0,0,0,237.19,493.66Z"/><path class="cls-1" d="M249.3,492.63V481.85h-2.06v-1.67l.37-.12.53-.2.49-.2a1.72,1.72,0,0,0,.28-.14,4.71,4.71,0,0,0,1-1.4l.32-.69c.12-.25.23-.53.34-.81s.22-.56.32-.84.18-.53.25-.76h2.6l.05,4.34h4.3v2.49h-4.3V490c0,.78,0,1.4,0,1.86a3.48,3.48,0,0,0,.17,1,.74.74,0,0,0,.43.45,2.54,2.54,0,0,0,.81.1h0a4.81,4.81,0,0,0,.74-.06c.26,0,.51-.08.76-.13l.69-.18.52-.17h0l.69,1.71a8.47,8.47,0,0,1-1.08.68,10.3,10.3,0,0,1-1.41.61,12.77,12.77,0,0,1-1.62.44,9.1,9.1,0,0,1-1.72.16h0a5,5,0,0,1-1.65-.24,2.64,2.64,0,0,1-1.1-.74,3.07,3.07,0,0,1-.61-1.21A6.83,6.83,0,0,1,249.3,492.63Z"/><path class="cls-1" d="M31.74,532.15v-2l1.8-.29V510.34L31.35,510v-1.71l5.7-.72h.07l.89.69,0,6.9-.23,2.33a7.44,7.44,0,0,1,1-.78,8.89,8.89,0,0,1,1.34-.76,10,10,0,0,1,1.63-.57,7.55,7.55,0,0,1,1.87-.22,6.21,6.21,0,0,1,2.37.39,3.31,3.31,0,0,1,1.49,1.22,5.49,5.49,0,0,1,.77,2.07,17,17,0,0,1,.23,3v8.11l2.07.29v2H42.36v-1.91l1.63-.32v-8.19a12.82,12.82,0,0,0-.1-1.75,3.25,3.25,0,0,0-.39-1.21,1.76,1.76,0,0,0-.79-.69,3.22,3.22,0,0,0-1.3-.23,4.49,4.49,0,0,0-.94.1,9.07,9.07,0,0,0-.93.26,7,7,0,0,0-.84.35,4.77,4.77,0,0,0-.66.4v10.93l2,.29v2Z"/><path class="cls-1" d="M60,532.48a8.92,8.92,0,0,1-3.56-.64A6.54,6.54,0,0,1,54,530.05a7.57,7.57,0,0,1-1.42-2.75,12.87,12.87,0,0,1-.45-3.49,10.79,10.79,0,0,1,.58-3.67,7.85,7.85,0,0,1,1.63-2.75,6.94,6.94,0,0,1,2.54-1.74,8.63,8.63,0,0,1,3.28-.6q6.08,0,6.34,5.94c0,.67,0,1.28,0,1.82a8.05,8.05,0,0,1-.15,1.37H56.76a8.84,8.84,0,0,0,.43,2.47,4.75,4.75,0,0,0,.92,1.67,3.31,3.31,0,0,0,1.35.94,4.83,4.83,0,0,0,1.73.29,7.68,7.68,0,0,0,1.39-.11,9,9,0,0,0,1.19-.3,6.13,6.13,0,0,0,1-.39,8.53,8.53,0,0,0,.77-.43l.76,1.78a6.36,6.36,0,0,1-1,.8,9.85,9.85,0,0,1-1.49.76,12.12,12.12,0,0,1-1.82.59A8.24,8.24,0,0,1,60,532.48ZM59.59,517a2.63,2.63,0,0,0-1.06.2,2,2,0,0,0-.87.78,5,5,0,0,0-.61,1.59,14.06,14.06,0,0,0-.3,2.63H62V522c0-.09,0-.18,0-.28s0-.19,0-.28v-.19a11.19,11.19,0,0,0-.11-1.51,4.66,4.66,0,0,0-.37-1.37,2.55,2.55,0,0,0-.75-1A1.84,1.84,0,0,0,59.59,517Z"/><path class="cls-1" d="M68.5,527.69a4.43,4.43,0,0,1,.38-1.91A4.71,4.71,0,0,1,70,524.31a6.36,6.36,0,0,1,1.61-1.07,11.68,11.68,0,0,1,2-.72,15.45,15.45,0,0,1,2.23-.42c.77-.09,1.54-.14,2.31-.16v-.71a3.42,3.42,0,0,0-.68-2.38,3,3,0,0,0-2.23-.71,10.65,10.65,0,0,0-1.59.13,13.34,13.34,0,0,0-1.53.31,11.5,11.5,0,0,0-1.36.41c-.41.15-.77.29-1.06.43h0l-.86-2a6.91,6.91,0,0,1,1-.66,13.65,13.65,0,0,1,1.76-.78,18.71,18.71,0,0,1,2.27-.66,11.41,11.41,0,0,1,2.56-.28,9.51,9.51,0,0,1,2.76.35A4.36,4.36,0,0,1,81,516.52a4.41,4.41,0,0,1,1,1.85,9.42,9.42,0,0,1,.33,2.64v9.15h1.81V532l-.68.15-.91.18-1.07.14c-.38,0-.77.05-1.17.05a7.82,7.82,0,0,1-.9,0,1.37,1.37,0,0,1-.6-.2.85.85,0,0,1-.33-.47,2.51,2.51,0,0,1-.11-.81v-.85a5,5,0,0,1-.69.75,5.69,5.69,0,0,1-1.06.77,6.09,6.09,0,0,1-3.15.85,6.76,6.76,0,0,1-2-.27,4.39,4.39,0,0,1-1.59-.87,4.12,4.12,0,0,1-1.08-1.49A5.48,5.48,0,0,1,68.5,527.69Zm7,2a2.76,2.76,0,0,0,.6-.08,4.25,4.25,0,0,0,.71-.2,5.67,5.67,0,0,0,.72-.32,3.09,3.09,0,0,0,.61-.41V523.8a9.39,9.39,0,0,0-2.38.26,4.54,4.54,0,0,0-1.53.7,2.52,2.52,0,0,0-.81,1,3.08,3.08,0,0,0-.25,1.21,2.94,2.94,0,0,0,.6,2A2.17,2.17,0,0,0,75.45,529.66Z"/><path class="cls-1" d="M86,532.15v-2l2.11-.27V518.63l-2-.62V515.8l5-.72h.09l.77.63v3.5H92a6.71,6.71,0,0,1,.63-1.18,8,8,0,0,1,1.15-1.37,6.7,6.7,0,0,1,1.56-1.15,4.11,4.11,0,0,1,1.93-.47,4.23,4.23,0,0,1,.7,0,1.83,1.83,0,0,1,.4.09v5.07a2.93,2.93,0,0,0-.84-.26,8.5,8.5,0,0,0-1.62-.14,8.89,8.89,0,0,0-1,.06,8.73,8.73,0,0,0-1,.16,5.12,5.12,0,0,0-.8.22,2.69,2.69,0,0,0-.54.27v9.34l3.65.35v1.91Z"/><path class="cls-1" d="M101.91,528.63V517.85H99.84v-1.67l.38-.12.52-.2.5-.2a1.49,1.49,0,0,0,.27-.14,4.39,4.39,0,0,0,1-1.4l.33-.69c.11-.25.23-.53.34-.81s.22-.56.32-.84.18-.53.24-.76h2.61l0,4.34h4.3v2.49h-4.3V526q0,1.17,0,1.86a3.43,3.43,0,0,0,.18,1,.71.71,0,0,0,.43.45,2.5,2.5,0,0,0,.81.1h0a4.91,4.91,0,0,0,.74-.06c.26,0,.51-.08.76-.13l.69-.18.52-.17h0l.69,1.71a7.66,7.66,0,0,1-1.07.68,11.49,11.49,0,0,1-1.41.61,12.77,12.77,0,0,1-1.62.44,9.21,9.21,0,0,1-1.73.16h0a4.94,4.94,0,0,1-1.64-.24,2.64,2.64,0,0,1-1.1-.74,3.07,3.07,0,0,1-.61-1.21A6.37,6.37,0,0,1,101.91,528.63Z"/><path class="cls-1" d="M122,532.15v-2l1.8-.29V510.34l-2.2-.37v-1.71l5.7-.72h.07l.9.69,0,6.9-.24,2.33a9,9,0,0,1,1-.78,9.41,9.41,0,0,1,1.34-.76,10.39,10.39,0,0,1,1.63-.57,7.66,7.66,0,0,1,1.87-.22,6.27,6.27,0,0,1,2.38.39,3.29,3.29,0,0,1,1.48,1.22,5.33,5.33,0,0,1,.78,2.07,17,17,0,0,1,.23,3v8.11l2.06.29v2h-8.2v-1.91l1.62-.32v-8.19a12.82,12.82,0,0,0-.1-1.75,3.25,3.25,0,0,0-.39-1.21,1.71,1.71,0,0,0-.79-.69,3.17,3.17,0,0,0-1.29-.23,4.36,4.36,0,0,0-.94.1,9.07,9.07,0,0,0-.93.26,6.41,6.41,0,0,0-.84.35,3.81,3.81,0,0,0-.66.4v10.93l2,.29v2Z"/><path class="cls-1" d="M150.19,532.48a8.87,8.87,0,0,1-3.55-.64,6.57,6.57,0,0,1-2.45-1.79,7.4,7.4,0,0,1-1.41-2.75,12.87,12.87,0,0,1-.46-3.49,11,11,0,0,1,.58-3.67,7.87,7.87,0,0,1,1.64-2.75,6.9,6.9,0,0,1,2.53-1.74,8.67,8.67,0,0,1,3.28-.6q6.08,0,6.34,5.94c0,.67,0,1.28,0,1.82a9.08,9.08,0,0,1-.16,1.37H147a9.24,9.24,0,0,0,.42,2.47,4.76,4.76,0,0,0,.93,1.67,3.31,3.31,0,0,0,1.35.94,4.78,4.78,0,0,0,1.72.29,7.61,7.61,0,0,0,1.39-.11,9.56,9.56,0,0,0,1.2-.3,6.38,6.38,0,0,0,1-.39,7.35,7.35,0,0,0,.77-.43l.76,1.78a5.82,5.82,0,0,1-1,.8,10.48,10.48,0,0,1-1.5.76,12,12,0,0,1-1.81.59A8.33,8.33,0,0,1,150.19,532.48Zm-.4-15.46a2.67,2.67,0,0,0-1.06.2,2,2,0,0,0-.86.78,5,5,0,0,0-.62,1.59,14.06,14.06,0,0,0-.3,2.63h5.26a1.79,1.79,0,0,1,0-.21c0-.09,0-.18,0-.28a2.72,2.72,0,0,0,0-.28v-.19a11.15,11.15,0,0,0-.1-1.51,5,5,0,0,0-.37-1.37,2.76,2.76,0,0,0-.75-1A1.88,1.88,0,0,0,149.79,517Z"/><path class="cls-1" d="M158.7,527.69a4.43,4.43,0,0,1,.39-1.91,4.71,4.71,0,0,1,1.07-1.47,6.3,6.3,0,0,1,1.6-1.07,12,12,0,0,1,2-.72,16,16,0,0,1,2.23-.42c.77-.09,1.54-.14,2.32-.16v-.71a3.42,3.42,0,0,0-.68-2.38,3,3,0,0,0-2.24-.71,10.65,10.65,0,0,0-1.59.13,14.27,14.27,0,0,0-1.53.31,10.78,10.78,0,0,0-1.35.41c-.42.15-.77.29-1.07.43h0l-.87-2a8.16,8.16,0,0,1,1-.66,14.3,14.3,0,0,1,1.76-.78,19.26,19.26,0,0,1,2.27-.66,11.5,11.5,0,0,1,2.57-.28,9.6,9.6,0,0,1,2.76.35,4.11,4.11,0,0,1,2.88,2.94,9.42,9.42,0,0,1,.33,2.64v9.15h1.82V532l-.69.15-.91.18-1.07.14c-.38,0-.77.05-1.17.05a7.82,7.82,0,0,1-.9,0,1.37,1.37,0,0,1-.6-.2,1,1,0,0,1-.33-.47,2.54,2.54,0,0,1-.1-.81v-.85a6.32,6.32,0,0,1-.69.75,6,6,0,0,1-1.06.77,6.33,6.33,0,0,1-1.42.61,5.9,5.9,0,0,1-1.74.24,6.86,6.86,0,0,1-2-.27,4.56,4.56,0,0,1-1.59-.87,4.1,4.1,0,0,1-1.07-1.49A5.3,5.3,0,0,1,158.7,527.69Zm7,2a2.84,2.84,0,0,0,.6-.08,4.15,4.15,0,0,0,.7-.2,4.64,4.64,0,0,0,.72-.32,3.18,3.18,0,0,0,.62-.41V523.8a9.33,9.33,0,0,0-2.38.26,4.69,4.69,0,0,0-1.54.7,2.52,2.52,0,0,0-.81,1,3.07,3.07,0,0,0-.24,1.21,3,3,0,0,0,.59,2A2.21,2.21,0,0,0,165.66,529.66Z"/><path class="cls-1" d="M175.72,532.15v-2l2.13-.29V510.34l-2.19-.37v-1.71l5.73-.72h.05l.92.69v21.66l2.21.29v2Z"/><path class="cls-1" d="M188.14,528.63V517.85h-2.06v-1.67l.37-.12.53-.2.49-.2a1.36,1.36,0,0,0,.28-.14,4.54,4.54,0,0,0,1-1.4c.1-.2.2-.43.32-.69s.23-.53.35-.81.21-.56.31-.84.18-.53.25-.76h2.61l0,4.34H197v2.49h-4.31V526c0,.78,0,1.4,0,1.86a3.48,3.48,0,0,0,.17,1,.75.75,0,0,0,.44.45,2.44,2.44,0,0,0,.8.1h0a4.91,4.91,0,0,0,.74-.06c.25,0,.51-.08.76-.13l.69-.18.52-.17h0l.69,1.71a7.26,7.26,0,0,1-1.08.68,10.71,10.71,0,0,1-1.4.61,13.4,13.4,0,0,1-1.63.44,9.1,9.1,0,0,1-1.72.16h0a5,5,0,0,1-1.65-.24,2.71,2.71,0,0,1-1.1-.74,3.21,3.21,0,0,1-.61-1.21A6.83,6.83,0,0,1,188.14,528.63Z"/><path class="cls-1" d="M198.76,532.15v-2l1.81-.29V510.34l-2.2-.37v-1.71l5.7-.72h.07l.89.69,0,6.9-.23,2.33a7.44,7.44,0,0,1,1-.78,8.89,8.89,0,0,1,1.34-.76,10.39,10.39,0,0,1,1.63-.57,7.55,7.55,0,0,1,1.87-.22,6.18,6.18,0,0,1,2.37.39,3.31,3.31,0,0,1,1.49,1.22,5.49,5.49,0,0,1,.77,2.07,16.07,16.07,0,0,1,.23,3v8.11l2.07.29v2h-8.21v-1.91l1.63-.32v-8.19a12.82,12.82,0,0,0-.1-1.75,3.25,3.25,0,0,0-.39-1.21,1.71,1.71,0,0,0-.79-.69,3.22,3.22,0,0,0-1.3-.23,4.33,4.33,0,0,0-.93.1,8.59,8.59,0,0,0-.94.26,7.81,7.81,0,0,0-.84.35,4.77,4.77,0,0,0-.66.4v10.93l2,.29v2Z"/><path class="cls-2" d="M32,568.15v-2l2.11-.27V554.63l-2-.62V551.8l5-.72h.09l.77.63v3.5H38a6.71,6.71,0,0,1,.63-1.18,8,8,0,0,1,1.15-1.37,6.56,6.56,0,0,1,1.57-1.15A4,4,0,0,1,43.3,551a4.23,4.23,0,0,1,.7,0,1.83,1.83,0,0,1,.4.09v5.07a2.93,2.93,0,0,0-.84-.26,8.5,8.5,0,0,0-1.62-.14,8.89,8.89,0,0,0-1,.06,8.73,8.73,0,0,0-1,.16,5,5,0,0,0-.79.22,2.55,2.55,0,0,0-.55.27v9.34l3.65.35v1.91Z"/><path class="cls-2" d="M53.94,568.48a8.92,8.92,0,0,1-3.56-.64,6.54,6.54,0,0,1-2.44-1.79,7.57,7.57,0,0,1-1.42-2.75,12.87,12.87,0,0,1-.45-3.49,10.79,10.79,0,0,1,.58-3.67,7.85,7.85,0,0,1,1.63-2.75,6.94,6.94,0,0,1,2.54-1.74,8.63,8.63,0,0,1,3.28-.6q6.07,0,6.34,5.94c0,.67,0,1.28,0,1.82a8.05,8.05,0,0,1-.15,1.37H50.71a8.84,8.84,0,0,0,.43,2.47,4.75,4.75,0,0,0,.92,1.67,3.28,3.28,0,0,0,1.36.94,4.74,4.74,0,0,0,1.72.29,7.68,7.68,0,0,0,1.39-.11,9,9,0,0,0,1.19-.3,6.13,6.13,0,0,0,1-.39,8.53,8.53,0,0,0,.77-.43l.76,1.78a5.94,5.94,0,0,1-1,.8,9.85,9.85,0,0,1-1.49.76,12.12,12.12,0,0,1-1.82.59A8.24,8.24,0,0,1,53.94,568.48ZM53.54,553a2.63,2.63,0,0,0-1.06.2,2,2,0,0,0-.87.78,5,5,0,0,0-.61,1.59,14.06,14.06,0,0,0-.3,2.63H56V558c0-.09,0-.18,0-.28s0-.19,0-.28v-.19a11.19,11.19,0,0,0-.11-1.51,4.66,4.66,0,0,0-.37-1.37,2.55,2.55,0,0,0-.75-1A1.84,1.84,0,0,0,53.54,553Z"/><path class="cls-2" d="M62.45,563.69a4.58,4.58,0,0,1,.38-1.91,4.71,4.71,0,0,1,1.07-1.47,6.36,6.36,0,0,1,1.61-1.07,11.68,11.68,0,0,1,2-.72,15.71,15.71,0,0,1,2.23-.42c.77-.09,1.54-.14,2.31-.16v-.71a3.42,3.42,0,0,0-.68-2.38,3,3,0,0,0-2.23-.71,10.65,10.65,0,0,0-1.59.13,13.34,13.34,0,0,0-1.53.31,11.5,11.5,0,0,0-1.36.41c-.41.15-.77.29-1.06.43h0l-.86-2a7.48,7.48,0,0,1,1-.66,13.65,13.65,0,0,1,1.76-.78,18.71,18.71,0,0,1,2.27-.66,11.41,11.41,0,0,1,2.56-.28,9.51,9.51,0,0,1,2.76.35A4.36,4.36,0,0,1,75,552.52a4.41,4.41,0,0,1,1,1.85,9.42,9.42,0,0,1,.33,2.64v9.15h1.81V568l-.68.15-.91.18-1.07.14c-.38,0-.77.05-1.17.05a7.82,7.82,0,0,1-.9,0,1.37,1.37,0,0,1-.6-.2.85.85,0,0,1-.33-.47,2.51,2.51,0,0,1-.11-.81v-.85a5,5,0,0,1-.69.75,5.69,5.69,0,0,1-1.06.77,6.09,6.09,0,0,1-3.15.85,6.76,6.76,0,0,1-1.95-.27,4.39,4.39,0,0,1-1.59-.87,4.12,4.12,0,0,1-1.08-1.49A5.48,5.48,0,0,1,62.45,563.69Zm7,2a2.76,2.76,0,0,0,.6-.08,4.25,4.25,0,0,0,.71-.2,5.67,5.67,0,0,0,.72-.32,3.09,3.09,0,0,0,.61-.41V559.8a9.39,9.39,0,0,0-2.38.26,4.54,4.54,0,0,0-1.53.7,2.52,2.52,0,0,0-.81,1,3.07,3.07,0,0,0-.24,1.21,2.94,2.94,0,0,0,.59,2A2.17,2.17,0,0,0,69.4,565.66Z"/><path class="cls-2" d="M79.47,568.15v-2l2.12-.29V546.34L79.41,546v-1.71l5.73-.72h0l.92.69v21.66l2.22.29v2Z"/><path class="cls-2" d="M89.84,568.15v-2l2.12-.29V546.34L89.78,546v-1.71l5.73-.72h0l.92.69v21.66l2.22.29v2Z"/><path class="cls-2" d="M104.14,575.62l-.65,0-.69,0-.6-.07a1.49,1.49,0,0,1-.39-.08v-3.59a4.76,4.76,0,0,0,.87.25,7.53,7.53,0,0,0,1.53.14,5,5,0,0,0,1-.11,2.92,2.92,0,0,0,1.08-.51,5.21,5.21,0,0,0,1.12-1.22,11.08,11.08,0,0,0,1.12-2.22h-2.64l-5.27-14.5-1.34-.41v-1.88h8.48v1.86l-2.21.43,2.8,8.68,1.14,4,1-4,2.23-8.68-1.91-.43v-1.86h6.48v1.88l-1.35.41c-.28.88-.59,1.84-.9,2.87l-1,3.12c-.32,1.05-.64,2.08-1,3.07s-.6,1.91-.85,2.73-.48,1.52-.67,2.09-.33,1-.42,1.17a14.64,14.64,0,0,1-2.93,5.15A5.42,5.42,0,0,1,104.14,575.62Z"/><path class="cls-2" d="M128.23,568.15v-1.91l1.83-.33V554.63l-2-.62V551.8l5.19-.72h.07l.78.63v1.75a6.45,6.45,0,0,1,1.19-.88,9.34,9.34,0,0,1,1.52-.75,10,10,0,0,1,1.67-.51,7.13,7.13,0,0,1,1.61-.19,5.67,5.67,0,0,1,2.68.54,3.45,3.45,0,0,1,1.51,1.73,6.94,6.94,0,0,1,1.07-.77,9.71,9.71,0,0,1,1.48-.73,10.13,10.13,0,0,1,1.69-.55,6.94,6.94,0,0,1,1.72-.22,6.4,6.4,0,0,1,2.3.35,3.1,3.1,0,0,1,1.48,1.14,5.25,5.25,0,0,1,.79,2.06,16.9,16.9,0,0,1,.23,3.08v8.15l2.07.33v1.91H149v-1.91l1.54-.33v-8a12.87,12.87,0,0,0-.12-1.91,3.64,3.64,0,0,0-.42-1.27,1.78,1.78,0,0,0-.79-.7,3.22,3.22,0,0,0-1.25-.22,4.06,4.06,0,0,0-.8.1c-.29.07-.59.16-.88.26a8,8,0,0,0-.85.35,6,6,0,0,0-.72.38,10.26,10.26,0,0,1,.16,1.34c0,.48,0,1,0,1.57v8.13l2,.32v1.91h-8.21v-1.91l1.76-.32v-8.19a11.18,11.18,0,0,0-.12-1.75,3.44,3.44,0,0,0-.4-1.21,1.74,1.74,0,0,0-.78-.69,2.93,2.93,0,0,0-1.23-.23,4.24,4.24,0,0,0-.92.1,9.07,9.07,0,0,0-.93.26,5.75,5.75,0,0,0-.83.35,4.62,4.62,0,0,0-.65.4v10.95l2,.33v1.91Z"/><path class="cls-2" d="M166.54,568.48a8.87,8.87,0,0,1-3.55-.64,6.5,6.5,0,0,1-2.45-1.79,7.4,7.4,0,0,1-1.41-2.75,12.49,12.49,0,0,1-.46-3.49,10.79,10.79,0,0,1,.58-3.67,8,8,0,0,1,1.63-2.75,7,7,0,0,1,2.54-1.74,8.63,8.63,0,0,1,3.28-.6q6.08,0,6.34,5.94c0,.67,0,1.28,0,1.82a9.08,9.08,0,0,1-.16,1.37h-9.56a8.86,8.86,0,0,0,.42,2.47,4.75,4.75,0,0,0,.92,1.67,3.34,3.34,0,0,0,1.36.94,4.74,4.74,0,0,0,1.72.29,7.61,7.61,0,0,0,1.39-.11,9,9,0,0,0,1.19-.3,6.13,6.13,0,0,0,1-.39,7.35,7.35,0,0,0,.77-.43l.76,1.78a5.57,5.57,0,0,1-1,.8,9.85,9.85,0,0,1-1.49.76,11.76,11.76,0,0,1-1.82.59A8.24,8.24,0,0,1,166.54,568.48Zm-.4-15.46a2.67,2.67,0,0,0-1.06.2,1.92,1.92,0,0,0-.86.78,5,5,0,0,0-.62,1.59,14.06,14.06,0,0,0-.3,2.63h5.26a1.79,1.79,0,0,1,0-.21c0-.09,0-.18,0-.28a2.72,2.72,0,0,0,0-.28v-.19a13,13,0,0,0-.1-1.51,5,5,0,0,0-.38-1.37,2.62,2.62,0,0,0-.74-1A1.88,1.88,0,0,0,166.14,553Z"/><path class="cls-2" d="M175.05,563.69a4.43,4.43,0,0,1,.39-1.91,4.56,4.56,0,0,1,1.07-1.47,6.3,6.3,0,0,1,1.6-1.07,12,12,0,0,1,2-.72,16,16,0,0,1,2.23-.42c.77-.09,1.54-.14,2.31-.16v-.71a3.37,3.37,0,0,0-.68-2.38,3,3,0,0,0-2.23-.71,10.65,10.65,0,0,0-1.59.13,14.27,14.27,0,0,0-1.53.31,11.5,11.5,0,0,0-1.36.41c-.41.15-.77.29-1.06.43h0l-.87-2a7.48,7.48,0,0,1,1-.66,14.3,14.3,0,0,1,1.76-.78,18.71,18.71,0,0,1,2.27-.66,11.48,11.48,0,0,1,2.56-.28,9.63,9.63,0,0,1,2.77.35,4.32,4.32,0,0,1,1.84,1.09,4.41,4.41,0,0,1,1,1.85,9.42,9.42,0,0,1,.33,2.64v9.15h1.82V568l-.69.15-.91.18-1.07.14c-.38,0-.77.05-1.17.05a7.82,7.82,0,0,1-.9,0,1.37,1.37,0,0,1-.6-.2,1,1,0,0,1-.33-.47,2.54,2.54,0,0,1-.1-.81v-.85a6.32,6.32,0,0,1-.69.75,6.14,6.14,0,0,1-1.07.77,6.09,6.09,0,0,1-3.15.85,6.86,6.86,0,0,1-1.95-.27,4.39,4.39,0,0,1-1.59-.87,4.24,4.24,0,0,1-1.08-1.49A5.48,5.48,0,0,1,175.05,563.69Zm7,2a2.92,2.92,0,0,0,.6-.08,4.15,4.15,0,0,0,.7-.2,5.67,5.67,0,0,0,.72-.32,3.09,3.09,0,0,0,.61-.41V559.8a9.44,9.44,0,0,0-2.38.26,4.54,4.54,0,0,0-1.53.7,2.52,2.52,0,0,0-.81,1,3.07,3.07,0,0,0-.24,1.21,3,3,0,0,0,.59,2A2.21,2.21,0,0,0,182,565.66Z"/><path class="cls-2" d="M192.63,568.15v-2l1.89-.29V554.63l-2-.62V551.8l5.25-.72h.07l.78.63v1.75a7.73,7.73,0,0,1,1.14-.87,10.16,10.16,0,0,1,1.43-.75,11.37,11.37,0,0,1,1.62-.52,7.6,7.6,0,0,1,1.71-.19,6.64,6.64,0,0,1,2.35.36,3.24,3.24,0,0,1,1.5,1.17,5.26,5.26,0,0,1,.8,2.08,17.64,17.64,0,0,1,.23,3v8.12l2.08.27v2h-8.25v-2l1.6-.27v-8.18a14.65,14.65,0,0,0-.1-1.75,3.45,3.45,0,0,0-.38-1.21,1.7,1.7,0,0,0-.74-.69,2.9,2.9,0,0,0-1.23-.23,4.6,4.6,0,0,0-1,.11,5.1,5.1,0,0,0-.91.29,5.39,5.39,0,0,0-.8.38l-.62.42v10.84l2,.29v2Z"/><path class="cls-2" d="M213.63,567.21v-4.12h2.7l.76,2.29a1.64,1.64,0,0,0,.4.38,3,3,0,0,0,.65.34,5.61,5.61,0,0,0,.84.24,5.18,5.18,0,0,0,1,.09,3.3,3.3,0,0,0,1.19-.17,2.12,2.12,0,0,0,.74-.45,1.39,1.39,0,0,0,.39-.61,2.72,2.72,0,0,0,.1-.67,1.8,1.8,0,0,0-.32-1.06,3.23,3.23,0,0,0-.89-.82,10,10,0,0,0-1.4-.73l-1.82-.76a11.75,11.75,0,0,1-1.81-.91,6.24,6.24,0,0,1-1.37-1.14,4.49,4.49,0,0,1-.87-1.41,4.57,4.57,0,0,1-.31-1.74,4.2,4.2,0,0,1,1.71-3.46,6.39,6.39,0,0,1,2.11-1,10.26,10.26,0,0,1,2.92-.37,12.65,12.65,0,0,1,1.72.11,13.73,13.73,0,0,1,1.37.28c.41.1.78.21,1.13.32a8,8,0,0,0,1,.25v4.05l-2.55-.05-.69-1.95a2,2,0,0,0-.77-.65,3.11,3.11,0,0,0-1.45-.33,3.55,3.55,0,0,0-1.11.15,2,2,0,0,0-.72.39,1.4,1.4,0,0,0-.38.55,1.66,1.66,0,0,0-.12.61,1.93,1.93,0,0,0,.39,1.25,3.39,3.39,0,0,0,1,.83,8,8,0,0,0,1.32.59c.48.18.93.36,1.36.55.65.29,1.26.59,1.85.91a7.66,7.66,0,0,1,1.56,1.1,5,5,0,0,1,1.08,1.46,4.44,4.44,0,0,1,.4,2,4.84,4.84,0,0,1-.41,2,4.41,4.41,0,0,1-1.26,1.58,6.23,6.23,0,0,1-2.11,1.05,10.2,10.2,0,0,1-3,.38,12.61,12.61,0,0,1-2.12-.16,16.44,16.44,0,0,1-1.74-.37c-.52-.14-1-.28-1.4-.43A10.44,10.44,0,0,0,213.63,567.21Z"/><path class="cls-2" d="M232.75,568.4a3.19,3.19,0,0,1-1-.16,2.55,2.55,0,0,1-.82-.47,2.27,2.27,0,0,1-.56-.74,2.23,2.23,0,0,1-.2-1,2.49,2.49,0,0,1,.23-1.1,2.85,2.85,0,0,1,.64-.89,3.19,3.19,0,0,1,2.11-.81,3.35,3.35,0,0,1,1.22.2,2.08,2.08,0,0,1,.81.51,1.93,1.93,0,0,1,.46.75,2.93,2.93,0,0,1,.14.9,2.88,2.88,0,0,1-.23,1.15,2.5,2.5,0,0,1-.63.87,2.68,2.68,0,0,1-1,.57A3.67,3.67,0,0,1,232.75,568.4Z"/></svg>