<?xml version="1.0" encoding="utf-8"?>
<!-- Generator: Adobe Illustrator 25.1.0, SVG Export Plug-In . SVG Version: 6.00 Build 0)  -->
<svg version="1.1" id="Layer_1" xmlns="http://www.w3.org/2000/svg" xmlns:xlink="http://www.w3.org/1999/xlink" x="0px" y="0px"
	 viewBox="0 0 320 50" style="enable-background:new 0 0 320 50;" xml:space="preserve">
<style type="text/css">
	.st0{fill:#FFFFFF;}
	.st1{fill:#F1B533;}
</style>
<path class="st0" d="M22.8,29.7l-2.5-8l-0.7-0.2v-0.8h3.7v0.8l-1,0.2l1.5,5.4l0.2,1.2l0.2-1.2l1.3-4.3l-0.3-1.1l-0.8-0.2v-0.8h3.7
	v0.8l-1,0.2l1.5,5.4l0.3,1.3l0.2-1.3l1.4-5.4l-1.1-0.2v-0.8h3v0.8l-0.8,0.2l-2.3,8h-1.7L26,24.3l-1.5,5.4H22.8z"/>
<path class="st0" d="M35.7,29.8c-0.5,0-1-0.1-1.4-0.3c-0.4-0.2-0.7-0.4-1-0.7c-0.3-0.3-0.5-0.7-0.6-1.1c-0.1-0.5-0.2-0.9-0.2-1.4
	c0-0.5,0.1-1,0.2-1.5c0.1-0.4,0.4-0.8,0.7-1.1c0.3-0.3,0.6-0.5,1-0.7c0.4-0.2,0.9-0.2,1.3-0.2c1.2-0.2,2.4,0.7,2.5,1.9
	c0,0.2,0,0.3,0,0.5c0,0.3,0,0.5,0,0.7c0,0.2,0,0.4-0.1,0.5h-3.8c0,0.3,0.1,0.7,0.2,1c0.1,0.2,0.2,0.5,0.4,0.7
	c0.1,0.2,0.3,0.3,0.5,0.4c0.2,0.1,0.5,0.1,0.7,0.1c0.2,0,0.4,0,0.5,0c0.2,0,0.3-0.1,0.5-0.1c0.1,0,0.3-0.1,0.4-0.2
	c0.1-0.1,0.2-0.1,0.3-0.2l0.3,0.7c-0.1,0.1-0.3,0.2-0.4,0.3c-0.2,0.1-0.4,0.2-0.6,0.3c-0.2,0.1-0.5,0.2-0.7,0.2
	C36.2,29.8,35.9,29.8,35.7,29.8z M35.5,23.6c-0.1,0-0.3,0-0.4,0.1c-0.1,0.1-0.3,0.2-0.3,0.3c-0.1,0.2-0.2,0.4-0.2,0.6
	c-0.1,0.3-0.1,0.7-0.1,1h2.1v-0.2c0,0,0-0.1,0-0.1v-0.1c0-0.2,0-0.4,0-0.6c0-0.2-0.1-0.4-0.2-0.5c-0.1-0.2-0.2-0.3-0.3-0.4
	C35.9,23.6,35.7,23.6,35.5,23.6z"/>
<path class="st0" d="M42.8,29.6v-0.8l0.8-0.1v-7.8l-0.8-0.1v-0.7l2.2-0.3l0,0l0.4,0.3v5.2v0.9l2.3-2.4l-0.9-0.2v-0.8H50v0.8L49,24
	l-1.5,1.3l2.3,3.5l0.7,0.1v0.8h-3.3v-0.8l0.6-0.1l-1.4-2.5l-1,0.9v0.7v0.9l0.8,0.1v0.8L42.8,29.6z"/>
<path class="st0" d="M51,29.6v-0.8l0.8-0.1v-4.5L51,24v-0.9l2.1-0.3l0,0l0.3,0.2v0.7c0.1-0.1,0.3-0.2,0.5-0.4
	c0.2-0.1,0.4-0.2,0.6-0.3c0.2-0.1,0.4-0.2,0.7-0.2c0.2-0.1,0.5-0.1,0.7-0.1c0.3,0,0.6,0,0.9,0.1c0.2,0.1,0.5,0.3,0.6,0.5
	c0.2,0.3,0.3,0.5,0.3,0.8c0.1,0.4,0.1,0.8,0.1,1.2v3.2l0.8,0.1v0.8h-3.3v-0.8l0.6-0.1v-3.3c0-0.2,0-0.5,0-0.7c0-0.2-0.1-0.3-0.2-0.5
	c-0.1-0.1-0.2-0.2-0.3-0.3c-0.2-0.1-0.3-0.1-0.5-0.1c-0.1,0-0.3,0-0.4,0c-0.2,0-0.5,0.1-0.7,0.3c-0.1,0-0.2,0.1-0.2,0.2v4.3l0.8,0.1
	v0.8H51z"/>
<path class="st0" d="M59.1,26.3c0-0.5,0.1-1.1,0.3-1.6c0.2-0.4,0.4-0.8,0.7-1.1c0.3-0.3,0.7-0.5,1.1-0.7c0.8-0.3,1.8-0.3,2.6,0
	c0.4,0.1,0.7,0.4,1,0.7c0.3,0.3,0.5,0.7,0.6,1.1c0.1,0.5,0.2,1,0.2,1.5c0,0.5-0.1,1.1-0.3,1.6c-0.2,0.4-0.4,0.8-0.7,1.1
	c-0.3,0.3-0.7,0.5-1.1,0.6c-0.4,0.1-0.8,0.2-1.2,0.2c-0.5,0-0.9-0.1-1.3-0.2c-0.4-0.1-0.7-0.4-1-0.7c-0.3-0.3-0.5-0.7-0.6-1.1
	C59.2,27.3,59.1,26.8,59.1,26.3z M62.3,29c0.2,0,0.4,0,0.6-0.1c0.2-0.1,0.3-0.3,0.4-0.5c0.1-0.2,0.2-0.5,0.2-0.8
	c0.1-0.4,0.1-0.8,0.1-1.1c0-0.4,0-0.8-0.1-1.2c0-0.3-0.1-0.6-0.2-0.9c-0.1-0.2-0.2-0.4-0.4-0.5c-0.2-0.1-0.4-0.2-0.6-0.2
	c-0.2,0-0.4,0-0.6,0.1c-0.2,0.1-0.3,0.3-0.4,0.5c-0.1,0.3-0.2,0.5-0.2,0.8c-0.1,0.4-0.1,0.8-0.1,1.1c0,0.4,0,0.8,0.1,1.2
	c0,0.3,0.1,0.6,0.2,0.9c0.1,0.2,0.2,0.4,0.4,0.5C61.9,28.9,62.1,29,62.3,29z"/>
<path class="st0" d="M68.5,29.8l-1.9-5.9l-0.7-0.2v-0.8h3.3v0.7l-0.9,0.2l0.8,3.1l0.3,1.4l0.3-1.4l1.2-4h1.5l1.2,4l0.3,1.3l0.3-1.3
	l0.9-3.1l-1-0.2v-0.7h2.8v0.7l-0.7,0.2l-1.8,5.9h-1.4l-1.2-3.9l-0.2-1l-0.2,1L70,29.8H68.5z"/>
<path class="st0" d="M83,29.8l-1.9-5.9l-0.7-0.2v-0.8h3.3v0.7l-0.9,0.2l0.8,3.1l0.3,1.4l0.3-1.4l1.2-4h1.5l1.2,4l0.3,1.3l0.3-1.3
	l0.8-3.1l-0.9-0.2v-0.7h2.8v0.7l-0.7,0.2l-1.8,5.9h-1.5l-1.2-3.9l-0.2-1l-0.2,1l-1.2,3.9L83,29.8z"/>
<path class="st0" d="M91.6,29.6v-0.8l0.7-0.1v-7.8l-0.9-0.1v-0.7l2.3-0.3l0,0l0.4,0.3v2.8L94,23.8c0.1-0.1,0.3-0.2,0.4-0.3
	c0.2-0.1,0.4-0.2,0.5-0.3c0.2-0.1,0.4-0.2,0.7-0.2c0.2-0.1,0.5-0.1,0.8-0.1c0.3,0,0.7,0,1,0.2c0.2,0.1,0.4,0.3,0.6,0.5
	c0.2,0.3,0.3,0.5,0.3,0.8c0.1,0.4,0.1,0.8,0.1,1.2v3.2l0.8,0.1v0.8h-3.3v-0.8l0.7-0.1v-3.3c0-0.2,0-0.5,0-0.7c0-0.2-0.1-0.3-0.2-0.5
	c-0.1-0.1-0.2-0.2-0.4-0.3c-0.2-0.1-0.3-0.1-0.5-0.1c-0.1,0-0.3,0-0.4,0L94.7,24l-0.3,0.1c-0.1,0-0.2,0.1-0.3,0.2v4.4l0.8,0.1v0.8
	L91.6,29.6z"/>
<path class="st0" d="M99.7,27.9c0-0.3,0.1-0.5,0.2-0.8c0.1-0.2,0.2-0.4,0.4-0.6c0.2-0.2,0.4-0.3,0.6-0.4c0.3-0.1,0.5-0.2,0.8-0.3
	c0.3-0.1,0.6-0.1,0.9-0.2c0.3,0,0.6,0,0.9-0.1v-0.3c0-0.4-0.1-0.7-0.3-1c-0.2-0.2-0.6-0.3-0.9-0.3c-0.2,0-0.4,0-0.6,0
	c-0.2,0-0.4,0.1-0.6,0.1c-0.2,0-0.4,0.1-0.5,0.2l-0.4,0.2l0,0l-0.3-0.8c0.1-0.1,0.3-0.2,0.4-0.3c0.2-0.1,0.5-0.2,0.7-0.3
	c0.3-0.1,0.6-0.2,0.9-0.3c0.3-0.1,0.7-0.1,1-0.1c0.4,0,0.8,0.1,1.1,0.2c0.3,0.1,0.5,0.2,0.7,0.4c0.2,0.2,0.3,0.5,0.4,0.7
	c0.1,0.3,0.1,0.7,0.1,1.1v3.7h0.7v0.7l-0.3,0.1l-0.4,0.1l-0.4,0c-0.2,0-0.3,0-0.5,0h-0.4c-0.1,0-0.2,0-0.2-0.1
	c-0.1-0.1-0.1-0.1-0.1-0.2c0-0.1,0-0.2,0-0.3v-0.3c-0.1,0.1-0.2,0.2-0.3,0.3c-0.1,0.1-0.3,0.2-0.4,0.3c-0.2,0.1-0.4,0.2-0.6,0.2
	c-0.2,0.1-0.5,0.1-0.7,0.1c-0.3,0-0.5,0-0.8-0.1c-0.2-0.1-0.5-0.2-0.6-0.4c-0.2-0.2-0.3-0.4-0.4-0.6C99.8,28.5,99.7,28.2,99.7,27.9z
	 M102.5,28.7h0.2l0.3-0.1c0.1,0,0.2-0.1,0.3-0.1c0.1,0,0.2-0.1,0.2-0.2v-2c-0.3,0-0.7,0-1,0.1c-0.2,0.1-0.4,0.1-0.6,0.3
	c-0.1,0.1-0.3,0.2-0.3,0.4c-0.1,0.2-0.1,0.3-0.1,0.5c0,0.3,0.1,0.6,0.2,0.8C101.9,28.6,102.2,28.7,102.5,28.7z"/>
<path class="st0" d="M107.3,28.2v-4.3h-0.8v-0.7l0.2,0c0.1,0,0.1-0.1,0.2-0.1l0.2-0.1l0.1-0.1c0.2-0.2,0.3-0.3,0.4-0.6l0.1-0.3
	l0.1-0.3l0.1-0.3c0-0.1,0.1-0.2,0.1-0.3h1.1v1.7h1.7v1h-1.7v3.2c0,0.3,0,0.6,0,0.7c0,0.1,0,0.3,0.1,0.4c0,0.1,0.1,0.1,0.2,0.2
	c0.1,0,0.2,0,0.3,0l0,0h0.3l0.3-0.1l0.3-0.1l0.2-0.1l0,0l0.3,0.7c-0.1,0.1-0.3,0.2-0.4,0.3c-0.2,0.1-0.4,0.2-0.6,0.2
	c-0.2,0.1-0.4,0.1-0.7,0.2c-0.2,0-0.5,0.1-0.7,0.1l0,0c-0.2,0-0.4,0-0.7-0.1c-0.2-0.1-0.3-0.2-0.4-0.3c-0.1-0.1-0.2-0.3-0.2-0.5
	C107.3,28.7,107.3,28.5,107.3,28.2z"/>
<path class="st0" d="M115.4,29.6v-0.8l0.7-0.1v-7.8l-0.9-0.1v-0.7l2.3-0.3l0,0l0.4,0.3v2.8l-0.1,0.9c0.1-0.1,0.3-0.2,0.4-0.3
	c0.2-0.1,0.4-0.2,0.5-0.3c0.2-0.1,0.4-0.2,0.7-0.2c0.2-0.1,0.5-0.1,0.8-0.1c0.3,0,0.7,0,1,0.2c0.2,0.1,0.4,0.3,0.6,0.5
	c0.2,0.3,0.3,0.5,0.3,0.8c0.1,0.4,0.1,0.8,0.1,1.2v3.2l0.8,0.1v0.8h-3.3v-0.8l0.7-0.1v-3.3c0-0.2,0-0.5,0-0.7c0-0.2-0.1-0.3-0.2-0.5
	c-0.1-0.1-0.2-0.2-0.3-0.3c-0.2-0.1-0.3-0.1-0.5-0.1c-0.1,0-0.3,0-0.4,0l-0.4,0.1l-0.3,0.1c-0.1,0-0.2,0.1-0.3,0.2v4.4l0.8,0.1v0.8
	L115.4,29.6z"/>
<path class="st0" d="M126.7,29.8c-0.5,0-1-0.1-1.4-0.3c-0.4-0.2-0.7-0.4-1-0.7c-0.3-0.3-0.5-0.7-0.6-1.1c-0.1-0.5-0.2-0.9-0.2-1.4
	c0-0.5,0.1-1,0.2-1.5c0.1-0.4,0.4-0.8,0.7-1.1c0.3-0.3,0.6-0.5,1-0.7c0.4-0.2,0.9-0.2,1.3-0.2c1.2-0.2,2.4,0.7,2.5,1.9
	c0,0.2,0,0.3,0,0.5c0,0.3,0,0.5,0,0.7c0,0.2,0,0.4-0.1,0.5h-3.8c0,0.3,0.1,0.7,0.2,1c0.1,0.2,0.2,0.5,0.4,0.7
	c0.1,0.2,0.3,0.3,0.5,0.4c0.2,0.1,0.5,0.1,0.7,0.1c0.2,0,0.4,0,0.6,0c0.2,0,0.3-0.1,0.5-0.1c0.1,0,0.3-0.1,0.4-0.2
	c0.1-0.1,0.2-0.1,0.3-0.2l0.3,0.7c-0.1,0.1-0.3,0.2-0.4,0.3c-0.2,0.1-0.4,0.2-0.6,0.3c-0.2,0.1-0.5,0.2-0.7,0.2
	C127.2,29.8,126.9,29.8,126.7,29.8z M126.5,23.6c-0.1,0-0.3,0-0.4,0.1c-0.1,0.1-0.3,0.2-0.3,0.3c-0.1,0.2-0.2,0.4-0.2,0.6
	c-0.1,0.3-0.1,0.7-0.1,1h2.1c0,0,0-0.1,0-0.1v-0.1c0,0,0-0.1,0-0.1v-0.1c0-0.2,0-0.4,0-0.6c0-0.2-0.1-0.4-0.2-0.5
	c-0.1-0.2-0.2-0.3-0.3-0.4C126.9,23.6,126.7,23.6,126.5,23.6z"/>
<path class="st0" d="M130.1,27.9c0-0.3,0-0.5,0.1-0.8c0.1-0.2,0.3-0.4,0.4-0.6c0.2-0.2,0.4-0.3,0.6-0.4c0.3-0.1,0.5-0.2,0.8-0.3
	c0.3-0.1,0.6-0.1,0.9-0.2c0.3,0,0.6,0,0.9-0.1v-0.3c0-0.4-0.1-0.7-0.3-1c-0.2-0.2-0.6-0.3-0.9-0.3c-0.2,0-0.4,0-0.6,0
	c-0.2,0-0.4,0.1-0.6,0.1l-0.5,0.2l-0.4,0.2l0,0l-0.4-0.8c0.1-0.1,0.3-0.2,0.4-0.3c0.2-0.1,0.5-0.2,0.7-0.3c0.3-0.1,0.6-0.2,0.9-0.3
	c0.3-0.1,0.7-0.1,1-0.1c0.4,0,0.7,0,1.1,0.1c0.3,0.1,0.5,0.2,0.7,0.4c0.2,0.2,0.3,0.5,0.4,0.7c0.1,0.3,0.1,0.7,0.1,1.1v3.7h0.7v0.7
	l-0.3,0.1l-0.4,0.1l-0.4,0c-0.2,0-0.3,0-0.5,0h-0.4c-0.1,0-0.2,0-0.2-0.1c-0.1,0-0.1-0.1-0.1-0.2c0-0.1,0-0.2,0-0.3v-0.3
	c-0.1,0.1-0.2,0.2-0.3,0.3c-0.1,0.1-0.3,0.2-0.4,0.3c-0.2,0.1-0.4,0.2-0.6,0.2c-0.2,0.1-0.5,0.1-0.7,0.1c-0.3,0-0.5,0-0.8-0.1
	c-0.2-0.1-0.4-0.2-0.6-0.4c-0.2-0.2-0.3-0.4-0.4-0.6C130.1,28.4,130.1,28.1,130.1,27.9z M132.9,28.7h0.2c0.1,0,0.2-0.1,0.3-0.1
	c0.1,0,0.2-0.1,0.3-0.1c0.1,0,0.2-0.1,0.2-0.2v-2c-0.3,0-0.6,0-0.9,0.1c-0.2,0.1-0.4,0.1-0.6,0.3c-0.1,0.1-0.2,0.2-0.3,0.4
	c-0.1,0.2-0.1,0.3-0.1,0.5c0,0.3,0.1,0.6,0.2,0.8C132.3,28.6,132.6,28.7,132.9,28.7z"/>
<path class="st0" d="M137.1,29.6v-0.8l0.8-0.1v-4.5l-0.8-0.2v-0.9l2-0.3l0,0l0.3,0.2v1.4l0,0c0.1-0.2,0.2-0.3,0.3-0.5
	c0.1-0.2,0.3-0.4,0.5-0.5c0.2-0.2,0.4-0.3,0.6-0.5c0.2-0.1,0.5-0.2,0.8-0.2h0.3h0.2v2c-0.1-0.1-0.2-0.1-0.3-0.1
	c-0.2,0-0.4-0.1-0.6-0.1h-0.4l-0.4,0.1c-0.1,0-0.2,0-0.3,0.1c-0.1,0-0.1,0.1-0.2,0.1v3.7l1.5,0.1v0.8L137.1,29.6z"/>
<path class="st0" d="M143.4,28.2v-4.3h-0.8v-0.7l0.1,0l0.2-0.1l0.2-0.1l0.1-0.1c0.2-0.2,0.3-0.3,0.4-0.6l0.1-0.3l0.1-0.3
	c0-0.1,0.1-0.2,0.1-0.3c0-0.1,0.1-0.2,0.1-0.3h1v1.7h1.8v1h-1.7v3.2c0,0.3,0,0.6,0,0.7c0,0.1,0,0.3,0.1,0.4c0,0.1,0.1,0.1,0.2,0.2
	c0.1,0,0.2,0,0.3,0l0,0h0.3l0.3-0.1l0.3-0.1l0.2-0.1l0,0l0.3,0.7c-0.1,0.1-0.3,0.2-0.4,0.3c-0.2,0.1-0.4,0.2-0.6,0.2
	c-0.2,0.1-0.4,0.1-0.6,0.2c-0.2,0-0.5,0.1-0.7,0.1l0,0c-0.2,0-0.4,0-0.7-0.1c-0.2-0.1-0.3-0.2-0.4-0.3c-0.1-0.1-0.2-0.3-0.2-0.5
	C143.5,28.7,143.4,28.5,143.4,28.2z"/>
<path class="st0" d="M151.4,29.6v-0.8l0.7-0.1v-7.8l-0.9-0.1v-0.7l2.3-0.3l0,0l0.4,0.3v2.8l-0.1,0.9c0.1-0.1,0.3-0.2,0.4-0.3
	c0.2-0.1,0.4-0.2,0.5-0.3c0.2-0.1,0.4-0.2,0.6-0.2c0.2-0.1,0.5-0.1,0.8-0.1c0.3,0,0.6,0,0.9,0.2c0.2,0.1,0.4,0.3,0.6,0.5
	c0.2,0.3,0.3,0.5,0.3,0.8c0.1,0.4,0.1,0.8,0.1,1.2v3.2l0.8,0.1v0.8h-3.2v-0.8l0.6-0.1v-3.3c0-0.2,0-0.5,0-0.7c0-0.2-0.1-0.3-0.2-0.5
	c-0.1-0.1-0.2-0.2-0.3-0.3c-0.2-0.1-0.3-0.1-0.5-0.1c-0.1,0-0.3,0-0.4,0l-0.4,0.1l-0.3,0.1c-0.1,0-0.2,0.1-0.3,0.2v4.4l0.8,0.1v0.8
	L151.4,29.6z"/>
<path class="st0" d="M162.8,29.8c-0.5,0-1-0.1-1.4-0.3c-0.4-0.2-0.7-0.4-1-0.7c-0.3-0.3-0.5-0.7-0.6-1.1c-0.1-0.5-0.2-0.9-0.2-1.4
	c0-0.5,0.1-1,0.2-1.5c0.1-0.4,0.4-0.8,0.7-1.1c0.3-0.3,0.6-0.5,1-0.7c0.4-0.2,0.9-0.2,1.3-0.2c1.2-0.2,2.4,0.7,2.5,1.9
	c0,0.2,0,0.3,0,0.5c0,0.3,0,0.5,0,0.7c0,0.2,0,0.4-0.1,0.5h-3.8c0,0.3,0.1,0.7,0.2,1c0.1,0.2,0.2,0.5,0.4,0.7
	c0.1,0.2,0.3,0.3,0.5,0.4c0.2,0.1,0.5,0.1,0.7,0.1c0.2,0,0.4,0,0.6,0c0.2,0,0.3-0.1,0.5-0.1c0.1,0,0.3-0.1,0.4-0.2
	c0.1-0.1,0.2-0.1,0.3-0.2l0.3,0.7c-0.1,0.1-0.3,0.2-0.4,0.3c-0.2,0.1-0.4,0.2-0.6,0.3c-0.2,0.1-0.5,0.2-0.7,0.2
	C163.3,29.8,163,29.8,162.8,29.8z M162.6,23.6c-0.1,0-0.3,0-0.4,0.1c-0.1,0.1-0.3,0.2-0.3,0.3c-0.1,0.2-0.2,0.4-0.2,0.6
	c-0.1,0.3-0.1,0.7-0.1,1h2.1v-0.2c0,0,0-0.1,0-0.1v-0.1c0-0.2,0-0.4,0-0.6c0-0.2-0.1-0.4-0.1-0.5c-0.1-0.2-0.2-0.3-0.3-0.4
	C163,23.6,162.8,23.6,162.6,23.6z"/>
<path class="st0" d="M166.1,27.9c0-0.3,0-0.5,0.2-0.8c0.1-0.2,0.2-0.4,0.4-0.6c0.2-0.2,0.4-0.3,0.6-0.4c0.3-0.1,0.5-0.2,0.8-0.3
	c0.3-0.1,0.6-0.1,0.9-0.2c0.3,0,0.6,0,0.9-0.1v-0.3c0-0.4-0.1-0.7-0.3-1c-0.3-0.2-0.6-0.3-0.9-0.3c-0.2,0-0.4,0-0.6,0
	c-0.2,0-0.4,0.1-0.6,0.1c-0.2,0-0.4,0.1-0.6,0.2l-0.4,0.2l0,0l-0.3-0.8c0.1-0.1,0.3-0.2,0.4-0.3c0.2-0.1,0.5-0.2,0.7-0.3
	c0.3-0.1,0.6-0.2,0.9-0.3c0.3-0.1,0.7-0.1,1-0.1c0.4,0,0.7,0,1.1,0.1c0.3,0.1,0.5,0.2,0.7,0.4c0.2,0.2,0.3,0.5,0.4,0.7
	c0.1,0.3,0.1,0.7,0.1,1.1v3.7h0.7v0.7l-0.3,0.1l-0.4,0.1l-0.4,0c-0.2,0-0.3,0-0.5,0h-0.4c-0.1,0-0.2,0-0.2-0.1
	c-0.1-0.1-0.1-0.1-0.1-0.2c0-0.1,0-0.2,0-0.3v-0.3c-0.1,0.1-0.2,0.2-0.3,0.3c-0.1,0.1-0.3,0.2-0.4,0.3c-0.2,0.1-0.4,0.2-0.6,0.2
	c-0.2,0.1-0.5,0.1-0.7,0.1c-0.3,0-0.5,0-0.8-0.1c-0.2-0.1-0.5-0.2-0.6-0.4c-0.2-0.2-0.3-0.4-0.4-0.6
	C166.2,28.4,166.2,28.1,166.1,27.9z M168.9,28.7h0.2l0.3-0.1c0.1,0,0.2-0.1,0.3-0.1c0.1,0,0.2-0.1,0.2-0.2v-2c-0.3,0-0.7,0-1,0.1
	c-0.2,0.1-0.4,0.1-0.6,0.3c-0.1,0.1-0.2,0.2-0.3,0.4c-0.1,0.2-0.1,0.3-0.1,0.5c0,0.3,0.1,0.6,0.2,0.8
	C168.4,28.6,168.7,28.7,168.9,28.7z"/>
<path class="st0" d="M173,29.6v-0.8l0.9-0.1v-7.8l-0.9-0.1v-0.7l2.3-0.3l0,0l0.4,0.3v8.7l0.9,0.1v0.8L173,29.6z"/>
<path class="st0" d="M177.9,28.2v-4.3h-0.8v-0.7l0.1,0l0.2-0.1l0.2-0.1l0.1-0.1c0.2-0.2,0.3-0.3,0.4-0.6l0.1-0.3
	c0-0.1,0.1-0.2,0.1-0.3c0-0.1,0.1-0.2,0.1-0.3l0.1-0.3h1v1.7h1.7v1h-1.7v3.2c0,0.3,0,0.6,0,0.7c0,0.1,0,0.3,0.1,0.4
	c0,0.1,0.1,0.1,0.2,0.2c0.1,0,0.2,0,0.3,0l0,0h0.3l0.3-0.1l0.3-0.1l0.2-0.1l0,0l0.3,0.7c-0.1,0.1-0.3,0.2-0.4,0.3
	c-0.2,0.1-0.4,0.2-0.6,0.2c-0.2,0.1-0.4,0.1-0.6,0.2c-0.2,0-0.5,0.1-0.7,0.1l0,0c-0.2,0-0.4,0-0.7-0.1c-0.2-0.1-0.3-0.2-0.4-0.3
	c-0.1-0.1-0.2-0.3-0.2-0.5C177.9,28.7,177.9,28.5,177.9,28.2z"/>
<path class="st0" d="M182.2,29.6v-0.8l0.7-0.1v-7.8l-0.9-0.1v-0.7l2.3-0.3l0,0l0.4,0.3v2.8l-0.1,0.9c0.1-0.1,0.3-0.2,0.4-0.3
	c0.2-0.1,0.3-0.2,0.5-0.3c0.2-0.1,0.4-0.2,0.7-0.2c0.2-0.1,0.5-0.1,0.7-0.1c0.3,0,0.6,0,0.9,0.2c0.2,0.1,0.5,0.3,0.6,0.5
	c0.2,0.3,0.3,0.5,0.3,0.8c0.1,0.4,0.1,0.8,0.1,1.2v3.2l0.8,0.1v0.8h-3.3v-0.8l0.7-0.1v-3.3c0-0.2,0-0.5-0.1-0.7
	c0-0.2-0.1-0.3-0.1-0.5c-0.1-0.1-0.2-0.2-0.3-0.3c-0.2-0.1-0.3-0.1-0.5-0.1c-0.1,0-0.2,0-0.4,0l-0.4,0.1l-0.3,0.1
	c-0.1,0-0.2,0.1-0.3,0.2v4.4l0.8,0.1v0.8L182.2,29.6z"/>
<path class="st1" d="M194.2,29.6v-0.8l0.8-0.1v-4.5l-0.8-0.2v-0.9l2-0.3l0,0l0.3,0.2v1.4l0,0c0.1-0.2,0.2-0.3,0.3-0.5
	c0.1-0.2,0.3-0.4,0.5-0.5c0.2-0.2,0.5-0.3,0.7-0.5c0.2-0.1,0.5-0.2,0.8-0.2h0.2h0.2v2c-0.1-0.1-0.2-0.1-0.3-0.1
	c-0.2,0-0.4-0.1-0.6-0.1h-0.4l-0.4,0.1c-0.1,0-0.2,0-0.3,0.1c-0.1,0-0.2,0.1-0.2,0.1v3.7l1.5,0.1v0.8L194.2,29.6z"/>
<path class="st1" d="M203,29.8c-0.5,0-1-0.1-1.4-0.3c-0.4-0.2-0.7-0.4-1-0.7c-0.3-0.3-0.5-0.7-0.6-1.1c-0.1-0.5-0.2-0.9-0.2-1.4
	c0-0.5,0.1-1,0.2-1.5c0.1-0.4,0.4-0.8,0.7-1.1c0.3-0.3,0.6-0.5,1-0.7c0.4-0.2,0.9-0.2,1.3-0.2c1.2-0.2,2.4,0.7,2.5,1.9
	c0,0.2,0,0.3,0,0.5c0,0.3,0,0.5,0,0.7c0,0.2,0,0.4-0.1,0.5h-3.8c0,0.3,0.1,0.7,0.2,1c0.1,0.2,0.2,0.5,0.4,0.7
	c0.1,0.2,0.3,0.3,0.5,0.4c0.2,0.1,0.5,0.1,0.7,0.1c0.2,0,0.4,0,0.6,0c0.2,0,0.3-0.1,0.5-0.1c0.1,0,0.3-0.1,0.4-0.2
	c0.1-0.1,0.2-0.1,0.3-0.2l0.3,0.7c-0.1,0.1-0.3,0.2-0.4,0.3c-0.2,0.1-0.4,0.2-0.6,0.3c-0.2,0.1-0.5,0.2-0.7,0.2
	C203.5,29.8,203.3,29.8,203,29.8z M202.8,23.6c-0.1,0-0.3,0-0.4,0.1c-0.1,0.1-0.3,0.2-0.3,0.3c-0.1,0.2-0.2,0.4-0.2,0.6
	c-0.1,0.3-0.1,0.7-0.1,1h2.1v-0.2c0,0,0-0.1,0-0.1v-0.1c0-0.2,0-0.4,0-0.6c0-0.2-0.1-0.4-0.1-0.5c-0.1-0.2-0.2-0.3-0.3-0.4
	C203.2,23.6,203,23.6,202.8,23.6L202.8,23.6z"/>
<path class="st1" d="M206.4,27.9c0-0.3,0-0.5,0.2-0.8c0.1-0.2,0.2-0.4,0.4-0.6c0.2-0.2,0.4-0.3,0.6-0.4c0.3-0.1,0.5-0.2,0.8-0.3
	c0.3-0.1,0.6-0.1,0.9-0.2c0.3,0,0.6,0,0.9-0.1v-0.3c0-0.4-0.1-0.7-0.3-1c-0.3-0.2-0.6-0.3-0.9-0.3c-0.2,0-0.4,0-0.6,0
	c-0.2,0-0.4,0.1-0.6,0.1c-0.2,0-0.4,0.1-0.6,0.2l-0.4,0.2l0,0l-0.3-0.8c0.1-0.1,0.3-0.2,0.4-0.3c0.2-0.1,0.5-0.2,0.7-0.3
	c0.3-0.1,0.6-0.2,0.9-0.3c0.3-0.1,0.7-0.1,1-0.1c0.4,0,0.7,0,1.1,0.1c0.3,0.1,0.5,0.2,0.7,0.4c0.2,0.2,0.3,0.5,0.4,0.7
	c0.1,0.3,0.1,0.7,0.1,1.1v3.7h0.7v0.7l-0.3,0.1l-0.4,0.1l-0.4,0c-0.2,0-0.3,0-0.5,0h-0.4c-0.1,0-0.2,0-0.2-0.1
	c-0.1-0.1-0.1-0.1-0.1-0.2c0-0.1,0-0.2,0-0.3v-0.3c-0.1,0.1-0.2,0.2-0.3,0.3c-0.1,0.1-0.3,0.2-0.4,0.3c-0.2,0.1-0.4,0.2-0.6,0.2
	c-0.2,0.1-0.5,0.1-0.7,0.1c-0.3,0-0.5,0-0.8-0.1c-0.2-0.1-0.5-0.2-0.6-0.4c-0.2-0.2-0.3-0.4-0.4-0.6
	C206.4,28.4,206.4,28.1,206.4,27.9z M209.2,28.7h0.2l0.3-0.1c0.1,0,0.2-0.1,0.3-0.1c0.1,0,0.2-0.1,0.2-0.2v-2c-0.3,0-0.6,0-0.9,0.1
	c-0.2,0.1-0.4,0.1-0.6,0.3c-0.1,0.1-0.3,0.2-0.3,0.4c-0.1,0.2-0.1,0.3-0.1,0.5c0,0.3,0.1,0.6,0.2,0.8
	C208.6,28.6,208.9,28.7,209.2,28.7z"/>
<path class="st1" d="M213.2,29.6v-0.8l0.9-0.1v-7.8l-0.9-0.1v-0.7l2.3-0.3l0,0l0.4,0.3v8.7l0.9,0.1v0.8L213.2,29.6z"/>
<path class="st1" d="M217.3,29.6v-0.8l0.9-0.1v-7.8l-0.9-0.1v-0.7l2.3-0.3l0,0l0.4,0.3v8.7l0.9,0.1v0.8L217.3,29.6z"/>
<path class="st1" d="M223.1,32.6h-0.5h-0.2h-0.1v-1.5c0.1,0,0.2,0.1,0.3,0.1c0.2,0,0.4,0.1,0.6,0.1c0.1,0,0.3,0,0.4,0
	c0.2,0,0.3-0.1,0.4-0.2c0.2-0.1,0.3-0.3,0.4-0.5c0.2-0.3,0.3-0.6,0.4-0.9h-1.1l-2.1-5.8l-0.5-0.2v-0.8h3.4v0.7l-0.9,0.2l1.1,3.5
	l0.4,1.6l0.4-1.6l0.9-3.5l-0.8-0.2v-0.7h2.6v0.8l-0.5,0.2l-0.4,1.1c-0.1,0.4-0.2,0.8-0.4,1.2s-0.3,0.8-0.4,1.2s-0.2,0.8-0.3,1.1
	s-0.2,0.6-0.3,0.8c0,0.2-0.1,0.3-0.2,0.5c-0.2,0.8-0.6,1.5-1.2,2C224.3,32.4,223.7,32.7,223.1,32.6z"/>
<path class="st1" d="M232.7,29.6v-0.8l0.7-0.1v-4.5l-0.8-0.2v-0.9l2.1-0.3l0,0l0.3,0.2v0.7c0.1-0.1,0.3-0.3,0.5-0.4
	c0.2-0.1,0.4-0.2,0.6-0.3c0.2-0.1,0.4-0.1,0.7-0.2c0.2,0,0.4-0.1,0.6-0.1c0.4,0,0.7,0.1,1.1,0.2c0.3,0.2,0.5,0.4,0.6,0.7
	c0.1-0.1,0.3-0.2,0.4-0.3c0.2-0.1,0.4-0.2,0.6-0.3c0.2-0.1,0.4-0.2,0.7-0.2c0.2-0.1,0.5-0.1,0.7-0.1c0.3,0,0.6,0,0.9,0.1
	c0.2,0.1,0.4,0.2,0.6,0.5c0.2,0.2,0.3,0.5,0.3,0.8c0.1,0.4,0.1,0.8,0.1,1.2v3.3l0.8,0.1v0.8H241v-0.8l0.6-0.1v-3.2
	c0-0.3,0-0.5-0.1-0.8c0-0.2-0.1-0.4-0.2-0.5c-0.1-0.1-0.2-0.2-0.3-0.3c-0.2-0.1-0.3-0.1-0.5-0.1c-0.1,0-0.2,0-0.3,0l-0.4,0.1
	l-0.3,0.1l-0.3,0.1c0,0.2,0.1,0.4,0.1,0.5c0,0.2,0,0.4,0,0.6v3.2l0.8,0.1v0.8h-3.3v-0.8l0.7-0.1v-3.2c0-0.2,0-0.5,0-0.7
	c0-0.2-0.1-0.3-0.2-0.5c-0.1-0.1-0.2-0.2-0.3-0.3c-0.2-0.1-0.3-0.1-0.5-0.1c-0.1,0-0.2,0-0.4,0l-0.4,0.1c-0.1,0-0.2,0.1-0.3,0.1
	c-0.1,0-0.2,0.1-0.3,0.2v4.4l0.8,0.1v0.8L232.7,29.6z"/>
<path class="st1" d="M248,29.8c-0.5,0-1-0.1-1.4-0.3c-0.4-0.2-0.7-0.4-1-0.7c-0.3-0.3-0.5-0.7-0.6-1.1c-0.1-0.5-0.2-0.9-0.2-1.4
	c0-0.5,0.1-1,0.2-1.5c0.1-0.4,0.4-0.8,0.7-1.1c0.3-0.3,0.6-0.5,1-0.7c0.4-0.2,0.9-0.2,1.3-0.2c1.2-0.2,2.4,0.7,2.5,1.9
	c0,0.2,0,0.3,0,0.5c0,0.3,0,0.5,0,0.7c0,0.2,0,0.4-0.1,0.5h-3.8c0,0.3,0.1,0.7,0.2,1c0.1,0.2,0.2,0.5,0.4,0.7
	c0.1,0.2,0.3,0.3,0.5,0.4c0.2,0.1,0.5,0.1,0.7,0.1c0.2,0,0.4,0,0.6,0c0.2,0,0.3-0.1,0.5-0.1c0.1,0,0.3-0.1,0.4-0.2
	c0.1-0.1,0.2-0.1,0.3-0.2l0.3,0.7c-0.1,0.1-0.3,0.2-0.4,0.3c-0.2,0.1-0.4,0.2-0.6,0.3c-0.2,0.1-0.5,0.2-0.7,0.2
	C248.5,29.8,248.3,29.8,248,29.8z M247.8,23.6c-0.1,0-0.3,0-0.4,0.1c-0.1,0.1-0.3,0.2-0.4,0.3c-0.1,0.2-0.2,0.4-0.2,0.6
	c-0.1,0.3-0.1,0.7-0.1,1h2.1v-0.4c0-0.2,0-0.4,0-0.6c0-0.2-0.1-0.4-0.1-0.5c-0.1-0.2-0.2-0.3-0.3-0.4
	C248.2,23.6,248,23.6,247.8,23.6L247.8,23.6z"/>
<path class="st1" d="M251.4,27.9c0-0.3,0-0.5,0.2-0.8c0.1-0.2,0.2-0.4,0.4-0.6c0.2-0.2,0.4-0.3,0.6-0.4c0.3-0.1,0.5-0.2,0.8-0.3
	c0.3-0.1,0.6-0.1,0.9-0.2c0.3,0,0.6,0,0.9-0.1v-0.3c0-0.4-0.1-0.7-0.3-1c-0.3-0.2-0.6-0.3-0.9-0.3c-0.2,0-0.4,0-0.6,0
	c-0.2,0-0.4,0.1-0.6,0.1c-0.2,0-0.4,0.1-0.6,0.2l-0.4,0.2l0,0l-0.3-0.8c0.1-0.1,0.3-0.2,0.4-0.3c0.5-0.3,1.1-0.5,1.6-0.6
	c0.3-0.1,0.7-0.1,1-0.1c0.4,0,0.7,0,1.1,0.1c0.3,0.1,0.5,0.2,0.7,0.4c0.2,0.2,0.3,0.5,0.4,0.7c0.1,0.4,0.2,0.7,0.2,1.1v3.7h0.7v0.7
	l-0.3,0.1l-0.4,0.1l-0.4,0c-0.2,0-0.3,0-0.5,0h-0.4c-0.1,0-0.2,0-0.2-0.1c-0.1-0.1-0.1-0.1-0.1-0.2c0-0.1,0-0.2,0-0.3v-0.3
	c-0.1,0.1-0.2,0.2-0.3,0.3c-0.1,0.1-0.3,0.2-0.4,0.3c-0.2,0.1-0.4,0.2-0.6,0.2c-0.2,0.1-0.5,0.1-0.7,0.1c-0.3,0-0.5,0-0.8-0.1
	c-0.2-0.1-0.5-0.2-0.6-0.4c-0.2-0.2-0.3-0.4-0.4-0.6C251.5,28.5,251.4,28.2,251.4,27.9z M254.2,28.7h0.2l0.3-0.1
	c0.1,0,0.2-0.1,0.3-0.1c0.1,0,0.2-0.1,0.2-0.2v-2c-0.3,0-0.6,0-0.9,0.1c-0.2,0.1-0.4,0.1-0.6,0.3c-0.1,0.1-0.3,0.2-0.3,0.4
	c-0.1,0.2-0.1,0.3-0.1,0.5c0,0.3,0.1,0.6,0.2,0.8C253.7,28.6,253.9,28.7,254.2,28.7L254.2,28.7z"/>
<path class="st1" d="M258.5,29.6v-0.8l0.8-0.1v-4.5l-0.8-0.2v-0.9l2.1-0.3l0,0l0.3,0.2v0.7c0.1-0.1,0.3-0.2,0.5-0.4
	c0.2-0.1,0.4-0.2,0.6-0.3c0.2-0.1,0.4-0.2,0.6-0.2c0.2-0.1,0.5-0.1,0.7-0.1c0.3,0,0.6,0,0.9,0.1c0.2,0.1,0.5,0.3,0.6,0.5
	c0.2,0.2,0.3,0.5,0.3,0.8c0.1,0.4,0.1,0.8,0.1,1.2v3.2l0.8,0.1v0.8h-3.3v-0.8l0.6-0.1v-3.3c0-0.2,0-0.5,0-0.7c0-0.2-0.1-0.3-0.1-0.5
	c-0.1-0.1-0.2-0.2-0.3-0.3c-0.2-0.1-0.3-0.1-0.5-0.1c-0.1,0-0.3,0-0.4,0c-0.1,0-0.2,0.1-0.4,0.1l-0.3,0.2l-0.2,0.2v4.3l0.8,0.1v0.8
	H258.5z"/>
<path class="st1" d="M266.9,29.3v-1.7h1.1l0.3,0.9c0,0.1,0.1,0.1,0.2,0.2c0.1,0.1,0.2,0.1,0.3,0.1c0.2,0.1,0.5,0.1,0.7,0.1
	c0.2,0,0.3,0,0.5-0.1c0.1,0,0.2-0.1,0.3-0.2c0.1-0.1,0.1-0.2,0.1-0.2c0-0.1,0-0.2,0-0.3c0-0.2,0-0.3-0.1-0.4
	c-0.1-0.1-0.2-0.2-0.4-0.3c-0.2-0.1-0.4-0.2-0.6-0.3l-0.7-0.3c-0.3-0.1-0.5-0.2-0.7-0.4c-0.2-0.1-0.4-0.3-0.5-0.5
	c-0.3-0.3-0.5-0.8-0.5-1.3c0-0.3,0.1-0.5,0.2-0.8c0.1-0.2,0.3-0.5,0.5-0.6c0.3-0.2,0.5-0.3,0.9-0.4c0.4-0.1,0.8-0.2,1.2-0.1
	c0.2,0,0.5,0,0.7,0l0.5,0.1l0.5,0.1c0.1,0,0.3,0.1,0.4,0.1v1.6h-1l-0.3-0.8c-0.1-0.1-0.2-0.2-0.3-0.3c-0.2-0.1-0.4-0.1-0.6-0.1
	c-0.1,0-0.3,0-0.4,0.1c-0.1,0-0.2,0.1-0.3,0.1c-0.1,0.1-0.1,0.1-0.2,0.2c0,0.1,0,0.2,0,0.2c0,0.2,0.1,0.4,0.2,0.5
	c0.1,0.1,0.2,0.2,0.4,0.3c0.2,0.1,0.3,0.2,0.5,0.2c0.2,0.1,0.4,0.1,0.5,0.2c0.3,0.1,0.5,0.2,0.7,0.4c0.2,0.1,0.4,0.3,0.6,0.4
	c0.2,0.2,0.3,0.4,0.4,0.6c0.1,0.2,0.2,0.5,0.2,0.8c0,0.3-0.1,0.5-0.2,0.8c-0.1,0.2-0.3,0.5-0.5,0.6c-0.3,0.2-0.5,0.3-0.9,0.4
	c-0.4,0.1-0.8,0.2-1.2,0.2c-0.3,0-0.6,0-0.9-0.1c-0.2,0-0.5-0.1-0.7-0.1c-0.2,0-0.4-0.1-0.6-0.2C267.1,29.4,267,29.3,266.9,29.3z"/>
<path class="st1" d="M274.5,29.8c-0.1,0-0.3,0-0.4-0.1c-0.1,0-0.2-0.1-0.3-0.2c-0.1-0.1-0.2-0.2-0.2-0.3c-0.1-0.1-0.1-0.3-0.1-0.4
	c0-0.2,0-0.3,0.1-0.4c0.1-0.1,0.2-0.3,0.3-0.4c0.1-0.1,0.2-0.2,0.4-0.2c0.1-0.1,0.3-0.1,0.5-0.1c0.2,0,0.3,0,0.5,0.1
	c0.1,0,0.2,0.1,0.3,0.2c0.1,0.1,0.2,0.2,0.2,0.3c0,0.1,0,0.2,0,0.4c0,0.2,0,0.3-0.1,0.5c-0.1,0.1-0.1,0.3-0.2,0.4
	c-0.1,0.1-0.2,0.2-0.4,0.2C274.8,29.7,274.7,29.8,274.5,29.8z"/>
</svg>
