<svg id="Layer_1" data-name="Layer 1" xmlns="http://www.w3.org/2000/svg" viewBox="0 0 320 50"><defs><style>.cls-1{opacity:0.05;}.cls-2{fill:#fff;}.cls-3{fill:#435563;}.cls-4{opacity:0.1;}</style></defs><g class="cls-1"><polygon class="cls-2" points="174.35 48.46 172.76 50 175.94 50 174.35 48.46"/><polygon class="cls-2" points="164.78 48.46 163.19 50 166.37 50 164.78 48.46"/><polygon class="cls-2" points="193.48 48.46 191.89 50 195.07 50 193.48 48.46"/><polygon class="cls-2" points="183.91 48.46 182.32 50 185.5 50 183.91 48.46"/><polygon class="cls-2" points="203.04 48.46 203.04 48.46 201.46 50 204.63 50 203.04 48.46"/><polygon class="cls-2" points="155.22 48.46 153.63 50 156.81 50 155.22 48.46"/><polygon class="cls-2" points="136.09 48.46 134.5 50 137.68 50 136.09 48.46"/><polygon class="cls-2" points="126.52 48.46 126.52 48.46 124.93 50 128.11 50 126.52 48.46"/><polygon class="cls-2" points="145.65 48.46 144.06 50 147.24 50 145.65 48.46"/><polygon class="cls-2" points="270 48.46 268.41 50 271.59 50 270 48.46"/><polygon class="cls-2" points="260.43 48.46 258.85 50 262.02 50 260.43 48.46"/><polygon class="cls-2" points="212.61 48.46 211.02 50 214.2 50 212.61 48.46"/><polygon class="cls-2" points="279.56 48.46 279.56 48.46 277.98 50 281.15 50 279.56 48.46"/><polygon class="cls-2" points="289.13 48.46 287.54 50 290.72 50 289.13 48.46"/><polygon class="cls-2" points="222.17 48.46 220.59 50 223.76 50 222.17 48.46"/><polygon class="cls-2" points="231.74 48.46 230.15 50 233.33 50 231.74 48.46"/><polygon class="cls-2" points="241.3 48.46 239.72 50 242.89 50 241.3 48.46"/><polygon class="cls-2" points="250.87 48.46 250.87 48.46 249.28 50 252.46 50 250.87 48.46"/><polygon class="cls-2" points="11.74 48.46 10.15 50 13.33 50 11.74 48.46"/><polygon class="cls-2" points="30.87 48.46 30.87 48.46 29.28 50 32.46 50 30.87 48.46"/><polygon class="cls-2" points="6.96 48.46 11.74 43.81 16.52 48.46 21.31 43.81 26.09 48.46 30.87 43.81 35.65 48.46 40.44 43.81 45.22 48.46 50 43.81 54.78 48.46 59.57 43.81 64.35 48.46 69.13 43.81 73.91 48.46 78.7 43.81 83.48 48.46 88.26 43.81 93.04 48.46 97.83 43.81 102.61 48.46 102.61 48.46 107.39 43.81 112.17 48.46 112.17 48.46 116.96 43.81 121.74 48.46 126.52 43.81 131.31 48.46 136.09 43.81 140.87 48.46 145.65 43.81 150.44 48.46 152.83 46.13 155.22 43.81 160 48.46 164.78 43.81 169.56 48.46 174.35 43.81 179.13 48.46 183.91 43.81 188.69 48.46 193.48 43.81 198.26 48.46 198.26 48.46 203.04 43.81 207.83 48.46 212.61 43.81 217.39 48.46 222.17 43.81 226.96 48.46 231.74 43.81 236.52 48.46 241.3 43.81 246.09 48.46 250.87 43.81 255.65 48.46 260.43 43.81 265.22 48.46 270 43.81 274.78 48.46 279.56 43.81 284.35 48.46 284.35 48.46 289.13 43.81 293.91 48.46 298.69 43.81 303.48 48.46 308.26 43.81 313.04 48.46 315.43 46.13 317.82 43.81 320 45.92 320 41.28 317.82 39.16 317.82 39.16 313.04 43.81 308.26 39.16 303.48 43.81 298.69 39.16 298.69 39.16 293.91 43.81 289.13 39.16 284.35 43.81 279.56 39.16 279.56 39.16 274.78 43.81 270 39.16 265.22 43.81 260.43 39.16 255.65 43.81 250.87 39.16 250.87 39.16 250.87 39.16 246.09 43.81 241.3 39.16 236.52 43.81 231.74 39.16 226.96 43.81 222.17 39.16 217.39 43.81 212.61 39.16 207.83 43.81 203.04 39.16 203.04 39.16 198.26 43.81 193.48 39.16 188.69 43.81 183.91 39.16 179.13 43.81 174.35 39.16 169.56 43.81 164.78 39.16 160 43.81 155.22 39.16 150.44 43.81 145.65 39.16 140.87 43.81 136.09 39.16 131.31 43.81 126.52 39.16 126.52 39.16 121.74 43.81 116.96 39.16 112.17 43.81 107.39 39.16 102.61 43.81 97.83 39.16 93.04 43.81 88.26 39.16 88.26 39.16 88.26 39.16 83.48 43.81 78.7 39.16 73.91 43.81 69.13 39.16 64.35 43.81 59.57 39.16 54.78 43.81 50 39.16 45.22 43.81 40.44 39.16 35.65 43.81 30.87 39.16 30.87 39.16 26.09 43.81 21.31 39.16 16.52 43.81 11.74 39.16 6.96 43.81 2.17 39.16 0 41.28 0 45.92 2.17 43.81 6.96 48.46"/><polygon class="cls-2" points="21.31 48.46 19.72 50 22.89 50 21.31 48.46"/><polygon class="cls-2" points="116.96 48.46 115.37 50 118.55 50 116.96 48.46"/><polygon class="cls-2" points="21.31 1.99 16.52 6.63 11.74 1.99 6.96 6.63 2.17 1.99 0 4.1 0 8.75 2.17 6.63 6.96 11.28 11.74 6.63 16.52 11.28 21.31 6.63 26.09 11.28 30.87 6.63 35.65 11.28 40.44 6.63 45.22 11.28 50 6.63 54.78 11.28 59.57 6.63 64.35 11.28 69.13 6.63 73.91 11.28 78.7 6.63 83.48 11.28 88.26 6.63 93.04 11.28 97.83 6.63 102.61 11.28 102.61 11.28 107.39 6.63 112.17 11.28 112.17 11.28 116.96 6.63 121.74 11.28 126.52 6.63 131.31 11.28 136.09 6.63 140.87 11.28 145.65 6.63 150.44 11.28 152.83 8.96 155.22 6.63 160 11.28 164.78 6.63 169.56 11.28 174.35 6.63 179.13 11.28 183.91 6.63 188.69 11.28 193.48 6.63 198.26 11.28 198.26 11.28 203.04 6.63 207.83 11.28 212.61 6.63 217.39 11.28 222.17 6.63 226.96 11.28 231.74 6.63 236.52 11.28 241.3 6.63 246.09 11.28 250.87 6.63 255.65 11.28 260.43 6.63 265.22 11.28 270 6.63 274.78 11.28 279.56 6.63 284.35 11.28 284.35 11.28 289.13 6.63 293.91 11.28 298.69 6.63 303.48 11.28 308.26 6.63 313.04 11.28 315.43 8.96 317.82 6.63 320 8.75 320 4.1 317.82 1.99 317.82 1.99 313.04 6.63 308.26 1.99 303.48 6.63 298.69 1.99 298.69 1.99 293.91 6.63 289.13 1.99 284.35 6.63 279.56 1.99 279.56 1.99 274.78 6.63 270 1.99 265.22 6.63 260.43 1.99 255.65 6.63 250.87 1.99 250.87 1.99 250.87 1.99 246.09 6.63 241.3 1.99 236.52 6.63 231.74 1.99 226.96 6.63 222.17 1.99 217.39 6.63 212.61 1.99 207.83 6.63 203.04 1.99 203.04 1.99 198.26 6.63 193.48 1.99 188.69 6.63 183.91 1.99 179.13 6.63 174.35 1.99 169.56 6.63 164.78 1.99 160 6.63 155.22 1.99 150.44 6.63 145.65 1.99 140.87 6.63 136.09 1.99 131.31 6.63 126.52 1.99 126.52 1.99 121.74 6.63 116.96 1.99 112.17 6.63 107.39 1.99 102.61 6.63 97.83 1.99 93.04 6.63 88.26 1.99 88.26 1.99 88.26 1.99 83.48 6.63 78.7 1.99 73.91 6.63 69.13 1.99 64.35 6.63 59.57 1.99 54.78 6.63 50 1.99 45.22 6.63 40.44 1.99 35.65 6.63 30.87 1.99 30.87 1.99 26.09 6.63 21.31 1.99"/><polygon class="cls-2" points="317.82 20.58 313.04 25.22 308.26 20.58 303.48 25.22 298.69 20.58 298.69 20.58 293.91 25.22 289.13 20.58 284.35 25.22 279.56 20.58 279.56 20.58 274.78 25.22 270 20.58 265.22 25.22 260.43 20.58 255.65 25.22 250.87 20.58 250.87 20.58 246.09 25.22 241.3 20.58 236.52 25.22 231.74 20.58 226.96 25.22 222.17 20.58 217.39 25.22 212.61 20.58 207.83 25.22 203.04 20.58 203.04 20.58 198.26 25.22 193.48 20.58 188.69 25.22 183.91 20.58 179.13 25.22 174.35 20.58 169.56 25.22 164.78 20.58 160 25.22 155.22 20.58 150.44 25.22 145.65 20.58 140.87 25.22 136.09 20.58 131.31 25.22 126.52 20.58 126.52 20.58 121.74 25.22 116.96 20.58 112.17 25.22 107.39 20.58 102.61 25.22 97.83 20.58 93.04 25.22 88.26 20.58 88.26 20.58 83.48 25.22 78.7 20.58 73.91 25.22 69.13 20.58 64.35 25.22 59.57 20.58 54.78 25.22 50 20.58 45.22 25.22 40.44 20.58 35.65 25.22 30.87 20.58 30.87 20.58 26.09 25.22 21.31 20.58 16.52 25.22 11.74 20.58 6.96 25.22 2.17 20.58 0 22.69 0 27.34 2.17 25.22 6.96 29.87 11.74 25.22 16.52 29.87 21.31 25.22 26.09 29.87 30.87 25.22 35.65 29.87 40.44 25.22 45.22 29.87 50 25.22 54.78 29.87 59.57 25.22 64.35 29.87 69.13 25.22 73.91 29.87 78.7 25.22 83.48 29.87 88.26 25.22 93.04 29.87 97.83 25.22 102.61 29.87 102.61 29.87 107.39 25.22 112.17 29.87 112.17 29.87 116.96 25.22 121.74 29.87 126.52 25.22 131.31 29.87 136.09 25.22 140.87 29.87 145.65 25.22 150.44 29.87 152.83 27.55 155.22 25.22 160 29.87 164.78 25.22 169.56 29.87 174.35 25.22 179.13 29.87 183.91 25.22 188.69 29.87 193.48 25.22 198.26 29.87 198.26 29.87 203.04 25.22 207.83 29.87 212.61 25.22 217.39 29.87 222.17 25.22 226.96 29.87 231.74 25.22 236.52 29.87 241.3 25.22 246.09 29.87 250.87 25.22 255.65 29.87 260.43 25.22 265.22 29.87 270 25.22 274.78 29.87 279.56 25.22 284.35 29.87 284.35 29.87 289.13 25.22 293.91 29.87 298.69 25.22 303.48 29.87 308.26 25.22 313.04 29.87 315.43 27.55 317.82 25.22 320 27.34 320 22.69 317.82 20.58 317.82 20.58"/><polygon class="cls-2" points="6.96 39.16 11.74 34.52 16.52 39.16 21.31 34.52 26.09 39.16 30.87 34.52 35.65 39.16 40.44 34.52 45.22 39.16 50 34.52 54.78 39.16 59.57 34.52 64.35 39.16 69.13 34.52 73.91 39.16 78.7 34.52 83.48 39.16 88.26 34.52 93.04 39.16 97.83 34.52 102.61 39.16 102.61 39.16 107.39 34.52 112.17 39.16 112.17 39.16 116.96 34.52 121.74 39.16 126.52 34.52 131.31 39.16 136.09 34.52 140.87 39.16 145.65 34.52 150.44 39.16 152.83 36.84 155.22 34.52 160 39.16 164.78 34.52 169.56 39.16 174.35 34.52 179.13 39.16 183.91 34.52 188.69 39.16 193.48 34.52 198.26 39.16 198.26 39.16 203.04 34.52 207.83 39.16 212.61 34.52 217.39 39.16 222.17 34.52 226.96 39.16 231.74 34.52 236.52 39.16 241.3 34.52 246.09 39.16 250.87 34.52 255.65 39.16 260.43 34.52 265.22 39.16 270 34.52 274.78 39.16 279.56 34.52 284.35 39.16 284.35 39.16 289.13 34.52 293.91 39.16 298.69 34.52 303.48 39.16 308.26 34.52 313.04 39.16 315.43 36.84 317.82 34.52 320 36.63 320 31.98 317.82 29.87 317.82 29.87 313.04 34.52 308.26 29.87 303.48 34.52 298.69 29.87 298.69 29.87 293.91 34.52 289.13 29.87 284.35 34.52 279.56 29.87 279.56 29.87 274.78 34.52 270 29.87 265.22 34.52 260.43 29.87 255.65 34.52 250.87 29.87 250.87 29.87 246.09 34.52 241.3 29.87 236.52 34.52 231.74 29.87 226.96 34.52 222.17 29.87 217.39 34.52 212.61 29.87 207.83 34.52 203.04 29.87 203.04 29.87 198.26 34.52 193.48 29.87 188.69 34.52 183.91 29.87 179.13 34.52 174.35 29.87 169.56 34.52 164.78 29.87 160 34.52 155.22 29.87 150.44 34.52 145.65 29.87 140.87 34.52 136.09 29.87 131.31 34.52 126.52 29.87 126.52 29.87 121.74 34.52 116.96 29.87 112.17 34.52 107.39 29.87 102.61 34.52 97.83 29.87 93.04 34.52 88.26 29.87 88.26 29.87 83.48 34.52 78.7 29.87 73.91 34.52 69.13 29.87 64.35 34.52 59.57 29.87 54.78 34.52 50 29.87 45.22 34.52 40.44 29.87 35.65 34.52 30.87 29.87 30.87 29.87 26.09 34.52 21.31 29.87 16.52 34.52 11.74 29.87 6.96 34.52 2.17 29.87 0 31.98 0 36.63 2.17 34.52 6.96 39.16"/><polygon class="cls-2" points="2.17 48.46 0.59 50 3.76 50 2.17 48.46"/><polygon class="cls-2" points="97.83 48.46 96.24 50 99.42 50 97.83 48.46"/><polygon class="cls-2" points="88.26 48.46 88.26 48.46 86.67 50 89.85 50 88.26 48.46"/><polygon class="cls-2" points="78.7 48.46 77.11 50 80.28 50 78.7 48.46"/><polygon class="cls-2" points="107.39 48.46 105.8 50 108.98 50 107.39 48.46"/><polygon class="cls-2" points="69.13 48.46 67.54 50 70.72 50 69.13 48.46"/><polygon class="cls-2" points="50 48.46 48.41 50 51.59 50 50 48.46"/><polygon class="cls-2" points="59.57 48.46 57.98 50 61.16 50 59.57 48.46"/><polygon class="cls-2" points="40.44 48.46 38.85 50 42.02 50 40.44 48.46"/><polygon class="cls-2" points="317.82 11.28 313.04 15.93 308.26 11.28 303.48 15.93 298.69 11.28 298.69 11.28 293.91 15.93 289.13 11.28 284.35 15.93 279.56 11.28 279.56 11.28 274.78 15.93 270 11.28 265.22 15.93 260.43 11.28 255.65 15.93 250.87 11.28 250.87 11.28 246.09 15.93 241.3 11.28 236.52 15.93 231.74 11.28 226.96 15.93 222.17 11.28 217.39 15.93 212.61 11.28 207.83 15.93 203.04 11.28 203.04 11.28 198.26 15.93 193.48 11.28 188.69 15.93 183.91 11.28 179.13 15.93 174.35 11.28 169.56 15.93 164.78 11.28 160 15.93 155.22 11.28 150.44 15.93 145.65 11.28 140.87 15.93 136.09 11.28 131.31 15.93 126.52 11.28 126.52 11.28 121.74 15.93 116.96 11.28 112.17 15.93 107.39 11.28 102.61 15.93 97.83 11.28 93.04 15.93 88.26 11.28 88.26 11.28 83.48 15.93 78.7 11.28 73.91 15.93 69.13 11.28 64.35 15.93 59.57 11.28 54.78 15.93 50 11.28 45.22 15.93 40.44 11.28 35.65 15.93 30.87 11.28 30.87 11.28 26.09 15.93 21.31 11.28 16.52 15.93 11.74 11.28 6.96 15.93 2.17 11.28 0 13.4 0 18.04 2.17 15.93 6.96 20.58 11.74 15.93 16.52 20.58 21.31 15.93 26.09 20.58 30.87 15.93 35.65 20.58 40.44 15.93 45.22 20.58 50 15.93 54.78 20.58 59.57 15.93 64.35 20.58 69.13 15.93 73.91 20.58 78.7 15.93 83.48 20.58 88.26 15.93 93.04 20.58 97.83 15.93 102.61 20.58 102.61 20.58 107.39 15.93 112.17 20.58 112.17 20.58 116.96 15.93 121.74 20.58 126.52 15.93 131.31 20.58 136.09 15.93 140.87 20.58 145.65 15.93 148.04 18.25 150.44 20.58 152.83 18.25 155.22 15.93 160 20.58 164.78 15.93 169.56 20.58 174.35 15.93 179.13 20.58 183.91 15.93 188.69 20.58 193.48 15.93 198.26 20.58 198.26 20.58 203.04 15.93 207.83 20.58 212.61 15.93 217.39 20.58 222.17 15.93 226.96 20.58 231.74 15.93 236.52 20.58 241.3 15.93 246.09 20.58 250.87 15.93 255.65 20.58 260.43 15.93 265.22 20.58 270 15.93 274.78 20.58 279.56 15.93 284.35 20.58 284.35 20.58 289.13 15.93 293.91 20.58 298.69 15.93 303.48 20.58 308.26 15.93 310.65 18.25 313.04 20.58 315.43 18.25 317.82 15.93 320 18.04 320 13.4 317.82 11.28 317.82 11.28"/><polygon class="cls-2" points="102.61 1.99 104.66 0 100.56 0 102.61 1.99 102.61 1.99"/><polygon class="cls-2" points="112.17 1.99 114.22 0 110.13 0 112.17 1.99 112.17 1.99"/><polygon class="cls-2" points="95.09 0 91 0 93.04 1.99 95.09 0"/><polygon class="cls-2" points="123.79 0 119.69 0 121.74 1.99 123.79 0"/><polygon class="cls-2" points="142.92 0 138.82 0 140.87 1.99 142.92 0"/><polygon class="cls-2" points="162.05 0 157.95 0 160 1.99 162.05 0"/><polygon class="cls-2" points="152.48 0 148.39 0 150.44 1.99 152.48 0"/><polygon class="cls-2" points="133.35 0 129.26 0 131.31 1.99 133.35 0"/><polygon class="cls-2" points="85.53 0 81.43 0 83.48 1.99 85.53 0"/><polygon class="cls-2" points="37.7 0 33.61 0 35.65 1.99 37.7 0"/><polygon class="cls-2" points="298.69 48.46 298.69 48.46 297.11 50 300.28 50 298.69 48.46"/><polygon class="cls-2" points="171.61 0 167.52 0 169.56 1.99 171.61 0"/><polygon class="cls-2" points="75.96 0 71.87 0 73.91 1.99 75.96 0"/><polygon class="cls-2" points="9 0 4.91 0 6.96 1.99 9 0"/><polygon class="cls-2" points="28.14 0 24.04 0 26.09 1.99 28.14 0"/><polygon class="cls-2" points="47.27 0 43.17 0 45.22 1.99 47.27 0"/><polygon class="cls-2" points="66.39 0 62.3 0 64.35 1.99 66.39 0"/><polygon class="cls-2" points="56.83 0 52.74 0 54.78 1.99 56.83 0"/><polygon class="cls-2" points="18.57 0 14.48 0 16.52 1.99 18.57 0"/><polygon class="cls-2" points="305.52 0 301.43 0 303.48 1.99 305.52 0"/><polygon class="cls-2" points="284.35 1.99 286.39 0 282.3 0 284.35 1.99 284.35 1.99"/><polygon class="cls-2" points="267.26 0 263.17 0 265.22 1.99 267.26 0"/><polygon class="cls-2" points="181.18 0 177.08 0 179.13 1.99 181.18 0"/><polygon class="cls-2" points="295.96 0 291.87 0 293.91 1.99 295.96 0"/><polygon class="cls-2" points="315.09 0 311 0 313.04 1.99 315.09 0"/><polygon class="cls-2" points="308.26 48.46 306.67 50 309.85 50 308.26 48.46"/><polygon class="cls-2" points="317.82 48.46 317.82 48.46 316.24 50 319.41 50 317.82 48.46"/><polygon class="cls-2" points="276.83 0 272.74 0 274.78 1.99 276.83 0"/><polygon class="cls-2" points="219.44 0 215.34 0 217.39 1.99 219.44 0"/><polygon class="cls-2" points="198.26 1.99 200.31 0 196.21 0 198.26 1.99 198.26 1.99"/><polygon class="cls-2" points="209.87 0 205.78 0 207.83 1.99 209.87 0"/><polygon class="cls-2" points="190.74 0 186.65 0 188.69 1.99 190.74 0"/><polygon class="cls-2" points="257.7 0 253.6 0 255.65 1.99 257.7 0"/><polygon class="cls-2" points="248.13 0 244.04 0 246.09 1.99 248.13 0"/><polygon class="cls-2" points="238.57 0 234.47 0 236.52 1.99 238.57 0"/><polygon class="cls-2" points="229 0 224.91 0 226.96 1.99 229 0"/></g><rect class="cls-3" width="319.86" height="50"/><g class="cls-4"><path class="cls-2" d="M311.15,11.58a.86.86,0,0,1-.58-.26L308.9,9.66c-.36-.36-.65-.24-.65.27v4.64a2.54,2.54,0,0,0,.65,1.56l1.46,1.46a.9.9,0,0,0,.79.25.83.83,0,0,0,.5-.25l9.87-9.86a.94.94,0,0,1,1.3,0l4.44,4.45a2.51,2.51,0,0,0,1.56.65h4.43c.51,0,.63-.29.27-.65L322.92,1.56a.91.91,0,0,0-.69-.26,1,1,0,0,0-.61.26l-9.75,9.76A.92.92,0,0,1,311.15,11.58Z"/><path class="cls-2" d="M334.43,35.63l-9.76-9.76a.88.88,0,0,1-.24-.84.8.8,0,0,1,.24-.45l1.68-1.68c.35-.36.23-.65-.27-.65h-4.66a2.54,2.54,0,0,0-1.56.65l-1.47,1.47a.88.88,0,0,0-.26.66.86.86,0,0,0,.27.63l9.86,9.87a.89.89,0,0,1,.27.64.93.93,0,0,1-.27.66l-4.44,4.43a2.6,2.6,0,0,0-.65,1.57v4.45c0,.51.28.63.64.27l10.62-10.62a.87.87,0,0,0,.25-.76A.9.9,0,0,0,334.43,35.63Z"/><path class="cls-2" d="M310.8,38.42a.87.87,0,0,1,.62.26l1.67,1.67c.36.36.65.24.65-.27V35.43a2.54,2.54,0,0,0-.65-1.57l-1.46-1.45a.9.9,0,0,0-.83-.25.94.94,0,0,0-.47.25l-9.86,9.86a.84.84,0,0,1-.6.26.89.89,0,0,1-.7-.26l-4.44-4.45a2.57,2.57,0,0,0-1.56-.65l-4.48,0c-.51,0-.63.28-.27.64l10.65,10.65a1,1,0,0,0,.8.25,1,1,0,0,0,.5-.25l9.75-9.76A.9.9,0,0,1,310.8,38.42Z"/><path class="cls-2" d="M301.35,34.33a.91.91,0,0,1,.27.65v2.35c0,.51.29.62.65.27l3.29-3.29a2.51,2.51,0,0,0,.65-1.56V30.69a.94.94,0,0,0-.92-.92h-14a.92.92,0,0,1-.91-.91V22.57a2.46,2.46,0,0,0-.67-1.56l-3.11-3c-.36-.35-.66-.23-.66.28V33.14a.91.91,0,0,0,.31.68.9.9,0,0,0,.61.24h13.8A.92.92,0,0,1,301.35,34.33Z"/><path class="cls-2" d="M297.32,24.12a.93.93,0,0,1,.25.8.92.92,0,0,1-.25.5l-1.67,1.67c-.36.36-.24.65.27.65h4.65a2.54,2.54,0,0,0,1.56-.65l1.46-1.45a.92.92,0,0,0,.26-.72.91.91,0,0,0-.26-.57l-9.87-9.88a1,1,0,0,1-.21-1,1,1,0,0,1,.21-.33l4.45-4.44a2.49,2.49,0,0,0,.63-1.56l-.08-4.34c0-.51-.3-.63-.66-.27L287.57,13.08a.78.78,0,0,0-.24.43.9.9,0,0,0,.24.86Z"/><path class="cls-2" d="M323.6,33.73l-3.29-3.29a2.51,2.51,0,0,0-1.56-.65h-2.07a.91.91,0,0,0-.65.27.89.89,0,0,0-.27.64v14a.91.91,0,0,1-.31.68.87.87,0,0,1-.6.24h-6.29a2.44,2.44,0,0,0-1.55.66l-3,3.11c-.35.36-.23.66.28.66h14.85a.91.91,0,0,0,.68-.31.92.92,0,0,0,.23-.61V35.29a.91.91,0,0,1,.23-.59.94.94,0,0,1,.69-.32h2.37C323.83,34.38,324,34.08,323.6,33.73Z"/><path class="cls-2" d="M298.39,16.28l3.29,3.28a2.54,2.54,0,0,0,1.56.65h2.07a.91.91,0,0,0,.68-.31.92.92,0,0,0,.24-.6V5.35a.91.91,0,0,1,.91-.91h6.29A2.5,2.5,0,0,0,315,3.78l3-3.12c.35-.36.23-.66-.28-.66H302.86a.92.92,0,0,0-.92.91V14.72a.92.92,0,0,1-.92.91h-2.37C298.15,15.63,298,15.92,298.39,16.28Z"/><path class="cls-2" d="M335.73,16.22a.91.91,0,0,0-.65-.27h-13.8a.93.93,0,0,1-.92-.91V12.66c0-.5-.29-.62-.64-.27l-3.29,3.29a2.54,2.54,0,0,0-.65,1.57v2.06a.92.92,0,0,0,.21.58.9.9,0,0,0,.71.34h13.95a.89.89,0,0,1,.65.28.93.93,0,0,1,.27.64v6.29a2.49,2.49,0,0,0,.65,1.55l3.12,3c.36.35.66.23.66-.28V16.87A.91.91,0,0,0,335.73,16.22Z"/></g></svg>