<svg id="Layer_1" data-name="Layer 1" xmlns="http://www.w3.org/2000/svg" viewBox="0 0 300 600"><defs><style>.cls-1{fill:#fff;}.cls-2{fill:#f1b533;}</style></defs><path class="cls-1" d="M30,490.15v-2l1.89-.41,7.06-20h4.7l7,20,2,.41v2H43.18v-2l2.39-.41-1.1-3.57H36.52l-1,3.59,2.42.39v2Zm9.93-17.73-2.72,9.45h6.59l-2.89-9.45-.51-2.14Z"/><path class="cls-1" d="M62.87,489.21v-4.12h2.7l.76,2.29a1.64,1.64,0,0,0,.4.38,3,3,0,0,0,.65.34,5.29,5.29,0,0,0,.84.24,5.18,5.18,0,0,0,1,.09,3.3,3.3,0,0,0,1.19-.17,2.12,2.12,0,0,0,.74-.45,1.28,1.28,0,0,0,.38-.61,2.34,2.34,0,0,0,.11-.67,1.8,1.8,0,0,0-.32-1.06,3.23,3.23,0,0,0-.89-.82,10,10,0,0,0-1.4-.73l-1.82-.76a11.75,11.75,0,0,1-1.81-.91A6.24,6.24,0,0,1,64,481.11a4.71,4.71,0,0,1-.88-1.41,4.77,4.77,0,0,1-.3-1.74,4.33,4.33,0,0,1,.43-1.93,4.24,4.24,0,0,1,1.28-1.53,6.39,6.39,0,0,1,2.11-1,10.26,10.26,0,0,1,2.92-.37,12.65,12.65,0,0,1,1.72.11,13.73,13.73,0,0,1,1.37.28c.41.1.78.21,1.12.32a8.59,8.59,0,0,0,1,.25v4.05l-2.55-.05-.69-1.95a2,2,0,0,0-.77-.65,3.11,3.11,0,0,0-1.45-.33,3.55,3.55,0,0,0-1.11.15,2,2,0,0,0-.72.39,1.55,1.55,0,0,0-.39.55,1.87,1.87,0,0,0-.11.61,1.93,1.93,0,0,0,.39,1.25,3.39,3.39,0,0,0,1,.83,8,8,0,0,0,1.32.59c.48.18.93.36,1.36.55.64.29,1.26.59,1.85.91a7.33,7.33,0,0,1,1.55,1.1,4.85,4.85,0,0,1,1.09,1.46,4.44,4.44,0,0,1,.4,2,4.84,4.84,0,0,1-.41,2,4.41,4.41,0,0,1-1.26,1.58,6.23,6.23,0,0,1-2.11,1.05,10.2,10.2,0,0,1-3,.38,12.61,12.61,0,0,1-2.12-.16,16.44,16.44,0,0,1-1.74-.37c-.52-.14-1-.28-1.4-.43S63.17,489.28,62.87,489.21Z"/><path class="cls-1" d="M78.18,490.15v-2l2.14-.27V476.63l-2-.63v-2.2l5.38-.72h.07l1.07.63v14.18l2.12.29v2Zm3.9-19.54a2.22,2.22,0,0,1-.92-.19,2,2,0,0,1-.67-.51,2,2,0,0,1-.41-.75,2.71,2.71,0,0,1-.14-.91,3.81,3.81,0,0,1,.15-1.08,2.43,2.43,0,0,1,1.27-1.49,2.75,2.75,0,0,1,1.11-.22h0a2.49,2.49,0,0,1,1,.2,2,2,0,0,1,.72.53,2,2,0,0,1,.43.75,2.73,2.73,0,0,1,.14.9,3.5,3.5,0,0,1-.16,1.09,2.3,2.3,0,0,1-.49.88,2.18,2.18,0,0,1-.85.58,3,3,0,0,1-1.22.22Z"/><path class="cls-1" d="M89.19,490.15v-1.91l1.84-.33V476.63L89,476V473.8l5.19-.72h.07l.78.63v1.75a6.45,6.45,0,0,1,1.19-.88,9.45,9.45,0,0,1,1.53-.75,9.65,9.65,0,0,1,1.66-.51,7.13,7.13,0,0,1,1.61-.19,5.64,5.64,0,0,1,2.68.54,3.45,3.45,0,0,1,1.51,1.73,6.61,6.61,0,0,1,1.08-.77,9.15,9.15,0,0,1,1.47-.73,10.13,10.13,0,0,1,1.69-.55,6.94,6.94,0,0,1,1.72-.22,6.36,6.36,0,0,1,2.3.35,3.05,3.05,0,0,1,1.48,1.14,5.25,5.25,0,0,1,.79,2.06,16.81,16.81,0,0,1,.24,3.08v8.15l2.06.33v1.91H110v-1.91l1.53-.33v-8a12.87,12.87,0,0,0-.12-1.91,3.45,3.45,0,0,0-.42-1.27,1.73,1.73,0,0,0-.79-.7,3.2,3.2,0,0,0-1.24-.22,4.07,4.07,0,0,0-.81.1c-.29.07-.59.16-.88.26a8.93,8.93,0,0,0-.85.35,6,6,0,0,0-.72.38,8.79,8.79,0,0,1,.16,1.34c0,.48,0,1,0,1.57v8.13l2,.32v1.91H99.62v-1.91l1.76-.32v-8.19a11.18,11.18,0,0,0-.12-1.75,3.25,3.25,0,0,0-.4-1.21,1.77,1.77,0,0,0-.77-.69,3,3,0,0,0-1.24-.23,4.24,4.24,0,0,0-.92.1,9.07,9.07,0,0,0-.93.26,5.75,5.75,0,0,0-.83.35,4.62,4.62,0,0,0-.65.4v11l2,.33v1.91Z"/><path class="cls-1" d="M119.55,495.55l2.19-.36V476.63l-2-.62V473.8l5.25-.72h.07l.75.63v1.55a6.79,6.79,0,0,1,.86-.82,5.69,5.69,0,0,1,1.11-.71,6.74,6.74,0,0,1,1.35-.5,6.16,6.16,0,0,1,1.58-.19,7.05,7.05,0,0,1,2.53.45,5.32,5.32,0,0,1,2.06,1.44,7.25,7.25,0,0,1,1.38,2.56,12.35,12.35,0,0,1,.51,3.78,10.72,10.72,0,0,1-.6,3.63,8.66,8.66,0,0,1-1.7,2.92,7.84,7.84,0,0,1-2.71,1.95,8.71,8.71,0,0,1-3.61.71l-.72,0-.69-.08-.59-.09-.43-.08.09,2.43v2.55l2.9.36v1.86h-9.59Zm9.31-19.85a3.76,3.76,0,0,0-1.57.32,3.37,3.37,0,0,0-1.05.71v11.09a2.08,2.08,0,0,0,.81.49,3.81,3.81,0,0,0,1.34.21,3.44,3.44,0,0,0,1.51-.34,3.16,3.16,0,0,0,1.23-1.14A6.62,6.62,0,0,0,132,485a13.88,13.88,0,0,0,.35-3.16,12.86,12.86,0,0,0-.21-2.81,5.76,5.76,0,0,0-.69-1.89,2.9,2.9,0,0,0-1.11-1.07A3.2,3.2,0,0,0,128.86,475.7Z"/><path class="cls-1" d="M139.07,490.15v-2l2.13-.29V468.34L139,468v-1.71l5.73-.72h0l.92.69v21.66l2.21.29v2Z"/><path class="cls-1" d="M157.5,490.48a8.87,8.87,0,0,1-3.55-.64,6.57,6.57,0,0,1-2.45-1.79,7.4,7.4,0,0,1-1.41-2.75,12.87,12.87,0,0,1-.46-3.49,11,11,0,0,1,.58-3.67,7.87,7.87,0,0,1,1.64-2.75,6.9,6.9,0,0,1,2.53-1.74,8.67,8.67,0,0,1,3.28-.6q6.08,0,6.34,5.94c0,.67,0,1.28,0,1.82a9.08,9.08,0,0,1-.16,1.37h-9.56a9.24,9.24,0,0,0,.42,2.47,4.91,4.91,0,0,0,.92,1.67,3.41,3.41,0,0,0,1.36.94,4.78,4.78,0,0,0,1.72.29,7.61,7.61,0,0,0,1.39-.11,9.56,9.56,0,0,0,1.2-.3,6.38,6.38,0,0,0,1-.39,7.35,7.35,0,0,0,.77-.43l.76,1.78a5.82,5.82,0,0,1-1,.8,10.48,10.48,0,0,1-1.5.76,12,12,0,0,1-1.81.59A8.39,8.39,0,0,1,157.5,490.48ZM157.1,475a2.67,2.67,0,0,0-1.06.2,2,2,0,0,0-.86.78,5,5,0,0,0-.62,1.59,14.06,14.06,0,0,0-.3,2.63h5.26a1.79,1.79,0,0,1,0-.21c0-.09,0-.18,0-.28a2.72,2.72,0,0,0,0-.28v-.19a11.15,11.15,0,0,0-.1-1.51,5.37,5.37,0,0,0-.37-1.37,2.76,2.76,0,0,0-.75-1A1.88,1.88,0,0,0,157.1,475Z"/><path class="cls-1" d="M32.34,529.21v-4.12H35l.76,2.29a1.64,1.64,0,0,0,.4.38,3,3,0,0,0,.65.34,5.61,5.61,0,0,0,.84.24,5.18,5.18,0,0,0,1,.09,3.39,3.39,0,0,0,1.2-.17,2.32,2.32,0,0,0,.74-.45,1.46,1.46,0,0,0,.38-.61,2.72,2.72,0,0,0,.1-.67,1.8,1.8,0,0,0-.32-1.06,3.09,3.09,0,0,0-.89-.82,10,10,0,0,0-1.4-.73l-1.81-.76a11.88,11.88,0,0,1-1.82-.91,6.24,6.24,0,0,1-1.37-1.14,4.49,4.49,0,0,1-.87-1.41A4.57,4.57,0,0,1,32.3,518,4.2,4.2,0,0,1,34,514.5a6.39,6.39,0,0,1,2.11-1A10.26,10.26,0,0,1,39,513.1a12.54,12.54,0,0,1,1.72.11,13.73,13.73,0,0,1,1.37.28c.41.1.79.21,1.13.32a8,8,0,0,0,1,.25v4.05l-2.55-.05L41,516.11a2.12,2.12,0,0,0-.78-.65,3.08,3.08,0,0,0-1.45-.33,3.55,3.55,0,0,0-1.11.15,2.14,2.14,0,0,0-.72.39,1.52,1.52,0,0,0-.38.55,1.66,1.66,0,0,0-.12.61,1.88,1.88,0,0,0,.4,1.25,3.22,3.22,0,0,0,1,.83,8,8,0,0,0,1.32.59c.48.18.93.36,1.36.55.65.29,1.26.59,1.85.91a7.66,7.66,0,0,1,1.56,1.1A5,5,0,0,1,45,523.52a4.44,4.44,0,0,1,.4,2,4.68,4.68,0,0,1-.41,2,4.41,4.41,0,0,1-1.26,1.58,6.14,6.14,0,0,1-2.11,1.05,10.2,10.2,0,0,1-3,.38,12.61,12.61,0,0,1-2.12-.16,17,17,0,0,1-1.74-.37c-.52-.14-1-.28-1.4-.43A10.44,10.44,0,0,0,32.34,529.21Z"/><path class="cls-1" d="M47.5,522a10.45,10.45,0,0,1,.6-3.62,8.16,8.16,0,0,1,1.69-2.82,7.57,7.57,0,0,1,2.66-1.83,9,9,0,0,1,3.49-.65,14,14,0,0,1,1.8.11c.55.07,1,.16,1.47.25s.8.2,1.11.3l.76.25-.14,5H58.36l-.85-2.58a2.83,2.83,0,0,0-.79-1,1.81,1.81,0,0,0-1.14-.36,2.69,2.69,0,0,0-1.26.33,3.09,3.09,0,0,0-1,1,5.77,5.77,0,0,0-.74,1.83,11.29,11.29,0,0,0-.28,2.73,14.09,14.09,0,0,0,.29,3.07,5.65,5.65,0,0,0,.83,2,3.19,3.19,0,0,0,1.34,1.12,4.4,4.4,0,0,0,1.77.34,6.83,6.83,0,0,0,2.35-.36,9.36,9.36,0,0,0,1.67-.79l.77,1.77a5.63,5.63,0,0,1-.88.74,8.53,8.53,0,0,1-1.35.75,9.68,9.68,0,0,1-1.7.59,7.75,7.75,0,0,1-1.94.23,9,9,0,0,1-3.56-.64,6.5,6.5,0,0,1-2.45-1.79,7.27,7.27,0,0,1-1.42-2.7A11.82,11.82,0,0,1,47.5,522Z"/><path class="cls-1" d="M63.37,530.15v-2l2.11-.27V516.63l-2-.62V513.8l5-.72h.08l.78.63v3.5h.05A6.88,6.88,0,0,1,70,516a8.37,8.37,0,0,1,1.14-1.37,7,7,0,0,1,1.57-1.15,4.54,4.54,0,0,1,2.62-.43,1.8,1.8,0,0,1,.41.09v5.07a2.92,2.92,0,0,0-.85-.26,8.31,8.31,0,0,0-1.61-.14,9.38,9.38,0,0,0-2,.22,5.12,5.12,0,0,0-.8.22,2.69,2.69,0,0,0-.54.27v9.34l3.65.35v1.91Z"/><path class="cls-1" d="M85.31,530.48a8.9,8.9,0,0,1-3.55-.64,6.57,6.57,0,0,1-2.45-1.79,7.4,7.4,0,0,1-1.41-2.75,12.87,12.87,0,0,1-.45-3.49,11,11,0,0,1,.57-3.67,8,8,0,0,1,1.64-2.75,7,7,0,0,1,2.53-1.74,8.67,8.67,0,0,1,3.28-.6q6.09,0,6.35,5.94c0,.67,0,1.28,0,1.82a10.79,10.79,0,0,1-.15,1.37H82.09a9.24,9.24,0,0,0,.42,2.47,4.92,4.92,0,0,0,.93,1.67,3.31,3.31,0,0,0,1.35.94,4.78,4.78,0,0,0,1.72.29,7.72,7.72,0,0,0,1.4-.11,9.85,9.85,0,0,0,1.19-.3,5.67,5.67,0,0,0,1-.39,7.35,7.35,0,0,0,.77-.43l.77,1.78a6.36,6.36,0,0,1-1,.8,10.48,10.48,0,0,1-1.5.76,11.63,11.63,0,0,1-1.81.59A8.27,8.27,0,0,1,85.31,530.48ZM84.92,515a2.72,2.72,0,0,0-1.07.2A2,2,0,0,0,83,516a5,5,0,0,0-.61,1.59,12.55,12.55,0,0,0-.3,2.63h5.25c0-.05,0-.12,0-.21s0-.18,0-.28v-.47a11.15,11.15,0,0,0-.1-1.51,5,5,0,0,0-.37-1.37,2.55,2.55,0,0,0-.75-1A1.85,1.85,0,0,0,84.92,515Z"/><path class="cls-1" d="M101.81,530.48a9,9,0,0,1-3.56-.64,6.54,6.54,0,0,1-2.44-1.79,7.57,7.57,0,0,1-1.42-2.75,12.87,12.87,0,0,1-.45-3.49,10.79,10.79,0,0,1,.58-3.67,7.85,7.85,0,0,1,1.63-2.75,7,7,0,0,1,2.54-1.74,8.63,8.63,0,0,1,3.28-.6q6.07,0,6.34,5.94c0,.67,0,1.28,0,1.82a8.05,8.05,0,0,1-.15,1.37H98.58a8.84,8.84,0,0,0,.43,2.47,4.75,4.75,0,0,0,.92,1.67,3.28,3.28,0,0,0,1.36.94,4.74,4.74,0,0,0,1.72.29,7.61,7.61,0,0,0,1.39-.11,9,9,0,0,0,1.19-.3,6.13,6.13,0,0,0,1-.39,8.53,8.53,0,0,0,.77-.43l.76,1.78a5.57,5.57,0,0,1-1,.8,9.85,9.85,0,0,1-1.49.76,11.76,11.76,0,0,1-1.82.59A8.24,8.24,0,0,1,101.81,530.48Zm-.4-15.46a2.67,2.67,0,0,0-1.06.2,1.92,1.92,0,0,0-.86.78,5,5,0,0,0-.62,1.59,14.06,14.06,0,0,0-.3,2.63h5.26V520c0-.09,0-.18,0-.28s0-.19,0-.28v-.19a11.19,11.19,0,0,0-.11-1.51,4.66,4.66,0,0,0-.37-1.37,2.55,2.55,0,0,0-.75-1A1.84,1.84,0,0,0,101.41,515Z"/><path class="cls-1" d="M110.8,530.15v-2l1.89-.29V516.63l-2-.62V513.8l5.24-.72H116l.77.63v1.75a8.3,8.3,0,0,1,1.14-.87,10.16,10.16,0,0,1,1.43-.75,12.25,12.25,0,0,1,1.62-.52,7.68,7.68,0,0,1,1.72-.19,6.67,6.67,0,0,1,2.35.36,3.24,3.24,0,0,1,1.5,1.17,5.42,5.42,0,0,1,.79,2.08,16.7,16.7,0,0,1,.23,3v8.12l2.08.27v2h-8.24v-2l1.59-.27v-8.18a12.82,12.82,0,0,0-.1-1.75,3.45,3.45,0,0,0-.37-1.21,1.67,1.67,0,0,0-.75-.69,2.89,2.89,0,0,0-1.22-.23,4.53,4.53,0,0,0-1,.11,5.2,5.2,0,0,0-.92.29,5.26,5.26,0,0,0-.79.38c-.24.15-.45.29-.62.42v10.84l2,.29v2Z"/><path class="cls-1" d="M131.37,530.15v-2l2.14-.27V516.63l-2-.63v-2.2l5.37-.72H137l1.07.63v14.18l2.12.29v2Zm3.89-19.54a2.21,2.21,0,0,1-.91-.19,2.06,2.06,0,0,1-.68-.51,2.26,2.26,0,0,1-.41-.75,3,3,0,0,1-.14-.91,3.81,3.81,0,0,1,.16-1.08,2.35,2.35,0,0,1,1.27-1.49,2.75,2.75,0,0,1,1.11-.22h0a2.54,2.54,0,0,1,1,.2,2.14,2.14,0,0,1,.72.53,2,2,0,0,1,.43.75,2.73,2.73,0,0,1,.14.9,3.5,3.5,0,0,1-.16,1.09,2.44,2.44,0,0,1-.49.88,2.18,2.18,0,0,1-.85.58,3.06,3.06,0,0,1-1.22.22Z"/><path class="cls-1" d="M142.32,530.15v-2l1.89-.29V516.63l-2-.62V513.8l5.25-.72h.07l.78.63v1.75a7.73,7.73,0,0,1,1.14-.87,9.64,9.64,0,0,1,1.43-.75,11.65,11.65,0,0,1,1.61-.52,7.68,7.68,0,0,1,1.72-.19,6.64,6.64,0,0,1,2.35.36,3.24,3.24,0,0,1,1.5,1.17,5.26,5.26,0,0,1,.79,2.08,16.61,16.61,0,0,1,.24,3v8.12l2.08.27v2h-8.25v-2l1.6-.27v-8.18a12.68,12.68,0,0,0-.11-1.75,3.26,3.26,0,0,0-.37-1.21,1.67,1.67,0,0,0-.75-.69,2.82,2.82,0,0,0-1.22-.23,4.6,4.6,0,0,0-1,.11,5.48,5.48,0,0,0-.92.29,5.26,5.26,0,0,0-.79.38c-.24.15-.44.29-.62.42v10.84l2,.29v2Z"/><path class="cls-1" d="M170.38,524.42a12.75,12.75,0,0,1-2.23-.18,2.17,2.17,0,0,0-.41.58,1.71,1.71,0,0,0-.16.77,1.51,1.51,0,0,0,.19.82,1.22,1.22,0,0,0,.6.48,3.74,3.74,0,0,0,1,.23c.42,0,.93,0,1.53,0h2.93a8.37,8.37,0,0,1,4.71,1.07,4,4,0,0,1,1.54,3.5,4.8,4.8,0,0,1-.77,2.68,6.64,6.64,0,0,1-2.07,2.05,10.64,10.64,0,0,1-3,1.3,13.64,13.64,0,0,1-3.59.46h0a15.07,15.07,0,0,1-3.54-.36,7.63,7.63,0,0,1-2.42-1,4.13,4.13,0,0,1-1.39-1.54,4.29,4.29,0,0,1-.44-2,3.38,3.38,0,0,1,.24-1.27,4.6,4.6,0,0,1,.66-1.08,4.92,4.92,0,0,1,1-.86,5.52,5.52,0,0,1,1.14-.57,3.33,3.33,0,0,1-1.3-1.11,2.72,2.72,0,0,1-.46-1.58,3,3,0,0,1,.59-1.89,5.9,5.9,0,0,1,1.49-1.35,4.67,4.67,0,0,1-2.2-1.91,5.68,5.68,0,0,1-.71-2.93,4.77,4.77,0,0,1,.59-2.38,5.65,5.65,0,0,1,1.62-1.83,7.71,7.71,0,0,1,2.39-1.16,9.8,9.8,0,0,1,2.91-.41h0q3.66,0,5.43,1.4a3.17,3.17,0,0,1,.56-.5,4.09,4.09,0,0,1,.8-.46,6.64,6.64,0,0,1,1-.35,4.93,4.93,0,0,1,1.17-.14h.69v3.29H177.6a6.11,6.11,0,0,1,.25,1,5.52,5.52,0,0,1,.1,1.11,5.28,5.28,0,0,1-.55,2.42,5.72,5.72,0,0,1-1.55,1.92,7.81,7.81,0,0,1-2.4,1.26,9.92,9.92,0,0,1-3.06.45Zm-.75,5.92a12.12,12.12,0,0,1-1.76-.13,3.59,3.59,0,0,0-.55.84,3.28,3.28,0,0,0-.25,1.43,4.54,4.54,0,0,0,.26,1.67,2.58,2.58,0,0,0,.78,1.12,3.24,3.24,0,0,0,1.26.62,7.11,7.11,0,0,0,1.75.19h0a7.83,7.83,0,0,0,1.75-.2,5.12,5.12,0,0,0,1.51-.63,3.43,3.43,0,0,0,1.07-1,2.69,2.69,0,0,0,.4-1.48,3.55,3.55,0,0,0-.14-1.1,1.41,1.41,0,0,0-.49-.74,2.4,2.4,0,0,0-1-.42,7.82,7.82,0,0,0-1.59-.13Zm1.1-7.88h0a2.35,2.35,0,0,0,1.24-.3,2.1,2.1,0,0,0,.77-.82,4,4,0,0,0,.39-1.21,10,10,0,0,0,.11-1.48,4.88,4.88,0,0,0-.63-2.81,2.32,2.32,0,0,0-2-.87h0a2.27,2.27,0,0,0-2,.88,4.71,4.71,0,0,0-.62,2.68,8.63,8.63,0,0,0,.14,1.59,3.56,3.56,0,0,0,.45,1.25,2.28,2.28,0,0,0,.86.8A2.8,2.8,0,0,0,170.73,522.46Z"/><path class="cls-1" d="M191,530.15v-1.94l2.34-.39V516h-2.58v-1.76l2.58-.73v-.85a6.77,6.77,0,0,1,.72-3.13,8,8,0,0,1,1.84-2.38,8.26,8.26,0,0,1,2.52-1.5,7.53,7.53,0,0,1,2.74-.53,5.25,5.25,0,0,1,1.13.09,4.26,4.26,0,0,1,.59.16v4.38a2.53,2.53,0,0,0-.54-.41,4.69,4.69,0,0,0-.78-.35,5.71,5.71,0,0,0-.93-.25,4.81,4.81,0,0,0-1-.11,2.6,2.6,0,0,0-.71.09,1.22,1.22,0,0,0-.55.32,1.35,1.35,0,0,0-.35.61,3.08,3.08,0,0,0-.13,1l0,2.87h3.76V516h-3.76v11.9l3.25.3v1.94Z"/><path class="cls-1" d="M203.29,521.86A10.09,10.09,0,0,1,204,518a8.08,8.08,0,0,1,1.83-2.75,7.38,7.38,0,0,1,2.64-1.64,9.24,9.24,0,0,1,3.13-.54,9,9,0,0,1,3.37.59,6.56,6.56,0,0,1,2.46,1.71,7.22,7.22,0,0,1,1.51,2.71,11.85,11.85,0,0,1,.51,3.62,10.5,10.5,0,0,1-.68,4,7.77,7.77,0,0,1-1.84,2.75,7.31,7.31,0,0,1-2.63,1.59,9.37,9.37,0,0,1-3.12.52,8.82,8.82,0,0,1-3.37-.59,6.46,6.46,0,0,1-2.47-1.71,7.38,7.38,0,0,1-1.52-2.71A11.83,11.83,0,0,1,203.29,521.86Zm8.12,6.6a2.45,2.45,0,0,0,2.36-1.48,6.6,6.6,0,0,0,.57-2,19.62,19.62,0,0,0,.19-2.88,24.9,24.9,0,0,0-.17-3,8.41,8.41,0,0,0-.54-2.21,3.19,3.19,0,0,0-1-1.36,2.35,2.35,0,0,0-1.48-.46,2.5,2.5,0,0,0-2.39,1.49,6.77,6.77,0,0,0-.59,2,19.47,19.47,0,0,0-.19,2.87,22.92,22.92,0,0,0,.18,3,8.54,8.54,0,0,0,.56,2.22,3.32,3.32,0,0,0,1,1.35A2.36,2.36,0,0,0,211.41,528.46Z"/><path class="cls-1" d="M221.67,530.15v-2l2.11-.27V516.63l-2-.62V513.8l5-.72h.09l.78.63v1.22l0,2.28h.06a6.88,6.88,0,0,1,.64-1.18,8.37,8.37,0,0,1,1.14-1.37,6.76,6.76,0,0,1,1.57-1.15A4.07,4.07,0,0,1,233,513a4.16,4.16,0,0,1,.7,0,1.83,1.83,0,0,1,.4.09v5.07a2.93,2.93,0,0,0-.84-.26,8.35,8.35,0,0,0-1.62-.14,8.72,8.72,0,0,0-1,.06,8,8,0,0,0-1,.16,4.83,4.83,0,0,0-.8.22,2.23,2.23,0,0,0-.54.27v9.34l3.64.35v1.91Z"/><path class="cls-2" d="M31.74,570.15v-2l1.8-.29V548.34L31.35,548v-1.71l5.7-.72h.07l.89.69,0,6.9-.23,2.33a7.44,7.44,0,0,1,1-.78,8.89,8.89,0,0,1,1.34-.76,10,10,0,0,1,1.63-.57,7.55,7.55,0,0,1,1.87-.22,6.21,6.21,0,0,1,2.37.39,3.31,3.31,0,0,1,1.49,1.22,5.49,5.49,0,0,1,.77,2.07,17,17,0,0,1,.23,3v8.11l2.07.29v2H42.36v-1.91l1.63-.32v-8.19a12.82,12.82,0,0,0-.1-1.75,3.25,3.25,0,0,0-.39-1.21,1.76,1.76,0,0,0-.79-.69,3.22,3.22,0,0,0-1.3-.23,4.49,4.49,0,0,0-.94.1,9.07,9.07,0,0,0-.93.26,7,7,0,0,0-.84.35,4.77,4.77,0,0,0-.66.4v10.93l2,.29v2Z"/><path class="cls-2" d="M60,570.48a8.92,8.92,0,0,1-3.56-.64A6.54,6.54,0,0,1,54,568.05a7.57,7.57,0,0,1-1.42-2.75,12.87,12.87,0,0,1-.45-3.49,10.79,10.79,0,0,1,.58-3.67,7.85,7.85,0,0,1,1.63-2.75,6.94,6.94,0,0,1,2.54-1.74,8.63,8.63,0,0,1,3.28-.6q6.08,0,6.34,5.94c0,.67,0,1.28,0,1.82a8.05,8.05,0,0,1-.15,1.37H56.76a8.84,8.84,0,0,0,.43,2.47,4.75,4.75,0,0,0,.92,1.67,3.31,3.31,0,0,0,1.35.94,4.83,4.83,0,0,0,1.73.29,7.68,7.68,0,0,0,1.39-.11,9,9,0,0,0,1.19-.3,6.13,6.13,0,0,0,1-.39,8.53,8.53,0,0,0,.77-.43l.76,1.78a6.36,6.36,0,0,1-1,.8,9.85,9.85,0,0,1-1.49.76,12.12,12.12,0,0,1-1.82.59A8.24,8.24,0,0,1,60,570.48ZM59.59,555a2.63,2.63,0,0,0-1.06.2,2,2,0,0,0-.87.78,5,5,0,0,0-.61,1.59,14.06,14.06,0,0,0-.3,2.63H62V560c0-.09,0-.18,0-.28s0-.19,0-.28v-.19a11.19,11.19,0,0,0-.11-1.51,4.66,4.66,0,0,0-.37-1.37,2.55,2.55,0,0,0-.75-1A1.84,1.84,0,0,0,59.59,555Z"/><path class="cls-2" d="M68.5,565.69a4.43,4.43,0,0,1,.38-1.91A4.71,4.71,0,0,1,70,562.31a6.36,6.36,0,0,1,1.61-1.07,11.68,11.68,0,0,1,2-.72,15.45,15.45,0,0,1,2.23-.42c.77-.09,1.54-.14,2.31-.16v-.71a3.42,3.42,0,0,0-.68-2.38,3,3,0,0,0-2.23-.71,10.65,10.65,0,0,0-1.59.13,13.34,13.34,0,0,0-1.53.31,11.5,11.5,0,0,0-1.36.41c-.41.15-.77.29-1.06.43h0l-.86-2a6.91,6.91,0,0,1,1-.66,13.65,13.65,0,0,1,1.76-.78,18.71,18.71,0,0,1,2.27-.66,11.41,11.41,0,0,1,2.56-.28,9.51,9.51,0,0,1,2.76.35A4.36,4.36,0,0,1,81,554.52a4.41,4.41,0,0,1,1,1.85,9.42,9.42,0,0,1,.33,2.64v9.15h1.81V570l-.68.15-.91.18-1.07.14c-.38,0-.77.05-1.17.05a7.82,7.82,0,0,1-.9,0,1.37,1.37,0,0,1-.6-.2.85.85,0,0,1-.33-.47,2.51,2.51,0,0,1-.11-.81v-.85a5,5,0,0,1-.69.75,5.69,5.69,0,0,1-1.06.77,6.09,6.09,0,0,1-3.15.85,6.76,6.76,0,0,1-2-.27,4.39,4.39,0,0,1-1.59-.87,4.12,4.12,0,0,1-1.08-1.49A5.48,5.48,0,0,1,68.5,565.69Zm7,2a2.76,2.76,0,0,0,.6-.08,4.25,4.25,0,0,0,.71-.2,5.67,5.67,0,0,0,.72-.32,3.09,3.09,0,0,0,.61-.41V561.8a9.39,9.39,0,0,0-2.38.26,4.54,4.54,0,0,0-1.53.7,2.52,2.52,0,0,0-.81,1,3.08,3.08,0,0,0-.25,1.21,2.94,2.94,0,0,0,.6,2A2.17,2.17,0,0,0,75.45,567.66Z"/><path class="cls-2" d="M86,570.15v-2l2.11-.27V556.63l-2-.62V553.8l5-.72h.09l.77.63v3.5H92a6.71,6.71,0,0,1,.63-1.18,8,8,0,0,1,1.15-1.37,6.7,6.7,0,0,1,1.56-1.15,4.11,4.11,0,0,1,1.93-.47,4.23,4.23,0,0,1,.7,0,1.83,1.83,0,0,1,.4.09v5.07a2.93,2.93,0,0,0-.84-.26,8.5,8.5,0,0,0-1.62-.14,8.89,8.89,0,0,0-1,.06,8.73,8.73,0,0,0-1,.16,5.12,5.12,0,0,0-.8.22,2.69,2.69,0,0,0-.54.27v9.34l3.65.35v1.91Z"/><path class="cls-2" d="M101.91,566.63V555.85H99.84v-1.67l.38-.12.52-.2.5-.2a1.49,1.49,0,0,0,.27-.14,4.39,4.39,0,0,0,1-1.4l.33-.69c.11-.25.23-.53.34-.81s.22-.56.32-.84.18-.53.24-.76h2.61l0,4.34h4.3v2.49h-4.3V564q0,1.17,0,1.86a3.43,3.43,0,0,0,.18,1,.71.71,0,0,0,.43.45,2.5,2.5,0,0,0,.81.1h0a4.91,4.91,0,0,0,.74-.06c.26,0,.51-.08.76-.13l.69-.18.52-.17h0l.69,1.71a7.66,7.66,0,0,1-1.07.68,11.49,11.49,0,0,1-1.41.61,12.77,12.77,0,0,1-1.62.44,9.21,9.21,0,0,1-1.73.16h0a4.94,4.94,0,0,1-1.64-.24,2.64,2.64,0,0,1-1.1-.74,3.07,3.07,0,0,1-.61-1.21A6.37,6.37,0,0,1,101.91,566.63Z"/><path class="cls-2" d="M122,570.15v-2l1.8-.29V548.34l-2.2-.37v-1.71l5.7-.72h.07l.9.69,0,6.9-.24,2.33a9,9,0,0,1,1-.78,9.41,9.41,0,0,1,1.34-.76,10.39,10.39,0,0,1,1.63-.57,7.66,7.66,0,0,1,1.87-.22,6.27,6.27,0,0,1,2.38.39,3.29,3.29,0,0,1,1.48,1.22,5.33,5.33,0,0,1,.78,2.07,17,17,0,0,1,.23,3v8.11l2.06.29v2h-8.2v-1.91l1.62-.32v-8.19a12.82,12.82,0,0,0-.1-1.75,3.25,3.25,0,0,0-.39-1.21,1.71,1.71,0,0,0-.79-.69,3.17,3.17,0,0,0-1.29-.23,4.36,4.36,0,0,0-.94.1,9.07,9.07,0,0,0-.93.26,6.41,6.41,0,0,0-.84.35,3.81,3.81,0,0,0-.66.4v10.93l2,.29v2Z"/><path class="cls-2" d="M150.19,570.48a8.87,8.87,0,0,1-3.55-.64,6.57,6.57,0,0,1-2.45-1.79,7.4,7.4,0,0,1-1.41-2.75,12.87,12.87,0,0,1-.46-3.49,11,11,0,0,1,.58-3.67,7.87,7.87,0,0,1,1.64-2.75,6.9,6.9,0,0,1,2.53-1.74,8.67,8.67,0,0,1,3.28-.6q6.08,0,6.34,5.94c0,.67,0,1.28,0,1.82a9.08,9.08,0,0,1-.16,1.37H147a9.24,9.24,0,0,0,.42,2.47,4.76,4.76,0,0,0,.93,1.67,3.31,3.31,0,0,0,1.35.94,4.78,4.78,0,0,0,1.72.29,7.61,7.61,0,0,0,1.39-.11,9.56,9.56,0,0,0,1.2-.3,6.38,6.38,0,0,0,1-.39,7.35,7.35,0,0,0,.77-.43l.76,1.78a5.82,5.82,0,0,1-1,.8,10.48,10.48,0,0,1-1.5.76,12,12,0,0,1-1.81.59A8.33,8.33,0,0,1,150.19,570.48Zm-.4-15.46a2.67,2.67,0,0,0-1.06.2,2,2,0,0,0-.86.78,5,5,0,0,0-.62,1.59,14.06,14.06,0,0,0-.3,2.63h5.26a1.79,1.79,0,0,1,0-.21c0-.09,0-.18,0-.28a2.72,2.72,0,0,0,0-.28v-.19a11.15,11.15,0,0,0-.1-1.51,5,5,0,0,0-.37-1.37,2.76,2.76,0,0,0-.75-1A1.88,1.88,0,0,0,149.79,555Z"/><path class="cls-2" d="M158.7,565.69a4.43,4.43,0,0,1,.39-1.91,4.71,4.71,0,0,1,1.07-1.47,6.3,6.3,0,0,1,1.6-1.07,12,12,0,0,1,2-.72,16,16,0,0,1,2.23-.42c.77-.09,1.54-.14,2.32-.16v-.71a3.42,3.42,0,0,0-.68-2.38,3,3,0,0,0-2.24-.71,10.65,10.65,0,0,0-1.59.13,14.27,14.27,0,0,0-1.53.31,10.78,10.78,0,0,0-1.35.41c-.42.15-.77.29-1.07.43h0l-.87-2a8.16,8.16,0,0,1,1-.66,14.3,14.3,0,0,1,1.76-.78,19.26,19.26,0,0,1,2.27-.66,11.5,11.5,0,0,1,2.57-.28,9.6,9.6,0,0,1,2.76.35,4.11,4.11,0,0,1,2.88,2.94,9.42,9.42,0,0,1,.33,2.64v9.15h1.82V570l-.69.15-.91.18-1.07.14c-.38,0-.77.05-1.17.05a7.82,7.82,0,0,1-.9,0,1.37,1.37,0,0,1-.6-.2,1,1,0,0,1-.33-.47,2.54,2.54,0,0,1-.1-.81v-.85a6.32,6.32,0,0,1-.69.75,6,6,0,0,1-1.06.77,6.33,6.33,0,0,1-1.42.61,5.9,5.9,0,0,1-1.74.24,6.86,6.86,0,0,1-2-.27,4.56,4.56,0,0,1-1.59-.87,4.1,4.1,0,0,1-1.07-1.49A5.3,5.3,0,0,1,158.7,565.69Zm7,2a2.84,2.84,0,0,0,.6-.08,4.15,4.15,0,0,0,.7-.2,4.64,4.64,0,0,0,.72-.32,3.18,3.18,0,0,0,.62-.41V561.8a9.33,9.33,0,0,0-2.38.26,4.69,4.69,0,0,0-1.54.7,2.52,2.52,0,0,0-.81,1,3.07,3.07,0,0,0-.24,1.21,3,3,0,0,0,.59,2A2.21,2.21,0,0,0,165.66,567.66Z"/><path class="cls-2" d="M175.72,570.15v-2l2.13-.29V548.34l-2.19-.37v-1.71l5.73-.72h.05l.92.69v21.66l2.21.29v2Z"/><path class="cls-2" d="M188.14,566.63V555.85h-2.06v-1.67l.37-.12.53-.2.49-.2a1.36,1.36,0,0,0,.28-.14,4.54,4.54,0,0,0,1-1.4c.1-.2.2-.43.32-.69s.23-.53.35-.81.21-.56.31-.84.18-.53.25-.76h2.61l0,4.34H197v2.49h-4.31V564c0,.78,0,1.4,0,1.86a3.48,3.48,0,0,0,.17,1,.75.75,0,0,0,.44.45,2.44,2.44,0,0,0,.8.1h0a4.91,4.91,0,0,0,.74-.06c.25,0,.51-.08.76-.13l.69-.18.52-.17h0l.69,1.71a7.26,7.26,0,0,1-1.08.68,10.71,10.71,0,0,1-1.4.61,13.4,13.4,0,0,1-1.63.44,9.1,9.1,0,0,1-1.72.16h0a5,5,0,0,1-1.65-.24,2.71,2.71,0,0,1-1.1-.74,3.21,3.21,0,0,1-.61-1.21A6.83,6.83,0,0,1,188.14,566.63Z"/><path class="cls-2" d="M198.76,570.15v-2l1.81-.29V548.34l-2.2-.37v-1.71l5.7-.72h.07l.89.69,0,6.9-.23,2.33a7.44,7.44,0,0,1,1-.78,8.89,8.89,0,0,1,1.34-.76,10.39,10.39,0,0,1,1.63-.57,7.55,7.55,0,0,1,1.87-.22,6.18,6.18,0,0,1,2.37.39,3.31,3.31,0,0,1,1.49,1.22,5.49,5.49,0,0,1,.77,2.07,16.07,16.07,0,0,1,.23,3v8.11l2.07.29v2h-8.21v-1.91l1.63-.32v-8.19a12.82,12.82,0,0,0-.1-1.75,3.25,3.25,0,0,0-.39-1.21,1.71,1.71,0,0,0-.79-.69,3.22,3.22,0,0,0-1.3-.23,4.33,4.33,0,0,0-.93.1,8.59,8.59,0,0,0-.94.26,7.81,7.81,0,0,0-.84.35,4.77,4.77,0,0,0-.66.4v10.93l2,.29v2Z"/><path class="cls-2" d="M223.12,570.4a3.24,3.24,0,0,1-1-.16,2.66,2.66,0,0,1-.82-.47,2.26,2.26,0,0,1-.76-1.72,2.5,2.5,0,0,1,.24-1.1,2.7,2.7,0,0,1,.64-.89,3,3,0,0,1,.95-.59,3.19,3.19,0,0,1,1.16-.22,3.39,3.39,0,0,1,1.22.2,2.08,2.08,0,0,1,.81.51,1.8,1.8,0,0,1,.45.75,2.93,2.93,0,0,1,.14.9,2.88,2.88,0,0,1-.22,1.15,2.76,2.76,0,0,1-1.6,1.44A3.78,3.78,0,0,1,223.12,570.4Z"/><path class="cls-1" d="M30,490.15v-2l1.89-.41,7.06-20h4.7l7,20,2,.41v2H43.18v-2l2.39-.41-1.1-3.57H36.52l-1,3.59,2.42.39v2Zm9.93-17.73-2.72,9.45h6.59l-2.89-9.45-.51-2.14Z"/><path class="cls-1" d="M62.87,489.21v-4.12h2.7l.76,2.29a1.64,1.64,0,0,0,.4.38,3,3,0,0,0,.65.34,5.29,5.29,0,0,0,.84.24,5.18,5.18,0,0,0,1,.09,3.3,3.3,0,0,0,1.19-.17,2.12,2.12,0,0,0,.74-.45,1.28,1.28,0,0,0,.38-.61,2.34,2.34,0,0,0,.11-.67,1.8,1.8,0,0,0-.32-1.06,3.23,3.23,0,0,0-.89-.82,10,10,0,0,0-1.4-.73l-1.82-.76a11.75,11.75,0,0,1-1.81-.91A6.24,6.24,0,0,1,64,481.11a4.71,4.71,0,0,1-.88-1.41,4.77,4.77,0,0,1-.3-1.74,4.33,4.33,0,0,1,.43-1.93,4.24,4.24,0,0,1,1.28-1.53,6.39,6.39,0,0,1,2.11-1,10.26,10.26,0,0,1,2.92-.37,12.65,12.65,0,0,1,1.72.11,13.73,13.73,0,0,1,1.37.28c.41.1.78.21,1.12.32a8.59,8.59,0,0,0,1,.25v4.05l-2.55-.05-.69-1.95a2,2,0,0,0-.77-.65,3.11,3.11,0,0,0-1.45-.33,3.55,3.55,0,0,0-1.11.15,2,2,0,0,0-.72.39,1.55,1.55,0,0,0-.39.55,1.87,1.87,0,0,0-.11.61,1.93,1.93,0,0,0,.39,1.25,3.39,3.39,0,0,0,1,.83,8,8,0,0,0,1.32.59c.48.18.93.36,1.36.55.64.29,1.26.59,1.85.91a7.33,7.33,0,0,1,1.55,1.1,4.85,4.85,0,0,1,1.09,1.46,4.44,4.44,0,0,1,.4,2,4.84,4.84,0,0,1-.41,2,4.41,4.41,0,0,1-1.26,1.58,6.23,6.23,0,0,1-2.11,1.05,10.2,10.2,0,0,1-3,.38,12.61,12.61,0,0,1-2.12-.16,16.44,16.44,0,0,1-1.74-.37c-.52-.14-1-.28-1.4-.43S63.17,489.28,62.87,489.21Z"/><path class="cls-1" d="M78.18,490.15v-2l2.14-.27V476.63l-2-.63v-2.2l5.38-.72h.07l1.07.63v14.18l2.12.29v2Zm3.9-19.54a2.22,2.22,0,0,1-.92-.19,2,2,0,0,1-.67-.51,2,2,0,0,1-.41-.75,2.71,2.71,0,0,1-.14-.91,3.81,3.81,0,0,1,.15-1.08,2.43,2.43,0,0,1,1.27-1.49,2.75,2.75,0,0,1,1.11-.22h0a2.49,2.49,0,0,1,1,.2,2,2,0,0,1,.72.53,2,2,0,0,1,.43.75,2.73,2.73,0,0,1,.14.9,3.5,3.5,0,0,1-.16,1.09,2.3,2.3,0,0,1-.49.88,2.18,2.18,0,0,1-.85.58,3,3,0,0,1-1.22.22Z"/><path class="cls-1" d="M89.19,490.15v-1.91l1.84-.33V476.63L89,476V473.8l5.19-.72h.07l.78.63v1.75a6.45,6.45,0,0,1,1.19-.88,9.45,9.45,0,0,1,1.53-.75,9.65,9.65,0,0,1,1.66-.51,7.13,7.13,0,0,1,1.61-.19,5.64,5.64,0,0,1,2.68.54,3.45,3.45,0,0,1,1.51,1.73,6.61,6.61,0,0,1,1.08-.77,9.15,9.15,0,0,1,1.47-.73,10.13,10.13,0,0,1,1.69-.55,6.94,6.94,0,0,1,1.72-.22,6.36,6.36,0,0,1,2.3.35,3.05,3.05,0,0,1,1.48,1.14,5.25,5.25,0,0,1,.79,2.06,16.81,16.81,0,0,1,.24,3.08v8.15l2.06.33v1.91H110v-1.91l1.53-.33v-8a12.87,12.87,0,0,0-.12-1.91,3.45,3.45,0,0,0-.42-1.27,1.73,1.73,0,0,0-.79-.7,3.2,3.2,0,0,0-1.24-.22,4.07,4.07,0,0,0-.81.1c-.29.07-.59.16-.88.26a8.93,8.93,0,0,0-.85.35,6,6,0,0,0-.72.38,8.79,8.79,0,0,1,.16,1.34c0,.48,0,1,0,1.57v8.13l2,.32v1.91H99.62v-1.91l1.76-.32v-8.19a11.18,11.18,0,0,0-.12-1.75,3.25,3.25,0,0,0-.4-1.21,1.77,1.77,0,0,0-.77-.69,3,3,0,0,0-1.24-.23,4.24,4.24,0,0,0-.92.1,9.07,9.07,0,0,0-.93.26,5.75,5.75,0,0,0-.83.35,4.62,4.62,0,0,0-.65.4v11l2,.33v1.91Z"/><path class="cls-1" d="M119.55,495.55l2.19-.36V476.63l-2-.62V473.8l5.25-.72h.07l.75.63v1.55a6.79,6.79,0,0,1,.86-.82,5.69,5.69,0,0,1,1.11-.71,6.74,6.74,0,0,1,1.35-.5,6.16,6.16,0,0,1,1.58-.19,7.05,7.05,0,0,1,2.53.45,5.32,5.32,0,0,1,2.06,1.44,7.25,7.25,0,0,1,1.38,2.56,12.35,12.35,0,0,1,.51,3.78,10.72,10.72,0,0,1-.6,3.63,8.66,8.66,0,0,1-1.7,2.92,7.84,7.84,0,0,1-2.71,1.95,8.71,8.71,0,0,1-3.61.71l-.72,0-.69-.08-.59-.09-.43-.08.09,2.43v2.55l2.9.36v1.86h-9.59Zm9.31-19.85a3.76,3.76,0,0,0-1.57.32,3.37,3.37,0,0,0-1.05.71v11.09a2.08,2.08,0,0,0,.81.49,3.81,3.81,0,0,0,1.34.21,3.44,3.44,0,0,0,1.51-.34,3.16,3.16,0,0,0,1.23-1.14A6.62,6.62,0,0,0,132,485a13.88,13.88,0,0,0,.35-3.16,12.86,12.86,0,0,0-.21-2.81,5.76,5.76,0,0,0-.69-1.89,2.9,2.9,0,0,0-1.11-1.07A3.2,3.2,0,0,0,128.86,475.7Z"/><path class="cls-1" d="M139.07,490.15v-2l2.13-.29V468.34L139,468v-1.71l5.73-.72h0l.92.69v21.66l2.21.29v2Z"/><path class="cls-1" d="M157.5,490.48a8.87,8.87,0,0,1-3.55-.64,6.57,6.57,0,0,1-2.45-1.79,7.4,7.4,0,0,1-1.41-2.75,12.87,12.87,0,0,1-.46-3.49,11,11,0,0,1,.58-3.67,7.87,7.87,0,0,1,1.64-2.75,6.9,6.9,0,0,1,2.53-1.74,8.67,8.67,0,0,1,3.28-.6q6.08,0,6.34,5.94c0,.67,0,1.28,0,1.82a9.08,9.08,0,0,1-.16,1.37h-9.56a9.24,9.24,0,0,0,.42,2.47,4.91,4.91,0,0,0,.92,1.67,3.41,3.41,0,0,0,1.36.94,4.78,4.78,0,0,0,1.72.29,7.61,7.61,0,0,0,1.39-.11,9.56,9.56,0,0,0,1.2-.3,6.38,6.38,0,0,0,1-.39,7.35,7.35,0,0,0,.77-.43l.76,1.78a5.82,5.82,0,0,1-1,.8,10.48,10.48,0,0,1-1.5.76,12,12,0,0,1-1.81.59A8.39,8.39,0,0,1,157.5,490.48ZM157.1,475a2.67,2.67,0,0,0-1.06.2,2,2,0,0,0-.86.78,5,5,0,0,0-.62,1.59,14.06,14.06,0,0,0-.3,2.63h5.26a1.79,1.79,0,0,1,0-.21c0-.09,0-.18,0-.28a2.72,2.72,0,0,0,0-.28v-.19a11.15,11.15,0,0,0-.1-1.51,5.37,5.37,0,0,0-.37-1.37,2.76,2.76,0,0,0-.75-1A1.88,1.88,0,0,0,157.1,475Z"/><path class="cls-1" d="M32.34,529.21v-4.12H35l.76,2.29a1.64,1.64,0,0,0,.4.38,3,3,0,0,0,.65.34,5.61,5.61,0,0,0,.84.24,5.18,5.18,0,0,0,1,.09,3.39,3.39,0,0,0,1.2-.17,2.32,2.32,0,0,0,.74-.45,1.46,1.46,0,0,0,.38-.61,2.72,2.72,0,0,0,.1-.67,1.8,1.8,0,0,0-.32-1.06,3.09,3.09,0,0,0-.89-.82,10,10,0,0,0-1.4-.73l-1.81-.76a11.88,11.88,0,0,1-1.82-.91,6.24,6.24,0,0,1-1.37-1.14,4.49,4.49,0,0,1-.87-1.41A4.57,4.57,0,0,1,32.3,518,4.2,4.2,0,0,1,34,514.5a6.39,6.39,0,0,1,2.11-1A10.26,10.26,0,0,1,39,513.1a12.54,12.54,0,0,1,1.72.11,13.73,13.73,0,0,1,1.37.28c.41.1.79.21,1.13.32a8,8,0,0,0,1,.25v4.05l-2.55-.05L41,516.11a2.12,2.12,0,0,0-.78-.65,3.08,3.08,0,0,0-1.45-.33,3.55,3.55,0,0,0-1.11.15,2.14,2.14,0,0,0-.72.39,1.52,1.52,0,0,0-.38.55,1.66,1.66,0,0,0-.12.61,1.88,1.88,0,0,0,.4,1.25,3.22,3.22,0,0,0,1,.83,8,8,0,0,0,1.32.59c.48.18.93.36,1.36.55.65.29,1.26.59,1.85.91a7.66,7.66,0,0,1,1.56,1.1A5,5,0,0,1,45,523.52a4.44,4.44,0,0,1,.4,2,4.68,4.68,0,0,1-.41,2,4.41,4.41,0,0,1-1.26,1.58,6.14,6.14,0,0,1-2.11,1.05,10.2,10.2,0,0,1-3,.38,12.61,12.61,0,0,1-2.12-.16,17,17,0,0,1-1.74-.37c-.52-.14-1-.28-1.4-.43A10.44,10.44,0,0,0,32.34,529.21Z"/><path class="cls-1" d="M47.5,522a10.45,10.45,0,0,1,.6-3.62,8.16,8.16,0,0,1,1.69-2.82,7.57,7.57,0,0,1,2.66-1.83,9,9,0,0,1,3.49-.65,14,14,0,0,1,1.8.11c.55.07,1,.16,1.47.25s.8.2,1.11.3l.76.25-.14,5H58.36l-.85-2.58a2.83,2.83,0,0,0-.79-1,1.81,1.81,0,0,0-1.14-.36,2.69,2.69,0,0,0-1.26.33,3.09,3.09,0,0,0-1,1,5.77,5.77,0,0,0-.74,1.83,11.29,11.29,0,0,0-.28,2.73,14.09,14.09,0,0,0,.29,3.07,5.65,5.65,0,0,0,.83,2,3.19,3.19,0,0,0,1.34,1.12,4.4,4.4,0,0,0,1.77.34,6.83,6.83,0,0,0,2.35-.36,9.36,9.36,0,0,0,1.67-.79l.77,1.77a5.63,5.63,0,0,1-.88.74,8.53,8.53,0,0,1-1.35.75,9.68,9.68,0,0,1-1.7.59,7.75,7.75,0,0,1-1.94.23,9,9,0,0,1-3.56-.64,6.5,6.5,0,0,1-2.45-1.79,7.27,7.27,0,0,1-1.42-2.7A11.82,11.82,0,0,1,47.5,522Z"/><path class="cls-1" d="M63.37,530.15v-2l2.11-.27V516.63l-2-.62V513.8l5-.72h.08l.78.63v3.5h.05A6.88,6.88,0,0,1,70,516a8.37,8.37,0,0,1,1.14-1.37,7,7,0,0,1,1.57-1.15,4.54,4.54,0,0,1,2.62-.43,1.8,1.8,0,0,1,.41.09v5.07a2.92,2.92,0,0,0-.85-.26,8.31,8.31,0,0,0-1.61-.14,9.38,9.38,0,0,0-2,.22,5.12,5.12,0,0,0-.8.22,2.69,2.69,0,0,0-.54.27v9.34l3.65.35v1.91Z"/><path class="cls-1" d="M85.31,530.48a8.9,8.9,0,0,1-3.55-.64,6.57,6.57,0,0,1-2.45-1.79,7.4,7.4,0,0,1-1.41-2.75,12.87,12.87,0,0,1-.45-3.49,11,11,0,0,1,.57-3.67,8,8,0,0,1,1.64-2.75,7,7,0,0,1,2.53-1.74,8.67,8.67,0,0,1,3.28-.6q6.09,0,6.35,5.94c0,.67,0,1.28,0,1.82a10.79,10.79,0,0,1-.15,1.37H82.09a9.24,9.24,0,0,0,.42,2.47,4.92,4.92,0,0,0,.93,1.67,3.31,3.31,0,0,0,1.35.94,4.78,4.78,0,0,0,1.72.29,7.72,7.72,0,0,0,1.4-.11,9.85,9.85,0,0,0,1.19-.3,5.67,5.67,0,0,0,1-.39,7.35,7.35,0,0,0,.77-.43l.77,1.78a6.36,6.36,0,0,1-1,.8,10.48,10.48,0,0,1-1.5.76,11.63,11.63,0,0,1-1.81.59A8.27,8.27,0,0,1,85.31,530.48ZM84.92,515a2.72,2.72,0,0,0-1.07.2A2,2,0,0,0,83,516a5,5,0,0,0-.61,1.59,12.55,12.55,0,0,0-.3,2.63h5.25c0-.05,0-.12,0-.21s0-.18,0-.28v-.47a11.15,11.15,0,0,0-.1-1.51,5,5,0,0,0-.37-1.37,2.55,2.55,0,0,0-.75-1A1.85,1.85,0,0,0,84.92,515Z"/><path class="cls-1" d="M101.81,530.48a9,9,0,0,1-3.56-.64,6.54,6.54,0,0,1-2.44-1.79,7.57,7.57,0,0,1-1.42-2.75,12.87,12.87,0,0,1-.45-3.49,10.79,10.79,0,0,1,.58-3.67,7.85,7.85,0,0,1,1.63-2.75,7,7,0,0,1,2.54-1.74,8.63,8.63,0,0,1,3.28-.6q6.07,0,6.34,5.94c0,.67,0,1.28,0,1.82a8.05,8.05,0,0,1-.15,1.37H98.58a8.84,8.84,0,0,0,.43,2.47,4.75,4.75,0,0,0,.92,1.67,3.28,3.28,0,0,0,1.36.94,4.74,4.74,0,0,0,1.72.29,7.61,7.61,0,0,0,1.39-.11,9,9,0,0,0,1.19-.3,6.13,6.13,0,0,0,1-.39,8.53,8.53,0,0,0,.77-.43l.76,1.78a5.57,5.57,0,0,1-1,.8,9.85,9.85,0,0,1-1.49.76,11.76,11.76,0,0,1-1.82.59A8.24,8.24,0,0,1,101.81,530.48Zm-.4-15.46a2.67,2.67,0,0,0-1.06.2,1.92,1.92,0,0,0-.86.78,5,5,0,0,0-.62,1.59,14.06,14.06,0,0,0-.3,2.63h5.26V520c0-.09,0-.18,0-.28s0-.19,0-.28v-.19a11.19,11.19,0,0,0-.11-1.51,4.66,4.66,0,0,0-.37-1.37,2.55,2.55,0,0,0-.75-1A1.84,1.84,0,0,0,101.41,515Z"/><path class="cls-1" d="M110.8,530.15v-2l1.89-.29V516.63l-2-.62V513.8l5.24-.72H116l.77.63v1.75a8.3,8.3,0,0,1,1.14-.87,10.16,10.16,0,0,1,1.43-.75,12.25,12.25,0,0,1,1.62-.52,7.68,7.68,0,0,1,1.72-.19,6.67,6.67,0,0,1,2.35.36,3.24,3.24,0,0,1,1.5,1.17,5.42,5.42,0,0,1,.79,2.08,16.7,16.7,0,0,1,.23,3v8.12l2.08.27v2h-8.24v-2l1.59-.27v-8.18a12.82,12.82,0,0,0-.1-1.75,3.45,3.45,0,0,0-.37-1.21,1.67,1.67,0,0,0-.75-.69,2.89,2.89,0,0,0-1.22-.23,4.53,4.53,0,0,0-1,.11,5.2,5.2,0,0,0-.92.29,5.26,5.26,0,0,0-.79.38c-.24.15-.45.29-.62.42v10.84l2,.29v2Z"/><path class="cls-1" d="M131.37,530.15v-2l2.14-.27V516.63l-2-.63v-2.2l5.37-.72H137l1.07.63v14.18l2.12.29v2Zm3.89-19.54a2.21,2.21,0,0,1-.91-.19,2.06,2.06,0,0,1-.68-.51,2.26,2.26,0,0,1-.41-.75,3,3,0,0,1-.14-.91,3.81,3.81,0,0,1,.16-1.08,2.35,2.35,0,0,1,1.27-1.49,2.75,2.75,0,0,1,1.11-.22h0a2.54,2.54,0,0,1,1,.2,2.14,2.14,0,0,1,.72.53,2,2,0,0,1,.43.75,2.73,2.73,0,0,1,.14.9,3.5,3.5,0,0,1-.16,1.09,2.44,2.44,0,0,1-.49.88,2.18,2.18,0,0,1-.85.58,3.06,3.06,0,0,1-1.22.22Z"/><path class="cls-1" d="M142.32,530.15v-2l1.89-.29V516.63l-2-.62V513.8l5.25-.72h.07l.78.63v1.75a7.73,7.73,0,0,1,1.14-.87,9.64,9.64,0,0,1,1.43-.75,11.65,11.65,0,0,1,1.61-.52,7.68,7.68,0,0,1,1.72-.19,6.64,6.64,0,0,1,2.35.36,3.24,3.24,0,0,1,1.5,1.17,5.26,5.26,0,0,1,.79,2.08,16.61,16.61,0,0,1,.24,3v8.12l2.08.27v2h-8.25v-2l1.6-.27v-8.18a12.68,12.68,0,0,0-.11-1.75,3.26,3.26,0,0,0-.37-1.21,1.67,1.67,0,0,0-.75-.69,2.82,2.82,0,0,0-1.22-.23,4.6,4.6,0,0,0-1,.11,5.48,5.48,0,0,0-.92.29,5.26,5.26,0,0,0-.79.38c-.24.15-.44.29-.62.42v10.84l2,.29v2Z"/><path class="cls-1" d="M170.38,524.42a12.75,12.75,0,0,1-2.23-.18,2.17,2.17,0,0,0-.41.58,1.71,1.71,0,0,0-.16.77,1.51,1.51,0,0,0,.19.82,1.22,1.22,0,0,0,.6.48,3.74,3.74,0,0,0,1,.23c.42,0,.93,0,1.53,0h2.93a8.37,8.37,0,0,1,4.71,1.07,4,4,0,0,1,1.54,3.5,4.8,4.8,0,0,1-.77,2.68,6.64,6.64,0,0,1-2.07,2.05,10.64,10.64,0,0,1-3,1.3,13.64,13.64,0,0,1-3.59.46h0a15.07,15.07,0,0,1-3.54-.36,7.63,7.63,0,0,1-2.42-1,4.13,4.13,0,0,1-1.39-1.54,4.29,4.29,0,0,1-.44-2,3.38,3.38,0,0,1,.24-1.27,4.6,4.6,0,0,1,.66-1.08,4.92,4.92,0,0,1,1-.86,5.52,5.52,0,0,1,1.14-.57,3.33,3.33,0,0,1-1.3-1.11,2.72,2.72,0,0,1-.46-1.58,3,3,0,0,1,.59-1.89,5.9,5.9,0,0,1,1.49-1.35,4.67,4.67,0,0,1-2.2-1.91,5.68,5.68,0,0,1-.71-2.93,4.77,4.77,0,0,1,.59-2.38,5.65,5.65,0,0,1,1.62-1.83,7.71,7.71,0,0,1,2.39-1.16,9.8,9.8,0,0,1,2.91-.41h0q3.66,0,5.43,1.4a3.17,3.17,0,0,1,.56-.5,4.09,4.09,0,0,1,.8-.46,6.64,6.64,0,0,1,1-.35,4.93,4.93,0,0,1,1.17-.14h.69v3.29H177.6a6.11,6.11,0,0,1,.25,1,5.52,5.52,0,0,1,.1,1.11,5.28,5.28,0,0,1-.55,2.42,5.72,5.72,0,0,1-1.55,1.92,7.81,7.81,0,0,1-2.4,1.26,9.92,9.92,0,0,1-3.06.45Zm-.75,5.92a12.12,12.12,0,0,1-1.76-.13,3.59,3.59,0,0,0-.55.84,3.28,3.28,0,0,0-.25,1.43,4.54,4.54,0,0,0,.26,1.67,2.58,2.58,0,0,0,.78,1.12,3.24,3.24,0,0,0,1.26.62,7.11,7.11,0,0,0,1.75.19h0a7.83,7.83,0,0,0,1.75-.2,5.12,5.12,0,0,0,1.51-.63,3.43,3.43,0,0,0,1.07-1,2.69,2.69,0,0,0,.4-1.48,3.55,3.55,0,0,0-.14-1.1,1.41,1.41,0,0,0-.49-.74,2.4,2.4,0,0,0-1-.42,7.82,7.82,0,0,0-1.59-.13Zm1.1-7.88h0a2.35,2.35,0,0,0,1.24-.3,2.1,2.1,0,0,0,.77-.82,4,4,0,0,0,.39-1.21,10,10,0,0,0,.11-1.48,4.88,4.88,0,0,0-.63-2.81,2.32,2.32,0,0,0-2-.87h0a2.27,2.27,0,0,0-2,.88,4.71,4.71,0,0,0-.62,2.68,8.63,8.63,0,0,0,.14,1.59,3.56,3.56,0,0,0,.45,1.25,2.28,2.28,0,0,0,.86.8A2.8,2.8,0,0,0,170.73,522.46Z"/><path class="cls-1" d="M191,530.15v-1.94l2.34-.39V516h-2.58v-1.76l2.58-.73v-.85a6.77,6.77,0,0,1,.72-3.13,8,8,0,0,1,1.84-2.38,8.26,8.26,0,0,1,2.52-1.5,7.53,7.53,0,0,1,2.74-.53,5.25,5.25,0,0,1,1.13.09,4.26,4.26,0,0,1,.59.16v4.38a2.53,2.53,0,0,0-.54-.41,4.69,4.69,0,0,0-.78-.35,5.71,5.71,0,0,0-.93-.25,4.81,4.81,0,0,0-1-.11,2.6,2.6,0,0,0-.71.09,1.22,1.22,0,0,0-.55.32,1.35,1.35,0,0,0-.35.61,3.08,3.08,0,0,0-.13,1l0,2.87h3.76V516h-3.76v11.9l3.25.3v1.94Z"/><path class="cls-1" d="M203.29,521.86A10.09,10.09,0,0,1,204,518a8.08,8.08,0,0,1,1.83-2.75,7.38,7.38,0,0,1,2.64-1.64,9.24,9.24,0,0,1,3.13-.54,9,9,0,0,1,3.37.59,6.56,6.56,0,0,1,2.46,1.71,7.22,7.22,0,0,1,1.51,2.71,11.85,11.85,0,0,1,.51,3.62,10.5,10.5,0,0,1-.68,4,7.77,7.77,0,0,1-1.84,2.75,7.31,7.31,0,0,1-2.63,1.59,9.37,9.37,0,0,1-3.12.52,8.82,8.82,0,0,1-3.37-.59,6.46,6.46,0,0,1-2.47-1.71,7.38,7.38,0,0,1-1.52-2.71A11.83,11.83,0,0,1,203.29,521.86Zm8.12,6.6a2.45,2.45,0,0,0,2.36-1.48,6.6,6.6,0,0,0,.57-2,19.62,19.62,0,0,0,.19-2.88,24.9,24.9,0,0,0-.17-3,8.41,8.41,0,0,0-.54-2.21,3.19,3.19,0,0,0-1-1.36,2.35,2.35,0,0,0-1.48-.46,2.5,2.5,0,0,0-2.39,1.49,6.77,6.77,0,0,0-.59,2,19.47,19.47,0,0,0-.19,2.87,22.92,22.92,0,0,0,.18,3,8.54,8.54,0,0,0,.56,2.22,3.32,3.32,0,0,0,1,1.35A2.36,2.36,0,0,0,211.41,528.46Z"/><path class="cls-1" d="M221.67,530.15v-2l2.11-.27V516.63l-2-.62V513.8l5-.72h.09l.78.63v1.22l0,2.28h.06a6.88,6.88,0,0,1,.64-1.18,8.37,8.37,0,0,1,1.14-1.37,6.76,6.76,0,0,1,1.57-1.15A4.07,4.07,0,0,1,233,513a4.16,4.16,0,0,1,.7,0,1.83,1.83,0,0,1,.4.09v5.07a2.93,2.93,0,0,0-.84-.26,8.35,8.35,0,0,0-1.62-.14,8.72,8.72,0,0,0-1,.06,8,8,0,0,0-1,.16,4.83,4.83,0,0,0-.8.22,2.23,2.23,0,0,0-.54.27v9.34l3.64.35v1.91Z"/><path class="cls-2" d="M31.74,570.15v-2l1.8-.29V548.34L31.35,548v-1.71l5.7-.72h.07l.89.69,0,6.9-.23,2.33a7.44,7.44,0,0,1,1-.78,8.89,8.89,0,0,1,1.34-.76,10,10,0,0,1,1.63-.57,7.55,7.55,0,0,1,1.87-.22,6.21,6.21,0,0,1,2.37.39,3.31,3.31,0,0,1,1.49,1.22,5.49,5.49,0,0,1,.77,2.07,17,17,0,0,1,.23,3v8.11l2.07.29v2H42.36v-1.91l1.63-.32v-8.19a12.82,12.82,0,0,0-.1-1.75,3.25,3.25,0,0,0-.39-1.21,1.76,1.76,0,0,0-.79-.69,3.22,3.22,0,0,0-1.3-.23,4.49,4.49,0,0,0-.94.1,9.07,9.07,0,0,0-.93.26,7,7,0,0,0-.84.35,4.77,4.77,0,0,0-.66.4v10.93l2,.29v2Z"/><path class="cls-2" d="M60,570.48a8.92,8.92,0,0,1-3.56-.64A6.54,6.54,0,0,1,54,568.05a7.57,7.57,0,0,1-1.42-2.75,12.87,12.87,0,0,1-.45-3.49,10.79,10.79,0,0,1,.58-3.67,7.85,7.85,0,0,1,1.63-2.75,6.94,6.94,0,0,1,2.54-1.74,8.63,8.63,0,0,1,3.28-.6q6.08,0,6.34,5.94c0,.67,0,1.28,0,1.82a8.05,8.05,0,0,1-.15,1.37H56.76a8.84,8.84,0,0,0,.43,2.47,4.75,4.75,0,0,0,.92,1.67,3.31,3.31,0,0,0,1.35.94,4.83,4.83,0,0,0,1.73.29,7.68,7.68,0,0,0,1.39-.11,9,9,0,0,0,1.19-.3,6.13,6.13,0,0,0,1-.39,8.53,8.53,0,0,0,.77-.43l.76,1.78a6.36,6.36,0,0,1-1,.8,9.85,9.85,0,0,1-1.49.76,12.12,12.12,0,0,1-1.82.59A8.24,8.24,0,0,1,60,570.48ZM59.59,555a2.63,2.63,0,0,0-1.06.2,2,2,0,0,0-.87.78,5,5,0,0,0-.61,1.59,14.06,14.06,0,0,0-.3,2.63H62V560c0-.09,0-.18,0-.28s0-.19,0-.28v-.19a11.19,11.19,0,0,0-.11-1.51,4.66,4.66,0,0,0-.37-1.37,2.55,2.55,0,0,0-.75-1A1.84,1.84,0,0,0,59.59,555Z"/><path class="cls-2" d="M68.5,565.69a4.43,4.43,0,0,1,.38-1.91A4.71,4.71,0,0,1,70,562.31a6.36,6.36,0,0,1,1.61-1.07,11.68,11.68,0,0,1,2-.72,15.45,15.45,0,0,1,2.23-.42c.77-.09,1.54-.14,2.31-.16v-.71a3.42,3.42,0,0,0-.68-2.38,3,3,0,0,0-2.23-.71,10.65,10.65,0,0,0-1.59.13,13.34,13.34,0,0,0-1.53.31,11.5,11.5,0,0,0-1.36.41c-.41.15-.77.29-1.06.43h0l-.86-2a6.91,6.91,0,0,1,1-.66,13.65,13.65,0,0,1,1.76-.78,18.71,18.71,0,0,1,2.27-.66,11.41,11.41,0,0,1,2.56-.28,9.51,9.51,0,0,1,2.76.35A4.36,4.36,0,0,1,81,554.52a4.41,4.41,0,0,1,1,1.85,9.42,9.42,0,0,1,.33,2.64v9.15h1.81V570l-.68.15-.91.18-1.07.14c-.38,0-.77.05-1.17.05a7.82,7.82,0,0,1-.9,0,1.37,1.37,0,0,1-.6-.2.85.85,0,0,1-.33-.47,2.51,2.51,0,0,1-.11-.81v-.85a5,5,0,0,1-.69.75,5.69,5.69,0,0,1-1.06.77,6.09,6.09,0,0,1-3.15.85,6.76,6.76,0,0,1-2-.27,4.39,4.39,0,0,1-1.59-.87,4.12,4.12,0,0,1-1.08-1.49A5.48,5.48,0,0,1,68.5,565.69Zm7,2a2.76,2.76,0,0,0,.6-.08,4.25,4.25,0,0,0,.71-.2,5.67,5.67,0,0,0,.72-.32,3.09,3.09,0,0,0,.61-.41V561.8a9.39,9.39,0,0,0-2.38.26,4.54,4.54,0,0,0-1.53.7,2.52,2.52,0,0,0-.81,1,3.08,3.08,0,0,0-.25,1.21,2.94,2.94,0,0,0,.6,2A2.17,2.17,0,0,0,75.45,567.66Z"/><path class="cls-2" d="M86,570.15v-2l2.11-.27V556.63l-2-.62V553.8l5-.72h.09l.77.63v3.5H92a6.71,6.71,0,0,1,.63-1.18,8,8,0,0,1,1.15-1.37,6.7,6.7,0,0,1,1.56-1.15,4.11,4.11,0,0,1,1.93-.47,4.23,4.23,0,0,1,.7,0,1.83,1.83,0,0,1,.4.09v5.07a2.93,2.93,0,0,0-.84-.26,8.5,8.5,0,0,0-1.62-.14,8.89,8.89,0,0,0-1,.06,8.73,8.73,0,0,0-1,.16,5.12,5.12,0,0,0-.8.22,2.69,2.69,0,0,0-.54.27v9.34l3.65.35v1.91Z"/><path class="cls-2" d="M101.91,566.63V555.85H99.84v-1.67l.38-.12.52-.2.5-.2a1.49,1.49,0,0,0,.27-.14,4.39,4.39,0,0,0,1-1.4l.33-.69c.11-.25.23-.53.34-.81s.22-.56.32-.84.18-.53.24-.76h2.61l0,4.34h4.3v2.49h-4.3V564q0,1.17,0,1.86a3.43,3.43,0,0,0,.18,1,.71.71,0,0,0,.43.45,2.5,2.5,0,0,0,.81.1h0a4.91,4.91,0,0,0,.74-.06c.26,0,.51-.08.76-.13l.69-.18.52-.17h0l.69,1.71a7.66,7.66,0,0,1-1.07.68,11.49,11.49,0,0,1-1.41.61,12.77,12.77,0,0,1-1.62.44,9.21,9.21,0,0,1-1.73.16h0a4.94,4.94,0,0,1-1.64-.24,2.64,2.64,0,0,1-1.1-.74,3.07,3.07,0,0,1-.61-1.21A6.37,6.37,0,0,1,101.91,566.63Z"/><path class="cls-2" d="M122,570.15v-2l1.8-.29V548.34l-2.2-.37v-1.71l5.7-.72h.07l.9.69,0,6.9-.24,2.33a9,9,0,0,1,1-.78,9.41,9.41,0,0,1,1.34-.76,10.39,10.39,0,0,1,1.63-.57,7.66,7.66,0,0,1,1.87-.22,6.27,6.27,0,0,1,2.38.39,3.29,3.29,0,0,1,1.48,1.22,5.33,5.33,0,0,1,.78,2.07,17,17,0,0,1,.23,3v8.11l2.06.29v2h-8.2v-1.91l1.62-.32v-8.19a12.82,12.82,0,0,0-.1-1.75,3.25,3.25,0,0,0-.39-1.21,1.71,1.71,0,0,0-.79-.69,3.17,3.17,0,0,0-1.29-.23,4.36,4.36,0,0,0-.94.1,9.07,9.07,0,0,0-.93.26,6.41,6.41,0,0,0-.84.35,3.81,3.81,0,0,0-.66.4v10.93l2,.29v2Z"/><path class="cls-2" d="M150.19,570.48a8.87,8.87,0,0,1-3.55-.64,6.57,6.57,0,0,1-2.45-1.79,7.4,7.4,0,0,1-1.41-2.75,12.87,12.87,0,0,1-.46-3.49,11,11,0,0,1,.58-3.67,7.87,7.87,0,0,1,1.64-2.75,6.9,6.9,0,0,1,2.53-1.74,8.67,8.67,0,0,1,3.28-.6q6.08,0,6.34,5.94c0,.67,0,1.28,0,1.82a9.08,9.08,0,0,1-.16,1.37H147a9.24,9.24,0,0,0,.42,2.47,4.76,4.76,0,0,0,.93,1.67,3.31,3.31,0,0,0,1.35.94,4.78,4.78,0,0,0,1.72.29,7.61,7.61,0,0,0,1.39-.11,9.56,9.56,0,0,0,1.2-.3,6.38,6.38,0,0,0,1-.39,7.35,7.35,0,0,0,.77-.43l.76,1.78a5.82,5.82,0,0,1-1,.8,10.48,10.48,0,0,1-1.5.76,12,12,0,0,1-1.81.59A8.33,8.33,0,0,1,150.19,570.48Zm-.4-15.46a2.67,2.67,0,0,0-1.06.2,2,2,0,0,0-.86.78,5,5,0,0,0-.62,1.59,14.06,14.06,0,0,0-.3,2.63h5.26a1.79,1.79,0,0,1,0-.21c0-.09,0-.18,0-.28a2.72,2.72,0,0,0,0-.28v-.19a11.15,11.15,0,0,0-.1-1.51,5,5,0,0,0-.37-1.37,2.76,2.76,0,0,0-.75-1A1.88,1.88,0,0,0,149.79,555Z"/><path class="cls-2" d="M158.7,565.69a4.43,4.43,0,0,1,.39-1.91,4.71,4.71,0,0,1,1.07-1.47,6.3,6.3,0,0,1,1.6-1.07,12,12,0,0,1,2-.72,16,16,0,0,1,2.23-.42c.77-.09,1.54-.14,2.32-.16v-.71a3.42,3.42,0,0,0-.68-2.38,3,3,0,0,0-2.24-.71,10.65,10.65,0,0,0-1.59.13,14.27,14.27,0,0,0-1.53.31,10.78,10.78,0,0,0-1.35.41c-.42.15-.77.29-1.07.43h0l-.87-2a8.16,8.16,0,0,1,1-.66,14.3,14.3,0,0,1,1.76-.78,19.26,19.26,0,0,1,2.27-.66,11.5,11.5,0,0,1,2.57-.28,9.6,9.6,0,0,1,2.76.35,4.11,4.11,0,0,1,2.88,2.94,9.42,9.42,0,0,1,.33,2.64v9.15h1.82V570l-.69.15-.91.18-1.07.14c-.38,0-.77.05-1.17.05a7.82,7.82,0,0,1-.9,0,1.37,1.37,0,0,1-.6-.2,1,1,0,0,1-.33-.47,2.54,2.54,0,0,1-.1-.81v-.85a6.32,6.32,0,0,1-.69.75,6,6,0,0,1-1.06.77,6.33,6.33,0,0,1-1.42.61,5.9,5.9,0,0,1-1.74.24,6.86,6.86,0,0,1-2-.27,4.56,4.56,0,0,1-1.59-.87,4.1,4.1,0,0,1-1.07-1.49A5.3,5.3,0,0,1,158.7,565.69Zm7,2a2.84,2.84,0,0,0,.6-.08,4.15,4.15,0,0,0,.7-.2,4.64,4.64,0,0,0,.72-.32,3.18,3.18,0,0,0,.62-.41V561.8a9.33,9.33,0,0,0-2.38.26,4.69,4.69,0,0,0-1.54.7,2.52,2.52,0,0,0-.81,1,3.07,3.07,0,0,0-.24,1.21,3,3,0,0,0,.59,2A2.21,2.21,0,0,0,165.66,567.66Z"/><path class="cls-2" d="M175.72,570.15v-2l2.13-.29V548.34l-2.19-.37v-1.71l5.73-.72h.05l.92.69v21.66l2.21.29v2Z"/><path class="cls-2" d="M188.14,566.63V555.85h-2.06v-1.67l.37-.12.53-.2.49-.2a1.36,1.36,0,0,0,.28-.14,4.54,4.54,0,0,0,1-1.4c.1-.2.2-.43.32-.69s.23-.53.35-.81.21-.56.31-.84.18-.53.25-.76h2.61l0,4.34H197v2.49h-4.31V564c0,.78,0,1.4,0,1.86a3.48,3.48,0,0,0,.17,1,.75.75,0,0,0,.44.45,2.44,2.44,0,0,0,.8.1h0a4.91,4.91,0,0,0,.74-.06c.25,0,.51-.08.76-.13l.69-.18.52-.17h0l.69,1.71a7.26,7.26,0,0,1-1.08.68,10.71,10.71,0,0,1-1.4.61,13.4,13.4,0,0,1-1.63.44,9.1,9.1,0,0,1-1.72.16h0a5,5,0,0,1-1.65-.24,2.71,2.71,0,0,1-1.1-.74,3.21,3.21,0,0,1-.61-1.21A6.83,6.83,0,0,1,188.14,566.63Z"/><path class="cls-2" d="M198.76,570.15v-2l1.81-.29V548.34l-2.2-.37v-1.71l5.7-.72h.07l.89.69,0,6.9-.23,2.33a7.44,7.44,0,0,1,1-.78,8.89,8.89,0,0,1,1.34-.76,10.39,10.39,0,0,1,1.63-.57,7.55,7.55,0,0,1,1.87-.22,6.18,6.18,0,0,1,2.37.39,3.31,3.31,0,0,1,1.49,1.22,5.49,5.49,0,0,1,.77,2.07,16.07,16.07,0,0,1,.23,3v8.11l2.07.29v2h-8.21v-1.91l1.63-.32v-8.19a12.82,12.82,0,0,0-.1-1.75,3.25,3.25,0,0,0-.39-1.21,1.71,1.71,0,0,0-.79-.69,3.22,3.22,0,0,0-1.3-.23,4.33,4.33,0,0,0-.93.1,8.59,8.59,0,0,0-.94.26,7.81,7.81,0,0,0-.84.35,4.77,4.77,0,0,0-.66.4v10.93l2,.29v2Z"/><path class="cls-2" d="M223.12,570.4a3.24,3.24,0,0,1-1-.16,2.66,2.66,0,0,1-.82-.47,2.26,2.26,0,0,1-.76-1.72,2.5,2.5,0,0,1,.24-1.1,2.7,2.7,0,0,1,.64-.89,3,3,0,0,1,.95-.59,3.19,3.19,0,0,1,1.16-.22,3.39,3.39,0,0,1,1.22.2,2.08,2.08,0,0,1,.81.51,1.8,1.8,0,0,1,.45.75,2.93,2.93,0,0,1,.14.9,2.88,2.88,0,0,1-.22,1.15,2.76,2.76,0,0,1-1.6,1.44A3.78,3.78,0,0,1,223.12,570.4Z"/><path class="cls-1" d="M30,490.15v-2l1.89-.41,7.06-20h4.7l7,20,2,.41v2H43.18v-2l2.39-.41-1.1-3.57H36.52l-1,3.59,2.42.39v2Zm9.93-17.73-2.72,9.45h6.59l-2.89-9.45-.51-2.14Z"/><path class="cls-1" d="M62.87,489.21v-4.12h2.7l.76,2.29a1.64,1.64,0,0,0,.4.38,3,3,0,0,0,.65.34,5.29,5.29,0,0,0,.84.24,5.18,5.18,0,0,0,1,.09,3.3,3.3,0,0,0,1.19-.17,2.12,2.12,0,0,0,.74-.45,1.28,1.28,0,0,0,.38-.61,2.34,2.34,0,0,0,.11-.67,1.8,1.8,0,0,0-.32-1.06,3.23,3.23,0,0,0-.89-.82,10,10,0,0,0-1.4-.73l-1.82-.76a11.75,11.75,0,0,1-1.81-.91A6.24,6.24,0,0,1,64,481.11a4.71,4.71,0,0,1-.88-1.41,4.77,4.77,0,0,1-.3-1.74,4.33,4.33,0,0,1,.43-1.93,4.24,4.24,0,0,1,1.28-1.53,6.39,6.39,0,0,1,2.11-1,10.26,10.26,0,0,1,2.92-.37,12.65,12.65,0,0,1,1.72.11,13.73,13.73,0,0,1,1.37.28c.41.1.78.21,1.12.32a8.59,8.59,0,0,0,1,.25v4.05l-2.55-.05-.69-1.95a2,2,0,0,0-.77-.65,3.11,3.11,0,0,0-1.45-.33,3.55,3.55,0,0,0-1.11.15,2,2,0,0,0-.72.39,1.55,1.55,0,0,0-.39.55,1.87,1.87,0,0,0-.11.61,1.93,1.93,0,0,0,.39,1.25,3.39,3.39,0,0,0,1,.83,8,8,0,0,0,1.32.59c.48.18.93.36,1.36.55.64.29,1.26.59,1.85.91a7.33,7.33,0,0,1,1.55,1.1,4.85,4.85,0,0,1,1.09,1.46,4.44,4.44,0,0,1,.4,2,4.84,4.84,0,0,1-.41,2,4.41,4.41,0,0,1-1.26,1.58,6.23,6.23,0,0,1-2.11,1.05,10.2,10.2,0,0,1-3,.38,12.61,12.61,0,0,1-2.12-.16,16.44,16.44,0,0,1-1.74-.37c-.52-.14-1-.28-1.4-.43S63.17,489.28,62.87,489.21Z"/><path class="cls-1" d="M78.18,490.15v-2l2.14-.27V476.63l-2-.63v-2.2l5.38-.72h.07l1.07.63v14.18l2.12.29v2Zm3.9-19.54a2.22,2.22,0,0,1-.92-.19,2,2,0,0,1-.67-.51,2,2,0,0,1-.41-.75,2.71,2.71,0,0,1-.14-.91,3.81,3.81,0,0,1,.15-1.08,2.43,2.43,0,0,1,1.27-1.49,2.75,2.75,0,0,1,1.11-.22h0a2.49,2.49,0,0,1,1,.2,2,2,0,0,1,.72.53,2,2,0,0,1,.43.75,2.73,2.73,0,0,1,.14.9,3.5,3.5,0,0,1-.16,1.09,2.3,2.3,0,0,1-.49.88,2.18,2.18,0,0,1-.85.58,3,3,0,0,1-1.22.22Z"/><path class="cls-1" d="M89.19,490.15v-1.91l1.84-.33V476.63L89,476V473.8l5.19-.72h.07l.78.63v1.75a6.45,6.45,0,0,1,1.19-.88,9.45,9.45,0,0,1,1.53-.75,9.65,9.65,0,0,1,1.66-.51,7.13,7.13,0,0,1,1.61-.19,5.64,5.64,0,0,1,2.68.54,3.45,3.45,0,0,1,1.51,1.73,6.61,6.61,0,0,1,1.08-.77,9.15,9.15,0,0,1,1.47-.73,10.13,10.13,0,0,1,1.69-.55,6.94,6.94,0,0,1,1.72-.22,6.36,6.36,0,0,1,2.3.35,3.05,3.05,0,0,1,1.48,1.14,5.25,5.25,0,0,1,.79,2.06,16.81,16.81,0,0,1,.24,3.08v8.15l2.06.33v1.91H110v-1.91l1.53-.33v-8a12.87,12.87,0,0,0-.12-1.91,3.45,3.45,0,0,0-.42-1.27,1.73,1.73,0,0,0-.79-.7,3.2,3.2,0,0,0-1.24-.22,4.07,4.07,0,0,0-.81.1c-.29.07-.59.16-.88.26a8.93,8.93,0,0,0-.85.35,6,6,0,0,0-.72.38,8.79,8.79,0,0,1,.16,1.34c0,.48,0,1,0,1.57v8.13l2,.32v1.91H99.62v-1.91l1.76-.32v-8.19a11.18,11.18,0,0,0-.12-1.75,3.25,3.25,0,0,0-.4-1.21,1.77,1.77,0,0,0-.77-.69,3,3,0,0,0-1.24-.23,4.24,4.24,0,0,0-.92.1,9.07,9.07,0,0,0-.93.26,5.75,5.75,0,0,0-.83.35,4.62,4.62,0,0,0-.65.4v11l2,.33v1.91Z"/><path class="cls-1" d="M119.55,495.55l2.19-.36V476.63l-2-.62V473.8l5.25-.72h.07l.75.63v1.55a6.79,6.79,0,0,1,.86-.82,5.69,5.69,0,0,1,1.11-.71,6.74,6.74,0,0,1,1.35-.5,6.16,6.16,0,0,1,1.58-.19,7.05,7.05,0,0,1,2.53.45,5.32,5.32,0,0,1,2.06,1.44,7.25,7.25,0,0,1,1.38,2.56,12.35,12.35,0,0,1,.51,3.78,10.72,10.72,0,0,1-.6,3.63,8.66,8.66,0,0,1-1.7,2.92,7.84,7.84,0,0,1-2.71,1.95,8.71,8.71,0,0,1-3.61.71l-.72,0-.69-.08-.59-.09-.43-.08.09,2.43v2.55l2.9.36v1.86h-9.59Zm9.31-19.85a3.76,3.76,0,0,0-1.57.32,3.37,3.37,0,0,0-1.05.71v11.09a2.08,2.08,0,0,0,.81.49,3.81,3.81,0,0,0,1.34.21,3.44,3.44,0,0,0,1.51-.34,3.16,3.16,0,0,0,1.23-1.14A6.62,6.62,0,0,0,132,485a13.88,13.88,0,0,0,.35-3.16,12.86,12.86,0,0,0-.21-2.81,5.76,5.76,0,0,0-.69-1.89,2.9,2.9,0,0,0-1.11-1.07A3.2,3.2,0,0,0,128.86,475.7Z"/><path class="cls-1" d="M139.07,490.15v-2l2.13-.29V468.34L139,468v-1.71l5.73-.72h0l.92.69v21.66l2.21.29v2Z"/><path class="cls-1" d="M157.5,490.48a8.87,8.87,0,0,1-3.55-.64,6.57,6.57,0,0,1-2.45-1.79,7.4,7.4,0,0,1-1.41-2.75,12.87,12.87,0,0,1-.46-3.49,11,11,0,0,1,.58-3.67,7.87,7.87,0,0,1,1.64-2.75,6.9,6.9,0,0,1,2.53-1.74,8.67,8.67,0,0,1,3.28-.6q6.08,0,6.34,5.94c0,.67,0,1.28,0,1.82a9.08,9.08,0,0,1-.16,1.37h-9.56a9.24,9.24,0,0,0,.42,2.47,4.91,4.91,0,0,0,.92,1.67,3.41,3.41,0,0,0,1.36.94,4.78,4.78,0,0,0,1.72.29,7.61,7.61,0,0,0,1.39-.11,9.56,9.56,0,0,0,1.2-.3,6.38,6.38,0,0,0,1-.39,7.35,7.35,0,0,0,.77-.43l.76,1.78a5.82,5.82,0,0,1-1,.8,10.48,10.48,0,0,1-1.5.76,12,12,0,0,1-1.81.59A8.39,8.39,0,0,1,157.5,490.48ZM157.1,475a2.67,2.67,0,0,0-1.06.2,2,2,0,0,0-.86.78,5,5,0,0,0-.62,1.59,14.06,14.06,0,0,0-.3,2.63h5.26a1.79,1.79,0,0,1,0-.21c0-.09,0-.18,0-.28a2.72,2.72,0,0,0,0-.28v-.19a11.15,11.15,0,0,0-.1-1.51,5.37,5.37,0,0,0-.37-1.37,2.76,2.76,0,0,0-.75-1A1.88,1.88,0,0,0,157.1,475Z"/><path class="cls-1" d="M32.34,529.21v-4.12H35l.76,2.29a1.64,1.64,0,0,0,.4.38,3,3,0,0,0,.65.34,5.61,5.61,0,0,0,.84.24,5.18,5.18,0,0,0,1,.09,3.39,3.39,0,0,0,1.2-.17,2.32,2.32,0,0,0,.74-.45,1.46,1.46,0,0,0,.38-.61,2.72,2.72,0,0,0,.1-.67,1.8,1.8,0,0,0-.32-1.06,3.09,3.09,0,0,0-.89-.82,10,10,0,0,0-1.4-.73l-1.81-.76a11.88,11.88,0,0,1-1.82-.91,6.24,6.24,0,0,1-1.37-1.14,4.49,4.49,0,0,1-.87-1.41A4.57,4.57,0,0,1,32.3,518,4.2,4.2,0,0,1,34,514.5a6.39,6.39,0,0,1,2.11-1A10.26,10.26,0,0,1,39,513.1a12.54,12.54,0,0,1,1.72.11,13.73,13.73,0,0,1,1.37.28c.41.1.79.21,1.13.32a8,8,0,0,0,1,.25v4.05l-2.55-.05L41,516.11a2.12,2.12,0,0,0-.78-.65,3.08,3.08,0,0,0-1.45-.33,3.55,3.55,0,0,0-1.11.15,2.14,2.14,0,0,0-.72.39,1.52,1.52,0,0,0-.38.55,1.66,1.66,0,0,0-.12.61,1.88,1.88,0,0,0,.4,1.25,3.22,3.22,0,0,0,1,.83,8,8,0,0,0,1.32.59c.48.18.93.36,1.36.55.65.29,1.26.59,1.85.91a7.66,7.66,0,0,1,1.56,1.1A5,5,0,0,1,45,523.52a4.44,4.44,0,0,1,.4,2,4.68,4.68,0,0,1-.41,2,4.41,4.41,0,0,1-1.26,1.58,6.14,6.14,0,0,1-2.11,1.05,10.2,10.2,0,0,1-3,.38,12.61,12.61,0,0,1-2.12-.16,17,17,0,0,1-1.74-.37c-.52-.14-1-.28-1.4-.43A10.44,10.44,0,0,0,32.34,529.21Z"/><path class="cls-1" d="M47.5,522a10.45,10.45,0,0,1,.6-3.62,8.16,8.16,0,0,1,1.69-2.82,7.57,7.57,0,0,1,2.66-1.83,9,9,0,0,1,3.49-.65,14,14,0,0,1,1.8.11c.55.07,1,.16,1.47.25s.8.2,1.11.3l.76.25-.14,5H58.36l-.85-2.58a2.83,2.83,0,0,0-.79-1,1.81,1.81,0,0,0-1.14-.36,2.69,2.69,0,0,0-1.26.33,3.09,3.09,0,0,0-1,1,5.77,5.77,0,0,0-.74,1.83,11.29,11.29,0,0,0-.28,2.73,14.09,14.09,0,0,0,.29,3.07,5.65,5.65,0,0,0,.83,2,3.19,3.19,0,0,0,1.34,1.12,4.4,4.4,0,0,0,1.77.34,6.83,6.83,0,0,0,2.35-.36,9.36,9.36,0,0,0,1.67-.79l.77,1.77a5.63,5.63,0,0,1-.88.74,8.53,8.53,0,0,1-1.35.75,9.68,9.68,0,0,1-1.7.59,7.75,7.75,0,0,1-1.94.23,9,9,0,0,1-3.56-.64,6.5,6.5,0,0,1-2.45-1.79,7.27,7.27,0,0,1-1.42-2.7A11.82,11.82,0,0,1,47.5,522Z"/><path class="cls-1" d="M63.37,530.15v-2l2.11-.27V516.63l-2-.62V513.8l5-.72h.08l.78.63v3.5h.05A6.88,6.88,0,0,1,70,516a8.37,8.37,0,0,1,1.14-1.37,7,7,0,0,1,1.57-1.15,4.54,4.54,0,0,1,2.62-.43,1.8,1.8,0,0,1,.41.09v5.07a2.92,2.92,0,0,0-.85-.26,8.31,8.31,0,0,0-1.61-.14,9.38,9.38,0,0,0-2,.22,5.12,5.12,0,0,0-.8.22,2.69,2.69,0,0,0-.54.27v9.34l3.65.35v1.91Z"/><path class="cls-1" d="M85.31,530.48a8.9,8.9,0,0,1-3.55-.64,6.57,6.57,0,0,1-2.45-1.79,7.4,7.4,0,0,1-1.41-2.75,12.87,12.87,0,0,1-.45-3.49,11,11,0,0,1,.57-3.67,8,8,0,0,1,1.64-2.75,7,7,0,0,1,2.53-1.74,8.67,8.67,0,0,1,3.28-.6q6.09,0,6.35,5.94c0,.67,0,1.28,0,1.82a10.79,10.79,0,0,1-.15,1.37H82.09a9.24,9.24,0,0,0,.42,2.47,4.92,4.92,0,0,0,.93,1.67,3.31,3.31,0,0,0,1.35.94,4.78,4.78,0,0,0,1.72.29,7.72,7.72,0,0,0,1.4-.11,9.85,9.85,0,0,0,1.19-.3,5.67,5.67,0,0,0,1-.39,7.35,7.35,0,0,0,.77-.43l.77,1.78a6.36,6.36,0,0,1-1,.8,10.48,10.48,0,0,1-1.5.76,11.63,11.63,0,0,1-1.81.59A8.27,8.27,0,0,1,85.31,530.48ZM84.92,515a2.72,2.72,0,0,0-1.07.2A2,2,0,0,0,83,516a5,5,0,0,0-.61,1.59,12.55,12.55,0,0,0-.3,2.63h5.25c0-.05,0-.12,0-.21s0-.18,0-.28v-.47a11.15,11.15,0,0,0-.1-1.51,5,5,0,0,0-.37-1.37,2.55,2.55,0,0,0-.75-1A1.85,1.85,0,0,0,84.92,515Z"/><path class="cls-1" d="M101.81,530.48a9,9,0,0,1-3.56-.64,6.54,6.54,0,0,1-2.44-1.79,7.57,7.57,0,0,1-1.42-2.75,12.87,12.87,0,0,1-.45-3.49,10.79,10.79,0,0,1,.58-3.67,7.85,7.85,0,0,1,1.63-2.75,7,7,0,0,1,2.54-1.74,8.63,8.63,0,0,1,3.28-.6q6.07,0,6.34,5.94c0,.67,0,1.28,0,1.82a8.05,8.05,0,0,1-.15,1.37H98.58a8.84,8.84,0,0,0,.43,2.47,4.75,4.75,0,0,0,.92,1.67,3.28,3.28,0,0,0,1.36.94,4.74,4.74,0,0,0,1.72.29,7.61,7.61,0,0,0,1.39-.11,9,9,0,0,0,1.19-.3,6.13,6.13,0,0,0,1-.39,8.53,8.53,0,0,0,.77-.43l.76,1.78a5.57,5.57,0,0,1-1,.8,9.85,9.85,0,0,1-1.49.76,11.76,11.76,0,0,1-1.82.59A8.24,8.24,0,0,1,101.81,530.48Zm-.4-15.46a2.67,2.67,0,0,0-1.06.2,1.92,1.92,0,0,0-.86.78,5,5,0,0,0-.62,1.59,14.06,14.06,0,0,0-.3,2.63h5.26V520c0-.09,0-.18,0-.28s0-.19,0-.28v-.19a11.19,11.19,0,0,0-.11-1.51,4.66,4.66,0,0,0-.37-1.37,2.55,2.55,0,0,0-.75-1A1.84,1.84,0,0,0,101.41,515Z"/><path class="cls-1" d="M110.8,530.15v-2l1.89-.29V516.63l-2-.62V513.8l5.24-.72H116l.77.63v1.75a8.3,8.3,0,0,1,1.14-.87,10.16,10.16,0,0,1,1.43-.75,12.25,12.25,0,0,1,1.62-.52,7.68,7.68,0,0,1,1.72-.19,6.67,6.67,0,0,1,2.35.36,3.24,3.24,0,0,1,1.5,1.17,5.42,5.42,0,0,1,.79,2.08,16.7,16.7,0,0,1,.23,3v8.12l2.08.27v2h-8.24v-2l1.59-.27v-8.18a12.82,12.82,0,0,0-.1-1.75,3.45,3.45,0,0,0-.37-1.21,1.67,1.67,0,0,0-.75-.69,2.89,2.89,0,0,0-1.22-.23,4.53,4.53,0,0,0-1,.11,5.2,5.2,0,0,0-.92.29,5.26,5.26,0,0,0-.79.38c-.24.15-.45.29-.62.42v10.84l2,.29v2Z"/><path class="cls-1" d="M131.37,530.15v-2l2.14-.27V516.63l-2-.63v-2.2l5.37-.72H137l1.07.63v14.18l2.12.29v2Zm3.89-19.54a2.21,2.21,0,0,1-.91-.19,2.06,2.06,0,0,1-.68-.51,2.26,2.26,0,0,1-.41-.75,3,3,0,0,1-.14-.91,3.81,3.81,0,0,1,.16-1.08,2.35,2.35,0,0,1,1.27-1.49,2.75,2.75,0,0,1,1.11-.22h0a2.54,2.54,0,0,1,1,.2,2.14,2.14,0,0,1,.72.53,2,2,0,0,1,.43.75,2.73,2.73,0,0,1,.14.9,3.5,3.5,0,0,1-.16,1.09,2.44,2.44,0,0,1-.49.88,2.18,2.18,0,0,1-.85.58,3.06,3.06,0,0,1-1.22.22Z"/><path class="cls-1" d="M142.32,530.15v-2l1.89-.29V516.63l-2-.62V513.8l5.25-.72h.07l.78.63v1.75a7.73,7.73,0,0,1,1.14-.87,9.64,9.64,0,0,1,1.43-.75,11.65,11.65,0,0,1,1.61-.52,7.68,7.68,0,0,1,1.72-.19,6.64,6.64,0,0,1,2.35.36,3.24,3.24,0,0,1,1.5,1.17,5.26,5.26,0,0,1,.79,2.08,16.61,16.61,0,0,1,.24,3v8.12l2.08.27v2h-8.25v-2l1.6-.27v-8.18a12.68,12.68,0,0,0-.11-1.75,3.26,3.26,0,0,0-.37-1.21,1.67,1.67,0,0,0-.75-.69,2.82,2.82,0,0,0-1.22-.23,4.6,4.6,0,0,0-1,.11,5.48,5.48,0,0,0-.92.29,5.26,5.26,0,0,0-.79.38c-.24.15-.44.29-.62.42v10.84l2,.29v2Z"/><path class="cls-1" d="M170.38,524.42a12.75,12.75,0,0,1-2.23-.18,2.17,2.17,0,0,0-.41.58,1.71,1.71,0,0,0-.16.77,1.51,1.51,0,0,0,.19.82,1.22,1.22,0,0,0,.6.48,3.74,3.74,0,0,0,1,.23c.42,0,.93,0,1.53,0h2.93a8.37,8.37,0,0,1,4.71,1.07,4,4,0,0,1,1.54,3.5,4.8,4.8,0,0,1-.77,2.68,6.64,6.64,0,0,1-2.07,2.05,10.64,10.64,0,0,1-3,1.3,13.64,13.64,0,0,1-3.59.46h0a15.07,15.07,0,0,1-3.54-.36,7.63,7.63,0,0,1-2.42-1,4.13,4.13,0,0,1-1.39-1.54,4.29,4.29,0,0,1-.44-2,3.38,3.38,0,0,1,.24-1.27,4.6,4.6,0,0,1,.66-1.08,4.92,4.92,0,0,1,1-.86,5.52,5.52,0,0,1,1.14-.57,3.33,3.33,0,0,1-1.3-1.11,2.72,2.72,0,0,1-.46-1.58,3,3,0,0,1,.59-1.89,5.9,5.9,0,0,1,1.49-1.35,4.67,4.67,0,0,1-2.2-1.91,5.68,5.68,0,0,1-.71-2.93,4.77,4.77,0,0,1,.59-2.38,5.65,5.65,0,0,1,1.62-1.83,7.71,7.71,0,0,1,2.39-1.16,9.8,9.8,0,0,1,2.91-.41h0q3.66,0,5.43,1.4a3.17,3.17,0,0,1,.56-.5,4.09,4.09,0,0,1,.8-.46,6.64,6.64,0,0,1,1-.35,4.93,4.93,0,0,1,1.17-.14h.69v3.29H177.6a6.11,6.11,0,0,1,.25,1,5.52,5.52,0,0,1,.1,1.11,5.28,5.28,0,0,1-.55,2.42,5.72,5.72,0,0,1-1.55,1.92,7.81,7.81,0,0,1-2.4,1.26,9.92,9.92,0,0,1-3.06.45Zm-.75,5.92a12.12,12.12,0,0,1-1.76-.13,3.59,3.59,0,0,0-.55.84,3.28,3.28,0,0,0-.25,1.43,4.54,4.54,0,0,0,.26,1.67,2.58,2.58,0,0,0,.78,1.12,3.24,3.24,0,0,0,1.26.62,7.11,7.11,0,0,0,1.75.19h0a7.83,7.83,0,0,0,1.75-.2,5.12,5.12,0,0,0,1.51-.63,3.43,3.43,0,0,0,1.07-1,2.69,2.69,0,0,0,.4-1.48,3.55,3.55,0,0,0-.14-1.1,1.41,1.41,0,0,0-.49-.74,2.4,2.4,0,0,0-1-.42,7.82,7.82,0,0,0-1.59-.13Zm1.1-7.88h0a2.35,2.35,0,0,0,1.24-.3,2.1,2.1,0,0,0,.77-.82,4,4,0,0,0,.39-1.21,10,10,0,0,0,.11-1.48,4.88,4.88,0,0,0-.63-2.81,2.32,2.32,0,0,0-2-.87h0a2.27,2.27,0,0,0-2,.88,4.71,4.71,0,0,0-.62,2.68,8.63,8.63,0,0,0,.14,1.59,3.56,3.56,0,0,0,.45,1.25,2.28,2.28,0,0,0,.86.8A2.8,2.8,0,0,0,170.73,522.46Z"/><path class="cls-1" d="M191,530.15v-1.94l2.34-.39V516h-2.58v-1.76l2.58-.73v-.85a6.77,6.77,0,0,1,.72-3.13,8,8,0,0,1,1.84-2.38,8.26,8.26,0,0,1,2.52-1.5,7.53,7.53,0,0,1,2.74-.53,5.25,5.25,0,0,1,1.13.09,4.26,4.26,0,0,1,.59.16v4.38a2.53,2.53,0,0,0-.54-.41,4.69,4.69,0,0,0-.78-.35,5.71,5.71,0,0,0-.93-.25,4.81,4.81,0,0,0-1-.11,2.6,2.6,0,0,0-.71.09,1.22,1.22,0,0,0-.55.32,1.35,1.35,0,0,0-.35.61,3.08,3.08,0,0,0-.13,1l0,2.87h3.76V516h-3.76v11.9l3.25.3v1.94Z"/><path class="cls-1" d="M203.29,521.86A10.09,10.09,0,0,1,204,518a8.08,8.08,0,0,1,1.83-2.75,7.38,7.38,0,0,1,2.64-1.64,9.24,9.24,0,0,1,3.13-.54,9,9,0,0,1,3.37.59,6.56,6.56,0,0,1,2.46,1.71,7.22,7.22,0,0,1,1.51,2.71,11.85,11.85,0,0,1,.51,3.62,10.5,10.5,0,0,1-.68,4,7.77,7.77,0,0,1-1.84,2.75,7.31,7.31,0,0,1-2.63,1.59,9.37,9.37,0,0,1-3.12.52,8.82,8.82,0,0,1-3.37-.59,6.46,6.46,0,0,1-2.47-1.71,7.38,7.38,0,0,1-1.52-2.71A11.83,11.83,0,0,1,203.29,521.86Zm8.12,6.6a2.45,2.45,0,0,0,2.36-1.48,6.6,6.6,0,0,0,.57-2,19.62,19.62,0,0,0,.19-2.88,24.9,24.9,0,0,0-.17-3,8.41,8.41,0,0,0-.54-2.21,3.19,3.19,0,0,0-1-1.36,2.35,2.35,0,0,0-1.48-.46,2.5,2.5,0,0,0-2.39,1.49,6.77,6.77,0,0,0-.59,2,19.47,19.47,0,0,0-.19,2.87,22.92,22.92,0,0,0,.18,3,8.54,8.54,0,0,0,.56,2.22,3.32,3.32,0,0,0,1,1.35A2.36,2.36,0,0,0,211.41,528.46Z"/><path class="cls-1" d="M221.67,530.15v-2l2.11-.27V516.63l-2-.62V513.8l5-.72h.09l.78.63v1.22l0,2.28h.06a6.88,6.88,0,0,1,.64-1.18,8.37,8.37,0,0,1,1.14-1.37,6.76,6.76,0,0,1,1.57-1.15A4.07,4.07,0,0,1,233,513a4.16,4.16,0,0,1,.7,0,1.83,1.83,0,0,1,.4.09v5.07a2.93,2.93,0,0,0-.84-.26,8.35,8.35,0,0,0-1.62-.14,8.72,8.72,0,0,0-1,.06,8,8,0,0,0-1,.16,4.83,4.83,0,0,0-.8.22,2.23,2.23,0,0,0-.54.27v9.34l3.64.35v1.91Z"/><path class="cls-2" d="M31.74,570.15v-2l1.8-.29V548.34L31.35,548v-1.71l5.7-.72h.07l.89.69,0,6.9-.23,2.33a7.44,7.44,0,0,1,1-.78,8.89,8.89,0,0,1,1.34-.76,10,10,0,0,1,1.63-.57,7.55,7.55,0,0,1,1.87-.22,6.21,6.21,0,0,1,2.37.39,3.31,3.31,0,0,1,1.49,1.22,5.49,5.49,0,0,1,.77,2.07,17,17,0,0,1,.23,3v8.11l2.07.29v2H42.36v-1.91l1.63-.32v-8.19a12.82,12.82,0,0,0-.1-1.75,3.25,3.25,0,0,0-.39-1.21,1.76,1.76,0,0,0-.79-.69,3.22,3.22,0,0,0-1.3-.23,4.49,4.49,0,0,0-.94.1,9.07,9.07,0,0,0-.93.26,7,7,0,0,0-.84.35,4.77,4.77,0,0,0-.66.4v10.93l2,.29v2Z"/><path class="cls-2" d="M60,570.48a8.92,8.92,0,0,1-3.56-.64A6.54,6.54,0,0,1,54,568.05a7.57,7.57,0,0,1-1.42-2.75,12.87,12.87,0,0,1-.45-3.49,10.79,10.79,0,0,1,.58-3.67,7.85,7.85,0,0,1,1.63-2.75,6.94,6.94,0,0,1,2.54-1.74,8.63,8.63,0,0,1,3.28-.6q6.08,0,6.34,5.94c0,.67,0,1.28,0,1.82a8.05,8.05,0,0,1-.15,1.37H56.76a8.84,8.84,0,0,0,.43,2.47,4.75,4.75,0,0,0,.92,1.67,3.31,3.31,0,0,0,1.35.94,4.83,4.83,0,0,0,1.73.29,7.68,7.68,0,0,0,1.39-.11,9,9,0,0,0,1.19-.3,6.13,6.13,0,0,0,1-.39,8.53,8.53,0,0,0,.77-.43l.76,1.78a6.36,6.36,0,0,1-1,.8,9.85,9.85,0,0,1-1.49.76,12.12,12.12,0,0,1-1.82.59A8.24,8.24,0,0,1,60,570.48ZM59.59,555a2.63,2.63,0,0,0-1.06.2,2,2,0,0,0-.87.78,5,5,0,0,0-.61,1.59,14.06,14.06,0,0,0-.3,2.63H62V560c0-.09,0-.18,0-.28s0-.19,0-.28v-.19a11.19,11.19,0,0,0-.11-1.51,4.66,4.66,0,0,0-.37-1.37,2.55,2.55,0,0,0-.75-1A1.84,1.84,0,0,0,59.59,555Z"/><path class="cls-2" d="M68.5,565.69a4.43,4.43,0,0,1,.38-1.91A4.71,4.71,0,0,1,70,562.31a6.36,6.36,0,0,1,1.61-1.07,11.68,11.68,0,0,1,2-.72,15.45,15.45,0,0,1,2.23-.42c.77-.09,1.54-.14,2.31-.16v-.71a3.42,3.42,0,0,0-.68-2.38,3,3,0,0,0-2.23-.71,10.65,10.65,0,0,0-1.59.13,13.34,13.34,0,0,0-1.53.31,11.5,11.5,0,0,0-1.36.41c-.41.15-.77.29-1.06.43h0l-.86-2a6.91,6.91,0,0,1,1-.66,13.65,13.65,0,0,1,1.76-.78,18.71,18.71,0,0,1,2.27-.66,11.41,11.41,0,0,1,2.56-.28,9.51,9.51,0,0,1,2.76.35A4.36,4.36,0,0,1,81,554.52a4.41,4.41,0,0,1,1,1.85,9.42,9.42,0,0,1,.33,2.64v9.15h1.81V570l-.68.15-.91.18-1.07.14c-.38,0-.77.05-1.17.05a7.82,7.82,0,0,1-.9,0,1.37,1.37,0,0,1-.6-.2.85.85,0,0,1-.33-.47,2.51,2.51,0,0,1-.11-.81v-.85a5,5,0,0,1-.69.75,5.69,5.69,0,0,1-1.06.77,6.09,6.09,0,0,1-3.15.85,6.76,6.76,0,0,1-2-.27,4.39,4.39,0,0,1-1.59-.87,4.12,4.12,0,0,1-1.08-1.49A5.48,5.48,0,0,1,68.5,565.69Zm7,2a2.76,2.76,0,0,0,.6-.08,4.25,4.25,0,0,0,.71-.2,5.67,5.67,0,0,0,.72-.32,3.09,3.09,0,0,0,.61-.41V561.8a9.39,9.39,0,0,0-2.38.26,4.54,4.54,0,0,0-1.53.7,2.52,2.52,0,0,0-.81,1,3.08,3.08,0,0,0-.25,1.21,2.94,2.94,0,0,0,.6,2A2.17,2.17,0,0,0,75.45,567.66Z"/><path class="cls-2" d="M86,570.15v-2l2.11-.27V556.63l-2-.62V553.8l5-.72h.09l.77.63v3.5H92a6.71,6.71,0,0,1,.63-1.18,8,8,0,0,1,1.15-1.37,6.7,6.7,0,0,1,1.56-1.15,4.11,4.11,0,0,1,1.93-.47,4.23,4.23,0,0,1,.7,0,1.83,1.83,0,0,1,.4.09v5.07a2.93,2.93,0,0,0-.84-.26,8.5,8.5,0,0,0-1.62-.14,8.89,8.89,0,0,0-1,.06,8.73,8.73,0,0,0-1,.16,5.12,5.12,0,0,0-.8.22,2.69,2.69,0,0,0-.54.27v9.34l3.65.35v1.91Z"/><path class="cls-2" d="M101.91,566.63V555.85H99.84v-1.67l.38-.12.52-.2.5-.2a1.49,1.49,0,0,0,.27-.14,4.39,4.39,0,0,0,1-1.4l.33-.69c.11-.25.23-.53.34-.81s.22-.56.32-.84.18-.53.24-.76h2.61l0,4.34h4.3v2.49h-4.3V564q0,1.17,0,1.86a3.43,3.43,0,0,0,.18,1,.71.71,0,0,0,.43.45,2.5,2.5,0,0,0,.81.1h0a4.91,4.91,0,0,0,.74-.06c.26,0,.51-.08.76-.13l.69-.18.52-.17h0l.69,1.71a7.66,7.66,0,0,1-1.07.68,11.49,11.49,0,0,1-1.41.61,12.77,12.77,0,0,1-1.62.44,9.21,9.21,0,0,1-1.73.16h0a4.94,4.94,0,0,1-1.64-.24,2.64,2.64,0,0,1-1.1-.74,3.07,3.07,0,0,1-.61-1.21A6.37,6.37,0,0,1,101.91,566.63Z"/><path class="cls-2" d="M122,570.15v-2l1.8-.29V548.34l-2.2-.37v-1.71l5.7-.72h.07l.9.69,0,6.9-.24,2.33a9,9,0,0,1,1-.78,9.41,9.41,0,0,1,1.34-.76,10.39,10.39,0,0,1,1.63-.57,7.66,7.66,0,0,1,1.87-.22,6.27,6.27,0,0,1,2.38.39,3.29,3.29,0,0,1,1.48,1.22,5.33,5.33,0,0,1,.78,2.07,17,17,0,0,1,.23,3v8.11l2.06.29v2h-8.2v-1.91l1.62-.32v-8.19a12.82,12.82,0,0,0-.1-1.75,3.25,3.25,0,0,0-.39-1.21,1.71,1.71,0,0,0-.79-.69,3.17,3.17,0,0,0-1.29-.23,4.36,4.36,0,0,0-.94.1,9.07,9.07,0,0,0-.93.26,6.41,6.41,0,0,0-.84.35,3.81,3.81,0,0,0-.66.4v10.93l2,.29v2Z"/><path class="cls-2" d="M150.19,570.48a8.87,8.87,0,0,1-3.55-.64,6.57,6.57,0,0,1-2.45-1.79,7.4,7.4,0,0,1-1.41-2.75,12.87,12.87,0,0,1-.46-3.49,11,11,0,0,1,.58-3.67,7.87,7.87,0,0,1,1.64-2.75,6.9,6.9,0,0,1,2.53-1.74,8.67,8.67,0,0,1,3.28-.6q6.08,0,6.34,5.94c0,.67,0,1.28,0,1.82a9.08,9.08,0,0,1-.16,1.37H147a9.24,9.24,0,0,0,.42,2.47,4.76,4.76,0,0,0,.93,1.67,3.31,3.31,0,0,0,1.35.94,4.78,4.78,0,0,0,1.72.29,7.61,7.61,0,0,0,1.39-.11,9.56,9.56,0,0,0,1.2-.3,6.38,6.38,0,0,0,1-.39,7.35,7.35,0,0,0,.77-.43l.76,1.78a5.82,5.82,0,0,1-1,.8,10.48,10.48,0,0,1-1.5.76,12,12,0,0,1-1.81.59A8.33,8.33,0,0,1,150.19,570.48Zm-.4-15.46a2.67,2.67,0,0,0-1.06.2,2,2,0,0,0-.86.78,5,5,0,0,0-.62,1.59,14.06,14.06,0,0,0-.3,2.63h5.26a1.79,1.79,0,0,1,0-.21c0-.09,0-.18,0-.28a2.72,2.72,0,0,0,0-.28v-.19a11.15,11.15,0,0,0-.1-1.51,5,5,0,0,0-.37-1.37,2.76,2.76,0,0,0-.75-1A1.88,1.88,0,0,0,149.79,555Z"/><path class="cls-2" d="M158.7,565.69a4.43,4.43,0,0,1,.39-1.91,4.71,4.71,0,0,1,1.07-1.47,6.3,6.3,0,0,1,1.6-1.07,12,12,0,0,1,2-.72,16,16,0,0,1,2.23-.42c.77-.09,1.54-.14,2.32-.16v-.71a3.42,3.42,0,0,0-.68-2.38,3,3,0,0,0-2.24-.71,10.65,10.65,0,0,0-1.59.13,14.27,14.27,0,0,0-1.53.31,10.78,10.78,0,0,0-1.35.41c-.42.15-.77.29-1.07.43h0l-.87-2a8.16,8.16,0,0,1,1-.66,14.3,14.3,0,0,1,1.76-.78,19.26,19.26,0,0,1,2.27-.66,11.5,11.5,0,0,1,2.57-.28,9.6,9.6,0,0,1,2.76.35,4.11,4.11,0,0,1,2.88,2.94,9.42,9.42,0,0,1,.33,2.64v9.15h1.82V570l-.69.15-.91.18-1.07.14c-.38,0-.77.05-1.17.05a7.82,7.82,0,0,1-.9,0,1.37,1.37,0,0,1-.6-.2,1,1,0,0,1-.33-.47,2.54,2.54,0,0,1-.1-.81v-.85a6.32,6.32,0,0,1-.69.75,6,6,0,0,1-1.06.77,6.33,6.33,0,0,1-1.42.61,5.9,5.9,0,0,1-1.74.24,6.86,6.86,0,0,1-2-.27,4.56,4.56,0,0,1-1.59-.87,4.1,4.1,0,0,1-1.07-1.49A5.3,5.3,0,0,1,158.7,565.69Zm7,2a2.84,2.84,0,0,0,.6-.08,4.15,4.15,0,0,0,.7-.2,4.64,4.64,0,0,0,.72-.32,3.18,3.18,0,0,0,.62-.41V561.8a9.33,9.33,0,0,0-2.38.26,4.69,4.69,0,0,0-1.54.7,2.52,2.52,0,0,0-.81,1,3.07,3.07,0,0,0-.24,1.21,3,3,0,0,0,.59,2A2.21,2.21,0,0,0,165.66,567.66Z"/><path class="cls-2" d="M175.72,570.15v-2l2.13-.29V548.34l-2.19-.37v-1.71l5.73-.72h.05l.92.69v21.66l2.21.29v2Z"/><path class="cls-2" d="M188.14,566.63V555.85h-2.06v-1.67l.37-.12.53-.2.49-.2a1.36,1.36,0,0,0,.28-.14,4.54,4.54,0,0,0,1-1.4c.1-.2.2-.43.32-.69s.23-.53.35-.81.21-.56.31-.84.18-.53.25-.76h2.61l0,4.34H197v2.49h-4.31V564c0,.78,0,1.4,0,1.86a3.48,3.48,0,0,0,.17,1,.75.75,0,0,0,.44.45,2.44,2.44,0,0,0,.8.1h0a4.91,4.91,0,0,0,.74-.06c.25,0,.51-.08.76-.13l.69-.18.52-.17h0l.69,1.71a7.26,7.26,0,0,1-1.08.68,10.71,10.71,0,0,1-1.4.61,13.4,13.4,0,0,1-1.63.44,9.1,9.1,0,0,1-1.72.16h0a5,5,0,0,1-1.65-.24,2.71,2.71,0,0,1-1.1-.74,3.21,3.21,0,0,1-.61-1.21A6.83,6.83,0,0,1,188.14,566.63Z"/><path class="cls-2" d="M198.76,570.15v-2l1.81-.29V548.34l-2.2-.37v-1.71l5.7-.72h.07l.89.69,0,6.9-.23,2.33a7.44,7.44,0,0,1,1-.78,8.89,8.89,0,0,1,1.34-.76,10.39,10.39,0,0,1,1.63-.57,7.55,7.55,0,0,1,1.87-.22,6.18,6.18,0,0,1,2.37.39,3.31,3.31,0,0,1,1.49,1.22,5.49,5.49,0,0,1,.77,2.07,16.07,16.07,0,0,1,.23,3v8.11l2.07.29v2h-8.21v-1.91l1.63-.32v-8.19a12.82,12.82,0,0,0-.1-1.75,3.25,3.25,0,0,0-.39-1.21,1.71,1.71,0,0,0-.79-.69,3.22,3.22,0,0,0-1.3-.23,4.33,4.33,0,0,0-.93.1,8.59,8.59,0,0,0-.94.26,7.81,7.81,0,0,0-.84.35,4.77,4.77,0,0,0-.66.4v10.93l2,.29v2Z"/><path class="cls-2" d="M223.12,570.4a3.24,3.24,0,0,1-1-.16,2.66,2.66,0,0,1-.82-.47,2.26,2.26,0,0,1-.76-1.72,2.5,2.5,0,0,1,.24-1.1,2.7,2.7,0,0,1,.64-.89,3,3,0,0,1,.95-.59,3.19,3.19,0,0,1,1.16-.22,3.39,3.39,0,0,1,1.22.2,2.08,2.08,0,0,1,.81.51,1.8,1.8,0,0,1,.45.75,2.93,2.93,0,0,1,.14.9,2.88,2.88,0,0,1-.22,1.15,2.76,2.76,0,0,1-1.6,1.44A3.78,3.78,0,0,1,223.12,570.4Z"/></svg>