<svg xmlns="http://www.w3.org/2000/svg" viewBox="0 0 618.36 150.52"><defs><style>.cls-1{fill:#e87824;}.cls-2{fill:#d4262f;}.cls-3{fill:#f1b533;}.cls-4{fill:#fff;}</style></defs><g id="Layer_2" data-name="Layer 2"><g id="Layer_1-2" data-name="Layer 1"><path class="cls-1" d="M80.29,3.53l-22,22a2.11,2.11,0,0,1-1.62.59V40.23a2,2,0,0,0,1.13-.56L80,17.44a2.08,2.08,0,0,1,1.59-.59V2.94a2.09,2.09,0,0,0-1.37.59"/><path class="cls-1" d="M110.63,36H79.53A2.11,2.11,0,0,1,78,35.24L67.59,44.83a2,2,0,0,0,1.6.77h31.44a2.07,2.07,0,0,1,1.48.63l10-9.67a2.09,2.09,0,0,0-1.45-.6"/><path class="cls-1" d="M109.18,80.32l-22-22a2,2,0,0,1-.55-1.91H72.42a2,2,0,0,0,.6,1.44L95.26,80.08a2.13,2.13,0,0,1,.6,1.45h13.86a1.91,1.91,0,0,0-.57-1.21"/><path class="cls-1" d="M67.09,69.21v31.43a2,2,0,0,1-.7,1.53L76.2,112a2.07,2.07,0,0,0,.53-1.38V79.56a2.07,2.07,0,0,1,.51-1.34L67.69,67.74a2,2,0,0,0-.6,1.46"/><path class="cls-1" d="M54.84,73.05,32.61,95.28a2,2,0,0,1-1.35.59v13.87a2,2,0,0,0,1.12-.57l22-22a2,2,0,0,1,1.52-.59V72.48a2.16,2.16,0,0,0-1.06.57"/><path class="cls-1" d="M43.49,67.11H12a2.06,2.06,0,0,1-1.54-.7L.67,76.23a2.13,2.13,0,0,0,1.38.54H33.18a2.05,2.05,0,0,1,1.47.62l10.24-9.76a2.08,2.08,0,0,0-1.36-.52"/><path class="cls-1" d="M40.23,56.18a2.06,2.06,0,0,0-.59-1.3L17.42,32.63a2.09,2.09,0,0,1-.48-2.18H3a2,2,0,0,0,.53,1.95l22,22a2.06,2.06,0,0,1,.57,1.8H40.25"/><path class="cls-1" d="M45.59,43.5V12.07a2,2,0,0,1,.75-1.57L36.51.65a2,2,0,0,0-.58,1.42v31.1a2.07,2.07,0,0,1-.53,1.38l9.66,10.31a2.07,2.07,0,0,0,.53-1.36"/><path class="cls-2" d="M55.39,25.52l-3.78-3.78c-.8-.8-1.46-.53-1.46.61V32.84a5.73,5.73,0,0,0,1.46,3.52l3.29,3.3a2.09,2.09,0,0,0,1.8.56V26.11a2,2,0,0,1-1.31-.59"/><path class="cls-2" d="M77.46,33.89V28.54c0-1.14-.66-1.41-1.45-.6l-7.42,7.41a5.7,5.7,0,0,0-1.46,3.53v4.66a2,2,0,0,0,.46,1.29L78,35.24a2.1,2.1,0,0,1-.51-1.35"/><path class="cls-2" d="M87.18,55.4,91,51.61c.8-.8.53-1.45-.6-1.45H79.85a5.77,5.77,0,0,0-3.53,1.45L73,54.92a2.08,2.08,0,0,0-.6,1.49H86.61a1.94,1.94,0,0,1,.55-1"/><path class="cls-2" d="M84.74,76l-7.4-7.43a5.76,5.76,0,0,0-3.52-1.46H69.18a2.06,2.06,0,0,0-1.46.61l9.55,10.47a2.07,2.07,0,0,1,1.57-.73h5.34c1.13,0,1.41-.66.6-1.46"/><path class="cls-2" d="M61.06,76.33l-3.28-3.28a2.14,2.14,0,0,0-1.88-.57V86.59a2.16,2.16,0,0,1,1.4.59L61.07,91c.8.8,1.46.53,1.46-.6V79.86a5.71,5.71,0,0,0-1.47-3.53"/><path class="cls-2" d="M44.85,67.63,34.61,77.39a2,2,0,0,1,.6,1.45v5.31c0,1.13.66,1.4,1.47.6l7.41-7.4a5.71,5.71,0,0,0,1.47-3.53V69.18a2.06,2.06,0,0,0-.71-1.55"/><path class="cls-2" d="M26.08,56.18a2.11,2.11,0,0,1-.57,1.12l-3.76,3.77c-.81.81-.54,1.47.6,1.47H32.83a5.71,5.71,0,0,0,3.53-1.47l3.28-3.27a2,2,0,0,0,.59-1.62H26.08"/><path class="cls-2" d="M35.4,34.55a2.05,2.05,0,0,1-1.54.69H28.52c-1.13,0-1.4.65-.6,1.46l7.42,7.4a5.77,5.77,0,0,0,3.53,1.45h4.65a2.05,2.05,0,0,0,1.54-.69L35.4,34.55"/><path class="cls-3" d="M107.11,27.44,83.18,3.53a2,2,0,0,0-1.55-.59v13.9a2.09,2.09,0,0,1,1.33.59l10,10a5.73,5.73,0,0,0,3.52,1.46h10c1.14,0,1.41-.66.61-1.46"/><path class="cls-3" d="M112.08,36.56l-10,9.67a2.08,2.08,0,0,1,.59,1.45V61.85a5.55,5.55,0,0,0,1.51,3.49l7,6.77c.82.8,1.49.51,1.49-.63V38a2.08,2.08,0,0,0-.61-1.47"/><path class="cls-3" d="M95.86,81.53a2.05,2.05,0,0,1-.6,1.48l-10,10a5.76,5.76,0,0,0-1.47,3.54v10c0,1.14.65,1.41,1.46.6l23.93-23.9a2,2,0,0,0,.57-1.72H95.86"/><path class="cls-3" d="M65,102.74H50.86a5.58,5.58,0,0,0-3.5,1.49l-6.79,7c-.79.83-.51,1.49.63,1.49H74.67A2,2,0,0,0,76.2,112l-9.81-9.84a2,2,0,0,1-1.37.54"/><path class="cls-3" d="M29.68,95.28l-10-10a5.86,5.86,0,0,0-3.5-1.54H6.08c-1.14,0-1.41.65-.61,1.45l24,24a2,2,0,0,0,1.79.57V95.87a2,2,0,0,1-1.58-.59"/><path class="cls-3" d="M10,65.05V50.87a5.6,5.6,0,0,0-1.49-3.51l-7-6.77C.66,39.8,0,40.08,0,41.21V74.74a2.05,2.05,0,0,0,.68,1.52l9.83-9.82A2,2,0,0,1,10,65.08"/><path class="cls-3" d="M17.42,29.74l10-10a5.64,5.64,0,0,0,1.43-3.51l-.17-9.79c0-1.13-.7-1.4-1.49-.6L3.53,29.52a2,2,0,0,0-.53,1H16.94a2,2,0,0,1,.48-.74"/><path class="cls-3" d="M71.48,0H38a2.07,2.07,0,0,0-1.49.65l9.83,9.85a2,2,0,0,1,1.32-.5H61.82a5.64,5.64,0,0,0,3.5-1.48l6.79-7C72.89.7,72.62,0,71.48,0"/><path class="cls-3" d="M107.79,103a4.84,4.84,0,1,1,0,9.68h0a4.84,4.84,0,1,1,0-9.68h0m-.1,1.1a3.74,3.74,0,1,0,3.62,3.86v-.12a3.62,3.62,0,0,0-3.48-3.74Zm-.62,6.13h-1.29v-4.63a9.43,9.43,0,0,1,1.91-.17,2.76,2.76,0,0,1,1.73.37,1.1,1.1,0,0,1,.49,1,1.24,1.24,0,0,1-1,1.08V108a1.4,1.4,0,0,1,.89,1.18,4.93,4.93,0,0,0,.32,1.12h-1.38a3.69,3.69,0,0,1-.35-1.08.74.74,0,0,0-.79-.69h-.52Zm0-2.64h.47c.54,0,.94-.21.94-.64s-.27-.64-.89-.64h-.52Z"/><path class="cls-4" d="M164.55,71.8c-11.3,0-18-7.12-18-18.44,0-12.66,7.88-18.77,17.9-18.77a27.24,27.24,0,0,1,10.73,2.08l2.68-10c-2.26-1.17-7.28-2.51-13.89-2.51-17.07,0-30.79,10.63-30.79,29.93,0,16.18,10,28.41,29.54,28.41,6.77,0,12.13-1.35,14.38-2.44L175.26,70a30.33,30.33,0,0,1-10.71,1.84"/><path class="cls-4" d="M200,39.61c-13.23,0-21.92,8.47-21.92,21.71s9.21,21.12,21.13,21.12h.08c10.88,0,21.51-6.88,21.51-21.79,0-12.41-8.37-21-20.83-21m-.51,33.68h-.09c-5.34,0-8.28-5.26-8.28-12.22,0-6.11,2.34-12.33,8.37-12.33,5.78,0,8.12,6.22,8.12,12.25,0,7.33-3.07,12.26-8.09,12.26Z"/><path class="cls-4" d="M322.46,39.61a15.61,15.61,0,0,0-7.76,2,17.89,17.89,0,0,0-5.36,5h-.16c-1.73-4.3-5.84-7-11.21-7a14.16,14.16,0,0,0-12.37,6.55l-.75.89A12.4,12.4,0,0,0,273,39.61a15.71,15.71,0,0,0-7.78,2,17.89,17.89,0,0,0-5.36,5h-.16c-1.75-4.3-5.86-7-11.21-7a14.19,14.19,0,0,0-12.39,6.55h-.24l-.51-5.63H224.56c.17,3.69.33,8,.33,13.08V81.52h12.39V57.74a8.83,8.83,0,0,1,.5-3.26,6.5,6.5,0,0,1,5.94-4.54c4.1,0,6,3.53,6,8.63v23H262.1v-24a13.67,13.67,0,0,1,.41-3.19,6.32,6.32,0,0,1,5.93-4.44c3.81,0,5.71,3,6,8.11V81.54h12.44V56.68a6.78,6.78,0,0,1,.47-2.22c.75-2,2.68-4.54,5.93-4.54,4.1,0,5.93,3.53,5.93,8.63v23H311.6v-24a12.71,12.71,0,0,1,.43-3.19A6.32,6.32,0,0,1,318,49.92c4.11,0,6,3.43,6,9.39V81.52h12.33V57.38c0-12.23-5.94-17.77-13.82-17.77"/><path class="cls-4" d="M379.53,40.53H366.81v24.4a7.1,7.1,0,0,1-6.87,7.2c-4.52,0-6.44-3.61-6.44-9.53V40.53H340.79V64.6c0,12.62,6,17.84,14.39,17.84a14.62,14.62,0,0,0,12.8-6.7h.2l.6,5.77h11c-.16-3.44-.32-7.79-.32-13.16V40.53"/><path class="cls-4" d="M408.94,39.61a14.67,14.67,0,0,0-12.62,6.62h-.27l-.57-5.7h-11c.16,3.69.35,8,.35,13.08V81.52h12.7V57.88A9.26,9.26,0,0,1,398,54.7a7,7,0,0,1,6.53-4.78c4.61,0,6.44,3.61,6.44,8.9v22.7h12.7V57.3c0-12.08-6.26-17.69-14.63-17.69"/><path class="cls-4" d="M435.18,21.6c-4.37,0-7.2,2.93-7.2,6.78a6.67,6.67,0,0,0,6.51,6.81h.57c4.45,0,7.2-3,7.2-6.8a6.66,6.66,0,0,0-6.52-6.79,5.42,5.42,0,0,0-.57,0"/><path class="cls-4" d="M503.26,40.53l-5,20.12c-.62,2.36-1.29,5.43-1.86,7.63h-.22c-.52-2.2-1.35-5.21-2-7.63l-6.11-20.12h-24V29.39l-12.46,3.44v7.7H428.75v41h12.7V49.93h10.19V66.74c0,5.79,1.16,9.74,3.5,12.15a13.6,13.6,0,0,0,9.64,3.53A26.41,26.41,0,0,0,473,81.33l-.08-9.63a17,17,0,0,1-3.77.33c-3.77,0-5-2.25-5-7.21V49.92h13.55L489,78a5.61,5.61,0,0,1,.49,2.09,3.57,3.57,0,0,1-.65,1.86,14.69,14.69,0,0,1-5.28,5.11A19.91,19.91,0,0,1,478,89.22L480.69,100A22.38,22.38,0,0,0,493,94.34c4.61-4.11,8.54-10.58,14.38-26.82l9.54-27H503.26"/><polyline class="cls-4" points="232.37 108.86 232.37 125.27 249.69 125.27 249.69 108.86 257.17 108.86 257.17 149.83 249.69 149.83 249.69 131.77 232.37 131.77 232.37 149.83 224.89 149.83 224.89 108.86 232.37 108.86"/><path class="cls-4" d="M269.39,137.13c.18,5.35,4.31,7.65,9.12,7.65a24.4,24.4,0,0,0,8.21-1.33l1.09,5.11a26.86,26.86,0,0,1-10.33,1.87c-9.61,0-15.26-5.89-15.26-15,0-8.21,5-15.92,14.47-15.92s12.76,7.9,12.76,14.39a18.84,18.84,0,0,1-.24,3.18H269.39m13-5.24c.06-2.73-1.16-7.23-6.15-7.23-4.61,0-6.57,4.19-6.87,7.23Z"/><path class="cls-4" d="M317.33,142.74a39.36,39.36,0,0,0,.49,7.11h-6.74l-.56-3.29h-.17a10.83,10.83,0,0,1-8.76,3.95c-5.95,0-9.3-4.31-9.3-8.81,0-7.42,6.62-11.24,17.57-11.18V130c0-1.95-.79-5.16-6-5.16a15.74,15.74,0,0,0-8,2.18l-1.45-4.86a21.38,21.38,0,0,1,10.7-2.61c9.48,0,12.21,6,12.21,12.51v10.65M310,135.38c-5.28-.07-10.33,1-10.33,5.53a3.92,3.92,0,0,0,3.56,4.25,4,4,0,0,0,.69,0,6.14,6.14,0,0,0,5.9-4.07,5,5,0,0,0,.18-1.64Z"/><rect class="cls-4" x="324.01" y="106.67" width="7.49" height="43.16"/><path class="cls-4" d="M347,112.62v7.6h7.11v5.6H347v13.06c0,3.65,1,5.47,3.82,5.47a10,10,0,0,0,2.93-.3l.12,5.66a16.59,16.59,0,0,1-5.42.78,8.54,8.54,0,0,1-6.43-2.42c-1.65-1.71-2.38-4.44-2.38-8.34V125.82h-4.19v-5.6h4.19v-5.48l7.36-2.07"/><path class="cls-4" d="M358.53,106.67H366v17.56h.17a9.8,9.8,0,0,1,3.7-3.33,10.52,10.52,0,0,1,5.17-1.34c5,0,10.34,3.33,10.34,12.82v17.45h-7.48V133.17c0-4.25-1.59-7.53-5.71-7.53a6.24,6.24,0,0,0-5.84,4.19,6.77,6.77,0,0,0-.3,2.24v17.76h-7.48V106.67"/><path class="cls-4" d="M403.68,149.83v-41h8.57l10.58,17.57a118.15,118.15,0,0,1,7,13.73H430a166.36,166.36,0,0,1-.67-17V108.86h6.89v41h-7.79l-10.67-18.12a141.31,141.31,0,0,1-7.29-14.1l-.25.1c.31,5.29.43,10.7.43,17.44v14.66h-6.93"/><path class="cls-4" d="M448.59,137.13c.19,5.35,4.32,7.65,9.13,7.65a24.25,24.25,0,0,0,8.19-1.33l1.11,5.11a27.06,27.06,0,0,1-10.34,1.87c-9.6,0-15.26-5.89-15.26-15,0-8.21,5-15.92,14.47-15.92s12.77,7.9,12.77,14.39a18.77,18.77,0,0,1-.25,3.18H448.59m13-5.24c.06-2.73-1.15-7.23-6.14-7.23-4.62,0-6.56,4.19-6.87,7.23Z"/><path class="cls-4" d="M482,112.62v7.6h7.16v5.6h-7.11v13.06c0,3.65,1,5.47,3.83,5.47a9.84,9.84,0,0,0,2.91-.3l.13,5.66a16.57,16.57,0,0,1-5.41.78,8.6,8.6,0,0,1-6.45-2.42c-1.64-1.71-2.36-4.44-2.36-8.34V125.82h-4.2v-5.6h4.2v-5.48l7.35-2.07"/><path class="cls-4" d="M498.49,120.22l3,13.44c.74,3.16,1.41,6.38,1.95,9.6h.13c.6-3.22,1.57-6.49,2.36-9.55l3.89-13.49h6.08l3.72,13.14c.9,3.46,1.69,6.68,2.36,9.9h.2c.43-3.22,1.16-6.44,1.94-9.9l3.29-13.14h7.35l-9.3,29.61h-6.92l-3.53-12a90.66,90.66,0,0,1-2.25-9.48h-.12a90.66,90.66,0,0,1-2.25,9.48l-3.77,12h-7l-8.75-29.61h7.66"/><path class="cls-4" d="M565.65,134.74c0,10.88-7.66,15.74-15.2,15.74-8.33,0-14.83-5.71-14.83-15.26,0-9.72,6.38-15.67,15.31-15.67s14.72,6.19,14.72,15.19m-22.31.3c0,5.72,2.86,10,7.35,10,4.26,0,7.24-4.13,7.24-10.15,0-4.61-2.07-10-7.18-10-5.28.08-7.41,5.24-7.41,10.16Z"/><path class="cls-4" d="M570.29,129.74c0-4-.06-6.93-.24-9.55h6.45l.3,5.6H577a8.85,8.85,0,0,1,8.14-6.26,8.11,8.11,0,0,1,1.77.17v7a12.14,12.14,0,0,0-2.25-.19,6.59,6.59,0,0,0-6.68,5.66,14,14,0,0,0-.18,2.24V149.8h-7.49V129.74"/><path class="cls-4" d="M598.18,133.24h.12c.73-1.17,1.59-2.44,2.31-3.47l7.24-9.55h9l-11,12.1,12.51,17.51h-9.18l-8.49-13.09-2.5,3v10.1h-7.47V106.67h7.46v26.57"/></g></g></svg>