<svg id="Layer_1" data-name="Layer 1" xmlns="http://www.w3.org/2000/svg" viewBox="0 0 300 250"><defs><style>.cls-1{fill:#435563;}.cls-2{opacity:0.05;}.cls-3{fill:#fff;}.cls-4{fill:#e87824;}.cls-5{fill:#d4262f;}.cls-6{fill:#f1b533;}.cls-7{fill:none;stroke:#f1b533;stroke-miterlimit:10;}</style></defs><rect class="cls-1" width="300" height="250"/><g class="cls-2"><polygon class="cls-3" points="5.88 0 8.14 0 7.01 1.15 5.88 0"/><polygon class="cls-3" points="20.18 0 22.44 0 21.31 1.15 20.18 0"/><polygon class="cls-3" points="34.48 0 36.74 0 35.61 1.15 34.48 0"/><polygon class="cls-3" points="48.77 0 51.03 0 49.9 1.15 48.77 0"/><polygon class="cls-3" points="63.07 0 65.33 0 64.2 1.15 63.07 0"/><polygon class="cls-3" points="77.37 0 79.63 0 78.5 1.15 77.37 0"/><polygon class="cls-3" points="91.67 0 93.93 0 92.8 1.15 91.67 0"/><polygon class="cls-3" points="105.97 0 108.23 0 107.1 1.15 105.97 0"/><polygon class="cls-3" points="120.27 0 122.53 0 121.4 1.15 120.27 0"/><polygon class="cls-3" points="134.57 0 136.83 0 135.7 1.15 134.57 0"/><polygon class="cls-3" points="148.87 0 151.13 0 150 1.15 148.87 0"/><polygon class="cls-3" points="163.17 0 165.43 0 164.3 1.15 163.17 0"/><polygon class="cls-3" points="177.47 0 179.73 0 178.6 1.15 177.47 0"/><polygon class="cls-3" points="191.77 0 194.03 0 192.9 1.15 191.77 0"/><polygon class="cls-3" points="206.07 0 208.33 0 207.2 1.15 206.07 0"/><polygon class="cls-3" points="220.37 0 222.63 0 221.5 1.15 220.37 0"/><polygon class="cls-3" points="234.67 0 236.93 0 235.8 1.15 234.67 0"/><polygon class="cls-3" points="248.97 0 251.23 0 250.1 1.15 248.97 0"/><polygon class="cls-3" points="263.26 0 265.52 0 264.39 1.15 263.26 0"/><polygon class="cls-3" points="277.56 0 279.82 0 278.69 1.15 277.56 0"/><polygon class="cls-3" points="294.12 0 292.99 1.15 291.86 0 294.12 0"/><polygon class="cls-3" points="300 1.29 300 8.58 292.99 15.72 285.84 8.44 278.69 15.72 271.54 8.44 264.39 15.72 257.24 8.44 250.1 15.72 242.95 8.44 235.8 15.72 228.65 8.44 221.5 15.72 214.35 8.44 207.2 15.72 200.05 8.44 192.9 15.72 185.75 8.44 178.6 15.72 171.45 8.44 164.3 15.72 157.15 8.44 150 15.72 142.85 8.44 139.28 12.08 135.7 15.72 132.13 12.08 128.55 8.44 121.4 15.72 114.25 8.44 107.1 15.72 99.95 8.44 92.8 15.72 85.65 8.44 78.5 15.72 71.35 8.44 64.2 15.72 57.05 8.44 49.9 15.72 42.76 8.44 35.61 15.72 28.46 8.44 21.31 15.72 14.16 8.44 7.01 15.72 0 8.58 0 1.29 7.01 8.44 14.16 1.15 21.31 8.44 28.46 1.15 35.61 8.44 42.76 1.15 49.9 8.44 57.05 1.15 64.2 8.44 71.35 1.15 78.5 8.44 85.65 1.15 92.8 8.44 99.95 1.15 107.1 8.44 114.25 1.15 121.4 8.44 128.55 1.15 135.7 8.44 142.85 1.15 150 8.44 157.15 1.15 164.3 8.44 171.45 1.15 178.6 8.44 185.75 1.15 192.9 8.44 200.05 1.15 207.2 8.44 214.35 1.15 221.5 8.44 228.65 1.15 235.8 8.44 242.95 1.15 250.1 8.44 257.24 1.15 264.39 8.44 271.54 1.15 278.69 8.44 285.84 1.15 292.99 8.44 300 1.29"/><polygon class="cls-3" points="300 15.86 300 23.15 292.99 30.29 285.84 23.01 278.69 30.29 271.54 23.01 264.39 30.29 257.24 23.01 250.1 30.29 242.95 23.01 235.8 30.29 228.65 23.01 221.5 30.29 214.35 23.01 207.2 30.29 200.05 23.01 192.9 30.29 185.75 23.01 178.6 30.29 171.45 23.01 164.3 30.29 157.15 23.01 150 30.29 142.85 23.01 139.28 26.65 135.7 30.29 128.55 23.01 121.4 30.29 114.25 23.01 107.1 30.29 99.95 23.01 92.8 30.29 85.65 23.01 78.5 30.29 71.35 23.01 64.2 30.29 57.05 23.01 49.9 30.29 42.76 23.01 35.61 30.29 28.46 23.01 21.31 30.29 14.16 23.01 7.01 30.29 0 23.15 0 15.86 7.01 23.01 14.16 15.72 21.31 23.01 28.46 15.72 35.61 23.01 42.76 15.72 49.9 23.01 57.05 15.72 64.2 23.01 71.35 15.72 78.5 23.01 85.65 15.72 92.8 23.01 99.95 15.72 107.1 23.01 114.25 15.72 121.4 23.01 128.55 15.72 135.7 23.01 142.85 15.72 150 23.01 157.15 15.72 164.3 23.01 171.45 15.72 178.6 23.01 185.75 15.72 192.9 23.01 200.05 15.72 207.2 23.01 214.35 15.72 221.5 23.01 228.65 15.72 235.8 23.01 242.95 15.72 250.1 23.01 257.24 15.72 264.39 23.01 271.54 15.72 278.69 23.01 285.84 15.72 292.99 23.01 300 15.86"/><polygon class="cls-3" points="300 30.43 300 37.72 292.99 44.86 285.84 37.58 278.69 44.86 271.54 37.58 264.39 44.86 257.24 37.58 250.1 44.86 242.95 37.58 235.8 44.86 228.65 37.58 221.5 44.86 214.35 37.58 207.2 44.86 200.05 37.58 192.9 44.86 185.75 37.58 178.6 44.86 171.45 37.58 164.3 44.86 157.15 37.58 150 44.86 142.85 37.58 139.28 41.22 135.7 44.86 128.55 37.58 121.4 44.86 114.25 37.58 107.1 44.86 99.95 37.58 92.8 44.86 85.65 37.58 78.5 44.86 71.35 37.58 64.2 44.86 57.05 37.58 49.9 44.86 42.76 37.58 35.61 44.86 28.46 37.58 21.31 44.86 14.16 37.58 7.01 44.86 0 37.72 0 30.43 7.01 37.58 14.16 30.29 21.31 37.58 28.46 30.29 35.61 37.58 42.76 30.29 49.9 37.58 57.05 30.29 64.2 37.58 71.35 30.29 78.5 37.58 85.65 30.29 92.8 37.58 99.95 30.29 107.1 37.58 114.25 30.29 121.4 37.58 128.55 30.29 135.7 37.58 142.85 30.29 150 37.58 157.15 30.29 164.3 37.58 171.45 30.29 178.6 37.58 185.75 30.29 192.9 37.58 200.05 30.29 207.2 37.58 214.35 30.29 221.5 37.58 228.65 30.29 235.8 37.58 242.95 30.29 250.1 37.58 257.24 30.29 264.39 37.58 271.54 30.29 278.69 37.58 285.84 30.29 292.99 37.58 300 30.43"/><polygon class="cls-3" points="300 45 300 52.29 292.99 59.43 285.84 52.15 278.69 59.43 271.54 52.15 264.39 59.43 257.24 52.15 250.1 59.43 242.95 52.15 235.8 59.43 228.65 52.15 221.5 59.43 214.35 52.15 207.2 59.43 200.05 52.15 192.9 59.43 185.75 52.15 178.6 59.43 171.45 52.15 164.3 59.43 157.15 52.15 150 59.43 142.85 52.15 139.28 55.79 135.7 59.43 132.13 55.79 128.55 52.15 121.4 59.43 114.25 52.15 107.1 59.43 99.95 52.15 92.8 59.43 85.65 52.15 78.5 59.43 71.35 52.15 64.2 59.43 57.05 52.15 49.9 59.43 42.76 52.15 35.61 59.43 28.46 52.15 21.31 59.43 14.16 52.15 7.01 59.43 0 52.29 0 45 7.01 52.15 14.16 44.86 21.31 52.15 28.46 44.86 35.61 52.15 42.76 44.86 49.9 52.15 57.05 44.86 64.2 52.15 71.35 44.86 78.5 52.15 85.65 44.86 92.8 52.15 99.95 44.86 107.1 52.15 114.25 44.86 121.4 52.15 128.55 44.86 135.7 52.15 142.85 44.86 150 52.15 157.15 44.86 164.3 52.15 171.45 44.86 178.6 52.15 185.75 44.86 192.9 52.15 200.05 44.86 207.2 52.15 214.35 44.86 221.5 52.15 228.65 44.86 235.8 52.15 242.95 44.86 250.1 52.15 257.24 44.86 264.39 52.15 271.54 44.86 278.69 52.15 285.84 44.86 292.99 52.15 300 45"/><polygon class="cls-3" points="300 59.57 300 66.86 292.99 74 285.84 66.72 278.69 74 271.54 66.72 264.39 74 257.24 66.72 250.1 74 242.95 66.72 235.8 74 228.65 66.72 221.5 74 214.35 66.72 207.2 74 200.05 66.72 192.9 74 185.75 66.72 178.6 74 171.45 66.72 164.3 74 157.15 66.72 150 74 142.85 66.72 139.28 70.36 135.7 74 132.13 70.36 128.55 66.72 121.4 74 114.25 66.72 107.1 74 99.95 66.72 92.8 74 85.65 66.72 78.5 74 71.35 66.72 64.2 74 57.05 66.72 49.9 74 42.76 66.72 35.61 74 28.46 66.72 21.31 74 14.16 66.72 7.01 74 0 66.86 0 59.57 7.01 66.72 14.16 59.43 21.31 66.72 28.46 59.43 35.61 66.72 42.76 59.43 49.9 66.72 57.05 59.43 64.2 66.72 71.35 59.43 78.5 66.72 85.65 59.43 92.8 66.72 99.95 59.43 107.1 66.72 114.25 59.43 121.4 66.72 128.55 59.43 135.7 66.72 142.85 59.43 150 66.72 157.15 59.43 164.3 66.72 171.45 59.43 178.6 66.72 185.75 59.43 192.9 66.72 200.05 59.43 207.2 66.72 214.35 59.43 221.5 66.72 228.65 59.43 235.8 66.72 242.95 59.43 250.1 66.72 257.24 59.43 264.39 66.72 271.54 59.43 278.69 66.72 285.84 59.43 292.99 66.72 300 59.57"/><polygon class="cls-3" points="300 74.14 300 81.43 292.99 88.57 285.84 81.29 278.69 88.57 271.54 81.29 264.39 88.57 257.24 81.29 250.1 88.57 242.95 81.29 235.8 88.57 228.65 81.29 221.5 88.57 214.35 81.29 207.2 88.57 200.05 81.29 192.9 88.57 185.75 81.29 178.6 88.57 171.45 81.29 164.3 88.57 157.15 81.29 150 88.57 142.85 81.29 139.28 84.93 135.7 88.57 128.55 81.29 121.4 88.57 114.25 81.29 107.1 88.57 99.95 81.29 92.8 88.57 85.65 81.29 78.5 88.57 71.35 81.29 64.2 88.57 57.05 81.29 49.9 88.57 42.76 81.29 35.61 88.57 28.46 81.29 21.31 88.57 14.16 81.29 7.01 88.57 0 81.43 0 74.14 7.01 81.29 14.16 74 21.31 81.29 28.46 74 35.61 81.29 42.76 74.01 49.9 81.29 57.05 74 64.2 81.29 71.35 74 78.5 81.29 85.65 74.01 92.8 81.29 99.95 74 107.1 81.29 114.25 74.01 121.4 81.29 128.55 74 135.7 81.29 142.85 74.01 150 81.29 157.15 74 164.3 81.29 171.45 74.01 178.6 81.29 185.75 74 192.9 81.29 200.05 74.01 207.2 81.29 214.35 74 221.5 81.29 228.65 74 235.8 81.29 242.95 74 250.1 81.29 257.24 74 264.39 81.29 271.54 74 278.69 81.29 285.84 74.01 292.99 81.29 300 74.14"/><polygon class="cls-3" points="300 88.71 300 96 292.99 103.14 285.84 95.86 278.69 103.14 271.54 95.86 264.39 103.14 257.24 95.86 250.1 103.14 242.95 95.86 235.8 103.14 228.65 95.86 221.5 103.14 214.35 95.86 207.2 103.14 200.05 95.86 192.9 103.14 185.75 95.86 178.6 103.14 171.45 95.86 164.3 103.14 157.15 95.86 150 103.14 142.85 95.86 139.28 99.5 135.7 103.14 128.55 95.86 121.4 103.14 114.25 95.86 107.1 103.14 99.95 95.86 92.8 103.14 85.65 95.86 78.5 103.14 71.35 95.86 64.2 103.14 57.05 95.86 49.9 103.14 42.76 95.86 35.61 103.14 28.46 95.86 21.31 103.14 14.16 95.86 7.01 103.14 0 96 0 88.71 7.01 95.86 14.16 88.57 21.31 95.86 28.46 88.57 35.61 95.86 42.76 88.58 49.9 95.86 57.05 88.57 64.2 95.86 71.35 88.57 78.5 95.86 85.65 88.57 92.8 95.86 99.95 88.57 107.1 95.86 114.25 88.57 121.4 95.86 128.55 88.57 135.7 95.86 142.85 88.57 150 95.86 157.15 88.57 164.3 95.86 171.45 88.57 178.6 95.86 185.75 88.57 192.9 95.86 200.05 88.57 207.2 95.86 214.35 88.57 221.5 95.86 228.65 88.57 235.8 95.86 242.95 88.57 250.1 95.86 257.24 88.57 264.39 95.86 271.54 88.57 278.69 95.86 285.84 88.58 292.99 95.86 300 88.71"/><polygon class="cls-3" points="300 103.28 300 110.57 292.99 117.71 285.84 110.43 278.69 117.71 271.54 110.43 264.39 117.71 257.24 110.43 250.1 117.71 242.95 110.43 235.8 117.71 228.65 110.43 221.5 117.71 214.35 110.43 207.2 117.71 200.05 110.43 192.9 117.71 185.75 110.43 178.6 117.71 171.45 110.43 164.3 117.71 157.15 110.43 150 117.71 142.85 110.43 139.28 114.07 135.7 117.71 132.13 114.07 128.55 110.43 121.4 117.71 114.25 110.43 107.1 117.71 99.95 110.43 92.8 117.71 85.65 110.43 78.5 117.71 71.35 110.43 64.2 117.71 57.05 110.43 49.9 117.71 42.76 110.43 35.61 117.71 28.46 110.43 21.31 117.71 14.16 110.43 7.01 117.71 0 110.57 0 103.28 7.01 110.43 14.16 103.14 21.31 110.43 28.46 103.14 35.61 110.43 42.76 103.15 49.9 110.43 57.05 103.14 64.2 110.43 71.35 103.14 78.5 110.43 85.65 103.15 92.8 110.43 99.95 103.14 107.1 110.43 114.25 103.15 121.4 110.43 128.55 103.14 135.7 110.43 142.85 103.15 150 110.43 157.15 103.14 164.3 110.43 171.45 103.15 178.6 110.43 185.75 103.14 192.9 110.43 200.05 103.15 207.2 110.43 214.35 103.14 221.5 110.43 228.65 103.14 235.8 110.43 242.95 103.14 250.1 110.43 257.24 103.14 264.39 110.43 271.54 103.14 278.69 110.43 285.84 103.15 292.99 110.43 300 103.28"/><polygon class="cls-3" points="300 117.85 300 125.14 292.99 132.28 285.84 125 278.69 132.28 271.54 125 264.39 132.28 257.24 125 250.1 132.28 242.95 125 235.8 132.28 228.65 125 221.5 132.28 214.35 125 207.2 132.28 200.05 125 192.9 132.28 185.75 125 178.6 132.28 171.45 125 164.3 132.28 157.15 125 150 132.28 142.85 125 139.28 128.64 135.7 132.28 128.55 125 121.4 132.28 114.25 125 107.1 132.28 99.95 125 92.8 132.28 85.65 125 78.5 132.28 71.35 125 64.2 132.28 57.05 125 49.9 132.28 42.76 125 35.61 132.28 28.46 125 21.31 132.28 14.16 125 7.01 132.28 0 125.14 0 117.85 7.01 125 14.16 117.71 21.31 125 28.46 117.71 35.61 125 42.76 117.71 49.9 125 57.05 117.71 64.2 125 71.35 117.71 78.5 125 85.65 117.71 92.8 125 99.95 117.71 107.1 125 114.25 117.71 121.4 125 128.55 117.71 135.7 125 142.85 117.71 150 125 157.15 117.71 164.3 125 171.45 117.71 178.6 125 185.75 117.71 192.9 125 200.05 117.71 207.2 125 214.35 117.71 221.5 125 228.65 117.71 235.8 125 242.95 117.71 250.1 125 257.24 117.71 264.39 125 271.54 117.71 278.69 125 285.84 117.71 292.99 125 300 117.85"/><polygon class="cls-3" points="300 132.42 300 139.71 292.99 146.85 285.84 139.57 278.69 146.85 271.54 139.57 264.39 146.85 257.24 139.57 250.1 146.85 242.95 139.57 235.8 146.85 228.65 139.57 221.5 146.85 214.35 139.57 207.2 146.85 200.05 139.57 192.9 146.85 185.75 139.57 178.6 146.85 171.45 139.57 164.3 146.85 157.15 139.57 150 146.85 142.85 139.57 139.28 143.21 135.7 146.85 128.55 139.57 121.4 146.85 114.25 139.57 107.1 146.85 99.95 139.57 92.8 146.85 85.65 139.57 78.5 146.85 71.35 139.57 64.2 146.85 57.05 139.57 49.9 146.85 42.76 139.57 35.61 146.85 28.46 139.57 21.31 146.85 14.16 139.57 7.01 146.85 0 139.71 0 132.42 7.01 139.57 14.16 132.28 21.31 139.57 28.46 132.28 35.61 139.57 42.76 132.29 49.9 139.57 57.05 132.28 64.2 139.57 71.35 132.28 78.5 139.57 85.65 132.28 92.8 139.57 99.95 132.28 107.1 139.57 114.25 132.28 121.4 139.57 128.55 132.28 135.7 139.57 142.85 132.28 150 139.57 157.15 132.28 164.3 139.57 171.45 132.28 178.6 139.57 185.75 132.28 192.9 139.57 200.05 132.28 207.2 139.57 214.35 132.28 221.5 139.57 228.65 132.28 235.8 139.57 242.95 132.28 250.1 139.57 257.24 132.28 264.39 139.57 271.54 132.28 278.69 139.57 285.84 132.29 292.99 139.57 300 132.42"/><polygon class="cls-3" points="300 146.99 300 154.28 292.99 161.42 285.84 154.14 278.69 161.42 271.54 154.14 264.39 161.42 257.24 154.14 250.1 161.42 242.95 154.14 235.8 161.42 228.65 154.14 221.5 161.42 214.35 154.14 207.2 161.42 200.05 154.14 192.9 161.42 185.75 154.14 178.6 161.42 171.45 154.14 164.3 161.42 157.15 154.14 150 161.42 142.85 154.14 139.28 157.78 135.7 161.42 128.55 154.14 121.4 161.42 114.25 154.14 107.1 161.42 99.95 154.14 92.8 161.42 85.65 154.14 78.5 161.42 71.35 154.14 64.2 161.42 57.05 154.14 49.9 161.42 42.76 154.14 35.61 161.42 28.46 154.14 21.31 161.42 14.16 154.14 7.01 161.42 0 154.28 0 146.99 7.01 154.14 14.16 146.85 21.31 154.14 28.46 146.85 35.61 154.14 42.76 146.86 49.9 154.14 57.05 146.85 64.2 154.14 71.35 146.85 78.5 154.14 85.65 146.85 92.8 154.14 99.95 146.85 107.1 154.14 114.25 146.85 121.4 154.14 128.55 146.85 135.7 154.14 142.85 146.85 150 154.14 157.15 146.85 164.3 154.14 171.45 146.85 178.6 154.14 185.75 146.85 192.9 154.14 200.05 146.85 207.2 154.14 214.35 146.85 221.5 154.14 228.65 146.85 235.8 154.14 242.95 146.85 250.1 154.14 257.24 146.85 264.39 154.14 271.54 146.85 278.69 154.14 285.84 146.86 292.99 154.14 300 146.99"/><polygon class="cls-3" points="300 161.56 300 168.85 292.99 175.99 285.84 168.71 278.69 175.99 271.54 168.71 264.39 175.99 257.24 168.71 250.1 175.99 242.95 168.71 235.8 175.99 228.65 168.71 221.5 175.99 214.35 168.71 207.2 175.99 200.05 168.71 192.9 175.99 185.75 168.71 178.6 175.99 171.45 168.71 164.3 175.99 157.15 168.71 150 175.99 142.85 168.71 139.28 172.35 135.7 175.99 132.13 172.35 128.55 168.71 121.4 175.99 114.25 168.71 107.1 175.99 99.95 168.71 92.8 175.99 85.65 168.71 78.5 175.99 71.35 168.71 64.2 175.99 57.05 168.71 49.9 175.99 42.76 168.71 35.61 175.99 28.46 168.71 21.31 175.99 14.16 168.71 7.01 175.99 0 168.85 0 161.56 7.01 168.71 14.16 161.42 21.31 168.71 28.46 161.42 35.61 168.71 42.76 161.42 49.9 168.71 57.05 161.42 64.2 168.71 71.35 161.42 78.5 168.71 85.65 161.42 92.8 168.71 99.95 161.42 107.1 168.71 114.25 161.42 121.4 168.71 128.55 161.42 135.7 168.71 142.85 161.42 150 168.71 157.15 161.42 164.3 168.71 171.45 161.42 178.6 168.71 185.75 161.42 192.9 168.71 200.05 161.42 207.2 168.71 214.35 161.42 221.5 168.71 228.65 161.42 235.8 168.71 242.95 161.42 250.1 168.71 257.24 161.42 264.39 168.71 271.54 161.42 278.69 168.71 285.84 161.42 292.99 168.71 300 161.56"/><polygon class="cls-3" points="300 176.13 300 183.42 292.99 190.57 285.84 183.28 278.69 190.57 271.54 183.28 264.39 190.57 257.24 183.28 250.1 190.57 242.95 183.28 235.8 190.57 228.65 183.28 221.5 190.57 214.35 183.28 207.2 190.57 200.05 183.28 192.9 190.57 185.75 183.28 178.6 190.57 171.45 183.28 164.3 190.57 157.15 183.28 150 190.57 142.85 183.28 139.28 186.92 135.7 190.57 128.55 183.28 121.4 190.57 114.25 183.28 107.1 190.57 99.95 183.28 92.8 190.57 85.65 183.28 78.5 190.57 71.35 183.28 64.2 190.57 57.05 183.28 49.9 190.57 42.76 183.28 35.61 190.57 28.46 183.28 21.31 190.57 14.16 183.28 7.01 190.57 0 183.42 0 176.13 7.01 183.28 14.16 175.99 21.31 183.28 28.46 175.99 35.61 183.28 42.76 175.99 49.9 183.28 57.05 175.99 64.2 183.28 71.35 175.99 78.5 183.28 85.65 175.99 92.8 183.28 99.95 175.99 107.1 183.28 114.25 175.99 121.4 183.28 128.55 175.99 135.7 183.28 142.85 175.99 150 183.28 157.15 175.99 164.3 183.28 171.45 175.99 178.6 183.28 185.75 175.99 192.9 183.28 200.05 175.99 207.2 183.28 214.35 175.99 221.5 183.28 228.65 175.99 235.8 183.28 242.95 175.99 250.1 183.28 257.24 175.99 264.39 183.28 271.54 175.99 278.69 183.28 285.84 175.99 292.99 183.28 300 176.13"/><polygon class="cls-3" points="300 190.71 300 197.99 292.99 205.14 285.84 197.85 278.69 205.14 271.54 197.85 264.39 205.14 257.24 197.85 250.1 205.14 242.95 197.85 235.8 205.14 228.65 197.85 221.5 205.14 214.35 197.85 207.2 205.14 200.05 197.85 192.9 205.14 185.75 197.85 178.6 205.14 171.45 197.85 164.3 205.14 157.15 197.85 150 205.14 142.85 197.85 139.28 201.49 135.7 205.14 128.55 197.85 121.4 205.14 114.25 197.85 107.1 205.14 99.95 197.85 92.8 205.14 85.65 197.85 78.5 205.14 71.35 197.85 64.2 205.14 57.05 197.85 49.9 205.14 42.76 197.85 35.61 205.14 28.46 197.85 21.31 205.14 14.16 197.85 7.01 205.14 0 197.99 0 190.71 7.01 197.85 14.16 190.57 21.31 197.85 28.46 190.57 35.61 197.85 42.76 190.57 49.9 197.85 57.05 190.57 64.2 197.85 71.35 190.57 78.5 197.85 85.65 190.57 92.8 197.85 99.95 190.57 107.1 197.85 114.25 190.57 121.4 197.85 128.55 190.57 135.7 197.85 142.85 190.57 150 197.85 157.15 190.57 164.3 197.85 171.45 190.57 178.6 197.85 185.75 190.57 192.9 197.85 200.05 190.57 207.2 197.85 214.35 190.57 221.5 197.85 228.65 190.57 235.8 197.85 242.95 190.57 250.1 197.85 257.24 190.57 264.39 197.85 271.54 190.57 278.69 197.85 285.84 190.57 292.99 197.85 300 190.71"/><polygon class="cls-3" points="300 205.28 300 212.56 292.99 219.71 285.84 212.42 278.69 219.71 271.54 212.42 264.39 219.71 257.24 212.42 250.1 219.71 242.95 212.42 235.8 219.71 228.65 212.42 221.5 219.71 214.35 212.42 207.2 219.71 200.05 212.42 192.9 219.71 185.75 212.42 178.6 219.71 171.45 212.42 164.3 219.71 157.15 212.42 150 219.71 142.85 212.42 139.28 216.06 135.7 219.71 132.13 216.06 128.55 212.42 121.4 219.71 114.25 212.42 107.1 219.71 99.95 212.42 92.8 219.71 85.65 212.42 78.5 219.71 71.35 212.42 64.2 219.71 57.05 212.42 49.9 219.71 42.76 212.42 35.61 219.71 28.46 212.42 21.31 219.71 14.16 212.42 7.01 219.71 0 212.56 0 205.28 7.01 212.42 14.16 205.14 21.31 212.42 28.46 205.14 35.61 212.42 42.76 205.14 49.9 212.42 57.05 205.14 64.2 212.42 71.35 205.14 78.5 212.42 85.65 205.14 92.8 212.42 99.95 205.14 107.1 212.42 114.25 205.14 121.4 212.42 128.55 205.14 135.7 212.42 142.85 205.14 150 212.42 157.15 205.14 164.3 212.42 171.45 205.14 178.6 212.42 185.75 205.14 192.9 212.42 200.05 205.14 207.2 212.42 214.35 205.14 221.5 212.42 228.65 205.14 235.8 212.42 242.95 205.14 250.1 212.42 257.24 205.14 264.39 212.42 271.54 205.14 278.69 212.42 285.84 205.14 292.99 212.42 300 205.28"/><polygon class="cls-3" points="300 219.85 300 227.13 292.99 234.28 285.84 226.99 278.69 234.28 271.54 226.99 264.39 234.28 257.24 226.99 250.1 234.28 242.95 226.99 235.8 234.28 228.65 226.99 221.5 234.28 214.35 226.99 207.2 234.28 200.05 226.99 192.9 234.28 185.75 226.99 178.6 234.28 171.45 226.99 164.3 234.28 157.15 226.99 150 234.28 142.85 226.99 139.28 230.63 135.7 234.28 132.13 230.63 128.55 226.99 121.4 234.28 114.25 226.99 107.1 234.28 99.95 226.99 92.8 234.28 85.65 226.99 78.5 234.28 71.35 226.99 64.2 234.28 57.05 226.99 49.9 234.28 42.76 226.99 35.61 234.28 28.46 226.99 21.31 234.28 14.16 226.99 7.01 234.28 0 227.13 0 219.85 7.01 226.99 14.16 219.71 21.31 226.99 28.46 219.71 35.61 226.99 42.76 219.71 49.9 226.99 57.05 219.71 64.2 226.99 71.35 219.71 78.5 226.99 85.65 219.71 92.8 226.99 99.95 219.71 107.1 226.99 114.25 219.71 121.4 226.99 128.55 219.71 135.7 226.99 142.85 219.71 150 226.99 157.15 219.71 164.3 226.99 171.45 219.71 178.6 226.99 185.75 219.71 192.9 226.99 200.05 219.71 207.2 226.99 214.35 219.71 221.5 226.99 228.65 219.71 235.8 226.99 242.95 219.71 250.1 226.99 257.24 219.71 264.39 226.99 271.54 219.71 278.69 226.99 285.84 219.71 292.99 226.99 300 219.85"/><polygon class="cls-3" points="300 234.42 300 241.7 292.99 248.85 285.84 241.56 278.69 248.85 271.54 241.56 264.39 248.85 257.24 241.56 250.1 248.85 242.95 241.56 235.8 248.85 228.65 241.56 221.5 248.85 214.35 241.56 207.2 248.85 200.05 241.56 192.9 248.85 185.75 241.56 178.6 248.85 171.45 241.56 164.3 248.85 157.15 241.56 150 248.85 142.85 241.56 139.28 245.2 135.7 248.85 128.55 241.56 121.4 248.85 114.25 241.56 107.1 248.85 99.95 241.56 92.8 248.85 85.65 241.56 78.5 248.85 71.35 241.56 64.2 248.85 57.05 241.56 49.9 248.85 42.76 241.56 35.61 248.85 28.46 241.56 21.31 248.85 14.16 241.56 7.01 248.85 0 241.7 0 234.42 7.01 241.56 14.16 234.28 21.31 241.56 28.46 234.28 35.61 241.56 42.76 234.28 49.9 241.56 57.05 234.28 64.2 241.56 71.35 234.28 78.5 241.56 85.65 234.28 92.8 241.56 99.95 234.28 107.1 241.56 114.25 234.28 121.4 241.56 128.55 234.28 135.7 241.56 142.85 234.28 150 241.56 157.15 234.28 164.3 241.56 171.45 234.28 178.6 241.56 185.75 234.28 192.9 241.56 200.05 234.28 207.2 241.56 214.35 234.28 221.5 241.56 228.65 234.28 235.8 241.56 242.95 234.28 250.1 241.56 257.24 234.28 264.39 241.56 271.54 234.28 278.69 241.56 285.84 234.28 292.99 241.56 300 234.42"/><polygon class="cls-3" points="0 248.99 0.99 250 0 250 0 248.99"/><polygon class="cls-3" points="14.16 248.85 15.29 250 13.03 250 14.16 248.85"/><polygon class="cls-3" points="28.46 248.85 29.59 250 27.33 250 28.46 248.85"/><polygon class="cls-3" points="42.76 248.85 43.89 250 41.63 250 42.76 248.85"/><polygon class="cls-3" points="57.05 248.85 58.18 250 55.92 250 57.05 248.85"/><polygon class="cls-3" points="71.35 248.85 72.48 250 70.22 250 71.35 248.85"/><polygon class="cls-3" points="85.65 248.85 86.78 250 84.52 250 85.65 248.85"/><polygon class="cls-3" points="99.95 248.85 101.08 250 98.82 250 99.95 248.85"/><polygon class="cls-3" points="114.25 248.85 115.38 250 113.12 250 114.25 248.85"/><polygon class="cls-3" points="128.55 248.85 129.68 250 127.42 250 128.55 248.85"/><polygon class="cls-3" points="142.85 248.85 143.98 250 141.72 250 142.85 248.85"/><polygon class="cls-3" points="157.15 248.85 158.28 250 156.02 250 157.15 248.85"/><polygon class="cls-3" points="171.45 248.85 172.58 250 170.32 250 171.45 248.85"/><polygon class="cls-3" points="185.75 248.85 186.88 250 184.62 250 185.75 248.85"/><polygon class="cls-3" points="200.05 248.85 201.18 250 198.92 250 200.05 248.85"/><polygon class="cls-3" points="214.35 248.85 215.48 250 213.22 250 214.35 248.85"/><polygon class="cls-3" points="228.65 248.85 229.78 250 227.52 250 228.65 248.85"/><polygon class="cls-3" points="242.95 248.85 244.08 250 241.82 250 242.95 248.85"/><polygon class="cls-3" points="257.24 248.85 258.37 250 256.11 250 257.24 248.85"/><polygon class="cls-3" points="271.54 248.85 272.67 250 270.41 250 271.54 248.85"/><polygon class="cls-3" points="285.84 248.85 286.97 250 284.71 250 285.84 248.85"/><polygon class="cls-3" points="300 248.99 300 250 299.01 250 300 248.99"/></g><path class="cls-4" d="M75.9,70.87,68.79,78a.71.71,0,0,1-.53.19v4.57a.6.6,0,0,0,.37-.19l7.2-7.19a.67.67,0,0,1,.51-.19v-4.5a.68.68,0,0,0-.44.19"/><path class="cls-4" d="M85.72,81.37H75.66a.66.66,0,0,1-.51-.24l-3.36,3.11a.67.67,0,0,0,.52.25H82.49a.72.72,0,0,1,.48.2l3.22-3.13a.67.67,0,0,0-.47-.19"/><path class="cls-4" d="M85.24,95.73,78.12,88.6A.66.66,0,0,1,78,88h-4.6a.67.67,0,0,0,.2.46l7.2,7.2a.7.7,0,0,1,.19.47h4.49a.63.63,0,0,0-.19-.39"/><path class="cls-4" d="M71.63,92.13v10.18a.64.64,0,0,1-.23.49L74.58,106a.71.71,0,0,0,.17-.45V95.48a.67.67,0,0,1,.16-.43l-3.09-3.39a.67.67,0,0,0-.19.47"/><path class="cls-4" d="M67.66,93.38l-7.19,7.19a.65.65,0,0,1-.44.19v4.49a.65.65,0,0,0,.36-.18L67.51,98a.65.65,0,0,1,.5-.19V93.19a.71.71,0,0,0-.35.19"/><path class="cls-4" d="M64,91.45H53.81a.63.63,0,0,1-.5-.23L50.13,94.4a.65.65,0,0,0,.44.18H60.64a.67.67,0,0,1,.47.2l3.32-3.16a.69.69,0,0,0-.44-.17"/><path class="cls-4" d="M62.93,87.91a.65.65,0,0,0-.19-.42l-7.19-7.2a.68.68,0,0,1-.16-.7H50.88a.68.68,0,0,0,.17.63l7.12,7.11a.67.67,0,0,1,.18.58h4.58"/><path class="cls-4" d="M64.67,83.81V73.63a.64.64,0,0,1,.24-.5l-3.18-3.19a.64.64,0,0,0-.19.46V80.47a.69.69,0,0,1-.17.44l3.13,3.34a.69.69,0,0,0,.17-.44"/><path class="cls-5" d="M67.84,78l-1.22-1.22c-.26-.26-.48-.17-.48.2v3.39a1.88,1.88,0,0,0,.48,1.14l1.06,1.06a.68.68,0,0,0,.58.19V78.18a.65.65,0,0,1-.42-.19"/><path class="cls-5" d="M75,80.7V79c0-.37-.21-.46-.47-.2l-2.4,2.4a1.85,1.85,0,0,0-.47,1.14v1.51a.69.69,0,0,0,.15.42l3.36-3.11A.64.64,0,0,1,75,80.7"/><path class="cls-5" d="M78.12,87.66l1.23-1.22c.26-.26.17-.47-.2-.47H75.76a1.85,1.85,0,0,0-1.14.47l-1.07,1.07a.67.67,0,0,0-.2.48H78a.62.62,0,0,1,.17-.33"/><path class="cls-5" d="M77.34,94.34,75,91.93a1.93,1.93,0,0,0-1.14-.47H72.3a.68.68,0,0,0-.48.2l3.09,3.39a.71.71,0,0,1,.51-.24h1.73c.36,0,.45-.21.19-.47"/><path class="cls-5" d="M69.68,94.44l-1.07-1.06a.65.65,0,0,0-.6-.19v4.57a.67.67,0,0,1,.45.19l1.22,1.22c.26.26.47.17.47-.2V95.58a1.85,1.85,0,0,0-.47-1.14"/><path class="cls-5" d="M64.43,91.62l-3.32,3.16a.67.67,0,0,1,.2.47V97c0,.36.21.45.47.19l2.4-2.39a1.89,1.89,0,0,0,.48-1.15v-1.5a.67.67,0,0,0-.23-.5"/><path class="cls-5" d="M58.35,87.91a.71.71,0,0,1-.18.37L57,89.5c-.26.26-.17.47.19.47h3.4a1.85,1.85,0,0,0,1.14-.47l1.06-1.06a.63.63,0,0,0,.19-.53H58.35"/><path class="cls-5" d="M61.37,80.91a.67.67,0,0,1-.5.22H59.14c-.36,0-.45.22-.19.48L61.35,84a1.85,1.85,0,0,0,1.14.47H64a.67.67,0,0,0,.5-.22l-3.13-3.34"/><path class="cls-6" d="M84.58,78.61l-7.73-7.74a.65.65,0,0,0-.51-.19v4.5a.68.68,0,0,1,.44.19L80,78.61a1.83,1.83,0,0,0,1.14.48h3.24c.37,0,.45-.21.19-.47"/><path class="cls-6" d="M86.19,81.56,83,84.69a.73.73,0,0,1,.19.47v4.59a1.78,1.78,0,0,0,.48,1.13l2.27,2.19c.26.26.48.17.48-.2V82a.64.64,0,0,0-.2-.48"/><path class="cls-6" d="M80.94,96.12a.68.68,0,0,1-.19.48l-3.24,3.23A1.91,1.91,0,0,0,77,101v3.25c0,.36.21.45.47.19l7.74-7.74a.63.63,0,0,0,.19-.56H80.94"/><path class="cls-6" d="M71,103H66.37a1.78,1.78,0,0,0-1.13.48L63,105.73c-.25.27-.16.48.21.48H74.08a.69.69,0,0,0,.5-.22L71.4,102.8A.65.65,0,0,1,71,103"/><path class="cls-6" d="M59.52,100.57l-3.24-3.25a1.91,1.91,0,0,0-1.14-.47l-3.27,0c-.37,0-.45.21-.2.47l7.78,7.77a.64.64,0,0,0,.58.18v-4.49a.65.65,0,0,1-.51-.19"/><path class="cls-6" d="M53.14,90.78V86.19a1.83,1.83,0,0,0-.48-1.13l-2.28-2.19c-.26-.26-.48-.17-.48.2V93.91a.64.64,0,0,0,.23.49l3.18-3.18a.62.62,0,0,1-.17-.44"/><path class="cls-6" d="M55.55,79.34l3.24-3.24A1.81,1.81,0,0,0,59.25,75l-.06-3.17c0-.37-.22-.46-.48-.2l-7.66,7.67a.67.67,0,0,0-.17.32h4.51a.82.82,0,0,1,.16-.25"/><path class="cls-6" d="M73.05,69.73H62.21a.65.65,0,0,0-.48.21l3.18,3.19a.68.68,0,0,1,.43-.17h4.58a1.85,1.85,0,0,0,1.14-.47l2.19-2.28c.26-.27.17-.48-.2-.48"/><path class="cls-6" d="M84.8,103.08a1.57,1.57,0,1,1,0,3.13,1.57,1.57,0,1,1,0-3.13h0m0,.35a1.21,1.21,0,0,0,0,2.42,1.21,1.21,0,0,0,0-2.42Zm-.2,2h-.42v-1.5a2.76,2.76,0,0,1,.62-.06.91.91,0,0,1,.56.12.37.37,0,0,1,.16.32.39.39,0,0,1-.33.35v0a.45.45,0,0,1,.29.38,1.71,1.71,0,0,0,.11.37h-.45a.89.89,0,0,1-.11-.35c0-.16-.11-.22-.28-.22h-.15Zm0-.86h.15c.18,0,.3-.07.3-.21s-.08-.2-.28-.2h-.17Z"/><path class="cls-3" d="M103.18,93c-3.66,0-5.82-2.3-5.82-6,0-4.1,2.54-6.08,5.79-6.08a8.78,8.78,0,0,1,3.47.68l.87-3.26a10.78,10.78,0,0,0-4.5-.81c-5.53,0-10,3.45-10,9.69,0,5.24,3.25,9.2,9.57,9.2a12.09,12.09,0,0,0,4.65-.79l-.59-3.26a9.72,9.72,0,0,1-3.47.6"/><path class="cls-3" d="M114.64,82.55c-4.28,0-7.09,2.74-7.09,7a6.5,6.5,0,0,0,6.85,6.84h0a6.64,6.64,0,0,0,7-7.06,6.45,6.45,0,0,0-6.75-6.81m-.16,10.9h0c-1.73,0-2.68-1.7-2.68-4,0-2,.76-4,2.71-4s2.63,2,2.63,4C117.11,91.86,116.11,93.45,114.48,93.45Z"/><path class="cls-3" d="M154.3,82.55a5.06,5.06,0,0,0-2.51.65,5.69,5.69,0,0,0-1.74,1.63H150a3.72,3.72,0,0,0-3.62-2.28,4.58,4.58,0,0,0-4,2.12l-.24.29a4,4,0,0,0-3.83-2.41,5.12,5.12,0,0,0-2.52.65A5.8,5.8,0,0,0,134,84.83H134a3.74,3.74,0,0,0-3.63-2.28,4.6,4.6,0,0,0-4,2.12h-.08l-.16-1.82h-3.49c0,1.19.1,2.57.1,4.23v9h4V88.41a2.82,2.82,0,0,1,.17-1,2.09,2.09,0,0,1,1.92-1.47c1.33,0,1.92,1.14,1.92,2.79v7.44h4V88.36a4,4,0,0,1,.14-1,2,2,0,0,1,1.92-1.43c1.23,0,1.84,1,1.93,2.62v7.61h4V88.3c0-.08,0-.15,0-.22a2.43,2.43,0,0,1,.15-.72,2.11,2.11,0,0,1,1.92-1.47c1.33,0,1.92,1.14,1.92,2.79v7.44h4V88.36a4.49,4.49,0,0,1,.14-1,2.05,2.05,0,0,1,1.92-1.43c1.33,0,1.95,1.11,1.95,3v7.19h4V88.3c0-4-1.92-5.75-4.47-5.75"/><path class="cls-3" d="M172.77,82.85h-4.11v7.9a2.31,2.31,0,0,1-2.23,2.33c-1.46,0-2.08-1.17-2.08-3.09V82.85h-4.12v7.79c0,4.08,2,5.78,4.66,5.78A4.76,4.76,0,0,0,169,94.25h.07l.2,1.87h3.57c0-1.12-.11-2.53-.11-4.26v-9"/><path class="cls-3" d="M182.3,82.55a4.77,4.77,0,0,0-4.09,2.14h-.09l-.18-1.84h-3.58c0,1.19.11,2.57.11,4.23v9h4.12V88.46a3,3,0,0,1,.13-1,2.26,2.26,0,0,1,2.11-1.54c1.5,0,2.09,1.16,2.09,2.88v7.35H187V88.28c0-3.91-2-5.73-4.73-5.73"/><path class="cls-3" d="M190.8,76.72a2.2,2.2,0,1,0-.07,4.4h0a2.2,2.2,0,1,0,0-4.4"/><path class="cls-3" d="M212.83,82.85l-1.62,6.51c-.2.76-.42,1.76-.61,2.47h-.08c-.16-.71-.43-1.69-.65-2.47l-2-6.51h-7.74V79.24l-4,1.11v2.5h-7.41V96.12h4.11V85.89h3.3v5.45a5.53,5.53,0,0,0,1.13,3.93,4.41,4.41,0,0,0,3.12,1.15,8.54,8.54,0,0,0,2.65-.36l0-3.12a5.18,5.18,0,0,1-1.22.11c-1.22,0-1.63-.73-1.63-2.33V85.89h4.39L208.19,95a1.71,1.71,0,0,1,.16.68,1.12,1.12,0,0,1-.21.6,4.69,4.69,0,0,1-1.71,1.66,6.34,6.34,0,0,1-1.78.7l.87,3.47a7.28,7.28,0,0,0,4-1.81c1.49-1.34,2.76-3.43,4.65-8.69l3.09-8.73h-4.41"/><polyline class="cls-3" points="125.13 104.97 125.13 110.28 130.74 110.28 130.74 104.97 133.16 104.97 133.16 118.23 130.74 118.23 130.74 112.39 125.13 112.39 125.13 118.23 122.71 118.23 122.71 104.97 125.13 104.97"/><path class="cls-3" d="M137.12,114.12c.06,1.73,1.39,2.48,2.95,2.48a7.65,7.65,0,0,0,2.66-.44l.35,1.66a8.66,8.66,0,0,1-3.34.61c-3.11,0-4.94-1.91-4.94-4.85,0-2.65,1.61-5.15,4.68-5.15s4.13,2.56,4.13,4.66a7.47,7.47,0,0,1-.07,1h-6.42m4.21-1.7a2.06,2.06,0,0,0-2-2.34,2.37,2.37,0,0,0-2.22,2.34Z"/><path class="cls-3" d="M152.64,115.93a12.73,12.73,0,0,0,.16,2.3h-2.19l-.17-1.06h-.06a3.5,3.5,0,0,1-2.84,1.27,2.84,2.84,0,0,1-3-2.85c0-2.4,2.15-3.64,5.69-3.62v-.15c0-.64-.26-1.68-1.95-1.68a5.13,5.13,0,0,0-2.58.71l-.47-1.57a6.83,6.83,0,0,1,3.46-.85c3.08,0,4,1.95,4,4v3.45m-2.36-2.38c-1.71,0-3.35.33-3.35,1.79a1.27,1.27,0,0,0,1.38,1.37,2,2,0,0,0,1.91-1.31,1.66,1.66,0,0,0,.06-.54Z"/><rect class="cls-3" x="154.8" y="104.26" width="2.42" height="13.97"/><path class="cls-3" d="M162.24,106.19v2.46h2.3v1.81h-2.3v4.23c0,1.18.31,1.77,1.24,1.77a3.06,3.06,0,0,0,.94-.1l0,1.83a5.24,5.24,0,0,1-1.75.25,2.77,2.77,0,0,1-2.08-.78,3.74,3.74,0,0,1-.77-2.7v-4.5H158.5v-1.81h1.36v-1.8l2.38-.66"/><path class="cls-3" d="M166,104.26h2.42v5.68h0a3.18,3.18,0,0,1,1.19-1.08,3.52,3.52,0,0,1,1.68-.43c1.63,0,3.35,1.08,3.35,4.15v5.65h-2.43v-5.39c0-1.38-.51-2.44-1.84-2.44a2,2,0,0,0-1.9,1.36,2.37,2.37,0,0,0-.09.72v5.75H166v-14"/><path class="cls-3" d="M180.59,118.23V105h2.78l3.42,5.68a37.32,37.32,0,0,1,2.26,4.45h0c-.17-1.77-.21-3.48-.21-5.51V105h2.24v13.26H188.6l-3.46-5.85a44.87,44.87,0,0,1-2.36-4.56l-.08,0c.1,1.71.14,3.46.14,5.65v4.74h-2.25"/><path class="cls-3" d="M195.13,114.12c.06,1.73,1.4,2.48,3,2.48a7.58,7.58,0,0,0,2.65-.44l.36,1.66a8.71,8.71,0,0,1-3.35.61c-3.11,0-4.94-1.91-4.94-4.85,0-2.65,1.61-5.15,4.68-5.15s4.14,2.56,4.14,4.66a5.92,5.92,0,0,1-.08,1h-6.42m4.21-1.7a2.06,2.06,0,0,0-2-2.34,2.37,2.37,0,0,0-2.23,2.34Z"/><path class="cls-3" d="M206,106.19v2.46h2.3v1.81H206v4.23c0,1.18.32,1.77,1.24,1.77a3.13,3.13,0,0,0,.95-.1l0,1.83a5.35,5.35,0,0,1-1.76.25,2.77,2.77,0,0,1-2.08-.78,3.79,3.79,0,0,1-.77-2.7v-4.5h-1.36v-1.81h1.36v-1.8l2.38-.66"/><path class="cls-3" d="M211.28,108.65l1,4.34q.36,1.55.63,3.12h0c.19-1,.51-2.11.76-3.1l1.26-4.36h2l1.2,4.25c.3,1.12.55,2.16.77,3.21h0c.14-1,.37-2.09.63-3.21l1.06-4.25H223l-3,9.58h-2.24l-1.14-3.9a28.89,28.89,0,0,1-.73-3.07h0a29.09,29.09,0,0,1-.73,3.07l-1.22,3.9h-2.26l-2.83-9.58h2.47"/><path class="cls-3" d="M233,113.35a4.74,4.74,0,0,1-4.92,5.09,4.63,4.63,0,0,1-4.81-4.94,4.73,4.73,0,0,1,5-5.07,4.6,4.6,0,0,1,4.77,4.92m-7.23.1c0,1.85.93,3.24,2.39,3.24s2.34-1.33,2.34-3.28c0-1.5-.67-3.23-2.33-3.23S225.8,111.85,225.8,113.45Z"/><path class="cls-3" d="M234.53,111.74c0-1.3,0-2.25-.08-3.09h2.09l.1,1.81h.06a2.86,2.86,0,0,1,2.63-2,2.43,2.43,0,0,1,.57.06v2.26a3.73,3.73,0,0,0-.72-.06,2.13,2.13,0,0,0-2.17,1.83,4.15,4.15,0,0,0-.06.73v5h-2.42v-6.49"/><path class="cls-3" d="M243.56,112.86h0c.24-.38.51-.79.75-1.12l2.34-3.09h2.91L246,112.56l4.06,5.67h-3L244.37,114l-.81,1v3.27h-2.42v-14h2.42v8.6"/><path class="cls-6" d="M57.14,163.6H54.41v-1.92h7.78v1.92H59.43v8.19H57.14Z"/><path class="cls-6" d="M64.67,169.19l-.71,2.6H61.6l3.08-10.11h3l3.15,10.11H68.36l-.78-2.6Zm2.57-1.7-.63-2.15c-.17-.6-.35-1.35-.51-1.94h0c-.15.59-.3,1.36-.46,1.94l-.6,2.15Z"/><path class="cls-6" d="M72.17,161.68h2.27v4.47h0c.22-.38.47-.75.7-1.1l2.29-3.37h2.81L76.92,166l3.52,5.81H77.78l-2.49-4.36-.85,1.06v3.3H72.17Z"/><path class="cls-6" d="M87.39,167.51H83.67v2.41h4.15v1.87H81.38V161.68h6.23v1.87H83.67v2.11h3.72Z"/><path class="cls-6" d="M93.79,163.6H91.06v-1.92h7.78v1.92H96.07v8.19H93.79Z"/><path class="cls-6" d="M102.34,161.68v3.89h3.77v-3.89h2.29v10.11h-2.29v-4.23h-3.77v4.23h-2.28V161.68Z"/><path class="cls-6" d="M116.4,167.51h-3.72v2.41h4.15v1.87h-6.44V161.68h6.23v1.87h-3.94v2.11h3.72Z"/><path class="cls-6" d="M121.43,161.68h6.17v1.87h-3.88v2.32h3.63v1.85h-3.63v4.07h-2.29Z"/><path class="cls-6" d="M129.33,161.82a18.72,18.72,0,0,1,3-.22,5.16,5.16,0,0,1,3.27.8,2.56,2.56,0,0,1,.94,2.12A2.71,2.71,0,0,1,134.8,167v0a2.58,2.58,0,0,1,1.35,1.89,28.44,28.44,0,0,0,.81,2.85h-2.34a12.78,12.78,0,0,1-.69-2.36c-.28-1.26-.71-1.6-1.65-1.61h-.68v4h-2.27Zm2.27,4.35h.9c1.13,0,1.81-.58,1.81-1.46s-.64-1.4-1.68-1.41a4.69,4.69,0,0,0-1,.08Z"/><path class="cls-6" d="M144.24,167.51h-3.72v2.41h4.15v1.87h-6.44V161.68h6.23v1.87h-3.94v2.11h3.72Z"/><path class="cls-6" d="M152.25,167.51h-3.72v2.41h4.15v1.87h-6.44V161.68h6.23v1.87h-3.94v2.11h3.72Z"/><path class="cls-6" d="M159.62,169.19l-.71,2.6h-2.36l3.08-10.11h3l3.15,10.11h-2.46l-.78-2.6Zm2.57-1.7-.63-2.15c-.17-.6-.35-1.35-.51-1.94h0c-.15.59-.3,1.36-.46,1.94l-.61,2.15Z"/><path class="cls-6" d="M167.19,169.43a5.75,5.75,0,0,0,2.54.63c1.05,0,1.6-.43,1.6-1.1s-.48-1-1.69-1.41c-1.68-.6-2.79-1.52-2.79-3,0-1.73,1.45-3,3.83-3a6,6,0,0,1,2.58.51l-.51,1.83a4.87,4.87,0,0,0-2.11-.48c-1,0-1.47.46-1.47,1s.56.93,1.87,1.42c1.79.67,2.62,1.6,2.62,3,0,1.69-1.29,3.14-4.07,3.14a6.66,6.66,0,0,1-2.86-.63Z"/><path class="cls-6" d="M175.29,169.43a5.75,5.75,0,0,0,2.54.63c1,0,1.6-.43,1.6-1.1s-.48-1-1.69-1.41c-1.68-.6-2.79-1.52-2.79-3,0-1.73,1.45-3,3.83-3a6,6,0,0,1,2.58.51l-.51,1.83a4.87,4.87,0,0,0-2.11-.48c-1,0-1.47.46-1.47,1s.56.93,1.87,1.42c1.79.67,2.62,1.6,2.62,3,0,1.69-1.29,3.14-4.07,3.14a6.66,6.66,0,0,1-2.86-.63Z"/><path class="cls-6" d="M189.32,167.51H185.6v2.41h4.16v1.87h-6.44V161.68h6.23v1.87h-4v2.11h3.72Z"/><path class="cls-6" d="M191.4,169.43a5.75,5.75,0,0,0,2.54.63c1.05,0,1.6-.43,1.6-1.1s-.48-1-1.69-1.41c-1.68-.6-2.79-1.52-2.79-3,0-1.73,1.45-3,3.83-3a6,6,0,0,1,2.58.51l-.51,1.83a4.87,4.87,0,0,0-2.11-.48c-1,0-1.47.46-1.47,1s.56.93,1.87,1.42c1.79.67,2.62,1.6,2.62,3,0,1.69-1.29,3.14-4.07,3.14a6.66,6.66,0,0,1-2.86-.63Z"/><path class="cls-6" d="M199.5,169.43a5.75,5.75,0,0,0,2.54.63c1.05,0,1.6-.43,1.6-1.1s-.48-1-1.69-1.41c-1.69-.6-2.79-1.52-2.79-3,0-1.73,1.45-3,3.83-3a6,6,0,0,1,2.58.51l-.51,1.83a4.87,4.87,0,0,0-2.11-.48c-1,0-1.47.46-1.47,1s.56.93,1.87,1.42c1.79.67,2.62,1.6,2.62,3,0,1.69-1.29,3.14-4.07,3.14a6.66,6.66,0,0,1-2.86-.63Z"/><path class="cls-6" d="M216.07,167.92c0-1.22-.09-2.68-.08-4.16h-.05c-.32,1.29-.74,2.73-1.12,3.92l-1.24,3.94H211.8l-1.09-3.9c-.32-1.19-.66-2.63-.91-4h0c-.05,1.37-.11,2.93-.17,4.19l-.19,3.84H207.3l.65-10.11h3l1,3.38c.32,1.16.63,2.43.86,3.61h0c.28-1.17.62-2.5,1-3.63l1.07-3.36h3l.54,10.11h-2.22Z"/><path class="cls-6" d="M226.22,167.51H222.5v2.41h4.16v1.87h-6.44V161.68h6.23v1.87H222.5v2.11h3.72Z"/><path class="cls-6" d="M228.23,171.79V161.68h2.66l2.1,3.71a26.9,26.9,0,0,1,1.65,3.47h0a40.3,40.3,0,0,1-.18-4.22v-2.95h2.1v10.11h-2.4L232,167.9a38.28,38.28,0,0,1-1.75-3.58h-.05c.07,1.34.1,2.77.1,4.42v3Z"/><path class="cls-6" d="M240.53,163.6H237.8v-1.92h7.78v1.92h-2.76v8.19h-2.29Z"/><rect class="cls-7" x="49.9" y="154.5" width="200.19" height="25.77" rx="2.7"/></svg>