<svg id="Layer_1" data-name="Layer 1" xmlns="http://www.w3.org/2000/svg" viewBox="0 0 300 250"><defs><style>.cls-1{fill:#fff;}.cls-2{fill:#f1b533;}</style></defs><path class="cls-1" d="M25,208.07v-1l.94-.21,3.53-10H31.8l3.53,10,1,.21v1H31.59v-1l1.2-.21-.55-1.78h-4l-.52,1.79,1.21.2v1Zm5-8.86-1.36,4.72h3.29l-1.44-4.72-.25-1.07Z"/><path class="cls-1" d="M41.44,207.6v-2h1.34l.38,1.14a.8.8,0,0,0,.21.19,1.58,1.58,0,0,0,.32.17,2.1,2.1,0,0,0,.42.12,2.63,2.63,0,0,0,.49.05,1.72,1.72,0,0,0,.6-.09,1.21,1.21,0,0,0,.37-.22.93.93,0,0,0,.19-.31,1.4,1.4,0,0,0,.05-.34.88.88,0,0,0-.16-.53,1.51,1.51,0,0,0-.45-.41,5,5,0,0,0-.7-.36l-.9-.38a5.94,5.94,0,0,1-.91-.46,3.28,3.28,0,0,1-.69-.57,2.32,2.32,0,0,1-.37-2.53,2.05,2.05,0,0,1,.64-.77,3.28,3.28,0,0,1,1.06-.52,5.27,5.27,0,0,1,1.45-.18,5.52,5.52,0,0,1,.86.06c.25,0,.48.08.69.13l.56.16a3.36,3.36,0,0,0,.5.13v2l-1.27,0-.35-1a1,1,0,0,0-.39-.33,1.53,1.53,0,0,0-.72-.16,1.71,1.71,0,0,0-.55.07.89.89,0,0,0-.36.2.73.73,0,0,0-.2.27.81.81,0,0,0-.06.31,1,1,0,0,0,.2.62,1.72,1.72,0,0,0,.5.42,4,4,0,0,0,.66.29l.68.28c.32.14.63.29.92.45a3.5,3.5,0,0,1,.78.55,2.28,2.28,0,0,1,.54.73,2.15,2.15,0,0,1,.21,1,2.31,2.31,0,0,1-.21,1,2.09,2.09,0,0,1-.63.79,3.1,3.1,0,0,1-1.06.53,5,5,0,0,1-1.48.19,6.83,6.83,0,0,1-1.06-.08,8.16,8.16,0,0,1-.87-.19l-.7-.21Z"/><path class="cls-1" d="M49.09,208.07v-1l1.07-.14v-5.64l-1-.31v-1.1l2.69-.36h0l.54.32V207l1.06.14v1ZM51,198.3a1.11,1.11,0,0,1-.46-.09,1.25,1.25,0,0,1-.34-.25,1,1,0,0,1-.2-.38,1.39,1.39,0,0,1-.07-.46,1.61,1.61,0,0,1,.08-.54,1.42,1.42,0,0,1,.23-.44,1.35,1.35,0,0,1,.4-.3,1.4,1.4,0,0,1,.56-.11h0a1.21,1.21,0,0,1,.52.1,1.19,1.19,0,0,1,.36.26,1.11,1.11,0,0,1,.22.38,1.63,1.63,0,0,1,.07.45,1.85,1.85,0,0,1-.08.54,1.26,1.26,0,0,1-.25.44,1.08,1.08,0,0,1-.42.3,1.68,1.68,0,0,1-.62.1Z"/><path class="cls-1" d="M54.6,208.07v-.95l.91-.17v-5.64l-1-.31v-1.1l2.59-.36h0l.38.32v.87a3.73,3.73,0,0,1,.6-.44,6,6,0,0,1,.76-.38,6.09,6.09,0,0,1,.83-.25,3.44,3.44,0,0,1,.81-.1,2.82,2.82,0,0,1,1.34.27,1.71,1.71,0,0,1,.75.87,4.8,4.8,0,0,1,.54-.39,5.66,5.66,0,0,1,.74-.36,7.05,7.05,0,0,1,.85-.28,3.69,3.69,0,0,1,.86-.11,3.23,3.23,0,0,1,1.15.18,1.67,1.67,0,0,1,.74.57,2.7,2.7,0,0,1,.39,1,8.44,8.44,0,0,1,.12,1.54V207l1,.17v.95H65v-.95l.77-.17v-4a6.46,6.46,0,0,0-.06-1,1.66,1.66,0,0,0-.21-.63,1,1,0,0,0-.39-.36,1.67,1.67,0,0,0-.63-.1,1.51,1.51,0,0,0-.4,0,2.44,2.44,0,0,0-.44.13,2.63,2.63,0,0,0-.42.17,2,2,0,0,0-.36.19,6.16,6.16,0,0,1,.08.67c0,.24,0,.5,0,.79V207l1,.16v.95h-4.1v-.95l.88-.16v-4.09a5.61,5.61,0,0,0-.06-.88,1.51,1.51,0,0,0-.2-.6A.78.78,0,0,0,60,201a1.4,1.4,0,0,0-.62-.12A1.8,1.8,0,0,0,59,201a3.59,3.59,0,0,0-.47.12,4.08,4.08,0,0,0-.42.18,3,3,0,0,0-.32.2V207l1,.17v.95Z"/><path class="cls-1" d="M69.77,210.78l1.1-.19v-9.28l-1-.31v-1.1l2.62-.36h0l.38.32v.77a2.82,2.82,0,0,1,.43-.41,3.16,3.16,0,0,1,.56-.36,4.05,4.05,0,0,1,.67-.25,3.55,3.55,0,0,1,2.05.14,2.54,2.54,0,0,1,1,.72,3.41,3.41,0,0,1,.7,1.28,6.44,6.44,0,0,1,.25,1.88,5.39,5.39,0,0,1-.3,1.82,4.42,4.42,0,0,1-.85,1.46,4,4,0,0,1-1.36,1,4.48,4.48,0,0,1-1.8.35h-.36l-.34,0-.3,0-.21-.05,0,1.22v1.27l1.45.19v.93h-4.8Zm4.66-9.93a1.78,1.78,0,0,0-.78.16,1.57,1.57,0,0,0-.53.35v5.55a1.06,1.06,0,0,0,.4.24,1.94,1.94,0,0,0,.68.11,1.79,1.79,0,0,0,.75-.17,1.75,1.75,0,0,0,.62-.57,3.51,3.51,0,0,0,.42-1,7,7,0,0,0,.18-1.58,6.5,6.5,0,0,0-.11-1.41,2.93,2.93,0,0,0-.35-.94,1.33,1.33,0,0,0-.55-.53A1.6,1.6,0,0,0,74.43,200.85Z"/><path class="cls-1" d="M79.54,208.07v-1L80.6,207v-9.78L79.51,197v-.85l2.86-.36h0l.46.34V207l1.11.14v1Z"/><path class="cls-1" d="M88.75,208.24a4.56,4.56,0,0,1-1.78-.32,3.16,3.16,0,0,1-1.22-.9,3.8,3.8,0,0,1-.71-1.37,6.38,6.38,0,0,1-.22-1.74,5.27,5.27,0,0,1,.29-1.84,3.94,3.94,0,0,1,.81-1.38,3.62,3.62,0,0,1,1.27-.86,4.32,4.32,0,0,1,1.64-.3c2,0,3.08,1,3.17,3,0,.34,0,.64,0,.91a4.1,4.1,0,0,1-.08.69H87.14a4.32,4.32,0,0,0,.21,1.24,2.43,2.43,0,0,0,.46.83,1.67,1.67,0,0,0,.68.47,2.39,2.39,0,0,0,.86.15,3.88,3.88,0,0,0,.7-.06,4.61,4.61,0,0,0,.59-.15,2.89,2.89,0,0,0,.5-.2,3.44,3.44,0,0,0,.39-.21l.38.89a4.14,4.14,0,0,1-.51.4,5.24,5.24,0,0,1-.75.38,4.85,4.85,0,0,1-.91.29A4.07,4.07,0,0,1,88.75,208.24Zm-.2-7.73a1.32,1.32,0,0,0-.53.1,1,1,0,0,0-.43.39,2.36,2.36,0,0,0-.31.79,7.09,7.09,0,0,0-.15,1.32h2.63V203a.53.53,0,0,0,0-.13c0-.05,0-.1,0-.14v-.1a5,5,0,0,0-.06-.76,2.34,2.34,0,0,0-.18-.68,1.32,1.32,0,0,0-.38-.49A.93.93,0,0,0,88.55,200.51Z"/><path class="cls-1" d="M98.08,207.6v-2h1.35l.38,1.14a.74.74,0,0,0,.2.19,1.91,1.91,0,0,0,.32.17,2.58,2.58,0,0,0,.42.12,2.65,2.65,0,0,0,.5.05,1.63,1.63,0,0,0,.59-.09,1,1,0,0,0,.37-.22.79.79,0,0,0,.19-.31,1,1,0,0,0,0-.34.94.94,0,0,0-.15-.53,1.81,1.81,0,0,0-.45-.41,5.63,5.63,0,0,0-.7-.36l-.91-.38a5.94,5.94,0,0,1-.91-.46,3.21,3.21,0,0,1-.68-.57,2.43,2.43,0,0,1-.44-.7,2.41,2.41,0,0,1-.15-.87,2.05,2.05,0,0,1,.22-1,2,2,0,0,1,.64-.77,3.22,3.22,0,0,1,1-.52,5.35,5.35,0,0,1,1.46-.18,5.52,5.52,0,0,1,.86.06c.25,0,.48.08.68.13l.57.16a3.07,3.07,0,0,0,.5.13v2l-1.28,0-.34-1a1,1,0,0,0-.39-.33,1.55,1.55,0,0,0-.73-.16,1.75,1.75,0,0,0-.55.07.89.89,0,0,0-.36.2.7.7,0,0,0-.19.27.81.81,0,0,0-.06.31,1,1,0,0,0,.2.62,1.68,1.68,0,0,0,.49.42,4.39,4.39,0,0,0,.66.29c.24.09.47.18.69.28s.63.29.92.45a4,4,0,0,1,.78.55,2.21,2.21,0,0,1,.74,1.71,2.31,2.31,0,0,1-.21,1,2.09,2.09,0,0,1-.63.79,3,3,0,0,1-1,.53,5.07,5.07,0,0,1-1.48.19,6.83,6.83,0,0,1-1.06-.08,8.16,8.16,0,0,1-.87-.19c-.27-.07-.5-.14-.7-.21Z"/><path class="cls-1" d="M105.66,204a5.25,5.25,0,0,1,.3-1.81,4.13,4.13,0,0,1,.84-1.41,3.91,3.91,0,0,1,1.33-.92,4.66,4.66,0,0,1,1.75-.32,8.12,8.12,0,0,1,.9,0c.27,0,.52.08.73.13l.56.15.38.12-.07,2.5h-1.29l-.43-1.29a1.44,1.44,0,0,0-.39-.48.92.92,0,0,0-.57-.18,1.29,1.29,0,0,0-.63.17,1.54,1.54,0,0,0-.53.52,3.2,3.2,0,0,0-.37.92,5.86,5.86,0,0,0-.14,1.36,6.8,6.8,0,0,0,.15,1.54,2.54,2.54,0,0,0,.42,1,1.5,1.5,0,0,0,.67.56,2.07,2.07,0,0,0,.88.18,3.21,3.21,0,0,0,1.18-.19,4.61,4.61,0,0,0,.83-.39l.39.88a2.28,2.28,0,0,1-.45.37,3.81,3.81,0,0,1-.67.38,4.25,4.25,0,0,1-.85.29,3.85,3.85,0,0,1-1,.12,4.56,4.56,0,0,1-1.78-.32,3.2,3.2,0,0,1-1.23-.89,3.83,3.83,0,0,1-.71-1.36A6.06,6.06,0,0,1,105.66,204Z"/><path class="cls-1" d="M113.59,208.07v-1l1.06-.14v-5.64l-1-.31v-1.1l2.51-.36h0l.39.32v1.75h0a3.25,3.25,0,0,1,.32-.59,3.6,3.6,0,0,1,.57-.69,3.55,3.55,0,0,1,.79-.57,2,2,0,0,1,1-.24,1.68,1.68,0,0,1,.35,0l.2,0v2.54a1.59,1.59,0,0,0-.42-.13,3.88,3.88,0,0,0-.81-.07l-.52,0-.48.08-.39.11a1.49,1.49,0,0,0-.28.13V207l1.83.17v.95Z"/><path class="cls-1" d="M124.57,208.24a4.53,4.53,0,0,1-1.78-.32,3.09,3.09,0,0,1-1.22-.9,3.65,3.65,0,0,1-.71-1.37,6.37,6.37,0,0,1-.23-1.74,5.51,5.51,0,0,1,.29-1.84,4,4,0,0,1,.82-1.38,3.53,3.53,0,0,1,1.27-.86,4.32,4.32,0,0,1,1.64-.3c2,0,3.08,1,3.17,3a9,9,0,0,1,0,.91,4.21,4.21,0,0,1-.07.69H123a4.67,4.67,0,0,0,.22,1.24,2.27,2.27,0,0,0,.46.83,1.61,1.61,0,0,0,.68.47,2.35,2.35,0,0,0,.86.15,3.69,3.69,0,0,0,.69-.06,4.38,4.38,0,0,0,.6-.15,3.91,3.91,0,0,0,.88-.41l.38.89a3,3,0,0,1-.51.4,4.63,4.63,0,0,1-.74.38,5.1,5.1,0,0,1-.91.29A4.19,4.19,0,0,1,124.57,208.24Zm-.2-7.73a1.32,1.32,0,0,0-.53.1,1,1,0,0,0-.44.39,2.61,2.61,0,0,0-.3.79,7.09,7.09,0,0,0-.15,1.32h2.63V203a.62.62,0,0,1,0-.13v-.24a6.61,6.61,0,0,0,0-.76,2.34,2.34,0,0,0-.19-.68,1.3,1.3,0,0,0-.37-.49A.93.93,0,0,0,124.37,200.51Z"/><path class="cls-1" d="M132.81,208.24a4.48,4.48,0,0,1-1.77-.32,3.12,3.12,0,0,1-1.23-.9,3.63,3.63,0,0,1-.7-1.37,6.37,6.37,0,0,1-.23-1.74,5.51,5.51,0,0,1,.29-1.84,3.81,3.81,0,0,1,.82-1.38,3.58,3.58,0,0,1,1.26-.86,4.35,4.35,0,0,1,1.64-.3c2,0,3.09,1,3.17,3,0,.34,0,.64,0,.91a4.1,4.1,0,0,1-.08.69H131.2a5.15,5.15,0,0,0,.21,1.24,2.29,2.29,0,0,0,.47.83,1.64,1.64,0,0,0,.67.47,2.39,2.39,0,0,0,.86.15,3.88,3.88,0,0,0,.7-.06,5.26,5.26,0,0,0,.6-.15,3.13,3.13,0,0,0,.49-.2,3.44,3.44,0,0,0,.39-.21l.38.89a3,3,0,0,1-.51.4,5.24,5.24,0,0,1-.75.38,5,5,0,0,1-.9.29A4.21,4.21,0,0,1,132.81,208.24Zm-.2-7.73a1.35,1.35,0,0,0-.53.1,1,1,0,0,0-.43.39,2.59,2.59,0,0,0-.31.79,7.09,7.09,0,0,0-.15,1.32h2.63a.49.49,0,0,1,0-.11v-.13a.71.71,0,0,0,0-.14v-.1a6.61,6.61,0,0,0-.05-.76,2.7,2.7,0,0,0-.19-.68,1.41,1.41,0,0,0-.37-.49A1,1,0,0,0,132.61,200.51Z"/><path class="cls-1" d="M137.31,208.07v-1l.94-.14v-5.64l-1-.31v-1.1l2.62-.36h0l.39.32v.87a4.3,4.3,0,0,1,1.28-.81,5.47,5.47,0,0,1,.81-.26,4.12,4.12,0,0,1,.86-.1,3,3,0,0,1,1.17.19,1.5,1.5,0,0,1,.75.58,2.66,2.66,0,0,1,.4,1,8.33,8.33,0,0,1,.12,1.53v4l1,.14v1h-4.13v-1l.8-.14v-4.08a7.35,7.35,0,0,0,0-.88,1.51,1.51,0,0,0-.19-.6.78.78,0,0,0-.37-.35,1.35,1.35,0,0,0-.61-.12,2,2,0,0,0-.49.06,3.09,3.09,0,0,0-.46.14,3,3,0,0,0-.4.2,2.77,2.77,0,0,0-.31.21V207l1,.14v1Z"/><path class="cls-1" d="M147.59,208.07v-1l1.07-.14v-5.64l-1-.31v-1.1l2.69-.36h0l.53.32V207l1.06.14v1Zm1.95-9.77a1.14,1.14,0,0,1-.46-.09,1.2,1.2,0,0,1-.33-.25,1.17,1.17,0,0,1-.21-.38,1.39,1.39,0,0,1-.07-.46,1.91,1.91,0,0,1,.08-.54,1.26,1.26,0,0,1,.24-.44,1.24,1.24,0,0,1,.4-.3,1.31,1.31,0,0,1,.55-.11h0a1.13,1.13,0,0,1,.51.1,1,1,0,0,1,.36.26,1.11,1.11,0,0,1,.22.38,1.33,1.33,0,0,1,.07.45,1.85,1.85,0,0,1-.08.54,1.12,1.12,0,0,1-.25.44,1.08,1.08,0,0,1-.42.3,1.63,1.63,0,0,1-.61.1Z"/><path class="cls-1" d="M153.07,208.07v-1l1-.14v-5.64l-1-.31v-1.1l2.62-.36h0l.39.32v.87a4.71,4.71,0,0,1,.57-.44,5.29,5.29,0,0,1,.71-.37,5.47,5.47,0,0,1,.81-.26,4.12,4.12,0,0,1,.86-.1,3,3,0,0,1,1.17.19,1.5,1.5,0,0,1,.75.58,2.66,2.66,0,0,1,.4,1,8.33,8.33,0,0,1,.12,1.53v4l1,.14v1h-4.13v-1l.8-.14v-4.08a5.73,5.73,0,0,0,0-.88,1.51,1.51,0,0,0-.19-.6.78.78,0,0,0-.37-.35,1.35,1.35,0,0,0-.61-.12,2,2,0,0,0-.49.06,3.09,3.09,0,0,0-.46.14l-.4.2-.31.21V207l1,.14v1Z"/><path class="cls-1" d="M167.1,205.21a6.43,6.43,0,0,1-1.12-.09,1.15,1.15,0,0,0-.2.29.93.93,0,0,0-.08.39.83.83,0,0,0,.09.41.64.64,0,0,0,.3.23,1.81,1.81,0,0,0,.53.12c.21,0,.46,0,.76,0h1.47a4.13,4.13,0,0,1,2.35.53,2,2,0,0,1,.78,1.75,2.41,2.41,0,0,1-.39,1.34,3.38,3.38,0,0,1-1,1,5.41,5.41,0,0,1-1.5.66,7.1,7.1,0,0,1-1.8.23h0a7.61,7.61,0,0,1-1.77-.19,3.71,3.71,0,0,1-1.2-.5,2,2,0,0,1-.7-.77,2.14,2.14,0,0,1-.22-1,1.68,1.68,0,0,1,.12-.63,1.87,1.87,0,0,1,.33-.54,2.46,2.46,0,0,1,.48-.43,2.55,2.55,0,0,1,.57-.29,1.69,1.69,0,0,1-.65-.55,1.41,1.41,0,0,1-.23-.79,1.52,1.52,0,0,1,.29-.94,2.89,2.89,0,0,1,.75-.68,2.31,2.31,0,0,1-1.1-1,2.86,2.86,0,0,1-.36-1.47,2.36,2.36,0,0,1,.3-1.19,2.82,2.82,0,0,1,.81-.91,3.79,3.79,0,0,1,1.19-.59,5.31,5.31,0,0,1,1.46-.2h0a4.31,4.31,0,0,1,2.71.7,1.76,1.76,0,0,1,.28-.25,2,2,0,0,1,.41-.23,2.45,2.45,0,0,1,.5-.17,2.27,2.27,0,0,1,.59-.07h.34v1.64h-1.44c0,.15.09.32.13.49a3.16,3.16,0,0,1,0,.55,2.76,2.76,0,0,1-.27,1.22,2.73,2.73,0,0,1-.78.95,3.65,3.65,0,0,1-1.19.63,5,5,0,0,1-1.54.23Zm-.38,3a5,5,0,0,1-.88-.07,2.55,2.55,0,0,0-.27.42,1.6,1.6,0,0,0-.13.72,2.56,2.56,0,0,0,.13.84,1.38,1.38,0,0,0,.39.55,1.42,1.42,0,0,0,.64.31,3.25,3.25,0,0,0,.87.1h0a4.3,4.3,0,0,0,.87-.1,3,3,0,0,0,.76-.31,1.68,1.68,0,0,0,.53-.53,1.36,1.36,0,0,0,.2-.74,1.79,1.79,0,0,0-.07-.55.79.79,0,0,0-.25-.37,1.31,1.31,0,0,0-.49-.21,4.3,4.3,0,0,0-.79-.06Zm.55-3.94h0a1.16,1.16,0,0,0,.62-.15,1.07,1.07,0,0,0,.38-.41,1.75,1.75,0,0,0,.2-.61,5.74,5.74,0,0,0,.05-.74,2.44,2.44,0,0,0-.31-1.4,1.17,1.17,0,0,0-1-.43h0a1.13,1.13,0,0,0-1,.43,2.35,2.35,0,0,0-.31,1.34,4,4,0,0,0,.07.8,1.81,1.81,0,0,0,.22.62,1,1,0,0,0,.43.4A1.36,1.36,0,0,0,167.27,204.23Z"/><path class="cls-1" d="M25.88,226.07v-1l1.17-.2V219H25.76v-.87l1.29-.37v-.43a3.38,3.38,0,0,1,.36-1.56,4.17,4.17,0,0,1,.92-1.19,4.05,4.05,0,0,1,1.26-.75,3.79,3.79,0,0,1,1.37-.27,2.65,2.65,0,0,1,.57.05,2.24,2.24,0,0,1,.29.08v2.19a.86.86,0,0,0-.27-.2,1.76,1.76,0,0,0-.39-.18c-.14-.05-.3-.09-.46-.13a2.94,2.94,0,0,0-.51-.05,1.36,1.36,0,0,0-.36.05.56.56,0,0,0-.27.15.73.73,0,0,0-.18.31,1.7,1.7,0,0,0-.06.5v1.43h1.88V219H29.33V225l1.62.16v1Z"/><path class="cls-1" d="M32,221.93a5,5,0,0,1,.34-1.94,4.12,4.12,0,0,1,.92-1.38,3.62,3.62,0,0,1,1.32-.82,4.57,4.57,0,0,1,1.56-.27,4.43,4.43,0,0,1,1.69.3,3.24,3.24,0,0,1,1.23.85,3.69,3.69,0,0,1,.75,1.35,6,6,0,0,1,.26,1.81,5.19,5.19,0,0,1-.35,2,3.87,3.87,0,0,1-.91,1.37,3.58,3.58,0,0,1-1.32.8,4.91,4.91,0,0,1-3.24,0,3.41,3.41,0,0,1-1.24-.86,3.71,3.71,0,0,1-.76-1.35A6,6,0,0,1,32,221.93Zm4,3.3a1.33,1.33,0,0,0,.7-.18,1.36,1.36,0,0,0,.49-.56,3.34,3.34,0,0,0,.28-1,9.83,9.83,0,0,0,.09-1.43,11.54,11.54,0,0,0-.08-1.52,4.75,4.75,0,0,0-.27-1.11,1.64,1.64,0,0,0-.49-.68,1.22,1.22,0,0,0-.75-.23,1.29,1.29,0,0,0-.69.18,1.38,1.38,0,0,0-.5.56,3.33,3.33,0,0,0-.29,1,8.5,8.5,0,0,0-.1,1.43,11.4,11.4,0,0,0,.09,1.52,4.07,4.07,0,0,0,.28,1.11,1.65,1.65,0,0,0,.5.68A1.21,1.21,0,0,0,36.07,225.23Z"/><path class="cls-1" d="M41.21,226.07v-1l1-.14v-5.64l-1-.31v-1.1l2.5-.36h0l.38.32v1.75h0a2.62,2.62,0,0,1,.31-.59,4.09,4.09,0,0,1,.58-.69,3.27,3.27,0,0,1,.78-.57,2,2,0,0,1,1-.24,1.68,1.68,0,0,1,.35,0l.2,0v2.54A1.35,1.35,0,0,0,47,220a3.88,3.88,0,0,0-.81-.07l-.51,0-.48.08a3.26,3.26,0,0,0-.4.11,1.13,1.13,0,0,0-.27.13V225l1.82.17v.95Z"/><path class="cls-2" d="M53,226.07v-1l.9-.14v-9.78L52.77,215v-.85l2.85-.36h0l.45.34v3.45L56,218.73a4.65,4.65,0,0,1,.49-.39,4.7,4.7,0,0,1,.67-.38,4.64,4.64,0,0,1,.82-.28,3.48,3.48,0,0,1,.93-.12,3.11,3.11,0,0,1,1.19.2,1.58,1.58,0,0,1,.74.61,2.84,2.84,0,0,1,.39,1,9.17,9.17,0,0,1,.11,1.49V225l1,.14v1H58.27v-.95l.82-.16v-4.09A7.35,7.35,0,0,0,59,220a1.51,1.51,0,0,0-.2-.6.83.83,0,0,0-.39-.35,1.54,1.54,0,0,0-.65-.12,2,2,0,0,0-.47.06,3.59,3.59,0,0,0-.47.12,4.08,4.08,0,0,0-.42.18,2.39,2.39,0,0,0-.33.2V225l1,.14v1Z"/><path class="cls-2" d="M67.08,226.24a4.51,4.51,0,0,1-1.77-.32,3.09,3.09,0,0,1-1.22-.9,3.65,3.65,0,0,1-.71-1.37,6.37,6.37,0,0,1-.23-1.74,5.51,5.51,0,0,1,.29-1.84,4,4,0,0,1,.82-1.38,3.58,3.58,0,0,1,1.26-.86,4.37,4.37,0,0,1,1.65-.3c2,0,3.08,1,3.17,3a9,9,0,0,1,0,.91,4.21,4.21,0,0,1-.07.69H65.47a4.67,4.67,0,0,0,.22,1.24,2.27,2.27,0,0,0,.46.83,1.64,1.64,0,0,0,.67.47,2.45,2.45,0,0,0,.87.15,3.77,3.77,0,0,0,.69-.06,4.38,4.38,0,0,0,.6-.15,3.26,3.26,0,0,0,.5-.2l.38-.21.38.89a3,3,0,0,1-.51.4,4.63,4.63,0,0,1-.74.38,5.37,5.37,0,0,1-.91.29A4.21,4.21,0,0,1,67.08,226.24Zm-.19-7.73a1.32,1.32,0,0,0-.53.1,1,1,0,0,0-.44.39,2.61,2.61,0,0,0-.3.79,7.09,7.09,0,0,0-.15,1.32H68.1V221a.62.62,0,0,1,0-.13v-.24a6.61,6.61,0,0,0,0-.76,2.7,2.7,0,0,0-.19-.68,1.3,1.3,0,0,0-.37-.49A.93.93,0,0,0,66.89,218.51Z"/><path class="cls-2" d="M71.34,223.85a2.15,2.15,0,0,1,.73-1.69,3.3,3.3,0,0,1,.8-.54,5.14,5.14,0,0,1,1-.36,6.42,6.42,0,0,1,1.11-.21,11.3,11.3,0,0,1,1.16-.08v-.35a1.71,1.71,0,0,0-.34-1.19,1.49,1.49,0,0,0-1.12-.36,5.25,5.25,0,0,0-.79.06c-.27,0-.53.1-.77.16s-.47.13-.68.2l-.53.22h0l-.43-1a3.74,3.74,0,0,1,.52-.33,8.44,8.44,0,0,1,.88-.39,7.74,7.74,0,0,1,1.14-.33,6,6,0,0,1,1.28-.14,4.62,4.62,0,0,1,1.38.18,2,2,0,0,1,.92.54,2.13,2.13,0,0,1,.52.92,4.78,4.78,0,0,1,.17,1.33v4.57h.9v.9l-.34.07a3,3,0,0,1-.45.09l-.54.07a5.49,5.49,0,0,1-.58,0l-.46,0a.59.59,0,0,1-.29-.1.44.44,0,0,1-.17-.23,1.47,1.47,0,0,1,0-.41v-.42a2.84,2.84,0,0,1-.35.37,2.51,2.51,0,0,1-.53.39,3.21,3.21,0,0,1-.7.3,3,3,0,0,1-.87.12,3.1,3.1,0,0,1-1-.14,2,2,0,0,1-.79-.43,1.91,1.91,0,0,1-.54-.75A2.69,2.69,0,0,1,71.34,223.85Zm3.48,1a1.13,1.13,0,0,0,.3,0,2.68,2.68,0,0,0,.35-.1,2.83,2.83,0,0,0,.36-.16,1.41,1.41,0,0,0,.31-.21V221.9A4.45,4.45,0,0,0,75,222a2.4,2.4,0,0,0-.77.35,1.28,1.28,0,0,0-.4.51,1.39,1.39,0,0,0-.13.61,1.46,1.46,0,0,0,.3,1A1.12,1.12,0,0,0,74.82,224.83Z"/><path class="cls-2" d="M80.08,226.07v-1l1-.14v-5.64l-1-.31v-1.1l2.5-.36h0l.38.32v1.75h0a2.62,2.62,0,0,1,.31-.59,4.09,4.09,0,0,1,.58-.69,3.27,3.27,0,0,1,.78-.57,2,2,0,0,1,1-.24,1.68,1.68,0,0,1,.35,0l.2,0v2.54a1.35,1.35,0,0,0-.42-.13,3.88,3.88,0,0,0-.81-.07l-.51,0-.48.08a3.26,3.26,0,0,0-.4.11,1.13,1.13,0,0,0-.27.13V225l1.82.17v.95Z"/><path class="cls-2" d="M88.05,224.32v-5.4H87v-.83l.19-.06.26-.1.25-.1.14-.07a2.25,2.25,0,0,0,.52-.7l.16-.34c.06-.13.12-.27.17-.41s.11-.28.16-.42.09-.27.12-.38h1.31l0,2.17h2.15v1.24H90.31V223c0,.39,0,.7,0,.93a1.52,1.52,0,0,0,.09.52.33.33,0,0,0,.21.23,1.42,1.42,0,0,0,.41.05h0l.37,0,.38-.07a3,3,0,0,0,.35-.09l.26-.08h0l.35.86a4.26,4.26,0,0,1-.54.33,4.48,4.48,0,0,1-.7.31,6.54,6.54,0,0,1-.82.22,4.91,4.91,0,0,1-.86.08h0a2.45,2.45,0,0,1-.82-.12,1.37,1.37,0,0,1-.55-.37,1.67,1.67,0,0,1-.31-.61A3.37,3.37,0,0,1,88.05,224.32Z"/><path class="cls-2" d="M98.07,226.07v-1L99,225v-9.78l-1.1-.19v-.85l2.85-.36h0l.45.34,0,3.45-.12,1.17a6,6,0,0,1,.49-.39,4.7,4.7,0,0,1,.67-.38,4.64,4.64,0,0,1,.82-.28,3.59,3.59,0,0,1,.93-.12,3.11,3.11,0,0,1,1.19.2,1.58,1.58,0,0,1,.74.61,2.52,2.52,0,0,1,.39,1,8.09,8.09,0,0,1,.12,1.49V225l1,.14v1h-4.1v-.95l.81-.16v-4.09a7.35,7.35,0,0,0,0-.88,1.51,1.51,0,0,0-.2-.6.78.78,0,0,0-.39-.35,1.54,1.54,0,0,0-.65-.12,2,2,0,0,0-.47.06,3.45,3.45,0,0,0-.46.12,4.08,4.08,0,0,0-.42.18,1.59,1.59,0,0,0-.33.2V225l1,.14v1Z"/><path class="cls-2" d="M112.19,226.24a4.56,4.56,0,0,1-1.78-.32,3.16,3.16,0,0,1-1.22-.9,3.65,3.65,0,0,1-.71-1.37,6.37,6.37,0,0,1-.23-1.74,5.51,5.51,0,0,1,.29-1.84,4.11,4.11,0,0,1,.82-1.38,3.53,3.53,0,0,1,1.27-.86,4.32,4.32,0,0,1,1.64-.3c2,0,3.08,1,3.17,3,0,.34,0,.64,0,.91a5.5,5.5,0,0,1-.08.69h-4.78a4.32,4.32,0,0,0,.21,1.24,2.43,2.43,0,0,0,.46.83,1.67,1.67,0,0,0,.68.47,2.39,2.39,0,0,0,.86.15,3.69,3.69,0,0,0,.69-.06,4.38,4.38,0,0,0,.6-.15,3.26,3.26,0,0,0,.5-.2,2.59,2.59,0,0,0,.38-.21l.38.89a3.34,3.34,0,0,1-.5.4,5.24,5.24,0,0,1-.75.38,5.1,5.1,0,0,1-.91.29A4.19,4.19,0,0,1,112.19,226.24Zm-.2-7.73a1.32,1.32,0,0,0-.53.1.94.94,0,0,0-.43.39,2.36,2.36,0,0,0-.31.79,7.09,7.09,0,0,0-.15,1.32h2.63V221s0-.08,0-.13v-.24a4.93,4.93,0,0,0,0-.76,2.71,2.71,0,0,0-.18-.68,1.44,1.44,0,0,0-.38-.49A.93.93,0,0,0,112,218.51Z"/><path class="cls-2" d="M116.44,223.85a2.24,2.24,0,0,1,.73-1.69,3.51,3.51,0,0,1,.8-.54,5.14,5.14,0,0,1,1-.36,6.8,6.8,0,0,1,1.11-.21,11.3,11.3,0,0,1,1.16-.08v-.35a1.66,1.66,0,0,0-.34-1.19,1.49,1.49,0,0,0-1.12-.36,5.25,5.25,0,0,0-.79.06c-.27,0-.52.1-.77.16s-.47.13-.67.2l-.54.22h0l-.44-1a4.49,4.49,0,0,1,.52-.33A8.44,8.44,0,0,1,118,218a8.11,8.11,0,0,1,1.14-.33,6,6,0,0,1,1.28-.14,4.62,4.62,0,0,1,1.38.18,2,2,0,0,1,.92.54,2.13,2.13,0,0,1,.52.92,4.78,4.78,0,0,1,.17,1.33v4.57h.91v.9l-.35.07a2.75,2.75,0,0,1-.45.09l-.54.07a5.49,5.49,0,0,1-.58,0l-.45,0a.59.59,0,0,1-.3-.1.5.5,0,0,1-.17-.23,1.47,1.47,0,0,1,0-.41v-.42a3.5,3.5,0,0,1-.34.37,3.16,3.16,0,0,1-.53.39,3.52,3.52,0,0,1-.71.3,3,3,0,0,1-.87.12,3.14,3.14,0,0,1-1-.14,2.1,2.1,0,0,1-.79-.43,1.91,1.91,0,0,1-.54-.75A2.69,2.69,0,0,1,116.44,223.85Zm3.48,1a1.13,1.13,0,0,0,.3,0,2.68,2.68,0,0,0,.35-.1,2,2,0,0,0,.36-.16,1.41,1.41,0,0,0,.31-.21V221.9a4.5,4.5,0,0,0-1.19.13,2.51,2.51,0,0,0-.77.35,1.28,1.28,0,0,0-.4.51,1.54,1.54,0,0,0-.12.61,1.52,1.52,0,0,0,.29,1A1.12,1.12,0,0,0,119.92,224.83Z"/><path class="cls-2" d="M125,226.07v-1L126,225v-9.78l-1.1-.19v-.85l2.87-.36h0l.46.34V225l1.11.14v1Z"/><path class="cls-2" d="M131.16,224.32v-5.4h-1v-.83l.19-.06.26-.1.25-.1.14-.07a2.42,2.42,0,0,0,.52-.7l.16-.34c.06-.13.11-.27.17-.41s.11-.28.16-.42.09-.27.12-.38h1.31l0,2.17h2.15v1.24h-2.15V223c0,.39,0,.7,0,.93a1.88,1.88,0,0,0,.08.52.36.36,0,0,0,.22.23,1.4,1.4,0,0,0,.4.05h0l.37,0,.38-.07a2.37,2.37,0,0,0,.34-.09l.27-.08h0l.35.86a5.15,5.15,0,0,1-1.25.64,6,6,0,0,1-.81.22,4.91,4.91,0,0,1-.86.08h0a2.51,2.51,0,0,1-.83-.12,1.44,1.44,0,0,1-.55-.37,1.52,1.52,0,0,1-.3-.61A3.35,3.35,0,0,1,131.16,224.32Z"/><path class="cls-2" d="M136.47,226.07v-1l.91-.14v-9.78l-1.1-.19v-.85l2.85-.36h0l.45.34v3.45l-.11,1.17a4.65,4.65,0,0,1,.49-.39,4.7,4.7,0,0,1,.67-.38,4.64,4.64,0,0,1,.82-.28,3.48,3.48,0,0,1,.93-.12,3.11,3.11,0,0,1,1.19.2,1.58,1.58,0,0,1,.74.61,2.84,2.84,0,0,1,.39,1,8.17,8.17,0,0,1,.11,1.49V225l1,.14v1h-4.11v-.95l.82-.16v-4.09a7.35,7.35,0,0,0,0-.88,1.51,1.51,0,0,0-.2-.6A.78.78,0,0,0,142,219a1.54,1.54,0,0,0-.65-.12,2,2,0,0,0-.47.06,3.59,3.59,0,0,0-.47.12l-.42.18a2.39,2.39,0,0,0-.33.2V225l1,.14v1Z"/><path class="cls-2" d="M148.65,226.2a1.62,1.62,0,0,1-.49-.08,1.3,1.3,0,0,1-.41-.24,1,1,0,0,1-.27-.37,1.06,1.06,0,0,1-.11-.48,1.31,1.31,0,0,1,.12-.56,1.55,1.55,0,0,1,.32-.44,1.5,1.5,0,0,1,.48-.3,1.57,1.57,0,0,1,.58-.1,1.82,1.82,0,0,1,.61.09,1.16,1.16,0,0,1,.4.26,1,1,0,0,1,.23.37,1.7,1.7,0,0,1,.07.46,1.32,1.32,0,0,1-.12.57,1.25,1.25,0,0,1-.31.44,1.52,1.52,0,0,1-.48.28A1.79,1.79,0,0,1,148.65,226.2Z"/><path class="cls-1" d="M25,208.07v-1l.94-.21,3.53-10H31.8l3.53,10,1,.21v1H31.59v-1l1.2-.21-.55-1.78h-4l-.52,1.79,1.21.2v1Zm5-8.86-1.36,4.72h3.29l-1.44-4.72-.25-1.07Z"/><path class="cls-1" d="M41.44,207.6v-2h1.34l.38,1.14a.8.8,0,0,0,.21.19,1.58,1.58,0,0,0,.32.17,2.1,2.1,0,0,0,.42.12,2.63,2.63,0,0,0,.49.05,1.72,1.72,0,0,0,.6-.09,1.21,1.21,0,0,0,.37-.22.93.93,0,0,0,.19-.31,1.4,1.4,0,0,0,.05-.34.88.88,0,0,0-.16-.53,1.51,1.51,0,0,0-.45-.41,5,5,0,0,0-.7-.36l-.9-.38a5.94,5.94,0,0,1-.91-.46,3.28,3.28,0,0,1-.69-.57,2.32,2.32,0,0,1-.37-2.53,2.05,2.05,0,0,1,.64-.77,3.28,3.28,0,0,1,1.06-.52,5.27,5.27,0,0,1,1.45-.18,5.52,5.52,0,0,1,.86.06c.25,0,.48.08.69.13l.56.16a3.36,3.36,0,0,0,.5.13v2l-1.27,0-.35-1a1,1,0,0,0-.39-.33,1.53,1.53,0,0,0-.72-.16,1.71,1.71,0,0,0-.55.07.89.89,0,0,0-.36.2.73.73,0,0,0-.2.27.81.81,0,0,0-.06.31,1,1,0,0,0,.2.62,1.72,1.72,0,0,0,.5.42,4,4,0,0,0,.66.29l.68.28c.32.14.63.29.92.45a3.5,3.5,0,0,1,.78.55,2.28,2.28,0,0,1,.54.73,2.15,2.15,0,0,1,.21,1,2.31,2.31,0,0,1-.21,1,2.09,2.09,0,0,1-.63.79,3.1,3.1,0,0,1-1.06.53,5,5,0,0,1-1.48.19,6.83,6.83,0,0,1-1.06-.08,8.16,8.16,0,0,1-.87-.19l-.7-.21Z"/><path class="cls-1" d="M49.09,208.07v-1l1.07-.14v-5.64l-1-.31v-1.1l2.69-.36h0l.54.32V207l1.06.14v1ZM51,198.3a1.11,1.11,0,0,1-.46-.09,1.25,1.25,0,0,1-.34-.25,1,1,0,0,1-.2-.38,1.39,1.39,0,0,1-.07-.46,1.61,1.61,0,0,1,.08-.54,1.42,1.42,0,0,1,.23-.44,1.35,1.35,0,0,1,.4-.3,1.4,1.4,0,0,1,.56-.11h0a1.21,1.21,0,0,1,.52.1,1.19,1.19,0,0,1,.36.26,1.11,1.11,0,0,1,.22.38,1.63,1.63,0,0,1,.07.45,1.85,1.85,0,0,1-.08.54,1.26,1.26,0,0,1-.25.44,1.08,1.08,0,0,1-.42.3,1.68,1.68,0,0,1-.62.1Z"/><path class="cls-1" d="M54.6,208.07v-.95l.91-.17v-5.64l-1-.31v-1.1l2.59-.36h0l.38.32v.87a3.73,3.73,0,0,1,.6-.44,6,6,0,0,1,.76-.38,6.09,6.09,0,0,1,.83-.25,3.44,3.44,0,0,1,.81-.1,2.82,2.82,0,0,1,1.34.27,1.71,1.71,0,0,1,.75.87,4.8,4.8,0,0,1,.54-.39,5.66,5.66,0,0,1,.74-.36,7.05,7.05,0,0,1,.85-.28,3.69,3.69,0,0,1,.86-.11,3.23,3.23,0,0,1,1.15.18,1.67,1.67,0,0,1,.74.57,2.7,2.7,0,0,1,.39,1,8.44,8.44,0,0,1,.12,1.54V207l1,.17v.95H65v-.95l.77-.17v-4a6.46,6.46,0,0,0-.06-1,1.66,1.66,0,0,0-.21-.63,1,1,0,0,0-.39-.36,1.67,1.67,0,0,0-.63-.1,1.51,1.51,0,0,0-.4,0,2.44,2.44,0,0,0-.44.13,2.63,2.63,0,0,0-.42.17,2,2,0,0,0-.36.19,6.16,6.16,0,0,1,.08.67c0,.24,0,.5,0,.79V207l1,.16v.95h-4.1v-.95l.88-.16v-4.09a5.61,5.61,0,0,0-.06-.88,1.51,1.51,0,0,0-.2-.6A.78.78,0,0,0,60,201a1.4,1.4,0,0,0-.62-.12A1.8,1.8,0,0,0,59,201a3.59,3.59,0,0,0-.47.12,4.08,4.08,0,0,0-.42.18,3,3,0,0,0-.32.2V207l1,.17v.95Z"/><path class="cls-1" d="M69.77,210.78l1.1-.19v-9.28l-1-.31v-1.1l2.62-.36h0l.38.32v.77a2.82,2.82,0,0,1,.43-.41,3.16,3.16,0,0,1,.56-.36,4.05,4.05,0,0,1,.67-.25,3.55,3.55,0,0,1,2.05.14,2.54,2.54,0,0,1,1,.72,3.41,3.41,0,0,1,.7,1.28,6.44,6.44,0,0,1,.25,1.88,5.39,5.39,0,0,1-.3,1.82,4.42,4.42,0,0,1-.85,1.46,4,4,0,0,1-1.36,1,4.48,4.48,0,0,1-1.8.35h-.36l-.34,0-.3,0-.21-.05,0,1.22v1.27l1.45.19v.93h-4.8Zm4.66-9.93a1.78,1.78,0,0,0-.78.16,1.57,1.57,0,0,0-.53.35v5.55a1.06,1.06,0,0,0,.4.24,1.94,1.94,0,0,0,.68.11,1.79,1.79,0,0,0,.75-.17,1.75,1.75,0,0,0,.62-.57,3.51,3.51,0,0,0,.42-1,7,7,0,0,0,.18-1.58,6.5,6.5,0,0,0-.11-1.41,2.93,2.93,0,0,0-.35-.94,1.33,1.33,0,0,0-.55-.53A1.6,1.6,0,0,0,74.43,200.85Z"/><path class="cls-1" d="M79.54,208.07v-1L80.6,207v-9.78L79.51,197v-.85l2.86-.36h0l.46.34V207l1.11.14v1Z"/><path class="cls-1" d="M88.75,208.24a4.56,4.56,0,0,1-1.78-.32,3.16,3.16,0,0,1-1.22-.9,3.8,3.8,0,0,1-.71-1.37,6.38,6.38,0,0,1-.22-1.74,5.27,5.27,0,0,1,.29-1.84,3.94,3.94,0,0,1,.81-1.38,3.62,3.62,0,0,1,1.27-.86,4.32,4.32,0,0,1,1.64-.3c2,0,3.08,1,3.17,3,0,.34,0,.64,0,.91a4.1,4.1,0,0,1-.08.69H87.14a4.32,4.32,0,0,0,.21,1.24,2.43,2.43,0,0,0,.46.83,1.67,1.67,0,0,0,.68.47,2.39,2.39,0,0,0,.86.15,3.88,3.88,0,0,0,.7-.06,4.61,4.61,0,0,0,.59-.15,2.89,2.89,0,0,0,.5-.2,3.44,3.44,0,0,0,.39-.21l.38.89a4.14,4.14,0,0,1-.51.4,5.24,5.24,0,0,1-.75.38,4.85,4.85,0,0,1-.91.29A4.07,4.07,0,0,1,88.75,208.24Zm-.2-7.73a1.32,1.32,0,0,0-.53.1,1,1,0,0,0-.43.39,2.36,2.36,0,0,0-.31.79,7.09,7.09,0,0,0-.15,1.32h2.63V203a.53.53,0,0,0,0-.13c0-.05,0-.1,0-.14v-.1a5,5,0,0,0-.06-.76,2.34,2.34,0,0,0-.18-.68,1.32,1.32,0,0,0-.38-.49A.93.93,0,0,0,88.55,200.51Z"/><path class="cls-1" d="M98.08,207.6v-2h1.35l.38,1.14a.74.74,0,0,0,.2.19,1.91,1.91,0,0,0,.32.17,2.58,2.58,0,0,0,.42.12,2.65,2.65,0,0,0,.5.05,1.63,1.63,0,0,0,.59-.09,1,1,0,0,0,.37-.22.79.79,0,0,0,.19-.31,1,1,0,0,0,0-.34.94.94,0,0,0-.15-.53,1.81,1.81,0,0,0-.45-.41,5.63,5.63,0,0,0-.7-.36l-.91-.38a5.94,5.94,0,0,1-.91-.46,3.21,3.21,0,0,1-.68-.57,2.43,2.43,0,0,1-.44-.7,2.41,2.41,0,0,1-.15-.87,2.05,2.05,0,0,1,.22-1,2,2,0,0,1,.64-.77,3.22,3.22,0,0,1,1-.52,5.35,5.35,0,0,1,1.46-.18,5.52,5.52,0,0,1,.86.06c.25,0,.48.08.68.13l.57.16a3.07,3.07,0,0,0,.5.13v2l-1.28,0-.34-1a1,1,0,0,0-.39-.33,1.55,1.55,0,0,0-.73-.16,1.75,1.75,0,0,0-.55.07.89.89,0,0,0-.36.2.7.7,0,0,0-.19.27.81.81,0,0,0-.06.31,1,1,0,0,0,.2.62,1.68,1.68,0,0,0,.49.42,4.39,4.39,0,0,0,.66.29c.24.09.47.18.69.28s.63.29.92.45a4,4,0,0,1,.78.55,2.21,2.21,0,0,1,.74,1.71,2.31,2.31,0,0,1-.21,1,2.09,2.09,0,0,1-.63.79,3,3,0,0,1-1,.53,5.07,5.07,0,0,1-1.48.19,6.83,6.83,0,0,1-1.06-.08,8.16,8.16,0,0,1-.87-.19c-.27-.07-.5-.14-.7-.21Z"/><path class="cls-1" d="M105.66,204a5.25,5.25,0,0,1,.3-1.81,4.13,4.13,0,0,1,.84-1.41,3.91,3.91,0,0,1,1.33-.92,4.66,4.66,0,0,1,1.75-.32,8.12,8.12,0,0,1,.9,0c.27,0,.52.08.73.13l.56.15.38.12-.07,2.5h-1.29l-.43-1.29a1.44,1.44,0,0,0-.39-.48.92.92,0,0,0-.57-.18,1.29,1.29,0,0,0-.63.17,1.54,1.54,0,0,0-.53.52,3.2,3.2,0,0,0-.37.92,5.86,5.86,0,0,0-.14,1.36,6.8,6.8,0,0,0,.15,1.54,2.54,2.54,0,0,0,.42,1,1.5,1.5,0,0,0,.67.56,2.07,2.07,0,0,0,.88.18,3.21,3.21,0,0,0,1.18-.19,4.61,4.61,0,0,0,.83-.39l.39.88a2.28,2.28,0,0,1-.45.37,3.81,3.81,0,0,1-.67.38,4.25,4.25,0,0,1-.85.29,3.85,3.85,0,0,1-1,.12,4.56,4.56,0,0,1-1.78-.32,3.2,3.2,0,0,1-1.23-.89,3.83,3.83,0,0,1-.71-1.36A6.06,6.06,0,0,1,105.66,204Z"/><path class="cls-1" d="M113.59,208.07v-1l1.06-.14v-5.64l-1-.31v-1.1l2.51-.36h0l.39.32v1.75h0a3.25,3.25,0,0,1,.32-.59,3.6,3.6,0,0,1,.57-.69,3.55,3.55,0,0,1,.79-.57,2,2,0,0,1,1-.24,1.68,1.68,0,0,1,.35,0l.2,0v2.54a1.59,1.59,0,0,0-.42-.13,3.88,3.88,0,0,0-.81-.07l-.52,0-.48.08-.39.11a1.49,1.49,0,0,0-.28.13V207l1.83.17v.95Z"/><path class="cls-1" d="M124.57,208.24a4.53,4.53,0,0,1-1.78-.32,3.09,3.09,0,0,1-1.22-.9,3.65,3.65,0,0,1-.71-1.37,6.37,6.37,0,0,1-.23-1.74,5.51,5.51,0,0,1,.29-1.84,4,4,0,0,1,.82-1.38,3.53,3.53,0,0,1,1.27-.86,4.32,4.32,0,0,1,1.64-.3c2,0,3.08,1,3.17,3a9,9,0,0,1,0,.91,4.21,4.21,0,0,1-.07.69H123a4.67,4.67,0,0,0,.22,1.24,2.27,2.27,0,0,0,.46.83,1.61,1.61,0,0,0,.68.47,2.35,2.35,0,0,0,.86.15,3.69,3.69,0,0,0,.69-.06,4.38,4.38,0,0,0,.6-.15,3.91,3.91,0,0,0,.88-.41l.38.89a3,3,0,0,1-.51.4,4.63,4.63,0,0,1-.74.38,5.1,5.1,0,0,1-.91.29A4.19,4.19,0,0,1,124.57,208.24Zm-.2-7.73a1.32,1.32,0,0,0-.53.1,1,1,0,0,0-.44.39,2.61,2.61,0,0,0-.3.79,7.09,7.09,0,0,0-.15,1.32h2.63V203a.62.62,0,0,1,0-.13v-.24a6.61,6.61,0,0,0,0-.76,2.34,2.34,0,0,0-.19-.68,1.3,1.3,0,0,0-.37-.49A.93.93,0,0,0,124.37,200.51Z"/><path class="cls-1" d="M132.81,208.24a4.48,4.48,0,0,1-1.77-.32,3.12,3.12,0,0,1-1.23-.9,3.63,3.63,0,0,1-.7-1.37,6.37,6.37,0,0,1-.23-1.74,5.51,5.51,0,0,1,.29-1.84,3.81,3.81,0,0,1,.82-1.38,3.58,3.58,0,0,1,1.26-.86,4.35,4.35,0,0,1,1.64-.3c2,0,3.09,1,3.17,3,0,.34,0,.64,0,.91a4.1,4.1,0,0,1-.08.69H131.2a5.15,5.15,0,0,0,.21,1.24,2.29,2.29,0,0,0,.47.83,1.64,1.64,0,0,0,.67.47,2.39,2.39,0,0,0,.86.15,3.88,3.88,0,0,0,.7-.06,5.26,5.26,0,0,0,.6-.15,3.13,3.13,0,0,0,.49-.2,3.44,3.44,0,0,0,.39-.21l.38.89a3,3,0,0,1-.51.4,5.24,5.24,0,0,1-.75.38,5,5,0,0,1-.9.29A4.21,4.21,0,0,1,132.81,208.24Zm-.2-7.73a1.35,1.35,0,0,0-.53.1,1,1,0,0,0-.43.39,2.59,2.59,0,0,0-.31.79,7.09,7.09,0,0,0-.15,1.32h2.63a.49.49,0,0,1,0-.11v-.13a.71.71,0,0,0,0-.14v-.1a6.61,6.61,0,0,0-.05-.76,2.7,2.7,0,0,0-.19-.68,1.41,1.41,0,0,0-.37-.49A1,1,0,0,0,132.61,200.51Z"/><path class="cls-1" d="M137.31,208.07v-1l.94-.14v-5.64l-1-.31v-1.1l2.62-.36h0l.39.32v.87a4.3,4.3,0,0,1,1.28-.81,5.47,5.47,0,0,1,.81-.26,4.12,4.12,0,0,1,.86-.1,3,3,0,0,1,1.17.19,1.5,1.5,0,0,1,.75.58,2.66,2.66,0,0,1,.4,1,8.33,8.33,0,0,1,.12,1.53v4l1,.14v1h-4.13v-1l.8-.14v-4.08a7.35,7.35,0,0,0,0-.88,1.51,1.51,0,0,0-.19-.6.78.78,0,0,0-.37-.35,1.35,1.35,0,0,0-.61-.12,2,2,0,0,0-.49.06,3.09,3.09,0,0,0-.46.14,3,3,0,0,0-.4.2,2.77,2.77,0,0,0-.31.21V207l1,.14v1Z"/><path class="cls-1" d="M147.59,208.07v-1l1.07-.14v-5.64l-1-.31v-1.1l2.69-.36h0l.53.32V207l1.06.14v1Zm1.95-9.77a1.14,1.14,0,0,1-.46-.09,1.2,1.2,0,0,1-.33-.25,1.17,1.17,0,0,1-.21-.38,1.39,1.39,0,0,1-.07-.46,1.91,1.91,0,0,1,.08-.54,1.26,1.26,0,0,1,.24-.44,1.24,1.24,0,0,1,.4-.3,1.31,1.31,0,0,1,.55-.11h0a1.13,1.13,0,0,1,.51.1,1,1,0,0,1,.36.26,1.11,1.11,0,0,1,.22.38,1.33,1.33,0,0,1,.07.45,1.85,1.85,0,0,1-.08.54,1.12,1.12,0,0,1-.25.44,1.08,1.08,0,0,1-.42.3,1.63,1.63,0,0,1-.61.1Z"/><path class="cls-1" d="M153.07,208.07v-1l1-.14v-5.64l-1-.31v-1.1l2.62-.36h0l.39.32v.87a4.71,4.71,0,0,1,.57-.44,5.29,5.29,0,0,1,.71-.37,5.47,5.47,0,0,1,.81-.26,4.12,4.12,0,0,1,.86-.1,3,3,0,0,1,1.17.19,1.5,1.5,0,0,1,.75.58,2.66,2.66,0,0,1,.4,1,8.33,8.33,0,0,1,.12,1.53v4l1,.14v1h-4.13v-1l.8-.14v-4.08a5.73,5.73,0,0,0,0-.88,1.51,1.51,0,0,0-.19-.6.78.78,0,0,0-.37-.35,1.35,1.35,0,0,0-.61-.12,2,2,0,0,0-.49.06,3.09,3.09,0,0,0-.46.14l-.4.2-.31.21V207l1,.14v1Z"/><path class="cls-1" d="M167.1,205.21a6.43,6.43,0,0,1-1.12-.09,1.15,1.15,0,0,0-.2.29.93.93,0,0,0-.08.39.83.83,0,0,0,.09.41.64.64,0,0,0,.3.23,1.81,1.81,0,0,0,.53.12c.21,0,.46,0,.76,0h1.47a4.13,4.13,0,0,1,2.35.53,2,2,0,0,1,.78,1.75,2.41,2.41,0,0,1-.39,1.34,3.38,3.38,0,0,1-1,1,5.41,5.41,0,0,1-1.5.66,7.1,7.1,0,0,1-1.8.23h0a7.61,7.61,0,0,1-1.77-.19,3.71,3.71,0,0,1-1.2-.5,2,2,0,0,1-.7-.77,2.14,2.14,0,0,1-.22-1,1.68,1.68,0,0,1,.12-.63,1.87,1.87,0,0,1,.33-.54,2.46,2.46,0,0,1,.48-.43,2.55,2.55,0,0,1,.57-.29,1.69,1.69,0,0,1-.65-.55,1.41,1.41,0,0,1-.23-.79,1.52,1.52,0,0,1,.29-.94,2.89,2.89,0,0,1,.75-.68,2.31,2.31,0,0,1-1.1-1,2.86,2.86,0,0,1-.36-1.47,2.36,2.36,0,0,1,.3-1.19,2.82,2.82,0,0,1,.81-.91,3.79,3.79,0,0,1,1.19-.59,5.31,5.31,0,0,1,1.46-.2h0a4.31,4.31,0,0,1,2.71.7,1.76,1.76,0,0,1,.28-.25,2,2,0,0,1,.41-.23,2.45,2.45,0,0,1,.5-.17,2.27,2.27,0,0,1,.59-.07h.34v1.64h-1.44c0,.15.09.32.13.49a3.16,3.16,0,0,1,0,.55,2.76,2.76,0,0,1-.27,1.22,2.73,2.73,0,0,1-.78.95,3.65,3.65,0,0,1-1.19.63,5,5,0,0,1-1.54.23Zm-.38,3a5,5,0,0,1-.88-.07,2.55,2.55,0,0,0-.27.42,1.6,1.6,0,0,0-.13.72,2.56,2.56,0,0,0,.13.84,1.38,1.38,0,0,0,.39.55,1.42,1.42,0,0,0,.64.31,3.25,3.25,0,0,0,.87.1h0a4.3,4.3,0,0,0,.87-.1,3,3,0,0,0,.76-.31,1.68,1.68,0,0,0,.53-.53,1.36,1.36,0,0,0,.2-.74,1.79,1.79,0,0,0-.07-.55.79.79,0,0,0-.25-.37,1.31,1.31,0,0,0-.49-.21,4.3,4.3,0,0,0-.79-.06Zm.55-3.94h0a1.16,1.16,0,0,0,.62-.15,1.07,1.07,0,0,0,.38-.41,1.75,1.75,0,0,0,.2-.61,5.74,5.74,0,0,0,.05-.74,2.44,2.44,0,0,0-.31-1.4,1.17,1.17,0,0,0-1-.43h0a1.13,1.13,0,0,0-1,.43,2.35,2.35,0,0,0-.31,1.34,4,4,0,0,0,.07.8,1.81,1.81,0,0,0,.22.62,1,1,0,0,0,.43.4A1.36,1.36,0,0,0,167.27,204.23Z"/><path class="cls-1" d="M25.88,226.07v-1l1.17-.2V219H25.76v-.87l1.29-.37v-.43a3.38,3.38,0,0,1,.36-1.56,4.17,4.17,0,0,1,.92-1.19,4.05,4.05,0,0,1,1.26-.75,3.79,3.79,0,0,1,1.37-.27,2.65,2.65,0,0,1,.57.05,2.24,2.24,0,0,1,.29.08v2.19a.86.86,0,0,0-.27-.2,1.76,1.76,0,0,0-.39-.18c-.14-.05-.3-.09-.46-.13a2.94,2.94,0,0,0-.51-.05,1.36,1.36,0,0,0-.36.05.56.56,0,0,0-.27.15.73.73,0,0,0-.18.31,1.7,1.7,0,0,0-.06.5v1.43h1.88V219H29.33V225l1.62.16v1Z"/><path class="cls-1" d="M32,221.93a5,5,0,0,1,.34-1.94,4.12,4.12,0,0,1,.92-1.38,3.62,3.62,0,0,1,1.32-.82,4.57,4.57,0,0,1,1.56-.27,4.43,4.43,0,0,1,1.69.3,3.24,3.24,0,0,1,1.23.85,3.69,3.69,0,0,1,.75,1.35,6,6,0,0,1,.26,1.81,5.19,5.19,0,0,1-.35,2,3.87,3.87,0,0,1-.91,1.37,3.58,3.58,0,0,1-1.32.8,4.91,4.91,0,0,1-3.24,0,3.41,3.41,0,0,1-1.24-.86,3.71,3.71,0,0,1-.76-1.35A6,6,0,0,1,32,221.93Zm4,3.3a1.33,1.33,0,0,0,.7-.18,1.36,1.36,0,0,0,.49-.56,3.34,3.34,0,0,0,.28-1,9.83,9.83,0,0,0,.09-1.43,11.54,11.54,0,0,0-.08-1.52,4.75,4.75,0,0,0-.27-1.11,1.64,1.64,0,0,0-.49-.68,1.22,1.22,0,0,0-.75-.23,1.29,1.29,0,0,0-.69.18,1.38,1.38,0,0,0-.5.56,3.33,3.33,0,0,0-.29,1,8.5,8.5,0,0,0-.1,1.43,11.4,11.4,0,0,0,.09,1.52,4.07,4.07,0,0,0,.28,1.11,1.65,1.65,0,0,0,.5.68A1.21,1.21,0,0,0,36.07,225.23Z"/><path class="cls-1" d="M41.21,226.07v-1l1-.14v-5.64l-1-.31v-1.1l2.5-.36h0l.38.32v1.75h0a2.62,2.62,0,0,1,.31-.59,4.09,4.09,0,0,1,.58-.69,3.27,3.27,0,0,1,.78-.57,2,2,0,0,1,1-.24,1.68,1.68,0,0,1,.35,0l.2,0v2.54A1.35,1.35,0,0,0,47,220a3.88,3.88,0,0,0-.81-.07l-.51,0-.48.08a3.26,3.26,0,0,0-.4.11,1.13,1.13,0,0,0-.27.13V225l1.82.17v.95Z"/><path class="cls-2" d="M53,226.07v-1l.9-.14v-9.78L52.77,215v-.85l2.85-.36h0l.45.34v3.45L56,218.73a4.65,4.65,0,0,1,.49-.39,4.7,4.7,0,0,1,.67-.38,4.64,4.64,0,0,1,.82-.28,3.48,3.48,0,0,1,.93-.12,3.11,3.11,0,0,1,1.19.2,1.58,1.58,0,0,1,.74.61,2.84,2.84,0,0,1,.39,1,9.17,9.17,0,0,1,.11,1.49V225l1,.14v1H58.27v-.95l.82-.16v-4.09A7.35,7.35,0,0,0,59,220a1.51,1.51,0,0,0-.2-.6.83.83,0,0,0-.39-.35,1.54,1.54,0,0,0-.65-.12,2,2,0,0,0-.47.06,3.59,3.59,0,0,0-.47.12,4.08,4.08,0,0,0-.42.18,2.39,2.39,0,0,0-.33.2V225l1,.14v1Z"/><path class="cls-2" d="M67.08,226.24a4.51,4.51,0,0,1-1.77-.32,3.09,3.09,0,0,1-1.22-.9,3.65,3.65,0,0,1-.71-1.37,6.37,6.37,0,0,1-.23-1.74,5.51,5.51,0,0,1,.29-1.84,4,4,0,0,1,.82-1.38,3.58,3.58,0,0,1,1.26-.86,4.37,4.37,0,0,1,1.65-.3c2,0,3.08,1,3.17,3a9,9,0,0,1,0,.91,4.21,4.21,0,0,1-.07.69H65.47a4.67,4.67,0,0,0,.22,1.24,2.27,2.27,0,0,0,.46.83,1.64,1.64,0,0,0,.67.47,2.45,2.45,0,0,0,.87.15,3.77,3.77,0,0,0,.69-.06,4.38,4.38,0,0,0,.6-.15,3.26,3.26,0,0,0,.5-.2l.38-.21.38.89a3,3,0,0,1-.51.4,4.63,4.63,0,0,1-.74.38,5.37,5.37,0,0,1-.91.29A4.21,4.21,0,0,1,67.08,226.24Zm-.19-7.73a1.32,1.32,0,0,0-.53.1,1,1,0,0,0-.44.39,2.61,2.61,0,0,0-.3.79,7.09,7.09,0,0,0-.15,1.32H68.1V221a.62.62,0,0,1,0-.13v-.24a6.61,6.61,0,0,0,0-.76,2.7,2.7,0,0,0-.19-.68,1.3,1.3,0,0,0-.37-.49A.93.93,0,0,0,66.89,218.51Z"/><path class="cls-2" d="M71.34,223.85a2.15,2.15,0,0,1,.73-1.69,3.3,3.3,0,0,1,.8-.54,5.14,5.14,0,0,1,1-.36,6.42,6.42,0,0,1,1.11-.21,11.3,11.3,0,0,1,1.16-.08v-.35a1.71,1.71,0,0,0-.34-1.19,1.49,1.49,0,0,0-1.12-.36,5.25,5.25,0,0,0-.79.06c-.27,0-.53.1-.77.16s-.47.13-.68.2l-.53.22h0l-.43-1a3.74,3.74,0,0,1,.52-.33,8.44,8.44,0,0,1,.88-.39,7.74,7.74,0,0,1,1.14-.33,6,6,0,0,1,1.28-.14,4.62,4.62,0,0,1,1.38.18,2,2,0,0,1,.92.54,2.13,2.13,0,0,1,.52.92,4.78,4.78,0,0,1,.17,1.33v4.57h.9v.9l-.34.07a3,3,0,0,1-.45.09l-.54.07a5.49,5.49,0,0,1-.58,0l-.46,0a.59.59,0,0,1-.29-.1.44.44,0,0,1-.17-.23,1.47,1.47,0,0,1,0-.41v-.42a2.84,2.84,0,0,1-.35.37,2.51,2.51,0,0,1-.53.39,3.21,3.21,0,0,1-.7.3,3,3,0,0,1-.87.12,3.1,3.1,0,0,1-1-.14,2,2,0,0,1-.79-.43,1.91,1.91,0,0,1-.54-.75A2.69,2.69,0,0,1,71.34,223.85Zm3.48,1a1.13,1.13,0,0,0,.3,0,2.68,2.68,0,0,0,.35-.1,2.83,2.83,0,0,0,.36-.16,1.41,1.41,0,0,0,.31-.21V221.9A4.45,4.45,0,0,0,75,222a2.4,2.4,0,0,0-.77.35,1.28,1.28,0,0,0-.4.51,1.39,1.39,0,0,0-.13.61,1.46,1.46,0,0,0,.3,1A1.12,1.12,0,0,0,74.82,224.83Z"/><path class="cls-2" d="M80.08,226.07v-1l1-.14v-5.64l-1-.31v-1.1l2.5-.36h0l.38.32v1.75h0a2.62,2.62,0,0,1,.31-.59,4.09,4.09,0,0,1,.58-.69,3.27,3.27,0,0,1,.78-.57,2,2,0,0,1,1-.24,1.68,1.68,0,0,1,.35,0l.2,0v2.54a1.35,1.35,0,0,0-.42-.13,3.88,3.88,0,0,0-.81-.07l-.51,0-.48.08a3.26,3.26,0,0,0-.4.11,1.13,1.13,0,0,0-.27.13V225l1.82.17v.95Z"/><path class="cls-2" d="M88.05,224.32v-5.4H87v-.83l.19-.06.26-.1.25-.1.14-.07a2.25,2.25,0,0,0,.52-.7l.16-.34c.06-.13.12-.27.17-.41s.11-.28.16-.42.09-.27.12-.38h1.31l0,2.17h2.15v1.24H90.31V223c0,.39,0,.7,0,.93a1.52,1.52,0,0,0,.09.52.33.33,0,0,0,.21.23,1.42,1.42,0,0,0,.41.05h0l.37,0,.38-.07a3,3,0,0,0,.35-.09l.26-.08h0l.35.86a4.26,4.26,0,0,1-.54.33,4.48,4.48,0,0,1-.7.31,6.54,6.54,0,0,1-.82.22,4.91,4.91,0,0,1-.86.08h0a2.45,2.45,0,0,1-.82-.12,1.37,1.37,0,0,1-.55-.37,1.67,1.67,0,0,1-.31-.61A3.37,3.37,0,0,1,88.05,224.32Z"/><path class="cls-2" d="M98.07,226.07v-1L99,225v-9.78l-1.1-.19v-.85l2.85-.36h0l.45.34,0,3.45-.12,1.17a6,6,0,0,1,.49-.39,4.7,4.7,0,0,1,.67-.38,4.64,4.64,0,0,1,.82-.28,3.59,3.59,0,0,1,.93-.12,3.11,3.11,0,0,1,1.19.2,1.58,1.58,0,0,1,.74.61,2.52,2.52,0,0,1,.39,1,8.09,8.09,0,0,1,.12,1.49V225l1,.14v1h-4.1v-.95l.81-.16v-4.09a7.35,7.35,0,0,0,0-.88,1.51,1.51,0,0,0-.2-.6.78.78,0,0,0-.39-.35,1.54,1.54,0,0,0-.65-.12,2,2,0,0,0-.47.06,3.45,3.45,0,0,0-.46.12,4.08,4.08,0,0,0-.42.18,1.59,1.59,0,0,0-.33.2V225l1,.14v1Z"/><path class="cls-2" d="M112.19,226.24a4.56,4.56,0,0,1-1.78-.32,3.16,3.16,0,0,1-1.22-.9,3.65,3.65,0,0,1-.71-1.37,6.37,6.37,0,0,1-.23-1.74,5.51,5.51,0,0,1,.29-1.84,4.11,4.11,0,0,1,.82-1.38,3.53,3.53,0,0,1,1.27-.86,4.32,4.32,0,0,1,1.64-.3c2,0,3.08,1,3.17,3,0,.34,0,.64,0,.91a5.5,5.5,0,0,1-.08.69h-4.78a4.32,4.32,0,0,0,.21,1.24,2.43,2.43,0,0,0,.46.83,1.67,1.67,0,0,0,.68.47,2.39,2.39,0,0,0,.86.15,3.69,3.69,0,0,0,.69-.06,4.38,4.38,0,0,0,.6-.15,3.26,3.26,0,0,0,.5-.2,2.59,2.59,0,0,0,.38-.21l.38.89a3.34,3.34,0,0,1-.5.4,5.24,5.24,0,0,1-.75.38,5.1,5.1,0,0,1-.91.29A4.19,4.19,0,0,1,112.19,226.24Zm-.2-7.73a1.32,1.32,0,0,0-.53.1.94.94,0,0,0-.43.39,2.36,2.36,0,0,0-.31.79,7.09,7.09,0,0,0-.15,1.32h2.63V221s0-.08,0-.13v-.24a4.93,4.93,0,0,0,0-.76,2.71,2.71,0,0,0-.18-.68,1.44,1.44,0,0,0-.38-.49A.93.93,0,0,0,112,218.51Z"/><path class="cls-2" d="M116.44,223.85a2.24,2.24,0,0,1,.73-1.69,3.51,3.51,0,0,1,.8-.54,5.14,5.14,0,0,1,1-.36,6.8,6.8,0,0,1,1.11-.21,11.3,11.3,0,0,1,1.16-.08v-.35a1.66,1.66,0,0,0-.34-1.19,1.49,1.49,0,0,0-1.12-.36,5.25,5.25,0,0,0-.79.06c-.27,0-.52.1-.77.16s-.47.13-.67.2l-.54.22h0l-.44-1a4.49,4.49,0,0,1,.52-.33A8.44,8.44,0,0,1,118,218a8.11,8.11,0,0,1,1.14-.33,6,6,0,0,1,1.28-.14,4.62,4.62,0,0,1,1.38.18,2,2,0,0,1,.92.54,2.13,2.13,0,0,1,.52.92,4.78,4.78,0,0,1,.17,1.33v4.57h.91v.9l-.35.07a2.75,2.75,0,0,1-.45.09l-.54.07a5.49,5.49,0,0,1-.58,0l-.45,0a.59.59,0,0,1-.3-.1.5.5,0,0,1-.17-.23,1.47,1.47,0,0,1,0-.41v-.42a3.5,3.5,0,0,1-.34.37,3.16,3.16,0,0,1-.53.39,3.52,3.52,0,0,1-.71.3,3,3,0,0,1-.87.12,3.14,3.14,0,0,1-1-.14,2.1,2.1,0,0,1-.79-.43,1.91,1.91,0,0,1-.54-.75A2.69,2.69,0,0,1,116.44,223.85Zm3.48,1a1.13,1.13,0,0,0,.3,0,2.68,2.68,0,0,0,.35-.1,2,2,0,0,0,.36-.16,1.41,1.41,0,0,0,.31-.21V221.9a4.5,4.5,0,0,0-1.19.13,2.51,2.51,0,0,0-.77.35,1.28,1.28,0,0,0-.4.51,1.54,1.54,0,0,0-.12.61,1.52,1.52,0,0,0,.29,1A1.12,1.12,0,0,0,119.92,224.83Z"/><path class="cls-2" d="M125,226.07v-1L126,225v-9.78l-1.1-.19v-.85l2.87-.36h0l.46.34V225l1.11.14v1Z"/><path class="cls-2" d="M131.16,224.32v-5.4h-1v-.83l.19-.06.26-.1.25-.1.14-.07a2.42,2.42,0,0,0,.52-.7l.16-.34c.06-.13.11-.27.17-.41s.11-.28.16-.42.09-.27.12-.38h1.31l0,2.17h2.15v1.24h-2.15V223c0,.39,0,.7,0,.93a1.88,1.88,0,0,0,.08.52.36.36,0,0,0,.22.23,1.4,1.4,0,0,0,.4.05h0l.37,0,.38-.07a2.37,2.37,0,0,0,.34-.09l.27-.08h0l.35.86a5.15,5.15,0,0,1-1.25.64,6,6,0,0,1-.81.22,4.91,4.91,0,0,1-.86.08h0a2.51,2.51,0,0,1-.83-.12,1.44,1.44,0,0,1-.55-.37,1.52,1.52,0,0,1-.3-.61A3.35,3.35,0,0,1,131.16,224.32Z"/><path class="cls-2" d="M136.47,226.07v-1l.91-.14v-9.78l-1.1-.19v-.85l2.85-.36h0l.45.34v3.45l-.11,1.17a4.65,4.65,0,0,1,.49-.39,4.7,4.7,0,0,1,.67-.38,4.64,4.64,0,0,1,.82-.28,3.48,3.48,0,0,1,.93-.12,3.11,3.11,0,0,1,1.19.2,1.58,1.58,0,0,1,.74.61,2.84,2.84,0,0,1,.39,1,8.17,8.17,0,0,1,.11,1.49V225l1,.14v1h-4.11v-.95l.82-.16v-4.09a7.35,7.35,0,0,0,0-.88,1.51,1.51,0,0,0-.2-.6A.78.78,0,0,0,142,219a1.54,1.54,0,0,0-.65-.12,2,2,0,0,0-.47.06,3.59,3.59,0,0,0-.47.12l-.42.18a2.39,2.39,0,0,0-.33.2V225l1,.14v1Z"/><path class="cls-2" d="M148.65,226.2a1.62,1.62,0,0,1-.49-.08,1.3,1.3,0,0,1-.41-.24,1,1,0,0,1-.27-.37,1.06,1.06,0,0,1-.11-.48,1.31,1.31,0,0,1,.12-.56,1.55,1.55,0,0,1,.32-.44,1.5,1.5,0,0,1,.48-.3,1.57,1.57,0,0,1,.58-.1,1.82,1.82,0,0,1,.61.09,1.16,1.16,0,0,1,.4.26,1,1,0,0,1,.23.37,1.7,1.7,0,0,1,.07.46,1.32,1.32,0,0,1-.12.57,1.25,1.25,0,0,1-.31.44,1.52,1.52,0,0,1-.48.28A1.79,1.79,0,0,1,148.65,226.2Z"/><path class="cls-1" d="M25,208.07v-1l.94-.21,3.53-10H31.8l3.53,10,1,.21v1H31.59v-1l1.2-.21-.55-1.78h-4l-.52,1.79,1.21.2v1Zm5-8.86-1.36,4.72h3.29l-1.44-4.72-.25-1.07Z"/><path class="cls-1" d="M41.44,207.6v-2h1.34l.38,1.14a.8.8,0,0,0,.21.19,1.58,1.58,0,0,0,.32.17,2.1,2.1,0,0,0,.42.12,2.63,2.63,0,0,0,.49.05,1.72,1.72,0,0,0,.6-.09,1.21,1.21,0,0,0,.37-.22.93.93,0,0,0,.19-.31,1.4,1.4,0,0,0,.05-.34.88.88,0,0,0-.16-.53,1.51,1.51,0,0,0-.45-.41,5,5,0,0,0-.7-.36l-.9-.38a5.94,5.94,0,0,1-.91-.46,3.28,3.28,0,0,1-.69-.57,2.32,2.32,0,0,1-.37-2.53,2.05,2.05,0,0,1,.64-.77,3.28,3.28,0,0,1,1.06-.52,5.27,5.27,0,0,1,1.45-.18,5.52,5.52,0,0,1,.86.06c.25,0,.48.08.69.13l.56.16a3.36,3.36,0,0,0,.5.13v2l-1.27,0-.35-1a1,1,0,0,0-.39-.33,1.53,1.53,0,0,0-.72-.16,1.71,1.71,0,0,0-.55.07.89.89,0,0,0-.36.2.73.73,0,0,0-.2.27.81.81,0,0,0-.06.31,1,1,0,0,0,.2.62,1.72,1.72,0,0,0,.5.42,4,4,0,0,0,.66.29l.68.28c.32.14.63.29.92.45a3.5,3.5,0,0,1,.78.55,2.28,2.28,0,0,1,.54.73,2.15,2.15,0,0,1,.21,1,2.31,2.31,0,0,1-.21,1,2.09,2.09,0,0,1-.63.79,3.1,3.1,0,0,1-1.06.53,5,5,0,0,1-1.48.19,6.83,6.83,0,0,1-1.06-.08,8.16,8.16,0,0,1-.87-.19l-.7-.21Z"/><path class="cls-1" d="M49.09,208.07v-1l1.07-.14v-5.64l-1-.31v-1.1l2.69-.36h0l.54.32V207l1.06.14v1ZM51,198.3a1.11,1.11,0,0,1-.46-.09,1.25,1.25,0,0,1-.34-.25,1,1,0,0,1-.2-.38,1.39,1.39,0,0,1-.07-.46,1.61,1.61,0,0,1,.08-.54,1.42,1.42,0,0,1,.23-.44,1.35,1.35,0,0,1,.4-.3,1.4,1.4,0,0,1,.56-.11h0a1.21,1.21,0,0,1,.52.1,1.19,1.19,0,0,1,.36.26,1.11,1.11,0,0,1,.22.38,1.63,1.63,0,0,1,.07.45,1.85,1.85,0,0,1-.08.54,1.26,1.26,0,0,1-.25.44,1.08,1.08,0,0,1-.42.3,1.68,1.68,0,0,1-.62.1Z"/><path class="cls-1" d="M54.6,208.07v-.95l.91-.17v-5.64l-1-.31v-1.1l2.59-.36h0l.38.32v.87a3.73,3.73,0,0,1,.6-.44,6,6,0,0,1,.76-.38,6.09,6.09,0,0,1,.83-.25,3.44,3.44,0,0,1,.81-.1,2.82,2.82,0,0,1,1.34.27,1.71,1.71,0,0,1,.75.87,4.8,4.8,0,0,1,.54-.39,5.66,5.66,0,0,1,.74-.36,7.05,7.05,0,0,1,.85-.28,3.69,3.69,0,0,1,.86-.11,3.23,3.23,0,0,1,1.15.18,1.67,1.67,0,0,1,.74.57,2.7,2.7,0,0,1,.39,1,8.44,8.44,0,0,1,.12,1.54V207l1,.17v.95H65v-.95l.77-.17v-4a6.46,6.46,0,0,0-.06-1,1.66,1.66,0,0,0-.21-.63,1,1,0,0,0-.39-.36,1.67,1.67,0,0,0-.63-.1,1.51,1.51,0,0,0-.4,0,2.44,2.44,0,0,0-.44.13,2.63,2.63,0,0,0-.42.17,2,2,0,0,0-.36.19,6.16,6.16,0,0,1,.08.67c0,.24,0,.5,0,.79V207l1,.16v.95h-4.1v-.95l.88-.16v-4.09a5.61,5.61,0,0,0-.06-.88,1.51,1.51,0,0,0-.2-.6A.78.78,0,0,0,60,201a1.4,1.4,0,0,0-.62-.12A1.8,1.8,0,0,0,59,201a3.59,3.59,0,0,0-.47.12,4.08,4.08,0,0,0-.42.18,3,3,0,0,0-.32.2V207l1,.17v.95Z"/><path class="cls-1" d="M69.77,210.78l1.1-.19v-9.28l-1-.31v-1.1l2.62-.36h0l.38.32v.77a2.82,2.82,0,0,1,.43-.41,3.16,3.16,0,0,1,.56-.36,4.05,4.05,0,0,1,.67-.25,3.55,3.55,0,0,1,2.05.14,2.54,2.54,0,0,1,1,.72,3.41,3.41,0,0,1,.7,1.28,6.44,6.44,0,0,1,.25,1.88,5.39,5.39,0,0,1-.3,1.82,4.42,4.42,0,0,1-.85,1.46,4,4,0,0,1-1.36,1,4.48,4.48,0,0,1-1.8.35h-.36l-.34,0-.3,0-.21-.05,0,1.22v1.27l1.45.19v.93h-4.8Zm4.66-9.93a1.78,1.78,0,0,0-.78.16,1.57,1.57,0,0,0-.53.35v5.55a1.06,1.06,0,0,0,.4.24,1.94,1.94,0,0,0,.68.11,1.79,1.79,0,0,0,.75-.17,1.75,1.75,0,0,0,.62-.57,3.51,3.51,0,0,0,.42-1,7,7,0,0,0,.18-1.58,6.5,6.5,0,0,0-.11-1.41,2.93,2.93,0,0,0-.35-.94,1.33,1.33,0,0,0-.55-.53A1.6,1.6,0,0,0,74.43,200.85Z"/><path class="cls-1" d="M79.54,208.07v-1L80.6,207v-9.78L79.51,197v-.85l2.86-.36h0l.46.34V207l1.11.14v1Z"/><path class="cls-1" d="M88.75,208.24a4.56,4.56,0,0,1-1.78-.32,3.16,3.16,0,0,1-1.22-.9,3.8,3.8,0,0,1-.71-1.37,6.38,6.38,0,0,1-.22-1.74,5.27,5.27,0,0,1,.29-1.84,3.94,3.94,0,0,1,.81-1.38,3.62,3.62,0,0,1,1.27-.86,4.32,4.32,0,0,1,1.64-.3c2,0,3.08,1,3.17,3,0,.34,0,.64,0,.91a4.1,4.1,0,0,1-.08.69H87.14a4.32,4.32,0,0,0,.21,1.24,2.43,2.43,0,0,0,.46.83,1.67,1.67,0,0,0,.68.47,2.39,2.39,0,0,0,.86.15,3.88,3.88,0,0,0,.7-.06,4.61,4.61,0,0,0,.59-.15,2.89,2.89,0,0,0,.5-.2,3.44,3.44,0,0,0,.39-.21l.38.89a4.14,4.14,0,0,1-.51.4,5.24,5.24,0,0,1-.75.38,4.85,4.85,0,0,1-.91.29A4.07,4.07,0,0,1,88.75,208.24Zm-.2-7.73a1.32,1.32,0,0,0-.53.1,1,1,0,0,0-.43.39,2.36,2.36,0,0,0-.31.79,7.09,7.09,0,0,0-.15,1.32h2.63V203a.53.53,0,0,0,0-.13c0-.05,0-.1,0-.14v-.1a5,5,0,0,0-.06-.76,2.34,2.34,0,0,0-.18-.68,1.32,1.32,0,0,0-.38-.49A.93.93,0,0,0,88.55,200.51Z"/><path class="cls-1" d="M98.08,207.6v-2h1.35l.38,1.14a.74.74,0,0,0,.2.19,1.91,1.91,0,0,0,.32.17,2.58,2.58,0,0,0,.42.12,2.65,2.65,0,0,0,.5.05,1.63,1.63,0,0,0,.59-.09,1,1,0,0,0,.37-.22.79.79,0,0,0,.19-.31,1,1,0,0,0,0-.34.94.94,0,0,0-.15-.53,1.81,1.81,0,0,0-.45-.41,5.63,5.63,0,0,0-.7-.36l-.91-.38a5.94,5.94,0,0,1-.91-.46,3.21,3.21,0,0,1-.68-.57,2.43,2.43,0,0,1-.44-.7,2.41,2.41,0,0,1-.15-.87,2.05,2.05,0,0,1,.22-1,2,2,0,0,1,.64-.77,3.22,3.22,0,0,1,1-.52,5.35,5.35,0,0,1,1.46-.18,5.52,5.52,0,0,1,.86.06c.25,0,.48.08.68.13l.57.16a3.07,3.07,0,0,0,.5.13v2l-1.28,0-.34-1a1,1,0,0,0-.39-.33,1.55,1.55,0,0,0-.73-.16,1.75,1.75,0,0,0-.55.07.89.89,0,0,0-.36.2.7.7,0,0,0-.19.27.81.81,0,0,0-.06.31,1,1,0,0,0,.2.62,1.68,1.68,0,0,0,.49.42,4.39,4.39,0,0,0,.66.29c.24.09.47.18.69.28s.63.29.92.45a4,4,0,0,1,.78.55,2.21,2.21,0,0,1,.74,1.71,2.31,2.31,0,0,1-.21,1,2.09,2.09,0,0,1-.63.79,3,3,0,0,1-1,.53,5.07,5.07,0,0,1-1.48.19,6.83,6.83,0,0,1-1.06-.08,8.16,8.16,0,0,1-.87-.19c-.27-.07-.5-.14-.7-.21Z"/><path class="cls-1" d="M105.66,204a5.25,5.25,0,0,1,.3-1.81,4.13,4.13,0,0,1,.84-1.41,3.91,3.91,0,0,1,1.33-.92,4.66,4.66,0,0,1,1.75-.32,8.12,8.12,0,0,1,.9,0c.27,0,.52.08.73.13l.56.15.38.12-.07,2.5h-1.29l-.43-1.29a1.44,1.44,0,0,0-.39-.48.92.92,0,0,0-.57-.18,1.29,1.29,0,0,0-.63.17,1.54,1.54,0,0,0-.53.52,3.2,3.2,0,0,0-.37.92,5.86,5.86,0,0,0-.14,1.36,6.8,6.8,0,0,0,.15,1.54,2.54,2.54,0,0,0,.42,1,1.5,1.5,0,0,0,.67.56,2.07,2.07,0,0,0,.88.18,3.21,3.21,0,0,0,1.18-.19,4.61,4.61,0,0,0,.83-.39l.39.88a2.28,2.28,0,0,1-.45.37,3.81,3.81,0,0,1-.67.38,4.25,4.25,0,0,1-.85.29,3.85,3.85,0,0,1-1,.12,4.56,4.56,0,0,1-1.78-.32,3.2,3.2,0,0,1-1.23-.89,3.83,3.83,0,0,1-.71-1.36A6.06,6.06,0,0,1,105.66,204Z"/><path class="cls-1" d="M113.59,208.07v-1l1.06-.14v-5.64l-1-.31v-1.1l2.51-.36h0l.39.32v1.75h0a3.25,3.25,0,0,1,.32-.59,3.6,3.6,0,0,1,.57-.69,3.55,3.55,0,0,1,.79-.57,2,2,0,0,1,1-.24,1.68,1.68,0,0,1,.35,0l.2,0v2.54a1.59,1.59,0,0,0-.42-.13,3.88,3.88,0,0,0-.81-.07l-.52,0-.48.08-.39.11a1.49,1.49,0,0,0-.28.13V207l1.83.17v.95Z"/><path class="cls-1" d="M124.57,208.24a4.53,4.53,0,0,1-1.78-.32,3.09,3.09,0,0,1-1.22-.9,3.65,3.65,0,0,1-.71-1.37,6.37,6.37,0,0,1-.23-1.74,5.51,5.51,0,0,1,.29-1.84,4,4,0,0,1,.82-1.38,3.53,3.53,0,0,1,1.27-.86,4.32,4.32,0,0,1,1.64-.3c2,0,3.08,1,3.17,3a9,9,0,0,1,0,.91,4.21,4.21,0,0,1-.07.69H123a4.67,4.67,0,0,0,.22,1.24,2.27,2.27,0,0,0,.46.83,1.61,1.61,0,0,0,.68.47,2.35,2.35,0,0,0,.86.15,3.69,3.69,0,0,0,.69-.06,4.38,4.38,0,0,0,.6-.15,3.91,3.91,0,0,0,.88-.41l.38.89a3,3,0,0,1-.51.4,4.63,4.63,0,0,1-.74.38,5.1,5.1,0,0,1-.91.29A4.19,4.19,0,0,1,124.57,208.24Zm-.2-7.73a1.32,1.32,0,0,0-.53.1,1,1,0,0,0-.44.39,2.61,2.61,0,0,0-.3.79,7.09,7.09,0,0,0-.15,1.32h2.63V203a.62.62,0,0,1,0-.13v-.24a6.61,6.61,0,0,0,0-.76,2.34,2.34,0,0,0-.19-.68,1.3,1.3,0,0,0-.37-.49A.93.93,0,0,0,124.37,200.51Z"/><path class="cls-1" d="M132.81,208.24a4.48,4.48,0,0,1-1.77-.32,3.12,3.12,0,0,1-1.23-.9,3.63,3.63,0,0,1-.7-1.37,6.37,6.37,0,0,1-.23-1.74,5.51,5.51,0,0,1,.29-1.84,3.81,3.81,0,0,1,.82-1.38,3.58,3.58,0,0,1,1.26-.86,4.35,4.35,0,0,1,1.64-.3c2,0,3.09,1,3.17,3,0,.34,0,.64,0,.91a4.1,4.1,0,0,1-.08.69H131.2a5.15,5.15,0,0,0,.21,1.24,2.29,2.29,0,0,0,.47.83,1.64,1.64,0,0,0,.67.47,2.39,2.39,0,0,0,.86.15,3.88,3.88,0,0,0,.7-.06,5.26,5.26,0,0,0,.6-.15,3.13,3.13,0,0,0,.49-.2,3.44,3.44,0,0,0,.39-.21l.38.89a3,3,0,0,1-.51.4,5.24,5.24,0,0,1-.75.38,5,5,0,0,1-.9.29A4.21,4.21,0,0,1,132.81,208.24Zm-.2-7.73a1.35,1.35,0,0,0-.53.1,1,1,0,0,0-.43.39,2.59,2.59,0,0,0-.31.79,7.09,7.09,0,0,0-.15,1.32h2.63a.49.49,0,0,1,0-.11v-.13a.71.71,0,0,0,0-.14v-.1a6.61,6.61,0,0,0-.05-.76,2.7,2.7,0,0,0-.19-.68,1.41,1.41,0,0,0-.37-.49A1,1,0,0,0,132.61,200.51Z"/><path class="cls-1" d="M137.31,208.07v-1l.94-.14v-5.64l-1-.31v-1.1l2.62-.36h0l.39.32v.87a4.3,4.3,0,0,1,1.28-.81,5.47,5.47,0,0,1,.81-.26,4.12,4.12,0,0,1,.86-.1,3,3,0,0,1,1.17.19,1.5,1.5,0,0,1,.75.58,2.66,2.66,0,0,1,.4,1,8.33,8.33,0,0,1,.12,1.53v4l1,.14v1h-4.13v-1l.8-.14v-4.08a7.35,7.35,0,0,0,0-.88,1.51,1.51,0,0,0-.19-.6.78.78,0,0,0-.37-.35,1.35,1.35,0,0,0-.61-.12,2,2,0,0,0-.49.06,3.09,3.09,0,0,0-.46.14,3,3,0,0,0-.4.2,2.77,2.77,0,0,0-.31.21V207l1,.14v1Z"/><path class="cls-1" d="M147.59,208.07v-1l1.07-.14v-5.64l-1-.31v-1.1l2.69-.36h0l.53.32V207l1.06.14v1Zm1.95-9.77a1.14,1.14,0,0,1-.46-.09,1.2,1.2,0,0,1-.33-.25,1.17,1.17,0,0,1-.21-.38,1.39,1.39,0,0,1-.07-.46,1.91,1.91,0,0,1,.08-.54,1.26,1.26,0,0,1,.24-.44,1.24,1.24,0,0,1,.4-.3,1.31,1.31,0,0,1,.55-.11h0a1.13,1.13,0,0,1,.51.1,1,1,0,0,1,.36.26,1.11,1.11,0,0,1,.22.38,1.33,1.33,0,0,1,.07.45,1.85,1.85,0,0,1-.08.54,1.12,1.12,0,0,1-.25.44,1.08,1.08,0,0,1-.42.3,1.63,1.63,0,0,1-.61.1Z"/><path class="cls-1" d="M153.07,208.07v-1l1-.14v-5.64l-1-.31v-1.1l2.62-.36h0l.39.32v.87a4.71,4.71,0,0,1,.57-.44,5.29,5.29,0,0,1,.71-.37,5.47,5.47,0,0,1,.81-.26,4.12,4.12,0,0,1,.86-.1,3,3,0,0,1,1.17.19,1.5,1.5,0,0,1,.75.58,2.66,2.66,0,0,1,.4,1,8.33,8.33,0,0,1,.12,1.53v4l1,.14v1h-4.13v-1l.8-.14v-4.08a5.73,5.73,0,0,0,0-.88,1.51,1.51,0,0,0-.19-.6.78.78,0,0,0-.37-.35,1.35,1.35,0,0,0-.61-.12,2,2,0,0,0-.49.06,3.09,3.09,0,0,0-.46.14l-.4.2-.31.21V207l1,.14v1Z"/><path class="cls-1" d="M167.1,205.21a6.43,6.43,0,0,1-1.12-.09,1.15,1.15,0,0,0-.2.29.93.93,0,0,0-.08.39.83.83,0,0,0,.09.41.64.64,0,0,0,.3.23,1.81,1.81,0,0,0,.53.12c.21,0,.46,0,.76,0h1.47a4.13,4.13,0,0,1,2.35.53,2,2,0,0,1,.78,1.75,2.41,2.41,0,0,1-.39,1.34,3.38,3.38,0,0,1-1,1,5.41,5.41,0,0,1-1.5.66,7.1,7.1,0,0,1-1.8.23h0a7.61,7.61,0,0,1-1.77-.19,3.71,3.71,0,0,1-1.2-.5,2,2,0,0,1-.7-.77,2.14,2.14,0,0,1-.22-1,1.68,1.68,0,0,1,.12-.63,1.87,1.87,0,0,1,.33-.54,2.46,2.46,0,0,1,.48-.43,2.55,2.55,0,0,1,.57-.29,1.69,1.69,0,0,1-.65-.55,1.41,1.41,0,0,1-.23-.79,1.52,1.52,0,0,1,.29-.94,2.89,2.89,0,0,1,.75-.68,2.31,2.31,0,0,1-1.1-1,2.86,2.86,0,0,1-.36-1.47,2.36,2.36,0,0,1,.3-1.19,2.82,2.82,0,0,1,.81-.91,3.79,3.79,0,0,1,1.19-.59,5.31,5.31,0,0,1,1.46-.2h0a4.31,4.31,0,0,1,2.71.7,1.76,1.76,0,0,1,.28-.25,2,2,0,0,1,.41-.23,2.45,2.45,0,0,1,.5-.17,2.27,2.27,0,0,1,.59-.07h.34v1.64h-1.44c0,.15.09.32.13.49a3.16,3.16,0,0,1,0,.55,2.76,2.76,0,0,1-.27,1.22,2.73,2.73,0,0,1-.78.95,3.65,3.65,0,0,1-1.19.63,5,5,0,0,1-1.54.23Zm-.38,3a5,5,0,0,1-.88-.07,2.55,2.55,0,0,0-.27.42,1.6,1.6,0,0,0-.13.72,2.56,2.56,0,0,0,.13.84,1.38,1.38,0,0,0,.39.55,1.42,1.42,0,0,0,.64.31,3.25,3.25,0,0,0,.87.1h0a4.3,4.3,0,0,0,.87-.1,3,3,0,0,0,.76-.31,1.68,1.68,0,0,0,.53-.53,1.36,1.36,0,0,0,.2-.74,1.79,1.79,0,0,0-.07-.55.79.79,0,0,0-.25-.37,1.31,1.31,0,0,0-.49-.21,4.3,4.3,0,0,0-.79-.06Zm.55-3.94h0a1.16,1.16,0,0,0,.62-.15,1.07,1.07,0,0,0,.38-.41,1.75,1.75,0,0,0,.2-.61,5.74,5.74,0,0,0,.05-.74,2.44,2.44,0,0,0-.31-1.4,1.17,1.17,0,0,0-1-.43h0a1.13,1.13,0,0,0-1,.43,2.35,2.35,0,0,0-.31,1.34,4,4,0,0,0,.07.8,1.81,1.81,0,0,0,.22.62,1,1,0,0,0,.43.4A1.36,1.36,0,0,0,167.27,204.23Z"/><path class="cls-1" d="M25.88,226.07v-1l1.17-.2V219H25.76v-.87l1.29-.37v-.43a3.38,3.38,0,0,1,.36-1.56,4.17,4.17,0,0,1,.92-1.19,4.05,4.05,0,0,1,1.26-.75,3.79,3.79,0,0,1,1.37-.27,2.65,2.65,0,0,1,.57.05,2.24,2.24,0,0,1,.29.08v2.19a.86.86,0,0,0-.27-.2,1.76,1.76,0,0,0-.39-.18c-.14-.05-.3-.09-.46-.13a2.94,2.94,0,0,0-.51-.05,1.36,1.36,0,0,0-.36.05.56.56,0,0,0-.27.15.73.73,0,0,0-.18.31,1.7,1.7,0,0,0-.06.5v1.43h1.88V219H29.33V225l1.62.16v1Z"/><path class="cls-1" d="M32,221.93a5,5,0,0,1,.34-1.94,4.12,4.12,0,0,1,.92-1.38,3.62,3.62,0,0,1,1.32-.82,4.57,4.57,0,0,1,1.56-.27,4.43,4.43,0,0,1,1.69.3,3.24,3.24,0,0,1,1.23.85,3.69,3.69,0,0,1,.75,1.35,6,6,0,0,1,.26,1.81,5.19,5.19,0,0,1-.35,2,3.87,3.87,0,0,1-.91,1.37,3.58,3.58,0,0,1-1.32.8,4.91,4.91,0,0,1-3.24,0,3.41,3.41,0,0,1-1.24-.86,3.71,3.71,0,0,1-.76-1.35A6,6,0,0,1,32,221.93Zm4,3.3a1.33,1.33,0,0,0,.7-.18,1.36,1.36,0,0,0,.49-.56,3.34,3.34,0,0,0,.28-1,9.83,9.83,0,0,0,.09-1.43,11.54,11.54,0,0,0-.08-1.52,4.75,4.75,0,0,0-.27-1.11,1.64,1.64,0,0,0-.49-.68,1.22,1.22,0,0,0-.75-.23,1.29,1.29,0,0,0-.69.18,1.38,1.38,0,0,0-.5.56,3.33,3.33,0,0,0-.29,1,8.5,8.5,0,0,0-.1,1.43,11.4,11.4,0,0,0,.09,1.52,4.07,4.07,0,0,0,.28,1.11,1.65,1.65,0,0,0,.5.68A1.21,1.21,0,0,0,36.07,225.23Z"/><path class="cls-1" d="M41.21,226.07v-1l1-.14v-5.64l-1-.31v-1.1l2.5-.36h0l.38.32v1.75h0a2.62,2.62,0,0,1,.31-.59,4.09,4.09,0,0,1,.58-.69,3.27,3.27,0,0,1,.78-.57,2,2,0,0,1,1-.24,1.68,1.68,0,0,1,.35,0l.2,0v2.54A1.35,1.35,0,0,0,47,220a3.88,3.88,0,0,0-.81-.07l-.51,0-.48.08a3.26,3.26,0,0,0-.4.11,1.13,1.13,0,0,0-.27.13V225l1.82.17v.95Z"/><path class="cls-2" d="M53,226.07v-1l.9-.14v-9.78L52.77,215v-.85l2.85-.36h0l.45.34v3.45L56,218.73a4.65,4.65,0,0,1,.49-.39,4.7,4.7,0,0,1,.67-.38,4.64,4.64,0,0,1,.82-.28,3.48,3.48,0,0,1,.93-.12,3.11,3.11,0,0,1,1.19.2,1.58,1.58,0,0,1,.74.61,2.84,2.84,0,0,1,.39,1,9.17,9.17,0,0,1,.11,1.49V225l1,.14v1H58.27v-.95l.82-.16v-4.09A7.35,7.35,0,0,0,59,220a1.51,1.51,0,0,0-.2-.6.83.83,0,0,0-.39-.35,1.54,1.54,0,0,0-.65-.12,2,2,0,0,0-.47.06,3.59,3.59,0,0,0-.47.12,4.08,4.08,0,0,0-.42.18,2.39,2.39,0,0,0-.33.2V225l1,.14v1Z"/><path class="cls-2" d="M67.08,226.24a4.51,4.51,0,0,1-1.77-.32,3.09,3.09,0,0,1-1.22-.9,3.65,3.65,0,0,1-.71-1.37,6.37,6.37,0,0,1-.23-1.74,5.51,5.51,0,0,1,.29-1.84,4,4,0,0,1,.82-1.38,3.58,3.58,0,0,1,1.26-.86,4.37,4.37,0,0,1,1.65-.3c2,0,3.08,1,3.17,3a9,9,0,0,1,0,.91,4.21,4.21,0,0,1-.07.69H65.47a4.67,4.67,0,0,0,.22,1.24,2.27,2.27,0,0,0,.46.83,1.64,1.64,0,0,0,.67.47,2.45,2.45,0,0,0,.87.15,3.77,3.77,0,0,0,.69-.06,4.38,4.38,0,0,0,.6-.15,3.26,3.26,0,0,0,.5-.2l.38-.21.38.89a3,3,0,0,1-.51.4,4.63,4.63,0,0,1-.74.38,5.37,5.37,0,0,1-.91.29A4.21,4.21,0,0,1,67.08,226.24Zm-.19-7.73a1.32,1.32,0,0,0-.53.1,1,1,0,0,0-.44.39,2.61,2.61,0,0,0-.3.79,7.09,7.09,0,0,0-.15,1.32H68.1V221a.62.62,0,0,1,0-.13v-.24a6.61,6.61,0,0,0,0-.76,2.7,2.7,0,0,0-.19-.68,1.3,1.3,0,0,0-.37-.49A.93.93,0,0,0,66.89,218.51Z"/><path class="cls-2" d="M71.34,223.85a2.15,2.15,0,0,1,.73-1.69,3.3,3.3,0,0,1,.8-.54,5.14,5.14,0,0,1,1-.36,6.42,6.42,0,0,1,1.11-.21,11.3,11.3,0,0,1,1.16-.08v-.35a1.71,1.71,0,0,0-.34-1.19,1.49,1.49,0,0,0-1.12-.36,5.25,5.25,0,0,0-.79.06c-.27,0-.53.1-.77.16s-.47.13-.68.2l-.53.22h0l-.43-1a3.74,3.74,0,0,1,.52-.33,8.44,8.44,0,0,1,.88-.39,7.74,7.74,0,0,1,1.14-.33,6,6,0,0,1,1.28-.14,4.62,4.62,0,0,1,1.38.18,2,2,0,0,1,.92.54,2.13,2.13,0,0,1,.52.92,4.78,4.78,0,0,1,.17,1.33v4.57h.9v.9l-.34.07a3,3,0,0,1-.45.09l-.54.07a5.49,5.49,0,0,1-.58,0l-.46,0a.59.59,0,0,1-.29-.1.44.44,0,0,1-.17-.23,1.47,1.47,0,0,1,0-.41v-.42a2.84,2.84,0,0,1-.35.37,2.51,2.51,0,0,1-.53.39,3.21,3.21,0,0,1-.7.3,3,3,0,0,1-.87.12,3.1,3.1,0,0,1-1-.14,2,2,0,0,1-.79-.43,1.91,1.91,0,0,1-.54-.75A2.69,2.69,0,0,1,71.34,223.85Zm3.48,1a1.13,1.13,0,0,0,.3,0,2.68,2.68,0,0,0,.35-.1,2.83,2.83,0,0,0,.36-.16,1.41,1.41,0,0,0,.31-.21V221.9A4.45,4.45,0,0,0,75,222a2.4,2.4,0,0,0-.77.35,1.28,1.28,0,0,0-.4.51,1.39,1.39,0,0,0-.13.61,1.46,1.46,0,0,0,.3,1A1.12,1.12,0,0,0,74.82,224.83Z"/><path class="cls-2" d="M80.08,226.07v-1l1-.14v-5.64l-1-.31v-1.1l2.5-.36h0l.38.32v1.75h0a2.62,2.62,0,0,1,.31-.59,4.09,4.09,0,0,1,.58-.69,3.27,3.27,0,0,1,.78-.57,2,2,0,0,1,1-.24,1.68,1.68,0,0,1,.35,0l.2,0v2.54a1.35,1.35,0,0,0-.42-.13,3.88,3.88,0,0,0-.81-.07l-.51,0-.48.08a3.26,3.26,0,0,0-.4.11,1.13,1.13,0,0,0-.27.13V225l1.82.17v.95Z"/><path class="cls-2" d="M88.05,224.32v-5.4H87v-.83l.19-.06.26-.1.25-.1.14-.07a2.25,2.25,0,0,0,.52-.7l.16-.34c.06-.13.12-.27.17-.41s.11-.28.16-.42.09-.27.12-.38h1.31l0,2.17h2.15v1.24H90.31V223c0,.39,0,.7,0,.93a1.52,1.52,0,0,0,.09.52.33.33,0,0,0,.21.23,1.42,1.42,0,0,0,.41.05h0l.37,0,.38-.07a3,3,0,0,0,.35-.09l.26-.08h0l.35.86a4.26,4.26,0,0,1-.54.33,4.48,4.48,0,0,1-.7.31,6.54,6.54,0,0,1-.82.22,4.91,4.91,0,0,1-.86.08h0a2.45,2.45,0,0,1-.82-.12,1.37,1.37,0,0,1-.55-.37,1.67,1.67,0,0,1-.31-.61A3.37,3.37,0,0,1,88.05,224.32Z"/><path class="cls-2" d="M98.07,226.07v-1L99,225v-9.78l-1.1-.19v-.85l2.85-.36h0l.45.34,0,3.45-.12,1.17a6,6,0,0,1,.49-.39,4.7,4.7,0,0,1,.67-.38,4.64,4.64,0,0,1,.82-.28,3.59,3.59,0,0,1,.93-.12,3.11,3.11,0,0,1,1.19.2,1.58,1.58,0,0,1,.74.61,2.52,2.52,0,0,1,.39,1,8.09,8.09,0,0,1,.12,1.49V225l1,.14v1h-4.1v-.95l.81-.16v-4.09a7.35,7.35,0,0,0,0-.88,1.51,1.51,0,0,0-.2-.6.78.78,0,0,0-.39-.35,1.54,1.54,0,0,0-.65-.12,2,2,0,0,0-.47.06,3.45,3.45,0,0,0-.46.12,4.08,4.08,0,0,0-.42.18,1.59,1.59,0,0,0-.33.2V225l1,.14v1Z"/><path class="cls-2" d="M112.19,226.24a4.56,4.56,0,0,1-1.78-.32,3.16,3.16,0,0,1-1.22-.9,3.65,3.65,0,0,1-.71-1.37,6.37,6.37,0,0,1-.23-1.74,5.51,5.51,0,0,1,.29-1.84,4.11,4.11,0,0,1,.82-1.38,3.53,3.53,0,0,1,1.27-.86,4.32,4.32,0,0,1,1.64-.3c2,0,3.08,1,3.17,3,0,.34,0,.64,0,.91a5.5,5.5,0,0,1-.08.69h-4.78a4.32,4.32,0,0,0,.21,1.24,2.43,2.43,0,0,0,.46.83,1.67,1.67,0,0,0,.68.47,2.39,2.39,0,0,0,.86.15,3.69,3.69,0,0,0,.69-.06,4.38,4.38,0,0,0,.6-.15,3.26,3.26,0,0,0,.5-.2,2.59,2.59,0,0,0,.38-.21l.38.89a3.34,3.34,0,0,1-.5.4,5.24,5.24,0,0,1-.75.38,5.1,5.1,0,0,1-.91.29A4.19,4.19,0,0,1,112.19,226.24Zm-.2-7.73a1.32,1.32,0,0,0-.53.1.94.94,0,0,0-.43.39,2.36,2.36,0,0,0-.31.79,7.09,7.09,0,0,0-.15,1.32h2.63V221s0-.08,0-.13v-.24a4.93,4.93,0,0,0,0-.76,2.71,2.71,0,0,0-.18-.68,1.44,1.44,0,0,0-.38-.49A.93.93,0,0,0,112,218.51Z"/><path class="cls-2" d="M116.44,223.85a2.24,2.24,0,0,1,.73-1.69,3.51,3.51,0,0,1,.8-.54,5.14,5.14,0,0,1,1-.36,6.8,6.8,0,0,1,1.11-.21,11.3,11.3,0,0,1,1.16-.08v-.35a1.66,1.66,0,0,0-.34-1.19,1.49,1.49,0,0,0-1.12-.36,5.25,5.25,0,0,0-.79.06c-.27,0-.52.1-.77.16s-.47.13-.67.2l-.54.22h0l-.44-1a4.49,4.49,0,0,1,.52-.33A8.44,8.44,0,0,1,118,218a8.11,8.11,0,0,1,1.14-.33,6,6,0,0,1,1.28-.14,4.62,4.62,0,0,1,1.38.18,2,2,0,0,1,.92.54,2.13,2.13,0,0,1,.52.92,4.78,4.78,0,0,1,.17,1.33v4.57h.91v.9l-.35.07a2.75,2.75,0,0,1-.45.09l-.54.07a5.49,5.49,0,0,1-.58,0l-.45,0a.59.59,0,0,1-.3-.1.5.5,0,0,1-.17-.23,1.47,1.47,0,0,1,0-.41v-.42a3.5,3.5,0,0,1-.34.37,3.16,3.16,0,0,1-.53.39,3.52,3.52,0,0,1-.71.3,3,3,0,0,1-.87.12,3.14,3.14,0,0,1-1-.14,2.1,2.1,0,0,1-.79-.43,1.91,1.91,0,0,1-.54-.75A2.69,2.69,0,0,1,116.44,223.85Zm3.48,1a1.13,1.13,0,0,0,.3,0,2.68,2.68,0,0,0,.35-.1,2,2,0,0,0,.36-.16,1.41,1.41,0,0,0,.31-.21V221.9a4.5,4.5,0,0,0-1.19.13,2.51,2.51,0,0,0-.77.35,1.28,1.28,0,0,0-.4.51,1.54,1.54,0,0,0-.12.61,1.52,1.52,0,0,0,.29,1A1.12,1.12,0,0,0,119.92,224.83Z"/><path class="cls-2" d="M125,226.07v-1L126,225v-9.78l-1.1-.19v-.85l2.87-.36h0l.46.34V225l1.11.14v1Z"/><path class="cls-2" d="M131.16,224.32v-5.4h-1v-.83l.19-.06.26-.1.25-.1.14-.07a2.42,2.42,0,0,0,.52-.7l.16-.34c.06-.13.11-.27.17-.41s.11-.28.16-.42.09-.27.12-.38h1.31l0,2.17h2.15v1.24h-2.15V223c0,.39,0,.7,0,.93a1.88,1.88,0,0,0,.08.52.36.36,0,0,0,.22.23,1.4,1.4,0,0,0,.4.05h0l.37,0,.38-.07a2.37,2.37,0,0,0,.34-.09l.27-.08h0l.35.86a5.15,5.15,0,0,1-1.25.64,6,6,0,0,1-.81.22,4.91,4.91,0,0,1-.86.08h0a2.51,2.51,0,0,1-.83-.12,1.44,1.44,0,0,1-.55-.37,1.52,1.52,0,0,1-.3-.61A3.35,3.35,0,0,1,131.16,224.32Z"/><path class="cls-2" d="M136.47,226.07v-1l.91-.14v-9.78l-1.1-.19v-.85l2.85-.36h0l.45.34v3.45l-.11,1.17a4.65,4.65,0,0,1,.49-.39,4.7,4.7,0,0,1,.67-.38,4.64,4.64,0,0,1,.82-.28,3.48,3.48,0,0,1,.93-.12,3.11,3.11,0,0,1,1.19.2,1.58,1.58,0,0,1,.74.61,2.84,2.84,0,0,1,.39,1,8.17,8.17,0,0,1,.11,1.49V225l1,.14v1h-4.11v-.95l.82-.16v-4.09a7.35,7.35,0,0,0,0-.88,1.51,1.51,0,0,0-.2-.6A.78.78,0,0,0,142,219a1.54,1.54,0,0,0-.65-.12,2,2,0,0,0-.47.06,3.59,3.59,0,0,0-.47.12l-.42.18a2.39,2.39,0,0,0-.33.2V225l1,.14v1Z"/><path class="cls-2" d="M148.65,226.2a1.62,1.62,0,0,1-.49-.08,1.3,1.3,0,0,1-.41-.24,1,1,0,0,1-.27-.37,1.06,1.06,0,0,1-.11-.48,1.31,1.31,0,0,1,.12-.56,1.55,1.55,0,0,1,.32-.44,1.5,1.5,0,0,1,.48-.3,1.57,1.57,0,0,1,.58-.1,1.82,1.82,0,0,1,.61.09,1.16,1.16,0,0,1,.4.26,1,1,0,0,1,.23.37,1.7,1.7,0,0,1,.07.46,1.32,1.32,0,0,1-.12.57,1.25,1.25,0,0,1-.31.44,1.52,1.52,0,0,1-.48.28A1.79,1.79,0,0,1,148.65,226.2Z"/></svg>