<svg id="Layer_1" data-name="Layer 1" xmlns="http://www.w3.org/2000/svg" viewBox="0 0 320 50"><defs><style>.cls-1{fill:#f1b533;}.cls-2{fill:#fff;}</style></defs><path class="cls-1" d="M20.71,30.68V29.41l1.51-.26V18.09l-1.48-.28V16.56h6v1.25l-1.58.28v4.65h5.53V18.09l-1.5-.28V16.56h5.92v1.25l-1.49.28V29.16l1.49.25v1.27h-5.9V29.41l1.48-.26V24.21H25.16v4.94l1.58.26v1.27Z"/><path class="cls-1" d="M41.58,30.9a5.62,5.62,0,0,1-2.25-.41,4,4,0,0,1-1.55-1.14,4.5,4.5,0,0,1-.9-1.74,8.1,8.1,0,0,1-.29-2.21A7,7,0,0,1,37,23.08a4.81,4.81,0,0,1,1-1.74,4.28,4.28,0,0,1,1.6-1.1,5.35,5.35,0,0,1,2.08-.38q3.84,0,4,3.75a11.19,11.19,0,0,1,0,1.16,6.17,6.17,0,0,1-.1.87H39.53a6.45,6.45,0,0,0,.27,1.56,3.06,3.06,0,0,0,.59,1.06,2.11,2.11,0,0,0,.86.59,2.94,2.94,0,0,0,1.09.19,4.91,4.91,0,0,0,.88-.07,6.83,6.83,0,0,0,.75-.19,3.76,3.76,0,0,0,.63-.25,3.59,3.59,0,0,0,.49-.27l.48,1.12a3.75,3.75,0,0,1-.64.51,6,6,0,0,1-1,.49,8.62,8.62,0,0,1-1.15.37A5.28,5.28,0,0,1,41.58,30.9Zm-.25-9.8a1.68,1.68,0,0,0-.68.13,1.25,1.25,0,0,0-.54.49,3.13,3.13,0,0,0-.39,1,7.83,7.83,0,0,0-.19,1.66h3.33v-.13c0-.05,0-.11,0-.17v-.3a7.73,7.73,0,0,0-.06-1,2.85,2.85,0,0,0-.24-.87,1.62,1.62,0,0,0-.47-.62A1.2,1.2,0,0,0,41.33,21.1Z"/><path class="cls-1" d="M47,27.86a2.87,2.87,0,0,1,.24-1.21,3,3,0,0,1,.68-.93,4.26,4.26,0,0,1,1-.68,7.59,7.59,0,0,1,1.27-.46,9,9,0,0,1,1.41-.26,14.32,14.32,0,0,1,1.46-.1v-.45a2.15,2.15,0,0,0-.43-1.51,1.89,1.89,0,0,0-1.41-.45,6.87,6.87,0,0,0-1,.08,9.23,9.23,0,0,0-1,.2,6.23,6.23,0,0,0-.86.26,6.62,6.62,0,0,0-.67.27h0l-.55-1.24a4.3,4.3,0,0,1,.66-.42,8.49,8.49,0,0,1,1.11-.49,12.33,12.33,0,0,1,1.44-.42A7.34,7.34,0,0,1,52,19.87a5.82,5.82,0,0,1,1.74.23,2.71,2.71,0,0,1,1.17.68A2.77,2.77,0,0,1,55.54,22a5.9,5.9,0,0,1,.21,1.67v5.79H56.9v1.14l-.43.1-.58.11-.68.09c-.24,0-.49,0-.74,0a4.67,4.67,0,0,1-.57,0,.81.81,0,0,1-.38-.13.56.56,0,0,1-.21-.29,1.81,1.81,0,0,1-.06-.52v-.54a3.63,3.63,0,0,1-.44.48,4.65,4.65,0,0,1-.67.49,4.13,4.13,0,0,1-.9.38,3.79,3.79,0,0,1-1.1.16,4.18,4.18,0,0,1-1.24-.18,2.79,2.79,0,0,1-1-.55,2.43,2.43,0,0,1-.68-.94A3.39,3.39,0,0,1,47,27.86Zm4.4,1.25a1.89,1.89,0,0,0,.38-.05,3.51,3.51,0,0,0,.9-.33,2.4,2.4,0,0,0,.39-.26V25.39a5.74,5.74,0,0,0-1.5.17,2.65,2.65,0,0,0-1,.45,1.5,1.5,0,0,0-.52.64,2,2,0,0,0-.15.77,1.83,1.83,0,0,0,.37,1.25A1.38,1.38,0,0,0,51.37,29.11Z"/><path class="cls-1" d="M57.75,30.68V29.44l1.34-.19V16.87l-1.38-.23V15.55l3.63-.45h0l.59.43V29.25l1.4.19v1.24Z"/><path class="cls-1" d="M65.61,28.46V21.63h-1.3V20.57l.23-.08.34-.12.31-.13.17-.09a2.79,2.79,0,0,0,.66-.89l.21-.43q.1-.24.21-.51c.07-.18.14-.36.2-.54a3.85,3.85,0,0,0,.16-.48h1.65l0,2.75h2.73v1.58H68.48v5.14c0,.49,0,.89,0,1.18a2.15,2.15,0,0,0,.12.65.42.42,0,0,0,.27.29,1.39,1.39,0,0,0,.51.07h0a4.78,4.78,0,0,0,1-.13,3.83,3.83,0,0,0,.43-.11,2.1,2.1,0,0,0,.33-.11h0l.44,1.09a6.27,6.27,0,0,1-.68.43,6.61,6.61,0,0,1-.89.38,6.78,6.78,0,0,1-1,.28,5.76,5.76,0,0,1-1.09.11h0a3.11,3.11,0,0,1-1-.16,1.67,1.67,0,0,1-.7-.47,1.87,1.87,0,0,1-.39-.77A4.07,4.07,0,0,1,65.61,28.46Z"/><path class="cls-1" d="M72.34,30.68V29.44l1.14-.19V16.87l-1.39-.23V15.55l3.61-.45h0l.57.43,0,4.37-.15,1.48a5.14,5.14,0,0,1,.63-.49,4.6,4.6,0,0,1,.85-.48,5.2,5.2,0,0,1,1-.36,4.54,4.54,0,0,1,1.18-.15,4.07,4.07,0,0,1,1.51.25,2.21,2.21,0,0,1,.94.77,3.6,3.6,0,0,1,.49,1.32A11.15,11.15,0,0,1,83,24.11v5.14l1.31.19v1.24H79.07v-1.2l1-.21V24.09A8.83,8.83,0,0,0,80,23a1.84,1.84,0,0,0-.25-.77,1.07,1.07,0,0,0-.5-.44,2.09,2.09,0,0,0-.82-.14,3,3,0,0,0-.59.06,5.72,5.72,0,0,0-.59.17,2.81,2.81,0,0,0-.53.22,2.58,2.58,0,0,0-.42.25v6.92l1.27.19v1.24Z"/><path class="cls-1" d="M87.61,35.41H87.2l-.43,0-.39-.05a1,1,0,0,1-.25,0V33a2.88,2.88,0,0,0,.56.15,4.57,4.57,0,0,0,1,.09,3.38,3.38,0,0,0,.6-.06,1.81,1.81,0,0,0,.69-.33,3.38,3.38,0,0,0,.71-.77,6.55,6.55,0,0,0,.71-1.41H88.7L85.36,21.5l-.85-.26V20.05h5.37v1.18l-1.4.27L90.25,27,91,29.52,91.61,27,93,21.5l-1.21-.27V20.05h4.1v1.19l-.85.26c-.18.56-.37,1.17-.57,1.82s-.41,1.31-.61,2-.4,1.31-.6,1.94-.38,1.21-.54,1.73-.3,1-.42,1.32-.21.62-.27.75A9.45,9.45,0,0,1,90.2,34.3,3.46,3.46,0,0,1,87.61,35.41Z"/><path class="cls-1" d="M102.61,30.68V29.44l1.14-.19V16.87l-1.39-.23V15.55L106,15.1h0l.56.43,0,4.37-.15,1.48a5.14,5.14,0,0,1,.63-.49,4.6,4.6,0,0,1,.85-.48,5.2,5.2,0,0,1,1-.36,4.54,4.54,0,0,1,1.18-.15,4.07,4.07,0,0,1,1.51.25,2.16,2.16,0,0,1,.94.77,3.6,3.6,0,0,1,.49,1.32,10.19,10.19,0,0,1,.14,1.87v5.14l1.31.19v1.24h-5.19v-1.2l1-.21V24.09A8.64,8.64,0,0,0,110.3,23a2,2,0,0,0-.24-.77,1.1,1.1,0,0,0-.51-.44,2.09,2.09,0,0,0-.82-.14,3,3,0,0,0-.59.06,5.72,5.72,0,0,0-.59.17,2.81,2.81,0,0,0-.53.22,2.58,2.58,0,0,0-.42.25v6.92l1.27.19v1.24Z"/><path class="cls-1" d="M120.5,30.9a5.69,5.69,0,0,1-2.25-.41,4,4,0,0,1-1.55-1.14,4.64,4.64,0,0,1-.9-1.74,8.1,8.1,0,0,1-.28-2.21,7,7,0,0,1,.36-2.32,5,5,0,0,1,1-1.74,4.37,4.37,0,0,1,1.6-1.1,5.39,5.39,0,0,1,2.08-.38c2.57,0,3.9,1.25,4,3.75,0,.43,0,.81,0,1.16a5,5,0,0,1-.1.87h-6.05a5.61,5.61,0,0,0,.27,1.56,2.89,2.89,0,0,0,.58,1.06,2.11,2.11,0,0,0,.86.59,2.94,2.94,0,0,0,1.09.19,4.91,4.91,0,0,0,.88-.07,7.67,7.67,0,0,0,.76-.19,4.59,4.59,0,0,0,.63-.25,4.11,4.11,0,0,0,.48-.27l.49,1.12a3.87,3.87,0,0,1-.65.51,5.89,5.89,0,0,1-.94.49,8.77,8.77,0,0,1-1.16.37A5.28,5.28,0,0,1,120.5,30.9Zm-.25-9.8a1.72,1.72,0,0,0-.68.13,1.25,1.25,0,0,0-.54.49,3.13,3.13,0,0,0-.39,1,8.54,8.54,0,0,0-.19,1.66h3.33v-.13a.91.91,0,0,0,0-.17c0-.07,0-.12,0-.18v-.12a7.75,7.75,0,0,0-.07-1,3.17,3.17,0,0,0-.23-.87,1.75,1.75,0,0,0-.48-.62A1.2,1.2,0,0,0,120.25,21.1Z"/><path class="cls-1" d="M125.89,27.86a2.87,2.87,0,0,1,.24-1.21,3,3,0,0,1,.68-.93,4.13,4.13,0,0,1,1-.68,7.81,7.81,0,0,1,1.26-.46,9,9,0,0,1,1.41-.26,14.52,14.52,0,0,1,1.47-.1v-.45a2.14,2.14,0,0,0-.44-1.51,1.88,1.88,0,0,0-1.41-.45,7,7,0,0,0-1,.08,9.79,9.79,0,0,0-1,.2,6.08,6.08,0,0,0-.85.26,6,6,0,0,0-.68.27h0l-.54-1.24a4.64,4.64,0,0,1,.65-.42,8.1,8.1,0,0,1,1.12-.49,11.29,11.29,0,0,1,1.44-.42,7.18,7.18,0,0,1,1.62-.18,5.89,5.89,0,0,1,1.75.23,2.71,2.71,0,0,1,1.17.68,2.77,2.77,0,0,1,.66,1.18,6.31,6.31,0,0,1,.2,1.67v5.79h1.16v1.14l-.44.1-.58.11-.67.09c-.24,0-.49,0-.75,0a4.67,4.67,0,0,1-.57,0,.86.86,0,0,1-.38-.13.7.7,0,0,1-.21-.29,1.81,1.81,0,0,1-.06-.52v-.54a3.63,3.63,0,0,1-.44.48,4.15,4.15,0,0,1-.67.49,4.26,4.26,0,0,1-.89.38,3.92,3.92,0,0,1-1.11.16,4.06,4.06,0,0,1-1.23-.18,2.75,2.75,0,0,1-1-.55,2.53,2.53,0,0,1-.68-.94A3.39,3.39,0,0,1,125.89,27.86Zm4.41,1.25a2,2,0,0,0,.38-.05,4.29,4.29,0,0,0,.44-.13,2.73,2.73,0,0,0,.85-.46V25.39a5.82,5.82,0,0,0-1.51.17,2.65,2.65,0,0,0-1,.45,1.66,1.66,0,0,0-.52.64,2,2,0,0,0-.15.77,1.83,1.83,0,0,0,.38,1.25A1.37,1.37,0,0,0,130.3,29.11Z"/><path class="cls-1" d="M137,30.68V29.44l1.33-.18V22.12L137,21.73v-1.4l3.17-.46h.06l.49.4v2.22h0a4,4,0,0,1,.4-.75,5.27,5.27,0,0,1,.73-.87,4.07,4.07,0,0,1,1-.72,2.53,2.53,0,0,1,1.22-.3,2.63,2.63,0,0,1,.44,0l.25.06v3.21a1.64,1.64,0,0,0-.53-.16,5.12,5.12,0,0,0-1-.09,4.58,4.58,0,0,0-.64,0A5.24,5.24,0,0,0,142,23a3.09,3.09,0,0,0-.51.15,1.56,1.56,0,0,0-.34.16v5.92l2.31.23v1.2Z"/><path class="cls-1" d="M147.05,28.46V21.63h-1.31V20.57l.24-.08.33-.12.31-.13.18-.09a2.79,2.79,0,0,0,.66-.89l.2-.43c.08-.16.15-.33.22-.51s.14-.36.2-.54l.16-.48h1.65l0,2.75h2.72v1.58h-2.72v5.14c0,.49,0,.89,0,1.18a1.91,1.91,0,0,0,.11.65.46.46,0,0,0,.27.29,1.46,1.46,0,0,0,.51.07h0a3.89,3.89,0,0,0,.47,0,3.41,3.41,0,0,0,.48-.09,4,4,0,0,0,.44-.11l.33-.11h0L153,29.7a5.42,5.42,0,0,1-.68.43,6.11,6.11,0,0,1-.89.38,6.47,6.47,0,0,1-1,.28,5.68,5.68,0,0,1-1.09.11h0a3.2,3.2,0,0,1-1-.16,1.67,1.67,0,0,1-.7-.47,2,2,0,0,1-.38-.77A4.07,4.07,0,0,1,147.05,28.46Z"/><path class="cls-1" d="M154.16,30.09V27.48h1.7l.49,1.45a1,1,0,0,0,.25.24,1.74,1.74,0,0,0,.41.21,2.54,2.54,0,0,0,.53.16,3.18,3.18,0,0,0,.62.06,2.26,2.26,0,0,0,.76-.11,1.35,1.35,0,0,0,.47-.29.8.8,0,0,0,.24-.39,1.54,1.54,0,0,0,.07-.42,1.15,1.15,0,0,0-.2-.67,2.23,2.23,0,0,0-.57-.52,6.09,6.09,0,0,0-.89-.46l-1.15-.48a8.81,8.81,0,0,1-1.15-.58,4.15,4.15,0,0,1-.86-.72,3,3,0,0,1-.56-.89,3,3,0,0,1-.19-1.11,2.65,2.65,0,0,1,1.08-2.19,4.08,4.08,0,0,1,1.34-.65,6.44,6.44,0,0,1,1.85-.24,7.14,7.14,0,0,1,1.09.08,8.73,8.73,0,0,1,.86.17c.26.06.5.13.72.2a4.91,4.91,0,0,0,.63.17v2.56l-1.62,0-.43-1.24a1.41,1.41,0,0,0-.49-.41,2.27,2.27,0,0,0-1.62-.11,1.19,1.19,0,0,0-.46.25,1,1,0,0,0-.24.34,1.09,1.09,0,0,0-.08.39A1.24,1.24,0,0,0,157,23a2.34,2.34,0,0,0,.63.53,6.45,6.45,0,0,0,.84.37c.3.11.59.23.86.35s.8.37,1.17.57a5.16,5.16,0,0,1,1,.7,3.22,3.22,0,0,1,.69.92,2.85,2.85,0,0,1,.25,1.25,3,3,0,0,1-.26,1.25,2.87,2.87,0,0,1-.8,1,4,4,0,0,1-1.34.66,6.2,6.2,0,0,1-1.88.25,8,8,0,0,1-1.34-.11,9.63,9.63,0,0,1-1.1-.23c-.33-.09-.63-.18-.89-.27A5.8,5.8,0,0,0,154.16,30.09Z"/><path class="cls-2" d="M170.09,30.09V27.48h1.71l.48,1.45a1,1,0,0,0,.26.24,1.74,1.74,0,0,0,.41.21,2.54,2.54,0,0,0,.53.16,3.18,3.18,0,0,0,.62.06,2.31,2.31,0,0,0,.76-.11,1.45,1.45,0,0,0,.47-.29.88.88,0,0,0,.24-.39,1.52,1.52,0,0,0,.06-.42,1.09,1.09,0,0,0-.2-.67,2,2,0,0,0-.56-.52,6.09,6.09,0,0,0-.89-.46l-1.15-.48a8.81,8.81,0,0,1-1.15-.58,4.51,4.51,0,0,1-.87-.72,3.15,3.15,0,0,1-.55-.89,3,3,0,0,1-.19-1.11,2.79,2.79,0,0,1,.27-1.22,2.67,2.67,0,0,1,.81-1,4.08,4.08,0,0,1,1.34-.65,6.41,6.41,0,0,1,1.84-.24,6.94,6.94,0,0,1,1.09.08,8.4,8.4,0,0,1,.87.17c.26.06.5.13.72.2a4.91,4.91,0,0,0,.63.17v2.56L176,23l-.43-1.24a1.37,1.37,0,0,0-.5-.41,2,2,0,0,0-.91-.21,2,2,0,0,0-.7.1,1.19,1.19,0,0,0-.46.25,1,1,0,0,0-.24.34,1.09,1.09,0,0,0-.08.39A1.24,1.24,0,0,0,173,23a2.34,2.34,0,0,0,.63.53,6.45,6.45,0,0,0,.84.37c.3.11.59.23.86.35s.8.37,1.17.57a5.16,5.16,0,0,1,1,.7,3.18,3.18,0,0,1,.68.92,2.84,2.84,0,0,1,.26,1.25,3,3,0,0,1-.26,1.25,2.87,2.87,0,0,1-.8,1,4,4,0,0,1-1.34.66,6.2,6.2,0,0,1-1.88.25,7.9,7.9,0,0,1-1.34-.11,9.63,9.63,0,0,1-1.1-.23c-.33-.09-.63-.18-.89-.27A5.37,5.37,0,0,0,170.09,30.09Z"/><path class="cls-2" d="M180.86,28.46V21.63h-1.31V20.57l.23-.08.34-.12.31-.13.18-.09a2.65,2.65,0,0,0,.65-.89c.07-.12.13-.27.21-.43s.15-.33.22-.51l.2-.54q.09-.26.15-.48h1.65l0,2.75h2.73v1.58h-2.73v5.14c0,.49,0,.89,0,1.18a1.91,1.91,0,0,0,.11.65.46.46,0,0,0,.27.29,1.39,1.39,0,0,0,.51.07h0a3.89,3.89,0,0,0,.47,0,4,4,0,0,0,.48-.09c.16,0,.3-.07.44-.11l.33-.11h0l.43,1.09a5.42,5.42,0,0,1-.68.43,6.61,6.61,0,0,1-.89.38,6.47,6.47,0,0,1-1,.28,5.76,5.76,0,0,1-1.09.11h0a3.11,3.11,0,0,1-1-.16,1.67,1.67,0,0,1-.7-.47,2,2,0,0,1-.38-.77A4.07,4.07,0,0,1,180.86,28.46Z"/><path class="cls-2" d="M187.5,27.86a2.73,2.73,0,0,1,.25-1.21,2.8,2.8,0,0,1,.67-.93,4.13,4.13,0,0,1,1-.68,7.81,7.81,0,0,1,1.26-.46,9,9,0,0,1,1.41-.26,14.52,14.52,0,0,1,1.47-.1v-.45a2.14,2.14,0,0,0-.44-1.51,1.88,1.88,0,0,0-1.41-.45,7,7,0,0,0-1,.08,9.79,9.79,0,0,0-1,.2,6.08,6.08,0,0,0-.85.26,6,6,0,0,0-.68.27h0l-.54-1.24a4.64,4.64,0,0,1,.65-.42,8.1,8.1,0,0,1,1.12-.49,11.29,11.29,0,0,1,1.44-.42,7.18,7.18,0,0,1,1.62-.18,5.89,5.89,0,0,1,1.75.23,2.71,2.71,0,0,1,1.17.68,2.77,2.77,0,0,1,.66,1.18,6.29,6.29,0,0,1,.21,1.67v5.79h1.15v1.14l-.44.1-.58.11-.67.09c-.24,0-.49,0-.75,0a4.67,4.67,0,0,1-.57,0,.86.86,0,0,1-.38-.13.7.7,0,0,1-.21-.29,1.81,1.81,0,0,1-.06-.52v-.54a3.63,3.63,0,0,1-.44.48,4.15,4.15,0,0,1-.67.49,4.26,4.26,0,0,1-.89.38,3.92,3.92,0,0,1-1.11.16,4.06,4.06,0,0,1-1.23-.18,2.75,2.75,0,0,1-1-.55,2.53,2.53,0,0,1-.68-.94A3.39,3.39,0,0,1,187.5,27.86Zm4.41,1.25a2,2,0,0,0,.38-.05,4.29,4.29,0,0,0,.44-.13,2.73,2.73,0,0,0,.85-.46V25.39a5.82,5.82,0,0,0-1.51.17,2.65,2.65,0,0,0-1,.45,1.66,1.66,0,0,0-.52.64,2,2,0,0,0-.15.77,1.83,1.83,0,0,0,.38,1.25A1.37,1.37,0,0,0,191.91,29.11Z"/><path class="cls-2" d="M198.57,30.68V29.44l1.33-.18V22.12l-1.26-.39v-1.4l3.17-.46h.06l.49.4v2.22h0a4,4,0,0,1,.4-.75,5.27,5.27,0,0,1,.73-.87,4.07,4.07,0,0,1,1-.72,2.53,2.53,0,0,1,1.22-.3,2.63,2.63,0,0,1,.44,0l.25.06v3.21a1.64,1.64,0,0,0-.53-.16,5.09,5.09,0,0,0-1-.09,4.63,4.63,0,0,0-.65,0,5.24,5.24,0,0,0-.61.09,3.09,3.09,0,0,0-.51.15,1.83,1.83,0,0,0-.34.16v5.92l2.31.23v1.2Z"/><path class="cls-2" d="M208.66,28.46V21.63h-1.31V20.57l.24-.08.33-.12.31-.13a.69.69,0,0,0,.18-.09,2.79,2.79,0,0,0,.66-.89l.2-.43c.08-.16.15-.33.22-.51s.14-.36.2-.54.11-.33.16-.48h1.65l0,2.75h2.72v1.58h-2.72v5.14c0,.49,0,.89,0,1.18a2.2,2.2,0,0,0,.11.65.45.45,0,0,0,.28.29,1.39,1.39,0,0,0,.51.07h0a3.91,3.91,0,0,0,.46,0,3.86,3.86,0,0,0,.49-.09l.43-.11a3.17,3.17,0,0,0,.33-.11h0l.44,1.09a6.49,6.49,0,0,1-.69.43,5.67,5.67,0,0,1-.89.38,6.2,6.2,0,0,1-1,.28,5.68,5.68,0,0,1-1.09.11h0a3.22,3.22,0,0,1-1-.16,1.57,1.57,0,0,1-.69-.47,1.87,1.87,0,0,1-.39-.77A4.07,4.07,0,0,1,208.66,28.46Z"/><path class="cls-2" d="M221.35,30.68V29.44l1.14-.19V16.87l-1.39-.23V15.55l3.61-.45h0l.56.43,0,4.37-.15,1.48a5.14,5.14,0,0,1,.63-.49,4.6,4.6,0,0,1,.85-.48,5.2,5.2,0,0,1,1-.36,4.6,4.6,0,0,1,1.18-.15,4.07,4.07,0,0,1,1.51.25,2.16,2.16,0,0,1,.94.77,3.43,3.43,0,0,1,.49,1.32,10.19,10.19,0,0,1,.14,1.87v5.14l1.31.19v1.24h-5.19v-1.2l1-.21V24.09A7.14,7.14,0,0,0,229,23a2,2,0,0,0-.24-.77,1.12,1.12,0,0,0-.5-.44,2.17,2.17,0,0,0-.83-.14,3.11,3.11,0,0,0-.59.06,5.72,5.72,0,0,0-.59.17,3.11,3.11,0,0,0-.53.22,2.58,2.58,0,0,0-.42.25v6.92l1.27.19v1.24Z"/><path class="cls-2" d="M239.24,30.9a5.69,5.69,0,0,1-2.25-.41,4,4,0,0,1-1.55-1.14,4.64,4.64,0,0,1-.9-1.74,8.1,8.1,0,0,1-.28-2.21,7,7,0,0,1,.36-2.32,5,5,0,0,1,1-1.74,4.37,4.37,0,0,1,1.6-1.1,5.39,5.39,0,0,1,2.08-.38q3.85,0,4,3.75c0,.43,0,.81,0,1.16a5.07,5.07,0,0,1-.09.87H237.2a5.61,5.61,0,0,0,.27,1.56,3,3,0,0,0,.58,1.06,2.11,2.11,0,0,0,.86.59A2.94,2.94,0,0,0,240,29a4.91,4.91,0,0,0,.88-.07,7,7,0,0,0,.76-.19,4.59,4.59,0,0,0,.63-.25,3.43,3.43,0,0,0,.48-.27l.49,1.12a3.87,3.87,0,0,1-.65.51,5.89,5.89,0,0,1-.94.49,9.12,9.12,0,0,1-1.15.37A5.36,5.36,0,0,1,239.24,30.9ZM239,21.1a1.63,1.63,0,0,0-.67.13,1.27,1.27,0,0,0-.55.49,3.13,3.13,0,0,0-.39,1,8.54,8.54,0,0,0-.19,1.66h3.33v-.13a.91.91,0,0,0,0-.17,1.15,1.15,0,0,0,0-.18v-.12a6.2,6.2,0,0,0-.07-1,3.17,3.17,0,0,0-.23-.87,1.75,1.75,0,0,0-.48-.62A1.2,1.2,0,0,0,239,21.1Z"/><path class="cls-2" d="M244.87,30.68V29.44l1.34-.18V22.12l-1.27-.39v-1.4l3.18-.46h0l.5.4v2.22h0a4.19,4.19,0,0,1,.41-.75,4.75,4.75,0,0,1,.72-.87,4.49,4.49,0,0,1,1-.72,2.56,2.56,0,0,1,1.22-.3,2.63,2.63,0,0,1,.44,0l.26.06v3.21a1.85,1.85,0,0,0-.54-.16,5,5,0,0,0-1-.09,4.73,4.73,0,0,0-.65,0,5.24,5.24,0,0,0-.61.09,3,3,0,0,0-.5.15,1.68,1.68,0,0,0-.35.16v5.92l2.31.23v1.2Z"/><path class="cls-2" d="M258.77,30.9a5.65,5.65,0,0,1-2.25-.41A4,4,0,0,1,255,29.35a4.5,4.5,0,0,1-.9-1.74,8.1,8.1,0,0,1-.28-2.21,7,7,0,0,1,.36-2.32,5,5,0,0,1,1-1.74,4.37,4.37,0,0,1,1.6-1.1,5.39,5.39,0,0,1,2.08-.38c2.57,0,3.9,1.25,4,3.75,0,.43,0,.81,0,1.16a5,5,0,0,1-.1.87h-6A5.61,5.61,0,0,0,257,27.2a2.89,2.89,0,0,0,.58,1.06,2.11,2.11,0,0,0,.86.59,2.94,2.94,0,0,0,1.09.19,4.91,4.91,0,0,0,.88-.07,7.67,7.67,0,0,0,.76-.19,4.59,4.59,0,0,0,.63-.25,4.11,4.11,0,0,0,.48-.27l.49,1.12a3.87,3.87,0,0,1-.65.51,5.61,5.61,0,0,1-.95.49,8.18,8.18,0,0,1-1.15.37A5.28,5.28,0,0,1,258.77,30.9Zm-.25-9.8a1.72,1.72,0,0,0-.68.13,1.25,1.25,0,0,0-.54.49,3.13,3.13,0,0,0-.39,1,7.83,7.83,0,0,0-.19,1.66h3.33v-.13c0-.05,0-.11,0-.17s0-.12,0-.18v-.12a7.75,7.75,0,0,0-.07-1,2.85,2.85,0,0,0-.24-.87,1.62,1.62,0,0,0-.47-.62A1.2,1.2,0,0,0,258.52,21.1Z"/><path class="cls-2" d="M266.76,30.84a1.89,1.89,0,0,1-.63-.1,1.68,1.68,0,0,1-.52-.3,1.42,1.42,0,0,1-.48-1.08,1.6,1.6,0,0,1,.15-.7,1.93,1.93,0,0,1,.41-.57,1.84,1.84,0,0,1,.6-.37,2,2,0,0,1,.73-.14,2.15,2.15,0,0,1,.77.12,1.5,1.5,0,0,1,.52.33,1.28,1.28,0,0,1,.29.47,1.81,1.81,0,0,1,.09.58,1.72,1.72,0,0,1-.15.72,1.6,1.6,0,0,1-.4.56,1.74,1.74,0,0,1-.61.35A2.19,2.19,0,0,1,266.76,30.84Z"/></svg>