<svg id="Layer_1" data-name="Layer 1" xmlns="http://www.w3.org/2000/svg" viewBox="0 0 1200 628"><defs><style>.cls-1{fill:#fff;}.cls-2{fill:#f1b533;}</style></defs><path class="cls-1" d="M83.27,553.9v-3.35l4-.68v-29.1L83.34,520v-3.27h15.8V520l-4.17.76V533h14.57V520.77l-4-.76v-3.27h15.57V520l-3.9.76v29.12l3.9.66v3.35H105.63v-3.35l3.91-.68v-13H95v13l4.17.68v3.35Z"/><path class="cls-1" d="M124.87,546.47a7.48,7.48,0,0,1,.65-3.19,7.79,7.79,0,0,1,1.78-2.45,11,11,0,0,1,2.68-1.78,19.13,19.13,0,0,1,3.32-1.21,25.38,25.38,0,0,1,3.71-.69c1.28-.15,2.57-.24,3.85-.27v-1.17a5.62,5.62,0,0,0-1.13-4,5,5,0,0,0-3.72-1.18,18.18,18.18,0,0,0-2.65.2c-.89.14-1.74.31-2.55.52a21.75,21.75,0,0,0-2.26.68q-1,.38-1.77.72h0l-1.44-3.27a12.29,12.29,0,0,1,1.74-1.09A21.17,21.17,0,0,1,130,527a27.91,27.91,0,0,1,3.78-1.1,19.47,19.47,0,0,1,4.27-.47,15.68,15.68,0,0,1,4.6.59,7,7,0,0,1,3.08,1.81,7.18,7.18,0,0,1,1.73,3.09,15.5,15.5,0,0,1,.55,4.4v15.24h3v3c-.31.06-.69.15-1.15.26s-1,.2-1.51.29-1.15.16-1.78.23-1.29.1-2,.1a12.8,12.8,0,0,1-1.5-.08,2,2,0,0,1-1-.34,1.54,1.54,0,0,1-.55-.77,4.39,4.39,0,0,1-.17-1.35V550.5a9.52,9.52,0,0,1-1.15,1.25,9.41,9.41,0,0,1-1.77,1.29,10.28,10.28,0,0,1-2.35,1,9.89,9.89,0,0,1-2.91.41A10.94,10.94,0,0,1,130,554a7.1,7.1,0,0,1-2.65-1.44,6.78,6.78,0,0,1-1.8-2.49A8.92,8.92,0,0,1,124.87,546.47Zm11.6,3.28a4.29,4.29,0,0,0,1-.13,8.41,8.41,0,0,0,1.17-.34,9.06,9.06,0,0,0,1.2-.52,5.23,5.23,0,0,0,1-.7V540a15.3,15.3,0,0,0-4,.44,7.2,7.2,0,0,0-2.55,1.17,4.17,4.17,0,0,0-1.36,1.69,5.09,5.09,0,0,0-.4,2,4.9,4.9,0,0,0,1,3.31A3.62,3.62,0,0,0,136.47,549.75Z"/><path class="cls-1" d="M154.17,553.9v-3.28l3.15-.48V531.36l-3.32-1v-3.69l8.74-1.2h.12l1.3,1v2.91a13.85,13.85,0,0,1,1.9-1.44,15.29,15.29,0,0,1,2.38-1.25,17.38,17.38,0,0,1,2.7-.86,12.47,12.47,0,0,1,2.85-.33,10.83,10.83,0,0,1,3.92.61,5.3,5.3,0,0,1,2.51,2,9,9,0,0,1,1.31,3.45,28.6,28.6,0,0,1,.39,5.1v13.52l3.47.46v3.28H171.85v-3.28l2.66-.46V536.54a22.2,22.2,0,0,0-.17-2.92,5.67,5.67,0,0,0-.63-2,2.78,2.78,0,0,0-1.24-1.16,4.64,4.64,0,0,0-2-.38,7.56,7.56,0,0,0-1.64.18,9.29,9.29,0,0,0-1.52.48,10.12,10.12,0,0,0-1.32.64,11,11,0,0,0-1,.7v18.07l3.27.48v3.28Z"/><path class="cls-1" d="M199,554.43a11,11,0,0,1-4.24-.81,9.15,9.15,0,0,1-3.43-2.53,12.35,12.35,0,0,1-2.29-4.31,20.36,20.36,0,0,1-.83-6.14,18.26,18.26,0,0,1,1-6.14,13.91,13.91,0,0,1,2.85-4.82,13,13,0,0,1,4.56-3.16,15.4,15.4,0,0,1,6.08-1.14,18.54,18.54,0,0,1,2,.1,15,15,0,0,1,1.84.29v-8.3l-4.47-.76v-2.78l10.33-1h.12L214,514V550.5h2.71v3.08c-.81.18-1.74.37-2.78.57a17.32,17.32,0,0,1-3.42.31,3.66,3.66,0,0,1-2.32-.66,2.92,2.92,0,0,1-.83-2.39v-1a9.28,9.28,0,0,1-1.45,1.5,9.13,9.13,0,0,1-1.9,1.27,11,11,0,0,1-2.32.88A10.62,10.62,0,0,1,199,554.43Zm3.1-4.42a5.93,5.93,0,0,0,2.65-.56,5.31,5.31,0,0,0,1.77-1.27v-18.4a3.45,3.45,0,0,0-1.37-.79,6.91,6.91,0,0,0-2.27-.34,5.74,5.74,0,0,0-2.49.56,5.36,5.36,0,0,0-2.05,1.86,10.55,10.55,0,0,0-1.4,3.43,24.42,24.42,0,0,0-.58,5.26,22.37,22.37,0,0,0,.34,4.68,10,10,0,0,0,1.14,3.18,4.76,4.76,0,0,0,1.83,1.82A5.15,5.15,0,0,0,202.07,550Z"/><path class="cls-1" d="M235.93,553.9v-3.28l3.57-.46v-18.8l-3.3-1.05v-3.66l9-1.2h.12l1.79,1v23.64l3.54.48v3.28Zm6.5-32.57a3.58,3.58,0,0,1-1.53-.32,3.27,3.27,0,0,1-1.12-.84,3.7,3.7,0,0,1-.69-1.25,5.08,5.08,0,0,1-.23-1.52,6.17,6.17,0,0,1,.26-1.8,4,4,0,0,1,.79-1.47,3.82,3.82,0,0,1,1.33-1,4.46,4.46,0,0,1,1.85-.36h0a4.09,4.09,0,0,1,1.72.33A3.6,3.6,0,0,1,246,514a3.33,3.33,0,0,1,.72,1.25,4.64,4.64,0,0,1,.23,1.49,5.89,5.89,0,0,1-.27,1.82,4.21,4.21,0,0,1-.81,1.47,3.74,3.74,0,0,1-1.42,1,5.31,5.31,0,0,1-2,.36Z"/><path class="cls-1" d="M254.19,553.9v-3.28l3.15-.48V531.36l-3.32-1v-3.69l8.74-1.2h.13l1.29,1v2.91a14.49,14.49,0,0,1,1.9-1.44,16.24,16.24,0,0,1,2.38-1.25,18.09,18.09,0,0,1,2.7-.86,12.62,12.62,0,0,1,2.86-.33,10.87,10.87,0,0,1,3.92.61,5.27,5.27,0,0,1,2.5,2,8.89,8.89,0,0,1,1.32,3.45,28.6,28.6,0,0,1,.39,5.1v13.52l3.47.46v3.28H271.87v-3.28l2.66-.46V536.54a22.2,22.2,0,0,0-.17-2.92,5.48,5.48,0,0,0-.62-2,2.8,2.8,0,0,0-1.25-1.16,4.64,4.64,0,0,0-2-.38,7.47,7.47,0,0,0-1.63.18,9.11,9.11,0,0,0-1.53.48,10.12,10.12,0,0,0-1.32.64,10.76,10.76,0,0,0-1,.7v18.07l3.27.48v3.28Z"/><path class="cls-1" d="M303.9,553.9v-3.28l3-.48v-32.6l-3.66-.61v-2.85l9.5-1.2h.12l1.49,1.15,0,11.5-.39,3.88a14,14,0,0,1,1.65-1.29,14.28,14.28,0,0,1,2.23-1.26,16.09,16.09,0,0,1,2.72-1,12.18,12.18,0,0,1,3.12-.38,10.21,10.21,0,0,1,3.95.66,5.48,5.48,0,0,1,2.48,2,9.06,9.06,0,0,1,1.29,3.46,27.33,27.33,0,0,1,.38,4.94v13.53l3.44.48v3.28H321.6v-3.18l2.71-.53V536.54a22.2,22.2,0,0,0-.17-2.92,5.12,5.12,0,0,0-.65-2,2.84,2.84,0,0,0-1.31-1.16,5.24,5.24,0,0,0-2.17-.38,7.83,7.83,0,0,0-1.56.17,13.11,13.11,0,0,0-1.55.43,11.73,11.73,0,0,0-1.4.58,7.06,7.06,0,0,0-1.1.67v18.22l3.34.48v3.28Z"/><path class="cls-1" d="M337.67,546.47a7.48,7.48,0,0,1,.64-3.19,7.82,7.82,0,0,1,1.79-2.45,10.72,10.72,0,0,1,2.67-1.78,19.13,19.13,0,0,1,3.32-1.21,25.63,25.63,0,0,1,3.71-.69c1.28-.15,2.57-.24,3.86-.27v-1.17a5.62,5.62,0,0,0-1.14-4,5,5,0,0,0-3.72-1.18,18.29,18.29,0,0,0-2.65.2c-.89.14-1.74.31-2.55.52a21.75,21.75,0,0,0-2.26.68q-1,.38-1.77.72h0l-1.44-3.27a12,12,0,0,1,1.73-1.09,21.17,21.17,0,0,1,2.93-1.3,28.34,28.34,0,0,1,3.78-1.1,19.56,19.56,0,0,1,4.28-.47,15.73,15.73,0,0,1,4.6.59,7.05,7.05,0,0,1,3.07,1.81,7.3,7.3,0,0,1,1.74,3.09,15.87,15.87,0,0,1,.55,4.4v15.24h3v3c-.31.06-.69.15-1.14.26s-1,.2-1.52.29-1.15.16-1.78.23-1.29.1-1.95.1a12.55,12.55,0,0,1-1.5-.08,2.08,2.08,0,0,1-1-.34,1.46,1.46,0,0,1-.54-.77,4.07,4.07,0,0,1-.18-1.35V550.5a8.73,8.73,0,0,1-1.14,1.25,10.12,10.12,0,0,1-1.77,1.29,10.55,10.55,0,0,1-2.36,1,9.87,9.87,0,0,1-2.9.41,11,11,0,0,1-3.25-.47,7.18,7.18,0,0,1-2.65-1.44,6.64,6.64,0,0,1-1.79-2.49A8.92,8.92,0,0,1,337.67,546.47Zm11.59,3.28a4.23,4.23,0,0,0,1-.13,8.53,8.53,0,0,0,1.18-.34,9.54,9.54,0,0,0,1.19-.52,5.64,5.64,0,0,0,1-.7V540a15.38,15.38,0,0,0-4,.44,7.2,7.2,0,0,0-2.55,1.17,4.17,4.17,0,0,0-1.36,1.69,5.27,5.27,0,0,0-.4,2,4.9,4.9,0,0,0,1,3.31A3.62,3.62,0,0,0,349.26,549.75Z"/><path class="cls-1" d="M367,553.9v-3.28l3.15-.48V531.36l-3.32-1v-3.69l8.74-1.2h.12l1.3,1v2.91a14.49,14.49,0,0,1,1.9-1.44,15.75,15.75,0,0,1,2.38-1.25,18.09,18.09,0,0,1,2.7-.86,12.55,12.55,0,0,1,2.86-.33,10.87,10.87,0,0,1,3.92.61,5.32,5.32,0,0,1,2.5,2,8.89,8.89,0,0,1,1.32,3.45,28.6,28.6,0,0,1,.39,5.1v13.52l3.46.46v3.28H384.64v-3.28l2.66-.46V536.54a22.2,22.2,0,0,0-.17-2.92,5.67,5.67,0,0,0-.62-2,2.8,2.8,0,0,0-1.25-1.16,4.64,4.64,0,0,0-2-.38,7.4,7.4,0,0,0-1.63.18,9.11,9.11,0,0,0-1.53.48,10.12,10.12,0,0,0-1.32.64,9.63,9.63,0,0,0-1,.7v18.07l3.27.48v3.28Z"/><path class="cls-1" d="M411.76,554.43a11,11,0,0,1-4.23-.81,9.07,9.07,0,0,1-3.43-2.53,12.2,12.2,0,0,1-2.3-4.31,20.36,20.36,0,0,1-.83-6.14,18.26,18.26,0,0,1,1-6.14,13.78,13.78,0,0,1,2.86-4.82,12.83,12.83,0,0,1,4.55-3.16,15.43,15.43,0,0,1,6.08-1.14,18.41,18.41,0,0,1,2,.1,14.74,14.74,0,0,1,1.84.29v-8.3l-4.47-.76v-2.78l10.33-1h.12l1.52,1.15V550.5h2.71v3.08c-.82.18-1.74.37-2.79.57a17.28,17.28,0,0,1-3.41.31,3.62,3.62,0,0,1-2.32-.66,2.89,2.89,0,0,1-.83-2.39v-1a9.36,9.36,0,0,1-1.46,1.5,9.13,9.13,0,0,1-1.9,1.27,11,11,0,0,1-2.32.88A10.62,10.62,0,0,1,411.76,554.43Zm3.1-4.42a5.9,5.9,0,0,0,2.65-.56,5.11,5.11,0,0,0,1.77-1.27v-18.4a3.48,3.48,0,0,0-1.36-.79,7,7,0,0,0-2.28-.34,5.81,5.81,0,0,0-2.49.56,5.36,5.36,0,0,0-2,1.86,10.77,10.77,0,0,0-1.4,3.43,23.86,23.86,0,0,0-.57,5.26,21.71,21.71,0,0,0,.34,4.68,10.25,10.25,0,0,0,1.13,3.18,4.76,4.76,0,0,0,1.83,1.82A5.18,5.18,0,0,0,414.86,550Z"/><path class="cls-1" d="M448.48,553.9v-3.23l3.91-.66V530.34h-4.3v-2.93l4.3-1.22v-1.42a11.32,11.32,0,0,1,1.19-5.21,13.19,13.19,0,0,1,3.08-4,13.6,13.6,0,0,1,4.2-2.51,12.76,12.76,0,0,1,4.56-.88,9.63,9.63,0,0,1,1.88.14,10,10,0,0,1,1,.27v7.3a3.74,3.74,0,0,0-.89-.67,8.6,8.6,0,0,0-1.29-.59,11.29,11.29,0,0,0-1.55-.42,8,8,0,0,0-1.69-.17,4.8,4.8,0,0,0-1.19.14,2.07,2.07,0,0,0-.92.53,2.52,2.52,0,0,0-.59,1,5.8,5.8,0,0,0-.2,1.65l0,4.79h6.27v4.15H460v19.82l5.42.51v3.23Z"/><path class="cls-1" d="M468.94,540.08a16.65,16.65,0,0,1,1.15-6.47,13.31,13.31,0,0,1,3.05-4.59,12.46,12.46,0,0,1,4.41-2.74,15.22,15.22,0,0,1,5.21-.9,14.82,14.82,0,0,1,5.61,1,11,11,0,0,1,4.11,2.84,12.49,12.49,0,0,1,2.51,4.52,19.65,19.65,0,0,1,.85,6,17.3,17.3,0,0,1-1.14,6.59,13,13,0,0,1-3.05,4.58,12.17,12.17,0,0,1-4.4,2.66,15.64,15.64,0,0,1-5.2.87,14.78,14.78,0,0,1-5.61-1,11,11,0,0,1-4.12-2.85,12.25,12.25,0,0,1-2.53-4.51A19.74,19.74,0,0,1,468.94,540.08Zm13.53,11a4.38,4.38,0,0,0,2.32-.6,4.53,4.53,0,0,0,1.62-1.88,11,11,0,0,0,.95-3.28,32.78,32.78,0,0,0,.31-4.79,39.84,39.84,0,0,0-.29-5.06,13.82,13.82,0,0,0-.9-3.7,5.34,5.34,0,0,0-1.63-2.26,4,4,0,0,0-2.48-.77,4.39,4.39,0,0,0-2.33.6,4.52,4.52,0,0,0-1.65,1.88,10.9,10.9,0,0,0-1,3.28,31.31,31.31,0,0,0-.32,4.79,38,38,0,0,0,.3,5.06,13.73,13.73,0,0,0,.94,3.7,5.47,5.47,0,0,0,1.66,2.26A4,4,0,0,0,482.47,551.09Z"/><path class="cls-1" d="M499.58,553.9v-3.28l3.52-.46v-18.8l-3.32-1v-3.69l8.34-1.2h.15l1.3,1v2l0,3.81h.1a10.69,10.69,0,0,1,1.06-2,13.26,13.26,0,0,1,1.91-2.29,11.26,11.26,0,0,1,2.61-1.91,6.75,6.75,0,0,1,3.21-.79,8.5,8.5,0,0,1,1.16.06,3.89,3.89,0,0,1,.67.16v8.45a4.77,4.77,0,0,0-1.4-.43,15.44,15.44,0,0,0-4.41-.13c-.57.06-1.1.15-1.6.25a9.27,9.27,0,0,0-1.33.38,4.18,4.18,0,0,0-.9.44v15.58l6.07.58v3.18Z"/><path class="cls-2" d="M538.76,553.9v-3.28l3-.48v-32.6l-3.66-.61v-2.85l9.49-1.2h.12l1.49,1.15,0,11.5-.39,3.88a14,14,0,0,1,1.65-1.29,14.28,14.28,0,0,1,2.23-1.26,15.9,15.9,0,0,1,2.73-1,12.1,12.1,0,0,1,3.11-.38,10.21,10.21,0,0,1,3.95.66,5.48,5.48,0,0,1,2.48,2,9.23,9.23,0,0,1,1.3,3.46,28.36,28.36,0,0,1,.37,4.94v13.53l3.45.48v3.28H556.46v-3.18l2.71-.53V536.54a20.59,20.59,0,0,0-.17-2.92,5.29,5.29,0,0,0-.64-2,2.92,2.92,0,0,0-1.32-1.16,5.16,5.16,0,0,0-2.16-.38,7.68,7.68,0,0,0-1.56.17,12.13,12.13,0,0,0-1.55.43,11.23,11.23,0,0,0-1.41.58,7.57,7.57,0,0,0-1.1.67v18.22l3.35.48v3.28Z"/><path class="cls-2" d="M585.83,554.46a14.8,14.8,0,0,1-5.92-1.08,10.66,10.66,0,0,1-4.07-3,12.26,12.26,0,0,1-2.36-4.57,21.45,21.45,0,0,1-.76-5.82,18.17,18.17,0,0,1,1-6.11,13.1,13.1,0,0,1,2.72-4.59,11.61,11.61,0,0,1,4.22-2.89,14.4,14.4,0,0,1,5.47-1q10.14,0,10.57,9.88c0,1.13,0,2.14,0,3a14.53,14.53,0,0,1-.25,2.29H580.46a15.11,15.11,0,0,0,.71,4.12,8.1,8.1,0,0,0,1.54,2.78,5.61,5.61,0,0,0,2.26,1.57,8.23,8.23,0,0,0,2.87.49,13,13,0,0,0,2.32-.2,15.24,15.24,0,0,0,2-.49,11,11,0,0,0,1.66-.66,13.11,13.11,0,0,0,1.28-.71l1.27,3a9.68,9.68,0,0,1-1.7,1.33,16,16,0,0,1-2.49,1.28,19.92,19.92,0,0,1-3,1A14.07,14.07,0,0,1,585.83,554.46Zm-.65-25.78a4.47,4.47,0,0,0-1.77.34,3.32,3.32,0,0,0-1.45,1.29,8.72,8.72,0,0,0-1,2.65,22.64,22.64,0,0,0-.5,4.38h8.76c0-.08,0-.19,0-.34s0-.3,0-.46,0-.32,0-.47v-.31a18.12,18.12,0,0,0-.17-2.53,8,8,0,0,0-.62-2.28,4.38,4.38,0,0,0-1.25-1.64A3.14,3.14,0,0,0,585.18,528.68Z"/><path class="cls-2" d="M600,546.47a7.48,7.48,0,0,1,.65-3.19,7.79,7.79,0,0,1,1.78-2.45,11.1,11.1,0,0,1,2.67-1.78,19.44,19.44,0,0,1,3.32-1.21,25.89,25.89,0,0,1,3.71-.69c1.29-.15,2.57-.24,3.86-.27v-1.17a5.67,5.67,0,0,0-1.13-4,5,5,0,0,0-3.73-1.18,18.29,18.29,0,0,0-2.65.2c-.88.14-1.73.31-2.55.52a23.33,23.33,0,0,0-2.26.68q-1,.38-1.77.72h0l-1.44-3.27a12.66,12.66,0,0,1,1.73-1.09,21.72,21.72,0,0,1,2.93-1.3,28.06,28.06,0,0,1,3.79-1.1,19.4,19.4,0,0,1,4.27-.47,15.68,15.68,0,0,1,4.6.59,7.09,7.09,0,0,1,3.08,1.81,7.29,7.29,0,0,1,1.73,3.09,15.5,15.5,0,0,1,.55,4.4v15.24h3v3c-.31.06-.7.15-1.15.26s-1,.2-1.51.29-1.15.16-1.79.23-1.28.1-2,.1a12.55,12.55,0,0,1-1.5-.08,2,2,0,0,1-1-.34,1.48,1.48,0,0,1-.55-.77,4.11,4.11,0,0,1-.17-1.35V550.5a9.52,9.52,0,0,1-1.15,1.25,10.12,10.12,0,0,1-1.77,1.29,10.36,10.36,0,0,1-2.36,1,9.77,9.77,0,0,1-2.9.41,11,11,0,0,1-3.25-.47,7.18,7.18,0,0,1-2.65-1.44,6.87,6.87,0,0,1-1.79-2.49A8.92,8.92,0,0,1,600,546.47Zm11.6,3.28a4.36,4.36,0,0,0,1-.13,8.83,8.83,0,0,0,1.17-.34,9.67,9.67,0,0,0,1.2-.52,5.23,5.23,0,0,0,1-.7V540a15.38,15.38,0,0,0-4,.44,7.37,7.37,0,0,0-2.55,1.17,4.22,4.22,0,0,0-1.35,1.69,5.1,5.1,0,0,0-.41,2,4.9,4.9,0,0,0,1,3.31A3.64,3.64,0,0,0,611.62,549.75Z"/><path class="cls-2" d="M629.15,553.9v-3.28l3.51-.46v-18.8l-3.32-1v-3.69l8.35-1.2h.15l1.29,1v2l0,3.81h.09a10.84,10.84,0,0,1,1.07-2,13.19,13.19,0,0,1,1.9-2.29,11.7,11.7,0,0,1,2.61-1.91,6.81,6.81,0,0,1,3.21-.79,8.4,8.4,0,0,1,1.16.06,3.89,3.89,0,0,1,.67.16v8.45a4.66,4.66,0,0,0-1.4-.43,15.44,15.44,0,0,0-4.41-.13c-.57.06-1.1.15-1.59.25a9.43,9.43,0,0,0-1.34.38,4.18,4.18,0,0,0-.9.44v15.58l6.08.58v3.18Z"/><path class="cls-2" d="M655.71,548v-18h-3.44v-2.78l.62-.21.88-.33.81-.33a3.36,3.36,0,0,0,.47-.23,7.59,7.59,0,0,0,1.73-2.35c.16-.32.34-.7.54-1.13s.39-.88.57-1.36.36-.94.53-1.4.3-.88.41-1.26h4.35l.07,7.23h7.18v4.15h-7.18v13.52c0,1.31,0,2.34.06,3.1a5.59,5.59,0,0,0,.3,1.74,1.17,1.17,0,0,0,.72.75,4,4,0,0,0,1.34.18h0a9.12,9.12,0,0,0,1.24-.1c.43-.07.85-.14,1.27-.23s.79-.19,1.14-.3.64-.2.87-.28h0l1.15,2.86a13.31,13.31,0,0,1-1.79,1.12,17.66,17.66,0,0,1-2.35,1,19.49,19.49,0,0,1-2.71.73,15.4,15.4,0,0,1-2.86.28h0a8,8,0,0,1-2.75-.42,4.13,4.13,0,0,1-1.83-1.23,5,5,0,0,1-1-2A10.47,10.47,0,0,1,655.71,548Z"/><path class="cls-2" d="M689.11,553.9v-3.28l3-.48v-32.6l-3.66-.61v-2.85l9.49-1.2h.13l1.49,1.15,0,11.5-.39,3.88a14,14,0,0,1,1.65-1.29,14.4,14.4,0,0,1,2.24-1.26,15.79,15.79,0,0,1,2.72-1,12.1,12.1,0,0,1,3.11-.38,10.27,10.27,0,0,1,4,.66,5.45,5.45,0,0,1,2.47,2,9.06,9.06,0,0,1,1.3,3.46,28.27,28.27,0,0,1,.38,4.94v13.53l3.44.48v3.28H706.81v-3.18l2.71-.53V536.54a22.2,22.2,0,0,0-.17-2.92,5.28,5.28,0,0,0-.65-2,2.92,2.92,0,0,0-1.32-1.16,5.16,5.16,0,0,0-2.16-.38,7.68,7.68,0,0,0-1.56.17,12.13,12.13,0,0,0-1.55.43,11.23,11.23,0,0,0-1.41.58,7.57,7.57,0,0,0-1.1.67v18.22l3.35.48v3.28Z"/><path class="cls-2" d="M736.18,554.46a14.73,14.73,0,0,1-5.92-1.08,10.7,10.7,0,0,1-4.08-3,12.26,12.26,0,0,1-2.36-4.57,21.46,21.46,0,0,1-.75-5.82,18.18,18.18,0,0,1,1-6.11,13.1,13.1,0,0,1,2.72-4.59,11.56,11.56,0,0,1,4.23-2.89,14.33,14.33,0,0,1,5.47-1q10.13,0,10.57,9.88c0,1.13,0,2.14,0,3a14.53,14.53,0,0,1-.25,2.29H730.81a15.14,15.14,0,0,0,.7,4.12,8.1,8.1,0,0,0,1.54,2.78,5.67,5.67,0,0,0,2.26,1.57,8.27,8.27,0,0,0,2.87.49,13,13,0,0,0,2.32-.2,15.24,15.24,0,0,0,2-.49,11,11,0,0,0,1.66-.66,13.11,13.11,0,0,0,1.28-.71l1.27,3a9.32,9.32,0,0,1-1.7,1.33,16,16,0,0,1-2.49,1.28,19.57,19.57,0,0,1-3,1A14,14,0,0,1,736.18,554.46Zm-.66-25.78a4.47,4.47,0,0,0-1.77.34,3.24,3.24,0,0,0-1.44,1.29,8.46,8.46,0,0,0-1,2.65,23.46,23.46,0,0,0-.5,4.38h8.77c0-.08,0-.19,0-.34s0-.3,0-.46,0-.32,0-.47v-.31a18.12,18.12,0,0,0-.17-2.53,8,8,0,0,0-.62-2.28,4.46,4.46,0,0,0-1.24-1.64A3.18,3.18,0,0,0,735.52,528.68Z"/><path class="cls-2" d="M750.36,546.47a7.48,7.48,0,0,1,.65-3.19,7.79,7.79,0,0,1,1.78-2.45,11.1,11.1,0,0,1,2.67-1.78,19.75,19.75,0,0,1,3.32-1.21,25.77,25.77,0,0,1,3.72-.69c1.28-.15,2.57-.24,3.85-.27v-1.17a5.67,5.67,0,0,0-1.13-4,5,5,0,0,0-3.73-1.18,18.15,18.15,0,0,0-2.64.2c-.89.14-1.74.31-2.56.52A22.29,22.29,0,0,0,754,532a18.79,18.79,0,0,0-1.77.72h0l-1.44-3.27a12.66,12.66,0,0,1,1.73-1.09,21.72,21.72,0,0,1,2.93-1.3,28.06,28.06,0,0,1,3.79-1.1,19.47,19.47,0,0,1,4.27-.47,15.68,15.68,0,0,1,4.6.59,7.09,7.09,0,0,1,3.08,1.81,7.18,7.18,0,0,1,1.73,3.09,15.5,15.5,0,0,1,.55,4.4v15.24h3v3c-.31.06-.69.15-1.15.26s-1,.2-1.51.29-1.15.16-1.78.23-1.29.1-2,.1a12.8,12.8,0,0,1-1.5-.08,2,2,0,0,1-1-.34,1.48,1.48,0,0,1-.55-.77,4.39,4.39,0,0,1-.17-1.35V550.5a9.52,9.52,0,0,1-1.15,1.25A10.12,10.12,0,0,1,764,553a10.28,10.28,0,0,1-2.35,1,9.89,9.89,0,0,1-2.91.41,11,11,0,0,1-3.25-.47,7.18,7.18,0,0,1-2.65-1.44,6.87,6.87,0,0,1-1.79-2.49A8.92,8.92,0,0,1,750.36,546.47Zm11.6,3.28a4.36,4.36,0,0,0,1-.13,8.83,8.83,0,0,0,1.17-.34,9.06,9.06,0,0,0,1.2-.52,5.23,5.23,0,0,0,1-.7V540a15.38,15.38,0,0,0-4,.44,7.37,7.37,0,0,0-2.55,1.17,4.22,4.22,0,0,0-1.35,1.69,5.09,5.09,0,0,0-.4,2,5,5,0,0,0,1,3.31A3.64,3.64,0,0,0,762,549.75Z"/><path class="cls-2" d="M778.73,553.9v-3.28l3.54-.48v-32.6l-3.64-.61v-2.85l9.55-1.2h.07l1.54,1.15v36.11l3.69.48v3.28Z"/><path class="cls-2" d="M799.43,548v-18H796v-2.78l.62-.21.88-.33.82-.33a3,3,0,0,0,.46-.23,7.44,7.44,0,0,0,1.74-2.35c.16-.32.34-.7.53-1.13s.39-.88.58-1.36.36-.94.52-1.4.3-.88.42-1.26h4.34l.08,7.23h7.18v4.15H807v13.52c0,1.31,0,2.34.06,3.1a6,6,0,0,0,.29,1.74,1.22,1.22,0,0,0,.72.75,4,4,0,0,0,1.34.18h0a9,9,0,0,0,1.23-.1c.43-.07.86-.14,1.27-.23s.8-.19,1.15-.3.64-.2.87-.28h0l1.15,2.86a12.86,12.86,0,0,1-1.8,1.12,18.09,18.09,0,0,1-2.34,1,20.28,20.28,0,0,1-2.71.73,15.42,15.42,0,0,1-2.87.28h0a8,8,0,0,1-2.75-.42,4.24,4.24,0,0,1-1.83-1.23,5.15,5.15,0,0,1-1-2A10.9,10.9,0,0,1,799.43,548Z"/><path class="cls-2" d="M817.13,553.9v-3.28l3-.48v-32.6l-3.67-.61v-2.85l9.5-1.2h.12l1.49,1.15,0,11.5-.39,3.88a14,14,0,0,1,1.65-1.29,14.28,14.28,0,0,1,2.23-1.26,15.9,15.9,0,0,1,2.73-1,12.1,12.1,0,0,1,3.11-.38,10.21,10.21,0,0,1,3.95.66,5.48,5.48,0,0,1,2.48,2,9.23,9.23,0,0,1,1.3,3.46,28.36,28.36,0,0,1,.37,4.94v13.53l3.45.48v3.28H834.83v-3.18l2.71-.53V536.54a20.59,20.59,0,0,0-.17-2.92,5.29,5.29,0,0,0-.64-2,2.92,2.92,0,0,0-1.32-1.16,5.16,5.16,0,0,0-2.16-.38,7.85,7.85,0,0,0-1.57.17,13.11,13.11,0,0,0-1.55.43,11.73,11.73,0,0,0-1.4.58,7.06,7.06,0,0,0-1.1.67v18.22l3.35.48v3.28Z"/><path class="cls-2" d="M857.73,554.31a4.93,4.93,0,0,1-1.63-.27,4.11,4.11,0,0,1-1.37-.78,3.78,3.78,0,0,1-.93-1.23,3.85,3.85,0,0,1-.34-1.62,4.35,4.35,0,0,1,.39-1.85,4.74,4.74,0,0,1,1.08-1.48,4.84,4.84,0,0,1,1.58-1,5.21,5.21,0,0,1,1.93-.36,5.73,5.73,0,0,1,2,.32,3.8,3.8,0,0,1,1.35.85,3.17,3.17,0,0,1,.76,1.25,4.68,4.68,0,0,1,.23,1.51,4.56,4.56,0,0,1-.38,1.91,4.17,4.17,0,0,1-1,1.46,4.5,4.5,0,0,1-1.61.94A6.06,6.06,0,0,1,857.73,554.31Z"/></svg>