<svg id="Layer_1" data-name="Layer 1" xmlns="http://www.w3.org/2000/svg" viewBox="0 0 160 600"><defs><style>.cls-1{fill:#fff;}.cls-2{fill:#f1b533;}</style></defs><path class="cls-1" d="M16.15,354.44v-1.27l1.51-.26V341.85l-1.48-.29v-1.24h6v1.24l-1.59.29v4.65h5.54v-4.65l-1.5-.29v-1.24h5.92v1.24l-1.49.29v11.07l1.49.25v1.27h-5.9v-1.27l1.48-.26v-5H20.59v5l1.59.26v1.27Z"/><path class="cls-1" d="M32,351.62a2.92,2.92,0,0,1,.24-1.22,3.1,3.1,0,0,1,.68-.93,4.1,4.1,0,0,1,1-.67,7,7,0,0,1,1.26-.46,10.35,10.35,0,0,1,1.41-.27c.49-.05,1-.09,1.46-.1v-.44A2.13,2.13,0,0,0,37.6,346a1.89,1.89,0,0,0-1.41-.45,5.73,5.73,0,0,0-1,.08,9.25,9.25,0,0,0-1,.19c-.31.08-.59.17-.86.26s-.48.19-.67.28h0l-.55-1.25a5.48,5.48,0,0,1,.66-.41,8,8,0,0,1,1.12-.5,10.12,10.12,0,0,1,1.43-.41,7.34,7.34,0,0,1,1.63-.18,6,6,0,0,1,1.75.22,2.72,2.72,0,0,1,1.17.69,2.89,2.89,0,0,1,.65,1.17,6,6,0,0,1,.21,1.68v5.79h1.15v1.14l-.43.09-.58.12-.68.08a5.9,5.9,0,0,1-.74,0,4.67,4.67,0,0,1-.57,0,.81.81,0,0,1-.38-.13.64.64,0,0,1-.21-.29,1.78,1.78,0,0,1-.06-.51v-.54a3.95,3.95,0,0,1-1.11,1,3.7,3.7,0,0,1-.9.39,3.8,3.8,0,0,1-1.1.15,4.06,4.06,0,0,1-1.23-.18,2.73,2.73,0,0,1-1-.54,2.54,2.54,0,0,1-.68-.95A3.34,3.34,0,0,1,32,351.62Zm4.4,1.24a1.81,1.81,0,0,0,.38-.05,2.54,2.54,0,0,0,.45-.13,2.57,2.57,0,0,0,.45-.2,1.56,1.56,0,0,0,.39-.26v-3.07a5.74,5.74,0,0,0-1.5.17,2.83,2.83,0,0,0-1,.44,1.64,1.64,0,0,0-.52.64,2,2,0,0,0-.15.77,1.88,1.88,0,0,0,.37,1.26A1.37,1.37,0,0,0,36.36,352.86Z"/><path class="cls-1" d="M43.09,354.44v-1.25l1.2-.18v-7.13l-1.26-.4v-1.4l3.32-.45h0l.49.4v1.1a6.6,6.6,0,0,1,.73-.55,7.62,7.62,0,0,1,.9-.47,8.26,8.26,0,0,1,1-.33,5,5,0,0,1,1.08-.12,4,4,0,0,1,1.49.23,2,2,0,0,1,1,.74,3.18,3.18,0,0,1,.5,1.31,10.77,10.77,0,0,1,.15,1.94V353l1.32.17v1.25H49.81v-1.25l1-.17v-5.18a7.14,7.14,0,0,0-.07-1.11,2.13,2.13,0,0,0-.23-.76,1.07,1.07,0,0,0-.48-.44,1.73,1.73,0,0,0-.77-.15,3.18,3.18,0,0,0-.62.07,4.39,4.39,0,0,0-.58.18,3.88,3.88,0,0,0-.5.25l-.4.26V353l1.25.18v1.25Z"/><path class="cls-1" d="M60.11,354.64a4.12,4.12,0,0,1-1.61-.31,3.55,3.55,0,0,1-1.3-1,4.65,4.65,0,0,1-.87-1.64A7.67,7.67,0,0,1,56,349.4a6.94,6.94,0,0,1,.38-2.33,5.36,5.36,0,0,1,1.08-1.84A5.07,5.07,0,0,1,59.2,344a6.06,6.06,0,0,1,2.31-.43,6.23,6.23,0,0,1,.76,0,5.12,5.12,0,0,1,.7.11V340.6l-1.7-.29v-1.06l3.93-.4h0l.58.44v13.86h1v1.17l-1.06.22a7.42,7.42,0,0,1-1.3.11,1.38,1.38,0,0,1-.88-.25,1.11,1.11,0,0,1-.31-.91v-.36A4,4,0,0,1,62,354.18a4.6,4.6,0,0,1-.88.34A4.22,4.22,0,0,1,60.11,354.64ZM61.29,353a2.34,2.34,0,0,0,1-.21,2,2,0,0,0,.67-.48v-7a1.37,1.37,0,0,0-.52-.3,2.73,2.73,0,0,0-.86-.13,2.21,2.21,0,0,0-1,.22,2.13,2.13,0,0,0-.78.7,4.11,4.11,0,0,0-.53,1.31,9.09,9.09,0,0,0-.22,2,8.41,8.41,0,0,0,.13,1.77,3.79,3.79,0,0,0,.43,1.21,1.72,1.72,0,0,0,.7.69A1.87,1.87,0,0,0,61.29,353Z"/><path class="cls-1" d="M74.16,354.44v-1.25l1.35-.17v-7.14l-1.25-.4v-1.4l3.41-.45h0l.68.4v9l1.34.18v1.25Zm2.47-12.38a1.34,1.34,0,0,1-.58-.12,1.27,1.27,0,0,1-.43-.32,1.43,1.43,0,0,1-.26-.47,1.85,1.85,0,0,1-.09-.58,2.15,2.15,0,0,1,.1-.68,1.64,1.64,0,0,1,.3-.57,1.62,1.62,0,0,1,.51-.38,1.68,1.68,0,0,1,.7-.14h0a1.6,1.6,0,0,1,.65.13,1.29,1.29,0,0,1,.46.33,1.42,1.42,0,0,1,.27.48,1.79,1.79,0,0,1,.09.57,2.17,2.17,0,0,1-.1.69,1.61,1.61,0,0,1-.31.56,1.52,1.52,0,0,1-.54.37,2,2,0,0,1-.77.13Z"/><path class="cls-1" d="M81.1,354.44v-1.25l1.2-.18v-7.13l-1.27-.4v-1.4l3.33-.45h0l.49.4v1.1a6.6,6.6,0,0,1,.73-.55,7.62,7.62,0,0,1,.9-.47,8.26,8.26,0,0,1,1-.33,5,5,0,0,1,1.08-.12,4,4,0,0,1,1.49.23,2,2,0,0,1,.95.74,3.32,3.32,0,0,1,.5,1.31,10.77,10.77,0,0,1,.15,1.94V353l1.32.17v1.25H87.82v-1.25l1-.17v-5.18a7.14,7.14,0,0,0-.07-1.11,2.13,2.13,0,0,0-.23-.76,1.07,1.07,0,0,0-.48-.44,1.73,1.73,0,0,0-.77-.15,3.18,3.18,0,0,0-.62.07,4.39,4.39,0,0,0-.58.18,3.88,3.88,0,0,0-.5.25,4,4,0,0,0-.4.26V353l1.24.18v1.25Z"/><path class="cls-1" d="M16,380.44v-1.25l1.14-.18V366.62l-1.39-.23v-1.08l3.61-.46h0l.57.44,0,4.37-.15,1.47a6.35,6.35,0,0,1,.63-.49,6.13,6.13,0,0,1,.85-.48,6.9,6.9,0,0,1,1-.36,5,5,0,0,1,1.18-.14,3.87,3.87,0,0,1,1.51.25,2.08,2.08,0,0,1,.94.77,3.48,3.48,0,0,1,.49,1.31,11.37,11.37,0,0,1,.14,1.88V379l1.31.18v1.25H22.74v-1.21l1-.2v-5.19a8.83,8.83,0,0,0-.06-1.11,1.79,1.79,0,0,0-.25-.76,1,1,0,0,0-.5-.44,1.91,1.91,0,0,0-.82-.15,2.44,2.44,0,0,0-.59.07,4.61,4.61,0,0,0-1.12.38,2.57,2.57,0,0,0-.42.26V379l1.27.18v1.25Z"/><path class="cls-1" d="M28.84,377.62a2.77,2.77,0,0,1,.25-1.22,3.07,3.07,0,0,1,.67-.93,4.1,4.1,0,0,1,1-.67,7,7,0,0,1,1.26-.46,10.35,10.35,0,0,1,1.41-.27c.49-.05,1-.09,1.47-.1v-.44a2.18,2.18,0,0,0-.43-1.51,1.9,1.9,0,0,0-1.42-.45,5.81,5.81,0,0,0-1,.08,9.79,9.79,0,0,0-1,.19c-.3.08-.59.17-.85.26s-.49.19-.68.28h0L29,371.13a5.48,5.48,0,0,1,.66-.41,7.88,7.88,0,0,1,1.11-.5,9.9,9.9,0,0,1,1.44-.41,7.18,7.18,0,0,1,1.62-.18,5.92,5.92,0,0,1,1.75.22,2.72,2.72,0,0,1,1.17.69,2.8,2.8,0,0,1,.66,1.17,6,6,0,0,1,.21,1.68v5.79h1.15v1.14l-.44.09-.58.12-.67.08a6.06,6.06,0,0,1-.75,0,4.67,4.67,0,0,1-.57,0,.86.86,0,0,1-.38-.13.56.56,0,0,1-.2-.29,1.46,1.46,0,0,1-.07-.51v-.54a3,3,0,0,1-.44.47,3.63,3.63,0,0,1-.67.49,3.8,3.8,0,0,1-.89.39,3.87,3.87,0,0,1-1.11.15,4.06,4.06,0,0,1-1.23-.18,2.81,2.81,0,0,1-1-.54,2.66,2.66,0,0,1-.68-.95A3.34,3.34,0,0,1,28.84,377.62Zm4.41,1.24a2,2,0,0,0,.38-.05,2.71,2.71,0,0,0,.44-.13,2.67,2.67,0,0,0,.46-.2,1.77,1.77,0,0,0,.39-.26v-3.07a5.82,5.82,0,0,0-1.51.17,2.83,2.83,0,0,0-1,.44,1.73,1.73,0,0,0-.52.64,2,2,0,0,0-.15.77,1.88,1.88,0,0,0,.38,1.26A1.36,1.36,0,0,0,33.25,378.86Z"/><path class="cls-1" d="M40,380.44v-1.25l1.2-.18v-7.13l-1.26-.4v-1.4l3.32-.45h.05l.49.4v1.1a5.63,5.63,0,0,1,.72-.55,7.06,7.06,0,0,1,.91-.47,7.61,7.61,0,0,1,1-.33,5,5,0,0,1,1.09-.12,4.06,4.06,0,0,1,1.49.23,2,2,0,0,1,1,.74,3.48,3.48,0,0,1,.5,1.31,10.77,10.77,0,0,1,.15,1.94V379l1.31.17v1.25H46.69v-1.25l1-.17v-5.18a8.83,8.83,0,0,0-.06-1.11,2.35,2.35,0,0,0-.24-.76,1,1,0,0,0-.47-.44,1.75,1.75,0,0,0-.78-.15,3.18,3.18,0,0,0-.62.07,4.91,4.91,0,0,0-.58.18,4.66,4.66,0,0,0-.5.25l-.4.26V379l1.25.18v1.25Z"/><path class="cls-1" d="M57,380.64a4.05,4.05,0,0,1-1.61-.31,3.5,3.5,0,0,1-1.31-1,4.65,4.65,0,0,1-.87-1.64,7.69,7.69,0,0,1-.31-2.33,6.94,6.94,0,0,1,.37-2.33,5.23,5.23,0,0,1,1.09-1.84,5,5,0,0,1,1.73-1.2,6.56,6.56,0,0,1,3.06-.39,4.88,4.88,0,0,1,.7.11V366.6l-1.69-.29v-1.06l3.92-.4h.05l.57.44v13.86h1v1.17l-1.06.22a7.3,7.3,0,0,1-1.29.11,1.39,1.39,0,0,1-.89-.25,1.11,1.11,0,0,1-.31-.91v-.36a3.77,3.77,0,0,1-1.28,1.05,4.6,4.6,0,0,1-.88.34A4.19,4.19,0,0,1,57,380.64ZM58.17,379a2.31,2.31,0,0,0,1-.21,2,2,0,0,0,.67-.48v-7a1.29,1.29,0,0,0-.52-.3,2.68,2.68,0,0,0-.86-.13,2.16,2.16,0,0,0-.94.22,2,2,0,0,0-.78.7,4.1,4.1,0,0,0-.54,1.31,9.15,9.15,0,0,0-.21,2,8.48,8.48,0,0,0,.12,1.77,3.79,3.79,0,0,0,.44,1.21,1.69,1.69,0,0,0,.69.69A1.9,1.9,0,0,0,58.17,379Z"/><path class="cls-1" d="M71,380.44v-1.23l1.48-.25v-7.48H70.8v-1.11l1.63-.46v-.54a4.19,4.19,0,0,1,.46-2,5,5,0,0,1,1.17-1.51,5.25,5.25,0,0,1,1.59-.95,4.76,4.76,0,0,1,1.74-.34,3.16,3.16,0,0,1,.71.06,2.3,2.3,0,0,1,.37.1v2.77a1.43,1.43,0,0,0-.34-.25,2,2,0,0,0-.49-.22,4.57,4.57,0,0,0-.59-.17,3.39,3.39,0,0,0-.64-.06,2.06,2.06,0,0,0-.45.05.87.87,0,0,0-.35.2.93.93,0,0,0-.22.39,2.25,2.25,0,0,0-.08.63v1.82H77.7v1.57H75.32V379l2.06.19v1.23Z"/><path class="cls-1" d="M78.72,375.19a6.39,6.39,0,0,1,.44-2.46A5.2,5.2,0,0,1,80.32,371,4.59,4.59,0,0,1,82,370a5.82,5.82,0,0,1,2-.35,5.68,5.68,0,0,1,2.14.38,4.13,4.13,0,0,1,1.56,1.08,4.59,4.59,0,0,1,1,1.71,7.42,7.42,0,0,1,.33,2.3,6.53,6.53,0,0,1-.44,2.5,4.87,4.87,0,0,1-1.16,1.74,4.68,4.68,0,0,1-1.67,1,6,6,0,0,1-2,.33,5.68,5.68,0,0,1-2.14-.37A4.26,4.26,0,0,1,80,379.19a4.61,4.61,0,0,1-1-1.71A7.4,7.4,0,0,1,78.72,375.19Zm5.14,4.18a1.71,1.71,0,0,0,.89-.23,1.73,1.73,0,0,0,.61-.71,3.87,3.87,0,0,0,.36-1.25,11.87,11.87,0,0,0,.12-1.82,15.56,15.56,0,0,0-.11-1.92,5.4,5.4,0,0,0-.34-1.41,2.2,2.2,0,0,0-.62-.86,1.55,1.55,0,0,0-.94-.29,1.71,1.71,0,0,0-.89.23,1.77,1.77,0,0,0-.63.71,4.42,4.42,0,0,0-.37,1.25,11.87,11.87,0,0,0-.12,1.82,15.56,15.56,0,0,0,.11,1.92,5.65,5.65,0,0,0,.36,1.41,2.24,2.24,0,0,0,.63.86A1.55,1.55,0,0,0,83.86,379.37Z"/><path class="cls-1" d="M90.37,380.44v-1.25L91.7,379v-7.14l-1.26-.4v-1.4l3.17-.45h.06l.49.4v2.22h0a4,4,0,0,1,.4-.75,5.27,5.27,0,0,1,.73-.87,4.1,4.1,0,0,1,1-.73,2.53,2.53,0,0,1,1.22-.3l.44,0a1.09,1.09,0,0,1,.25.07v3.2a2,2,0,0,0-.53-.16,5.09,5.09,0,0,0-1-.09c-.22,0-.44,0-.65,0l-.61.1a4.6,4.6,0,0,0-.51.14,1.78,1.78,0,0,0-.34.17V379l2.31.22v1.21Z"/><path class="cls-2" d="M16,406.44v-1.25l1.14-.18V392.62l-1.39-.23v-1.08l3.61-.46h0l.57.44,0,4.37-.15,1.47a6.35,6.35,0,0,1,.63-.49,6.13,6.13,0,0,1,.85-.48,6.9,6.9,0,0,1,1-.36,5,5,0,0,1,1.18-.14,3.87,3.87,0,0,1,1.51.25,2.08,2.08,0,0,1,.94.77,3.48,3.48,0,0,1,.49,1.31,11.37,11.37,0,0,1,.14,1.88V405l1.31.18v1.25H22.74v-1.21l1-.2v-5.19a8.83,8.83,0,0,0-.06-1.11,1.79,1.79,0,0,0-.25-.76,1,1,0,0,0-.5-.44,1.91,1.91,0,0,0-.82-.15,2.44,2.44,0,0,0-.59.07,4.61,4.61,0,0,0-1.12.38,2.57,2.57,0,0,0-.42.26V405l1.27.18v1.25Z"/><path class="cls-2" d="M33.9,406.65a5.62,5.62,0,0,1-2.25-.41,4.07,4.07,0,0,1-1.55-1.13,4.65,4.65,0,0,1-.9-1.74,8.15,8.15,0,0,1-.29-2.21,7,7,0,0,1,.37-2.33,4.89,4.89,0,0,1,1-1.74,4.4,4.4,0,0,1,1.6-1.1,5.54,5.54,0,0,1,2.08-.38q3.84,0,4,3.76a11,11,0,0,1,0,1.15,4.75,4.75,0,0,1-.1.87H31.85a6.54,6.54,0,0,0,.27,1.57,3.26,3.26,0,0,0,.59,1.06,2.11,2.11,0,0,0,.86.59,3.16,3.16,0,0,0,1.09.18,4.91,4.91,0,0,0,.88-.07,6.89,6.89,0,0,0,.75-.18,4.86,4.86,0,0,0,.63-.25l.49-.27.48,1.12a3.32,3.32,0,0,1-.64.5,6,6,0,0,1-1,.49,7.38,7.38,0,0,1-1.15.37A5.28,5.28,0,0,1,33.9,406.65Zm-.25-9.8A1.87,1.87,0,0,0,33,397a1.21,1.21,0,0,0-.54.5,3.06,3.06,0,0,0-.39,1,7.93,7.93,0,0,0-.19,1.67h3.33V400c0-.06,0-.12,0-.18v-.3a8,8,0,0,0-.06-1,2.79,2.79,0,0,0-.24-.86,1.55,1.55,0,0,0-.47-.62A1.15,1.15,0,0,0,33.65,396.85Z"/><path class="cls-2" d="M39.29,403.62a2.92,2.92,0,0,1,.24-1.22,3.1,3.1,0,0,1,.68-.93,4.23,4.23,0,0,1,1-.67,7.36,7.36,0,0,1,1.27-.46,10.35,10.35,0,0,1,1.41-.27c.49-.05,1-.09,1.46-.1v-.44a2.13,2.13,0,0,0-.43-1.51,1.89,1.89,0,0,0-1.41-.45,5.73,5.73,0,0,0-1,.08,9.25,9.25,0,0,0-1,.19c-.31.08-.59.17-.86.26s-.48.19-.67.28h0l-.55-1.25a5.48,5.48,0,0,1,.66-.41,8.43,8.43,0,0,1,1.11-.5,10.68,10.68,0,0,1,1.44-.41,7.34,7.34,0,0,1,1.63-.18,6,6,0,0,1,1.75.22,2.74,2.74,0,0,1,1.16.69,2.8,2.8,0,0,1,.66,1.17,6,6,0,0,1,.21,1.68v5.79h1.15v1.14l-.43.09-.58.12-.68.08a6,6,0,0,1-.74,0,4.67,4.67,0,0,1-.57,0,.81.81,0,0,1-.38-.13.53.53,0,0,1-.21-.29,1.78,1.78,0,0,1-.06-.51v-.54a3.95,3.95,0,0,1-1.11,1,3.7,3.7,0,0,1-.9.39,3.8,3.8,0,0,1-1.1.15,4.18,4.18,0,0,1-1.24-.18,2.77,2.77,0,0,1-1-.54,2.54,2.54,0,0,1-.68-.95A3.34,3.34,0,0,1,39.29,403.62Zm4.4,1.24a1.89,1.89,0,0,0,.38-.05,2.81,2.81,0,0,0,.45-.13,3,3,0,0,0,.45-.2,1.56,1.56,0,0,0,.39-.26v-3.07a5.74,5.74,0,0,0-1.5.17,2.83,2.83,0,0,0-1,.44,1.56,1.56,0,0,0-.52.64,2,2,0,0,0-.15.77,1.88,1.88,0,0,0,.37,1.26A1.37,1.37,0,0,0,43.69,404.86Z"/><path class="cls-2" d="M50.35,406.44v-1.25l1.34-.17v-7.14l-1.26-.4v-1.4l3.17-.45h.06l.49.4v2.22h0a3.51,3.51,0,0,1,.4-.75,5.19,5.19,0,0,1,.72-.87,4.36,4.36,0,0,1,1-.73,2.53,2.53,0,0,1,1.22-.3l.44,0a1.26,1.26,0,0,1,.25.07v3.2a2.11,2.11,0,0,0-.53-.16,5.12,5.12,0,0,0-1-.09c-.21,0-.43,0-.65,0l-.6.1a4.6,4.6,0,0,0-.51.14,1.52,1.52,0,0,0-.34.17V405l2.31.22v1.21Z"/><path class="cls-2" d="M60.45,404.21v-6.83H59.14v-1.05l.24-.08.33-.13L60,396l.18-.09a3,3,0,0,0,.66-.89l.2-.43c.07-.17.15-.34.22-.52s.14-.36.2-.53l.16-.48h1.65l0,2.75H66v1.57H63.31v5.14c0,.5,0,.89,0,1.18a2,2,0,0,0,.11.66.49.49,0,0,0,.27.29,1.78,1.78,0,0,0,.51.06h0a2.56,2.56,0,0,0,.47,0l.48-.08.44-.11.33-.11h0l.43,1.08a3.81,3.81,0,0,1-.68.43,7.42,7.42,0,0,1-.89.39,7.74,7.74,0,0,1-1,.27,5,5,0,0,1-1.09.11h0a2.92,2.92,0,0,1-1-.16A1.58,1.58,0,0,1,61,406a1.94,1.94,0,0,1-.38-.76A4.1,4.1,0,0,1,60.45,404.21Z"/><path class="cls-2" d="M73.14,406.44v-1.25l1.14-.18V392.62l-1.39-.23v-1.08l3.61-.46h0l.57.44,0,4.37L77,397.13a6.35,6.35,0,0,1,.63-.49,6.13,6.13,0,0,1,.85-.48,6.9,6.9,0,0,1,1-.36,5,5,0,0,1,1.18-.14,3.87,3.87,0,0,1,1.51.25,2.08,2.08,0,0,1,.94.77,3.48,3.48,0,0,1,.49,1.31,11.37,11.37,0,0,1,.14,1.88V405l1.31.18v1.25H79.87v-1.21l1-.2v-5.19a8.83,8.83,0,0,0-.06-1.11,1.79,1.79,0,0,0-.25-.76,1,1,0,0,0-.5-.44,1.91,1.91,0,0,0-.82-.15,2.44,2.44,0,0,0-.59.07,4.61,4.61,0,0,0-1.12.38,2.57,2.57,0,0,0-.42.26V405l1.27.18v1.25Z"/><path class="cls-2" d="M91,406.65a5.62,5.62,0,0,1-2.25-.41,4.07,4.07,0,0,1-1.55-1.13,4.65,4.65,0,0,1-.9-1.74,8.15,8.15,0,0,1-.29-2.21,7,7,0,0,1,.37-2.33,4.89,4.89,0,0,1,1-1.74,4.4,4.4,0,0,1,1.6-1.1,5.54,5.54,0,0,1,2.08-.38q3.84,0,4,3.76a11,11,0,0,1,0,1.15,5.83,5.83,0,0,1-.1.87H89a6.54,6.54,0,0,0,.27,1.57,3.26,3.26,0,0,0,.59,1.06,2.11,2.11,0,0,0,.86.59,3.16,3.16,0,0,0,1.09.18,4.91,4.91,0,0,0,.88-.07,6.89,6.89,0,0,0,.75-.18,4.86,4.86,0,0,0,.63-.25l.49-.27.48,1.12a3.32,3.32,0,0,1-.64.5,6,6,0,0,1-.95.49,7.38,7.38,0,0,1-1.15.37A5.28,5.28,0,0,1,91,406.65Zm-.25-9.8a1.87,1.87,0,0,0-.68.13,1.21,1.21,0,0,0-.54.5,3.06,3.06,0,0,0-.39,1,7.93,7.93,0,0,0-.19,1.67h3.33V400c0-.06,0-.12,0-.18v-.3a8,8,0,0,0-.06-1,2.79,2.79,0,0,0-.24-.86,1.55,1.55,0,0,0-.47-.62A1.15,1.15,0,0,0,90.78,396.85Z"/><path class="cls-2" d="M96.42,403.62a2.92,2.92,0,0,1,.24-1.22,3.1,3.1,0,0,1,.68-.93,4.23,4.23,0,0,1,1-.67,7.36,7.36,0,0,1,1.27-.46,10.35,10.35,0,0,1,1.41-.27c.49-.05,1-.09,1.46-.1v-.44a2.13,2.13,0,0,0-.43-1.51,1.89,1.89,0,0,0-1.41-.45,5.73,5.73,0,0,0-1,.08,9.25,9.25,0,0,0-1,.19c-.31.08-.59.17-.86.26s-.48.19-.67.28h0l-.55-1.25a5.48,5.48,0,0,1,.66-.41,8.43,8.43,0,0,1,1.11-.5,10.68,10.68,0,0,1,1.44-.41,7.34,7.34,0,0,1,1.63-.18,6,6,0,0,1,1.75.22,2.74,2.74,0,0,1,1.16.69,2.8,2.8,0,0,1,.66,1.17,6,6,0,0,1,.21,1.68v5.79h1.15v1.14l-.43.09-.58.12-.68.08a6,6,0,0,1-.74,0,4.67,4.67,0,0,1-.57,0,.81.81,0,0,1-.38-.13.53.53,0,0,1-.21-.29,1.78,1.78,0,0,1-.06-.51v-.54a3.95,3.95,0,0,1-1.11,1,3.7,3.7,0,0,1-.9.39,3.8,3.8,0,0,1-1.1.15,4.18,4.18,0,0,1-1.24-.18,2.77,2.77,0,0,1-1-.54,2.54,2.54,0,0,1-.68-.95A3.34,3.34,0,0,1,96.42,403.62Zm4.4,1.24a1.89,1.89,0,0,0,.38-.05,2.81,2.81,0,0,0,.45-.13,3,3,0,0,0,.45-.2,1.56,1.56,0,0,0,.39-.26v-3.07a5.74,5.74,0,0,0-1.5.17,2.83,2.83,0,0,0-1,.44,1.56,1.56,0,0,0-.52.64,2,2,0,0,0-.15.77,1.88,1.88,0,0,0,.37,1.26A1.37,1.37,0,0,0,100.82,404.86Z"/><path class="cls-2" d="M107.2,406.44v-1.25l1.34-.18V392.62l-1.38-.23v-1.08l3.63-.46h0l.59.44V405l1.4.18v1.25Z"/><path class="cls-2" d="M115.06,404.21v-6.83h-1.3v-1.05l.23-.08.34-.13.31-.12.17-.09a3,3,0,0,0,.66-.89l.21-.43.21-.52c.07-.18.14-.36.2-.53s.12-.34.16-.48h1.65l0,2.75h2.73v1.57h-2.73v5.14c0,.5,0,.89,0,1.18a2.29,2.29,0,0,0,.12.66.44.44,0,0,0,.27.29,1.69,1.69,0,0,0,.51.06h0a2.63,2.63,0,0,0,.47,0l.48-.08.44-.11.32-.11h0l.44,1.08a4.21,4.21,0,0,1-.68.43,6.51,6.51,0,0,1-1.92.66,5,5,0,0,1-1.09.11h0a2.88,2.88,0,0,1-1-.16,1.58,1.58,0,0,1-.7-.47,1.83,1.83,0,0,1-.39-.76A4.1,4.1,0,0,1,115.06,404.21Z"/><path class="cls-2" d="M121.79,406.44v-1.25l1.14-.18V392.62l-1.39-.23v-1.08l3.61-.46h0l.57.44,0,4.37-.15,1.47a6.35,6.35,0,0,1,.63-.49,6.13,6.13,0,0,1,.85-.48,6.9,6.9,0,0,1,1-.36,5,5,0,0,1,1.18-.14,3.87,3.87,0,0,1,1.51.25,2,2,0,0,1,.94.77,3.48,3.48,0,0,1,.49,1.31,11.37,11.37,0,0,1,.14,1.88V405l1.31.18v1.25h-5.19v-1.21l1-.2v-5.19a8.83,8.83,0,0,0-.06-1.11,1.79,1.79,0,0,0-.25-.76,1,1,0,0,0-.5-.44,1.91,1.91,0,0,0-.82-.15,2.44,2.44,0,0,0-.59.07,4,4,0,0,0-.59.16,3.67,3.67,0,0,0-.53.22,2.57,2.57,0,0,0-.42.26V405l1.27.18v1.25Z"/><path class="cls-2" d="M137.22,406.6a1.8,1.8,0,0,1-.62-.11,1.46,1.46,0,0,1-.52-.29,1.38,1.38,0,0,1-.49-1.09,1.63,1.63,0,0,1,.15-.7,1.88,1.88,0,0,1,.41-.56,2,2,0,0,1,.6-.38,2,2,0,0,1,.74-.13,2.18,2.18,0,0,1,.77.12,1.44,1.44,0,0,1,.51.32,1.32,1.32,0,0,1,.29.48,1.79,1.79,0,0,1,.09.57,1.73,1.73,0,0,1-.15.73,1.56,1.56,0,0,1-.4.55,1.62,1.62,0,0,1-.61.36A2.39,2.39,0,0,1,137.22,406.6Z"/></svg>