<svg id="Layer_1" data-name="Layer 1" xmlns="http://www.w3.org/2000/svg" viewBox="0 0 320 50"><defs><style>.cls-1{fill:#fff;}.cls-2{fill:#f1b533;}</style></defs><path class="cls-1" d="M20.63,30.08V29L22,28.71V18.82l-1.33-.26V17.45H26v1.11l-1.42.26V23h5V18.82l-1.35-.26V17.45h5.3v1.11l-1.33.26v9.9l1.33.23v1.13H28.23V29l1.33-.24V24.29h-5v4.42L26,29v1.13Z"/><path class="cls-1" d="M34.77,27.56A2.53,2.53,0,0,1,35,26.47a2.74,2.74,0,0,1,.61-.83,3.51,3.51,0,0,1,.91-.6,5.38,5.38,0,0,1,1.13-.41,8.27,8.27,0,0,1,1.26-.24c.43-.05.87-.08,1.31-.09v-.4a1.91,1.91,0,0,0-.39-1.35,1.67,1.67,0,0,0-1.26-.4,5.46,5.46,0,0,0-.9.07c-.31.05-.59.1-.87.17a7,7,0,0,0-.77.24,5.33,5.33,0,0,0-.6.24h0l-.49-1.11a3.68,3.68,0,0,1,.59-.37,8.85,8.85,0,0,1,1-.45,11,11,0,0,1,1.28-.37,7,7,0,0,1,1.46-.16,5.43,5.43,0,0,1,1.56.2,2.49,2.49,0,0,1,1,.62,2.55,2.55,0,0,1,.59,1.05,5.5,5.5,0,0,1,.18,1.5V29h1v1l-.39.08a5.13,5.13,0,0,1-.51.1l-.61.08q-.33,0-.66,0a3.86,3.86,0,0,1-.51,0,.71.71,0,0,1-.34-.12.47.47,0,0,1-.19-.26,1.38,1.38,0,0,1-.06-.46v-.48a2.42,2.42,0,0,1-.39.42,3.1,3.1,0,0,1-.6.44,3.65,3.65,0,0,1-.8.35,3.44,3.44,0,0,1-1,.13,3.9,3.9,0,0,1-1.1-.15,2.45,2.45,0,0,1-.9-.49,2.32,2.32,0,0,1-.61-.85A3,3,0,0,1,34.77,27.56Zm3.94,1.11a1.42,1.42,0,0,0,.34,0l.4-.11a3,3,0,0,0,.41-.18,1.8,1.8,0,0,0,.35-.24V25.35a5.13,5.13,0,0,0-1.35.15,2.51,2.51,0,0,0-.87.4,1.53,1.53,0,0,0-.46.57,1.81,1.81,0,0,0-.14.69,1.71,1.71,0,0,0,.34,1.13A1.26,1.26,0,0,0,38.71,28.67Z"/><path class="cls-1" d="M44.73,30.08V29l1.07-.16V22.42l-1.13-.35V20.82l3-.41h0l.44.36v1a4.41,4.41,0,0,1,.65-.49,4.65,4.65,0,0,1,.8-.42,5,5,0,0,1,.92-.3,4.58,4.58,0,0,1,1-.11,3.73,3.73,0,0,1,1.34.21,1.79,1.79,0,0,1,.85.66,2.89,2.89,0,0,1,.44,1.17,9.56,9.56,0,0,1,.14,1.74v4.59l1.18.16v1.11H50.74V29l.91-.16V24.18a7.1,7.1,0,0,0-.06-1,1.88,1.88,0,0,0-.21-.68,1,1,0,0,0-.43-.4,1.7,1.7,0,0,0-.69-.13,2.51,2.51,0,0,0-.55.06,3.52,3.52,0,0,0-.52.17,2.36,2.36,0,0,0-.45.22c-.14.08-.25.16-.35.23v6.15L49.5,29v1.11Z"/><path class="cls-1" d="M60,30.27A3.85,3.85,0,0,1,58.52,30a3.11,3.11,0,0,1-1.16-.86,4.28,4.28,0,0,1-.78-1.47,6.76,6.76,0,0,1-.28-2.08,6.32,6.32,0,0,1,.33-2.09,4.88,4.88,0,0,1,1-1.64,4.5,4.5,0,0,1,1.55-1.08,5.42,5.42,0,0,1,2.07-.38c.23,0,.46,0,.67,0a5.93,5.93,0,0,1,.63.1V17.7L61,17.44V16.5l3.51-.36h0l.52.39v12.4H66V30l-.95.19a6,6,0,0,1-1.16.1,1.24,1.24,0,0,1-.79-.22,1,1,0,0,1-.28-.81v-.33a3.55,3.55,0,0,1-1.14.95,3.69,3.69,0,0,1-.79.29A3.36,3.36,0,0,1,60,30.27ZM61,28.76a2,2,0,0,0,.9-.19,1.78,1.78,0,0,0,.6-.43V21.88a1.09,1.09,0,0,0-.46-.26,2.28,2.28,0,0,0-.78-.12,1.88,1.88,0,0,0-.84.19,1.81,1.81,0,0,0-.7.63,3.65,3.65,0,0,0-.48,1.17,8,8,0,0,0-.19,1.79,8.25,8.25,0,0,0,.11,1.59A3.39,3.39,0,0,0,59.57,28a1.67,1.67,0,0,0,.62.62A1.75,1.75,0,0,0,61,28.76Z"/><path class="cls-1" d="M72.53,30.08V29l1.21-.16V22.42l-1.12-.35V20.82l3-.41h0l.61.36v8l1.2.16v1.11ZM74.74,19a1.24,1.24,0,0,1-.52-.11,1.08,1.08,0,0,1-.38-.28,1.18,1.18,0,0,1-.23-.43,1.46,1.46,0,0,1-.08-.52,2.43,2.43,0,0,1,.08-.61,1.51,1.51,0,0,1,.27-.5,1.41,1.41,0,0,1,.46-.34A1.52,1.52,0,0,1,75,16.1h0a1.35,1.35,0,0,1,.59.11,1.12,1.12,0,0,1,.41.3,1.07,1.07,0,0,1,.24.43,1.38,1.38,0,0,1,.08.5,2.06,2.06,0,0,1-.09.62,1.3,1.3,0,0,1-.28.5,1.21,1.21,0,0,1-.48.33,1.85,1.85,0,0,1-.69.12Z"/><path class="cls-1" d="M78.74,30.08V29l1.07-.16V22.42l-1.13-.35V20.82l3-.41h0l.44.36v1a4.29,4.29,0,0,1,.64-.49,5.16,5.16,0,0,1,.81-.42,4.72,4.72,0,0,1,.92-.3,4.51,4.51,0,0,1,1-.11,3.64,3.64,0,0,1,1.33.21,1.75,1.75,0,0,1,.85.66,3,3,0,0,1,.45,1.17,9.56,9.56,0,0,1,.14,1.74v4.59l1.17.16v1.11H84.75V29l.91-.16V24.18a7.1,7.1,0,0,0-.06-1,1.88,1.88,0,0,0-.21-.68,1,1,0,0,0-.43-.4,1.7,1.7,0,0,0-.69-.13,2.67,2.67,0,0,0-.56.06,4.51,4.51,0,0,0-.52.17,2.58,2.58,0,0,0-.44.22l-.36.23v6.15L83.5,29v1.11Z"/><path class="cls-1" d="M95.64,30.08V29l1-.16V17.72l-1.24-.2v-1l3.23-.41h0l.5.39,0,3.91-.13,1.32a4.05,4.05,0,0,1,.56-.44,4.57,4.57,0,0,1,.76-.43,5,5,0,0,1,.92-.32,4.11,4.11,0,0,1,1.06-.13,3.53,3.53,0,0,1,1.35.22,1.89,1.89,0,0,1,.84.69,3.09,3.09,0,0,1,.44,1.18,10.06,10.06,0,0,1,.13,1.68v4.6l1.17.16v1.11h-4.65V29l.92-.18V24.18a7.1,7.1,0,0,0-.06-1,1.7,1.7,0,0,0-.22-.68,1,1,0,0,0-.45-.4,1.87,1.87,0,0,0-.73-.13,2.46,2.46,0,0,0-.53.06,4.61,4.61,0,0,0-.53.15,3.43,3.43,0,0,0-.48.19,3.51,3.51,0,0,0-.37.23v6.2l1.14.16v1.11Z"/><path class="cls-1" d="M107.12,27.56a2.53,2.53,0,0,1,.22-1.09,2.74,2.74,0,0,1,.61-.83,3.51,3.51,0,0,1,.91-.6,5.38,5.38,0,0,1,1.13-.41,8.27,8.27,0,0,1,1.26-.24c.43-.05.87-.08,1.31-.09v-.4a1.91,1.91,0,0,0-.39-1.35,1.67,1.67,0,0,0-1.26-.4,5.46,5.46,0,0,0-.9.07c-.31.05-.59.1-.87.17a7,7,0,0,0-.77.24,4.66,4.66,0,0,0-.6.24h0l-.49-1.11a3.68,3.68,0,0,1,.59-.37,8.85,8.85,0,0,1,1-.45,11,11,0,0,1,1.28-.37,7,7,0,0,1,1.45-.16,5.45,5.45,0,0,1,1.57.2,2.49,2.49,0,0,1,1,.62,2.43,2.43,0,0,1,.58,1.05,5.11,5.11,0,0,1,.19,1.5V29h1v1l-.39.08c-.15,0-.33.07-.51.1l-.61.08q-.33,0-.66,0a3.86,3.86,0,0,1-.51,0,.71.71,0,0,1-.34-.12.47.47,0,0,1-.19-.26,1.38,1.38,0,0,1-.06-.46v-.48a2.42,2.42,0,0,1-.39.42,3.1,3.1,0,0,1-.6.44,3.65,3.65,0,0,1-.8.35,3.44,3.44,0,0,1-1,.13,3.9,3.9,0,0,1-1.1-.15,2.37,2.37,0,0,1-1.52-1.34A3.2,3.2,0,0,1,107.12,27.56Zm3.94,1.11a1.42,1.42,0,0,0,.34,0l.4-.11a3,3,0,0,0,.41-.18,1.8,1.8,0,0,0,.35-.24V25.35a5.13,5.13,0,0,0-1.35.15,2.51,2.51,0,0,0-.87.4,1.53,1.53,0,0,0-.46.57,1.81,1.81,0,0,0-.14.69,1.71,1.71,0,0,0,.34,1.13A1.24,1.24,0,0,0,111.06,28.67Z"/><path class="cls-1" d="M117.08,30.08V29l1.07-.16V22.42L117,22.07V20.82l3-.41h0l.44.36v1a4.88,4.88,0,0,1,.64-.49,5.16,5.16,0,0,1,.81-.42,4.72,4.72,0,0,1,.92-.3,4.58,4.58,0,0,1,1-.11,3.73,3.73,0,0,1,1.34.21,1.79,1.79,0,0,1,.85.66,2.89,2.89,0,0,1,.44,1.17,9.56,9.56,0,0,1,.14,1.74v4.59l1.18.16v1.11h-4.68V29l.91-.16V24.18a7.1,7.1,0,0,0-.06-1,1.88,1.88,0,0,0-.21-.68,1,1,0,0,0-.43-.4,1.7,1.7,0,0,0-.69-.13,2.67,2.67,0,0,0-.56.06,3.81,3.81,0,0,0-.51.17,2.36,2.36,0,0,0-.45.22,3,3,0,0,0-.35.23v6.15l1.11.16v1.11Z"/><path class="cls-1" d="M132.31,30.27a3.85,3.85,0,0,1-1.44-.28,3.11,3.11,0,0,1-1.16-.86,4.28,4.28,0,0,1-.78-1.47,6.76,6.76,0,0,1-.28-2.08,6.32,6.32,0,0,1,.33-2.09,4.88,4.88,0,0,1,1-1.64,4.5,4.5,0,0,1,1.55-1.08,5.42,5.42,0,0,1,2.07-.38c.23,0,.46,0,.67,0a5.93,5.93,0,0,1,.63.1V17.7l-1.52-.26V16.5l3.51-.36h0l.52.39v12.4h.92V30l-1,.19a6,6,0,0,1-1.16.1,1.24,1.24,0,0,1-.79-.22,1,1,0,0,1-.28-.81v-.33a3.55,3.55,0,0,1-1.14.95,3.69,3.69,0,0,1-.79.29A3.36,3.36,0,0,1,132.31,30.27Zm1.06-1.51a2,2,0,0,0,.9-.19,1.78,1.78,0,0,0,.6-.43V21.88a1.09,1.09,0,0,0-.46-.26,2.28,2.28,0,0,0-.78-.12,1.85,1.85,0,0,0-.84.19,1.81,1.81,0,0,0-.7.63,3.65,3.65,0,0,0-.48,1.17,8,8,0,0,0-.19,1.79,8.25,8.25,0,0,0,.11,1.59,3.39,3.39,0,0,0,.39,1.08,1.67,1.67,0,0,0,.62.62A1.75,1.75,0,0,0,133.37,28.76Z"/><path class="cls-1" d="M144.8,30.08V29l1.33-.23V22.07h-1.46v-1l1.46-.42v-.48a3.84,3.84,0,0,1,.4-1.77,4.54,4.54,0,0,1,2.48-2.2,4.31,4.31,0,0,1,1.55-.3,2.7,2.7,0,0,1,.64.05l.33.09v2.48a1.3,1.3,0,0,0-.3-.23,3.62,3.62,0,0,0-.44-.2,4.1,4.1,0,0,0-.53-.14,2.76,2.76,0,0,0-.57-.06,1.7,1.7,0,0,0-.41.05.61.61,0,0,0-.31.18.79.79,0,0,0-.2.35,1.74,1.74,0,0,0-.07.56v1.62h2.13v1.41h-2.13v6.74l1.84.18v1.09Z"/><path class="cls-1" d="M151.75,25.39a5.65,5.65,0,0,1,.39-2.2,4.49,4.49,0,0,1,1-1.56,4,4,0,0,1,1.5-.93,5.08,5.08,0,0,1,1.77-.31,5.13,5.13,0,0,1,1.91.33,3.79,3.79,0,0,1,1.4,1,4.18,4.18,0,0,1,.85,1.54,6.76,6.76,0,0,1,.29,2.05,5.86,5.86,0,0,1-.39,2.24,4.36,4.36,0,0,1-1,1.56A4.28,4.28,0,0,1,158,30a5.62,5.62,0,0,1-3.68,0,3.87,3.87,0,0,1-1.4-1,4.38,4.38,0,0,1-.86-1.53A6.86,6.86,0,0,1,151.75,25.39Zm4.6,3.74a1.37,1.37,0,0,0,1.34-.84,3.72,3.72,0,0,0,.33-1.12,10.93,10.93,0,0,0,.1-1.63,14.67,14.67,0,0,0-.09-1.72,5.27,5.27,0,0,0-.31-1.26,1.8,1.8,0,0,0-.56-.76,1.32,1.32,0,0,0-.84-.27,1.46,1.46,0,0,0-.79.21,1.48,1.48,0,0,0-.56.64,3.94,3.94,0,0,0-.34,1.11,11,11,0,0,0-.1,1.63,12.55,12.55,0,0,0,.1,1.72A4.45,4.45,0,0,0,155,28.1a1.84,1.84,0,0,0,.56.77A1.38,1.38,0,0,0,156.35,29.13Z"/><path class="cls-1" d="M162.17,30.08V29l1.2-.16V22.42l-1.13-.35V20.82l2.84-.41h0l.44.36v2h0a4.16,4.16,0,0,1,.36-.66,4.64,4.64,0,0,1,.65-.78,3.64,3.64,0,0,1,.89-.65,2.26,2.26,0,0,1,1.09-.27l.39,0a1,1,0,0,1,.23.05v2.88a1.31,1.31,0,0,0-.47-.15,4.92,4.92,0,0,0-.92-.08,5.49,5.49,0,0,0-.58,0l-.55.09a3.52,3.52,0,0,0-.45.13,1.8,1.8,0,0,0-.31.15v5.3L168,29v1.08Z"/><path class="cls-2" d="M175.5,30.08V29l1-.16V17.72l-1.25-.2v-1l3.23-.41h0l.51.39v3.91l-.13,1.32a4.76,4.76,0,0,1,.56-.44,5,5,0,0,1,.76-.43,4.83,4.83,0,0,1,.93-.32,4,4,0,0,1,1.06-.13,3.44,3.44,0,0,1,1.34.22,1.89,1.89,0,0,1,.84.69,2.94,2.94,0,0,1,.44,1.18,9.1,9.1,0,0,1,.13,1.68v4.6l1.17.16v1.11h-4.65V29l.92-.18V24.18a7.25,7.25,0,0,0-.05-1,1.87,1.87,0,0,0-.22-.68,1,1,0,0,0-.45-.4A1.93,1.93,0,0,0,181,22a2.46,2.46,0,0,0-.53.06,4,4,0,0,0-.52.15,3.43,3.43,0,0,0-.48.19,3.77,3.77,0,0,0-.38.23v6.2l1.14.16v1.11Z"/><path class="cls-2" d="M191.5,30.27a5.08,5.08,0,0,1-2-.36,3.52,3.52,0,0,1-1.39-1,4.15,4.15,0,0,1-.8-1.55,7.35,7.35,0,0,1-.26-2,6.13,6.13,0,0,1,.33-2.08,4.64,4.64,0,0,1,.92-1.56,3.89,3.89,0,0,1,1.44-1,4.85,4.85,0,0,1,1.86-.34c2.3,0,3.49,1.12,3.59,3.36,0,.38,0,.73,0,1a4,4,0,0,1-.09.78h-5.42a5.35,5.35,0,0,0,.24,1.4,2.87,2.87,0,0,0,.53,1,1.91,1.91,0,0,0,.76.53,2.84,2.84,0,0,0,1,.16,5,5,0,0,0,.79-.06,5.45,5.45,0,0,0,.67-.17,3.76,3.76,0,0,0,.57-.22,3.31,3.31,0,0,0,.43-.24l.44,1a2.66,2.66,0,0,1-.58.45,5.2,5.2,0,0,1-.85.44,7.31,7.31,0,0,1-1,.33A4.7,4.7,0,0,1,191.5,30.27Zm-.23-8.76a1.53,1.53,0,0,0-.6.12,1.06,1.06,0,0,0-.49.44,3,3,0,0,0-.35.9,8.66,8.66,0,0,0-.17,1.49h3s0-.07,0-.12a.92.92,0,0,1,0-.16v-.26a6.22,6.22,0,0,0-.06-.86,3,3,0,0,0-.21-.78,1.37,1.37,0,0,0-.42-.55A1,1,0,0,0,191.27,21.51Z"/><path class="cls-2" d="M196.32,27.56a2.53,2.53,0,0,1,.22-1.09,2.74,2.74,0,0,1,.61-.83,3.51,3.51,0,0,1,.91-.6,5.38,5.38,0,0,1,1.13-.41,8.27,8.27,0,0,1,1.26-.24c.43-.05.87-.08,1.31-.09v-.4a1.91,1.91,0,0,0-.39-1.35,1.67,1.67,0,0,0-1.26-.4,5.46,5.46,0,0,0-.9.07c-.31.05-.59.1-.87.17a7,7,0,0,0-.77.24,4.66,4.66,0,0,0-.6.24h0l-.49-1.11a3.68,3.68,0,0,1,.59-.37,8.85,8.85,0,0,1,1-.45,11,11,0,0,1,1.28-.37,7,7,0,0,1,1.45-.16,5.45,5.45,0,0,1,1.57.2,2.49,2.49,0,0,1,1,.62,2.55,2.55,0,0,1,.59,1.05,5.5,5.5,0,0,1,.18,1.5V29h1v1l-.39.08a5.13,5.13,0,0,1-.51.1l-.61.08q-.33,0-.66,0a3.86,3.86,0,0,1-.51,0,.71.71,0,0,1-.34-.12.47.47,0,0,1-.19-.26,1.38,1.38,0,0,1-.06-.46v-.48a2.42,2.42,0,0,1-.39.42,3.1,3.1,0,0,1-.6.44,3.65,3.65,0,0,1-.8.35,3.44,3.44,0,0,1-1,.13,3.9,3.9,0,0,1-1.1-.15,2.37,2.37,0,0,1-1.52-1.34A3.2,3.2,0,0,1,196.32,27.56Zm3.94,1.11a1.42,1.42,0,0,0,.34,0l.4-.11a3,3,0,0,0,.41-.18,1.8,1.8,0,0,0,.35-.24V25.35a5.13,5.13,0,0,0-1.35.15,2.51,2.51,0,0,0-.87.4,1.53,1.53,0,0,0-.46.57,1.81,1.81,0,0,0-.14.69,1.71,1.71,0,0,0,.34,1.13A1.24,1.24,0,0,0,200.26,28.67Z"/><path class="cls-2" d="M206.22,30.08V29l1.2-.16V22.42l-1.13-.35V20.82l2.84-.41h.05l.44.36v2h0a4.16,4.16,0,0,1,.36-.66,4.64,4.64,0,0,1,.65-.78,3.84,3.84,0,0,1,.89-.65,2.29,2.29,0,0,1,1.09-.27l.4,0a1,1,0,0,1,.22.05v2.88a1.31,1.31,0,0,0-.47-.15,4.92,4.92,0,0,0-.92-.08,5.63,5.63,0,0,0-.58,0l-.54.09a4.28,4.28,0,0,0-.46.13,1.38,1.38,0,0,0-.3.15v5.3L212,29v1.08Z"/><path class="cls-2" d="M215.25,28.09V22h-1.17V21l.22-.07.3-.12.27-.11a.44.44,0,0,0,.16-.08,2.47,2.47,0,0,0,.59-.79c.06-.12.12-.24.18-.39s.13-.3.2-.46l.18-.48.14-.43h1.48l0,2.46h2.44V22h-2.44v4.6c0,.44,0,.8,0,1.06a1.84,1.84,0,0,0,.1.58.4.4,0,0,0,.25.26,1.36,1.36,0,0,0,.45.06h0l.42,0,.43-.08.39-.1.3-.1h0l.39,1a4,4,0,0,1-.61.39,6.43,6.43,0,0,1-1.71.59,5.41,5.41,0,0,1-1,.09h0a2.6,2.6,0,0,1-.93-.14,1.37,1.37,0,0,1-.62-.42,1.75,1.75,0,0,1-.35-.68A3.73,3.73,0,0,1,215.25,28.09Z"/><path class="cls-2" d="M226.61,30.08V29l1-.16V17.72l-1.24-.2v-1l3.23-.41h0l.5.39,0,3.91-.13,1.32a4.05,4.05,0,0,1,.56-.44,4.2,4.2,0,0,1,.76-.43,5,5,0,0,1,.92-.32,4.11,4.11,0,0,1,1.06-.13,3.53,3.53,0,0,1,1.35.22,1.89,1.89,0,0,1,.84.69,3.09,3.09,0,0,1,.44,1.18,10.06,10.06,0,0,1,.13,1.68v4.6l1.17.16v1.11h-4.65V29l.92-.18V24.18a7.1,7.1,0,0,0-.06-1,1.7,1.7,0,0,0-.22-.68,1,1,0,0,0-.45-.4,1.87,1.87,0,0,0-.73-.13,2.46,2.46,0,0,0-.53.06,4.61,4.61,0,0,0-.53.15,3.43,3.43,0,0,0-.48.19,3.51,3.51,0,0,0-.37.23v6.2l1.14.16v1.11Z"/><path class="cls-2" d="M242.62,30.27a5.1,5.1,0,0,1-2-.36,3.56,3.56,0,0,1-1.38-1,4.17,4.17,0,0,1-.81-1.55,7.36,7.36,0,0,1-.25-2,6.13,6.13,0,0,1,.33-2.08,4.33,4.33,0,0,1,.92-1.56,3.89,3.89,0,0,1,1.44-1,4.85,4.85,0,0,1,1.86-.34q3.43,0,3.59,3.36c0,.38,0,.73,0,1a6.51,6.51,0,0,1-.09.78h-5.42A5.35,5.35,0,0,0,241,27a2.86,2.86,0,0,0,.52,1,1.94,1.94,0,0,0,.77.53,2.78,2.78,0,0,0,1,.16,4.79,4.79,0,0,0,.79-.06,5.62,5.62,0,0,0,.68-.17,3.76,3.76,0,0,0,.57-.22,4.14,4.14,0,0,0,.43-.24l.43,1a2.83,2.83,0,0,1-.57.45,5.2,5.2,0,0,1-.85.44,7.31,7.31,0,0,1-1,.33A4.7,4.7,0,0,1,242.62,30.27Zm-.23-8.76a1.46,1.46,0,0,0-.6.12,1,1,0,0,0-.49.44,2.76,2.76,0,0,0-.35.9,7.76,7.76,0,0,0-.17,1.49h3v-.12a.81.81,0,0,0,0-.16.86.86,0,0,0,0-.16v-.1a6.22,6.22,0,0,0-.06-.86,3,3,0,0,0-.21-.78,1.49,1.49,0,0,0-.43-.55A1,1,0,0,0,242.39,21.51Z"/><path class="cls-2" d="M247.44,27.56a2.53,2.53,0,0,1,.22-1.09,2.71,2.71,0,0,1,.6-.83,3.69,3.69,0,0,1,.91-.6,5.83,5.83,0,0,1,1.13-.41,8.76,8.76,0,0,1,1.26-.24c.44-.05.88-.08,1.31-.09v-.4a1.91,1.91,0,0,0-.38-1.35,1.7,1.7,0,0,0-1.27-.4,5.46,5.46,0,0,0-.9.07c-.3.05-.59.1-.87.17a6.8,6.8,0,0,0-.76.24,5.56,5.56,0,0,0-.61.24h0l-.49-1.11a3.27,3.27,0,0,1,.59-.37,8.63,8.63,0,0,1,1-.45,11.79,11.79,0,0,1,1.29-.37,6.93,6.93,0,0,1,1.45-.16,5.45,5.45,0,0,1,1.57.2,2.45,2.45,0,0,1,1,.62,2.35,2.35,0,0,1,.59,1.05,5.11,5.11,0,0,1,.19,1.5V29h1v1l-.39.08-.52.1-.6.08c-.22,0-.44,0-.67,0a3.86,3.86,0,0,1-.51,0,.8.8,0,0,1-.34-.12.46.46,0,0,1-.18-.26,1.38,1.38,0,0,1-.06-.46v-.48a3.59,3.59,0,0,1-.39.42,3.1,3.1,0,0,1-.6.44,3.73,3.73,0,0,1-.81.35,3.32,3.32,0,0,1-1,.13,4,4,0,0,1-1.11-.15,2.62,2.62,0,0,1-.9-.49,2.32,2.32,0,0,1-.61-.85A3,3,0,0,1,247.44,27.56Zm3.94,1.11a1.48,1.48,0,0,0,.34,0l.4-.11a3.65,3.65,0,0,0,.41-.18,1.72,1.72,0,0,0,.34-.24V25.35a5.11,5.11,0,0,0-1.34.15,2.35,2.35,0,0,0-.87.4,1.44,1.44,0,0,0-.46.57,1.81,1.81,0,0,0-.14.69,1.66,1.66,0,0,0,.34,1.13A1.24,1.24,0,0,0,251.38,28.67Z"/><path class="cls-2" d="M257.08,30.08V29l1.21-.16V17.72l-1.24-.2v-1l3.25-.41h0l.52.39V28.81l1.26.16v1.11Z"/><path class="cls-2" d="M264.12,28.09V22H263V21l.21-.07.3-.12.28-.11a.56.56,0,0,0,.16-.08,2.63,2.63,0,0,0,.59-.79c.05-.12.11-.24.18-.39s.13-.3.2-.46.12-.32.17-.48a3.53,3.53,0,0,0,.14-.43h1.48l0,2.46h2.44V22h-2.44v4.6c0,.44,0,.8,0,1.06a1.59,1.59,0,0,0,.1.58.39.39,0,0,0,.24.26,1.42,1.42,0,0,0,.46.06h0l.42,0,.43-.08.39-.1.29-.1h0l.39,1a4,4,0,0,1-.61.39,6.63,6.63,0,0,1-.8.34,6.18,6.18,0,0,1-.92.25,5.31,5.31,0,0,1-1,.09h0a2.6,2.6,0,0,1-.93-.14,1.32,1.32,0,0,1-.62-.42,1.63,1.63,0,0,1-.35-.68A3.73,3.73,0,0,1,264.12,28.09Z"/><path class="cls-2" d="M270.14,30.08V29l1-.16V17.72l-1.24-.2v-1l3.22-.41h.05l.5.39,0,3.91-.13,1.32a4.05,4.05,0,0,1,.56-.44,4.2,4.2,0,0,1,.76-.43,5,5,0,0,1,.92-.32,4.11,4.11,0,0,1,1.06-.13,3.44,3.44,0,0,1,1.34.22,1.87,1.87,0,0,1,.85.69,3.09,3.09,0,0,1,.44,1.18,10.06,10.06,0,0,1,.13,1.68v4.6l1.17.16v1.11h-4.65V29l.92-.18V24.18a7.1,7.1,0,0,0-.06-1,1.7,1.7,0,0,0-.22-.68,1,1,0,0,0-.45-.4,1.87,1.87,0,0,0-.73-.13,2.46,2.46,0,0,0-.53.06,4.1,4.1,0,0,0-.53.15,3.43,3.43,0,0,0-.48.19,3.51,3.51,0,0,0-.37.23v6.2l1.14.16v1.11Z"/><path class="cls-2" d="M283.94,30.23a1.72,1.72,0,0,1-.55-.1,1.54,1.54,0,0,1-.47-.26,1.43,1.43,0,0,1-.31-.42,1.23,1.23,0,0,1-.12-.55,1.61,1.61,0,0,1,.13-.63,1.7,1.7,0,0,1,.91-.84,1.76,1.76,0,0,1,.66-.12,1.9,1.9,0,0,1,.68.11,1.17,1.17,0,0,1,.46.29,1,1,0,0,1,.26.42,1.77,1.77,0,0,1,.08.52,1.54,1.54,0,0,1-.13.65,1.33,1.33,0,0,1-.35.49,1.59,1.59,0,0,1-.55.32A2,2,0,0,1,283.94,30.23Z"/></svg>