<svg id="Layer_1" data-name="Layer 1" xmlns="http://www.w3.org/2000/svg" viewBox="0 0 320 50"><defs><style>.cls-1{fill:#435563;}.cls-2{opacity:0.05;}.cls-3{fill:#fff;}.cls-4{fill:#e87824;}.cls-5{fill:#d4262f;}.cls-6{fill:#f1b533;}.cls-7{fill:none;stroke:#f1b533;stroke-miterlimit:10;}</style></defs><rect class="cls-1" width="320" height="50"/><g class="cls-2"><polygon class="cls-3" points="174.35 48.46 172.76 50 175.94 50 174.35 48.46"/><polygon class="cls-3" points="164.78 48.46 163.19 50 166.37 50 164.78 48.46"/><polygon class="cls-3" points="193.48 48.46 191.89 50 195.07 50 193.48 48.46"/><polygon class="cls-3" points="183.91 48.46 182.32 50 185.5 50 183.91 48.46"/><polygon class="cls-3" points="203.04 48.46 203.04 48.46 201.46 50 204.63 50 203.04 48.46"/><polygon class="cls-3" points="155.22 48.46 153.63 50 156.81 50 155.22 48.46"/><polygon class="cls-3" points="136.09 48.46 134.5 50 137.68 50 136.09 48.46"/><polygon class="cls-3" points="126.52 48.46 126.52 48.46 124.93 50 128.11 50 126.52 48.46"/><polygon class="cls-3" points="145.65 48.46 144.06 50 147.24 50 145.65 48.46"/><polygon class="cls-3" points="270 48.46 268.41 50 271.59 50 270 48.46"/><polygon class="cls-3" points="260.43 48.46 258.85 50 262.02 50 260.43 48.46"/><polygon class="cls-3" points="212.61 48.46 211.02 50 214.2 50 212.61 48.46"/><polygon class="cls-3" points="279.56 48.46 279.56 48.46 277.98 50 281.15 50 279.56 48.46"/><polygon class="cls-3" points="289.13 48.46 287.54 50 290.72 50 289.13 48.46"/><polygon class="cls-3" points="222.17 48.46 220.59 50 223.76 50 222.17 48.46"/><polygon class="cls-3" points="231.74 48.46 230.15 50 233.33 50 231.74 48.46"/><polygon class="cls-3" points="241.3 48.46 239.72 50 242.89 50 241.3 48.46"/><polygon class="cls-3" points="250.87 48.46 250.87 48.46 249.28 50 252.46 50 250.87 48.46"/><polygon class="cls-3" points="11.74 48.46 10.15 50 13.33 50 11.74 48.46"/><polygon class="cls-3" points="30.87 48.46 30.87 48.46 29.28 50 32.46 50 30.87 48.46"/><polygon class="cls-3" points="6.96 48.46 11.74 43.81 16.52 48.46 21.31 43.81 26.09 48.46 30.87 43.81 35.65 48.46 40.44 43.81 45.22 48.46 50 43.81 54.78 48.46 59.57 43.81 64.35 48.46 69.13 43.81 73.91 48.46 78.7 43.81 83.48 48.46 88.26 43.81 93.04 48.46 97.83 43.81 102.61 48.46 102.61 48.46 107.39 43.81 112.17 48.46 112.17 48.46 116.96 43.81 121.74 48.46 126.52 43.81 131.31 48.46 136.09 43.81 140.87 48.46 145.65 43.81 150.44 48.46 152.83 46.13 155.22 43.81 160 48.46 164.78 43.81 169.56 48.46 174.35 43.81 179.13 48.46 183.91 43.81 188.69 48.46 193.48 43.81 198.26 48.46 198.26 48.46 203.04 43.81 207.83 48.46 212.61 43.81 217.39 48.46 222.17 43.81 226.96 48.46 231.74 43.81 236.52 48.46 241.3 43.81 246.09 48.46 250.87 43.81 255.65 48.46 260.43 43.81 265.22 48.46 270 43.81 274.78 48.46 279.56 43.81 284.35 48.46 284.35 48.46 289.13 43.81 293.91 48.46 298.69 43.81 303.48 48.46 308.26 43.81 313.04 48.46 315.43 46.13 317.82 43.81 320 45.92 320 41.28 317.82 39.16 317.82 39.16 313.04 43.81 308.26 39.16 303.48 43.81 298.69 39.16 298.69 39.16 293.91 43.81 289.13 39.16 284.35 43.81 279.56 39.16 279.56 39.16 274.78 43.81 270 39.16 265.22 43.81 260.43 39.16 255.65 43.81 250.87 39.16 250.87 39.16 250.87 39.16 246.09 43.81 241.3 39.16 236.52 43.81 231.74 39.16 226.96 43.81 222.17 39.16 217.39 43.81 212.61 39.16 207.83 43.81 203.04 39.16 203.04 39.16 198.26 43.81 193.48 39.16 188.69 43.81 183.91 39.16 179.13 43.81 174.35 39.16 169.56 43.81 164.78 39.16 160 43.81 155.22 39.16 150.44 43.81 145.65 39.16 140.87 43.81 136.09 39.16 131.31 43.81 126.52 39.16 126.52 39.16 121.74 43.81 116.96 39.16 112.17 43.81 107.39 39.16 102.61 43.81 97.83 39.16 93.04 43.81 88.26 39.16 88.26 39.16 88.26 39.16 83.48 43.81 78.7 39.16 73.91 43.81 69.13 39.16 64.35 43.81 59.57 39.16 54.78 43.81 50 39.16 45.22 43.81 40.44 39.16 35.65 43.81 30.87 39.16 30.87 39.16 26.09 43.81 21.31 39.16 16.52 43.81 11.74 39.16 6.96 43.81 2.17 39.16 0 41.28 0 45.92 2.17 43.81 6.96 48.46"/><polygon class="cls-3" points="21.31 48.46 19.72 50 22.89 50 21.31 48.46"/><polygon class="cls-3" points="116.96 48.46 115.37 50 118.55 50 116.96 48.46"/><polygon class="cls-3" points="21.31 1.99 16.52 6.63 11.74 1.99 6.96 6.63 2.17 1.99 0 4.1 0 8.75 2.17 6.63 6.96 11.28 11.74 6.63 16.52 11.28 21.31 6.63 26.09 11.28 30.87 6.63 35.65 11.28 40.44 6.63 45.22 11.28 50 6.63 54.78 11.28 59.57 6.63 64.35 11.28 69.13 6.63 73.91 11.28 78.7 6.63 83.48 11.28 88.26 6.63 93.04 11.28 97.83 6.63 102.61 11.28 102.61 11.28 107.39 6.63 112.17 11.28 112.17 11.28 116.96 6.63 121.74 11.28 126.52 6.63 131.31 11.28 136.09 6.63 140.87 11.28 145.65 6.63 150.44 11.28 152.83 8.96 155.22 6.63 160 11.28 164.78 6.63 169.56 11.28 174.35 6.63 179.13 11.28 183.91 6.63 188.69 11.28 193.48 6.63 198.26 11.28 198.26 11.28 203.04 6.63 207.83 11.28 212.61 6.63 217.39 11.28 222.17 6.63 226.96 11.28 231.74 6.63 236.52 11.28 241.3 6.63 246.09 11.28 250.87 6.63 255.65 11.28 260.43 6.63 265.22 11.28 270 6.63 274.78 11.28 279.56 6.63 284.35 11.28 284.35 11.28 289.13 6.63 293.91 11.28 298.69 6.63 303.48 11.28 308.26 6.63 313.04 11.28 315.43 8.96 317.82 6.63 320 8.75 320 4.1 317.82 1.99 317.82 1.99 313.04 6.63 308.26 1.99 303.48 6.63 298.69 1.99 298.69 1.99 293.91 6.63 289.13 1.99 284.35 6.63 279.56 1.99 279.56 1.99 274.78 6.63 270 1.99 265.22 6.63 260.43 1.99 255.65 6.63 250.87 1.99 250.87 1.99 250.87 1.99 246.09 6.63 241.3 1.99 236.52 6.63 231.74 1.99 226.96 6.63 222.17 1.99 217.39 6.63 212.61 1.99 207.83 6.63 203.04 1.99 203.04 1.99 198.26 6.63 193.48 1.99 188.69 6.63 183.91 1.99 179.13 6.63 174.35 1.99 169.56 6.63 164.78 1.99 160 6.63 155.22 1.99 150.44 6.63 145.65 1.99 140.87 6.63 136.09 1.99 131.31 6.63 126.52 1.99 126.52 1.99 121.74 6.63 116.96 1.99 112.17 6.63 107.39 1.99 102.61 6.63 97.83 1.99 93.04 6.63 88.26 1.99 88.26 1.99 88.26 1.99 83.48 6.63 78.7 1.99 73.91 6.63 69.13 1.99 64.35 6.63 59.57 1.99 54.78 6.63 50 1.99 45.22 6.63 40.44 1.99 35.65 6.63 30.87 1.99 30.87 1.99 26.09 6.63 21.31 1.99"/><polygon class="cls-3" points="317.82 20.58 313.04 25.22 308.26 20.58 303.48 25.22 298.69 20.58 298.69 20.58 293.91 25.22 289.13 20.58 284.35 25.22 279.56 20.58 279.56 20.58 274.78 25.22 270 20.58 265.22 25.22 260.43 20.58 255.65 25.22 250.87 20.58 250.87 20.58 246.09 25.22 241.3 20.58 236.52 25.22 231.74 20.58 226.96 25.22 222.17 20.58 217.39 25.22 212.61 20.58 207.83 25.22 203.04 20.58 203.04 20.58 198.26 25.22 193.48 20.58 188.69 25.22 183.91 20.58 179.13 25.22 174.35 20.58 169.56 25.22 164.78 20.58 160 25.22 155.22 20.58 150.44 25.22 145.65 20.58 140.87 25.22 136.09 20.58 131.31 25.22 126.52 20.58 126.52 20.58 121.74 25.22 116.96 20.58 112.17 25.22 107.39 20.58 102.61 25.22 97.83 20.58 93.04 25.22 88.26 20.58 88.26 20.58 83.48 25.22 78.7 20.58 73.91 25.22 69.13 20.58 64.35 25.22 59.57 20.58 54.78 25.22 50 20.58 45.22 25.22 40.44 20.58 35.65 25.22 30.87 20.58 30.87 20.58 26.09 25.22 21.31 20.58 16.52 25.22 11.74 20.58 6.96 25.22 2.17 20.58 0 22.69 0 27.34 2.17 25.22 6.96 29.87 11.74 25.22 16.52 29.87 21.31 25.22 26.09 29.87 30.87 25.22 35.65 29.87 40.44 25.22 45.22 29.87 50 25.22 54.78 29.87 59.57 25.22 64.35 29.87 69.13 25.22 73.91 29.87 78.7 25.22 83.48 29.87 88.26 25.22 93.04 29.87 97.83 25.22 102.61 29.87 102.61 29.87 107.39 25.22 112.17 29.87 112.17 29.87 116.96 25.22 121.74 29.87 126.52 25.22 131.31 29.87 136.09 25.22 140.87 29.87 145.65 25.22 150.44 29.87 152.83 27.55 155.22 25.22 160 29.87 164.78 25.22 169.56 29.87 174.35 25.22 179.13 29.87 183.91 25.22 188.69 29.87 193.48 25.22 198.26 29.87 198.26 29.87 203.04 25.22 207.83 29.87 212.61 25.22 217.39 29.87 222.17 25.22 226.96 29.87 231.74 25.22 236.52 29.87 241.3 25.22 246.09 29.87 250.87 25.22 255.65 29.87 260.43 25.22 265.22 29.87 270 25.22 274.78 29.87 279.56 25.22 284.35 29.87 284.35 29.87 289.13 25.22 293.91 29.87 298.69 25.22 303.48 29.87 308.26 25.22 313.04 29.87 315.43 27.55 317.82 25.22 320 27.34 320 22.69 317.82 20.58 317.82 20.58"/><polygon class="cls-3" points="6.96 39.16 11.74 34.52 16.52 39.16 21.31 34.52 26.09 39.16 30.87 34.52 35.65 39.16 40.44 34.52 45.22 39.16 50 34.52 54.78 39.16 59.57 34.52 64.35 39.16 69.13 34.52 73.91 39.16 78.7 34.52 83.48 39.16 88.26 34.52 93.04 39.16 97.83 34.52 102.61 39.16 102.61 39.16 107.39 34.52 112.17 39.16 112.17 39.16 116.96 34.52 121.74 39.16 126.52 34.52 131.31 39.16 136.09 34.52 140.87 39.16 145.65 34.52 150.44 39.16 152.83 36.84 155.22 34.52 160 39.16 164.78 34.52 169.56 39.16 174.35 34.52 179.13 39.16 183.91 34.52 188.69 39.16 193.48 34.52 198.26 39.16 198.26 39.16 203.04 34.52 207.83 39.16 212.61 34.52 217.39 39.16 222.17 34.52 226.96 39.16 231.74 34.52 236.52 39.16 241.3 34.52 246.09 39.16 250.87 34.52 255.65 39.16 260.43 34.52 265.22 39.16 270 34.52 274.78 39.16 279.56 34.52 284.35 39.16 284.35 39.16 289.13 34.52 293.91 39.16 298.69 34.52 303.48 39.16 308.26 34.52 313.04 39.16 315.43 36.84 317.82 34.52 320 36.63 320 31.98 317.82 29.87 317.82 29.87 313.04 34.52 308.26 29.87 303.48 34.52 298.69 29.87 298.69 29.87 293.91 34.52 289.13 29.87 284.35 34.52 279.56 29.87 279.56 29.87 274.78 34.52 270 29.87 265.22 34.52 260.43 29.87 255.65 34.52 250.87 29.87 250.87 29.87 246.09 34.52 241.3 29.87 236.52 34.52 231.74 29.87 226.96 34.52 222.17 29.87 217.39 34.52 212.61 29.87 207.83 34.52 203.04 29.87 203.04 29.87 198.26 34.52 193.48 29.87 188.69 34.52 183.91 29.87 179.13 34.52 174.35 29.87 169.56 34.52 164.78 29.87 160 34.52 155.22 29.87 150.44 34.52 145.65 29.87 140.87 34.52 136.09 29.87 131.31 34.52 126.52 29.87 126.52 29.87 121.74 34.52 116.96 29.87 112.17 34.52 107.39 29.87 102.61 34.52 97.83 29.87 93.04 34.52 88.26 29.87 88.26 29.87 83.48 34.52 78.7 29.87 73.91 34.52 69.13 29.87 64.35 34.52 59.57 29.87 54.78 34.52 50 29.87 45.22 34.52 40.44 29.87 35.65 34.52 30.87 29.87 30.87 29.87 26.09 34.52 21.31 29.87 16.52 34.52 11.74 29.87 6.96 34.52 2.17 29.87 0 31.98 0 36.63 2.17 34.52 6.96 39.16"/><polygon class="cls-3" points="2.17 48.46 0.59 50 3.76 50 2.17 48.46"/><polygon class="cls-3" points="97.83 48.46 96.24 50 99.42 50 97.83 48.46"/><polygon class="cls-3" points="88.26 48.46 88.26 48.46 86.67 50 89.85 50 88.26 48.46"/><polygon class="cls-3" points="78.7 48.46 77.11 50 80.28 50 78.7 48.46"/><polygon class="cls-3" points="107.39 48.46 105.8 50 108.98 50 107.39 48.46"/><polygon class="cls-3" points="69.13 48.46 67.54 50 70.72 50 69.13 48.46"/><polygon class="cls-3" points="50 48.46 48.41 50 51.59 50 50 48.46"/><polygon class="cls-3" points="59.57 48.46 57.98 50 61.16 50 59.57 48.46"/><polygon class="cls-3" points="40.44 48.46 38.85 50 42.02 50 40.44 48.46"/><polygon class="cls-3" points="317.82 11.28 313.04 15.93 308.26 11.28 303.48 15.93 298.69 11.28 298.69 11.28 293.91 15.93 289.13 11.28 284.35 15.93 279.56 11.28 279.56 11.28 274.78 15.93 270 11.28 265.22 15.93 260.43 11.28 255.65 15.93 250.87 11.28 250.87 11.28 246.09 15.93 241.3 11.28 236.52 15.93 231.74 11.28 226.96 15.93 222.17 11.28 217.39 15.93 212.61 11.28 207.83 15.93 203.04 11.28 203.04 11.28 198.26 15.93 193.48 11.28 188.69 15.93 183.91 11.28 179.13 15.93 174.35 11.28 169.56 15.93 164.78 11.28 160 15.93 155.22 11.28 150.44 15.93 145.65 11.28 140.87 15.93 136.09 11.28 131.31 15.93 126.52 11.28 126.52 11.28 121.74 15.93 116.96 11.28 112.17 15.93 107.39 11.28 102.61 15.93 97.83 11.28 93.04 15.93 88.26 11.28 88.26 11.28 83.48 15.93 78.7 11.28 73.91 15.93 69.13 11.28 64.35 15.93 59.57 11.28 54.78 15.93 50 11.28 45.22 15.93 40.44 11.28 35.65 15.93 30.87 11.28 30.87 11.28 26.09 15.93 21.31 11.28 16.52 15.93 11.74 11.28 6.96 15.93 2.17 11.28 0 13.4 0 18.04 2.17 15.93 6.96 20.58 11.74 15.93 16.52 20.58 21.31 15.93 26.09 20.58 30.87 15.93 35.65 20.58 40.44 15.93 45.22 20.58 50 15.93 54.78 20.58 59.57 15.93 64.35 20.58 69.13 15.93 73.91 20.58 78.7 15.93 83.48 20.58 88.26 15.93 93.04 20.58 97.83 15.93 102.61 20.58 102.61 20.58 107.39 15.93 112.17 20.58 112.17 20.58 116.96 15.93 121.74 20.58 126.52 15.93 131.31 20.58 136.09 15.93 140.87 20.58 145.65 15.93 148.04 18.25 150.44 20.58 152.83 18.25 155.22 15.93 160 20.58 164.78 15.93 169.56 20.58 174.35 15.93 179.13 20.58 183.91 15.93 188.69 20.58 193.48 15.93 198.26 20.58 198.26 20.58 203.04 15.93 207.83 20.58 212.61 15.93 217.39 20.58 222.17 15.93 226.96 20.58 231.74 15.93 236.52 20.58 241.3 15.93 246.09 20.58 250.87 15.93 255.65 20.58 260.43 15.93 265.22 20.58 270 15.93 274.78 20.58 279.56 15.93 284.35 20.58 284.35 20.58 289.13 15.93 293.91 20.58 298.69 15.93 303.48 20.58 308.26 15.93 310.65 18.25 313.04 20.58 315.43 18.25 317.82 15.93 320 18.04 320 13.4 317.82 11.28 317.82 11.28"/><polygon class="cls-3" points="102.61 1.99 104.66 0 100.56 0 102.61 1.99 102.61 1.99"/><polygon class="cls-3" points="112.17 1.99 114.22 0 110.13 0 112.17 1.99 112.17 1.99"/><polygon class="cls-3" points="95.09 0 91 0 93.04 1.99 95.09 0"/><polygon class="cls-3" points="123.79 0 119.69 0 121.74 1.99 123.79 0"/><polygon class="cls-3" points="142.92 0 138.82 0 140.87 1.99 142.92 0"/><polygon class="cls-3" points="162.05 0 157.95 0 160 1.99 162.05 0"/><polygon class="cls-3" points="152.48 0 148.39 0 150.44 1.99 152.48 0"/><polygon class="cls-3" points="133.35 0 129.26 0 131.31 1.99 133.35 0"/><polygon class="cls-3" points="85.53 0 81.43 0 83.48 1.99 85.53 0"/><polygon class="cls-3" points="37.7 0 33.61 0 35.65 1.99 37.7 0"/><polygon class="cls-3" points="298.69 48.46 298.69 48.46 297.11 50 300.28 50 298.69 48.46"/><polygon class="cls-3" points="171.61 0 167.52 0 169.56 1.99 171.61 0"/><polygon class="cls-3" points="75.96 0 71.87 0 73.91 1.99 75.96 0"/><polygon class="cls-3" points="9 0 4.91 0 6.96 1.99 9 0"/><polygon class="cls-3" points="28.14 0 24.04 0 26.09 1.99 28.14 0"/><polygon class="cls-3" points="47.27 0 43.17 0 45.22 1.99 47.27 0"/><polygon class="cls-3" points="66.39 0 62.3 0 64.35 1.99 66.39 0"/><polygon class="cls-3" points="56.83 0 52.74 0 54.78 1.99 56.83 0"/><polygon class="cls-3" points="18.57 0 14.48 0 16.52 1.99 18.57 0"/><polygon class="cls-3" points="305.52 0 301.43 0 303.48 1.99 305.52 0"/><polygon class="cls-3" points="284.35 1.99 286.39 0 282.3 0 284.35 1.99 284.35 1.99"/><polygon class="cls-3" points="267.26 0 263.17 0 265.22 1.99 267.26 0"/><polygon class="cls-3" points="181.18 0 177.08 0 179.13 1.99 181.18 0"/><polygon class="cls-3" points="295.96 0 291.87 0 293.91 1.99 295.96 0"/><polygon class="cls-3" points="315.09 0 311 0 313.04 1.99 315.09 0"/><polygon class="cls-3" points="308.26 48.46 306.67 50 309.85 50 308.26 48.46"/><polygon class="cls-3" points="317.82 48.46 317.82 48.46 316.24 50 319.41 50 317.82 48.46"/><polygon class="cls-3" points="276.83 0 272.74 0 274.78 1.99 276.83 0"/><polygon class="cls-3" points="219.44 0 215.34 0 217.39 1.99 219.44 0"/><polygon class="cls-3" points="198.26 1.99 200.31 0 196.21 0 198.26 1.99 198.26 1.99"/><polygon class="cls-3" points="209.87 0 205.78 0 207.83 1.99 209.87 0"/><polygon class="cls-3" points="190.74 0 186.65 0 188.69 1.99 190.74 0"/><polygon class="cls-3" points="257.7 0 253.6 0 255.65 1.99 257.7 0"/><polygon class="cls-3" points="248.13 0 244.04 0 246.09 1.99 248.13 0"/><polygon class="cls-3" points="238.57 0 234.47 0 236.52 1.99 238.57 0"/><polygon class="cls-3" points="229 0 224.91 0 226.96 1.99 229 0"/></g><path class="cls-4" d="M33.76,13.21,30,16.83a.34.34,0,0,1-.28.09v2.32a.37.37,0,0,0,.2-.09l3.83-3.65a.37.37,0,0,1,.28-.1V13.11a.43.43,0,0,0-.24.1"/><path class="cls-4" d="M39,18.54H33.63a.34.34,0,0,1-.27-.12L31.57,20a.37.37,0,0,0,.28.13h5.42a.36.36,0,0,1,.25.1l1.72-1.59a.36.36,0,0,0-.25-.1"/><path class="cls-4" d="M38.74,25.83,35,22.22a.36.36,0,0,1-.1-.32H32.41a.31.31,0,0,0,.1.24l3.83,3.65a.35.35,0,0,1,.11.24h2.39a.42.42,0,0,0-.1-.2"/><path class="cls-4" d="M31.49,24v5.17a.33.33,0,0,1-.12.25L33.06,31a.36.36,0,0,0,.09-.22V25.71a.29.29,0,0,1,.09-.22l-1.65-1.72a.33.33,0,0,0-.1.24"/><path class="cls-4" d="M29.38,24.64l-3.84,3.65a.3.3,0,0,1-.23.1v2.28a.34.34,0,0,0,.19-.09L29.29,27a.39.39,0,0,1,.27-.1V24.55a.31.31,0,0,0-.18.09"/><path class="cls-4" d="M27.42,23.66H22a.37.37,0,0,1-.27-.11L20,25.16a.32.32,0,0,0,.23.09h5.36a.4.4,0,0,1,.26.1l1.76-1.6a.36.36,0,0,0-.23-.09"/><path class="cls-4" d="M26.86,21.87a.33.33,0,0,0-.11-.22L22.92,18a.33.33,0,0,1-.08-.35h-2.4a.33.33,0,0,0,.09.32l3.79,3.61a.37.37,0,0,1,.1.3h2.44"/><path class="cls-4" d="M27.78,19.78V14.61a.31.31,0,0,1,.13-.25l-1.7-1.62a.32.32,0,0,0-.09.23v5.11a.33.33,0,0,1-.1.23L27.69,20a.34.34,0,0,0,.09-.22"/><path class="cls-5" d="M29.47,16.83l-.65-.62c-.14-.13-.25-.09-.25.1V18a.9.9,0,0,0,.25.58l.57.54a.34.34,0,0,0,.3.09V16.92a.31.31,0,0,1-.22-.09"/><path class="cls-5" d="M33.27,18.2v-.88c0-.19-.11-.23-.25-.1l-1.28,1.22a1,1,0,0,0-.25.58v.77a.32.32,0,0,0,.08.21l1.79-1.58a.34.34,0,0,1-.09-.22"/><path class="cls-5" d="M35,21.74l.65-.62c.14-.14.09-.24-.11-.24h-1.8a1,1,0,0,0-.61.24l-.57.54a.3.3,0,0,0-.1.24h2.44a.39.39,0,0,1,.1-.16"/><path class="cls-5" d="M34.53,25.13l-1.28-1.22a1,1,0,0,0-.6-.24h-.81a.36.36,0,0,0-.25.1l1.65,1.72a.36.36,0,0,1,.27-.12h.91c.2,0,.25-.11.11-.24"/><path class="cls-5" d="M30.45,25.18l-.57-.54a.38.38,0,0,0-.32-.09v2.31a.43.43,0,0,1,.24.1l.65.62c.14.13.25.09.25-.1V25.76a.9.9,0,0,0-.25-.58"/><path class="cls-5" d="M27.65,23.75l-1.76,1.6a.35.35,0,0,1,.1.24v.87c0,.19.11.23.25.1l1.28-1.21a1,1,0,0,0,.25-.58V24a.3.3,0,0,0-.12-.25"/><path class="cls-5" d="M24.42,21.87a.36.36,0,0,1-.1.18l-.65.62c-.14.13-.09.24.1.24h1.81a1,1,0,0,0,.61-.24l.56-.54a.34.34,0,0,0,.11-.26H24.42"/><path class="cls-5" d="M26,18.31a.35.35,0,0,1-.26.11h-.92c-.2,0-.24.11-.11.24L26,19.88a1.05,1.05,0,0,0,.61.24h.8a.38.38,0,0,0,.27-.12L26,18.31"/><path class="cls-6" d="M38.39,17.14l-4.12-3.93a.41.41,0,0,0-.27-.1V15.4a.43.43,0,0,1,.23.1L36,17.14a1,1,0,0,0,.61.24h1.72c.2,0,.24-.11.11-.24"/><path class="cls-6" d="M39.24,18.64l-1.72,1.59a.35.35,0,0,1,.1.24V22.8a.91.91,0,0,0,.26.57l1.21,1.12c.14.13.26.08.26-.11v-5.5a.32.32,0,0,0-.11-.24"/><path class="cls-6" d="M36.45,26a.36.36,0,0,1-.11.25l-1.72,1.64a.91.91,0,0,0-.26.58v1.65c0,.19.11.23.25.1l4.13-3.93a.36.36,0,0,0,.1-.29H36.45"/><path class="cls-6" d="M31.13,29.51H28.69a1,1,0,0,0-.61.25l-1.17,1.15c-.13.14-.08.25.11.25h5.77a.38.38,0,0,0,.27-.12l-1.69-1.61a.41.41,0,0,1-.24.08"/><path class="cls-6" d="M25,28.29l-1.73-1.65a1,1,0,0,0-.6-.24H21c-.2,0-.25.11-.11.24L25,30.58a.35.35,0,0,0,.31.09V28.39a.34.34,0,0,1-.27-.1"/><path class="cls-6" d="M21.64,23.32V21a.91.91,0,0,0-.26-.57L20.17,19.3c-.14-.13-.25-.08-.25.11v5.5a.3.3,0,0,0,.12.25l1.69-1.61a.36.36,0,0,1-.09-.23"/><path class="cls-6" d="M22.92,17.51l1.73-1.64a.84.84,0,0,0,.24-.58l0-1.61c0-.18-.12-.23-.25-.1l-4.08,3.9a.26.26,0,0,0-.09.16h2.4a.57.57,0,0,1,.08-.13"/><path class="cls-6" d="M32.24,12.63H26.47a.36.36,0,0,0-.26.11l1.7,1.62a.36.36,0,0,1,.23-.08h2.44a1,1,0,0,0,.6-.25l1.17-1.15c.14-.14.09-.25-.11-.25"/><path class="cls-6" d="M38.5,29.57a.8.8,0,1,1,0,1.59.8.8,0,1,1,0-1.59h0m0,.18a.61.61,0,1,0,0,1.22.61.61,0,1,0,0-1.22Zm-.11,1h-.22V30l.33,0a.44.44,0,0,1,.29.06.17.17,0,0,1,.09.16c0,.08-.08.15-.18.18h0c.09,0,.13.09.16.19a.89.89,0,0,0,0,.18h-.24a1.44,1.44,0,0,1-.06-.17c0-.08-.05-.11-.14-.11h-.08Zm0-.43h.08c.1,0,.17,0,.17-.11s-.05-.1-.16-.1h-.09Z"/><path class="cls-3" d="M48.29,24.43a2.83,2.83,0,0,1-3.1-3,2.85,2.85,0,0,1,3.08-3.08,4.8,4.8,0,0,1,1.85.34L50.58,17a5.79,5.79,0,0,0-2.39-.42c-2.95,0-5.31,1.76-5.31,4.92,0,2.66,1.73,4.67,5.09,4.67a6.69,6.69,0,0,0,2.48-.4l-.32-1.65a5.4,5.4,0,0,1-1.84.3"/><path class="cls-3" d="M54.39,19.14a3.44,3.44,0,0,0-3.77,3.57,3.37,3.37,0,0,0,3.64,3.47h0A3.46,3.46,0,0,0,58,22.6a3.35,3.35,0,0,0-3.59-3.46m-.08,5.54h0c-.92,0-1.43-.87-1.43-2s.41-2,1.45-2,1.4,1,1.4,2C55.71,23.87,55.17,24.68,54.31,24.68Z"/><path class="cls-3" d="M75.51,19.14a2.86,2.86,0,0,0-1.34.33,3,3,0,0,0-.92.83h0a2,2,0,0,0-1.94-1.16,2.48,2.48,0,0,0-2.13,1.08l-.13.14a2.14,2.14,0,0,0-2-1.22,2.89,2.89,0,0,0-1.34.33,3.12,3.12,0,0,0-.92.83h0a2,2,0,0,0-1.93-1.16,2.49,2.49,0,0,0-2.14,1.08h0l-.09-.93H58.63c0,.61.06,1.31.06,2.15V26h2.14V22.12a1.39,1.39,0,0,1,.08-.54,1.11,1.11,0,0,1,1-.74c.7,0,1,.58,1,1.42V26h2.13V22.09a1.82,1.82,0,0,1,.08-.52,1.07,1.07,0,0,1,1-.73c.66,0,1,.49,1,1.33V26h2.14V22a1.17,1.17,0,0,1,.08-.37,1.11,1.11,0,0,1,1-.74c.71,0,1,.58,1,1.42V26h2.13V22.09a1.82,1.82,0,0,1,.08-.52,1.07,1.07,0,0,1,1-.73c.7,0,1,.56,1,1.54V26h2.13v-4c0-2-1-2.92-2.38-2.92"/><path class="cls-3" d="M85.35,19.29h-2.2v4a1.26,1.26,0,0,1-.08.46,1.16,1.16,0,0,1-1.1.73c-.78,0-1.11-.6-1.11-1.57V19.29H78.67v4c0,2.07,1,2.93,2.48,2.93a2.56,2.56,0,0,0,2.21-1.1h0l.1,1h1.9c0-.56-.05-1.28-.05-2.16V19.29"/><path class="cls-3" d="M90.42,19.14a2.57,2.57,0,0,0-2.18,1.09h0l-.1-.94H86.19c0,.61.06,1.31.06,2.15V26h2.19V22.15a1.41,1.41,0,0,1,.08-.53,1.18,1.18,0,0,1,1.12-.78c.8,0,1.11.59,1.11,1.46V26h2.19v-4c0-2-1.08-2.91-2.52-2.91"/><path class="cls-3" d="M94.94,16.18a1.12,1.12,0,1,0,0,2.23h0a1.12,1.12,0,1,0,0-2.23"/><path class="cls-3" d="M106.68,19.29l-.87,3.31c-.1.39-.22.89-.32,1.25h0c-.09-.36-.23-.85-.35-1.25l-1-3.31H99.93V17.46L97.78,18v1.26h-4V26H96V20.84h1.76v2.77a2.69,2.69,0,0,0,.6,2,2.4,2.4,0,0,0,1.66.58,4.75,4.75,0,0,0,1.42-.18l0-1.58a2.81,2.81,0,0,1-.65.06c-.65,0-.86-.38-.86-1.19V20.84h2.33l1.95,4.61a.89.89,0,0,1,.08.34.58.58,0,0,1-.11.31,2.52,2.52,0,0,1-.91.84,3.78,3.78,0,0,1-1,.36l.46,1.76a3.92,3.92,0,0,0,2.12-.92c.8-.68,1.48-1.74,2.48-4.41L109,19.29h-2.35"/><polyline class="cls-3" points="59.98 30.52 59.98 33.22 62.97 33.22 62.97 30.52 64.25 30.52 64.25 37.26 62.97 37.26 62.97 34.29 59.98 34.29 59.98 37.26 58.69 37.26 58.69 30.52 59.98 30.52"/><path class="cls-3" d="M66.36,35.17c0,.88.74,1.26,1.57,1.26a4.32,4.32,0,0,0,1.42-.22l.19.84a4.78,4.78,0,0,1-1.78.31,2.37,2.37,0,0,1-2.64-2.46,2.46,2.46,0,0,1,2.5-2.62,2.16,2.16,0,0,1,2.2,2.37,3,3,0,0,1,0,.52H66.36m2.24-.86a1.05,1.05,0,0,0-1-1.19,1.23,1.23,0,0,0-1.19,1.19Z"/><path class="cls-3" d="M74.63,36.09a6.57,6.57,0,0,0,.08,1.17H73.55l-.1-.54h0a1.9,1.9,0,0,1-1.51.65,1.48,1.48,0,0,1-1.6-1.45c0-1.22,1.14-1.85,3-1.84V34c0-.32-.14-.85-1-.85a2.78,2.78,0,0,0-1.37.36l-.25-.8a3.76,3.76,0,0,1,1.84-.43,1.87,1.87,0,0,1,2.11,2.06v1.75m-1.26-1.21c-.91,0-1.78.17-1.78.91a.66.66,0,0,0,.73.7,1.07,1.07,0,0,0,1-.67.83.83,0,0,0,0-.27Z"/><rect class="cls-3" x="75.78" y="30.17" width="1.29" height="7.1"/><path class="cls-3" d="M79.74,31.14v1.25H81v.92H79.74v2.15c0,.6.17.9.66.9a1.75,1.75,0,0,0,.5,0l0,.93a2.93,2.93,0,0,1-.93.13,1.51,1.51,0,0,1-1.11-.4,1.83,1.83,0,0,1-.41-1.37V33.31h-.72v-.92h.72v-.91l1.27-.34"/><path class="cls-3" d="M81.73,30.17H83v2.88h0a1.57,1.57,0,0,1,.64-.55,1.86,1.86,0,0,1,.89-.22c.87,0,1.78.55,1.78,2.11v2.87H85.06V34.52c0-.7-.27-1.24-1-1.24a1.07,1.07,0,0,0-1,.69,1.11,1.11,0,0,0,0,.37v2.92H81.73V30.17"/><path class="cls-3" d="M89.51,37.26V30.53H91l1.82,2.88A20.84,20.84,0,0,1,94,35.67h0a24.81,24.81,0,0,1-.12-2.8V30.53h1.2v6.73H93.78l-1.85-3A23.86,23.86,0,0,1,90.67,32h0c.05.87.08,1.76.08,2.87v2.41h-1.2"/><path class="cls-3" d="M97.25,35.17c0,.88.75,1.26,1.58,1.26a4.3,4.3,0,0,0,1.41-.22l.19.84a4.78,4.78,0,0,1-1.78.31A2.36,2.36,0,0,1,96,34.9a2.46,2.46,0,0,1,2.49-2.62,2.15,2.15,0,0,1,2.2,2.37,3,3,0,0,1,0,.52H97.25m2.25-.86a1.06,1.06,0,0,0-1.06-1.19,1.24,1.24,0,0,0-1.19,1.19Z"/><path class="cls-3" d="M103,31.14v1.25h1.22v.92H103v2.15c0,.6.16.9.66.9a1.75,1.75,0,0,0,.5,0l0,.93a2.93,2.93,0,0,1-.93.13,1.51,1.51,0,0,1-1.11-.4,1.83,1.83,0,0,1-.41-1.37V33.31H101v-.92h.73v-.91l1.27-.34"/><path class="cls-3" d="M105.85,32.39l.53,2.21c.13.52.24,1,.33,1.58h0c.1-.53.27-1.07.4-1.57l.67-2.22h1l.64,2.16c.16.57.29,1.1.41,1.63h0a15.31,15.31,0,0,1,.34-1.63l.56-2.16h1.27l-1.6,4.87h-1.2l-.61-2a14.86,14.86,0,0,1-.38-1.56h0c-.12.6-.25,1.08-.39,1.56l-.65,2H106l-1.51-4.87h1.32"/><path class="cls-3" d="M117.43,34.78a2.47,2.47,0,0,1-2.62,2.59,2.41,2.41,0,0,1-2.55-2.51,2.46,2.46,0,0,1,2.64-2.58,2.39,2.39,0,0,1,2.53,2.5m-3.84,0c0,.94.49,1.65,1.26,1.65s1.25-.68,1.25-1.67c0-.76-.35-1.64-1.24-1.64S113.59,34,113.59,34.83Z"/><path class="cls-3" d="M118.23,34c0-.66,0-1.14,0-1.57h1.11l.06.92h0a1.52,1.52,0,0,1,1.4-1,1.32,1.32,0,0,1,.3,0v1.15a2.09,2.09,0,0,0-.38,0,1.11,1.11,0,0,0-1.15.93,1.45,1.45,0,0,0,0,.37v2.53h-1.29V34"/><path class="cls-3" d="M123,34.53h0l.4-.57,1.25-1.57h1.55l-1.9,2,2.16,2.88h-1.58l-1.47-2.15-.43.49v1.66h-1.29V30.17H123v4.36"/><path class="cls-6" d="M158.87,22.52h-2V21.15h5.82v1.37h-2.07v5.84h-1.71Z"/><path class="cls-6" d="M164.5,26.51,164,28.36H162.2l2.31-7.21h2.24l2.35,7.21h-1.84l-.58-1.85Zm1.92-1.22L166,23.76c-.13-.42-.26-1-.38-1.39h0c-.11.43-.23,1-.35,1.39l-.45,1.53Z"/><path class="cls-6" d="M170.11,21.15h1.69v3.19h0a9,9,0,0,1,.52-.79l1.71-2.4h2.1l-2.5,3.07,2.63,4.14h-2l-1.86-3.11-.64.76v2.35h-1.69Z"/><path class="cls-6" d="M181.48,25.31H178.7V27h3.11v1.33H177V21.15h4.66v1.34h-3V24h2.78Z"/><path class="cls-6" d="M186.27,22.52h-2V21.15H190v1.37H188v5.84h-1.7Z"/><path class="cls-6" d="M192.66,21.15v2.77h2.82V21.15h1.71v7.21h-1.71v-3h-2.82v3H191V21.15Z"/><path class="cls-6" d="M203.17,25.31h-2.78V27h3.11v1.33h-4.82V21.15h4.65v1.34h-2.94V24h2.78Z"/><path class="cls-6" d="M206.93,21.15h4.62v1.34h-2.91v1.65h2.72v1.32h-2.72v2.9h-1.71Z"/><path class="cls-6" d="M212.84,21.25a14.82,14.82,0,0,1,2.27-.16,4,4,0,0,1,2.45.58,1.79,1.79,0,0,1,.7,1.51A1.93,1.93,0,0,1,216.92,25v0a1.82,1.82,0,0,1,1,1.35c.24.81.46,1.75.61,2h-1.75a9.85,9.85,0,0,1-.52-1.68c-.21-.9-.53-1.14-1.23-1.15h-.51v2.83h-1.69Zm1.69,3.1h.67c.85,0,1.36-.41,1.36-1s-.48-1-1.26-1a3.77,3.77,0,0,0-.77.05Z"/><path class="cls-6" d="M224,25.31H221.2V27h3.11v1.33h-4.82V21.15h4.65v1.34H221.2V24H224Z"/><path class="cls-6" d="M230,25.31h-2.79V27h3.11v1.33h-4.81V21.15h4.65v1.34h-2.95V24H230Z"/><path class="cls-6" d="M235.48,26.51,235,28.36h-1.77l2.31-7.21h2.23l2.36,7.21h-1.85l-.58-1.85Zm1.92-1.22-.47-1.53c-.13-.42-.26-1-.38-1.39h0c-.12.43-.23,1-.35,1.39l-.45,1.53Z"/><path class="cls-6" d="M241.14,26.68a4.38,4.38,0,0,0,1.89.45c.79,0,1.2-.31,1.2-.78s-.36-.71-1.26-1c-1.26-.43-2.09-1.08-2.09-2.14C240.88,22,242,21,243.74,21a4.65,4.65,0,0,1,1.93.36l-.38,1.31a3.66,3.66,0,0,0-1.57-.34c-.75,0-1.1.33-1.1.69s.42.66,1.4,1c1.34.47,2,1.14,2,2.16,0,1.2-1,2.23-3,2.23a5,5,0,0,1-2.14-.45Z"/><path class="cls-6" d="M247.19,26.68a4.47,4.47,0,0,0,1.9.45c.78,0,1.2-.31,1.2-.78s-.36-.71-1.27-1c-1.26-.43-2.08-1.08-2.08-2.14C246.94,22,248,21,249.8,21a4.69,4.69,0,0,1,1.93.36l-.38,1.31a3.71,3.71,0,0,0-1.58-.34c-.74,0-1.1.33-1.1.69s.42.66,1.4,1c1.34.47,2,1.14,2,2.16,0,1.2-1,2.23-3.05,2.23a5,5,0,0,1-2.13-.45Z"/><path class="cls-6" d="M257.68,25.31H254.9V27H258v1.33h-4.82V21.15h4.66v1.34h-3V24h2.78Z"/><path class="cls-6" d="M259.24,26.68a4.38,4.38,0,0,0,1.89.45c.79,0,1.2-.31,1.2-.78s-.36-.71-1.26-1c-1.26-.43-2.09-1.08-2.09-2.14C259,22,260.06,21,261.84,21a4.65,4.65,0,0,1,1.93.36l-.38,1.31a3.7,3.7,0,0,0-1.57-.34c-.75,0-1.1.33-1.1.69s.41.66,1.4,1c1.33.47,1.95,1.14,1.95,2.16,0,1.2-1,2.23-3,2.23a5,5,0,0,1-2.14-.45Z"/><path class="cls-6" d="M265.29,26.68a4.39,4.39,0,0,0,1.9.45c.78,0,1.2-.31,1.2-.78s-.36-.71-1.27-1c-1.26-.43-2.08-1.08-2.08-2.14C265,22,266.12,21,267.9,21a4.69,4.69,0,0,1,1.93.36l-.38,1.31a3.75,3.75,0,0,0-1.58-.34c-.74,0-1.1.33-1.1.69s.42.66,1.4,1c1.34.47,2,1.14,2,2.16,0,1.2-1,2.23-3.05,2.23A5,5,0,0,1,265,28Z"/><path class="cls-6" d="M277.68,25.6c0-.87-.07-1.91-.07-3h0c-.24.93-.56,1.95-.84,2.8l-.93,2.81h-1.33l-.81-2.78c-.24-.85-.5-1.88-.68-2.83h0c0,1-.08,2.1-.12,3l-.14,2.74h-1.58l.48-7.21h2.28l.74,2.41c.24.83.47,1.73.64,2.58h0c.21-.84.47-1.79.72-2.59l.81-2.4h2.23l.41,7.21H277.8Z"/><path class="cls-6" d="M285.27,25.31h-2.78V27h3.1v1.33h-4.81V21.15h4.65v1.34h-2.94V24h2.78Z"/><path class="cls-6" d="M286.76,28.36V21.15h2l1.57,2.65a18.39,18.39,0,0,1,1.24,2.47h0a26,26,0,0,1-.14-3v-2.1H293v7.21h-1.79l-1.62-2.78A26.47,26.47,0,0,1,288.29,23h0c.05,1,.07,2,.07,3.15v2.17Z"/><path class="cls-6" d="M296,22.52h-2V21.15h5.82v1.37h-2.07v5.84H296Z"/><rect class="cls-7" x="151.88" y="16.04" width="152.81" height="18.37" rx="2.7"/></svg>