<svg id="Layer_1" data-name="Layer 1" xmlns="http://www.w3.org/2000/svg" viewBox="0 0 320 50"><defs><style>.cls-1{fill:#fff;}.cls-2{fill:#f1b533;}</style></defs><path class="cls-1" d="M19.57,29.65v-.93l.89-.2,3.29-9.31h2.2l3.28,9.31,1,.2v.93H25.74v-.93l1.11-.2-.51-1.66H22.63l-.49,1.67,1.13.19v.93Zm4.64-8.27-1.28,4.41H26l-1.35-4.41-.24-1Z"/><path class="cls-1" d="M34.92,29.21V27.29h1.26l.36,1.07a.66.66,0,0,0,.19.18,1.39,1.39,0,0,0,.3.16,2.66,2.66,0,0,0,.39.11,2.32,2.32,0,0,0,.46,0,1.42,1.42,0,0,0,.55-.08.86.86,0,0,0,.35-.21.59.59,0,0,0,.18-.29A1.12,1.12,0,0,0,39,28a.81.81,0,0,0-.15-.49,1.42,1.42,0,0,0-.42-.38,4.34,4.34,0,0,0-.65-.34l-.85-.36a5.62,5.62,0,0,1-.85-.43,2.78,2.78,0,0,1-.64-.53,2.08,2.08,0,0,1-.4-.65A2.1,2.1,0,0,1,34.9,24a1.91,1.91,0,0,1,.21-.89,1.94,1.94,0,0,1,.59-.72,3.26,3.26,0,0,1,1-.48,4.64,4.64,0,0,1,1.36-.17,4.82,4.82,0,0,1,.8.05c.24,0,.45.08.64.13A3.69,3.69,0,0,1,40,22l.46.12V24l-1.19,0L39,23.1a1,1,0,0,0-.36-.3,1.37,1.37,0,0,0-.68-.15,1.88,1.88,0,0,0-.51.06,1,1,0,0,0-.34.19.83.83,0,0,0-.18.25.74.74,0,0,0,0,.29A.89.89,0,0,0,37,24a1.51,1.51,0,0,0,.47.39,4.31,4.31,0,0,0,.61.28c.22.08.44.16.64.25s.58.27.86.42a3.49,3.49,0,0,1,.72.52,2.05,2.05,0,0,1,.7,1.6,2.17,2.17,0,0,1-.2.92,2.05,2.05,0,0,1-.58.74,3,3,0,0,1-1,.49,4.71,4.71,0,0,1-1.38.18,6,6,0,0,1-1-.08,7.15,7.15,0,0,1-.81-.17l-.66-.2Z"/><path class="cls-1" d="M42.07,29.65v-.91l1-.13V23.34l-.93-.29V22l2.51-.33h0l.5.29V28.6l1,.14v.91Zm1.82-9.12a1,1,0,0,1-.43-.09.82.82,0,0,1-.32-.23,1.31,1.31,0,0,1-.19-.35,1.49,1.49,0,0,1-.06-.43,1.63,1.63,0,0,1,.07-.5,1.16,1.16,0,0,1,.22-.41,1,1,0,0,1,.37-.28,1.24,1.24,0,0,1,.52-.11h0a1,1,0,0,1,.48.1,1,1,0,0,1,.34.24.94.94,0,0,1,.2.35,1.54,1.54,0,0,1,.07.42,1.7,1.7,0,0,1-.08.51,1.18,1.18,0,0,1-.23.41.89.89,0,0,1-.4.27,1.42,1.42,0,0,1-.57.1Z"/><path class="cls-1" d="M47.21,29.65v-.89l.85-.15V23.34l-.93-.28V22l2.42-.33h0L50,22v.82a2.8,2.8,0,0,1,.56-.41,4.26,4.26,0,0,1,.71-.35A5.28,5.28,0,0,1,52,21.8a3.49,3.49,0,0,1,.76-.09A2.62,2.62,0,0,1,54,22a1.61,1.61,0,0,1,.7.81,3.84,3.84,0,0,1,.5-.36,4.43,4.43,0,0,1,.69-.34,6.09,6.09,0,0,1,.79-.26,3.25,3.25,0,0,1,.8-.1,3.08,3.08,0,0,1,1.08.16,1.52,1.52,0,0,1,.69.54,2.5,2.5,0,0,1,.37,1,8.27,8.27,0,0,1,.11,1.44v3.8l1,.15v.89H56.9v-.89l.72-.15V24.87a5.57,5.57,0,0,0-.06-.89,1.7,1.7,0,0,0-.19-.6.76.76,0,0,0-.37-.32,1.43,1.43,0,0,0-.58-.11A1.81,1.81,0,0,0,56,23a3.17,3.17,0,0,0-.41.12l-.4.16-.33.18a3.91,3.91,0,0,1,.07.62c0,.23,0,.48,0,.74v3.79l.9.15v.89H52.08v-.89l.82-.15V24.79a4.79,4.79,0,0,0-.06-.81,1.47,1.47,0,0,0-.19-.57.8.8,0,0,0-.36-.32,1.36,1.36,0,0,0-.58-.11,2.09,2.09,0,0,0-.42.05,3.17,3.17,0,0,0-.44.12,3.52,3.52,0,0,0-.39.16,2,2,0,0,0-.3.19v5.11l.92.15v.89Z"/><path class="cls-1" d="M61.37,32.17l1-.17V23.34l-.93-.28V22l2.45-.33h0l.35.29v.73a3,3,0,0,1,.4-.39,3.06,3.06,0,0,1,.52-.33,2.93,2.93,0,0,1,.63-.23,2.89,2.89,0,0,1,.74-.09,3.29,3.29,0,0,1,1.18.21,2.53,2.53,0,0,1,1,.67,3.43,3.43,0,0,1,.65,1.2,6,6,0,0,1,.23,1.76,4.87,4.87,0,0,1-.28,1.69,4.13,4.13,0,0,1-.79,1.37,3.78,3.78,0,0,1-1.27.91,4.1,4.1,0,0,1-1.68.33h-.34l-.32,0-.28,0-.19,0,0,1.13V32l1.35.17V33H61.37Zm4.35-9.26a1.7,1.7,0,0,0-.73.15,1.61,1.61,0,0,0-.49.33v5.18a.9.9,0,0,0,.37.22,1.74,1.74,0,0,0,.63.1,1.53,1.53,0,0,0,.7-.16,1.39,1.39,0,0,0,.58-.53,3.15,3.15,0,0,0,.4-1,6.66,6.66,0,0,0,.16-1.47,5.71,5.71,0,0,0-.1-1.32,2.66,2.66,0,0,0-.32-.88,1.28,1.28,0,0,0-.52-.49A1.39,1.39,0,0,0,65.72,22.91Z"/><path class="cls-1" d="M70.49,29.65v-.91l1-.14V19.47l-1-.17v-.8l2.67-.33h0l.43.32V28.6l1,.14v.91Z"/><path class="cls-1" d="M79.08,29.81a4.12,4.12,0,0,1-1.65-.3,2.88,2.88,0,0,1-1.14-.84,3.39,3.39,0,0,1-.66-1.28,5.64,5.64,0,0,1-.22-1.63,5,5,0,0,1,.27-1.71,3.65,3.65,0,0,1,.77-1.28A3,3,0,0,1,77.63,22a4,4,0,0,1,1.53-.29,2.61,2.61,0,0,1,3,2.77c0,.32,0,.6,0,.85a3.36,3.36,0,0,1-.08.64H77.58a4.17,4.17,0,0,0,.2,1.16,2.23,2.23,0,0,0,.43.78,1.71,1.71,0,0,0,.63.44,2.33,2.33,0,0,0,.81.13,4.26,4.26,0,0,0,.64-.05,3.81,3.81,0,0,0,.56-.14,4.21,4.21,0,0,0,.47-.18l.36-.2.35.83a3,3,0,0,1-.47.37,5.08,5.08,0,0,1-.7.36,5.29,5.29,0,0,1-.85.27A4.08,4.08,0,0,1,79.08,29.81Zm-.18-7.22a1.21,1.21,0,0,0-.5.1.9.9,0,0,0-.4.36,2.37,2.37,0,0,0-.29.74A7.23,7.23,0,0,0,77.57,25H80v-.1s0-.08,0-.13v-.22a4.12,4.12,0,0,0-.05-.7,2.3,2.3,0,0,0-.17-.64,1.15,1.15,0,0,0-.35-.46A.88.88,0,0,0,78.9,22.59Z"/><path class="cls-1" d="M87.79,29.21V27.29h1.26l.36,1.07a.76.76,0,0,0,.18.18,1.79,1.79,0,0,0,.31.16,2.66,2.66,0,0,0,.39.11,2.25,2.25,0,0,0,.46,0,1.45,1.45,0,0,0,.55-.08.86.86,0,0,0,.35-.21.68.68,0,0,0,.18-.29,1.12,1.12,0,0,0,0-.31.81.81,0,0,0-.15-.49,1.42,1.42,0,0,0-.42-.38,4.34,4.34,0,0,0-.65-.34l-.85-.36A5.62,5.62,0,0,1,89,26a2.78,2.78,0,0,1-.64-.53,2.08,2.08,0,0,1-.4-.65,2.1,2.1,0,0,1-.15-.82,1.91,1.91,0,0,1,.21-.89,1.94,1.94,0,0,1,.59-.72,3.26,3.26,0,0,1,1-.48,4.64,4.64,0,0,1,1.36-.17,4.82,4.82,0,0,1,.8.05c.24,0,.45.08.64.13a3.69,3.69,0,0,1,.53.15l.46.12V24l-1.19,0-.32-.91a1,1,0,0,0-.36-.3,1.37,1.37,0,0,0-.68-.15,1.83,1.83,0,0,0-.51.06,1,1,0,0,0-.34.19.83.83,0,0,0-.18.25.75.75,0,0,0-.06.29.9.9,0,0,0,.19.58,1.59,1.59,0,0,0,.46.39,5,5,0,0,0,.62.28c.22.08.44.16.64.25s.58.27.86.42a3.49,3.49,0,0,1,.72.52,2.13,2.13,0,0,1,.51.68,2,2,0,0,1,.19.92,2.17,2.17,0,0,1-.2.92,2.05,2.05,0,0,1-.58.74,3,3,0,0,1-1,.49,4.71,4.71,0,0,1-1.38.18,6,6,0,0,1-1-.08,7.15,7.15,0,0,1-.81-.17c-.25-.07-.47-.13-.66-.2Z"/><path class="cls-1" d="M94.87,25.83a4.83,4.83,0,0,1,.28-1.69,3.54,3.54,0,0,1,.79-1.31A3.41,3.41,0,0,1,97.18,22a4.23,4.23,0,0,1,1.63-.3,7.3,7.3,0,0,1,.84,0,5.59,5.59,0,0,1,.68.12,3.81,3.81,0,0,1,.52.14l.36.11-.07,2.33H99.93l-.39-1.2a1.4,1.4,0,0,0-.37-.45.86.86,0,0,0-.53-.17,1.24,1.24,0,0,0-.59.16,1.4,1.4,0,0,0-.49.48,3,3,0,0,0-.35.86,5.77,5.77,0,0,0-.13,1.27,6.49,6.49,0,0,0,.14,1.44,2.69,2.69,0,0,0,.39,1,1.54,1.54,0,0,0,.62.52,2,2,0,0,0,.83.16,3.06,3.06,0,0,0,1.1-.17,4.26,4.26,0,0,0,.77-.37l.36.83a2.23,2.23,0,0,1-.41.34,3.73,3.73,0,0,1-.63.36,4.31,4.31,0,0,1-.79.27,3.84,3.84,0,0,1-.91.11,4.21,4.21,0,0,1-1.66-.3,3,3,0,0,1-1.14-.84,3.46,3.46,0,0,1-.67-1.26A5.64,5.64,0,0,1,94.87,25.83Z"/><path class="cls-1" d="M102.27,29.65v-.91l1-.13V23.34l-.93-.28V22l2.34-.33h0l.36.29v1.64h0a2.38,2.38,0,0,1,.3-.55,3.52,3.52,0,0,1,.53-.65,3.6,3.6,0,0,1,.73-.53,1.87,1.87,0,0,1,.9-.22,1.38,1.38,0,0,1,.32,0l.19,0v2.36a1.49,1.49,0,0,0-.39-.11,3.33,3.33,0,0,0-.76-.07,3.59,3.59,0,0,0-.47,0L106,24a1.62,1.62,0,0,0-.37.11,1.29,1.29,0,0,0-.26.12V28.6l1.7.16v.89Z"/><path class="cls-1" d="M112.51,29.81a4.12,4.12,0,0,1-1.65-.3,3,3,0,0,1-1.15-.84,3.7,3.7,0,0,1-.66-1.28,6,6,0,0,1-.21-1.63,5,5,0,0,1,.27-1.71,3.78,3.78,0,0,1,.76-1.28,3.15,3.15,0,0,1,1.19-.81,4,4,0,0,1,1.53-.29,2.61,2.61,0,0,1,3,2.77,7.79,7.79,0,0,1,0,.85,3.46,3.46,0,0,1-.07.64H111a4.17,4.17,0,0,0,.2,1.16,2.23,2.23,0,0,0,.43.78,1.71,1.71,0,0,0,.63.44,2.28,2.28,0,0,0,.8.13,4.29,4.29,0,0,0,.65-.05,4.16,4.16,0,0,0,.56-.14,3.4,3.4,0,0,0,.46-.18l.36-.2.36.83a3.1,3.1,0,0,1-.48.37,4.44,4.44,0,0,1-.69.36,5.62,5.62,0,0,1-.85.27A4.08,4.08,0,0,1,112.51,29.81Zm-.18-7.22a1.21,1.21,0,0,0-.5.1.85.85,0,0,0-.4.36,2.37,2.37,0,0,0-.29.74A7.23,7.23,0,0,0,111,25h2.46v-.1a.62.62,0,0,1,0-.13v-.22a5.49,5.49,0,0,0,0-.7,2.3,2.3,0,0,0-.17-.64,1.25,1.25,0,0,0-.35-.46A.88.88,0,0,0,112.33,22.59Z"/><path class="cls-1" d="M120.21,29.81a4.17,4.17,0,0,1-1.66-.3,3,3,0,0,1-1.14-.84,3.39,3.39,0,0,1-.66-1.28,6,6,0,0,1-.21-1.63,5,5,0,0,1,.27-1.71,3.63,3.63,0,0,1,.76-1.28,3.12,3.12,0,0,1,1.18-.81,4,4,0,0,1,1.54-.29,2.61,2.61,0,0,1,3,2.77c0,.32,0,.6,0,.85a3.46,3.46,0,0,1-.07.64h-4.46a4.19,4.19,0,0,0,.19,1.16,2.4,2.4,0,0,0,.43.78,1.67,1.67,0,0,0,.64.44,2.28,2.28,0,0,0,.8.13,4.4,4.4,0,0,0,.65-.05,4.16,4.16,0,0,0,.56-.14,4,4,0,0,0,.46-.18l.36-.2.36.83a3.68,3.68,0,0,1-.48.37,4.15,4.15,0,0,1-.7.36,5.16,5.16,0,0,1-.84.27A4.22,4.22,0,0,1,120.21,29.81ZM120,22.59a1.18,1.18,0,0,0-.5.1.85.85,0,0,0-.4.36,2.15,2.15,0,0,0-.29.74A6.33,6.33,0,0,0,118.7,25h2.45a.38.38,0,0,1,0-.1v-.13a.57.57,0,0,0,0-.13v-.09a5.49,5.49,0,0,0,0-.7,2.3,2.3,0,0,0-.17-.64,1.37,1.37,0,0,0-.35-.46A.88.88,0,0,0,120,22.59Z"/><path class="cls-1" d="M124.41,29.65v-.91l.88-.14V23.34l-.93-.28V22l2.45-.33h0l.36.29v.82a3.46,3.46,0,0,1,.54-.41,4.12,4.12,0,0,1,.66-.35,4.5,4.5,0,0,1,.76-.24,3.57,3.57,0,0,1,.8-.09,3.08,3.08,0,0,1,1.09.17,1.49,1.49,0,0,1,.71.55,2.47,2.47,0,0,1,.36,1,7.42,7.42,0,0,1,.11,1.43v3.79l1,.13v.91h-3.85v-.91l.74-.13V24.79a4.88,4.88,0,0,0,0-.81,1.67,1.67,0,0,0-.17-.57.83.83,0,0,0-.35-.32A1.35,1.35,0,0,0,129,23a2.31,2.31,0,0,0-.46.05,3.09,3.09,0,0,0-.43.14,2,2,0,0,0-.36.18,1.82,1.82,0,0,0-.29.19V28.6l.91.14v.91Z"/><path class="cls-1" d="M134,29.65v-.91l1-.13V23.34l-.92-.29V22l2.51-.33h0l.5.29V28.6l1,.14v.91Zm1.82-9.12a.93.93,0,0,1-.42-.09.82.82,0,0,1-.32-.23,1.08,1.08,0,0,1-.19-.35,1.49,1.49,0,0,1-.06-.43,1.63,1.63,0,0,1,.07-.5,1,1,0,0,1,.22-.41.93.93,0,0,1,.37-.28,1.21,1.21,0,0,1,.52-.11h0a1.07,1.07,0,0,1,.49.1,1,1,0,0,1,.33.24,1,1,0,0,1,.21.35,1.52,1.52,0,0,1,.06.42,1.7,1.7,0,0,1-.07.51,1.18,1.18,0,0,1-.23.41,1,1,0,0,1-.4.27,1.42,1.42,0,0,1-.57.1Z"/><path class="cls-1" d="M139.12,29.65v-.91l.88-.14V23.34l-.93-.28V22l2.45-.33h0l.36.29v.82a3.46,3.46,0,0,1,.54-.41,4.59,4.59,0,0,1,.66-.35,4.5,4.5,0,0,1,.76-.24,3.57,3.57,0,0,1,.8-.09,3.18,3.18,0,0,1,1.1.17,1.52,1.52,0,0,1,.7.55,2.64,2.64,0,0,1,.37,1,8.32,8.32,0,0,1,.11,1.43v3.79l1,.13v.91h-3.85v-.91l.74-.13V24.79a4.88,4.88,0,0,0-.05-.81,1.67,1.67,0,0,0-.17-.57.78.78,0,0,0-.35-.32,1.35,1.35,0,0,0-.57-.11,2.4,2.4,0,0,0-.46.05,2.59,2.59,0,0,0-.42.14,3,3,0,0,0-.66.37V28.6l.91.14v.91Z"/><path class="cls-1" d="M152.21,27a6.56,6.56,0,0,1-1-.08.88.88,0,0,0-.19.27.8.8,0,0,0-.08.36.71.71,0,0,0,.09.38.58.58,0,0,0,.28.22,1.88,1.88,0,0,0,.49.11c.2,0,.44,0,.72,0h1.36a3.91,3.91,0,0,1,2.2.5,1.86,1.86,0,0,1,.72,1.64,2.28,2.28,0,0,1-.36,1.25,3.22,3.22,0,0,1-1,1,5,5,0,0,1-1.41.61,6.61,6.61,0,0,1-1.68.22h0a6.63,6.63,0,0,1-1.66-.18,3.4,3.4,0,0,1-1.12-.47,1.9,1.9,0,0,1-.65-.71,2,2,0,0,1-.21-.91,1.53,1.53,0,0,1,.12-.6,1.71,1.71,0,0,1,.3-.5,2.15,2.15,0,0,1,.45-.4,2.94,2.94,0,0,1,.53-.27,1.57,1.57,0,0,1-.61-.52,1.29,1.29,0,0,1-.21-.74,1.41,1.41,0,0,1,.27-.87,3.09,3.09,0,0,1,.7-.64,2.2,2.2,0,0,1-1-.88,2.72,2.72,0,0,1-.33-1.37,2.24,2.24,0,0,1,.28-1.12,2.63,2.63,0,0,1,.75-.85,3.76,3.76,0,0,1,1.12-.54,4.56,4.56,0,0,1,1.36-.19h0a4.11,4.11,0,0,1,2.54.65,1.56,1.56,0,0,1,.26-.23,2.24,2.24,0,0,1,.38-.22,3.67,3.67,0,0,1,.47-.16,2.35,2.35,0,0,1,.54-.06h.33v1.53h-1.35a3.09,3.09,0,0,1,.12.46,2.82,2.82,0,0,1,0,.52,2.53,2.53,0,0,1-.25,1.13,2.7,2.7,0,0,1-.73.89,3.41,3.41,0,0,1-1.12.59,4.55,4.55,0,0,1-1.42.21Zm-.35,2.76a5.27,5.27,0,0,1-.82-.06,1.76,1.76,0,0,0-.26.39,1.54,1.54,0,0,0-.12.67,2.19,2.19,0,0,0,.13.78,1.22,1.22,0,0,0,.36.52,1.42,1.42,0,0,0,.59.29,3.37,3.37,0,0,0,.82.09h0a3.59,3.59,0,0,0,.81-.09,2.53,2.53,0,0,0,.71-.3,1.54,1.54,0,0,0,.5-.48,1.23,1.23,0,0,0,.19-.69,1.56,1.56,0,0,0-.07-.52.67.67,0,0,0-.23-.34,1,1,0,0,0-.46-.2,3.73,3.73,0,0,0-.74-.06Zm.51-3.68h0a1.06,1.06,0,0,0,.58-.14,1,1,0,0,0,.36-.38,2,2,0,0,0,.18-.56,5.09,5.09,0,0,0,.05-.69,2.31,2.31,0,0,0-.29-1.31,1.11,1.11,0,0,0-1-.41h0a1.08,1.08,0,0,0-.94.41,2.2,2.2,0,0,0-.29,1.25,3.38,3.38,0,0,0,.07.74,1.59,1.59,0,0,0,.21.58,1,1,0,0,0,.4.38A1.27,1.27,0,0,0,152.37,26.06Z"/><path class="cls-1" d="M161.84,29.65v-.9l1.09-.18V23.06h-1.2v-.82l1.2-.35V21.5a3.17,3.17,0,0,1,.34-1.46,3.52,3.52,0,0,1,.86-1.11,3.83,3.83,0,0,1,1.18-.71,3.65,3.65,0,0,1,1.27-.24,2.36,2.36,0,0,1,.53,0,1.68,1.68,0,0,1,.27.07v2.05a.81.81,0,0,0-.24-.19,2.56,2.56,0,0,0-.37-.17l-.43-.11a1.88,1.88,0,0,0-.47-.05,1.18,1.18,0,0,0-.34,0,.5.5,0,0,0-.25.15.7.7,0,0,0-.17.28,1.51,1.51,0,0,0-.06.46v1.34h1.76v1.17h-1.76v5.55l1.52.14v.9Z"/><path class="cls-1" d="M167.57,25.78a4.8,4.8,0,0,1,.32-1.81,3.65,3.65,0,0,1,.86-1.28,3.29,3.29,0,0,1,1.23-.77,4.54,4.54,0,0,1,3,0,3.17,3.17,0,0,1,1.15.8,3.48,3.48,0,0,1,.7,1.27,5.45,5.45,0,0,1,.24,1.68,4.71,4.71,0,0,1-.32,1.85,3.59,3.59,0,0,1-.85,1.28,3.4,3.4,0,0,1-1.23.75,4.47,4.47,0,0,1-1.46.24,4,4,0,0,1-1.57-.28,3,3,0,0,1-1.15-.79,3.35,3.35,0,0,1-.71-1.27A5.47,5.47,0,0,1,167.57,25.78Zm3.79,3.09a1.14,1.14,0,0,0,1.1-.7,3.15,3.15,0,0,0,.27-.92,11.93,11.93,0,0,0,0-2.76,3.79,3.79,0,0,0-.25-1,1.4,1.4,0,0,0-.46-.63,1.08,1.08,0,0,0-.69-.22,1.23,1.23,0,0,0-.65.17,1.3,1.3,0,0,0-.47.53,3.08,3.08,0,0,0-.27.91,8.65,8.65,0,0,0-.09,1.34,11.74,11.74,0,0,0,.08,1.42,4.12,4.12,0,0,0,.27,1,1.48,1.48,0,0,0,.46.63A1.15,1.15,0,0,0,171.36,28.87Z"/><path class="cls-1" d="M176.15,29.65v-.91l1-.13V23.34l-.93-.28V22l2.34-.33h0l.36.29v1.64h0a3.52,3.52,0,0,1,.3-.55,4,4,0,0,1,.53-.65,3.67,3.67,0,0,1,.74-.53,1.82,1.82,0,0,1,.9-.22,1.38,1.38,0,0,1,.32,0l.19,0v2.36a1.48,1.48,0,0,0-.4-.11,3.3,3.3,0,0,0-.75-.07,3.87,3.87,0,0,0-.48,0l-.45.07a1.79,1.79,0,0,0-.37.11,1.17,1.17,0,0,0-.25.12V28.6l1.7.16v.89Z"/><path class="cls-2" d="M187.12,29.65v-.91l.84-.14V19.47l-1-.17v-.8l2.65-.33h0l.42.32v3.22L190,22.8a3.88,3.88,0,0,1,.46-.37,5.24,5.24,0,0,1,.63-.35,4.82,4.82,0,0,1,.76-.27,3.57,3.57,0,0,1,.87-.1,2.93,2.93,0,0,1,1.11.18,1.61,1.61,0,0,1,.69.57,2.58,2.58,0,0,1,.36,1,7,7,0,0,1,.11,1.38V28.6l1,.14v.91h-3.82v-.89l.75-.15V24.79a6.44,6.44,0,0,0,0-.81,1.66,1.66,0,0,0-.18-.57.88.88,0,0,0-.37-.32,1.51,1.51,0,0,0-.61-.11,2.28,2.28,0,0,0-.44.05,3,3,0,0,0-.43.12,3.52,3.52,0,0,0-.39.16,1.68,1.68,0,0,0-.31.19v5.1l.94.14v.91Z"/><path class="cls-2" d="M200.3,29.81a4.17,4.17,0,0,1-1.66-.3,3,3,0,0,1-1.14-.84,3.39,3.39,0,0,1-.66-1.28,6,6,0,0,1-.21-1.63,5,5,0,0,1,.27-1.71,3.63,3.63,0,0,1,.76-1.28,3.12,3.12,0,0,1,1.18-.81,4,4,0,0,1,1.54-.29,2.6,2.6,0,0,1,3,2.77c0,.32,0,.6,0,.85a3.46,3.46,0,0,1-.07.64H198.8a4.19,4.19,0,0,0,.19,1.16,2.4,2.4,0,0,0,.43.78,1.67,1.67,0,0,0,.64.44,2.28,2.28,0,0,0,.8.13,4.4,4.4,0,0,0,.65-.05,4.16,4.16,0,0,0,.56-.14,4,4,0,0,0,.46-.18l.36-.2.36.83a3.68,3.68,0,0,1-.48.37,4.15,4.15,0,0,1-.7.36,5.16,5.16,0,0,1-.84.27A4.22,4.22,0,0,1,200.3,29.81Zm-.18-7.22a1.18,1.18,0,0,0-.5.1.85.85,0,0,0-.4.36,2.15,2.15,0,0,0-.29.74,6.33,6.33,0,0,0-.14,1.23h2.45a.38.38,0,0,1,0-.1v-.13a.57.57,0,0,0,0-.13v-.09a5.49,5.49,0,0,0,0-.7,2.3,2.3,0,0,0-.17-.64,1.37,1.37,0,0,0-.35-.46A.88.88,0,0,0,200.12,22.59Z"/><path class="cls-2" d="M204.27,27.57A2,2,0,0,1,205,26a2.66,2.66,0,0,1,.75-.5,5.39,5.39,0,0,1,.93-.34,6.84,6.84,0,0,1,1-.2c.36,0,.72-.06,1.08-.07v-.33a1.58,1.58,0,0,0-.32-1.11,1.4,1.4,0,0,0-1-.33,4.62,4.62,0,0,0-.74.06,5.4,5.4,0,0,0-.72.14c-.22.06-.44.12-.63.19l-.5.2h0l-.41-.91a4,4,0,0,1,.49-.31,5.88,5.88,0,0,1,.82-.36,7,7,0,0,1,1.06-.31,5.32,5.32,0,0,1,1.2-.13,4.34,4.34,0,0,1,1.28.16,2,2,0,0,1,.87.51,2,2,0,0,1,.48.86,4.5,4.5,0,0,1,.16,1.24v4.26h.84v.84l-.32.08-.42.08-.5.06a4.93,4.93,0,0,1-.55,0l-.42,0a.58.58,0,0,1-.28-.1.41.41,0,0,1-.15-.21,1.3,1.3,0,0,1,0-.38v-.4a3.19,3.19,0,0,1-.32.35,2.47,2.47,0,0,1-.5.36,2.77,2.77,0,0,1-1.47.4,3,3,0,0,1-.91-.13,2.12,2.12,0,0,1-.74-.4,2,2,0,0,1-.5-.7A2.4,2.4,0,0,1,204.27,27.57Zm3.25.92.28,0,.33-.1a2.41,2.41,0,0,0,.33-.15,1.21,1.21,0,0,0,.29-.19V25.76a4.38,4.38,0,0,0-1.11.12,2,2,0,0,0-.72.33,1.22,1.22,0,0,0-.38.47,1.56,1.56,0,0,0-.11.57,1.33,1.33,0,0,0,.28.92A1,1,0,0,0,207.52,28.49Z"/><path class="cls-2" d="M212.43,29.65v-.91l1-.13V23.34l-.93-.28V22l2.34-.33h0l.36.29v1.64h0a4,4,0,0,1,.83-1.2,3.67,3.67,0,0,1,.74-.53,1.81,1.81,0,0,1,.89-.22,1.47,1.47,0,0,1,.33,0l.19,0v2.36a1.48,1.48,0,0,0-.4-.11,3.3,3.3,0,0,0-.75-.07,3.87,3.87,0,0,0-.48,0l-.45.07a1.79,1.79,0,0,0-.37.11,1.17,1.17,0,0,0-.25.12V28.6l1.7.16v.89Z"/><path class="cls-2" d="M219.86,28V23h-1V22.2l.17-.06.25-.09.23-.09.13-.07a2.21,2.21,0,0,0,.49-.65l.15-.32c.05-.12.1-.25.16-.38s.1-.26.14-.39a3.79,3.79,0,0,0,.12-.36H222l0,2h2V23h-2v3.79c0,.36,0,.65,0,.87a1.36,1.36,0,0,0,.09.48.32.32,0,0,0,.2.21,1.18,1.18,0,0,0,.37.05h0l.35,0c.12,0,.23,0,.35-.06l.32-.08.24-.08h0l.32.8a3.12,3.12,0,0,1-.5.31,5,5,0,0,1-.66.29,5.47,5.47,0,0,1-.75.2,4.45,4.45,0,0,1-.81.08h0a2.18,2.18,0,0,1-.77-.12,1.15,1.15,0,0,1-.51-.34,1.4,1.4,0,0,1-.29-.57A3,3,0,0,1,219.86,28Z"/><path class="cls-2" d="M229.22,29.65v-.91l.84-.14V19.47l-1-.17v-.8l2.66-.33h0l.42.32,0,3.22-.11,1.09a3.21,3.21,0,0,1,.46-.37,5.07,5.07,0,0,1,.62-.35,5.67,5.67,0,0,1,.76-.27,3.6,3.6,0,0,1,.88-.1,2.91,2.91,0,0,1,1.1.18,1.58,1.58,0,0,1,.7.57,2.58,2.58,0,0,1,.36,1,7.87,7.87,0,0,1,.11,1.38V28.6l1,.14v.91h-3.83v-.89l.76-.15V24.79a4.88,4.88,0,0,0-.05-.81,1.47,1.47,0,0,0-.18-.57.83.83,0,0,0-.37-.32,1.46,1.46,0,0,0-.6-.11,2.28,2.28,0,0,0-.44.05,3,3,0,0,0-.43.12l-.4.16a2,2,0,0,0-.3.19v5.1l.93.14v.91Z"/><path class="cls-2" d="M242.4,29.81a4.14,4.14,0,0,1-1.66-.3,3,3,0,0,1-1.14-.84,3.39,3.39,0,0,1-.66-1.28,5.64,5.64,0,0,1-.22-1.63,5,5,0,0,1,.27-1.71,3.65,3.65,0,0,1,.77-1.28,3,3,0,0,1,1.18-.81,4,4,0,0,1,1.53-.29,2.61,2.61,0,0,1,3,2.77c0,.32,0,.6,0,.85a4.61,4.61,0,0,1-.07.64h-4.47a4.17,4.17,0,0,0,.2,1.16,2.23,2.23,0,0,0,.43.78,1.71,1.71,0,0,0,.63.44,2.33,2.33,0,0,0,.81.13,4.4,4.4,0,0,0,.65-.05,4,4,0,0,0,.55-.14,4.21,4.21,0,0,0,.47-.18l.36-.2.35.83a3,3,0,0,1-.47.37,5.08,5.08,0,0,1-.7.36,5.29,5.29,0,0,1-.85.27A4.06,4.06,0,0,1,242.4,29.81Zm-.19-7.22a1.21,1.21,0,0,0-.5.1.9.9,0,0,0-.4.36,2.39,2.39,0,0,0-.28.74,6.24,6.24,0,0,0-.15,1.23h2.46v-.1s0-.08,0-.13v-.22a4.12,4.12,0,0,0,0-.7,2.3,2.3,0,0,0-.17-.64,1.15,1.15,0,0,0-.35-.46A.88.88,0,0,0,242.21,22.59Z"/><path class="cls-2" d="M246.37,27.57a2,2,0,0,1,.68-1.57,2.66,2.66,0,0,1,.75-.5,4.85,4.85,0,0,1,.93-.34,6.71,6.71,0,0,1,1-.2c.36,0,.72-.06,1.08-.07v-.33a1.58,1.58,0,0,0-.31-1.11,1.42,1.42,0,0,0-1.05-.33,4.71,4.71,0,0,0-.74.06,5.25,5.25,0,0,0-.71.14c-.23.06-.44.12-.63.19s-.36.14-.5.2h0l-.4-.91a4,4,0,0,1,.49-.31,5.4,5.4,0,0,1,.82-.36,7,7,0,0,1,1.06-.31,5.17,5.17,0,0,1,1.19-.13,4.36,4.36,0,0,1,1.29.16,2,2,0,0,1,.86.51,2.13,2.13,0,0,1,.49.86,4.53,4.53,0,0,1,.15,1.24v4.26h.85v.84l-.32.08-.43.08-.5.06a4.75,4.75,0,0,1-.54,0l-.42,0a.55.55,0,0,1-.28-.1.49.49,0,0,1-.16-.21,1.34,1.34,0,0,1,0-.38v-.4a2.56,2.56,0,0,1-.33.35,2.39,2.39,0,0,1-.49.36,3.29,3.29,0,0,1-.66.29,3,3,0,0,1-.81.11,2.94,2.94,0,0,1-.91-.13,2.16,2.16,0,0,1-.75-.4,2,2,0,0,1-.5-.7A2.57,2.57,0,0,1,246.37,27.57Zm3.24.92.28,0,.33-.1a2.07,2.07,0,0,0,.34-.15,1.15,1.15,0,0,0,.28-.19V25.76a4.38,4.38,0,0,0-1.11.12,2,2,0,0,0-.71.33,1.06,1.06,0,0,0-.38.47,1.63,1.63,0,0,0,.16,1.49A1,1,0,0,0,249.61,28.49Z"/><path class="cls-2" d="M254.31,29.65v-.91l1-.14V19.47l-1-.17v-.8l2.68-.33h0l.43.32V28.6l1,.14v.91Z"/><path class="cls-2" d="M260.11,28V23h-1V22.2l.18-.06.24-.09.23-.09.13-.07a2.05,2.05,0,0,0,.49-.65l.15-.32c.05-.12.11-.25.16-.38l.15-.39c0-.13.08-.25.11-.36h1.22l0,2h2V23h-2v3.79c0,.36,0,.65,0,.87a1.69,1.69,0,0,0,.08.48.32.32,0,0,0,.2.21,1.25,1.25,0,0,0,.38.05h0l.35,0c.12,0,.24,0,.35-.06l.32-.08.25-.08h0l.33.8a3.8,3.8,0,0,1-.51.31,4.37,4.37,0,0,1-.65.29,6,6,0,0,1-.76.2,4.43,4.43,0,0,1-.8.08h0a2.18,2.18,0,0,1-.77-.12,1.15,1.15,0,0,1-.51-.34,1.39,1.39,0,0,1-.28-.57A3,3,0,0,1,260.11,28Z"/><path class="cls-2" d="M265.06,29.65v-.91l.84-.14V19.47l-1-.17v-.8l2.66-.33h0l.42.32v3.22l-.11,1.09a4.06,4.06,0,0,1,.47-.37,5.07,5.07,0,0,1,.62-.35,5.21,5.21,0,0,1,.76-.27,3.57,3.57,0,0,1,.87-.1,2.93,2.93,0,0,1,1.11.18,1.7,1.7,0,0,1,.7.57,2.58,2.58,0,0,1,.36,1,8,8,0,0,1,.1,1.38V28.6l1,.14v.91H270v-.89l.76-.15V24.79a6.27,6.27,0,0,0,0-.81,1.47,1.47,0,0,0-.18-.57.83.83,0,0,0-.37-.32,1.5,1.5,0,0,0-.6-.11,2.2,2.2,0,0,0-.44.05,3.17,3.17,0,0,0-.44.12,3.52,3.52,0,0,0-.39.16,2.1,2.1,0,0,0-.31.19v5.1l.94.14v.91Z"/><path class="cls-2" d="M276.43,29.77a1.44,1.44,0,0,1-.46-.08,1.11,1.11,0,0,1-.38-.22,1,1,0,0,1-.26-.34,1.11,1.11,0,0,1-.09-.46,1.25,1.25,0,0,1,.1-.51,1.27,1.27,0,0,1,.31-.41,1.18,1.18,0,0,1,.44-.28,1.4,1.4,0,0,1,.54-.1,1.62,1.62,0,0,1,.57.09,1.12,1.12,0,0,1,.38.24.89.89,0,0,1,.21.35,1.42,1.42,0,0,1,.06.42,1.29,1.29,0,0,1-.1.53,1.12,1.12,0,0,1-.3.41,1.26,1.26,0,0,1-.45.27A1.7,1.7,0,0,1,276.43,29.77Z"/><path class="cls-1" d="M19.57,29.65v-.93l.89-.2,3.29-9.31h2.2l3.28,9.31,1,.2v.93H25.74v-.93l1.11-.2-.51-1.66H22.63l-.49,1.67,1.13.19v.93Zm4.64-8.27-1.28,4.41H26l-1.35-4.41-.24-1Z"/><path class="cls-1" d="M34.92,29.21V27.29h1.26l.36,1.07a.66.66,0,0,0,.19.18,1.39,1.39,0,0,0,.3.16,2.66,2.66,0,0,0,.39.11,2.32,2.32,0,0,0,.46,0,1.42,1.42,0,0,0,.55-.08.86.86,0,0,0,.35-.21.59.59,0,0,0,.18-.29A1.12,1.12,0,0,0,39,28a.81.81,0,0,0-.15-.49,1.42,1.42,0,0,0-.42-.38,4.34,4.34,0,0,0-.65-.34l-.85-.36a5.62,5.62,0,0,1-.85-.43,2.78,2.78,0,0,1-.64-.53,2.08,2.08,0,0,1-.4-.65A2.1,2.1,0,0,1,34.9,24a1.91,1.91,0,0,1,.21-.89,1.94,1.94,0,0,1,.59-.72,3.26,3.26,0,0,1,1-.48,4.64,4.64,0,0,1,1.36-.17,4.82,4.82,0,0,1,.8.05c.24,0,.45.08.64.13A3.69,3.69,0,0,1,40,22l.46.12V24l-1.19,0L39,23.1a1,1,0,0,0-.36-.3,1.37,1.37,0,0,0-.68-.15,1.88,1.88,0,0,0-.51.06,1,1,0,0,0-.34.19.83.83,0,0,0-.18.25.74.74,0,0,0,0,.29A.89.89,0,0,0,37,24a1.51,1.51,0,0,0,.47.39,4.31,4.31,0,0,0,.61.28c.22.08.44.16.64.25s.58.27.86.42a3.49,3.49,0,0,1,.72.52,2.05,2.05,0,0,1,.7,1.6,2.17,2.17,0,0,1-.2.92,2.05,2.05,0,0,1-.58.74,3,3,0,0,1-1,.49,4.71,4.71,0,0,1-1.38.18,6,6,0,0,1-1-.08,7.15,7.15,0,0,1-.81-.17l-.66-.2Z"/><path class="cls-1" d="M42.07,29.65v-.91l1-.13V23.34l-.93-.29V22l2.51-.33h0l.5.29V28.6l1,.14v.91Zm1.82-9.12a1,1,0,0,1-.43-.09.82.82,0,0,1-.32-.23,1.31,1.31,0,0,1-.19-.35,1.49,1.49,0,0,1-.06-.43,1.63,1.63,0,0,1,.07-.5,1.16,1.16,0,0,1,.22-.41,1,1,0,0,1,.37-.28,1.24,1.24,0,0,1,.52-.11h0a1,1,0,0,1,.48.1,1,1,0,0,1,.34.24.94.94,0,0,1,.2.35,1.54,1.54,0,0,1,.07.42,1.7,1.7,0,0,1-.08.51,1.18,1.18,0,0,1-.23.41.89.89,0,0,1-.4.27,1.42,1.42,0,0,1-.57.1Z"/><path class="cls-1" d="M47.21,29.65v-.89l.85-.15V23.34l-.93-.28V22l2.42-.33h0L50,22v.82a2.8,2.8,0,0,1,.56-.41,4.26,4.26,0,0,1,.71-.35A5.28,5.28,0,0,1,52,21.8a3.49,3.49,0,0,1,.76-.09A2.62,2.62,0,0,1,54,22a1.61,1.61,0,0,1,.7.81,3.84,3.84,0,0,1,.5-.36,4.43,4.43,0,0,1,.69-.34,6.09,6.09,0,0,1,.79-.26,3.25,3.25,0,0,1,.8-.1,3.08,3.08,0,0,1,1.08.16,1.52,1.52,0,0,1,.69.54,2.5,2.5,0,0,1,.37,1,8.27,8.27,0,0,1,.11,1.44v3.8l1,.15v.89H56.9v-.89l.72-.15V24.87a5.57,5.57,0,0,0-.06-.89,1.7,1.7,0,0,0-.19-.6.76.76,0,0,0-.37-.32,1.43,1.43,0,0,0-.58-.11A1.81,1.81,0,0,0,56,23a3.17,3.17,0,0,0-.41.12l-.4.16-.33.18a3.91,3.91,0,0,1,.07.62c0,.23,0,.48,0,.74v3.79l.9.15v.89H52.08v-.89l.82-.15V24.79a4.79,4.79,0,0,0-.06-.81,1.47,1.47,0,0,0-.19-.57.8.8,0,0,0-.36-.32,1.36,1.36,0,0,0-.58-.11,2.09,2.09,0,0,0-.42.05,3.17,3.17,0,0,0-.44.12,3.52,3.52,0,0,0-.39.16,2,2,0,0,0-.3.19v5.11l.92.15v.89Z"/><path class="cls-1" d="M61.37,32.17l1-.17V23.34l-.93-.28V22l2.45-.33h0l.35.29v.73a3,3,0,0,1,.4-.39,3.06,3.06,0,0,1,.52-.33,2.93,2.93,0,0,1,.63-.23,2.89,2.89,0,0,1,.74-.09,3.29,3.29,0,0,1,1.18.21,2.53,2.53,0,0,1,1,.67,3.43,3.43,0,0,1,.65,1.2,6,6,0,0,1,.23,1.76,4.87,4.87,0,0,1-.28,1.69,4.13,4.13,0,0,1-.79,1.37,3.78,3.78,0,0,1-1.27.91,4.1,4.1,0,0,1-1.68.33h-.34l-.32,0-.28,0-.19,0,0,1.13V32l1.35.17V33H61.37Zm4.35-9.26a1.7,1.7,0,0,0-.73.15,1.61,1.61,0,0,0-.49.33v5.18a.9.9,0,0,0,.37.22,1.74,1.74,0,0,0,.63.1,1.53,1.53,0,0,0,.7-.16,1.39,1.39,0,0,0,.58-.53,3.15,3.15,0,0,0,.4-1,6.66,6.66,0,0,0,.16-1.47,5.71,5.71,0,0,0-.1-1.32,2.66,2.66,0,0,0-.32-.88,1.28,1.28,0,0,0-.52-.49A1.39,1.39,0,0,0,65.72,22.91Z"/><path class="cls-1" d="M70.49,29.65v-.91l1-.14V19.47l-1-.17v-.8l2.67-.33h0l.43.32V28.6l1,.14v.91Z"/><path class="cls-1" d="M79.08,29.81a4.12,4.12,0,0,1-1.65-.3,2.88,2.88,0,0,1-1.14-.84,3.39,3.39,0,0,1-.66-1.28,5.64,5.64,0,0,1-.22-1.63,5,5,0,0,1,.27-1.71,3.65,3.65,0,0,1,.77-1.28A3,3,0,0,1,77.63,22a4,4,0,0,1,1.53-.29,2.61,2.61,0,0,1,3,2.77c0,.32,0,.6,0,.85a3.36,3.36,0,0,1-.08.64H77.58a4.17,4.17,0,0,0,.2,1.16,2.23,2.23,0,0,0,.43.78,1.71,1.71,0,0,0,.63.44,2.33,2.33,0,0,0,.81.13,4.26,4.26,0,0,0,.64-.05,3.81,3.81,0,0,0,.56-.14,4.21,4.21,0,0,0,.47-.18l.36-.2.35.83a3,3,0,0,1-.47.37,5.08,5.08,0,0,1-.7.36,5.29,5.29,0,0,1-.85.27A4.08,4.08,0,0,1,79.08,29.81Zm-.18-7.22a1.21,1.21,0,0,0-.5.1.9.9,0,0,0-.4.36,2.37,2.37,0,0,0-.29.74A7.23,7.23,0,0,0,77.57,25H80v-.1s0-.08,0-.13v-.22a4.12,4.12,0,0,0-.05-.7,2.3,2.3,0,0,0-.17-.64,1.15,1.15,0,0,0-.35-.46A.88.88,0,0,0,78.9,22.59Z"/><path class="cls-1" d="M87.79,29.21V27.29h1.26l.36,1.07a.76.76,0,0,0,.18.18,1.79,1.79,0,0,0,.31.16,2.66,2.66,0,0,0,.39.11,2.25,2.25,0,0,0,.46,0,1.45,1.45,0,0,0,.55-.08.86.86,0,0,0,.35-.21.68.68,0,0,0,.18-.29,1.12,1.12,0,0,0,0-.31.81.81,0,0,0-.15-.49,1.42,1.42,0,0,0-.42-.38,4.34,4.34,0,0,0-.65-.34l-.85-.36A5.62,5.62,0,0,1,89,26a2.78,2.78,0,0,1-.64-.53,2.08,2.08,0,0,1-.4-.65,2.1,2.1,0,0,1-.15-.82,1.91,1.91,0,0,1,.21-.89,1.94,1.94,0,0,1,.59-.72,3.26,3.26,0,0,1,1-.48,4.64,4.64,0,0,1,1.36-.17,4.82,4.82,0,0,1,.8.05c.24,0,.45.08.64.13a3.69,3.69,0,0,1,.53.15l.46.12V24l-1.19,0-.32-.91a1,1,0,0,0-.36-.3,1.37,1.37,0,0,0-.68-.15,1.83,1.83,0,0,0-.51.06,1,1,0,0,0-.34.19.83.83,0,0,0-.18.25.75.75,0,0,0-.06.29.9.9,0,0,0,.19.58,1.59,1.59,0,0,0,.46.39,5,5,0,0,0,.62.28c.22.08.44.16.64.25s.58.27.86.42a3.49,3.49,0,0,1,.72.52,2.13,2.13,0,0,1,.51.68,2,2,0,0,1,.19.92,2.17,2.17,0,0,1-.2.92,2.05,2.05,0,0,1-.58.74,3,3,0,0,1-1,.49,4.71,4.71,0,0,1-1.38.18,6,6,0,0,1-1-.08,7.15,7.15,0,0,1-.81-.17c-.25-.07-.47-.13-.66-.2Z"/><path class="cls-1" d="M94.87,25.83a4.83,4.83,0,0,1,.28-1.69,3.54,3.54,0,0,1,.79-1.31A3.41,3.41,0,0,1,97.18,22a4.23,4.23,0,0,1,1.63-.3,7.3,7.3,0,0,1,.84,0,5.59,5.59,0,0,1,.68.12,3.81,3.81,0,0,1,.52.14l.36.11-.07,2.33H99.93l-.39-1.2a1.4,1.4,0,0,0-.37-.45.86.86,0,0,0-.53-.17,1.24,1.24,0,0,0-.59.16,1.4,1.4,0,0,0-.49.48,3,3,0,0,0-.35.86,5.77,5.77,0,0,0-.13,1.27,6.49,6.49,0,0,0,.14,1.44,2.69,2.69,0,0,0,.39,1,1.54,1.54,0,0,0,.62.52,2,2,0,0,0,.83.16,3.06,3.06,0,0,0,1.1-.17,4.26,4.26,0,0,0,.77-.37l.36.83a2.23,2.23,0,0,1-.41.34,3.73,3.73,0,0,1-.63.36,4.31,4.31,0,0,1-.79.27,3.84,3.84,0,0,1-.91.11,4.21,4.21,0,0,1-1.66-.3,3,3,0,0,1-1.14-.84,3.46,3.46,0,0,1-.67-1.26A5.64,5.64,0,0,1,94.87,25.83Z"/><path class="cls-1" d="M102.27,29.65v-.91l1-.13V23.34l-.93-.28V22l2.34-.33h0l.36.29v1.64h0a2.38,2.38,0,0,1,.3-.55,3.52,3.52,0,0,1,.53-.65,3.6,3.6,0,0,1,.73-.53,1.87,1.87,0,0,1,.9-.22,1.38,1.38,0,0,1,.32,0l.19,0v2.36a1.49,1.49,0,0,0-.39-.11,3.33,3.33,0,0,0-.76-.07,3.59,3.59,0,0,0-.47,0L106,24a1.62,1.62,0,0,0-.37.11,1.29,1.29,0,0,0-.26.12V28.6l1.7.16v.89Z"/><path class="cls-1" d="M112.51,29.81a4.12,4.12,0,0,1-1.65-.3,3,3,0,0,1-1.15-.84,3.7,3.7,0,0,1-.66-1.28,6,6,0,0,1-.21-1.63,5,5,0,0,1,.27-1.71,3.78,3.78,0,0,1,.76-1.28,3.15,3.15,0,0,1,1.19-.81,4,4,0,0,1,1.53-.29,2.61,2.61,0,0,1,3,2.77,7.79,7.79,0,0,1,0,.85,3.46,3.46,0,0,1-.07.64H111a4.17,4.17,0,0,0,.2,1.16,2.23,2.23,0,0,0,.43.78,1.71,1.71,0,0,0,.63.44,2.28,2.28,0,0,0,.8.13,4.29,4.29,0,0,0,.65-.05,4.16,4.16,0,0,0,.56-.14,3.4,3.4,0,0,0,.46-.18l.36-.2.36.83a3.1,3.1,0,0,1-.48.37,4.44,4.44,0,0,1-.69.36,5.62,5.62,0,0,1-.85.27A4.08,4.08,0,0,1,112.51,29.81Zm-.18-7.22a1.21,1.21,0,0,0-.5.1.85.85,0,0,0-.4.36,2.37,2.37,0,0,0-.29.74A7.23,7.23,0,0,0,111,25h2.46v-.1a.62.62,0,0,1,0-.13v-.22a5.49,5.49,0,0,0,0-.7,2.3,2.3,0,0,0-.17-.64,1.25,1.25,0,0,0-.35-.46A.88.88,0,0,0,112.33,22.59Z"/><path class="cls-1" d="M120.21,29.81a4.17,4.17,0,0,1-1.66-.3,3,3,0,0,1-1.14-.84,3.39,3.39,0,0,1-.66-1.28,6,6,0,0,1-.21-1.63,5,5,0,0,1,.27-1.71,3.63,3.63,0,0,1,.76-1.28,3.12,3.12,0,0,1,1.18-.81,4,4,0,0,1,1.54-.29,2.61,2.61,0,0,1,3,2.77c0,.32,0,.6,0,.85a3.46,3.46,0,0,1-.07.64h-4.46a4.19,4.19,0,0,0,.19,1.16,2.4,2.4,0,0,0,.43.78,1.67,1.67,0,0,0,.64.44,2.28,2.28,0,0,0,.8.13,4.4,4.4,0,0,0,.65-.05,4.16,4.16,0,0,0,.56-.14,4,4,0,0,0,.46-.18l.36-.2.36.83a3.68,3.68,0,0,1-.48.37,4.15,4.15,0,0,1-.7.36,5.16,5.16,0,0,1-.84.27A4.22,4.22,0,0,1,120.21,29.81ZM120,22.59a1.18,1.18,0,0,0-.5.1.85.85,0,0,0-.4.36,2.15,2.15,0,0,0-.29.74A6.33,6.33,0,0,0,118.7,25h2.45a.38.38,0,0,1,0-.1v-.13a.57.57,0,0,0,0-.13v-.09a5.49,5.49,0,0,0,0-.7,2.3,2.3,0,0,0-.17-.64,1.37,1.37,0,0,0-.35-.46A.88.88,0,0,0,120,22.59Z"/><path class="cls-1" d="M124.41,29.65v-.91l.88-.14V23.34l-.93-.28V22l2.45-.33h0l.36.29v.82a3.46,3.46,0,0,1,.54-.41,4.12,4.12,0,0,1,.66-.35,4.5,4.5,0,0,1,.76-.24,3.57,3.57,0,0,1,.8-.09,3.08,3.08,0,0,1,1.09.17,1.49,1.49,0,0,1,.71.55,2.47,2.47,0,0,1,.36,1,7.42,7.42,0,0,1,.11,1.43v3.79l1,.13v.91h-3.85v-.91l.74-.13V24.79a4.88,4.88,0,0,0,0-.81,1.67,1.67,0,0,0-.17-.57.83.83,0,0,0-.35-.32A1.35,1.35,0,0,0,129,23a2.31,2.31,0,0,0-.46.05,3.09,3.09,0,0,0-.43.14,2,2,0,0,0-.36.18,1.82,1.82,0,0,0-.29.19V28.6l.91.14v.91Z"/><path class="cls-1" d="M134,29.65v-.91l1-.13V23.34l-.92-.29V22l2.51-.33h0l.5.29V28.6l1,.14v.91Zm1.82-9.12a.93.93,0,0,1-.42-.09.82.82,0,0,1-.32-.23,1.08,1.08,0,0,1-.19-.35,1.49,1.49,0,0,1-.06-.43,1.63,1.63,0,0,1,.07-.5,1,1,0,0,1,.22-.41.93.93,0,0,1,.37-.28,1.21,1.21,0,0,1,.52-.11h0a1.07,1.07,0,0,1,.49.1,1,1,0,0,1,.33.24,1,1,0,0,1,.21.35,1.52,1.52,0,0,1,.06.42,1.7,1.7,0,0,1-.07.51,1.18,1.18,0,0,1-.23.41,1,1,0,0,1-.4.27,1.42,1.42,0,0,1-.57.1Z"/><path class="cls-1" d="M139.12,29.65v-.91l.88-.14V23.34l-.93-.28V22l2.45-.33h0l.36.29v.82a3.46,3.46,0,0,1,.54-.41,4.59,4.59,0,0,1,.66-.35,4.5,4.5,0,0,1,.76-.24,3.57,3.57,0,0,1,.8-.09,3.18,3.18,0,0,1,1.1.17,1.52,1.52,0,0,1,.7.55,2.64,2.64,0,0,1,.37,1,8.32,8.32,0,0,1,.11,1.43v3.79l1,.13v.91h-3.85v-.91l.74-.13V24.79a4.88,4.88,0,0,0-.05-.81,1.67,1.67,0,0,0-.17-.57.78.78,0,0,0-.35-.32,1.35,1.35,0,0,0-.57-.11,2.4,2.4,0,0,0-.46.05,2.59,2.59,0,0,0-.42.14,3,3,0,0,0-.66.37V28.6l.91.14v.91Z"/><path class="cls-1" d="M152.21,27a6.56,6.56,0,0,1-1-.08.88.88,0,0,0-.19.27.8.8,0,0,0-.08.36.71.71,0,0,0,.09.38.58.58,0,0,0,.28.22,1.88,1.88,0,0,0,.49.11c.2,0,.44,0,.72,0h1.36a3.91,3.91,0,0,1,2.2.5,1.86,1.86,0,0,1,.72,1.64,2.28,2.28,0,0,1-.36,1.25,3.22,3.22,0,0,1-1,1,5,5,0,0,1-1.41.61,6.61,6.61,0,0,1-1.68.22h0a6.63,6.63,0,0,1-1.66-.18,3.4,3.4,0,0,1-1.12-.47,1.9,1.9,0,0,1-.65-.71,2,2,0,0,1-.21-.91,1.53,1.53,0,0,1,.12-.6,1.71,1.71,0,0,1,.3-.5,2.15,2.15,0,0,1,.45-.4,2.94,2.94,0,0,1,.53-.27,1.57,1.57,0,0,1-.61-.52,1.29,1.29,0,0,1-.21-.74,1.41,1.41,0,0,1,.27-.87,3.09,3.09,0,0,1,.7-.64,2.2,2.2,0,0,1-1-.88,2.72,2.72,0,0,1-.33-1.37,2.24,2.24,0,0,1,.28-1.12,2.63,2.63,0,0,1,.75-.85,3.76,3.76,0,0,1,1.12-.54,4.56,4.56,0,0,1,1.36-.19h0a4.11,4.11,0,0,1,2.54.65,1.56,1.56,0,0,1,.26-.23,2.24,2.24,0,0,1,.38-.22,3.67,3.67,0,0,1,.47-.16,2.35,2.35,0,0,1,.54-.06h.33v1.53h-1.35a3.09,3.09,0,0,1,.12.46,2.82,2.82,0,0,1,0,.52,2.53,2.53,0,0,1-.25,1.13,2.7,2.7,0,0,1-.73.89,3.41,3.41,0,0,1-1.12.59,4.55,4.55,0,0,1-1.42.21Zm-.35,2.76a5.27,5.27,0,0,1-.82-.06,1.76,1.76,0,0,0-.26.39,1.54,1.54,0,0,0-.12.67,2.19,2.19,0,0,0,.13.78,1.22,1.22,0,0,0,.36.52,1.42,1.42,0,0,0,.59.29,3.37,3.37,0,0,0,.82.09h0a3.59,3.59,0,0,0,.81-.09,2.53,2.53,0,0,0,.71-.3,1.54,1.54,0,0,0,.5-.48,1.23,1.23,0,0,0,.19-.69,1.56,1.56,0,0,0-.07-.52.67.67,0,0,0-.23-.34,1,1,0,0,0-.46-.2,3.73,3.73,0,0,0-.74-.06Zm.51-3.68h0a1.06,1.06,0,0,0,.58-.14,1,1,0,0,0,.36-.38,2,2,0,0,0,.18-.56,5.09,5.09,0,0,0,.05-.69,2.31,2.31,0,0,0-.29-1.31,1.11,1.11,0,0,0-1-.41h0a1.08,1.08,0,0,0-.94.41,2.2,2.2,0,0,0-.29,1.25,3.38,3.38,0,0,0,.07.74,1.59,1.59,0,0,0,.21.58,1,1,0,0,0,.4.38A1.27,1.27,0,0,0,152.37,26.06Z"/><path class="cls-1" d="M161.84,29.65v-.9l1.09-.18V23.06h-1.2v-.82l1.2-.35V21.5a3.17,3.17,0,0,1,.34-1.46,3.52,3.52,0,0,1,.86-1.11,3.83,3.83,0,0,1,1.18-.71,3.65,3.65,0,0,1,1.27-.24,2.36,2.36,0,0,1,.53,0,1.68,1.68,0,0,1,.27.07v2.05a.81.81,0,0,0-.24-.19,2.56,2.56,0,0,0-.37-.17l-.43-.11a1.88,1.88,0,0,0-.47-.05,1.18,1.18,0,0,0-.34,0,.5.5,0,0,0-.25.15.7.7,0,0,0-.17.28,1.51,1.51,0,0,0-.06.46v1.34h1.76v1.17h-1.76v5.55l1.52.14v.9Z"/><path class="cls-1" d="M167.57,25.78a4.8,4.8,0,0,1,.32-1.81,3.65,3.65,0,0,1,.86-1.28,3.29,3.29,0,0,1,1.23-.77,4.54,4.54,0,0,1,3,0,3.17,3.17,0,0,1,1.15.8,3.48,3.48,0,0,1,.7,1.27,5.45,5.45,0,0,1,.24,1.68,4.71,4.71,0,0,1-.32,1.85,3.59,3.59,0,0,1-.85,1.28,3.4,3.4,0,0,1-1.23.75,4.47,4.47,0,0,1-1.46.24,4,4,0,0,1-1.57-.28,3,3,0,0,1-1.15-.79,3.35,3.35,0,0,1-.71-1.27A5.47,5.47,0,0,1,167.57,25.78Zm3.79,3.09a1.14,1.14,0,0,0,1.1-.7,3.15,3.15,0,0,0,.27-.92,11.93,11.93,0,0,0,0-2.76,3.79,3.79,0,0,0-.25-1,1.4,1.4,0,0,0-.46-.63,1.08,1.08,0,0,0-.69-.22,1.23,1.23,0,0,0-.65.17,1.3,1.3,0,0,0-.47.53,3.08,3.08,0,0,0-.27.91,8.65,8.65,0,0,0-.09,1.34,11.74,11.74,0,0,0,.08,1.42,4.12,4.12,0,0,0,.27,1,1.48,1.48,0,0,0,.46.63A1.15,1.15,0,0,0,171.36,28.87Z"/><path class="cls-1" d="M176.15,29.65v-.91l1-.13V23.34l-.93-.28V22l2.34-.33h0l.36.29v1.64h0a3.52,3.52,0,0,1,.3-.55,4,4,0,0,1,.53-.65,3.67,3.67,0,0,1,.74-.53,1.82,1.82,0,0,1,.9-.22,1.38,1.38,0,0,1,.32,0l.19,0v2.36a1.48,1.48,0,0,0-.4-.11,3.3,3.3,0,0,0-.75-.07,3.87,3.87,0,0,0-.48,0l-.45.07a1.79,1.79,0,0,0-.37.11,1.17,1.17,0,0,0-.25.12V28.6l1.7.16v.89Z"/><path class="cls-2" d="M187.12,29.65v-.91l.84-.14V19.47l-1-.17v-.8l2.65-.33h0l.42.32v3.22L190,22.8a3.88,3.88,0,0,1,.46-.37,5.24,5.24,0,0,1,.63-.35,4.82,4.82,0,0,1,.76-.27,3.57,3.57,0,0,1,.87-.1,2.93,2.93,0,0,1,1.11.18,1.61,1.61,0,0,1,.69.57,2.58,2.58,0,0,1,.36,1,7,7,0,0,1,.11,1.38V28.6l1,.14v.91h-3.82v-.89l.75-.15V24.79a6.44,6.44,0,0,0,0-.81,1.66,1.66,0,0,0-.18-.57.88.88,0,0,0-.37-.32,1.51,1.51,0,0,0-.61-.11,2.28,2.28,0,0,0-.44.05,3,3,0,0,0-.43.12,3.52,3.52,0,0,0-.39.16,1.68,1.68,0,0,0-.31.19v5.1l.94.14v.91Z"/><path class="cls-2" d="M200.3,29.81a4.17,4.17,0,0,1-1.66-.3,3,3,0,0,1-1.14-.84,3.39,3.39,0,0,1-.66-1.28,6,6,0,0,1-.21-1.63,5,5,0,0,1,.27-1.71,3.63,3.63,0,0,1,.76-1.28,3.12,3.12,0,0,1,1.18-.81,4,4,0,0,1,1.54-.29,2.6,2.6,0,0,1,3,2.77c0,.32,0,.6,0,.85a3.46,3.46,0,0,1-.07.64H198.8a4.19,4.19,0,0,0,.19,1.16,2.4,2.4,0,0,0,.43.78,1.67,1.67,0,0,0,.64.44,2.28,2.28,0,0,0,.8.13,4.4,4.4,0,0,0,.65-.05,4.16,4.16,0,0,0,.56-.14,4,4,0,0,0,.46-.18l.36-.2.36.83a3.68,3.68,0,0,1-.48.37,4.15,4.15,0,0,1-.7.36,5.16,5.16,0,0,1-.84.27A4.22,4.22,0,0,1,200.3,29.81Zm-.18-7.22a1.18,1.18,0,0,0-.5.1.85.85,0,0,0-.4.36,2.15,2.15,0,0,0-.29.74,6.33,6.33,0,0,0-.14,1.23h2.45a.38.38,0,0,1,0-.1v-.13a.57.57,0,0,0,0-.13v-.09a5.49,5.49,0,0,0,0-.7,2.3,2.3,0,0,0-.17-.64,1.37,1.37,0,0,0-.35-.46A.88.88,0,0,0,200.12,22.59Z"/><path class="cls-2" d="M204.27,27.57A2,2,0,0,1,205,26a2.66,2.66,0,0,1,.75-.5,5.39,5.39,0,0,1,.93-.34,6.84,6.84,0,0,1,1-.2c.36,0,.72-.06,1.08-.07v-.33a1.58,1.58,0,0,0-.32-1.11,1.4,1.4,0,0,0-1-.33,4.62,4.62,0,0,0-.74.06,5.4,5.4,0,0,0-.72.14c-.22.06-.44.12-.63.19l-.5.2h0l-.41-.91a4,4,0,0,1,.49-.31,5.88,5.88,0,0,1,.82-.36,7,7,0,0,1,1.06-.31,5.32,5.32,0,0,1,1.2-.13,4.34,4.34,0,0,1,1.28.16,2,2,0,0,1,.87.51,2,2,0,0,1,.48.86,4.5,4.5,0,0,1,.16,1.24v4.26h.84v.84l-.32.08-.42.08-.5.06a4.93,4.93,0,0,1-.55,0l-.42,0a.58.58,0,0,1-.28-.1.41.41,0,0,1-.15-.21,1.3,1.3,0,0,1,0-.38v-.4a3.19,3.19,0,0,1-.32.35,2.47,2.47,0,0,1-.5.36,2.77,2.77,0,0,1-1.47.4,3,3,0,0,1-.91-.13,2.12,2.12,0,0,1-.74-.4,2,2,0,0,1-.5-.7A2.4,2.4,0,0,1,204.27,27.57Zm3.25.92.28,0,.33-.1a2.41,2.41,0,0,0,.33-.15,1.21,1.21,0,0,0,.29-.19V25.76a4.38,4.38,0,0,0-1.11.12,2,2,0,0,0-.72.33,1.22,1.22,0,0,0-.38.47,1.56,1.56,0,0,0-.11.57,1.33,1.33,0,0,0,.28.92A1,1,0,0,0,207.52,28.49Z"/><path class="cls-2" d="M212.43,29.65v-.91l1-.13V23.34l-.93-.28V22l2.34-.33h0l.36.29v1.64h0a4,4,0,0,1,.83-1.2,3.67,3.67,0,0,1,.74-.53,1.81,1.81,0,0,1,.89-.22,1.47,1.47,0,0,1,.33,0l.19,0v2.36a1.48,1.48,0,0,0-.4-.11,3.3,3.3,0,0,0-.75-.07,3.87,3.87,0,0,0-.48,0l-.45.07a1.79,1.79,0,0,0-.37.11,1.17,1.17,0,0,0-.25.12V28.6l1.7.16v.89Z"/><path class="cls-2" d="M219.86,28V23h-1V22.2l.17-.06.25-.09.23-.09.13-.07a2.21,2.21,0,0,0,.49-.65l.15-.32c.05-.12.1-.25.16-.38s.1-.26.14-.39a3.79,3.79,0,0,0,.12-.36H222l0,2h2V23h-2v3.79c0,.36,0,.65,0,.87a1.36,1.36,0,0,0,.09.48.32.32,0,0,0,.2.21,1.18,1.18,0,0,0,.37.05h0l.35,0c.12,0,.23,0,.35-.06l.32-.08.24-.08h0l.32.8a3.12,3.12,0,0,1-.5.31,5,5,0,0,1-.66.29,5.47,5.47,0,0,1-.75.2,4.45,4.45,0,0,1-.81.08h0a2.18,2.18,0,0,1-.77-.12,1.15,1.15,0,0,1-.51-.34,1.4,1.4,0,0,1-.29-.57A3,3,0,0,1,219.86,28Z"/><path class="cls-2" d="M229.22,29.65v-.91l.84-.14V19.47l-1-.17v-.8l2.66-.33h0l.42.32,0,3.22-.11,1.09a3.21,3.21,0,0,1,.46-.37,5.07,5.07,0,0,1,.62-.35,5.67,5.67,0,0,1,.76-.27,3.6,3.6,0,0,1,.88-.1,2.91,2.91,0,0,1,1.1.18,1.58,1.58,0,0,1,.7.57,2.58,2.58,0,0,1,.36,1,7.87,7.87,0,0,1,.11,1.38V28.6l1,.14v.91h-3.83v-.89l.76-.15V24.79a4.88,4.88,0,0,0-.05-.81,1.47,1.47,0,0,0-.18-.57.83.83,0,0,0-.37-.32,1.46,1.46,0,0,0-.6-.11,2.28,2.28,0,0,0-.44.05,3,3,0,0,0-.43.12l-.4.16a2,2,0,0,0-.3.19v5.1l.93.14v.91Z"/><path class="cls-2" d="M242.4,29.81a4.14,4.14,0,0,1-1.66-.3,3,3,0,0,1-1.14-.84,3.39,3.39,0,0,1-.66-1.28,5.64,5.64,0,0,1-.22-1.63,5,5,0,0,1,.27-1.71,3.65,3.65,0,0,1,.77-1.28,3,3,0,0,1,1.18-.81,4,4,0,0,1,1.53-.29,2.61,2.61,0,0,1,3,2.77c0,.32,0,.6,0,.85a4.61,4.61,0,0,1-.07.64h-4.47a4.17,4.17,0,0,0,.2,1.16,2.23,2.23,0,0,0,.43.78,1.71,1.71,0,0,0,.63.44,2.33,2.33,0,0,0,.81.13,4.4,4.4,0,0,0,.65-.05,4,4,0,0,0,.55-.14,4.21,4.21,0,0,0,.47-.18l.36-.2.35.83a3,3,0,0,1-.47.37,5.08,5.08,0,0,1-.7.36,5.29,5.29,0,0,1-.85.27A4.06,4.06,0,0,1,242.4,29.81Zm-.19-7.22a1.21,1.21,0,0,0-.5.1.9.9,0,0,0-.4.36,2.39,2.39,0,0,0-.28.74,6.24,6.24,0,0,0-.15,1.23h2.46v-.1s0-.08,0-.13v-.22a4.12,4.12,0,0,0,0-.7,2.3,2.3,0,0,0-.17-.64,1.15,1.15,0,0,0-.35-.46A.88.88,0,0,0,242.21,22.59Z"/><path class="cls-2" d="M246.37,27.57a2,2,0,0,1,.68-1.57,2.66,2.66,0,0,1,.75-.5,4.85,4.85,0,0,1,.93-.34,6.71,6.71,0,0,1,1-.2c.36,0,.72-.06,1.08-.07v-.33a1.58,1.58,0,0,0-.31-1.11,1.42,1.42,0,0,0-1.05-.33,4.71,4.71,0,0,0-.74.06,5.25,5.25,0,0,0-.71.14c-.23.06-.44.12-.63.19s-.36.14-.5.2h0l-.4-.91a4,4,0,0,1,.49-.31,5.4,5.4,0,0,1,.82-.36,7,7,0,0,1,1.06-.31,5.17,5.17,0,0,1,1.19-.13,4.36,4.36,0,0,1,1.29.16,2,2,0,0,1,.86.51,2.13,2.13,0,0,1,.49.86,4.53,4.53,0,0,1,.15,1.24v4.26h.85v.84l-.32.08-.43.08-.5.06a4.75,4.75,0,0,1-.54,0l-.42,0a.55.55,0,0,1-.28-.1.49.49,0,0,1-.16-.21,1.34,1.34,0,0,1,0-.38v-.4a2.56,2.56,0,0,1-.33.35,2.39,2.39,0,0,1-.49.36,3.29,3.29,0,0,1-.66.29,3,3,0,0,1-.81.11,2.94,2.94,0,0,1-.91-.13,2.16,2.16,0,0,1-.75-.4,2,2,0,0,1-.5-.7A2.57,2.57,0,0,1,246.37,27.57Zm3.24.92.28,0,.33-.1a2.07,2.07,0,0,0,.34-.15,1.15,1.15,0,0,0,.28-.19V25.76a4.38,4.38,0,0,0-1.11.12,2,2,0,0,0-.71.33,1.06,1.06,0,0,0-.38.47,1.63,1.63,0,0,0,.16,1.49A1,1,0,0,0,249.61,28.49Z"/><path class="cls-2" d="M254.31,29.65v-.91l1-.14V19.47l-1-.17v-.8l2.68-.33h0l.43.32V28.6l1,.14v.91Z"/><path class="cls-2" d="M260.11,28V23h-1V22.2l.18-.06.24-.09.23-.09.13-.07a2.05,2.05,0,0,0,.49-.65l.15-.32c.05-.12.11-.25.16-.38l.15-.39c0-.13.08-.25.11-.36h1.22l0,2h2V23h-2v3.79c0,.36,0,.65,0,.87a1.69,1.69,0,0,0,.08.48.32.32,0,0,0,.2.21,1.25,1.25,0,0,0,.38.05h0l.35,0c.12,0,.24,0,.35-.06l.32-.08.25-.08h0l.33.8a3.8,3.8,0,0,1-.51.31,4.37,4.37,0,0,1-.65.29,6,6,0,0,1-.76.2,4.43,4.43,0,0,1-.8.08h0a2.18,2.18,0,0,1-.77-.12,1.15,1.15,0,0,1-.51-.34,1.39,1.39,0,0,1-.28-.57A3,3,0,0,1,260.11,28Z"/><path class="cls-2" d="M265.06,29.65v-.91l.84-.14V19.47l-1-.17v-.8l2.66-.33h0l.42.32v3.22l-.11,1.09a4.06,4.06,0,0,1,.47-.37,5.07,5.07,0,0,1,.62-.35,5.21,5.21,0,0,1,.76-.27,3.57,3.57,0,0,1,.87-.1,2.93,2.93,0,0,1,1.11.18,1.7,1.7,0,0,1,.7.57,2.58,2.58,0,0,1,.36,1,8,8,0,0,1,.1,1.38V28.6l1,.14v.91H270v-.89l.76-.15V24.79a6.27,6.27,0,0,0,0-.81,1.47,1.47,0,0,0-.18-.57.83.83,0,0,0-.37-.32,1.5,1.5,0,0,0-.6-.11,2.2,2.2,0,0,0-.44.05,3.17,3.17,0,0,0-.44.12,3.52,3.52,0,0,0-.39.16,2.1,2.1,0,0,0-.31.19v5.1l.94.14v.91Z"/><path class="cls-2" d="M276.43,29.77a1.44,1.44,0,0,1-.46-.08,1.11,1.11,0,0,1-.38-.22,1,1,0,0,1-.26-.34,1.11,1.11,0,0,1-.09-.46,1.25,1.25,0,0,1,.1-.51,1.27,1.27,0,0,1,.31-.41,1.18,1.18,0,0,1,.44-.28,1.4,1.4,0,0,1,.54-.1,1.62,1.62,0,0,1,.57.09,1.12,1.12,0,0,1,.38.24.89.89,0,0,1,.21.35,1.42,1.42,0,0,1,.06.42,1.29,1.29,0,0,1-.1.53,1.12,1.12,0,0,1-.3.41,1.26,1.26,0,0,1-.45.27A1.7,1.7,0,0,1,276.43,29.77Z"/><path class="cls-1" d="M19.57,29.65v-.93l.89-.2,3.29-9.31h2.2l3.28,9.31,1,.2v.93H25.74v-.93l1.11-.2-.51-1.66H22.63l-.49,1.67,1.13.19v.93Zm4.64-8.27-1.28,4.41H26l-1.35-4.41-.24-1Z"/><path class="cls-1" d="M34.92,29.21V27.29h1.26l.36,1.07a.66.66,0,0,0,.19.18,1.39,1.39,0,0,0,.3.16,2.66,2.66,0,0,0,.39.11,2.32,2.32,0,0,0,.46,0,1.42,1.42,0,0,0,.55-.08.86.86,0,0,0,.35-.21.59.59,0,0,0,.18-.29A1.12,1.12,0,0,0,39,28a.81.81,0,0,0-.15-.49,1.42,1.42,0,0,0-.42-.38,4.34,4.34,0,0,0-.65-.34l-.85-.36a5.62,5.62,0,0,1-.85-.43,2.78,2.78,0,0,1-.64-.53,2.08,2.08,0,0,1-.4-.65A2.1,2.1,0,0,1,34.9,24a1.91,1.91,0,0,1,.21-.89,1.94,1.94,0,0,1,.59-.72,3.26,3.26,0,0,1,1-.48,4.64,4.64,0,0,1,1.36-.17,4.82,4.82,0,0,1,.8.05c.24,0,.45.08.64.13A3.69,3.69,0,0,1,40,22l.46.12V24l-1.19,0L39,23.1a1,1,0,0,0-.36-.3,1.37,1.37,0,0,0-.68-.15,1.88,1.88,0,0,0-.51.06,1,1,0,0,0-.34.19.83.83,0,0,0-.18.25.74.74,0,0,0,0,.29A.89.89,0,0,0,37,24a1.51,1.51,0,0,0,.47.39,4.31,4.31,0,0,0,.61.28c.22.08.44.16.64.25s.58.27.86.42a3.49,3.49,0,0,1,.72.52,2.05,2.05,0,0,1,.7,1.6,2.17,2.17,0,0,1-.2.92,2.05,2.05,0,0,1-.58.74,3,3,0,0,1-1,.49,4.71,4.71,0,0,1-1.38.18,6,6,0,0,1-1-.08,7.15,7.15,0,0,1-.81-.17l-.66-.2Z"/><path class="cls-1" d="M42.07,29.65v-.91l1-.13V23.34l-.93-.29V22l2.51-.33h0l.5.29V28.6l1,.14v.91Zm1.82-9.12a1,1,0,0,1-.43-.09.82.82,0,0,1-.32-.23,1.31,1.31,0,0,1-.19-.35,1.49,1.49,0,0,1-.06-.43,1.63,1.63,0,0,1,.07-.5,1.16,1.16,0,0,1,.22-.41,1,1,0,0,1,.37-.28,1.24,1.24,0,0,1,.52-.11h0a1,1,0,0,1,.48.1,1,1,0,0,1,.34.24.94.94,0,0,1,.2.35,1.54,1.54,0,0,1,.07.42,1.7,1.7,0,0,1-.08.51,1.18,1.18,0,0,1-.23.41.89.89,0,0,1-.4.27,1.42,1.42,0,0,1-.57.1Z"/><path class="cls-1" d="M47.21,29.65v-.89l.85-.15V23.34l-.93-.28V22l2.42-.33h0L50,22v.82a2.8,2.8,0,0,1,.56-.41,4.26,4.26,0,0,1,.71-.35A5.28,5.28,0,0,1,52,21.8a3.49,3.49,0,0,1,.76-.09A2.62,2.62,0,0,1,54,22a1.61,1.61,0,0,1,.7.81,3.84,3.84,0,0,1,.5-.36,4.43,4.43,0,0,1,.69-.34,6.09,6.09,0,0,1,.79-.26,3.25,3.25,0,0,1,.8-.1,3.08,3.08,0,0,1,1.08.16,1.52,1.52,0,0,1,.69.54,2.5,2.5,0,0,1,.37,1,8.27,8.27,0,0,1,.11,1.44v3.8l1,.15v.89H56.9v-.89l.72-.15V24.87a5.57,5.57,0,0,0-.06-.89,1.7,1.7,0,0,0-.19-.6.76.76,0,0,0-.37-.32,1.43,1.43,0,0,0-.58-.11A1.81,1.81,0,0,0,56,23a3.17,3.17,0,0,0-.41.12l-.4.16-.33.18a3.91,3.91,0,0,1,.07.62c0,.23,0,.48,0,.74v3.79l.9.15v.89H52.08v-.89l.82-.15V24.79a4.79,4.79,0,0,0-.06-.81,1.47,1.47,0,0,0-.19-.57.8.8,0,0,0-.36-.32,1.36,1.36,0,0,0-.58-.11,2.09,2.09,0,0,0-.42.05,3.17,3.17,0,0,0-.44.12,3.52,3.52,0,0,0-.39.16,2,2,0,0,0-.3.19v5.11l.92.15v.89Z"/><path class="cls-1" d="M61.37,32.17l1-.17V23.34l-.93-.28V22l2.45-.33h0l.35.29v.73a3,3,0,0,1,.4-.39,3.06,3.06,0,0,1,.52-.33,2.93,2.93,0,0,1,.63-.23,2.89,2.89,0,0,1,.74-.09,3.29,3.29,0,0,1,1.18.21,2.53,2.53,0,0,1,1,.67,3.43,3.43,0,0,1,.65,1.2,6,6,0,0,1,.23,1.76,4.87,4.87,0,0,1-.28,1.69,4.13,4.13,0,0,1-.79,1.37,3.78,3.78,0,0,1-1.27.91,4.1,4.1,0,0,1-1.68.33h-.34l-.32,0-.28,0-.19,0,0,1.13V32l1.35.17V33H61.37Zm4.35-9.26a1.7,1.7,0,0,0-.73.15,1.61,1.61,0,0,0-.49.33v5.18a.9.9,0,0,0,.37.22,1.74,1.74,0,0,0,.63.1,1.53,1.53,0,0,0,.7-.16,1.39,1.39,0,0,0,.58-.53,3.15,3.15,0,0,0,.4-1,6.66,6.66,0,0,0,.16-1.47,5.71,5.71,0,0,0-.1-1.32,2.66,2.66,0,0,0-.32-.88,1.28,1.28,0,0,0-.52-.49A1.39,1.39,0,0,0,65.72,22.91Z"/><path class="cls-1" d="M70.49,29.65v-.91l1-.14V19.47l-1-.17v-.8l2.67-.33h0l.43.32V28.6l1,.14v.91Z"/><path class="cls-1" d="M79.08,29.81a4.12,4.12,0,0,1-1.65-.3,2.88,2.88,0,0,1-1.14-.84,3.39,3.39,0,0,1-.66-1.28,5.64,5.64,0,0,1-.22-1.63,5,5,0,0,1,.27-1.71,3.65,3.65,0,0,1,.77-1.28A3,3,0,0,1,77.63,22a4,4,0,0,1,1.53-.29,2.61,2.61,0,0,1,3,2.77c0,.32,0,.6,0,.85a3.36,3.36,0,0,1-.08.64H77.58a4.17,4.17,0,0,0,.2,1.16,2.23,2.23,0,0,0,.43.78,1.71,1.71,0,0,0,.63.44,2.33,2.33,0,0,0,.81.13,4.26,4.26,0,0,0,.64-.05,3.81,3.81,0,0,0,.56-.14,4.21,4.21,0,0,0,.47-.18l.36-.2.35.83a3,3,0,0,1-.47.37,5.08,5.08,0,0,1-.7.36,5.29,5.29,0,0,1-.85.27A4.08,4.08,0,0,1,79.08,29.81Zm-.18-7.22a1.21,1.21,0,0,0-.5.1.9.9,0,0,0-.4.36,2.37,2.37,0,0,0-.29.74A7.23,7.23,0,0,0,77.57,25H80v-.1s0-.08,0-.13v-.22a4.12,4.12,0,0,0-.05-.7,2.3,2.3,0,0,0-.17-.64,1.15,1.15,0,0,0-.35-.46A.88.88,0,0,0,78.9,22.59Z"/><path class="cls-1" d="M87.79,29.21V27.29h1.26l.36,1.07a.76.76,0,0,0,.18.18,1.79,1.79,0,0,0,.31.16,2.66,2.66,0,0,0,.39.11,2.25,2.25,0,0,0,.46,0,1.45,1.45,0,0,0,.55-.08.86.86,0,0,0,.35-.21.68.68,0,0,0,.18-.29,1.12,1.12,0,0,0,0-.31.81.81,0,0,0-.15-.49,1.42,1.42,0,0,0-.42-.38,4.34,4.34,0,0,0-.65-.34l-.85-.36A5.62,5.62,0,0,1,89,26a2.78,2.78,0,0,1-.64-.53,2.08,2.08,0,0,1-.4-.65,2.1,2.1,0,0,1-.15-.82,1.91,1.91,0,0,1,.21-.89,1.94,1.94,0,0,1,.59-.72,3.26,3.26,0,0,1,1-.48,4.64,4.64,0,0,1,1.36-.17,4.82,4.82,0,0,1,.8.05c.24,0,.45.08.64.13a3.69,3.69,0,0,1,.53.15l.46.12V24l-1.19,0-.32-.91a1,1,0,0,0-.36-.3,1.37,1.37,0,0,0-.68-.15,1.83,1.83,0,0,0-.51.06,1,1,0,0,0-.34.19.83.83,0,0,0-.18.25.75.75,0,0,0-.06.29.9.9,0,0,0,.19.58,1.59,1.59,0,0,0,.46.39,5,5,0,0,0,.62.28c.22.08.44.16.64.25s.58.27.86.42a3.49,3.49,0,0,1,.72.52,2.13,2.13,0,0,1,.51.68,2,2,0,0,1,.19.92,2.17,2.17,0,0,1-.2.92,2.05,2.05,0,0,1-.58.74,3,3,0,0,1-1,.49,4.71,4.71,0,0,1-1.38.18,6,6,0,0,1-1-.08,7.15,7.15,0,0,1-.81-.17c-.25-.07-.47-.13-.66-.2Z"/><path class="cls-1" d="M94.87,25.83a4.83,4.83,0,0,1,.28-1.69,3.54,3.54,0,0,1,.79-1.31A3.41,3.41,0,0,1,97.18,22a4.23,4.23,0,0,1,1.63-.3,7.3,7.3,0,0,1,.84,0,5.59,5.59,0,0,1,.68.12,3.81,3.81,0,0,1,.52.14l.36.11-.07,2.33H99.93l-.39-1.2a1.4,1.4,0,0,0-.37-.45.86.86,0,0,0-.53-.17,1.24,1.24,0,0,0-.59.16,1.4,1.4,0,0,0-.49.48,3,3,0,0,0-.35.86,5.77,5.77,0,0,0-.13,1.27,6.49,6.49,0,0,0,.14,1.44,2.69,2.69,0,0,0,.39,1,1.54,1.54,0,0,0,.62.52,2,2,0,0,0,.83.16,3.06,3.06,0,0,0,1.1-.17,4.26,4.26,0,0,0,.77-.37l.36.83a2.23,2.23,0,0,1-.41.34,3.73,3.73,0,0,1-.63.36,4.31,4.31,0,0,1-.79.27,3.84,3.84,0,0,1-.91.11,4.21,4.21,0,0,1-1.66-.3,3,3,0,0,1-1.14-.84,3.46,3.46,0,0,1-.67-1.26A5.64,5.64,0,0,1,94.87,25.83Z"/><path class="cls-1" d="M102.27,29.65v-.91l1-.13V23.34l-.93-.28V22l2.34-.33h0l.36.29v1.64h0a2.38,2.38,0,0,1,.3-.55,3.52,3.52,0,0,1,.53-.65,3.6,3.6,0,0,1,.73-.53,1.87,1.87,0,0,1,.9-.22,1.38,1.38,0,0,1,.32,0l.19,0v2.36a1.49,1.49,0,0,0-.39-.11,3.33,3.33,0,0,0-.76-.07,3.59,3.59,0,0,0-.47,0L106,24a1.62,1.62,0,0,0-.37.11,1.29,1.29,0,0,0-.26.12V28.6l1.7.16v.89Z"/><path class="cls-1" d="M112.51,29.81a4.12,4.12,0,0,1-1.65-.3,3,3,0,0,1-1.15-.84,3.7,3.7,0,0,1-.66-1.28,6,6,0,0,1-.21-1.63,5,5,0,0,1,.27-1.71,3.78,3.78,0,0,1,.76-1.28,3.15,3.15,0,0,1,1.19-.81,4,4,0,0,1,1.53-.29,2.61,2.61,0,0,1,3,2.77,7.79,7.79,0,0,1,0,.85,3.46,3.46,0,0,1-.07.64H111a4.17,4.17,0,0,0,.2,1.16,2.23,2.23,0,0,0,.43.78,1.71,1.71,0,0,0,.63.44,2.28,2.28,0,0,0,.8.13,4.29,4.29,0,0,0,.65-.05,4.16,4.16,0,0,0,.56-.14,3.4,3.4,0,0,0,.46-.18l.36-.2.36.83a3.1,3.1,0,0,1-.48.37,4.44,4.44,0,0,1-.69.36,5.62,5.62,0,0,1-.85.27A4.08,4.08,0,0,1,112.51,29.81Zm-.18-7.22a1.21,1.21,0,0,0-.5.1.85.85,0,0,0-.4.36,2.37,2.37,0,0,0-.29.74A7.23,7.23,0,0,0,111,25h2.46v-.1a.62.62,0,0,1,0-.13v-.22a5.49,5.49,0,0,0,0-.7,2.3,2.3,0,0,0-.17-.64,1.25,1.25,0,0,0-.35-.46A.88.88,0,0,0,112.33,22.59Z"/><path class="cls-1" d="M120.21,29.81a4.17,4.17,0,0,1-1.66-.3,3,3,0,0,1-1.14-.84,3.39,3.39,0,0,1-.66-1.28,6,6,0,0,1-.21-1.63,5,5,0,0,1,.27-1.71,3.63,3.63,0,0,1,.76-1.28,3.12,3.12,0,0,1,1.18-.81,4,4,0,0,1,1.54-.29,2.61,2.61,0,0,1,3,2.77c0,.32,0,.6,0,.85a3.46,3.46,0,0,1-.07.64h-4.46a4.19,4.19,0,0,0,.19,1.16,2.4,2.4,0,0,0,.43.78,1.67,1.67,0,0,0,.64.44,2.28,2.28,0,0,0,.8.13,4.4,4.4,0,0,0,.65-.05,4.16,4.16,0,0,0,.56-.14,4,4,0,0,0,.46-.18l.36-.2.36.83a3.68,3.68,0,0,1-.48.37,4.15,4.15,0,0,1-.7.36,5.16,5.16,0,0,1-.84.27A4.22,4.22,0,0,1,120.21,29.81ZM120,22.59a1.18,1.18,0,0,0-.5.1.85.85,0,0,0-.4.36,2.15,2.15,0,0,0-.29.74A6.33,6.33,0,0,0,118.7,25h2.45a.38.38,0,0,1,0-.1v-.13a.57.57,0,0,0,0-.13v-.09a5.49,5.49,0,0,0,0-.7,2.3,2.3,0,0,0-.17-.64,1.37,1.37,0,0,0-.35-.46A.88.88,0,0,0,120,22.59Z"/><path class="cls-1" d="M124.41,29.65v-.91l.88-.14V23.34l-.93-.28V22l2.45-.33h0l.36.29v.82a3.46,3.46,0,0,1,.54-.41,4.12,4.12,0,0,1,.66-.35,4.5,4.5,0,0,1,.76-.24,3.57,3.57,0,0,1,.8-.09,3.08,3.08,0,0,1,1.09.17,1.49,1.49,0,0,1,.71.55,2.47,2.47,0,0,1,.36,1,7.42,7.42,0,0,1,.11,1.43v3.79l1,.13v.91h-3.85v-.91l.74-.13V24.79a4.88,4.88,0,0,0,0-.81,1.67,1.67,0,0,0-.17-.57.83.83,0,0,0-.35-.32A1.35,1.35,0,0,0,129,23a2.31,2.31,0,0,0-.46.05,3.09,3.09,0,0,0-.43.14,2,2,0,0,0-.36.18,1.82,1.82,0,0,0-.29.19V28.6l.91.14v.91Z"/><path class="cls-1" d="M134,29.65v-.91l1-.13V23.34l-.92-.29V22l2.51-.33h0l.5.29V28.6l1,.14v.91Zm1.82-9.12a.93.93,0,0,1-.42-.09.82.82,0,0,1-.32-.23,1.08,1.08,0,0,1-.19-.35,1.49,1.49,0,0,1-.06-.43,1.63,1.63,0,0,1,.07-.5,1,1,0,0,1,.22-.41.93.93,0,0,1,.37-.28,1.21,1.21,0,0,1,.52-.11h0a1.07,1.07,0,0,1,.49.1,1,1,0,0,1,.33.24,1,1,0,0,1,.21.35,1.52,1.52,0,0,1,.06.42,1.7,1.7,0,0,1-.07.51,1.18,1.18,0,0,1-.23.41,1,1,0,0,1-.4.27,1.42,1.42,0,0,1-.57.1Z"/><path class="cls-1" d="M139.12,29.65v-.91l.88-.14V23.34l-.93-.28V22l2.45-.33h0l.36.29v.82a3.46,3.46,0,0,1,.54-.41,4.59,4.59,0,0,1,.66-.35,4.5,4.5,0,0,1,.76-.24,3.57,3.57,0,0,1,.8-.09,3.18,3.18,0,0,1,1.1.17,1.52,1.52,0,0,1,.7.55,2.64,2.64,0,0,1,.37,1,8.32,8.32,0,0,1,.11,1.43v3.79l1,.13v.91h-3.85v-.91l.74-.13V24.79a4.88,4.88,0,0,0-.05-.81,1.67,1.67,0,0,0-.17-.57.78.78,0,0,0-.35-.32,1.35,1.35,0,0,0-.57-.11,2.4,2.4,0,0,0-.46.05,2.59,2.59,0,0,0-.42.14,3,3,0,0,0-.66.37V28.6l.91.14v.91Z"/><path class="cls-1" d="M152.21,27a6.56,6.56,0,0,1-1-.08.88.88,0,0,0-.19.27.8.8,0,0,0-.08.36.71.71,0,0,0,.09.38.58.58,0,0,0,.28.22,1.88,1.88,0,0,0,.49.11c.2,0,.44,0,.72,0h1.36a3.91,3.91,0,0,1,2.2.5,1.86,1.86,0,0,1,.72,1.64,2.28,2.28,0,0,1-.36,1.25,3.22,3.22,0,0,1-1,1,5,5,0,0,1-1.41.61,6.61,6.61,0,0,1-1.68.22h0a6.63,6.63,0,0,1-1.66-.18,3.4,3.4,0,0,1-1.12-.47,1.9,1.9,0,0,1-.65-.71,2,2,0,0,1-.21-.91,1.53,1.53,0,0,1,.12-.6,1.71,1.71,0,0,1,.3-.5,2.15,2.15,0,0,1,.45-.4,2.94,2.94,0,0,1,.53-.27,1.57,1.57,0,0,1-.61-.52,1.29,1.29,0,0,1-.21-.74,1.41,1.41,0,0,1,.27-.87,3.09,3.09,0,0,1,.7-.64,2.2,2.2,0,0,1-1-.88,2.72,2.72,0,0,1-.33-1.37,2.24,2.24,0,0,1,.28-1.12,2.63,2.63,0,0,1,.75-.85,3.76,3.76,0,0,1,1.12-.54,4.56,4.56,0,0,1,1.36-.19h0a4.11,4.11,0,0,1,2.54.65,1.56,1.56,0,0,1,.26-.23,2.24,2.24,0,0,1,.38-.22,3.67,3.67,0,0,1,.47-.16,2.35,2.35,0,0,1,.54-.06h.33v1.53h-1.35a3.09,3.09,0,0,1,.12.46,2.82,2.82,0,0,1,0,.52,2.53,2.53,0,0,1-.25,1.13,2.7,2.7,0,0,1-.73.89,3.41,3.41,0,0,1-1.12.59,4.55,4.55,0,0,1-1.42.21Zm-.35,2.76a5.27,5.27,0,0,1-.82-.06,1.76,1.76,0,0,0-.26.39,1.54,1.54,0,0,0-.12.67,2.19,2.19,0,0,0,.13.78,1.22,1.22,0,0,0,.36.52,1.42,1.42,0,0,0,.59.29,3.37,3.37,0,0,0,.82.09h0a3.59,3.59,0,0,0,.81-.09,2.53,2.53,0,0,0,.71-.3,1.54,1.54,0,0,0,.5-.48,1.23,1.23,0,0,0,.19-.69,1.56,1.56,0,0,0-.07-.52.67.67,0,0,0-.23-.34,1,1,0,0,0-.46-.2,3.73,3.73,0,0,0-.74-.06Zm.51-3.68h0a1.06,1.06,0,0,0,.58-.14,1,1,0,0,0,.36-.38,2,2,0,0,0,.18-.56,5.09,5.09,0,0,0,.05-.69,2.31,2.31,0,0,0-.29-1.31,1.11,1.11,0,0,0-1-.41h0a1.08,1.08,0,0,0-.94.41,2.2,2.2,0,0,0-.29,1.25,3.38,3.38,0,0,0,.07.74,1.59,1.59,0,0,0,.21.58,1,1,0,0,0,.4.38A1.27,1.27,0,0,0,152.37,26.06Z"/><path class="cls-1" d="M161.84,29.65v-.9l1.09-.18V23.06h-1.2v-.82l1.2-.35V21.5a3.17,3.17,0,0,1,.34-1.46,3.52,3.52,0,0,1,.86-1.11,3.83,3.83,0,0,1,1.18-.71,3.65,3.65,0,0,1,1.27-.24,2.36,2.36,0,0,1,.53,0,1.68,1.68,0,0,1,.27.07v2.05a.81.81,0,0,0-.24-.19,2.56,2.56,0,0,0-.37-.17l-.43-.11a1.88,1.88,0,0,0-.47-.05,1.18,1.18,0,0,0-.34,0,.5.5,0,0,0-.25.15.7.7,0,0,0-.17.28,1.51,1.51,0,0,0-.06.46v1.34h1.76v1.17h-1.76v5.55l1.52.14v.9Z"/><path class="cls-1" d="M167.57,25.78a4.8,4.8,0,0,1,.32-1.81,3.65,3.65,0,0,1,.86-1.28,3.29,3.29,0,0,1,1.23-.77,4.54,4.54,0,0,1,3,0,3.17,3.17,0,0,1,1.15.8,3.48,3.48,0,0,1,.7,1.27,5.45,5.45,0,0,1,.24,1.68,4.71,4.71,0,0,1-.32,1.85,3.59,3.59,0,0,1-.85,1.28,3.4,3.4,0,0,1-1.23.75,4.47,4.47,0,0,1-1.46.24,4,4,0,0,1-1.57-.28,3,3,0,0,1-1.15-.79,3.35,3.35,0,0,1-.71-1.27A5.47,5.47,0,0,1,167.57,25.78Zm3.79,3.09a1.14,1.14,0,0,0,1.1-.7,3.15,3.15,0,0,0,.27-.92,11.93,11.93,0,0,0,0-2.76,3.79,3.79,0,0,0-.25-1,1.4,1.4,0,0,0-.46-.63,1.08,1.08,0,0,0-.69-.22,1.23,1.23,0,0,0-.65.17,1.3,1.3,0,0,0-.47.53,3.08,3.08,0,0,0-.27.91,8.65,8.65,0,0,0-.09,1.34,11.74,11.74,0,0,0,.08,1.42,4.12,4.12,0,0,0,.27,1,1.48,1.48,0,0,0,.46.63A1.15,1.15,0,0,0,171.36,28.87Z"/><path class="cls-1" d="M176.15,29.65v-.91l1-.13V23.34l-.93-.28V22l2.34-.33h0l.36.29v1.64h0a3.52,3.52,0,0,1,.3-.55,4,4,0,0,1,.53-.65,3.67,3.67,0,0,1,.74-.53,1.82,1.82,0,0,1,.9-.22,1.38,1.38,0,0,1,.32,0l.19,0v2.36a1.48,1.48,0,0,0-.4-.11,3.3,3.3,0,0,0-.75-.07,3.87,3.87,0,0,0-.48,0l-.45.07a1.79,1.79,0,0,0-.37.11,1.17,1.17,0,0,0-.25.12V28.6l1.7.16v.89Z"/><path class="cls-2" d="M187.12,29.65v-.91l.84-.14V19.47l-1-.17v-.8l2.65-.33h0l.42.32v3.22L190,22.8a3.88,3.88,0,0,1,.46-.37,5.24,5.24,0,0,1,.63-.35,4.82,4.82,0,0,1,.76-.27,3.57,3.57,0,0,1,.87-.1,2.93,2.93,0,0,1,1.11.18,1.61,1.61,0,0,1,.69.57,2.58,2.58,0,0,1,.36,1,7,7,0,0,1,.11,1.38V28.6l1,.14v.91h-3.82v-.89l.75-.15V24.79a6.44,6.44,0,0,0,0-.81,1.66,1.66,0,0,0-.18-.57.88.88,0,0,0-.37-.32,1.51,1.51,0,0,0-.61-.11,2.28,2.28,0,0,0-.44.05,3,3,0,0,0-.43.12,3.52,3.52,0,0,0-.39.16,1.68,1.68,0,0,0-.31.19v5.1l.94.14v.91Z"/><path class="cls-2" d="M200.3,29.81a4.17,4.17,0,0,1-1.66-.3,3,3,0,0,1-1.14-.84,3.39,3.39,0,0,1-.66-1.28,6,6,0,0,1-.21-1.63,5,5,0,0,1,.27-1.71,3.63,3.63,0,0,1,.76-1.28,3.12,3.12,0,0,1,1.18-.81,4,4,0,0,1,1.54-.29,2.6,2.6,0,0,1,3,2.77c0,.32,0,.6,0,.85a3.46,3.46,0,0,1-.07.64H198.8a4.19,4.19,0,0,0,.19,1.16,2.4,2.4,0,0,0,.43.78,1.67,1.67,0,0,0,.64.44,2.28,2.28,0,0,0,.8.13,4.4,4.4,0,0,0,.65-.05,4.16,4.16,0,0,0,.56-.14,4,4,0,0,0,.46-.18l.36-.2.36.83a3.68,3.68,0,0,1-.48.37,4.15,4.15,0,0,1-.7.36,5.16,5.16,0,0,1-.84.27A4.22,4.22,0,0,1,200.3,29.81Zm-.18-7.22a1.18,1.18,0,0,0-.5.1.85.85,0,0,0-.4.36,2.15,2.15,0,0,0-.29.74,6.33,6.33,0,0,0-.14,1.23h2.45a.38.38,0,0,1,0-.1v-.13a.57.57,0,0,0,0-.13v-.09a5.49,5.49,0,0,0,0-.7,2.3,2.3,0,0,0-.17-.64,1.37,1.37,0,0,0-.35-.46A.88.88,0,0,0,200.12,22.59Z"/><path class="cls-2" d="M204.27,27.57A2,2,0,0,1,205,26a2.66,2.66,0,0,1,.75-.5,5.39,5.39,0,0,1,.93-.34,6.84,6.84,0,0,1,1-.2c.36,0,.72-.06,1.08-.07v-.33a1.58,1.58,0,0,0-.32-1.11,1.4,1.4,0,0,0-1-.33,4.62,4.62,0,0,0-.74.06,5.4,5.4,0,0,0-.72.14c-.22.06-.44.12-.63.19l-.5.2h0l-.41-.91a4,4,0,0,1,.49-.31,5.88,5.88,0,0,1,.82-.36,7,7,0,0,1,1.06-.31,5.32,5.32,0,0,1,1.2-.13,4.34,4.34,0,0,1,1.28.16,2,2,0,0,1,.87.51,2,2,0,0,1,.48.86,4.5,4.5,0,0,1,.16,1.24v4.26h.84v.84l-.32.08-.42.08-.5.06a4.93,4.93,0,0,1-.55,0l-.42,0a.58.58,0,0,1-.28-.1.41.41,0,0,1-.15-.21,1.3,1.3,0,0,1,0-.38v-.4a3.19,3.19,0,0,1-.32.35,2.47,2.47,0,0,1-.5.36,2.77,2.77,0,0,1-1.47.4,3,3,0,0,1-.91-.13,2.12,2.12,0,0,1-.74-.4,2,2,0,0,1-.5-.7A2.4,2.4,0,0,1,204.27,27.57Zm3.25.92.28,0,.33-.1a2.41,2.41,0,0,0,.33-.15,1.21,1.21,0,0,0,.29-.19V25.76a4.38,4.38,0,0,0-1.11.12,2,2,0,0,0-.72.33,1.22,1.22,0,0,0-.38.47,1.56,1.56,0,0,0-.11.57,1.33,1.33,0,0,0,.28.92A1,1,0,0,0,207.52,28.49Z"/><path class="cls-2" d="M212.43,29.65v-.91l1-.13V23.34l-.93-.28V22l2.34-.33h0l.36.29v1.64h0a4,4,0,0,1,.83-1.2,3.67,3.67,0,0,1,.74-.53,1.81,1.81,0,0,1,.89-.22,1.47,1.47,0,0,1,.33,0l.19,0v2.36a1.48,1.48,0,0,0-.4-.11,3.3,3.3,0,0,0-.75-.07,3.87,3.87,0,0,0-.48,0l-.45.07a1.79,1.79,0,0,0-.37.11,1.17,1.17,0,0,0-.25.12V28.6l1.7.16v.89Z"/><path class="cls-2" d="M219.86,28V23h-1V22.2l.17-.06.25-.09.23-.09.13-.07a2.21,2.21,0,0,0,.49-.65l.15-.32c.05-.12.1-.25.16-.38s.1-.26.14-.39a3.79,3.79,0,0,0,.12-.36H222l0,2h2V23h-2v3.79c0,.36,0,.65,0,.87a1.36,1.36,0,0,0,.09.48.32.32,0,0,0,.2.21,1.18,1.18,0,0,0,.37.05h0l.35,0c.12,0,.23,0,.35-.06l.32-.08.24-.08h0l.32.8a3.12,3.12,0,0,1-.5.31,5,5,0,0,1-.66.29,5.47,5.47,0,0,1-.75.2,4.45,4.45,0,0,1-.81.08h0a2.18,2.18,0,0,1-.77-.12,1.15,1.15,0,0,1-.51-.34,1.4,1.4,0,0,1-.29-.57A3,3,0,0,1,219.86,28Z"/><path class="cls-2" d="M229.22,29.65v-.91l.84-.14V19.47l-1-.17v-.8l2.66-.33h0l.42.32,0,3.22-.11,1.09a3.21,3.21,0,0,1,.46-.37,5.07,5.07,0,0,1,.62-.35,5.67,5.67,0,0,1,.76-.27,3.6,3.6,0,0,1,.88-.1,2.91,2.91,0,0,1,1.1.18,1.58,1.58,0,0,1,.7.57,2.58,2.58,0,0,1,.36,1,7.87,7.87,0,0,1,.11,1.38V28.6l1,.14v.91h-3.83v-.89l.76-.15V24.79a4.88,4.88,0,0,0-.05-.81,1.47,1.47,0,0,0-.18-.57.83.83,0,0,0-.37-.32,1.46,1.46,0,0,0-.6-.11,2.28,2.28,0,0,0-.44.05,3,3,0,0,0-.43.12l-.4.16a2,2,0,0,0-.3.19v5.1l.93.14v.91Z"/><path class="cls-2" d="M242.4,29.81a4.14,4.14,0,0,1-1.66-.3,3,3,0,0,1-1.14-.84,3.39,3.39,0,0,1-.66-1.28,5.64,5.64,0,0,1-.22-1.63,5,5,0,0,1,.27-1.71,3.65,3.65,0,0,1,.77-1.28,3,3,0,0,1,1.18-.81,4,4,0,0,1,1.53-.29,2.61,2.61,0,0,1,3,2.77c0,.32,0,.6,0,.85a4.61,4.61,0,0,1-.07.64h-4.47a4.17,4.17,0,0,0,.2,1.16,2.23,2.23,0,0,0,.43.78,1.71,1.71,0,0,0,.63.44,2.33,2.33,0,0,0,.81.13,4.4,4.4,0,0,0,.65-.05,4,4,0,0,0,.55-.14,4.21,4.21,0,0,0,.47-.18l.36-.2.35.83a3,3,0,0,1-.47.37,5.08,5.08,0,0,1-.7.36,5.29,5.29,0,0,1-.85.27A4.06,4.06,0,0,1,242.4,29.81Zm-.19-7.22a1.21,1.21,0,0,0-.5.1.9.9,0,0,0-.4.36,2.39,2.39,0,0,0-.28.74,6.24,6.24,0,0,0-.15,1.23h2.46v-.1s0-.08,0-.13v-.22a4.12,4.12,0,0,0,0-.7,2.3,2.3,0,0,0-.17-.64,1.15,1.15,0,0,0-.35-.46A.88.88,0,0,0,242.21,22.59Z"/><path class="cls-2" d="M246.37,27.57a2,2,0,0,1,.68-1.57,2.66,2.66,0,0,1,.75-.5,4.85,4.85,0,0,1,.93-.34,6.71,6.71,0,0,1,1-.2c.36,0,.72-.06,1.08-.07v-.33a1.58,1.58,0,0,0-.31-1.11,1.42,1.42,0,0,0-1.05-.33,4.71,4.71,0,0,0-.74.06,5.25,5.25,0,0,0-.71.14c-.23.06-.44.12-.63.19s-.36.14-.5.2h0l-.4-.91a4,4,0,0,1,.49-.31,5.4,5.4,0,0,1,.82-.36,7,7,0,0,1,1.06-.31,5.17,5.17,0,0,1,1.19-.13,4.36,4.36,0,0,1,1.29.16,2,2,0,0,1,.86.51,2.13,2.13,0,0,1,.49.86,4.53,4.53,0,0,1,.15,1.24v4.26h.85v.84l-.32.08-.43.08-.5.06a4.75,4.75,0,0,1-.54,0l-.42,0a.55.55,0,0,1-.28-.1.49.49,0,0,1-.16-.21,1.34,1.34,0,0,1,0-.38v-.4a2.56,2.56,0,0,1-.33.35,2.39,2.39,0,0,1-.49.36,3.29,3.29,0,0,1-.66.29,3,3,0,0,1-.81.11,2.94,2.94,0,0,1-.91-.13,2.16,2.16,0,0,1-.75-.4,2,2,0,0,1-.5-.7A2.57,2.57,0,0,1,246.37,27.57Zm3.24.92.28,0,.33-.1a2.07,2.07,0,0,0,.34-.15,1.15,1.15,0,0,0,.28-.19V25.76a4.38,4.38,0,0,0-1.11.12,2,2,0,0,0-.71.33,1.06,1.06,0,0,0-.38.47,1.63,1.63,0,0,0,.16,1.49A1,1,0,0,0,249.61,28.49Z"/><path class="cls-2" d="M254.31,29.65v-.91l1-.14V19.47l-1-.17v-.8l2.68-.33h0l.43.32V28.6l1,.14v.91Z"/><path class="cls-2" d="M260.11,28V23h-1V22.2l.18-.06.24-.09.23-.09.13-.07a2.05,2.05,0,0,0,.49-.65l.15-.32c.05-.12.11-.25.16-.38l.15-.39c0-.13.08-.25.11-.36h1.22l0,2h2V23h-2v3.79c0,.36,0,.65,0,.87a1.69,1.69,0,0,0,.08.48.32.32,0,0,0,.2.21,1.25,1.25,0,0,0,.38.05h0l.35,0c.12,0,.24,0,.35-.06l.32-.08.25-.08h0l.33.8a3.8,3.8,0,0,1-.51.31,4.37,4.37,0,0,1-.65.29,6,6,0,0,1-.76.2,4.43,4.43,0,0,1-.8.08h0a2.18,2.18,0,0,1-.77-.12,1.15,1.15,0,0,1-.51-.34,1.39,1.39,0,0,1-.28-.57A3,3,0,0,1,260.11,28Z"/><path class="cls-2" d="M265.06,29.65v-.91l.84-.14V19.47l-1-.17v-.8l2.66-.33h0l.42.32v3.22l-.11,1.09a4.06,4.06,0,0,1,.47-.37,5.07,5.07,0,0,1,.62-.35,5.21,5.21,0,0,1,.76-.27,3.57,3.57,0,0,1,.87-.1,2.93,2.93,0,0,1,1.11.18,1.7,1.7,0,0,1,.7.57,2.58,2.58,0,0,1,.36,1,8,8,0,0,1,.1,1.38V28.6l1,.14v.91H270v-.89l.76-.15V24.79a6.27,6.27,0,0,0,0-.81,1.47,1.47,0,0,0-.18-.57.83.83,0,0,0-.37-.32,1.5,1.5,0,0,0-.6-.11,2.2,2.2,0,0,0-.44.05,3.17,3.17,0,0,0-.44.12,3.52,3.52,0,0,0-.39.16,2.1,2.1,0,0,0-.31.19v5.1l.94.14v.91Z"/><path class="cls-2" d="M276.43,29.77a1.44,1.44,0,0,1-.46-.08,1.11,1.11,0,0,1-.38-.22,1,1,0,0,1-.26-.34,1.11,1.11,0,0,1-.09-.46,1.25,1.25,0,0,1,.1-.51,1.27,1.27,0,0,1,.31-.41,1.18,1.18,0,0,1,.44-.28,1.4,1.4,0,0,1,.54-.1,1.62,1.62,0,0,1,.57.09,1.12,1.12,0,0,1,.38.24.89.89,0,0,1,.21.35,1.42,1.42,0,0,1,.06.42,1.29,1.29,0,0,1-.1.53,1.12,1.12,0,0,1-.3.41,1.26,1.26,0,0,1-.45.27A1.7,1.7,0,0,1,276.43,29.77Z"/></svg>