<svg id="Layer_1" data-name="Layer 1" xmlns="http://www.w3.org/2000/svg" viewBox="0 0 300 250"><defs><style>.cls-1{fill:#fff;}.cls-2{fill:#f1b533;}</style></defs><path class="cls-1" d="M29,208.15l-3.09-10-.89-.23v-1h4.57v1l-1.24.23,1.86,6.69.28,1.49.29-1.49,1.59-5.38-.43-1.32-1-.22v-1h4.67v1l-1.29.23,1.84,6.69.34,1.62.28-1.62,1.76-6.69-1.4-.23v-1h3.78v1l-1,.23-2.93,10H34.93l-2-6.73L31,208.15Z"/><path class="cls-1" d="M45,208.24a4.48,4.48,0,0,1-1.77-.32A3.12,3.12,0,0,1,42,207a3.63,3.63,0,0,1-.7-1.37,6,6,0,0,1-.23-1.74,5.27,5.27,0,0,1,.29-1.84,3.94,3.94,0,0,1,.81-1.38,3.71,3.71,0,0,1,1.27-.86,4.32,4.32,0,0,1,1.64-.3c2,0,3.09,1,3.17,3,0,.34,0,.64,0,.91a4.1,4.1,0,0,1-.08.69H43.42a4.7,4.7,0,0,0,.21,1.24,2.43,2.43,0,0,0,.46.83,1.67,1.67,0,0,0,.68.47,2.39,2.39,0,0,0,.86.15,3.88,3.88,0,0,0,.7-.06,4.61,4.61,0,0,0,.59-.15,2.89,2.89,0,0,0,.5-.2,3.44,3.44,0,0,0,.39-.21l.38.89a3,3,0,0,1-.51.4,5.24,5.24,0,0,1-.75.38,4.85,4.85,0,0,1-.91.29A4.07,4.07,0,0,1,45,208.24Zm-.2-7.73a1.35,1.35,0,0,0-.53.1,1,1,0,0,0-.43.39,2.59,2.59,0,0,0-.31.79,7.09,7.09,0,0,0-.15,1.32H46a.49.49,0,0,1,0-.11v-.13a.71.71,0,0,0,0-.14v-.1a6.61,6.61,0,0,0-.05-.76,2.7,2.7,0,0,0-.19-.68,1.41,1.41,0,0,0-.37-.49A1,1,0,0,0,44.83,200.51Z"/><path class="cls-1" d="M54,208.07v-1l1-.14v-9.78L53.89,197v-.85l2.84-.36h0l.46.34v6.56l0,1.13L60,200.87l-1.14-.19v-1H63v1l-1.36.26-1.82,1.66L62.66,207l.9.14v1H59.42v-1l.74-.16-1.8-3.06L57.18,205l0,.87V207l1,.14v1Z"/><path class="cls-1" d="M64.18,208.07v-1l.95-.14v-5.64l-1-.31v-1.1l2.63-.36h0l.39.32v.87a4.71,4.71,0,0,1,.57-.44,4.86,4.86,0,0,1,.72-.37,5,5,0,0,1,.8-.26,4.2,4.2,0,0,1,.86-.1,3.14,3.14,0,0,1,1.18.19,1.6,1.6,0,0,1,.75.58,2.66,2.66,0,0,1,.39,1,8.33,8.33,0,0,1,.12,1.53v4l1,.14v1H69.49v-1l.8-.14v-4.08a5.61,5.61,0,0,0-.06-.88,1.52,1.52,0,0,0-.18-.6.8.8,0,0,0-.38-.35,1.32,1.32,0,0,0-.61-.12,2.05,2.05,0,0,0-.49.06,3.5,3.5,0,0,0-.46.14,3.55,3.55,0,0,0-.39.2,2.77,2.77,0,0,0-.31.21V207l1,.14v1Z"/><path class="cls-1" d="M74.34,203.93a5,5,0,0,1,.35-1.94,4.1,4.1,0,0,1,.91-1.38,3.62,3.62,0,0,1,1.32-.82,4.67,4.67,0,0,1,1.57-.27,4.38,4.38,0,0,1,1.68.3,3.16,3.16,0,0,1,1.23.85,3.57,3.57,0,0,1,.76,1.35,6,6,0,0,1,.25,1.81,5.2,5.2,0,0,1-.34,2,3.76,3.76,0,0,1-.92,1.37,3.62,3.62,0,0,1-1.31.8,4.56,4.56,0,0,1-1.56.26,4.64,4.64,0,0,1-1.69-.29,3.29,3.29,0,0,1-1.23-.86,3.57,3.57,0,0,1-.76-1.35A6,6,0,0,1,74.34,203.93Zm4.06,3.3a1.33,1.33,0,0,0,.7-.18,1.41,1.41,0,0,0,.48-.56,3.33,3.33,0,0,0,.29-1,9.83,9.83,0,0,0,.09-1.43,13.56,13.56,0,0,0-.08-1.52,4.75,4.75,0,0,0-.27-1.11,1.64,1.64,0,0,0-.49-.68,1.26,1.26,0,0,0-.75-.23,1.33,1.33,0,0,0-.7.18,1.36,1.36,0,0,0-.49.56,3.63,3.63,0,0,0-.3,1,9.83,9.83,0,0,0-.09,1.43,11.4,11.4,0,0,0,.09,1.52,4.07,4.07,0,0,0,.28,1.11,1.57,1.57,0,0,0,.5.68A1.21,1.21,0,0,0,78.4,207.23Z"/><path class="cls-1" d="M86.07,208.19l-2.43-7.37-.82-.2v-.94H87v.93l-1.14.21,1,3.83.38,1.69.36-1.69,1.44-5H91l1.46,5,.36,1.62.34-1.62,1-3.82L93,200.61v-.93h3.52v.93l-.87.21-2.28,7.37H91.53L90,203.33,89.68,202l-.28,1.31-1.48,4.86Z"/><path class="cls-1" d="M104.21,208.19l-2.43-7.37-.81-.2v-.94h4.17v.93l-1.14.21,1,3.83.38,1.69.37-1.69,1.43-5h1.92l1.46,5,.37,1.62.33-1.62,1-3.82-1.18-.22v-.93h3.53v.93l-.88.21-2.28,7.37h-1.83l-1.53-4.86-.32-1.31-.28,1.31-1.48,4.86Z"/><path class="cls-1" d="M115,208.07v-1l.9-.14v-9.78l-1.1-.19v-.85l2.85-.36h0l.45.34v3.45l-.11,1.17a4.65,4.65,0,0,1,.49-.39,4.7,4.7,0,0,1,.67-.38,4.64,4.64,0,0,1,.82-.28,3.54,3.54,0,0,1,.93-.12,3.11,3.11,0,0,1,1.19.2,1.58,1.58,0,0,1,.74.61,2.67,2.67,0,0,1,.39,1,8.17,8.17,0,0,1,.11,1.49V207l1,.14v1h-4.1v-.95l.81-.16v-4.09a7.35,7.35,0,0,0,0-.88,1.51,1.51,0,0,0-.2-.6.78.78,0,0,0-.39-.35,1.54,1.54,0,0,0-.65-.12,2,2,0,0,0-.47.06,3.09,3.09,0,0,0-.46.12c-.15.06-.29.11-.43.18a2.39,2.39,0,0,0-.33.2V207l1,.14v1Z"/><path class="cls-1" d="M125.11,205.85a2.26,2.26,0,0,1,.2-1,2.4,2.4,0,0,1,.53-.73,3.37,3.37,0,0,1,.81-.54,5,5,0,0,1,1-.36,6.8,6.8,0,0,1,1.11-.21,11.5,11.5,0,0,1,1.16-.08v-.35a1.66,1.66,0,0,0-.34-1.19,1.49,1.49,0,0,0-1.12-.36,5.35,5.35,0,0,0-.79.06c-.27,0-.52.1-.77.16s-.47.13-.67.2-.39.15-.53.22h0l-.43-1a3.21,3.21,0,0,1,.52-.33,6.9,6.9,0,0,1,.88-.39,8,8,0,0,1,1.13-.33,6,6,0,0,1,1.28-.14,4.62,4.62,0,0,1,1.38.18,2,2,0,0,1,.93.54,2.24,2.24,0,0,1,.52.92,4.8,4.8,0,0,1,.16,1.33v4.57H133v.9l-.35.07a2.55,2.55,0,0,1-.45.09l-.53.07a5.68,5.68,0,0,1-.59,0l-.45,0a.63.63,0,0,1-.3-.1.5.5,0,0,1-.17-.23,1.47,1.47,0,0,1-.05-.41v-.42a2.67,2.67,0,0,1-.34.37,2.8,2.8,0,0,1-.53.39,3.52,3.52,0,0,1-.71.3,3,3,0,0,1-.87.12,3,3,0,0,1-1-.14,2.07,2.07,0,0,1-.8-.43,1.91,1.91,0,0,1-.54-.75A2.69,2.69,0,0,1,125.11,205.85Zm3.48,1a1.13,1.13,0,0,0,.3,0,2.8,2.8,0,0,0,.36-.1,2.21,2.21,0,0,0,.35-.16,1.41,1.41,0,0,0,.31-.21V203.9a4.5,4.5,0,0,0-1.19.13,2.34,2.34,0,0,0-.76.35,1.31,1.31,0,0,0-.41.51,1.54,1.54,0,0,0-.12.61,1.46,1.46,0,0,0,.3,1A1.08,1.08,0,0,0,128.59,206.83Z"/><path class="cls-1" d="M134.65,206.32v-5.4h-1v-.83l.18-.06.27-.1.24-.1a.83.83,0,0,0,.14-.07,2.25,2.25,0,0,0,.52-.7,3.68,3.68,0,0,0,.16-.34l.18-.41c.05-.14.11-.28.15-.42l.13-.38h1.3l0,2.17h2.16v1.24h-2.16V205c0,.39,0,.7,0,.93a1.52,1.52,0,0,0,.09.52.36.36,0,0,0,.22.23,1.35,1.35,0,0,0,.4.05h0l.37,0,.38-.07a2.79,2.79,0,0,0,.34-.09l.26-.08h0l.34.86a3.19,3.19,0,0,1-.54.33,4.1,4.1,0,0,1-.7.31,6.38,6.38,0,0,1-.81.22,5,5,0,0,1-.86.08h0a2.49,2.49,0,0,1-.82-.12,1.37,1.37,0,0,1-.55-.37,1.52,1.52,0,0,1-.3-.61A2.92,2.92,0,0,1,134.65,206.32Z"/><path class="cls-1" d="M144.67,208.07v-1l.9-.14v-9.78l-1.1-.19v-.85l2.85-.36h0l.45.34v3.45l-.12,1.17a4.89,4.89,0,0,1,.5-.39,4.21,4.21,0,0,1,.67-.38,4.82,4.82,0,0,1,.81-.28,3.61,3.61,0,0,1,.94-.12,3.05,3.05,0,0,1,1.18.2,1.61,1.61,0,0,1,.75.61,2.84,2.84,0,0,1,.39,1,9.17,9.17,0,0,1,.11,1.49V207l1,.14v1H150v-.95l.81-.16v-4.09a5.73,5.73,0,0,0,0-.88,1.51,1.51,0,0,0-.19-.6.85.85,0,0,0-.4-.35,1.51,1.51,0,0,0-.65-.12,1.88,1.88,0,0,0-.46.06,3.23,3.23,0,0,0-.47.12,4.08,4.08,0,0,0-.42.18,2.39,2.39,0,0,0-.33.2V207l1,.14v1Z"/><path class="cls-1" d="M158.79,208.24a4.48,4.48,0,0,1-1.77-.32,3.12,3.12,0,0,1-1.23-.9,3.63,3.63,0,0,1-.7-1.37,6,6,0,0,1-.23-1.74,5.27,5.27,0,0,1,.29-1.84,3.94,3.94,0,0,1,.81-1.38,3.71,3.71,0,0,1,1.27-.86,4.32,4.32,0,0,1,1.64-.3c2,0,3.09,1,3.17,3,0,.34,0,.64,0,.91a4.1,4.1,0,0,1-.08.69h-4.78a4.7,4.7,0,0,0,.21,1.24,2.43,2.43,0,0,0,.46.83,1.67,1.67,0,0,0,.68.47,2.39,2.39,0,0,0,.86.15,3.88,3.88,0,0,0,.7-.06,4.61,4.61,0,0,0,.59-.15,2.89,2.89,0,0,0,.5-.2,3.44,3.44,0,0,0,.39-.21l.38.89a3,3,0,0,1-.51.4,5.24,5.24,0,0,1-.75.38,4.85,4.85,0,0,1-.91.29A4.07,4.07,0,0,1,158.79,208.24Zm-.2-7.73a1.35,1.35,0,0,0-.53.1,1,1,0,0,0-.43.39,2.59,2.59,0,0,0-.31.79,7.09,7.09,0,0,0-.15,1.32h2.63a.49.49,0,0,1,0-.11v-.13a.71.71,0,0,0,0-.14v-.1a6.61,6.61,0,0,0,0-.76,2.7,2.7,0,0,0-.19-.68,1.41,1.41,0,0,0-.37-.49A1,1,0,0,0,158.59,200.51Z"/><path class="cls-1" d="M163.05,205.85a2.15,2.15,0,0,1,.73-1.69,3.12,3.12,0,0,1,.8-.54,5.29,5.29,0,0,1,1-.36,6.72,6.72,0,0,1,1.12-.21,11.11,11.11,0,0,1,1.15-.08v-.35a1.66,1.66,0,0,0-.34-1.19,1.47,1.47,0,0,0-1.11-.36,5.39,5.39,0,0,0-.8.06c-.26,0-.52.1-.76.16s-.47.13-.68.2-.39.15-.53.22h0l-.43-1a3.21,3.21,0,0,1,.52-.33,7.59,7.59,0,0,1,.88-.39,8,8,0,0,1,1.13-.33,6.12,6.12,0,0,1,1.28-.14,4.65,4.65,0,0,1,1.39.18,2.07,2.07,0,0,1,.92.54,2.24,2.24,0,0,1,.52.92,4.8,4.8,0,0,1,.16,1.33v4.57h.91v.9l-.34.07a2.88,2.88,0,0,1-.46.09l-.53.07a5.68,5.68,0,0,1-.59,0l-.45,0a.67.67,0,0,1-.3-.1.48.48,0,0,1-.16-.23,1.17,1.17,0,0,1-.05-.41v-.42a3.74,3.74,0,0,1-.35.37,2.8,2.8,0,0,1-.53.39,3.3,3.3,0,0,1-.71.3,3,3,0,0,1-.87.12,3.08,3.08,0,0,1-1-.14,2.07,2.07,0,0,1-.8-.43,2.13,2.13,0,0,1-.54-.75A2.69,2.69,0,0,1,163.05,205.85Zm3.48,1a1.24,1.24,0,0,0,.3,0,2.68,2.68,0,0,0,.35-.1,2.83,2.83,0,0,0,.36-.16,1.34,1.34,0,0,0,.3-.21V203.9a4.5,4.5,0,0,0-1.19.13,2.34,2.34,0,0,0-.76.35,1.31,1.31,0,0,0-.41.51,1.54,1.54,0,0,0-.12.61,1.46,1.46,0,0,0,.3,1A1.12,1.12,0,0,0,166.53,206.83Z"/><path class="cls-1" d="M171.78,208.07v-1l1.06-.14v-5.64l-1-.31v-1.1l2.51-.36h0l.39.32v1.75h0a3.25,3.25,0,0,1,.32-.59,4,4,0,0,1,.57-.69,3.55,3.55,0,0,1,.79-.57,2,2,0,0,1,1-.24,1.68,1.68,0,0,1,.35,0l.2,0v2.54a1.59,1.59,0,0,0-.42-.13,3.88,3.88,0,0,0-.81-.07l-.51,0-.48.08a2.83,2.83,0,0,0-.4.11,1.13,1.13,0,0,0-.27.13V207l1.82.17v.95Z"/><path class="cls-1" d="M179.75,206.32v-5.4h-1v-.83l.19-.06.26-.1.25-.1.14-.07a2.42,2.42,0,0,0,.52-.7c0-.1.1-.21.16-.34s.11-.27.17-.41l.16-.42c.05-.14.09-.27.12-.38H182l0,2.17h2.15v1.24H182V205c0,.39,0,.7,0,.93a1.88,1.88,0,0,0,.08.52.36.36,0,0,0,.22.23,1.4,1.4,0,0,0,.4.05h0l.37,0,.38-.07a2.79,2.79,0,0,0,.34-.09l.26-.08h0l.35.86a5.15,5.15,0,0,1-1.25.64,6,6,0,0,1-.81.22,4.91,4.91,0,0,1-.86.08h0a2.51,2.51,0,0,1-.83-.12,1.37,1.37,0,0,1-.55-.37,1.52,1.52,0,0,1-.3-.61A3.35,3.35,0,0,1,179.75,206.32Z"/><path class="cls-1" d="M25.87,226.07v-1l.9-.14v-9.78l-1.1-.19v-.85l2.85-.36h0l.45.34v3.45l-.12,1.17a6.32,6.32,0,0,1,.5-.39,4.7,4.7,0,0,1,.67-.38,4.82,4.82,0,0,1,.81-.28,3.61,3.61,0,0,1,.94-.12,3.14,3.14,0,0,1,1.19.2,1.58,1.58,0,0,1,.74.61,2.84,2.84,0,0,1,.39,1,9.17,9.17,0,0,1,.11,1.49V225l1,.14v1h-4.1v-.95L32,225v-4.09a5.73,5.73,0,0,0,0-.88,1.51,1.51,0,0,0-.19-.6.85.85,0,0,0-.4-.35,1.46,1.46,0,0,0-.64-.12,1.89,1.89,0,0,0-.47.06,3.59,3.59,0,0,0-.47.12,4.08,4.08,0,0,0-.42.18,2.39,2.39,0,0,0-.33.2V225l1,.14v1Z"/><path class="cls-1" d="M40,226.24a4.48,4.48,0,0,1-1.77-.32A3.12,3.12,0,0,1,37,225a3.63,3.63,0,0,1-.7-1.37,6.37,6.37,0,0,1-.23-1.74,5.51,5.51,0,0,1,.29-1.84,3.81,3.81,0,0,1,.82-1.38,3.58,3.58,0,0,1,1.26-.86,4.35,4.35,0,0,1,1.64-.3c2,0,3.09,1,3.17,3,0,.34,0,.64,0,.91a4.1,4.1,0,0,1-.08.69H38.38a5.15,5.15,0,0,0,.21,1.24,2.29,2.29,0,0,0,.47.83,1.64,1.64,0,0,0,.67.47,2.39,2.39,0,0,0,.86.15,3.88,3.88,0,0,0,.7-.06,5.26,5.26,0,0,0,.6-.15,3.13,3.13,0,0,0,.49-.2,3.44,3.44,0,0,0,.39-.21l.38.89a3,3,0,0,1-.51.4,5.24,5.24,0,0,1-.75.38,5,5,0,0,1-.9.29A4.21,4.21,0,0,1,40,226.24Zm-.2-7.73a1.35,1.35,0,0,0-.53.1,1,1,0,0,0-.43.39,2.59,2.59,0,0,0-.31.79,7.09,7.09,0,0,0-.15,1.32H41a.49.49,0,0,1,0-.11v-.13a.71.71,0,0,0,0-.14v-.1a6.61,6.61,0,0,0-.05-.76,2.7,2.7,0,0,0-.19-.68,1.41,1.41,0,0,0-.37-.49A1,1,0,0,0,39.79,218.51Z"/><path class="cls-1" d="M44.25,223.85a2.15,2.15,0,0,1,.73-1.69,3.12,3.12,0,0,1,.8-.54,5.29,5.29,0,0,1,1-.36,6.72,6.72,0,0,1,1.12-.21,11.11,11.11,0,0,1,1.16-.08v-.35a1.71,1.71,0,0,0-.34-1.19,1.49,1.49,0,0,0-1.12-.36,5.39,5.39,0,0,0-.8.06c-.26,0-.52.1-.76.16s-.47.13-.68.2l-.53.22h0l-.43-1a3.74,3.74,0,0,1,.52-.33,7.59,7.59,0,0,1,.88-.39,8,8,0,0,1,1.13-.33,6.14,6.14,0,0,1,1.29-.14,4.62,4.62,0,0,1,1.38.18,2.07,2.07,0,0,1,.92.54,2.13,2.13,0,0,1,.52.92,4.8,4.8,0,0,1,.16,1.33v4.57h.91v.9l-.34.07a2.88,2.88,0,0,1-.46.09l-.53.07a5.68,5.68,0,0,1-.59,0l-.45,0a.67.67,0,0,1-.3-.1.48.48,0,0,1-.16-.23,1.17,1.17,0,0,1,0-.41v-.42a3.74,3.74,0,0,1-.35.37,2.51,2.51,0,0,1-.53.39,3.3,3.3,0,0,1-.71.3,3,3,0,0,1-.87.12,3.08,3.08,0,0,1-1-.14,2.14,2.14,0,0,1-.8-.43,2,2,0,0,1-.53-.75A2.52,2.52,0,0,1,44.25,223.85Zm3.48,1a1.18,1.18,0,0,0,.3,0,2.68,2.68,0,0,0,.35-.1,2.83,2.83,0,0,0,.36-.16,1.69,1.69,0,0,0,.31-.21V221.9a4.4,4.4,0,0,0-1.19.13,2.4,2.4,0,0,0-.77.35,1.31,1.31,0,0,0-.41.51,1.54,1.54,0,0,0-.12.61,1.46,1.46,0,0,0,.3,1A1.12,1.12,0,0,0,47.73,224.83Z"/><path class="cls-1" d="M52.76,226.07v-1l1.06-.14v-9.78L52.73,215v-.85l2.86-.36h0l.46.34V225l1.1.14v1Z"/><path class="cls-1" d="M59,224.32v-5.4h-1v-.83l.18-.06.27-.1.24-.1a.83.83,0,0,0,.14-.07,2.25,2.25,0,0,0,.52-.7l.16-.34.18-.41.15-.42.13-.38h1.3l0,2.17h2.16v1.24H61.23V223c0,.39,0,.7,0,.93a1.52,1.52,0,0,0,.09.52.36.36,0,0,0,.22.23,1.35,1.35,0,0,0,.4.05h0l.37,0,.38-.07a2.79,2.79,0,0,0,.34-.09l.26-.08h0l.34.86a3.19,3.19,0,0,1-.54.33,4.1,4.1,0,0,1-.7.31,6.87,6.87,0,0,1-.81.22,5.1,5.1,0,0,1-.86.08h0a2.49,2.49,0,0,1-.82-.12,1.37,1.37,0,0,1-.55-.37,1.67,1.67,0,0,1-.31-.61A3.37,3.37,0,0,1,59,224.32Z"/><path class="cls-1" d="M64.28,226.07v-1l.9-.14v-9.78l-1.1-.19v-.85l2.85-.36h0l.44.34,0,3.45-.12,1.17a4.89,4.89,0,0,1,.5-.39,4.21,4.21,0,0,1,.67-.38,4.82,4.82,0,0,1,.81-.28,3.61,3.61,0,0,1,.94-.12,3.05,3.05,0,0,1,1.18.2,1.61,1.61,0,0,1,.75.61,2.67,2.67,0,0,1,.38,1,8.09,8.09,0,0,1,.12,1.49V225l1,.14v1h-4.1v-.95l.81-.16v-4.09a5.73,5.73,0,0,0-.05-.88,1.51,1.51,0,0,0-.19-.6.85.85,0,0,0-.4-.35,1.51,1.51,0,0,0-.65-.12,1.88,1.88,0,0,0-.46.06,3.23,3.23,0,0,0-.47.12,4.08,4.08,0,0,0-.42.18,2.39,2.39,0,0,0-.33.2V225l1,.14v1Z"/><path class="cls-2" d="M79.31,226.07v-1l1-.14v-5.64l-1-.31v-1.1l2.5-.36h0l.38.32v1.75h0a2.72,2.72,0,0,1,.32-.59,3.6,3.6,0,0,1,.57-.69,3.27,3.27,0,0,1,.78-.57,2,2,0,0,1,1-.24,1.68,1.68,0,0,1,.35,0l.2,0v2.54a1.35,1.35,0,0,0-.42-.13,3.88,3.88,0,0,0-.81-.07l-.51,0-.48.08a3.26,3.26,0,0,0-.4.11,1.13,1.13,0,0,0-.27.13V225l1.82.17v.95Z"/><path class="cls-2" d="M90.28,226.24a4.56,4.56,0,0,1-1.78-.32,3.16,3.16,0,0,1-1.22-.9,3.8,3.8,0,0,1-.71-1.37,6.38,6.38,0,0,1-.22-1.74,5.27,5.27,0,0,1,.29-1.84,3.94,3.94,0,0,1,.81-1.38,3.71,3.71,0,0,1,1.27-.86,4.32,4.32,0,0,1,1.64-.3c2,0,3.08,1,3.17,3,0,.34,0,.64,0,.91a4.1,4.1,0,0,1-.08.69H88.67a4.32,4.32,0,0,0,.21,1.24,2.43,2.43,0,0,0,.46.83,1.67,1.67,0,0,0,.68.47,2.39,2.39,0,0,0,.86.15,3.88,3.88,0,0,0,.7-.06,4.61,4.61,0,0,0,.59-.15,2.89,2.89,0,0,0,.5-.2,3.44,3.44,0,0,0,.39-.21l.38.89a3,3,0,0,1-.51.4,5.24,5.24,0,0,1-.75.38,4.85,4.85,0,0,1-.91.29A4.07,4.07,0,0,1,90.28,226.24Zm-.2-7.73a1.35,1.35,0,0,0-.53.1,1,1,0,0,0-.43.39,2.59,2.59,0,0,0-.31.79,7.09,7.09,0,0,0-.15,1.32h2.63V221a.53.53,0,0,0,0-.13c0-.05,0-.1,0-.14v-.1a5,5,0,0,0-.06-.76,2.34,2.34,0,0,0-.18-.68,1.32,1.32,0,0,0-.38-.49A.91.91,0,0,0,90.08,218.51Z"/><path class="cls-2" d="M94.54,223.85a2.25,2.25,0,0,1,.19-1,2.4,2.4,0,0,1,.53-.73,3.37,3.37,0,0,1,.81-.54,5,5,0,0,1,1-.36,6.72,6.72,0,0,1,1.12-.21,11.11,11.11,0,0,1,1.15-.08v-.35a1.66,1.66,0,0,0-.34-1.19,1.47,1.47,0,0,0-1.11-.36,5.39,5.39,0,0,0-.8.06c-.27,0-.52.1-.76.16s-.47.13-.68.2-.39.15-.53.22h0l-.43-1a3.21,3.21,0,0,1,.52-.33,7.59,7.59,0,0,1,.88-.39,8,8,0,0,1,1.13-.33,6,6,0,0,1,1.28-.14,4.53,4.53,0,0,1,1.38.18,2,2,0,0,1,.93.54,2.24,2.24,0,0,1,.52.92,4.8,4.8,0,0,1,.16,1.33v4.57h.91v.9l-.34.07a2.88,2.88,0,0,1-.46.09l-.53.07a5.68,5.68,0,0,1-.59,0l-.45,0a.67.67,0,0,1-.3-.1.42.42,0,0,1-.16-.23,1.15,1.15,0,0,1-.06-.41v-.42a2.67,2.67,0,0,1-.34.37,2.8,2.8,0,0,1-.53.39,3.3,3.3,0,0,1-.71.3,3,3,0,0,1-.87.12,3,3,0,0,1-1-.14,2.07,2.07,0,0,1-.8-.43,2,2,0,0,1-.54-.75A2.69,2.69,0,0,1,94.54,223.85Zm3.48,1a1.24,1.24,0,0,0,.3,0,3.21,3.21,0,0,0,.35-.1,2.83,2.83,0,0,0,.36-.16,1.34,1.34,0,0,0,.3-.21V221.9a4.5,4.5,0,0,0-1.19.13,2.34,2.34,0,0,0-.76.35,1.31,1.31,0,0,0-.41.51,1.54,1.54,0,0,0-.12.61,1.46,1.46,0,0,0,.3,1A1.09,1.09,0,0,0,98,224.83Z"/><path class="cls-2" d="M103.05,226.07v-1l1.06-.14v-9.78L103,215v-.85l2.86-.36h0l.46.34V225l1.11.14v1Z"/><path class="cls-2" d="M108.23,226.07v-1l1.06-.14v-9.78L108.2,215v-.85l2.87-.36h0l.46.34V225l1.11.14v1Z"/><path class="cls-2" d="M115.38,229.81h-.32l-.35,0-.3,0-.19,0v-1.8a1.56,1.56,0,0,0,.43.12,3.49,3.49,0,0,0,.77.07,3,3,0,0,0,.48,0,1.33,1.33,0,0,0,.54-.26,2.61,2.61,0,0,0,.56-.61,5.17,5.17,0,0,0,.56-1.11h-1.32l-2.64-7.25-.67-.2v-.94h4.25v.93l-1.11.21,1.4,4.35.57,2,.5-2,1.11-4.35-1-.21v-.93h3.24v.94l-.68.2-.45,1.44-.48,1.56-.47,1.54c-.16.49-.3.95-.43,1.36l-.33,1.05c-.1.28-.17.48-.21.58a7.39,7.39,0,0,1-1.47,2.58A2.74,2.74,0,0,1,115.38,229.81Z"/><path class="cls-2" d="M127.43,226.07v-.95l.91-.17v-5.64l-1-.31v-1.1l2.59-.36h0l.39.32v.87a3.62,3.62,0,0,1,.59-.44,6,6,0,0,1,.76-.38,6.22,6.22,0,0,1,.84-.25,3.3,3.3,0,0,1,.8-.1,2.82,2.82,0,0,1,1.34.27,1.72,1.72,0,0,1,.76.87,3.46,3.46,0,0,1,.54-.39,5.52,5.52,0,0,1,.73-.36,7.05,7.05,0,0,1,.85-.28,3.69,3.69,0,0,1,.86-.11,3.19,3.19,0,0,1,1.15.18,1.61,1.61,0,0,1,.74.57,2.7,2.7,0,0,1,.39,1,8.44,8.44,0,0,1,.12,1.54V225l1,.17v.95h-4.06v-.95l.77-.17v-4a6.46,6.46,0,0,0-.06-1,1.66,1.66,0,0,0-.21-.63.9.9,0,0,0-.39-.36,1.67,1.67,0,0,0-.63-.1,1.51,1.51,0,0,0-.4,0,2.71,2.71,0,0,0-.44.13,3.07,3.07,0,0,0-.42.17,2,2,0,0,0-.36.19,6.16,6.16,0,0,1,.08.67c0,.24,0,.5,0,.79V225l1,.16v.95h-4.11v-.95l.88-.16v-4.09a5.61,5.61,0,0,0-.06-.88,1.37,1.37,0,0,0-.2-.6.8.8,0,0,0-.38-.35,1.46,1.46,0,0,0-.62-.12,1.88,1.88,0,0,0-.46.06,3.59,3.59,0,0,0-.47.12,3.15,3.15,0,0,0-.41.18,2.39,2.39,0,0,0-.33.2V225l1,.17v.95Z"/><path class="cls-2" d="M146.58,226.24a4.48,4.48,0,0,1-1.77-.32,3.12,3.12,0,0,1-1.23-.9,3.63,3.63,0,0,1-.7-1.37,6,6,0,0,1-.23-1.74,5.51,5.51,0,0,1,.29-1.84,3.94,3.94,0,0,1,.81-1.38,3.71,3.71,0,0,1,1.27-.86,4.35,4.35,0,0,1,1.64-.3c2,0,3.09,1,3.17,3,0,.34,0,.64,0,.91a4.1,4.1,0,0,1-.08.69H145a5.15,5.15,0,0,0,.21,1.24,2.43,2.43,0,0,0,.46.83,1.67,1.67,0,0,0,.68.47,2.39,2.39,0,0,0,.86.15,3.88,3.88,0,0,0,.7-.06,5.26,5.26,0,0,0,.6-.15,3.13,3.13,0,0,0,.49-.2,3.44,3.44,0,0,0,.39-.21l.38.89a3,3,0,0,1-.51.4,5.24,5.24,0,0,1-.75.38,4.85,4.85,0,0,1-.91.29A4.07,4.07,0,0,1,146.58,226.24Zm-.2-7.73a1.35,1.35,0,0,0-.53.1,1,1,0,0,0-.43.39,2.59,2.59,0,0,0-.31.79,7.09,7.09,0,0,0-.15,1.32h2.63a.49.49,0,0,1,0-.11v-.13a.71.71,0,0,0,0-.14v-.1a6.61,6.61,0,0,0-.05-.76,2.7,2.7,0,0,0-.19-.68,1.41,1.41,0,0,0-.37-.49A1,1,0,0,0,146.38,218.51Z"/><path class="cls-2" d="M150.84,223.85a2.15,2.15,0,0,1,.73-1.69,3.12,3.12,0,0,1,.8-.54,5.29,5.29,0,0,1,1-.36,6.72,6.72,0,0,1,1.12-.21,11.11,11.11,0,0,1,1.15-.08v-.35a1.66,1.66,0,0,0-.34-1.19,1.47,1.47,0,0,0-1.11-.36,5.39,5.39,0,0,0-.8.06c-.26,0-.52.1-.76.16s-.47.13-.68.2l-.53.22h0l-.43-1a3.74,3.74,0,0,1,.52-.33,7.59,7.59,0,0,1,.88-.39,8,8,0,0,1,1.13-.33,6.14,6.14,0,0,1,1.29-.14,4.62,4.62,0,0,1,1.38.18,2.07,2.07,0,0,1,.92.54,2.13,2.13,0,0,1,.52.92,4.8,4.8,0,0,1,.16,1.33v4.57h.91v.9l-.34.07a2.88,2.88,0,0,1-.46.09l-.53.07a5.68,5.68,0,0,1-.59,0l-.45,0a.67.67,0,0,1-.3-.1.48.48,0,0,1-.16-.23,1.17,1.17,0,0,1,0-.41v-.42a3.74,3.74,0,0,1-.35.37,2.51,2.51,0,0,1-.53.39,3.3,3.3,0,0,1-.71.3,3,3,0,0,1-.87.12,3.08,3.08,0,0,1-1-.14,2.14,2.14,0,0,1-.8-.43,2,2,0,0,1-.53-.75A2.52,2.52,0,0,1,150.84,223.85Zm3.48,1a1.24,1.24,0,0,0,.3,0,2.68,2.68,0,0,0,.35-.1,2.83,2.83,0,0,0,.36-.16,1.34,1.34,0,0,0,.3-.21V221.9a4.5,4.5,0,0,0-1.19.13,2.34,2.34,0,0,0-.76.35,1.31,1.31,0,0,0-.41.51,1.54,1.54,0,0,0-.12.61,1.46,1.46,0,0,0,.3,1A1.12,1.12,0,0,0,154.32,224.83Z"/><path class="cls-2" d="M159.63,226.07v-1l.94-.14v-5.64l-1-.31v-1.1l2.62-.36h0l.39.32v.87a4.71,4.71,0,0,1,.57-.44,4.86,4.86,0,0,1,.72-.37,4.8,4.8,0,0,1,.81-.26,4.11,4.11,0,0,1,.85-.1,3.14,3.14,0,0,1,1.18.19,1.6,1.6,0,0,1,.75.58,2.66,2.66,0,0,1,.4,1,9.43,9.43,0,0,1,.11,1.53v4l1,.14v1h-4.12v-1l.8-.14v-4.08a7.35,7.35,0,0,0,0-.88,1.7,1.7,0,0,0-.19-.6.83.83,0,0,0-.37-.35,1.4,1.4,0,0,0-.62-.12,2.05,2.05,0,0,0-.49.06,2.84,2.84,0,0,0-.85.34,2.77,2.77,0,0,0-.31.21V225l1,.14v1Z"/><path class="cls-2" d="M170.13,225.6v-2h1.35l.38,1.14a.74.74,0,0,0,.2.19,1.91,1.91,0,0,0,.32.17,2.58,2.58,0,0,0,.42.12,2.63,2.63,0,0,0,.49.05,1.65,1.65,0,0,0,.6-.09,1.1,1.1,0,0,0,.37-.22.79.79,0,0,0,.19-.31,1.4,1.4,0,0,0,.05-.34.88.88,0,0,0-.16-.53,1.59,1.59,0,0,0-.44-.41,6.43,6.43,0,0,0-.7-.36l-.91-.38a5.94,5.94,0,0,1-.91-.46,3,3,0,0,1-.68-.57,2.24,2.24,0,0,1-.44-.7,2.41,2.41,0,0,1-.15-.87,2.18,2.18,0,0,1,.21-1,2.15,2.15,0,0,1,.64-.77,3.38,3.38,0,0,1,1.06-.52,5.3,5.3,0,0,1,1.46-.18,5.52,5.52,0,0,1,.86.06c.25,0,.48.08.68.13l.57.16a3.24,3.24,0,0,0,.49.13v2l-1.27,0-.34-1a1,1,0,0,0-.39-.33,1.55,1.55,0,0,0-.73-.16,1.75,1.75,0,0,0-.55.07.89.89,0,0,0-.36.2.7.7,0,0,0-.19.27.81.81,0,0,0-.06.31.91.91,0,0,0,.2.62,1.68,1.68,0,0,0,.49.42,4,4,0,0,0,.66.29c.24.09.47.18.68.28s.63.29.93.45a4,4,0,0,1,.78.55,2.61,2.61,0,0,1,.54.73,2.28,2.28,0,0,1,.2,1,2.31,2.31,0,0,1-.21,1,2.09,2.09,0,0,1-.63.79,3,3,0,0,1-1.05.53,5.14,5.14,0,0,1-1.49.19,6.93,6.93,0,0,1-1.06-.08,8.74,8.74,0,0,1-.87-.19l-.7-.21Z"/><path class="cls-2" d="M179.69,226.2a1.57,1.57,0,0,1-.49-.08,1.11,1.11,0,0,1-.41-.24,1,1,0,0,1-.28-.37,1.06,1.06,0,0,1-.1-.48,1.3,1.3,0,0,1,.11-.56,1.41,1.41,0,0,1,.33-.44,1.35,1.35,0,0,1,.47-.3,1.57,1.57,0,0,1,.58-.1,1.82,1.82,0,0,1,.61.09,1.16,1.16,0,0,1,.4.26,1,1,0,0,1,.23.37,1.39,1.39,0,0,1,.07.46,1.48,1.48,0,0,1-.11.57,1.28,1.28,0,0,1-.32.44,1.41,1.41,0,0,1-.48.28A1.74,1.74,0,0,1,179.69,226.2Z"/></svg>