<svg id="Layer_1" data-name="Layer 1" xmlns="http://www.w3.org/2000/svg" viewBox="0 0 160 600"><defs><style>.cls-1{fill:#fff;}.cls-2{fill:#f1b533;}</style></defs><path class="cls-1" d="M20.09,374a8,8,0,0,1-1.34-.11c-.41-.07-.77-.14-1.1-.23l-.85-.24a2.26,2.26,0,0,0-.54-.13l.13-3H17.8l.34,1.93a1.77,1.77,0,0,0,.68.43,3.1,3.1,0,0,0,1.16.19,2.78,2.78,0,0,0,.93-.13,1.4,1.4,0,0,0,.62-.36,1.3,1.3,0,0,0,.35-.54,2,2,0,0,0,.1-.66,1.54,1.54,0,0,0-.18-.75,2.25,2.25,0,0,0-.51-.62,4.91,4.91,0,0,0-.82-.57c-.33-.18-.69-.37-1.1-.56s-.64-.33-1-.53a4.76,4.76,0,0,1-1-.77,4.06,4.06,0,0,1-.75-1.06,3.19,3.19,0,0,1-.29-1.42,2.8,2.8,0,0,1,.26-1.21,2.64,2.64,0,0,1,.78-1,3.8,3.8,0,0,1,1.28-.68,5.6,5.6,0,0,1,1.77-.25,7.2,7.2,0,0,1,1.05.08c.35.05.67.11,1,.17s.55.13.78.2l.52.12-.1,2.7H22.3L22,363.22a1,1,0,0,0-.2-.14,2.18,2.18,0,0,0-.34-.14l-.42-.1a2.32,2.32,0,0,0-.46,0,2.88,2.88,0,0,0-.83.11,1.5,1.5,0,0,0-.56.3,1.21,1.21,0,0,0-.31.46,1.54,1.54,0,0,0-.1.58,1.49,1.49,0,0,0,.2.8,2.3,2.3,0,0,0,.57.65,6.1,6.1,0,0,0,.86.56c.33.18.7.37,1.09.56s.7.37,1.06.59a5.14,5.14,0,0,1,1,.74,3.59,3.59,0,0,1,.73,1,2.61,2.61,0,0,1,.28,1.24,3.6,3.6,0,0,1-.24,1.26,3.21,3.21,0,0,1-.78,1.16,4,4,0,0,1-1.37.85A5.65,5.65,0,0,1,20.09,374Z"/><path class="cls-1" d="M25.51,371.39a2.54,2.54,0,0,1,.2-1,2.46,2.46,0,0,1,.57-.78,3.78,3.78,0,0,1,.86-.57,5.79,5.79,0,0,1,1.06-.39,9,9,0,0,1,1.19-.22q.62-.07,1.23-.09V368a1.82,1.82,0,0,0-.36-1.27,1.6,1.6,0,0,0-1.19-.38,5,5,0,0,0-.85.07c-.28,0-.55.1-.81.16s-.51.14-.73.22-.41.16-.56.23h0l-.46-1.05a3.72,3.72,0,0,1,.55-.34,6,6,0,0,1,.94-.42,8.72,8.72,0,0,1,1.21-.35,6.19,6.19,0,0,1,1.37-.15,4.81,4.81,0,0,1,1.47.19,2.21,2.21,0,0,1,1,.57,2.29,2.29,0,0,1,.56,1,4.93,4.93,0,0,1,.18,1.41v4.88h1v1l-.36.08c-.15,0-.31.07-.49.09l-.57.08c-.2,0-.41,0-.62,0l-.48,0a.8.8,0,0,1-.32-.11.52.52,0,0,1-.18-.25,1.3,1.3,0,0,1-.05-.43v-.46a3.31,3.31,0,0,1-.94.82,3.68,3.68,0,0,1-.75.32,3,3,0,0,1-.93.13,3.49,3.49,0,0,1-1-.15,2.33,2.33,0,0,1-.85-.46,2.16,2.16,0,0,1-.57-.8A2.85,2.85,0,0,1,25.51,371.39Zm3.71,1.05a1.33,1.33,0,0,0,.32,0,1.92,1.92,0,0,0,.37-.11,2.2,2.2,0,0,0,.39-.17,1.21,1.21,0,0,0,.32-.22v-2.58a4.69,4.69,0,0,0-1.27.14,2.35,2.35,0,0,0-.81.37,1.39,1.39,0,0,0-.44.54A1.75,1.75,0,0,0,28,371a1.58,1.58,0,0,0,.31,1.06A1.17,1.17,0,0,0,29.22,372.44Z"/><path class="cls-1" d="M34.7,373.77v-1l1.25-.21v-6.3H34.58v-.94L36,364.9v-.45a3.66,3.66,0,0,1,.38-1.67,4.3,4.3,0,0,1,2.33-2.07,4.06,4.06,0,0,1,1.46-.28,3.17,3.17,0,0,1,.61,0l.31.09v2.33a1.21,1.21,0,0,0-.29-.21,3.14,3.14,0,0,0-.41-.19,3.31,3.31,0,0,0-.5-.13,2.35,2.35,0,0,0-.54-.06,1.52,1.52,0,0,0-.38.05.58.58,0,0,0-.29.17.78.78,0,0,0-.19.32,1.94,1.94,0,0,0-.07.53v1.53h2v1.33h-2v6.34l1.74.17v1Z"/><path class="cls-1" d="M45.48,374a4.91,4.91,0,0,1-1.89-.34,3.46,3.46,0,0,1-1.31-1,3.94,3.94,0,0,1-.75-1.47,6.76,6.76,0,0,1-.24-1.86,5.62,5.62,0,0,1,.31-1.95,4,4,0,0,1,.87-1.47,3.79,3.79,0,0,1,1.35-.93,4.7,4.7,0,0,1,1.75-.32q3.24,0,3.38,3.17c0,.36,0,.68,0,1a4.51,4.51,0,0,1-.08.73H43.76a5.14,5.14,0,0,0,.23,1.32,2.79,2.79,0,0,0,.49.89,1.8,1.8,0,0,0,.73.5,2.63,2.63,0,0,0,.91.16,3.54,3.54,0,0,0,.75-.07,4.87,4.87,0,0,0,.63-.15A2.93,2.93,0,0,0,48,372l.41-.23.41.95a3.4,3.4,0,0,1-.54.42,4.6,4.6,0,0,1-.8.41,5.51,5.51,0,0,1-1,.31A4.16,4.16,0,0,1,45.48,374Zm-.21-8.25a1.47,1.47,0,0,0-.56.11,1,1,0,0,0-.46.41,2.51,2.51,0,0,0-.33.85,7,7,0,0,0-.16,1.4h2.8a.54.54,0,0,1,0-.11v-.15a.71.71,0,0,0,0-.14V368a5.49,5.49,0,0,0-.06-.8,2.23,2.23,0,0,0-.2-.73,1.33,1.33,0,0,0-.4-.53A1,1,0,0,0,45.27,365.7Z"/><path class="cls-1" d="M51.08,371.89v-5.75H50v-.89l.19-.06.29-.11.26-.1.15-.08a2.49,2.49,0,0,0,.55-.75c0-.1.11-.22.17-.36s.13-.28.19-.43l.16-.45c.06-.15.1-.29.14-.41h1.39l0,2.32h2.3v1.32h-2.3v4.33c0,.42,0,.75,0,1a1.8,1.8,0,0,0,.09.56.39.39,0,0,0,.23.24,1.27,1.27,0,0,0,.43.06h0l.4,0,.4-.08.37-.09.28-.09h0l.36.91a3.53,3.53,0,0,1-.57.36,5.13,5.13,0,0,1-.75.32,5.52,5.52,0,0,1-.87.24A4.7,4.7,0,0,1,53,374h0a2.51,2.51,0,0,1-.88-.13,1.38,1.38,0,0,1-.59-.4,1.61,1.61,0,0,1-.32-.64A3.41,3.41,0,0,1,51.08,371.89Z"/><path class="cls-1" d="M58.73,377.75h-.35l-.37,0-.32,0-.21-.05v-1.91a2.48,2.48,0,0,0,.47.13,3.88,3.88,0,0,0,.81.07,2.46,2.46,0,0,0,.52-.05,1.63,1.63,0,0,0,.57-.27,2.81,2.81,0,0,0,.6-.66,5.57,5.57,0,0,0,.6-1.18H59.64L56.83,366l-.71-.22v-1h4.52v1l-1.18.23L61,370.67l.61,2.12.53-2.12L63.28,366l-1-.23v-1h3.46v1L65,366l-.48,1.53L64,369.23c-.18.56-.34,1.11-.51,1.64s-.32,1-.45,1.45l-.36,1.12c-.1.31-.18.52-.22.63a8,8,0,0,1-1.56,2.74A2.9,2.9,0,0,1,58.73,377.75Z"/><path class="cls-1" d="M71.29,371.39a2.38,2.38,0,0,1,.21-1,2.19,2.19,0,0,1,.57-.78,3.51,3.51,0,0,1,.85-.57,5.79,5.79,0,0,1,1.06-.39,9,9,0,0,1,1.19-.22c.41-.05.82-.08,1.24-.09V368a1.82,1.82,0,0,0-.37-1.27,1.6,1.6,0,0,0-1.19-.38,5,5,0,0,0-.85.07c-.28,0-.55.1-.81.16s-.5.14-.73.22-.41.16-.56.23h0l-.46-1.05a3.72,3.72,0,0,1,.55-.34,6,6,0,0,1,.94-.42,9.14,9.14,0,0,1,1.21-.35,6.19,6.19,0,0,1,1.37-.15,4.81,4.81,0,0,1,1.47.19,2.25,2.25,0,0,1,1,.57,2.38,2.38,0,0,1,.55,1,4.93,4.93,0,0,1,.18,1.41v4.88h1v1l-.37.08c-.15,0-.31.07-.49.09l-.57.08c-.2,0-.41,0-.62,0l-.48,0a.86.86,0,0,1-.32-.11.52.52,0,0,1-.18-.25,1.63,1.63,0,0,1,0-.43v-.46a2.61,2.61,0,0,1-.37.4,2.9,2.9,0,0,1-.57.42,3.68,3.68,0,0,1-.75.32A3,3,0,0,1,74,374a3.49,3.49,0,0,1-1-.15,2.42,2.42,0,0,1-.85-.46,2.16,2.16,0,0,1-.57-.8A2.85,2.85,0,0,1,71.29,371.39ZM75,372.44a1.33,1.33,0,0,0,.32,0,1.92,1.92,0,0,0,.37-.11,2.2,2.2,0,0,0,.39-.17,1.46,1.46,0,0,0,.33-.22v-2.58a4.59,4.59,0,0,0-1.27.14,2.32,2.32,0,0,0-.82.37,1.36,1.36,0,0,0-.43.54,1.85,1.85,0,0,0,.18,1.71A1.17,1.17,0,0,0,75,372.44Z"/><path class="cls-1" d="M80.66,373.77v-1l1-.15v-6l-1.06-.33v-1.18l2.8-.38h0l.42.33v.93a4.61,4.61,0,0,1,.61-.46,5.45,5.45,0,0,1,.76-.4,5.75,5.75,0,0,1,.86-.27,4.06,4.06,0,0,1,.92-.11,3.48,3.48,0,0,1,1.25.2,1.71,1.71,0,0,1,.8.62,2.8,2.8,0,0,1,.42,1.11,8.46,8.46,0,0,1,.13,1.63v4.32l1.11.15v1h-4.4v-1l.85-.15v-4.36a8.28,8.28,0,0,0,0-.93,1.93,1.93,0,0,0-.2-.64.89.89,0,0,0-.4-.37,1.39,1.39,0,0,0-.65-.13,2.33,2.33,0,0,0-.53.06,2.81,2.81,0,0,0-.49.16,4.09,4.09,0,0,0-.42.2,2.35,2.35,0,0,0-.33.23v5.78l1.05.15v1Z"/><path class="cls-1" d="M95,373.94a3.58,3.58,0,0,1-1.36-.26,2.86,2.86,0,0,1-1.09-.81,3.78,3.78,0,0,1-.74-1.38,6.38,6.38,0,0,1-.26-2,5.9,5.9,0,0,1,.31-2,4.42,4.42,0,0,1,.92-1.54,4.07,4.07,0,0,1,1.45-1,5.06,5.06,0,0,1,2-.37c.22,0,.43,0,.64,0a5.58,5.58,0,0,1,.59.09v-2.66L96,361.87V361l3.3-.34h0l.48.37v11.67h.87v1l-.89.18a5.32,5.32,0,0,1-1.09.1,1.19,1.19,0,0,1-.75-.21,1,1,0,0,1-.26-.77v-.3a3.53,3.53,0,0,1-.47.48,2.92,2.92,0,0,1-.61.4,3.26,3.26,0,0,1-.74.29A3.38,3.38,0,0,1,95,373.94Zm1-1.41a1.93,1.93,0,0,0,.85-.18,1.75,1.75,0,0,0,.57-.41v-5.89a1.18,1.18,0,0,0-.44-.25,2.29,2.29,0,0,0-.73-.11,1.84,1.84,0,0,0-.8.18,1.72,1.72,0,0,0-.65.59,3.41,3.41,0,0,0-.45,1.1,7.88,7.88,0,0,0-.18,1.69,6.66,6.66,0,0,0,.1,1.49,3.26,3.26,0,0,0,.37,1,1.47,1.47,0,0,0,.58.58A1.61,1.61,0,0,0,96,372.53Z"/><path class="cls-1" d="M106.74,373.77v-1l1-.15V362.14l-1.17-.2V361l3-.39h0l.47.37,0,3.68-.12,1.24a5.26,5.26,0,0,1,.52-.41,4.09,4.09,0,0,1,.72-.4,4.92,4.92,0,0,1,.87-.31,4,4,0,0,1,1-.12,3.27,3.27,0,0,1,1.27.21,1.74,1.74,0,0,1,.79.65,2.8,2.8,0,0,1,.42,1.11,9,9,0,0,1,.12,1.58v4.33l1.1.15v1h-4.37v-1l.86-.17v-4.37a8.28,8.28,0,0,0,0-.93,1.72,1.72,0,0,0-.21-.64.89.89,0,0,0-.42-.37,1.55,1.55,0,0,0-.69-.13,2.2,2.2,0,0,0-.5.06,4.1,4.1,0,0,0-.5.14,3,3,0,0,0-.45.18,2.13,2.13,0,0,0-.35.22v5.83l1.07.15v1Z"/><path class="cls-1" d="M121.8,374a4.91,4.91,0,0,1-1.89-.34,3.54,3.54,0,0,1-1.31-1,3.94,3.94,0,0,1-.75-1.47,6.76,6.76,0,0,1-.24-1.86,5.62,5.62,0,0,1,.31-1.95,4,4,0,0,1,.87-1.47,3.79,3.79,0,0,1,1.35-.93,4.7,4.7,0,0,1,1.75-.32q3.24,0,3.38,3.17c0,.36,0,.68,0,1a4.51,4.51,0,0,1-.08.73h-5.11a5.14,5.14,0,0,0,.23,1.32,2.79,2.79,0,0,0,.49.89,1.8,1.8,0,0,0,.73.5,2.63,2.63,0,0,0,.91.16,3.54,3.54,0,0,0,.75-.07,4.87,4.87,0,0,0,.63-.15,2.93,2.93,0,0,0,.53-.21l.41-.23.41.95a3.4,3.4,0,0,1-.54.42,4.6,4.6,0,0,1-.8.41,5.51,5.51,0,0,1-1,.31A4.16,4.16,0,0,1,121.8,374Zm-.21-8.25a1.47,1.47,0,0,0-.56.11,1,1,0,0,0-.46.41,2.51,2.51,0,0,0-.33.85,7,7,0,0,0-.16,1.4h2.8a.54.54,0,0,1,0-.11v-.15a.71.71,0,0,0,0-.14V368a5.49,5.49,0,0,0-.06-.8,2.23,2.23,0,0,0-.2-.73,1.41,1.41,0,0,0-.39-.53A1.06,1.06,0,0,0,121.59,365.7Z"/><path class="cls-1" d="M126.34,371.39a2.38,2.38,0,0,1,.21-1,2.46,2.46,0,0,1,.57-.78A3.57,3.57,0,0,1,128,369a5.53,5.53,0,0,1,1.06-.39,8.66,8.66,0,0,1,1.19-.22q.61-.07,1.23-.09V368a1.82,1.82,0,0,0-.36-1.27,1.62,1.62,0,0,0-1.19-.38,4.8,4.8,0,0,0-.85.07c-.29,0-.56.1-.82.16s-.5.14-.72.22L127,367h0l-.46-1.05a4,4,0,0,1,.56-.34,5.58,5.58,0,0,1,.94-.42,8.33,8.33,0,0,1,1.21-.35,6.1,6.1,0,0,1,1.36-.15,4.93,4.93,0,0,1,1.48.19,2.21,2.21,0,0,1,1,.57,2.4,2.4,0,0,1,.56,1,5.34,5.34,0,0,1,.17,1.41v4.88h1v1l-.37.08a4.61,4.61,0,0,1-.48.09l-.57.08c-.21,0-.41,0-.63,0l-.48,0a.86.86,0,0,1-.32-.11.45.45,0,0,1-.17-.25,1.27,1.27,0,0,1-.06-.43v-.46a2.61,2.61,0,0,1-.37.4,2.82,2.82,0,0,1-.56.42,3.55,3.55,0,0,1-.76.32,3,3,0,0,1-.93.13,3.42,3.42,0,0,1-1-.15,2.26,2.26,0,0,1-.85-.46,2.18,2.18,0,0,1-.58-.8A2.85,2.85,0,0,1,126.34,371.39Zm3.71,1.05a1.27,1.27,0,0,0,.32,0,2,2,0,0,0,.38-.11,1.84,1.84,0,0,0,.38-.17,1.12,1.12,0,0,0,.33-.22v-2.58a4.64,4.64,0,0,0-1.27.14,2.5,2.5,0,0,0-.82.37,1.45,1.45,0,0,0-.43.54,1.83,1.83,0,0,0,.19,1.71A1.16,1.16,0,0,0,130.05,372.44Z"/><path class="cls-1" d="M135.66,373.77v-1l1.13-.15v-6l-1.06-.33v-1.18l2.67-.38h0l.42.33v1.87h0a3.72,3.72,0,0,1,.34-.63,5,5,0,0,1,.61-.73,3.48,3.48,0,0,1,.84-.61,2.09,2.09,0,0,1,1-.26l.38,0,.21,0v2.71a1.56,1.56,0,0,0-.45-.14,4.33,4.33,0,0,0-.86-.07,5.07,5.07,0,0,0-.55,0l-.51.08a2.43,2.43,0,0,0-.43.12l-.29.14v5l1.95.18v1Z"/><path class="cls-1" d="M144.16,371.89v-5.75h-1.1v-.89l.2-.06.28-.11.26-.1.15-.08a2.49,2.49,0,0,0,.56-.75c.05-.1.11-.22.17-.36l.18-.43.17-.45c.05-.15.1-.29.13-.41h1.39l0,2.32h2.29v1.32h-2.29v4.33c0,.42,0,.75,0,1a1.8,1.8,0,0,0,.09.56.39.39,0,0,0,.23.24,1.27,1.27,0,0,0,.43.06h0l.39,0,.41-.08.37-.09.27-.09h0l.37.91a4.2,4.2,0,0,1-.58.36,4.34,4.34,0,0,1-.75.32,5.71,5.71,0,0,1-.86.24,4.78,4.78,0,0,1-.92.09h0a2.59,2.59,0,0,1-.88-.13,1.34,1.34,0,0,1-.58-.4,1.62,1.62,0,0,1-.33-.64A3.9,3.9,0,0,1,144.16,371.89Z"/><path class="cls-1" d="M15.91,395.77v-1l1-.15V384.14l-1.18-.2V383l3-.39h0l.48.37v3.68l-.12,1.24a5.51,5.51,0,0,1,.53-.41,4.37,4.37,0,0,1,.71-.4,5.57,5.57,0,0,1,.87-.31,4.09,4.09,0,0,1,1-.12,3.25,3.25,0,0,1,1.26.21,1.77,1.77,0,0,1,.8.65,3,3,0,0,1,.41,1.11,9,9,0,0,1,.12,1.58v4.33l1.1.15v1H21.57v-1l.87-.17v-4.37a6.31,6.31,0,0,0-.06-.93,1.42,1.42,0,0,0-.21-.64.89.89,0,0,0-.42-.37,1.55,1.55,0,0,0-.69-.13,2.2,2.2,0,0,0-.5.06,3.5,3.5,0,0,0-.49.14,3,3,0,0,0-.45.18,2.84,2.84,0,0,0-.36.22v5.83l1.07.15v1Z"/><path class="cls-1" d="M31,396a4.92,4.92,0,0,1-1.9-.34,3.43,3.43,0,0,1-1.3-1,4.1,4.1,0,0,1-.76-1.47,6.76,6.76,0,0,1-.24-1.86,5.87,5.87,0,0,1,.31-1.95A4.28,4.28,0,0,1,28,387.9,4,4,0,0,1,29.3,387a4.7,4.7,0,0,1,1.75-.32q3.24,0,3.39,3.17c0,.36,0,.68,0,1a4.51,4.51,0,0,1-.08.73h-5.1a4.74,4.74,0,0,0,.23,1.32,2.45,2.45,0,0,0,.49.89,1.71,1.71,0,0,0,.72.5,2.73,2.73,0,0,0,.92.16,3.51,3.51,0,0,0,.74-.07,5.47,5.47,0,0,0,.64-.15,3.66,3.66,0,0,0,.53-.21l.41-.23.4.95a3,3,0,0,1-.54.42,4.87,4.87,0,0,1-.79.41,5.79,5.79,0,0,1-1,.31A4.22,4.22,0,0,1,31,396Zm-.21-8.25a1.52,1.52,0,0,0-.57.11,1,1,0,0,0-.46.41,3,3,0,0,0-.33.85,7.86,7.86,0,0,0-.16,1.4h2.81v-.11a.86.86,0,0,1,0-.15V390a7.31,7.31,0,0,0-.05-.8,2.87,2.87,0,0,0-.2-.73,1.43,1.43,0,0,0-.4-.53A1,1,0,0,0,30.76,387.7Z"/><path class="cls-1" d="M35.51,393.39a2.54,2.54,0,0,1,.2-1,2.46,2.46,0,0,1,.57-.78,3.78,3.78,0,0,1,.86-.57,5.79,5.79,0,0,1,1.06-.39,9,9,0,0,1,1.19-.22q.61-.07,1.23-.09V390a1.82,1.82,0,0,0-.36-1.27,1.6,1.6,0,0,0-1.19-.38,5,5,0,0,0-.85.07c-.28,0-.55.1-.81.16s-.51.14-.73.22-.41.16-.56.23h0l-.46-1.05a3.72,3.72,0,0,1,.55-.34,6,6,0,0,1,.94-.42,8.72,8.72,0,0,1,1.21-.35,6.19,6.19,0,0,1,1.37-.15,4.81,4.81,0,0,1,1.47.19,2.21,2.21,0,0,1,1,.57,2.29,2.29,0,0,1,.56,1,4.93,4.93,0,0,1,.18,1.41v4.88h1v1l-.36.08c-.15,0-.31.07-.49.09l-.57.08c-.2,0-.41,0-.62,0l-.48,0a.8.8,0,0,1-.32-.11.52.52,0,0,1-.18-.25,1.3,1.3,0,0,1-.05-.43v-.46a3.31,3.31,0,0,1-.94.82,3.68,3.68,0,0,1-.75.32,3,3,0,0,1-.93.13,3.49,3.49,0,0,1-1-.15,2.33,2.33,0,0,1-.85-.46,2.16,2.16,0,0,1-.57-.8A2.85,2.85,0,0,1,35.51,393.39Zm3.71,1.05a1.33,1.33,0,0,0,.32,0,1.92,1.92,0,0,0,.37-.11,2.2,2.2,0,0,0,.39-.17,1.21,1.21,0,0,0,.32-.22v-2.58a4.69,4.69,0,0,0-1.27.14,2.35,2.35,0,0,0-.81.37,1.39,1.39,0,0,0-.44.54A1.75,1.75,0,0,0,38,393a1.58,1.58,0,0,0,.31,1.06A1.17,1.17,0,0,0,39.22,394.44Z"/><path class="cls-1" d="M44.58,395.77v-1l1.14-.15V384.14l-1.17-.2V383l3.06-.39h0l.49.37v11.56l1.18.15v1Z"/><path class="cls-1" d="M51.21,393.89v-5.75h-1.1v-.89l.2-.06.28-.11.26-.1.15-.08a2.33,2.33,0,0,0,.55-.75c.06-.1.11-.22.18-.36l.18-.43.17-.45.13-.41H53.6l0,2.32h2.3v1.32h-2.3v4.33c0,.42,0,.75,0,1a2.09,2.09,0,0,0,.1.56.37.37,0,0,0,.23.24,1.19,1.19,0,0,0,.43.06h0l.39,0,.41-.08.36-.09.28-.09h0l.37.91a4.2,4.2,0,0,1-.58.36,5.13,5.13,0,0,1-.75.32,5.52,5.52,0,0,1-.87.24,4.68,4.68,0,0,1-.91.09h0a2.55,2.55,0,0,1-.88-.13,1.29,1.29,0,0,1-.58-.4,1.62,1.62,0,0,1-.33-.64A3.41,3.41,0,0,1,51.21,393.89Z"/><path class="cls-1" d="M56.87,395.77v-1l1-.15V384.14l-1.17-.2V383l3-.39h0l.48.37v3.68l-.12,1.24a4.49,4.49,0,0,1,.53-.41,4,4,0,0,1,.71-.4,5.57,5.57,0,0,1,.87-.31,4.09,4.09,0,0,1,1-.12,3.25,3.25,0,0,1,1.26.21,1.77,1.77,0,0,1,.8.65,3,3,0,0,1,.41,1.11,9,9,0,0,1,.12,1.58v4.33l1.1.15v1H62.54v-1l.87-.17v-4.37a6.31,6.31,0,0,0-.06-.93,1.56,1.56,0,0,0-.21-.64.89.89,0,0,0-.42-.37,1.55,1.55,0,0,0-.69-.13,2.2,2.2,0,0,0-.5.06,4.1,4.1,0,0,0-.5.14l-.45.18a2.67,2.67,0,0,0-.35.22v5.83l1.07.15v1Z"/><path class="cls-1" d="M72.7,393.39a2.38,2.38,0,0,1,.21-1,2.46,2.46,0,0,1,.57-.78,3.71,3.71,0,0,1,.85-.57,5.89,5.89,0,0,1,1.07-.39,8.8,8.8,0,0,1,1.18-.22c.42-.05.83-.08,1.24-.09V390a1.82,1.82,0,0,0-.36-1.27,1.63,1.63,0,0,0-1.2-.38,4.76,4.76,0,0,0-.84.07c-.29,0-.56.1-.82.16s-.5.14-.72.22l-.57.23h0l-.46-1.05a4,4,0,0,1,.56-.34,5.83,5.83,0,0,1,.93-.42,8.87,8.87,0,0,1,1.22-.35,6.1,6.1,0,0,1,1.36-.15,4.93,4.93,0,0,1,1.48.19,2.21,2.21,0,0,1,1,.57,2.28,2.28,0,0,1,.55,1,4.93,4.93,0,0,1,.18,1.41v4.88h1v1l-.37.08c-.14,0-.31.07-.48.09l-.57.08c-.21,0-.41,0-.63,0l-.48,0a.86.86,0,0,1-.32-.11.45.45,0,0,1-.17-.25,1.27,1.27,0,0,1-.06-.43v-.46a2.61,2.61,0,0,1-.37.4,2.82,2.82,0,0,1-.56.42,3.77,3.77,0,0,1-.76.32,3,3,0,0,1-.93.13,3.53,3.53,0,0,1-1-.15,2.29,2.29,0,0,1-.84-.46,2.18,2.18,0,0,1-.58-.8A2.85,2.85,0,0,1,72.7,393.39Zm3.71,1.05a1.27,1.27,0,0,0,.32,0,2,2,0,0,0,.38-.11,1.84,1.84,0,0,0,.38-.17,1.12,1.12,0,0,0,.33-.22v-2.58a4.59,4.59,0,0,0-1.27.14,2.5,2.5,0,0,0-.82.37,1.45,1.45,0,0,0-.43.54,1.83,1.83,0,0,0,.19,1.71A1.16,1.16,0,0,0,76.41,394.44Z"/><path class="cls-1" d="M82,395.77v-1l1.13-.15v-6l-1.07-.33v-1.18l2.68-.38h0l.42.33v1.87h0a3.72,3.72,0,0,1,.34-.63,5,5,0,0,1,.61-.73,3.48,3.48,0,0,1,.84-.61,2.09,2.09,0,0,1,1-.26l.37,0,.22,0v2.71a1.56,1.56,0,0,0-.45-.14,4.33,4.33,0,0,0-.86-.07,4.93,4.93,0,0,0-.55,0l-.51.08a2.43,2.43,0,0,0-.43.12l-.29.14v5l2,.18v1Z"/><path class="cls-1" d="M93.73,396a4.92,4.92,0,0,1-1.9-.34,3.43,3.43,0,0,1-1.3-1,4,4,0,0,1-.76-1.47,6.76,6.76,0,0,1-.24-1.86,5.62,5.62,0,0,1,.31-1.95,4,4,0,0,1,.87-1.47,3.88,3.88,0,0,1,1.35-.93,4.7,4.7,0,0,1,1.75-.32q3.24,0,3.38,3.17c0,.36,0,.68,0,1a4.51,4.51,0,0,1-.08.73H92a4.77,4.77,0,0,0,.22,1.32,2.62,2.62,0,0,0,.5.89,1.71,1.71,0,0,0,.72.5,2.69,2.69,0,0,0,.92.16,3.51,3.51,0,0,0,.74-.07,5.47,5.47,0,0,0,.64-.15,3.66,3.66,0,0,0,.53-.21l.41-.23.4.95a3.4,3.4,0,0,1-.54.42,4.6,4.6,0,0,1-.8.41,5.51,5.51,0,0,1-1,.31A4.14,4.14,0,0,1,93.73,396Zm-.22-8.25a1.47,1.47,0,0,0-.56.11,1,1,0,0,0-.46.41,2.74,2.74,0,0,0-.33.85,7,7,0,0,0-.16,1.4h2.8a.54.54,0,0,1,0-.11.86.86,0,0,1,0-.15V390a5.49,5.49,0,0,0-.06-.8,2.51,2.51,0,0,0-.19-.73,1.43,1.43,0,0,0-.4-.53A1.06,1.06,0,0,0,93.51,387.7Z"/><path class="cls-2" d="M103.31,391.35a5.28,5.28,0,0,1,.37-2.07,4.17,4.17,0,0,1,1-1.47,4,4,0,0,1,1.41-.88,4.91,4.91,0,0,1,1.66-.29,4.78,4.78,0,0,1,1.8.32,3.51,3.51,0,0,1,1.31.91,4,4,0,0,1,.81,1.45,6.34,6.34,0,0,1,.27,1.93,5.45,5.45,0,0,1-.37,2.11,4.15,4.15,0,0,1-1,1.46,3.92,3.92,0,0,1-1.41.85,4.91,4.91,0,0,1-1.66.28,4.78,4.78,0,0,1-1.8-.32,3.51,3.51,0,0,1-1.32-.91,4.12,4.12,0,0,1-.81-1.44A6.38,6.38,0,0,1,103.31,391.35Zm4.33,3.52a1.36,1.36,0,0,0,.74-.19,1.48,1.48,0,0,0,.52-.6,3.74,3.74,0,0,0,.31-1.05,11.25,11.25,0,0,0,.09-1.53,12.93,12.93,0,0,0-.09-1.62,4.32,4.32,0,0,0-.29-1.19,1.6,1.6,0,0,0-.52-.72,1.22,1.22,0,0,0-.79-.25,1.49,1.49,0,0,0-.75.19,1.54,1.54,0,0,0-.53.61,3.54,3.54,0,0,0-.31,1.05,10.88,10.88,0,0,0-.1,1.53,12.93,12.93,0,0,0,.09,1.62,4.68,4.68,0,0,0,.31,1.18,1.62,1.62,0,0,0,.53.72A1.22,1.22,0,0,0,107.64,394.87Z"/><path class="cls-2" d="M120.48,396a1.15,1.15,0,0,1-.83-.25,1,1,0,0,1-.27-.74v-.28a3.14,3.14,0,0,1-.49.46,5.15,5.15,0,0,1-.65.41,3.54,3.54,0,0,1-.75.29,3.09,3.09,0,0,1-.8.11,4.23,4.23,0,0,1-1.31-.18,2,2,0,0,1-.9-.59,2.51,2.51,0,0,1-.52-1.06,5.93,5.93,0,0,1-.17-1.57V388.1l-.78-.29v-.92l2.81-.22h0l.36.22v5.72a5.39,5.39,0,0,0,.06.87,1.53,1.53,0,0,0,.23.58.89.89,0,0,0,.41.33,2,2,0,0,0,.64.1,2.38,2.38,0,0,0,.55-.06l.45-.15a1.79,1.79,0,0,0,.34-.19l.25-.17V388.1l-1.08-.31v-.92l3-.2h0l.43.22v7.82h.87v1l-.79.17A5.39,5.39,0,0,1,120.48,396Z"/><path class="cls-2" d="M123.58,395.77v-1l1.13-.15v-6l-1.06-.33v-1.18l2.67-.38h.05l.41.33v1.87h0a4.62,4.62,0,0,1,.34-.63,5,5,0,0,1,.61-.73,3.69,3.69,0,0,1,.84-.61,2.13,2.13,0,0,1,1-.26l.37,0,.21,0v2.71a1.45,1.45,0,0,0-.45-.14,4.33,4.33,0,0,0-.86-.07l-.55,0-.51.08a2.1,2.1,0,0,0-.42.12,1.58,1.58,0,0,0-.29.14v5l1.94.18v1Z"/><path class="cls-2" d="M16.89,415.89v-5.75h-1.1v-.89l.2-.06.28-.11.26-.1.15-.08a2.33,2.33,0,0,0,.55-.75c.06-.1.11-.22.18-.36l.18-.43.17-.45.13-.41h1.39l0,2.32h2.3v1.32H19.3v4.33c0,.42,0,.75,0,1a2.09,2.09,0,0,0,.1.56.37.37,0,0,0,.23.24,1.19,1.19,0,0,0,.43.06h0l.4,0,.41-.08.36-.09.28-.09h0l.37.91a4.2,4.2,0,0,1-.58.36,5.13,5.13,0,0,1-.75.32,5.52,5.52,0,0,1-.87.24,4.68,4.68,0,0,1-.91.09h0a2.55,2.55,0,0,1-.88-.13,1.29,1.29,0,0,1-.58-.4,1.62,1.62,0,0,1-.33-.64A3.41,3.41,0,0,1,16.89,415.89Z"/><path class="cls-2" d="M22.51,413.35a5.47,5.47,0,0,1,.36-2.07,4.3,4.3,0,0,1,1-1.47,4.14,4.14,0,0,1,1.41-.88,4.93,4.93,0,0,1,1.67-.29,4.78,4.78,0,0,1,1.8.32,3.59,3.59,0,0,1,1.31.91,4,4,0,0,1,.8,1.45,6,6,0,0,1,.28,1.93,5.64,5.64,0,0,1-.37,2.11,4.17,4.17,0,0,1-1,1.46,3.79,3.79,0,0,1-1.4.85,5,5,0,0,1-1.67.28,4.76,4.76,0,0,1-1.79-.32,3.43,3.43,0,0,1-1.32-.91,3.83,3.83,0,0,1-.81-1.44A6.38,6.38,0,0,1,22.51,413.35Zm4.32,3.52a1.39,1.39,0,0,0,.75-.19,1.48,1.48,0,0,0,.52-.6,3.75,3.75,0,0,0,.3-1.05,9.72,9.72,0,0,0,.1-1.53,12.93,12.93,0,0,0-.09-1.62,4.71,4.71,0,0,0-.29-1.19,1.68,1.68,0,0,0-.52-.72,1.25,1.25,0,0,0-.8-.25,1.48,1.48,0,0,0-.74.19,1.46,1.46,0,0,0-.53.61,3.54,3.54,0,0,0-.31,1.05,9.55,9.55,0,0,0-.1,1.53,12.93,12.93,0,0,0,.09,1.62,4.31,4.31,0,0,0,.3,1.18,1.78,1.78,0,0,0,.53.72A1.24,1.24,0,0,0,26.83,416.87Z"/><path class="cls-2" d="M32.12,420.65l1.18-.19v-9.9l-1.07-.33v-1.18l2.8-.38h0l.4.33v.83a3.24,3.24,0,0,1,.46-.44,3.51,3.51,0,0,1,.59-.38,3.73,3.73,0,0,1,1.56-.37,3.77,3.77,0,0,1,1.35.25,2.69,2.69,0,0,1,1.1.77,3.75,3.75,0,0,1,.74,1.36,6.63,6.63,0,0,1,.27,2,5.79,5.79,0,0,1-.32,1.93,4.58,4.58,0,0,1-.91,1.56,4.19,4.19,0,0,1-1.44,1,4.75,4.75,0,0,1-1.93.38l-.38,0-.37,0-.32,0-.22-.05,0,1.3v1.36l1.55.19v1H32.12Zm5-10.58a2,2,0,0,0-.83.16,1.88,1.88,0,0,0-.57.38v5.92a1.22,1.22,0,0,0,.43.26,2.18,2.18,0,0,0,.72.11,1.84,1.84,0,0,0,.8-.18,1.6,1.6,0,0,0,.66-.61,3.6,3.6,0,0,0,.46-1.11,7.78,7.78,0,0,0,.18-1.68,6.12,6.12,0,0,0-.11-1.5,3,3,0,0,0-.37-1,1.53,1.53,0,0,0-.59-.57A1.66,1.66,0,0,0,37.09,410.07Z"/><path class="cls-2" d="M47.62,420.65l1.17-.19v-9.9l-1.06-.33v-1.18l2.79-.38h0l.4.33v.83a3.24,3.24,0,0,1,.46-.44A4,4,0,0,1,52,409a3.23,3.23,0,0,1,.72-.26,3.3,3.3,0,0,1,.85-.11,3.67,3.67,0,0,1,1.34.25,2.69,2.69,0,0,1,1.1.77,3.75,3.75,0,0,1,.74,1.36,6.63,6.63,0,0,1,.27,2,5.79,5.79,0,0,1-.32,1.93,4.58,4.58,0,0,1-.91,1.56,4.1,4.1,0,0,1-1.44,1,4.73,4.73,0,0,1-1.92.38l-.39,0-.37,0-.31,0-.23-.05,0,1.3v1.36l1.54.19v1H47.62Zm5-10.58a2,2,0,0,0-.83.16,1.82,1.82,0,0,0-.56.38v5.92a1.13,1.13,0,0,0,.43.26,2.08,2.08,0,0,0,.71.11,1.88,1.88,0,0,0,.81-.18,1.73,1.73,0,0,0,.66-.61,3.87,3.87,0,0,0,.45-1.11,7.71,7.71,0,0,0,.19-1.68,6.59,6.59,0,0,0-.12-1.5,3,3,0,0,0-.37-1,1.53,1.53,0,0,0-.59-.57A1.66,1.66,0,0,0,52.58,410.07Z"/><path class="cls-2" d="M58.27,417.77v-1l1.13-.15v-6l-1.07-.33v-1.18l2.68-.38h0l.42.33v1.87h0a3.72,3.72,0,0,1,.34-.63,5,5,0,0,1,.61-.73,3.48,3.48,0,0,1,.84-.61,2.09,2.09,0,0,1,1-.26l.37,0,.22,0v2.71a1.56,1.56,0,0,0-.45-.14,4.33,4.33,0,0,0-.86-.07,4.93,4.93,0,0,0-.55,0l-.51.08a2.43,2.43,0,0,0-.43.12l-.29.14v5l2,.18v1Z"/><path class="cls-2" d="M65.87,417.77v-1l1.14-.15v-6L66,410.22v-1.17l2.87-.38h0l.57.33v7.57l1.13.15v1ZM68,407.35a1.3,1.3,0,0,1-.49-.1,1.22,1.22,0,0,1-.36-.27,1.39,1.39,0,0,1-.21-.4,1.62,1.62,0,0,1-.08-.49,2.12,2.12,0,0,1,.08-.57,1.4,1.4,0,0,1,.26-.48,1.23,1.23,0,0,1,.42-.32,1.38,1.38,0,0,1,.59-.11h0a1.32,1.32,0,0,1,.55.1,1.26,1.26,0,0,1,.39.28,1.23,1.23,0,0,1,.23.4,1.55,1.55,0,0,1,.07.48,2.14,2.14,0,0,1-.08.58,1.43,1.43,0,0,1-.26.47,1.17,1.17,0,0,1-.46.31,1.6,1.6,0,0,1-.65.12Z"/><path class="cls-2" d="M71.48,413.35a5.46,5.46,0,0,1,.37-2.07,4.3,4.3,0,0,1,1-1.47,4,4,0,0,1,1.41-.88,4.93,4.93,0,0,1,1.67-.29,4.76,4.76,0,0,1,1.79.32,3.51,3.51,0,0,1,1.31.91,3.87,3.87,0,0,1,.81,1.45,6.34,6.34,0,0,1,.27,1.93,5.65,5.65,0,0,1-.36,2.11,4.17,4.17,0,0,1-1,1.46,3.92,3.92,0,0,1-1.41.85,4.86,4.86,0,0,1-1.66.28,4.78,4.78,0,0,1-1.8-.32,3.4,3.4,0,0,1-1.31-.91,3.83,3.83,0,0,1-.81-1.44A6.08,6.08,0,0,1,71.48,413.35Zm4.33,3.52a1.34,1.34,0,0,0,.74-.19,1.41,1.41,0,0,0,.52-.6,3.74,3.74,0,0,0,.31-1.05,11.09,11.09,0,0,0,.1-1.53,12.93,12.93,0,0,0-.09-1.62,4.71,4.71,0,0,0-.29-1.19,1.7,1.7,0,0,0-.53-.72,1.22,1.22,0,0,0-.79-.25,1.52,1.52,0,0,0-.75.19,1.44,1.44,0,0,0-.52.61,3.53,3.53,0,0,0-.32,1.05,10.88,10.88,0,0,0-.1,1.53,11.16,11.16,0,0,0,.1,1.62,4.31,4.31,0,0,0,.3,1.18,1.62,1.62,0,0,0,.53.72A1.22,1.22,0,0,0,75.81,416.87Z"/><path class="cls-2" d="M81.29,417.77v-1l1.12-.15v-6l-1.06-.33v-1.18l2.67-.38h0l.41.33v1.87h0a3.11,3.11,0,0,1,.34-.63,4,4,0,0,1,.61-.73,3.63,3.63,0,0,1,.83-.61,2.16,2.16,0,0,1,1-.26l.37,0,.22,0v2.71a1.56,1.56,0,0,0-.45-.14,4.44,4.44,0,0,0-.87-.07l-.54,0-.52.08a2.32,2.32,0,0,0-.42.12,2,2,0,0,0-.29.14v5l1.94.18v1Z"/><path class="cls-2" d="M88.89,417.77v-1l1.14-.15v-6l-1-.34v-1.17l2.86-.38h0l.57.33v7.57l1.13.15v1ZM91,407.35a1.26,1.26,0,0,1-.49-.1,1.22,1.22,0,0,1-.36-.27,1.2,1.2,0,0,1-.22-.4,1.61,1.61,0,0,1-.07-.49,1.79,1.79,0,0,1,.08-.57,1.24,1.24,0,0,1,1.27-.91h0a1.35,1.35,0,0,1,.55.1,1.21,1.21,0,0,1,.38.28,1.07,1.07,0,0,1,.23.4,1.56,1.56,0,0,1,.08.48,1.81,1.81,0,0,1-.09.58,1.14,1.14,0,0,1-.26.47,1.21,1.21,0,0,1-.45.31,1.64,1.64,0,0,1-.65.12Z"/><path class="cls-2" d="M95.53,415.89v-5.75h-1.1v-.89l.2-.06.28-.11.26-.1.15-.08a2.33,2.33,0,0,0,.55-.75c.06-.1.11-.22.18-.36l.18-.43.17-.45.13-.41h1.39l0,2.32h2.3v1.32h-2.3v4.33c0,.42,0,.75,0,1a2.09,2.09,0,0,0,.1.56.37.37,0,0,0,.23.24,1.23,1.23,0,0,0,.43.06h0l.39,0,.41-.08.36-.09.28-.09h0l.37.91a4.2,4.2,0,0,1-.58.36,4.34,4.34,0,0,1-.75.32,5.52,5.52,0,0,1-.87.24,4.68,4.68,0,0,1-.91.09h0a2.55,2.55,0,0,1-.88-.13,1.29,1.29,0,0,1-.58-.4,1.62,1.62,0,0,1-.33-.64A3.41,3.41,0,0,1,95.53,415.89Z"/><path class="cls-2" d="M101.28,417.77v-1l1.14-.15v-6l-1-.34v-1.17l2.86-.38h0l.57.33v7.57l1.14.15v1Zm2.08-10.42a1.26,1.26,0,0,1-.49-.1,1.22,1.22,0,0,1-.36-.27,1.2,1.2,0,0,1-.22-.4,1.61,1.61,0,0,1-.07-.49,2.12,2.12,0,0,1,.08-.57,1.24,1.24,0,0,1,1.27-.91h0a1.35,1.35,0,0,1,.55.1,1.21,1.21,0,0,1,.38.28,1.1,1.1,0,0,1,.24.4,1.92,1.92,0,0,1,.07.48,1.81,1.81,0,0,1-.09.58,1.14,1.14,0,0,1-.26.47,1.21,1.21,0,0,1-.45.31,1.64,1.64,0,0,1-.65.12Z"/><path class="cls-2" d="M111.12,418a4.91,4.91,0,0,1-1.89-.34,3.54,3.54,0,0,1-1.31-1,3.94,3.94,0,0,1-.75-1.47,6.76,6.76,0,0,1-.24-1.86,5.62,5.62,0,0,1,.31-1.95,4,4,0,0,1,.87-1.47,3.79,3.79,0,0,1,1.35-.93,4.7,4.7,0,0,1,1.75-.32q3.24,0,3.38,3.17c0,.36,0,.68,0,1a4.51,4.51,0,0,1-.08.73h-5.1a4.77,4.77,0,0,0,.22,1.32,2.79,2.79,0,0,0,.49.89,1.8,1.8,0,0,0,.73.5,2.63,2.63,0,0,0,.91.16,3.54,3.54,0,0,0,.75-.07,4.87,4.87,0,0,0,.63-.15,2.93,2.93,0,0,0,.53-.21l.41-.23.41.95a3.4,3.4,0,0,1-.54.42,4.6,4.6,0,0,1-.8.41,5.51,5.51,0,0,1-1,.31A4.16,4.16,0,0,1,111.12,418Zm-.21-8.25a1.47,1.47,0,0,0-.56.11,1,1,0,0,0-.46.41,2.51,2.51,0,0,0-.33.85,7,7,0,0,0-.16,1.4h2.8a.54.54,0,0,1,0-.11v-.15a.71.71,0,0,0,0-.14V412a5.49,5.49,0,0,0-.06-.8,2.23,2.23,0,0,0-.2-.73,1.41,1.41,0,0,0-.39-.53A1.06,1.06,0,0,0,110.91,409.7Z"/><path class="cls-2" d="M116.05,417.27v-2.2h1.44l.41,1.22a.83.83,0,0,0,.21.21,2.81,2.81,0,0,0,.35.18,2.44,2.44,0,0,0,.45.12,2.18,2.18,0,0,0,.52.06,1.91,1.91,0,0,0,.64-.1,1.08,1.08,0,0,0,.39-.24.64.64,0,0,0,.2-.32,1.23,1.23,0,0,0,.06-.36,1,1,0,0,0-.17-.57,1.56,1.56,0,0,0-.48-.43,3.91,3.91,0,0,0-.74-.39l-1-.41a5.86,5.86,0,0,1-1-.49,3.12,3.12,0,0,1-.73-.6,2.44,2.44,0,0,1-.47-.75,2.52,2.52,0,0,1-.16-.93,2.39,2.39,0,0,1,.23-1,2.3,2.3,0,0,1,.68-.82,3.49,3.49,0,0,1,1.13-.54,5.25,5.25,0,0,1,1.55-.2,6.26,6.26,0,0,1,.92.06c.27,0,.51.09.73.14l.6.17a3.91,3.91,0,0,0,.54.14v2.16l-1.36,0-.37-1a1,1,0,0,0-.42-.35,1.72,1.72,0,0,0-.77-.18,2,2,0,0,0-.59.08,1,1,0,0,0-.38.21.79.79,0,0,0-.21.29,1,1,0,0,0-.06.33,1.05,1.05,0,0,0,.21.67,1.92,1.92,0,0,0,.53.44,4.94,4.94,0,0,0,.7.31,7,7,0,0,1,.73.3q.51.23,1,.48a3.88,3.88,0,0,1,.83.59,2.74,2.74,0,0,1,.58.77,2.47,2.47,0,0,1,.21,1.06,2.44,2.44,0,0,1-.22,1,2.33,2.33,0,0,1-.67.84,3.42,3.42,0,0,1-1.13.57,5.73,5.73,0,0,1-1.58.2,6.55,6.55,0,0,1-1.13-.09,7.19,7.19,0,0,1-.93-.2c-.28-.07-.53-.15-.75-.22A4.88,4.88,0,0,0,116.05,417.27Z"/><path class="cls-2" d="M126.25,417.9a1.77,1.77,0,0,1-.52-.08,1.26,1.26,0,0,1-.44-.25,1.08,1.08,0,0,1-.3-.4,1.24,1.24,0,0,1-.11-.52,1.31,1.31,0,0,1,.13-.59,1.57,1.57,0,0,1,.34-.47,1.69,1.69,0,0,1,.51-.32,1.8,1.8,0,0,1,.62-.11,1.72,1.72,0,0,1,.64.1,1.15,1.15,0,0,1,.44.28,1,1,0,0,1,.24.39,1.57,1.57,0,0,1,.07.49,1.54,1.54,0,0,1-.12.61,1.43,1.43,0,0,1-.33.47,1.58,1.58,0,0,1-.52.3A2,2,0,0,1,126.25,417.9Z"/></svg>