<svg id="Layer_1" data-name="Layer 1" xmlns="http://www.w3.org/2000/svg" viewBox="0 0 1200 628"><defs><style>.cls-1{fill:#fff;}.cls-2{fill:#f1b533;}</style></defs><path class="cls-1" d="M93.28,497.87,83,464.52l-3-.78v-3.27H95.23v3.27l-4.12.78,6.18,22.29.95,5,1-5,5.32-17.92-1.44-4.39-3.27-.76v-3.27h15.58v3.27l-4.3.78,6.13,22.29,1.12,5.42,1-5.42,5.84-22.29-4.67-.78v-3.27h12.63v3.27l-3.25.78-9.77,33.35h-7l-6.62-22.44-6.42,22.44Z"/><path class="cls-1" d="M146.77,498.19a14.76,14.76,0,0,1-5.92-1.08,10.66,10.66,0,0,1-4.07-3,12.16,12.16,0,0,1-2.36-4.58,21,21,0,0,1-.76-5.81,17.93,17.93,0,0,1,1-6.11,13.1,13.1,0,0,1,2.72-4.59,11.61,11.61,0,0,1,4.22-2.89,14.4,14.4,0,0,1,5.47-1q10.14,0,10.57,9.89c0,1.13,0,2.14,0,3a14.12,14.12,0,0,1-.26,2.28H141.4a15.12,15.12,0,0,0,.71,4.13,7.94,7.94,0,0,0,1.54,2.78,5.61,5.61,0,0,0,2.26,1.57,8.21,8.21,0,0,0,2.86.48,13,13,0,0,0,2.32-.19,14.85,14.85,0,0,0,2-.49,10.63,10.63,0,0,0,1.66-.66,12.26,12.26,0,0,0,1.29-.71l1.27,3a9.68,9.68,0,0,1-1.7,1.33,17,17,0,0,1-2.49,1.28,20.29,20.29,0,0,1-3,1A14.07,14.07,0,0,1,146.77,498.19Zm-.66-25.78a4.54,4.54,0,0,0-1.77.34A3.35,3.35,0,0,0,142.9,474a8.72,8.72,0,0,0-1,2.65,22.64,22.64,0,0,0-.5,4.38h8.76c0-.08,0-.19,0-.34l0-.46c0-.16,0-.32,0-.47v-.31A19.79,19.79,0,0,0,150,477a7.92,7.92,0,0,0-.62-2.28,4.3,4.3,0,0,0-1.25-1.64A3.18,3.18,0,0,0,146.11,472.41Z"/><path class="cls-1" d="M176.68,497.63v-3.28l3.17-.46V461.27l-3.54-.61v-2.85l9.45-1.2h.08l1.53,1.15v21.85l-.12,3.78,9.5-9.76-3.81-.66v-3.32h13.77V473l-4.54.88-6.06,5.54,9.43,14.48,3,.48v3.28H194.72v-3.28l2.47-.53-6-10.21-4,3.81.12,2.91v3.54l3.35.48v3.28Z"/><path class="cls-1" d="M210.62,497.63v-3.28l3.15-.48V475.09l-3.33-1v-3.69l8.74-1.2h.13l1.29,1.05v2.91a14,14,0,0,1,1.91-1.44,15.29,15.29,0,0,1,2.38-1.25,17.61,17.61,0,0,1,2.69-.86,12.62,12.62,0,0,1,2.86-.33,10.87,10.87,0,0,1,3.92.61,5.27,5.27,0,0,1,2.5,1.95,8.89,8.89,0,0,1,1.32,3.45,28.6,28.6,0,0,1,.39,5.1v13.52l3.47.46v3.28H228.29v-3.28l2.66-.46V480.27a22.2,22.2,0,0,0-.17-2.92,5.48,5.48,0,0,0-.62-2,2.8,2.8,0,0,0-1.25-1.16,4.57,4.57,0,0,0-2-.38,7.49,7.49,0,0,0-1.64.18,9.11,9.11,0,0,0-1.53.48,9.4,9.4,0,0,0-1.31.64,9.84,9.84,0,0,0-1,.7v18.07l3.27.48v3.28Z"/><path class="cls-1" d="M244.48,483.81a16.65,16.65,0,0,1,1.15-6.47,13.31,13.31,0,0,1,3.05-4.59,12.51,12.51,0,0,1,4.4-2.74,15.32,15.32,0,0,1,5.22-.9,14.86,14.86,0,0,1,5.61,1,10.91,10.91,0,0,1,4.1,2.84,12.36,12.36,0,0,1,2.52,4.52,19.65,19.65,0,0,1,.85,6,17.11,17.11,0,0,1-1.15,6.59,12.9,12.9,0,0,1-3.05,4.58,12.13,12.13,0,0,1-4.39,2.66,15.68,15.68,0,0,1-5.2.87,14.87,14.87,0,0,1-5.62-1,11,11,0,0,1-4.11-2.85,12.11,12.11,0,0,1-2.53-4.51A19.74,19.74,0,0,1,244.48,483.81Zm13.52,11a4.33,4.33,0,0,0,2.32-.6,4.55,4.55,0,0,0,1.63-1.88,11.25,11.25,0,0,0,.95-3.28,32.92,32.92,0,0,0,.3-4.79,40,40,0,0,0-.28-5.06,14.21,14.21,0,0,0-.9-3.7,5.29,5.29,0,0,0-1.64-2.26,4,4,0,0,0-2.47-.77,4.43,4.43,0,0,0-2.34.6,4.5,4.5,0,0,0-1.64,1.88,10.9,10.9,0,0,0-1,3.28,31.31,31.31,0,0,0-.32,4.79,38,38,0,0,0,.3,5.06,13.36,13.36,0,0,0,.94,3.7,5.47,5.47,0,0,0,1.66,2.26A4,4,0,0,0,258,494.82Z"/><path class="cls-1" d="M283.56,498l-8.1-24.56-2.71-.69v-3.12h13.92v3.1l-3.81.71,3.37,12.74,1.27,5.66,1.22-5.66,4.78-16.55h6.4l4.86,16.55,1.22,5.42,1.12-5.4,3.47-12.74-3.93-.73v-3.1h11.74v3.1l-2.91.71L307.86,498h-6.11l-5.1-16.21-1-4.37-.93,4.37L289.72,498Z"/><path class="cls-1" d="M344,498l-8.11-24.56-2.71-.69v-3.12h13.92v3.1l-3.81.71,3.37,12.74,1.27,5.66,1.22-5.66L354,469.65h6.39l4.86,16.55,1.22,5.42,1.12-5.4L371,473.48l-3.93-.73v-3.1h11.74v3.1l-2.9.71L368.33,498h-6.1l-5.11-16.21-1.05-4.37-.92,4.37-5,16.21Z"/><path class="cls-1" d="M380,497.63v-3.28l3-.48v-32.6l-3.66-.61v-2.85l9.5-1.2h.12l1.49,1.15.05,11.5-.39,3.88a15.37,15.37,0,0,1,6.6-3.5,12.18,12.18,0,0,1,3.12-.38,10.21,10.21,0,0,1,4,.66,5.48,5.48,0,0,1,2.48,2,9,9,0,0,1,1.29,3.46,27.33,27.33,0,0,1,.38,4.94v13.53l3.44.48v3.28H397.65v-3.18l2.71-.54V480.27a22.2,22.2,0,0,0-.17-2.92,5.12,5.12,0,0,0-.65-2,2.84,2.84,0,0,0-1.31-1.16,5.24,5.24,0,0,0-2.17-.38,7.83,7.83,0,0,0-1.56.17,13.11,13.11,0,0,0-1.55.43,11.73,11.73,0,0,0-1.4.58,7.06,7.06,0,0,0-1.1.67v18.22l3.34.48v3.28Z"/><path class="cls-1" d="M413.72,490.2a7.48,7.48,0,0,1,.64-3.19,7.71,7.71,0,0,1,1.79-2.45,10.72,10.72,0,0,1,2.67-1.78,19.13,19.13,0,0,1,3.32-1.21,25.63,25.63,0,0,1,3.71-.69c1.29-.15,2.57-.24,3.86-.27v-1.17a5.62,5.62,0,0,0-1.14-4,5,5,0,0,0-3.72-1.18,18.29,18.29,0,0,0-2.65.2c-.89.14-1.74.31-2.55.52a21.75,21.75,0,0,0-2.26.68q-1,.38-1.77.72h0l-1.44-3.27a12,12,0,0,1,1.73-1.09,21.17,21.17,0,0,1,2.93-1.3,28.34,28.34,0,0,1,3.78-1.1,19.56,19.56,0,0,1,4.28-.47,15.73,15.73,0,0,1,4.6.59,7.05,7.05,0,0,1,3.07,1.81,7.33,7.33,0,0,1,1.74,3.08,16,16,0,0,1,.55,4.41v15.24h3v3c-.31.06-.69.15-1.14.26s-1,.2-1.52.29-1.14.16-1.78.23-1.29.1-1.95.1a12.55,12.55,0,0,1-1.5-.08,2.08,2.08,0,0,1-1-.34,1.46,1.46,0,0,1-.54-.77,4.07,4.07,0,0,1-.18-1.35v-1.42a8.73,8.73,0,0,1-1.14,1.25,10.12,10.12,0,0,1-1.77,1.29,10.36,10.36,0,0,1-2.36,1,9.87,9.87,0,0,1-2.9.41,11,11,0,0,1-3.25-.47,7.33,7.33,0,0,1-2.65-1.44,6.64,6.64,0,0,1-1.79-2.49A8.92,8.92,0,0,1,413.72,490.2Zm11.59,3.28a4.23,4.23,0,0,0,1-.13,8.53,8.53,0,0,0,1.18-.34,9.54,9.54,0,0,0,1.19-.52,5.64,5.64,0,0,0,1-.7v-8.08a15.38,15.38,0,0,0-4,.44,7.2,7.2,0,0,0-2.55,1.17,4.17,4.17,0,0,0-1.36,1.69,5.27,5.27,0,0,0-.4,2,4.9,4.9,0,0,0,1,3.31A3.62,3.62,0,0,0,425.31,493.48Z"/><path class="cls-1" d="M445.5,491.77v-18h-3.44V471c.13,0,.34-.1.62-.2l.88-.33.82-.33a4.54,4.54,0,0,0,.46-.23,7.44,7.44,0,0,0,1.74-2.35c.16-.32.34-.7.53-1.13s.39-.89.58-1.36.36-.94.52-1.4.3-.88.42-1.26H453l.08,7.23h7.18v4.15h-7.18v13.52c0,1.31,0,2.34.06,3.1a6,6,0,0,0,.29,1.74,1.22,1.22,0,0,0,.72.75,4,4,0,0,0,1.34.17h0a8.91,8.91,0,0,0,1.23-.09c.43-.07.86-.15,1.27-.24a10.14,10.14,0,0,0,1.15-.29c.35-.1.64-.2.87-.28h0l1.15,2.86a12.86,12.86,0,0,1-1.8,1.12,16.8,16.8,0,0,1-2.34,1,18.88,18.88,0,0,1-2.71.74,15.42,15.42,0,0,1-2.87.28h0a8,8,0,0,1-2.75-.42,4.33,4.33,0,0,1-1.83-1.23,5.15,5.15,0,0,1-1-2A10.9,10.9,0,0,1,445.5,491.77Z"/><path class="cls-1" d="M478.9,497.63v-3.28l3-.48v-32.6l-3.66-.61v-2.85l9.5-1.2h.12l1.49,1.15,0,11.5-.39,3.88a15.37,15.37,0,0,1,6.6-3.5,12.24,12.24,0,0,1,3.12-.38,10.21,10.21,0,0,1,3.95.66,5.48,5.48,0,0,1,2.48,2,9,9,0,0,1,1.29,3.46,27.33,27.33,0,0,1,.38,4.94v13.53l3.44.48v3.28H496.6v-3.18l2.71-.54V480.27a22.2,22.2,0,0,0-.17-2.92,5.12,5.12,0,0,0-.65-2,2.84,2.84,0,0,0-1.31-1.16,5.23,5.23,0,0,0-2.16-.38,7.85,7.85,0,0,0-1.57.17,13.11,13.11,0,0,0-1.55.43,11.73,11.73,0,0,0-1.4.58,7.06,7.06,0,0,0-1.1.67v18.22l3.34.48v3.28Z"/><path class="cls-1" d="M526,498.19a14.76,14.76,0,0,1-5.92-1.08,10.66,10.66,0,0,1-4.07-3,12.16,12.16,0,0,1-2.36-4.58,21,21,0,0,1-.76-5.81,17.93,17.93,0,0,1,1-6.11,13.1,13.1,0,0,1,2.72-4.59,11.61,11.61,0,0,1,4.22-2.89,14.4,14.4,0,0,1,5.47-1q10.13,0,10.57,9.89c0,1.13,0,2.14,0,3a14.12,14.12,0,0,1-.26,2.28H520.6a15.12,15.12,0,0,0,.71,4.13,7.94,7.94,0,0,0,1.54,2.78,5.54,5.54,0,0,0,2.26,1.57,8.21,8.21,0,0,0,2.86.48,13,13,0,0,0,2.32-.19,14.85,14.85,0,0,0,2-.49,10.63,10.63,0,0,0,1.66-.66,12.26,12.26,0,0,0,1.29-.71l1.26,3a9.21,9.21,0,0,1-1.69,1.33,17,17,0,0,1-2.49,1.28,20.29,20.29,0,0,1-3,1A14.07,14.07,0,0,1,526,498.19Zm-.66-25.78a4.54,4.54,0,0,0-1.77.34A3.35,3.35,0,0,0,522.1,474a8.72,8.72,0,0,0-1,2.65,22.64,22.64,0,0,0-.5,4.38h8.76c0-.08,0-.19,0-.34l0-.46c0-.16,0-.32,0-.47v-.31a19.79,19.79,0,0,0-.17-2.53,8.25,8.25,0,0,0-.62-2.28,4.3,4.3,0,0,0-1.25-1.64A3.18,3.18,0,0,0,525.31,472.41Z"/><path class="cls-1" d="M540.16,490.2a7.48,7.48,0,0,1,.64-3.19,7.71,7.71,0,0,1,1.79-2.45,10.72,10.72,0,0,1,2.67-1.78,19.13,19.13,0,0,1,3.32-1.21,25.63,25.63,0,0,1,3.71-.69c1.29-.15,2.57-.24,3.86-.27v-1.17a5.62,5.62,0,0,0-1.14-4,5,5,0,0,0-3.72-1.18,18.29,18.29,0,0,0-2.65.2c-.89.14-1.74.31-2.55.52a21.75,21.75,0,0,0-2.26.68q-1,.38-1.77.72h0l-1.44-3.27a12.66,12.66,0,0,1,1.73-1.09,21.17,21.17,0,0,1,2.93-1.3,28.34,28.34,0,0,1,3.78-1.1,19.56,19.56,0,0,1,4.28-.47,15.73,15.73,0,0,1,4.6.59,7.05,7.05,0,0,1,3.07,1.81,7.33,7.33,0,0,1,1.74,3.08,16,16,0,0,1,.55,4.41v15.24h3v3c-.31.06-.69.15-1.14.26s-1,.2-1.52.29-1.14.16-1.78.23-1.29.1-2,.1a12.55,12.55,0,0,1-1.5-.08,2.08,2.08,0,0,1-1-.34,1.46,1.46,0,0,1-.54-.77,4.07,4.07,0,0,1-.18-1.35v-1.42a8.73,8.73,0,0,1-1.14,1.25,10.12,10.12,0,0,1-1.77,1.29,10.36,10.36,0,0,1-2.36,1,9.87,9.87,0,0,1-2.9.41,11,11,0,0,1-3.25-.47,7.33,7.33,0,0,1-2.65-1.44,6.75,6.75,0,0,1-1.79-2.49A8.92,8.92,0,0,1,540.16,490.2Zm11.59,3.28a4.23,4.23,0,0,0,1-.13,8.53,8.53,0,0,0,1.18-.34,9.54,9.54,0,0,0,1.19-.52,5.64,5.64,0,0,0,1-.7v-8.08a15.38,15.38,0,0,0-4,.44,7.2,7.2,0,0,0-2.55,1.17,4.17,4.17,0,0,0-1.36,1.69,5.27,5.27,0,0,0-.4,2,4.9,4.9,0,0,0,1,3.31A3.62,3.62,0,0,0,551.75,493.48Z"/><path class="cls-1" d="M569.28,497.63v-3.28l3.52-.46v-18.8l-3.32-1v-3.69l8.35-1.2H578l1.3,1.05v2l0,3.81h.1a11.34,11.34,0,0,1,1.06-2,13.73,13.73,0,0,1,1.91-2.29,11.26,11.26,0,0,1,2.61-1.91,6.64,6.64,0,0,1,3.21-.79,8.5,8.5,0,0,1,1.16.06,3.89,3.89,0,0,1,.67.16v8.45a4.47,4.47,0,0,0-1.4-.43,15.44,15.44,0,0,0-4.41-.13c-.57.06-1.1.15-1.6.25a9.66,9.66,0,0,0-1.33.38,4.18,4.18,0,0,0-.9.44v15.58l6.08.58v3.18Z"/><path class="cls-1" d="M595.85,491.77v-18H592.4V471c.13,0,.34-.1.63-.2l.87-.33.82-.33a5.19,5.19,0,0,0,.47-.23,7.59,7.59,0,0,0,1.73-2.35c.16-.32.34-.7.54-1.13s.38-.89.57-1.36.36-.94.53-1.4.3-.88.41-1.26h4.35l.07,7.23h7.18v4.15h-7.18v13.52c0,1.31,0,2.34.06,3.1a6,6,0,0,0,.29,1.74,1.22,1.22,0,0,0,.72.75,4.11,4.11,0,0,0,1.35.17h0a8.91,8.91,0,0,0,1.23-.09c.43-.07.86-.15,1.27-.24a10.14,10.14,0,0,0,1.15-.29c.35-.1.64-.2.87-.28h0l1.15,2.86a13.31,13.31,0,0,1-1.79,1.12,17,17,0,0,1-2.35,1,18.53,18.53,0,0,1-2.71.74,15.42,15.42,0,0,1-2.87.28h0a7.89,7.89,0,0,1-2.74-.42,4.21,4.21,0,0,1-1.83-1.23,5,5,0,0,1-1-2A10.93,10.93,0,0,1,595.85,491.77Z"/><path class="cls-1" d="M82.91,557.63v-3.28l3-.48v-32.6l-3.66-.61v-2.85l9.49-1.2h.13l1.48,1.15.05,11.5L93,533.14a14.9,14.9,0,0,1,3.88-2.55,15.37,15.37,0,0,1,2.73-1,12.1,12.1,0,0,1,3.11-.38,10.21,10.21,0,0,1,4,.66,5.43,5.43,0,0,1,2.48,2,9.16,9.16,0,0,1,1.3,3.46,28.27,28.27,0,0,1,.38,4.94v13.53l3.44.48v3.28H100.61v-3.18l2.71-.54V540.27a20.45,20.45,0,0,0-.18-2.92,5.29,5.29,0,0,0-.64-2,2.92,2.92,0,0,0-1.32-1.16A5.16,5.16,0,0,0,99,533.8a7.68,7.68,0,0,0-1.56.17,12.13,12.13,0,0,0-1.55.43,11.23,11.23,0,0,0-1.41.58,7.57,7.57,0,0,0-1.1.67v18.22l3.35.48v3.28Z"/><path class="cls-1" d="M130,558.19a14.73,14.73,0,0,1-5.92-1.08,10.62,10.62,0,0,1-4.08-3,12.3,12.3,0,0,1-2.36-4.58,21.33,21.33,0,0,1-.75-5.81,18.18,18.18,0,0,1,1-6.11,13.1,13.1,0,0,1,2.72-4.59,11.56,11.56,0,0,1,4.23-2.89,14.31,14.31,0,0,1,5.46-1q10.14,0,10.58,9.89c0,1.13,0,2.14,0,3a14.25,14.25,0,0,1-.25,2.28h-16a15.51,15.51,0,0,0,.71,4.13,8.1,8.1,0,0,0,1.54,2.78,5.67,5.67,0,0,0,2.26,1.57,8.27,8.27,0,0,0,2.87.48,13,13,0,0,0,2.32-.19,15.24,15.24,0,0,0,2-.49A11,11,0,0,0,138,552a13.11,13.11,0,0,0,1.28-.71l1.27,3a9.32,9.32,0,0,1-1.7,1.33,16,16,0,0,1-2.49,1.28,19.57,19.57,0,0,1-3,1A14,14,0,0,1,130,558.19Zm-.66-25.78a4.47,4.47,0,0,0-1.77.34,3.24,3.24,0,0,0-1.44,1.29,8.46,8.46,0,0,0-1,2.65,22.64,22.64,0,0,0-.5,4.38h8.77c0-.08,0-.19,0-.34s0-.3,0-.46,0-.32,0-.47v-.31a18.12,18.12,0,0,0-.17-2.53,7.92,7.92,0,0,0-.62-2.28,4.38,4.38,0,0,0-1.24-1.64A3.18,3.18,0,0,0,129.32,532.41Z"/><path class="cls-1" d="M144.16,550.2a7.48,7.48,0,0,1,.65-3.19,7.68,7.68,0,0,1,1.78-2.45,11.1,11.1,0,0,1,2.67-1.78,19.44,19.44,0,0,1,3.32-1.21,25.89,25.89,0,0,1,3.71-.69c1.29-.15,2.58-.24,3.86-.27v-1.17a5.67,5.67,0,0,0-1.13-4,5,5,0,0,0-3.73-1.18,18.29,18.29,0,0,0-2.65.2c-.88.14-1.73.31-2.55.52a23.33,23.33,0,0,0-2.26.68q-1,.38-1.77.72h0l-1.44-3.27a12.66,12.66,0,0,1,1.73-1.09,21.72,21.72,0,0,1,2.93-1.3,28.06,28.06,0,0,1,3.79-1.1,19.4,19.4,0,0,1,4.27-.47,15.68,15.68,0,0,1,4.6.59,7.09,7.09,0,0,1,3.08,1.81,7.21,7.21,0,0,1,1.73,3.08,15.63,15.63,0,0,1,.55,4.41v15.24h3v3c-.31.06-.69.15-1.15.26s-1,.2-1.51.29-1.15.16-1.79.23-1.28.1-2,.1a12.67,12.67,0,0,1-1.5-.08,2,2,0,0,1-1-.34,1.48,1.48,0,0,1-.55-.77,4.39,4.39,0,0,1-.17-1.35v-1.42a9.52,9.52,0,0,1-1.15,1.25,10.12,10.12,0,0,1-1.77,1.29,10.47,10.47,0,0,1-2.35,1,9.89,9.89,0,0,1-2.91.41,11,11,0,0,1-3.25-.47,7.33,7.33,0,0,1-2.65-1.44,6.87,6.87,0,0,1-1.79-2.49A8.92,8.92,0,0,1,144.16,550.2Zm11.6,3.28a4.36,4.36,0,0,0,1-.13,8.83,8.83,0,0,0,1.17-.34,9.06,9.06,0,0,0,1.2-.52,5.23,5.23,0,0,0,1-.7v-8.08a15.38,15.38,0,0,0-4,.44,7.37,7.37,0,0,0-2.55,1.17,4.22,4.22,0,0,0-1.35,1.69,5.09,5.09,0,0,0-.4,2,5,5,0,0,0,1,3.31A3.64,3.64,0,0,0,155.76,553.48Z"/><path class="cls-1" d="M172.53,557.63v-3.28l3.54-.48v-32.6l-3.64-.61v-2.85l9.55-1.2h.07l1.54,1.15v36.11l3.69.48v3.28Z"/><path class="cls-1" d="M193.23,551.77v-18h-3.44V531c.13,0,.34-.1.62-.2l.88-.33.82-.33a4.54,4.54,0,0,0,.46-.23,7.59,7.59,0,0,0,1.74-2.35c.16-.32.34-.7.53-1.13s.39-.89.58-1.36.36-.94.52-1.4.3-.88.42-1.26h4.34l.08,7.23H208v4.15h-7.17v13.52c0,1.31,0,2.34.06,3.1a6,6,0,0,0,.29,1.74,1.19,1.19,0,0,0,.72.75,4,4,0,0,0,1.34.17h0a8.91,8.91,0,0,0,1.23-.09c.43-.07.86-.15,1.27-.24a10.14,10.14,0,0,0,1.15-.29c.35-.1.64-.2.86-.28h0l1.15,2.86a12.86,12.86,0,0,1-1.8,1.12,16.8,16.8,0,0,1-2.34,1,18.88,18.88,0,0,1-2.71.74,15.42,15.42,0,0,1-2.87.28h-.05a8,8,0,0,1-2.75-.42,4.33,4.33,0,0,1-1.83-1.23,5.15,5.15,0,0,1-1-2A10.9,10.9,0,0,1,193.23,551.77Z"/><path class="cls-1" d="M210.93,557.63v-3.28l3-.48v-32.6l-3.67-.61v-2.85l9.5-1.2h.12l1.49,1.15.05,11.5-.39,3.88a15.37,15.37,0,0,1,6.6-3.5,12.24,12.24,0,0,1,3.12-.38,10.21,10.21,0,0,1,4,.66,5.48,5.48,0,0,1,2.48,2,9,9,0,0,1,1.29,3.46,27.33,27.33,0,0,1,.38,4.94v13.53l3.45.48v3.28H228.63v-3.18l2.71-.54V540.27a20.59,20.59,0,0,0-.17-2.92,5.29,5.29,0,0,0-.64-2,2.92,2.92,0,0,0-1.32-1.16,5.19,5.19,0,0,0-2.16-.38,7.85,7.85,0,0,0-1.57.17,13.11,13.11,0,0,0-1.55.43,11.73,11.73,0,0,0-1.4.58,7.06,7.06,0,0,0-1.1.67v18.22l3.35.48v3.28Z"/><path class="cls-2" d="M261,557.63v-3.28l3.52-.46v-18.8l-3.32-1v-3.69l8.35-1.2h.14l1.3,1.05v2l0,3.81h.1a10.69,10.69,0,0,1,1.06-2,13.26,13.26,0,0,1,1.91-2.29,11.26,11.26,0,0,1,2.61-1.91,6.64,6.64,0,0,1,3.21-.79,8.5,8.5,0,0,1,1.16.06,3.89,3.89,0,0,1,.67.16v8.45a4.47,4.47,0,0,0-1.4-.43,15.44,15.44,0,0,0-4.41-.13c-.57.06-1.1.15-1.6.25a9.27,9.27,0,0,0-1.33.38,4.18,4.18,0,0,0-.9.44v15.58l6.07.58v3.18Z"/><path class="cls-2" d="M297.6,558.19a14.76,14.76,0,0,1-5.92-1.08,10.66,10.66,0,0,1-4.07-3,12.16,12.16,0,0,1-2.36-4.58,21,21,0,0,1-.76-5.81,17.93,17.93,0,0,1,1-6.11,13.1,13.1,0,0,1,2.72-4.59,11.61,11.61,0,0,1,4.22-2.89,14.4,14.4,0,0,1,5.47-1q10.14,0,10.57,9.89c0,1.13,0,2.14,0,3a14.12,14.12,0,0,1-.26,2.28H292.23a15.12,15.12,0,0,0,.71,4.13,7.94,7.94,0,0,0,1.54,2.78,5.61,5.61,0,0,0,2.26,1.57,8.21,8.21,0,0,0,2.86.48,13,13,0,0,0,2.32-.19,14.85,14.85,0,0,0,2-.49,10.63,10.63,0,0,0,1.66-.66,12.26,12.26,0,0,0,1.29-.71l1.27,3a9.68,9.68,0,0,1-1.7,1.33,17,17,0,0,1-2.49,1.28,20.29,20.29,0,0,1-3,1A14.07,14.07,0,0,1,297.6,558.19Zm-.66-25.78a4.54,4.54,0,0,0-1.77.34,3.35,3.35,0,0,0-1.44,1.29,8.72,8.72,0,0,0-1,2.65,22.64,22.64,0,0,0-.5,4.38H301c0-.08,0-.19,0-.34l0-.46c0-.16,0-.32,0-.47v-.31a19.79,19.79,0,0,0-.17-2.53,7.92,7.92,0,0,0-.62-2.28A4.3,4.3,0,0,0,299,533,3.18,3.18,0,0,0,296.94,532.41Z"/><path class="cls-2" d="M311.79,550.2a7.48,7.48,0,0,1,.64-3.19,7.86,7.86,0,0,1,1.79-2.45,10.72,10.72,0,0,1,2.67-1.78,19.44,19.44,0,0,1,3.32-1.21,25.89,25.89,0,0,1,3.71-.69c1.29-.15,2.57-.24,3.86-.27v-1.17a5.62,5.62,0,0,0-1.14-4,5,5,0,0,0-3.72-1.18,18.29,18.29,0,0,0-2.65.2c-.89.14-1.74.31-2.55.52a22.51,22.51,0,0,0-2.26.68q-1,.38-1.77.72h0l-1.44-3.27a12.66,12.66,0,0,1,1.73-1.09,21.17,21.17,0,0,1,2.93-1.3,28.34,28.34,0,0,1,3.78-1.1,19.56,19.56,0,0,1,4.28-.47,15.73,15.73,0,0,1,4.6.59,7.09,7.09,0,0,1,3.08,1.81,7.42,7.42,0,0,1,1.73,3.08,15.63,15.63,0,0,1,.55,4.41v15.24h3v3l-1.14.26c-.46.1-1,.2-1.52.29s-1.14.16-1.78.23-1.28.1-1.95.1a12.55,12.55,0,0,1-1.5-.08,2,2,0,0,1-1-.34,1.43,1.43,0,0,1-.55-.77,4.11,4.11,0,0,1-.17-1.35v-1.42a9.52,9.52,0,0,1-1.15,1.25,10.12,10.12,0,0,1-1.77,1.29,10.36,10.36,0,0,1-2.36,1,9.87,9.87,0,0,1-2.9.41,11,11,0,0,1-3.25-.47,7.33,7.33,0,0,1-2.65-1.44,6.75,6.75,0,0,1-1.79-2.49A8.92,8.92,0,0,1,311.79,550.2Zm11.59,3.28a4.37,4.37,0,0,0,1-.13,8.83,8.83,0,0,0,1.17-.34,9.54,9.54,0,0,0,1.19-.52,5.31,5.31,0,0,0,1-.7v-8.08a15.38,15.38,0,0,0-4,.44,7.29,7.29,0,0,0-2.55,1.17A4.25,4.25,0,0,0,319.9,547a5.27,5.27,0,0,0-.4,2,4.9,4.9,0,0,0,1,3.31A3.62,3.62,0,0,0,323.38,553.48Z"/><path class="cls-2" d="M340.16,557.63v-3.28l3.54-.48v-32.6l-3.64-.61v-2.85l9.54-1.2h.08l1.54,1.15v36.11l3.68.48v3.28Z"/><path class="cls-2" d="M357.44,557.63v-3.28l3.54-.48v-32.6l-3.64-.61v-2.85l9.55-1.2H367l1.54,1.15v36.11l3.69.48v3.28Z"/><path class="cls-2" d="M381.27,570.08l-1.07,0c-.39,0-.78,0-1.15-.07s-.71-.07-1-.11a4.05,4.05,0,0,1-.64-.13v-6a7.78,7.78,0,0,0,1.45.41,12.69,12.69,0,0,0,2.55.23,8.64,8.64,0,0,0,1.6-.17,4.61,4.61,0,0,0,1.8-.86,9,9,0,0,0,1.88-2,17.83,17.83,0,0,0,1.85-3.7h-4.39l-8.79-24.17-2.22-.69v-3.12h14.13v3.1l-3.69.71,4.67,14.47,1.9,6.64,1.66-6.64,3.71-14.47-3.17-.71v-3.1h10.79v3.12l-2.25.69q-.71,2.22-1.5,4.79l-1.6,5.2q-.79,2.63-1.58,5.12c-.52,1.66-1,3.17-1.42,4.54s-.79,2.53-1.11,3.49-.55,1.61-.7,1.95a24.83,24.83,0,0,1-4.88,8.59A9.06,9.06,0,0,1,381.27,570.08Z"/><path class="cls-2" d="M421.43,557.63v-3.18l3.05-.56v-18.8l-3.32-1v-3.69l8.65-1.2h.12l1.29,1.05v2.91a11.81,11.81,0,0,1,2-1.47,18.13,18.13,0,0,1,2.54-1.24,19.29,19.29,0,0,1,2.77-.86,12.35,12.35,0,0,1,2.69-.31,9.36,9.36,0,0,1,4.46.9,5.7,5.7,0,0,1,2.52,2.88,11.79,11.79,0,0,1,1.79-1.28,17.62,17.62,0,0,1,2.46-1.22,20.24,20.24,0,0,1,2.82-.92,12.06,12.06,0,0,1,2.87-.36,10.91,10.91,0,0,1,3.83.58,5.18,5.18,0,0,1,2.46,1.91,8.61,8.61,0,0,1,1.32,3.43,28.77,28.77,0,0,1,.39,5.14v13.57l3.45.56v3.18H456.05v-3.18l2.56-.56V540.54a21.94,21.94,0,0,0-.2-3.19,5.81,5.81,0,0,0-.7-2.11,2.87,2.87,0,0,0-1.32-1.17,5,5,0,0,0-2.07-.37,6.23,6.23,0,0,0-1.35.17c-.48.12-1,.26-1.46.43s-1,.36-1.42.57a11.66,11.66,0,0,0-1.19.64,17.69,17.69,0,0,1,.27,2.23c0,.81.07,1.68.07,2.63v13.54l3.25.54v3.18H438.81v-3.18l2.93-.54V540.27a19,19,0,0,0-.19-2.92,5.65,5.65,0,0,0-.67-2,2.92,2.92,0,0,0-1.3-1.16,4.77,4.77,0,0,0-2.06-.38A7.54,7.54,0,0,0,436,534a14.27,14.27,0,0,0-1.55.43,10.35,10.35,0,0,0-1.39.58,7.68,7.68,0,0,0-1.07.67v18.24l3.29.56v3.18Z"/><path class="cls-2" d="M485.27,558.19a14.8,14.8,0,0,1-5.92-1.08,10.66,10.66,0,0,1-4.07-3,12.16,12.16,0,0,1-2.36-4.58,21.33,21.33,0,0,1-.76-5.81,17.93,17.93,0,0,1,1-6.11,13.1,13.1,0,0,1,2.72-4.59,11.61,11.61,0,0,1,4.22-2.89,14.4,14.4,0,0,1,5.47-1q10.14,0,10.57,9.89c0,1.13,0,2.14,0,3a14.25,14.25,0,0,1-.25,2.28h-16a15.12,15.12,0,0,0,.71,4.13,7.94,7.94,0,0,0,1.54,2.78,5.61,5.61,0,0,0,2.26,1.57,8.23,8.23,0,0,0,2.87.48,13,13,0,0,0,2.32-.19,15.65,15.65,0,0,0,2-.49,11.48,11.48,0,0,0,1.66-.66,13.11,13.11,0,0,0,1.28-.71l1.27,3a9.68,9.68,0,0,1-1.7,1.33,16,16,0,0,1-2.49,1.28,20.29,20.29,0,0,1-3,1A14.07,14.07,0,0,1,485.27,558.19Zm-.66-25.78a4.45,4.45,0,0,0-1.76.34A3.32,3.32,0,0,0,481.4,534a8.72,8.72,0,0,0-1,2.65,22.64,22.64,0,0,0-.5,4.38h8.76c0-.08,0-.19,0-.34s0-.3,0-.46,0-.32,0-.47v-.31a19.79,19.79,0,0,0-.17-2.53,7.92,7.92,0,0,0-.62-2.28,4.3,4.3,0,0,0-1.25-1.64A3.18,3.18,0,0,0,484.61,532.41Z"/><path class="cls-2" d="M499.46,550.2a7.48,7.48,0,0,1,.64-3.19,7.86,7.86,0,0,1,1.79-2.45,10.91,10.91,0,0,1,2.67-1.78,19.44,19.44,0,0,1,3.32-1.21,25.89,25.89,0,0,1,3.71-.69c1.29-.15,2.57-.24,3.86-.27v-1.17a5.62,5.62,0,0,0-1.14-4,5,5,0,0,0-3.72-1.18,18.29,18.29,0,0,0-2.65.2c-.88.14-1.74.31-2.55.52a22.51,22.51,0,0,0-2.26.68q-1,.38-1.77.72h0l-1.44-3.27a12.66,12.66,0,0,1,1.73-1.09,21.17,21.17,0,0,1,2.93-1.3,28.06,28.06,0,0,1,3.79-1.1,19.4,19.4,0,0,1,4.27-.47,15.73,15.73,0,0,1,4.6.59,7.09,7.09,0,0,1,3.08,1.81,7.31,7.31,0,0,1,1.73,3.08,15.63,15.63,0,0,1,.55,4.41v15.24h3v3c-.31.06-.7.15-1.15.26s-1,.2-1.52.29-1.14.16-1.78.23-1.28.1-1.95.1a12.55,12.55,0,0,1-1.5-.08,2,2,0,0,1-1-.34,1.43,1.43,0,0,1-.55-.77,4.11,4.11,0,0,1-.17-1.35v-1.42a9.52,9.52,0,0,1-1.15,1.25,10.12,10.12,0,0,1-1.77,1.29,10.36,10.36,0,0,1-2.36,1,9.82,9.82,0,0,1-2.9.41,11,11,0,0,1-3.25-.47,7.33,7.33,0,0,1-2.65-1.44,6.87,6.87,0,0,1-1.79-2.49A8.92,8.92,0,0,1,499.46,550.2Zm11.6,3.28a4.36,4.36,0,0,0,1-.13,8.83,8.83,0,0,0,1.17-.34,9.54,9.54,0,0,0,1.19-.52,5.31,5.31,0,0,0,1-.7v-8.08a15.38,15.38,0,0,0-4,.44,7.37,7.37,0,0,0-2.55,1.17,4.22,4.22,0,0,0-1.35,1.69,5.1,5.1,0,0,0-.41,2,4.9,4.9,0,0,0,1,3.31A3.64,3.64,0,0,0,511.06,553.48Z"/><path class="cls-2" d="M528.76,557.63v-3.28l3.14-.48V535.09l-3.32-1v-3.69l8.74-1.2h.13l1.29,1.05v2.91a14.49,14.49,0,0,1,1.9-1.44,15.86,15.86,0,0,1,2.39-1.25,17.61,17.61,0,0,1,2.69-.86,12.62,12.62,0,0,1,2.86-.33,10.87,10.87,0,0,1,3.92.61,5.27,5.27,0,0,1,2.5,2,8.89,8.89,0,0,1,1.32,3.45,28.6,28.6,0,0,1,.39,5.1v13.52l3.47.46v3.28H546.43v-3.28l2.66-.46V540.27a22.2,22.2,0,0,0-.17-2.92,5.48,5.48,0,0,0-.62-2,2.8,2.8,0,0,0-1.25-1.16,4.6,4.6,0,0,0-2-.38,7.49,7.49,0,0,0-1.64.18,9.11,9.11,0,0,0-1.53.48,9.4,9.4,0,0,0-1.31.64,9.84,9.84,0,0,0-1,.7v18.07l3.27.48v3.28Z"/><path class="cls-2" d="M563.77,556.06V549.2h4.49l1.27,3.81a2.59,2.59,0,0,0,.67.64,5.11,5.11,0,0,0,1.07.56,9.16,9.16,0,0,0,1.41.4,7.84,7.84,0,0,0,1.63.16,5.77,5.77,0,0,0,2-.29,3.57,3.57,0,0,0,1.23-.75,2.32,2.32,0,0,0,.64-1,4.11,4.11,0,0,0,.17-1.11,3,3,0,0,0-.52-1.77,5.23,5.23,0,0,0-1.49-1.37,15.32,15.32,0,0,0-2.34-1.21L571,546a17.86,17.86,0,0,1-3-1.53,10.25,10.25,0,0,1-2.28-1.89,7.48,7.48,0,0,1-2-5.25,7.26,7.26,0,0,1,.72-3.21,7.13,7.13,0,0,1,2.14-2.56,10.84,10.84,0,0,1,3.51-1.71,17,17,0,0,1,4.86-.62,18.9,18.9,0,0,1,2.87.19q1.26.2,2.28.45c.69.18,1.31.35,1.88.54a12.72,12.72,0,0,0,1.66.43v6.74l-4.24-.08-1.15-3.24a3.35,3.35,0,0,0-1.3-1.09,5.17,5.17,0,0,0-2.41-.55,5.79,5.79,0,0,0-1.85.25,3.29,3.29,0,0,0-1.19.65,2.55,2.55,0,0,0-.65.92,2.74,2.74,0,0,0-.19,1,3.26,3.26,0,0,0,.65,2.09,5.62,5.62,0,0,0,1.66,1.38,14.34,14.34,0,0,0,2.2,1c.8.28,1.56.59,2.27.91,1.08.48,2.1,1,3.08,1.51a12.39,12.39,0,0,1,2.6,1.84,8.12,8.12,0,0,1,1.81,2.43,7.52,7.52,0,0,1,.67,3.28,7.72,7.72,0,0,1-.7,3.3,7,7,0,0,1-2.1,2.63,10.23,10.23,0,0,1-3.51,1.76,17,17,0,0,1-5,.64,21.37,21.37,0,0,1-3.53-.27c-1.06-.18-2-.39-2.9-.62s-1.65-.48-2.33-.71S564.27,556.18,563.77,556.06Z"/><path class="cls-2" d="M595.63,558a5,5,0,0,1-1.64-.27,4.11,4.11,0,0,1-1.37-.78,3.78,3.78,0,0,1-.93-1.23,3.86,3.86,0,0,1-.34-1.63,4.34,4.34,0,0,1,.39-1.84,4.74,4.74,0,0,1,1.08-1.48,4.84,4.84,0,0,1,1.58-1,5.21,5.21,0,0,1,1.93-.36,5.73,5.73,0,0,1,2,.32,3.94,3.94,0,0,1,1.36.85,3.27,3.27,0,0,1,.75,1.25,4.68,4.68,0,0,1,.23,1.51,4.56,4.56,0,0,1-.38,1.91,4.27,4.27,0,0,1-1,1.46,4.64,4.64,0,0,1-1.62.94A6,6,0,0,1,595.63,558Z"/></svg>