<svg id="Layer_1" data-name="Layer 1" xmlns="http://www.w3.org/2000/svg" viewBox="0 0 970 250"><defs><style>.cls-1{fill:#fff;}.cls-2{fill:#f1b533;}</style></defs><path class="cls-1" d="M50.1,165v-2.34l2.2-.48,8.24-23.29H66l8.22,23.29,2.37.48V165H65.52v-2.34l2.79-.48L67,158H57.74l-1.21,4.19,2.82.46V165Zm11.59-20.68-3.18,11H66.2l-3.36-11-.6-2.49Z"/><path class="cls-1" d="M88.49,163.91V159.1h3.14l.89,2.67a1.68,1.68,0,0,0,.47.44,3.76,3.76,0,0,0,.75.4,5.85,5.85,0,0,0,1,.28,6,6,0,0,0,1.14.11,3.84,3.84,0,0,0,1.39-.21,2.32,2.32,0,0,0,.87-.52,1.72,1.72,0,0,0,.44-.71,2.74,2.74,0,0,0,.12-.78,2.07,2.07,0,0,0-.37-1.24,3.6,3.6,0,0,0-1-1,10.67,10.67,0,0,0-1.63-.84c-.64-.28-1.35-.57-2.12-.89a14,14,0,0,1-2.12-1.07,7,7,0,0,1-1.6-1.33,5.23,5.23,0,0,1-1-1.64,5.44,5.44,0,0,1-.36-2,5,5,0,0,1,.5-2.25,5.1,5.1,0,0,1,1.5-1.79,7.43,7.43,0,0,1,2.46-1.2,12,12,0,0,1,3.4-.43,13.48,13.48,0,0,1,2,.13c.58.1,1.12.2,1.59.32s.92.25,1.32.38a9.46,9.46,0,0,0,1.16.3V151l-3,0-.8-2.27a2.4,2.4,0,0,0-.91-.76,3.52,3.52,0,0,0-1.69-.39,4.29,4.29,0,0,0-1.29.17,2.39,2.39,0,0,0-.84.46,1.74,1.74,0,0,0-.45.65,1.94,1.94,0,0,0-.14.7,2.27,2.27,0,0,0,.46,1.47,4.05,4.05,0,0,0,1.16,1,10.38,10.38,0,0,0,1.54.69c.56.2,1.09.42,1.59.64.75.34,1.47.69,2.15,1.06a8.49,8.49,0,0,1,1.82,1.29,5.57,5.57,0,0,1,1.27,1.7,5.24,5.24,0,0,1,.47,2.3,5.33,5.33,0,0,1-.49,2.3,5,5,0,0,1-1.47,1.85A7.27,7.27,0,0,1,99.33,165a12.28,12.28,0,0,1-3.46.44,14.5,14.5,0,0,1-2.47-.19c-.74-.12-1.42-.27-2-.43s-1.16-.33-1.63-.5S88.84,164,88.49,163.91Z"/><path class="cls-1" d="M106.35,165v-2.29l2.49-.33V149.23l-2.3-.74v-2.56l6.27-.84h.08l1.25.73v16.55l2.48.34V165Zm4.54-22.8a2.47,2.47,0,0,1-1.07-.22,2.3,2.3,0,0,1-.78-.59,2.45,2.45,0,0,1-.48-.87,3.42,3.42,0,0,1-.16-1.07,4.36,4.36,0,0,1,.18-1.26,2.92,2.92,0,0,1,.55-1,2.6,2.6,0,0,1,.93-.7,3.06,3.06,0,0,1,1.29-.26h0a3,3,0,0,1,1.21.23,2.62,2.62,0,0,1,.84.62,2.51,2.51,0,0,1,.51.88,3.59,3.59,0,0,1,.16,1,4,4,0,0,1-.19,1.27,2.8,2.8,0,0,1-.57,1,2.61,2.61,0,0,1-1,.68,3.69,3.69,0,0,1-1.43.25Z"/><path class="cls-1" d="M119.2,165v-2.22l2.13-.4V149.23l-2.32-.72v-2.58l6-.84h.09l.9.73v2a8.5,8.5,0,0,1,1.39-1,12.77,12.77,0,0,1,1.78-.87,13.19,13.19,0,0,1,1.94-.6,9.14,9.14,0,0,1,1.88-.22,6.61,6.61,0,0,1,3.13.63,4.09,4.09,0,0,1,1.76,2,9.49,9.49,0,0,1,1.26-.9,11.85,11.85,0,0,1,1.71-.85,13.88,13.88,0,0,1,2-.64,8.39,8.39,0,0,1,2-.26,7.69,7.69,0,0,1,2.69.41,3.61,3.61,0,0,1,1.72,1.33,6.11,6.11,0,0,1,.93,2.41,20.29,20.29,0,0,1,.27,3.59v9.5l2.41.4V165h-9.47v-2.22l1.8-.4V153a14,14,0,0,0-.15-2.23,4.08,4.08,0,0,0-.49-1.48,1.93,1.93,0,0,0-.92-.82,3.62,3.62,0,0,0-1.45-.26,4.1,4.1,0,0,0-.94.12c-.34.08-.68.18-1,.3s-.67.25-1,.4a8,8,0,0,0-.84.45,10.24,10.24,0,0,1,.19,1.56c0,.56,0,1.18,0,1.84v9.48l2.28.38V165h-9.57v-2.22l2-.38v-9.55a13.23,13.23,0,0,0-.14-2,3.83,3.83,0,0,0-.47-1.41,2,2,0,0,0-.9-.82,3.62,3.62,0,0,0-1.45-.26,5.08,5.08,0,0,0-1.07.12,9.55,9.55,0,0,0-1.08.3,6.27,6.27,0,0,0-1,.41,5.12,5.12,0,0,0-.75.47v12.76l2.31.4V165Z"/><path class="cls-1" d="M154.61,171.31l2.56-.43V149.23l-2.32-.72v-2.58l6.12-.84h.08l.87.73v1.82a7.82,7.82,0,0,1,1-1,7.4,7.4,0,0,1,1.3-.83,8.09,8.09,0,0,1,1.57-.58,7.27,7.27,0,0,1,1.85-.22,8.22,8.22,0,0,1,2.95.53,6.17,6.17,0,0,1,2.4,1.68,8.3,8.3,0,0,1,1.61,3,14.27,14.27,0,0,1,.59,4.41,12.59,12.59,0,0,1-.69,4.23,10.15,10.15,0,0,1-2,3.41,9.19,9.19,0,0,1-3.16,2.28,10.14,10.14,0,0,1-4.21.83l-.84,0q-.42,0-.81-.09l-.69-.1c-.2,0-.37-.07-.49-.1l.1,2.84v3l3.38.43v2.17H154.61Zm10.87-23.16a4.24,4.24,0,0,0-1.83.37,3.62,3.62,0,0,0-1.23.83v12.93a2.41,2.41,0,0,0,.94.58,4.55,4.55,0,0,0,1.57.24,3.9,3.9,0,0,0,1.75-.4,3.7,3.7,0,0,0,1.45-1.32,7.87,7.87,0,0,0,1-2.43,16.37,16.37,0,0,0,.41-3.69,15,15,0,0,0-.25-3.28,7,7,0,0,0-.81-2.21,3.25,3.25,0,0,0-1.29-1.24A3.82,3.82,0,0,0,165.48,148.15Z"/><path class="cls-1" d="M177.39,165v-2.29l2.48-.34V139.55l-2.55-.42v-2l6.68-.84h.05l1.08.8v25.28l2.58.34V165Z"/><path class="cls-1" d="M198.89,165.39a10.43,10.43,0,0,1-4.15-.75,7.66,7.66,0,0,1-2.85-2.09,8.59,8.59,0,0,1-1.65-3.21,14.88,14.88,0,0,1-.53-4.06,12.7,12.7,0,0,1,.68-4.29,9.24,9.24,0,0,1,1.9-3.21,8.13,8.13,0,0,1,3-2,10,10,0,0,1,3.83-.7q7.08,0,7.4,6.92c0,.78,0,1.49,0,2.13a10.33,10.33,0,0,1-.18,1.59H195.13a10.91,10.91,0,0,0,.49,2.89,5.84,5.84,0,0,0,1.08,1.95,3.88,3.88,0,0,0,1.58,1.09,5.65,5.65,0,0,0,2,.34,9.17,9.17,0,0,0,1.62-.13,12.49,12.49,0,0,0,1.4-.34,8.25,8.25,0,0,0,1.16-.47,10.19,10.19,0,0,0,.9-.49l.88,2.07a7.13,7.13,0,0,1-1.18.93,12.39,12.39,0,0,1-1.75.9,13.86,13.86,0,0,1-2.12.68A9.93,9.93,0,0,1,198.89,165.39Zm-.46-18a3.15,3.15,0,0,0-1.24.24,2.25,2.25,0,0,0-1,.9,6,6,0,0,0-.72,1.86,16.37,16.37,0,0,0-.35,3.06h6.14s0-.13,0-.24,0-.21,0-.32,0-.22,0-.33v-.22a13.38,13.38,0,0,0-.12-1.77,5.69,5.69,0,0,0-.43-1.59,3.18,3.18,0,0,0-.88-1.15A2.17,2.17,0,0,0,198.43,147.35Z"/><path class="cls-1" d="M220.66,163.91V159.1h3.15l.88,2.67a1.83,1.83,0,0,0,.47.44,4.16,4.16,0,0,0,.76.4,5.73,5.73,0,0,0,1,.28A6,6,0,0,0,228,163a3.93,3.93,0,0,0,1.4-.21,2.27,2.27,0,0,0,.86-.52,1.63,1.63,0,0,0,.44-.71,2.74,2.74,0,0,0,.12-.78,2.13,2.13,0,0,0-.36-1.24,3.79,3.79,0,0,0-1.05-1,10.67,10.67,0,0,0-1.63-.84c-.64-.28-1.34-.57-2.12-.89a14.46,14.46,0,0,1-2.12-1.07,7,7,0,0,1-1.59-1.33,5.26,5.26,0,0,1-1-1.64,5.44,5.44,0,0,1-.36-2,4.89,4.89,0,0,1,2-4,7.43,7.43,0,0,1,2.46-1.2,12,12,0,0,1,3.4-.43,13.48,13.48,0,0,1,2,.13c.59.1,1.12.2,1.6.32s.91.25,1.31.38a9.46,9.46,0,0,0,1.16.3V151l-3,0-.8-2.27a2.33,2.33,0,0,0-.91-.76,3.52,3.52,0,0,0-1.69-.39,4.34,4.34,0,0,0-1.29.17,2.39,2.39,0,0,0-.84.46,1.74,1.74,0,0,0-.45.65,1.94,1.94,0,0,0-.14.7,2.33,2.33,0,0,0,.46,1.47,4,4,0,0,0,1.17,1,10.25,10.25,0,0,0,1.53.69c.56.2,1.09.42,1.59.64.76.34,1.47.69,2.16,1.06a9,9,0,0,1,1.82,1.29,5.54,5.54,0,0,1,1.26,1.7,5.1,5.1,0,0,1,.47,2.3,5.48,5.48,0,0,1-.48,2.3,5.2,5.2,0,0,1-1.47,1.85A7.42,7.42,0,0,1,231.5,165a12.23,12.23,0,0,1-3.46.44,14.5,14.5,0,0,1-2.47-.19c-.74-.12-1.42-.27-2-.43s-1.15-.33-1.63-.5S221,164,220.66,163.91Z"/><path class="cls-1" d="M238.35,155.45a12.33,12.33,0,0,1,.69-4.22,9.31,9.31,0,0,1,2-3.29,8.74,8.74,0,0,1,3.1-2.14,10.4,10.4,0,0,1,4.07-.76,15,15,0,0,1,2.1.13,15.76,15.76,0,0,1,1.71.3,12.35,12.35,0,0,1,1.3.35l.89.28-.17,5.83h-3l-1-3a3.28,3.28,0,0,0-.92-1.13,2.19,2.19,0,0,0-1.33-.41,3.07,3.07,0,0,0-1.47.38,3.66,3.66,0,0,0-1.23,1.22,7.39,7.39,0,0,0-.86,2.14,13.86,13.86,0,0,0-.32,3.18,16.69,16.69,0,0,0,.33,3.59,6.8,6.8,0,0,0,1,2.38,3.69,3.69,0,0,0,1.57,1.3,5.06,5.06,0,0,0,2.07.4,8.05,8.05,0,0,0,2.74-.42,10.35,10.35,0,0,0,1.94-.93l.9,2.07a6.69,6.69,0,0,1-1,.87,10.84,10.84,0,0,1-1.57.88,11.79,11.79,0,0,1-2,.68,9.41,9.41,0,0,1-2.27.27,10.46,10.46,0,0,1-4.15-.75,7.51,7.51,0,0,1-2.86-2.08,8.6,8.6,0,0,1-1.66-3.16A13.82,13.82,0,0,1,238.35,155.45Z"/><path class="cls-1" d="M256.86,165v-2.29l2.46-.33V149.23l-2.33-.72v-2.58l5.85-.84h.1l.91.73v1.42l0,2.67h.07a7.74,7.74,0,0,1,.74-1.38,10.16,10.16,0,0,1,1.33-1.6,8,8,0,0,1,1.83-1.34,4.68,4.68,0,0,1,2.25-.55,5.67,5.67,0,0,1,.81,0,3,3,0,0,1,.47.11v5.92a2.7,2.7,0,0,0-1-.3,9.39,9.39,0,0,0-1.89-.17,11.7,11.7,0,0,0-1.19.07c-.4,0-.78.11-1.12.18a6.62,6.62,0,0,0-.94.27,3.11,3.11,0,0,0-.63.3v10.91l4.26.41V165Z"/><path class="cls-1" d="M282.46,165.39a10.43,10.43,0,0,1-4.15-.75,7.66,7.66,0,0,1-2.85-2.09,8.59,8.59,0,0,1-1.65-3.21,14.88,14.88,0,0,1-.53-4.06A12.46,12.46,0,0,1,274,151a9.24,9.24,0,0,1,1.9-3.21,8.13,8.13,0,0,1,3-2,10,10,0,0,1,3.83-.7q7.08,0,7.39,6.92,0,1.17,0,2.13a10.33,10.33,0,0,1-.18,1.59H278.7a10.52,10.52,0,0,0,.49,2.89,5.84,5.84,0,0,0,1.08,1.95,3.82,3.82,0,0,0,1.58,1.09,5.65,5.65,0,0,0,2,.34,9.17,9.17,0,0,0,1.62-.13,12.49,12.49,0,0,0,1.4-.34A8.25,8.25,0,0,0,288,161a9.9,9.9,0,0,0,.89-.49l.89,2.07a7.13,7.13,0,0,1-1.18.93,12.39,12.39,0,0,1-1.75.9,13.86,13.86,0,0,1-2.12.68A9.93,9.93,0,0,1,282.46,165.39Zm-.46-18a3.15,3.15,0,0,0-1.24.24,2.25,2.25,0,0,0-1,.9,6,6,0,0,0-.72,1.86,16.37,16.37,0,0,0-.35,3.06h6.14v-.24c0-.1,0-.21,0-.32s0-.22,0-.33v-.22a13.38,13.38,0,0,0-.12-1.77,5.69,5.69,0,0,0-.44-1.59,3.05,3.05,0,0,0-.87-1.15A2.17,2.17,0,0,0,282,147.35Z"/><path class="cls-1" d="M301.7,165.39a10.38,10.38,0,0,1-4.14-.75,7.61,7.61,0,0,1-2.86-2.09,8.89,8.89,0,0,1-1.65-3.21,14.88,14.88,0,0,1-.53-4.06,12.7,12.7,0,0,1,.68-4.29,9.26,9.26,0,0,1,1.91-3.21,8.09,8.09,0,0,1,2.95-2,10,10,0,0,1,3.83-.7q7.1,0,7.4,6.92c0,.78,0,1.49,0,2.13a10.33,10.33,0,0,1-.18,1.59H297.94a10.5,10.5,0,0,0,.5,2.89,5.66,5.66,0,0,0,1.07,1.95,4,4,0,0,0,1.58,1.09,5.65,5.65,0,0,0,2,.34,9.36,9.36,0,0,0,1.63-.13,12.3,12.3,0,0,0,1.39-.34,7.78,7.78,0,0,0,1.16-.47,8.93,8.93,0,0,0,.9-.49l.89,2.07a7.26,7.26,0,0,1-1.19.93,12.81,12.81,0,0,1-1.74.9,14.61,14.61,0,0,1-2.12.68A10,10,0,0,1,301.7,165.39Zm-.46-18a3.19,3.19,0,0,0-1.24.24,2.25,2.25,0,0,0-1,.9,5.78,5.78,0,0,0-.71,1.86,16.26,16.26,0,0,0-.36,3.06h6.14s0-.13,0-.24,0-.21,0-.32v-.55a13.38,13.38,0,0,0-.12-1.77,5.69,5.69,0,0,0-.43-1.59,3.05,3.05,0,0,0-.87-1.15A2.2,2.2,0,0,0,301.24,147.35Z"/><path class="cls-1" d="M312.19,165v-2.29l2.21-.34V149.23l-2.33-.72v-2.58l6.12-.84h.09l.9.73v2a10.17,10.17,0,0,1,1.34-1,10.41,10.41,0,0,1,1.66-.87,12.65,12.65,0,0,1,1.89-.61,9,9,0,0,1,2-.23,7.5,7.5,0,0,1,2.74.43,3.69,3.69,0,0,1,1.76,1.37,6.17,6.17,0,0,1,.92,2.41,20.29,20.29,0,0,1,.27,3.57v9.46l2.43.33V165h-9.62v-2.29l1.86-.33v-9.53a14.93,14.93,0,0,0-.12-2,3.84,3.84,0,0,0-.44-1.41,2,2,0,0,0-.87-.82,3.4,3.4,0,0,0-1.42-.26,5,5,0,0,0-1.15.13,6.06,6.06,0,0,0-1.07.33,8.76,8.76,0,0,0-.92.45,8.37,8.37,0,0,0-.73.49v12.65l2.29.34V165Z"/><path class="cls-1" d="M336.19,165v-2.29l2.49-.33V149.23l-2.3-.74v-2.56l6.27-.84h.08l1.25.73v16.55l2.48.34V165Zm4.54-22.8a2.39,2.39,0,0,1-1.06-.22,2.25,2.25,0,0,1-.79-.59,2.45,2.45,0,0,1-.48-.87,3.42,3.42,0,0,1-.16-1.07,4.36,4.36,0,0,1,.18-1.26,2.92,2.92,0,0,1,.55-1,2.64,2.64,0,0,1,.94-.7,3.06,3.06,0,0,1,1.29-.26h0a3,3,0,0,1,1.21.23,2.53,2.53,0,0,1,1.35,1.5,3.28,3.28,0,0,1,.16,1,4,4,0,0,1-.19,1.27,2.66,2.66,0,0,1-.57,1,2.61,2.61,0,0,1-1,.68,3.69,3.69,0,0,1-1.43.25Z"/><path class="cls-1" d="M349,165v-2.29l2.21-.34V149.23l-2.33-.72v-2.58l6.12-.84h.08l.91.73v2a10.73,10.73,0,0,1,1.33-1A11,11,0,0,1,359,146a12.65,12.65,0,0,1,1.89-.61,9,9,0,0,1,2-.23,7.5,7.5,0,0,1,2.74.43,3.62,3.62,0,0,1,1.75,1.37,6.17,6.17,0,0,1,.93,2.41,20.29,20.29,0,0,1,.27,3.57v9.46l2.43.33V165h-9.63v-2.29l1.87-.33v-9.53a14.93,14.93,0,0,0-.12-2,3.84,3.84,0,0,0-.44-1.41,2,2,0,0,0-.87-.82,3.45,3.45,0,0,0-1.43-.26,4.86,4.86,0,0,0-1.14.13,6.06,6.06,0,0,0-1.07.33,7.89,7.89,0,0,0-.92.45,8.37,8.37,0,0,0-.73.49v12.65l2.29.34V165Z"/><path class="cls-1" d="M381.7,158.32a14.88,14.88,0,0,1-2.6-.21,2.78,2.78,0,0,0-.48.68,2.06,2.06,0,0,0-.19.9,1.78,1.78,0,0,0,.23.95,1.38,1.38,0,0,0,.7.56,4.12,4.12,0,0,0,1.22.26c.5,0,1.09.07,1.79.07h3.41a9.77,9.77,0,0,1,5.5,1.25,4.61,4.61,0,0,1,1.8,4.08,5.67,5.67,0,0,1-.9,3.13,7.94,7.94,0,0,1-2.41,2.38,12.32,12.32,0,0,1-3.53,1.53,16.34,16.34,0,0,1-4.18.53h0a17.62,17.62,0,0,1-4.13-.42,9,9,0,0,1-2.82-1.18,4.84,4.84,0,0,1-1.62-1.8,5,5,0,0,1-.52-2.27,3.69,3.69,0,0,1,.29-1.48A4.79,4.79,0,0,1,374,166a4.87,4.87,0,0,1,1.12-1,5.66,5.66,0,0,1,1.32-.67,3.91,3.91,0,0,1-1.52-1.3,3.23,3.23,0,0,1-.53-1.84,3.56,3.56,0,0,1,.68-2.2,6.69,6.69,0,0,1,1.75-1.58,5.44,5.44,0,0,1-2.57-2.22,6.67,6.67,0,0,1-.83-3.42,5.68,5.68,0,0,1,.69-2.79,6.48,6.48,0,0,1,1.89-2.12,8.9,8.9,0,0,1,2.78-1.36,11.74,11.74,0,0,1,3.4-.48h0q4.28,0,6.34,1.64a3.85,3.85,0,0,1,.65-.59,5.26,5.26,0,0,1,.94-.54,7.09,7.09,0,0,1,1.18-.4,5.53,5.53,0,0,1,1.37-.16h.8v3.83h-3.37a6.8,6.8,0,0,1,.3,1.14,6.63,6.63,0,0,1,.11,1.3,6.26,6.26,0,0,1-.64,2.83,6.56,6.56,0,0,1-1.81,2.23,8.62,8.62,0,0,1-2.79,1.47,11.57,11.57,0,0,1-3.57.53Zm-.87,6.9a13.16,13.16,0,0,1-2.05-.15,4,4,0,0,0-.64,1,3.81,3.81,0,0,0-.3,1.67,5.55,5.55,0,0,0,.3,1.95,3.15,3.15,0,0,0,.91,1.3,3.61,3.61,0,0,0,1.48.73,8.22,8.22,0,0,0,2,.22h0a8.63,8.63,0,0,0,2-.24,6.09,6.09,0,0,0,1.77-.72,4,4,0,0,0,1.24-1.23,3.06,3.06,0,0,0,.47-1.72,4.34,4.34,0,0,0-.16-1.28,1.7,1.7,0,0,0-.58-.87,2.73,2.73,0,0,0-1.14-.48,8.75,8.75,0,0,0-1.86-.16Zm1.28-9.19h0a2.74,2.74,0,0,0,1.44-.35,2.57,2.57,0,0,0,.9-1,4.65,4.65,0,0,0,.45-1.42,10.66,10.66,0,0,0,.13-1.73,5.69,5.69,0,0,0-.73-3.27,2.72,2.72,0,0,0-2.38-1h0a2.67,2.67,0,0,0-2.34,1,5.48,5.48,0,0,0-.72,3.13,9.66,9.66,0,0,0,.16,1.85,4,4,0,0,0,.52,1.45,2.65,2.65,0,0,0,1,.94A3.23,3.23,0,0,0,382.11,156Z"/><path class="cls-1" d="M52.19,209v-2.26l2.73-.46V192.51h-3v-2l3-.86v-1a7.88,7.88,0,0,1,.84-3.65,9.25,9.25,0,0,1,2.15-2.77,9.59,9.59,0,0,1,2.94-1.76,9,9,0,0,1,3.2-.62,6.29,6.29,0,0,1,1.32.1,6.44,6.44,0,0,1,.68.19v5.11a2.71,2.71,0,0,0-.62-.47,5.92,5.92,0,0,0-.91-.41,8.22,8.22,0,0,0-1.09-.3,5.74,5.74,0,0,0-1.17-.12,3.58,3.58,0,0,0-.84.1,1.46,1.46,0,0,0-.64.37,1.68,1.68,0,0,0-.41.72,3.73,3.73,0,0,0-.15,1.15l0,3.35h4.39v2.91H60.24v13.87l3.79.36V209Z"/><path class="cls-1" d="M66.51,199.33a11.86,11.86,0,0,1,.8-4.53,9.36,9.36,0,0,1,2.14-3.21,8.6,8.6,0,0,1,3.08-1.92,10.74,10.74,0,0,1,3.65-.63,10.44,10.44,0,0,1,3.93.69,7.75,7.75,0,0,1,2.88,2,8.75,8.75,0,0,1,1.76,3.16,14.13,14.13,0,0,1,.59,4.23,12,12,0,0,1-.8,4.61,9,9,0,0,1-2.14,3.2,8.49,8.49,0,0,1-3.07,1.87,11.12,11.12,0,0,1-3.64.6,10.44,10.44,0,0,1-3.93-.69,7.64,7.64,0,0,1-2.88-2,8.62,8.62,0,0,1-1.77-3.16A13.74,13.74,0,0,1,66.51,199.33ZM76,207a3,3,0,0,0,1.62-.41,3.12,3.12,0,0,0,1.14-1.32,7.7,7.7,0,0,0,.66-2.3,21.5,21.5,0,0,0,.22-3.35,28.48,28.48,0,0,0-.2-3.54,9.92,9.92,0,0,0-.63-2.59,3.66,3.66,0,0,0-1.14-1.58,2.82,2.82,0,0,0-1.74-.54,3.07,3.07,0,0,0-1.63.42,3.2,3.2,0,0,0-1.16,1.31,8.06,8.06,0,0,0-.68,2.3,21.5,21.5,0,0,0-.22,3.35,28.65,28.65,0,0,0,.2,3.55,10,10,0,0,0,.66,2.59,3.9,3.9,0,0,0,1.16,1.58A2.79,2.79,0,0,0,76,207Z"/><path class="cls-1" d="M88,209v-2.29l2.46-.33V193.23l-2.32-.72v-2.58l5.84-.84H94l.91.73v1.42l0,2.67H95a7.74,7.74,0,0,1,.74-1.38,9.72,9.72,0,0,1,1.34-1.6,7.93,7.93,0,0,1,1.82-1.34,4.68,4.68,0,0,1,2.25-.55,5.59,5.59,0,0,1,.81,0,3,3,0,0,1,.47.11v5.92a2.7,2.7,0,0,0-1-.3,9.39,9.39,0,0,0-1.89-.17,11.7,11.7,0,0,0-1.19.07c-.4,0-.78.11-1.12.18a6.11,6.11,0,0,0-.93.27,3,3,0,0,0-.64.3v10.91l4.26.41V209Z"/><path class="cls-2" d="M115.39,209v-2.29l2.1-.34V183.55l-2.56-.42v-2l6.64-.84h.09l1,.8,0,8-.28,2.72a9.6,9.6,0,0,1,1.16-.91,10.44,10.44,0,0,1,1.56-.88,11.26,11.26,0,0,1,1.91-.66,8.49,8.49,0,0,1,2.17-.27,7.12,7.12,0,0,1,2.77.46,3.86,3.86,0,0,1,1.74,1.42,6.4,6.4,0,0,1,.9,2.42,19.28,19.28,0,0,1,.27,3.46v9.47l2.41.34V209h-9.57v-2.22l1.89-.38v-9.55a16.93,16.93,0,0,0-.11-2,3.65,3.65,0,0,0-.46-1.41,2,2,0,0,0-.92-.82,3.83,3.83,0,0,0-1.51-.26,5.29,5.29,0,0,0-1.1.12,9.55,9.55,0,0,0-1.08.3,6.7,6.7,0,0,0-1,.41,4.11,4.11,0,0,0-.77.47v12.75l2.34.34V209Z"/><path class="cls-2" d="M148.34,209.39a10.43,10.43,0,0,1-4.15-.75,7.58,7.58,0,0,1-2.85-2.09,8.59,8.59,0,0,1-1.65-3.21,14.88,14.88,0,0,1-.53-4.06,12.71,12.71,0,0,1,.67-4.29,9.26,9.26,0,0,1,1.91-3.21,8.13,8.13,0,0,1,3-2,10,10,0,0,1,3.82-.7q7.09,0,7.4,6.92c0,.78,0,1.49,0,2.13a10.33,10.33,0,0,1-.18,1.59H144.58a10.52,10.52,0,0,0,.49,2.89,5.84,5.84,0,0,0,1.08,1.95,3.82,3.82,0,0,0,1.58,1.09,5.65,5.65,0,0,0,2,.34,9.17,9.17,0,0,0,1.62-.13,11.79,11.79,0,0,0,1.39-.34,7.92,7.92,0,0,0,1.17-.47,9.9,9.9,0,0,0,.89-.49l.89,2.07a7.13,7.13,0,0,1-1.18.93,12.39,12.39,0,0,1-1.75.9,13.86,13.86,0,0,1-2.12.68A10,10,0,0,1,148.34,209.39Zm-.46-18a3.15,3.15,0,0,0-1.24.24,2.2,2.2,0,0,0-1,.9,6,6,0,0,0-.72,1.86,16.37,16.37,0,0,0-.35,3.06h6.14v-.24c0-.1,0-.21,0-.32s0-.22,0-.33v-.22a13.38,13.38,0,0,0-.12-1.77,5.69,5.69,0,0,0-.44-1.59,3.05,3.05,0,0,0-.87-1.15A2.17,2.17,0,0,0,147.88,191.35Z"/><path class="cls-2" d="M158.27,203.8a5.22,5.22,0,0,1,.45-2.23,5.39,5.39,0,0,1,1.25-1.71,7.36,7.36,0,0,1,1.87-1.25,14.44,14.44,0,0,1,2.32-.85,17.85,17.85,0,0,1,2.6-.48c.9-.11,1.8-.17,2.7-.19v-.82a4,4,0,0,0-.79-2.78,3.51,3.51,0,0,0-2.61-.83,11.76,11.76,0,0,0-1.86.15,16,16,0,0,0-1.78.36c-.57.14-1.1.3-1.58.47s-.9.35-1.24.51h0l-1-2.29a8.24,8.24,0,0,1,1.22-.76,14.92,14.92,0,0,1,2.05-.92,22.13,22.13,0,0,1,2.65-.77,14,14,0,0,1,3-.32,11.11,11.11,0,0,1,3.22.41,5,5,0,0,1,2.15,1.27,5.13,5.13,0,0,1,1.22,2.16,11.23,11.23,0,0,1,.38,3.08v10.67h2.12v2.1c-.22,0-.49.1-.8.18s-.68.14-1.06.2-.81.12-1.25.16a12.32,12.32,0,0,1-1.37.07,8,8,0,0,1-1.05,0,1.42,1.42,0,0,1-.7-.24,1,1,0,0,1-.38-.54,3,3,0,0,1-.12-.95v-1a6.86,6.86,0,0,1-.81.88,6.5,6.5,0,0,1-1.24.9,7.32,7.32,0,0,1-1.65.71,6.82,6.82,0,0,1-2,.28,7.88,7.88,0,0,1-2.27-.32,5.09,5.09,0,0,1-1.86-1,4.86,4.86,0,0,1-1.25-1.74A6.27,6.27,0,0,1,158.27,203.8Zm8.11,2.29a3.07,3.07,0,0,0,.7-.08,6.84,6.84,0,0,0,.82-.24,6.3,6.3,0,0,0,.84-.37,3.47,3.47,0,0,0,.72-.48v-5.66a10.45,10.45,0,0,0-2.78.31,4.91,4.91,0,0,0-1.78.82,2.86,2.86,0,0,0-1,1.18,3.51,3.51,0,0,0-.28,1.41,3.44,3.44,0,0,0,.69,2.32A2.54,2.54,0,0,0,166.38,206.09Z"/><path class="cls-2" d="M178.65,209v-2.29l2.47-.33V193.23l-2.33-.72v-2.58l5.85-.84h.1l.9.73v4.09h.07a7.13,7.13,0,0,1,.74-1.38,9.64,9.64,0,0,1,1.33-1.6,8,8,0,0,1,1.83-1.34,4.68,4.68,0,0,1,2.25-.55,5.67,5.67,0,0,1,.81,0,3.3,3.3,0,0,1,.47.11v5.92a2.78,2.78,0,0,0-1-.3,9.39,9.39,0,0,0-1.89-.17c-.4,0-.8,0-1.2.07s-.77.11-1.12.18a6.11,6.11,0,0,0-.93.27,3.11,3.11,0,0,0-.63.3v10.91l4.25.41V209Z"/><path class="cls-2" d="M197.25,204.9V192.32h-2.41v-1.95l.43-.14.62-.23.57-.23a2.22,2.22,0,0,0,.33-.17A5.4,5.4,0,0,0,198,188l.38-.79c.13-.3.27-.62.4-.95s.25-.66.37-1,.21-.62.29-.88h3l.05,5h5v2.91h-5v9.47c0,.91,0,1.63,0,2.17a4,4,0,0,0,.21,1.21.8.8,0,0,0,.5.53,2.94,2.94,0,0,0,.94.12h0a5.24,5.24,0,0,0,.86-.07c.3,0,.6-.1.89-.16s.56-.13.8-.2l.61-.2h0l.8,2A8.67,8.67,0,0,1,207,208a10.79,10.79,0,0,1-1.64.71,13.4,13.4,0,0,1-1.89.52,10.52,10.52,0,0,1-2,.19h0a5.47,5.47,0,0,1-1.92-.29,2.93,2.93,0,0,1-1.28-.86,3.48,3.48,0,0,1-.71-1.41A7.48,7.48,0,0,1,197.25,204.9Z"/><path class="cls-2" d="M220.63,209v-2.29l2.1-.34V183.55l-2.56-.42v-2l6.64-.84h.09l1,.8,0,8-.28,2.72a9.6,9.6,0,0,1,1.16-.91,10.44,10.44,0,0,1,1.56-.88,11.15,11.15,0,0,1,1.9-.66,8.62,8.62,0,0,1,2.18-.27,7.12,7.12,0,0,1,2.77.46A3.86,3.86,0,0,1,239,191a6.4,6.4,0,0,1,.9,2.42,19.28,19.28,0,0,1,.27,3.46v9.47l2.41.34V209H233v-2.22l1.89-.38v-9.55a14.93,14.93,0,0,0-.12-2,3.66,3.66,0,0,0-.45-1.41,2,2,0,0,0-.92-.82,3.83,3.83,0,0,0-1.51-.26,5.29,5.29,0,0,0-1.1.12,9,9,0,0,0-1.08.3,7.33,7.33,0,0,0-1,.41,4.35,4.35,0,0,0-.76.47v12.75l2.34.34V209Z"/><path class="cls-2" d="M253.58,209.39a10.43,10.43,0,0,1-4.15-.75,7.58,7.58,0,0,1-2.85-2.09,8.59,8.59,0,0,1-1.65-3.21,14.88,14.88,0,0,1-.53-4.06,12.71,12.71,0,0,1,.67-4.29,9.26,9.26,0,0,1,1.91-3.21,8.13,8.13,0,0,1,3-2,10,10,0,0,1,3.82-.7q7.1,0,7.4,6.92c0,.78,0,1.49,0,2.13a10.33,10.33,0,0,1-.18,1.59H249.82a10.52,10.52,0,0,0,.49,2.89,5.84,5.84,0,0,0,1.08,1.95,3.82,3.82,0,0,0,1.58,1.09,5.65,5.65,0,0,0,2,.34,9.17,9.17,0,0,0,1.62-.13,11.79,11.79,0,0,0,1.39-.34,7.92,7.92,0,0,0,1.17-.47,9.9,9.9,0,0,0,.89-.49l.89,2.07a6.85,6.85,0,0,1-1.19.93,11.73,11.73,0,0,1-1.74.9,13.86,13.86,0,0,1-2.12.68A10,10,0,0,1,253.58,209.39Zm-.46-18a3.15,3.15,0,0,0-1.24.24,2.2,2.2,0,0,0-1,.9,6,6,0,0,0-.72,1.86,15.57,15.57,0,0,0-.35,3.06h6.14v-.24c0-.1,0-.21,0-.32s0-.22,0-.33v-.22a13.38,13.38,0,0,0-.12-1.77,5.69,5.69,0,0,0-.44-1.59,3.05,3.05,0,0,0-.87-1.15A2.17,2.17,0,0,0,253.12,191.35Z"/><path class="cls-2" d="M263.5,203.8a5.22,5.22,0,0,1,.46-2.23,5.39,5.39,0,0,1,1.25-1.71,7.36,7.36,0,0,1,1.87-1.25,14.1,14.1,0,0,1,2.32-.85,17.85,17.85,0,0,1,2.6-.48c.9-.11,1.8-.17,2.7-.19v-.82a4,4,0,0,0-.8-2.78,3.5,3.5,0,0,0-2.6-.83,11.66,11.66,0,0,0-1.86.15,16,16,0,0,0-1.78.36c-.57.14-1.1.3-1.58.47s-.9.35-1.24.51h0l-1-2.29a8.24,8.24,0,0,1,1.22-.76,14.92,14.92,0,0,1,2.05-.92,21.6,21.6,0,0,1,2.65-.77,14,14,0,0,1,3-.32,11.16,11.16,0,0,1,3.22.41,5,5,0,0,1,2.15,1.27,5,5,0,0,1,1.21,2.16,10.83,10.83,0,0,1,.39,3.08v10.67h2.12v2.1L281,209c-.31.07-.67.14-1.05.2s-.81.12-1.25.16a12.32,12.32,0,0,1-1.37.07,8,8,0,0,1-1.05,0,1.38,1.38,0,0,1-.7-.24,1,1,0,0,1-.39-.54,3,3,0,0,1-.12-.95v-1a6.06,6.06,0,0,1-.8.88,6.5,6.5,0,0,1-1.24.9,7.32,7.32,0,0,1-1.65.71,6.82,6.82,0,0,1-2,.28,7.88,7.88,0,0,1-2.27-.32,5.09,5.09,0,0,1-1.86-1,4.74,4.74,0,0,1-1.25-1.74A6.26,6.26,0,0,1,263.5,203.8Zm8.12,2.29a3.07,3.07,0,0,0,.7-.08,7.43,7.43,0,0,0,.82-.24,6.3,6.3,0,0,0,.84-.37,3.76,3.76,0,0,0,.72-.48v-5.66a10.45,10.45,0,0,0-2.78.31,4.83,4.83,0,0,0-1.78.82,2.86,2.86,0,0,0-.95,1.18,3.51,3.51,0,0,0-.28,1.41,3.44,3.44,0,0,0,.69,2.32A2.52,2.52,0,0,0,271.62,206.09Z"/><path class="cls-2" d="M283.36,209v-2.29l2.48-.34V183.55l-2.54-.42v-2l6.68-.84h0l1.08.8v25.28l2.58.34V209Z"/><path class="cls-2" d="M297.86,204.9V192.32h-2.41v-1.95l.43-.14.62-.23.57-.23a1.58,1.58,0,0,0,.32-.17,5.24,5.24,0,0,0,1.22-1.64c.11-.23.24-.49.37-.79s.27-.62.41-.95.25-.66.36-1,.21-.62.29-.88h3l.06,5h5v2.91h-5v9.47c0,.91,0,1.63,0,2.17a4.42,4.42,0,0,0,.2,1.21.84.84,0,0,0,.51.53,2.94,2.94,0,0,0,.94.12h0a5.24,5.24,0,0,0,.86-.07c.3,0,.6-.1.89-.16s.56-.13.8-.2l.61-.2h0l.81,2a8.67,8.67,0,0,1-1.26.78,10.79,10.79,0,0,1-1.64.71,13.54,13.54,0,0,1-1.9.52,10.34,10.34,0,0,1-2,.19h0a5.47,5.47,0,0,1-1.92-.29,2.93,2.93,0,0,1-1.28-.86,3.48,3.48,0,0,1-.71-1.41A7.48,7.48,0,0,1,297.86,204.9Z"/><path class="cls-2" d="M310.25,209v-2.29l2.1-.34V183.55l-2.56-.42v-2l6.64-.84h.09l1,.8,0,8-.28,2.72a9.6,9.6,0,0,1,1.16-.91,10.44,10.44,0,0,1,1.56-.88,11.15,11.15,0,0,1,1.9-.66,8.62,8.62,0,0,1,2.18-.27,7.12,7.12,0,0,1,2.77.46,3.86,3.86,0,0,1,1.74,1.42,6.4,6.4,0,0,1,.9,2.42,19.28,19.28,0,0,1,.27,3.46v9.47l2.41.34V209h-9.57v-2.22l1.89-.38v-9.55a14.93,14.93,0,0,0-.12-2,3.66,3.66,0,0,0-.45-1.41,2,2,0,0,0-.92-.82,3.83,3.83,0,0,0-1.51-.26,5.29,5.29,0,0,0-1.1.12,9,9,0,0,0-1.08.3,7.33,7.33,0,0,0-1,.41,4.35,4.35,0,0,0-.76.47v12.75l2.34.34V209Z"/><path class="cls-2" d="M338.67,209.29a3.43,3.43,0,0,1-1.15-.19,3,3,0,0,1-1-.54,2.66,2.66,0,0,1-.64-.87,2.57,2.57,0,0,1-.24-1.13,3,3,0,0,1,.27-1.29,3.22,3.22,0,0,1,.75-1,3.52,3.52,0,0,1,1.11-.69,3.56,3.56,0,0,1,1.35-.25,4.19,4.19,0,0,1,1.42.22,2.67,2.67,0,0,1,.95.6,2.29,2.29,0,0,1,.53.87,3.36,3.36,0,0,1,.16,1.06,3.41,3.41,0,0,1-.26,1.34,2.91,2.91,0,0,1-.74,1,3.09,3.09,0,0,1-1.13.66A4.31,4.31,0,0,1,338.67,209.29Z"/><path class="cls-1" d="M50.1,165v-2.34l2.2-.48,8.24-23.29H66l8.22,23.29,2.37.48V165H65.52v-2.34l2.79-.48L67,158H57.74l-1.21,4.19,2.82.46V165Zm11.59-20.68-3.18,11H66.2l-3.36-11-.6-2.49Z"/><path class="cls-1" d="M88.49,163.91V159.1h3.14l.89,2.67a1.68,1.68,0,0,0,.47.44,3.76,3.76,0,0,0,.75.4,5.85,5.85,0,0,0,1,.28,6,6,0,0,0,1.14.11,3.84,3.84,0,0,0,1.39-.21,2.32,2.32,0,0,0,.87-.52,1.72,1.72,0,0,0,.44-.71,2.74,2.74,0,0,0,.12-.78,2.07,2.07,0,0,0-.37-1.24,3.6,3.6,0,0,0-1-1,10.67,10.67,0,0,0-1.63-.84c-.64-.28-1.35-.57-2.12-.89a14,14,0,0,1-2.12-1.07,7,7,0,0,1-1.6-1.33,5.23,5.23,0,0,1-1-1.64,5.44,5.44,0,0,1-.36-2,5,5,0,0,1,.5-2.25,5.1,5.1,0,0,1,1.5-1.79,7.43,7.43,0,0,1,2.46-1.2,12,12,0,0,1,3.4-.43,13.48,13.48,0,0,1,2,.13c.58.1,1.12.2,1.59.32s.92.25,1.32.38a9.46,9.46,0,0,0,1.16.3V151l-3,0-.8-2.27a2.4,2.4,0,0,0-.91-.76,3.52,3.52,0,0,0-1.69-.39,4.29,4.29,0,0,0-1.29.17,2.39,2.39,0,0,0-.84.46,1.74,1.74,0,0,0-.45.65,1.94,1.94,0,0,0-.14.7,2.27,2.27,0,0,0,.46,1.47,4.05,4.05,0,0,0,1.16,1,10.38,10.38,0,0,0,1.54.69c.56.2,1.09.42,1.59.64.75.34,1.47.69,2.15,1.06a8.49,8.49,0,0,1,1.82,1.29,5.57,5.57,0,0,1,1.27,1.7,5.24,5.24,0,0,1,.47,2.3,5.33,5.33,0,0,1-.49,2.3,5,5,0,0,1-1.47,1.85A7.27,7.27,0,0,1,99.33,165a12.28,12.28,0,0,1-3.46.44,14.5,14.5,0,0,1-2.47-.19c-.74-.12-1.42-.27-2-.43s-1.16-.33-1.63-.5S88.84,164,88.49,163.91Z"/><path class="cls-1" d="M106.35,165v-2.29l2.49-.33V149.23l-2.3-.74v-2.56l6.27-.84h.08l1.25.73v16.55l2.48.34V165Zm4.54-22.8a2.47,2.47,0,0,1-1.07-.22,2.3,2.3,0,0,1-.78-.59,2.45,2.45,0,0,1-.48-.87,3.42,3.42,0,0,1-.16-1.07,4.36,4.36,0,0,1,.18-1.26,2.92,2.92,0,0,1,.55-1,2.6,2.6,0,0,1,.93-.7,3.06,3.06,0,0,1,1.29-.26h0a3,3,0,0,1,1.21.23,2.62,2.62,0,0,1,.84.62,2.51,2.51,0,0,1,.51.88,3.59,3.59,0,0,1,.16,1,4,4,0,0,1-.19,1.27,2.8,2.8,0,0,1-.57,1,2.61,2.61,0,0,1-1,.68,3.69,3.69,0,0,1-1.43.25Z"/><path class="cls-1" d="M119.2,165v-2.22l2.13-.4V149.23l-2.32-.72v-2.58l6-.84h.09l.9.73v2a8.5,8.5,0,0,1,1.39-1,12.77,12.77,0,0,1,1.78-.87,13.19,13.19,0,0,1,1.94-.6,9.14,9.14,0,0,1,1.88-.22,6.61,6.61,0,0,1,3.13.63,4.09,4.09,0,0,1,1.76,2,9.49,9.49,0,0,1,1.26-.9,11.85,11.85,0,0,1,1.71-.85,13.88,13.88,0,0,1,2-.64,8.39,8.39,0,0,1,2-.26,7.69,7.69,0,0,1,2.69.41,3.61,3.61,0,0,1,1.72,1.33,6.11,6.11,0,0,1,.93,2.41,20.29,20.29,0,0,1,.27,3.59v9.5l2.41.4V165h-9.47v-2.22l1.8-.4V153a14,14,0,0,0-.15-2.23,4.08,4.08,0,0,0-.49-1.48,1.93,1.93,0,0,0-.92-.82,3.62,3.62,0,0,0-1.45-.26,4.1,4.1,0,0,0-.94.12c-.34.08-.68.18-1,.3s-.67.25-1,.4a8,8,0,0,0-.84.45,10.24,10.24,0,0,1,.19,1.56c0,.56,0,1.18,0,1.84v9.48l2.28.38V165h-9.57v-2.22l2-.38v-9.55a13.23,13.23,0,0,0-.14-2,3.83,3.83,0,0,0-.47-1.41,2,2,0,0,0-.9-.82,3.62,3.62,0,0,0-1.45-.26,5.08,5.08,0,0,0-1.07.12,9.55,9.55,0,0,0-1.08.3,6.27,6.27,0,0,0-1,.41,5.12,5.12,0,0,0-.75.47v12.76l2.31.4V165Z"/><path class="cls-1" d="M154.61,171.31l2.56-.43V149.23l-2.32-.72v-2.58l6.12-.84h.08l.87.73v1.82a7.82,7.82,0,0,1,1-1,7.4,7.4,0,0,1,1.3-.83,8.09,8.09,0,0,1,1.57-.58,7.27,7.27,0,0,1,1.85-.22,8.22,8.22,0,0,1,2.95.53,6.17,6.17,0,0,1,2.4,1.68,8.3,8.3,0,0,1,1.61,3,14.27,14.27,0,0,1,.59,4.41,12.59,12.59,0,0,1-.69,4.23,10.15,10.15,0,0,1-2,3.41,9.19,9.19,0,0,1-3.16,2.28,10.14,10.14,0,0,1-4.21.83l-.84,0q-.42,0-.81-.09l-.69-.1c-.2,0-.37-.07-.49-.1l.1,2.84v3l3.38.43v2.17H154.61Zm10.87-23.16a4.24,4.24,0,0,0-1.83.37,3.62,3.62,0,0,0-1.23.83v12.93a2.41,2.41,0,0,0,.94.58,4.55,4.55,0,0,0,1.57.24,3.9,3.9,0,0,0,1.75-.4,3.7,3.7,0,0,0,1.45-1.32,7.87,7.87,0,0,0,1-2.43,16.37,16.37,0,0,0,.41-3.69,15,15,0,0,0-.25-3.28,7,7,0,0,0-.81-2.21,3.25,3.25,0,0,0-1.29-1.24A3.82,3.82,0,0,0,165.48,148.15Z"/><path class="cls-1" d="M177.39,165v-2.29l2.48-.34V139.55l-2.55-.42v-2l6.68-.84h.05l1.08.8v25.28l2.58.34V165Z"/><path class="cls-1" d="M198.89,165.39a10.43,10.43,0,0,1-4.15-.75,7.66,7.66,0,0,1-2.85-2.09,8.59,8.59,0,0,1-1.65-3.21,14.88,14.88,0,0,1-.53-4.06,12.7,12.7,0,0,1,.68-4.29,9.24,9.24,0,0,1,1.9-3.21,8.13,8.13,0,0,1,3-2,10,10,0,0,1,3.83-.7q7.08,0,7.4,6.92c0,.78,0,1.49,0,2.13a10.33,10.33,0,0,1-.18,1.59H195.13a10.91,10.91,0,0,0,.49,2.89,5.84,5.84,0,0,0,1.08,1.95,3.88,3.88,0,0,0,1.58,1.09,5.65,5.65,0,0,0,2,.34,9.17,9.17,0,0,0,1.62-.13,12.49,12.49,0,0,0,1.4-.34,8.25,8.25,0,0,0,1.16-.47,10.19,10.19,0,0,0,.9-.49l.88,2.07a7.13,7.13,0,0,1-1.18.93,12.39,12.39,0,0,1-1.75.9,13.86,13.86,0,0,1-2.12.68A9.93,9.93,0,0,1,198.89,165.39Zm-.46-18a3.15,3.15,0,0,0-1.24.24,2.25,2.25,0,0,0-1,.9,6,6,0,0,0-.72,1.86,16.37,16.37,0,0,0-.35,3.06h6.14s0-.13,0-.24,0-.21,0-.32,0-.22,0-.33v-.22a13.38,13.38,0,0,0-.12-1.77,5.69,5.69,0,0,0-.43-1.59,3.18,3.18,0,0,0-.88-1.15A2.17,2.17,0,0,0,198.43,147.35Z"/><path class="cls-1" d="M220.66,163.91V159.1h3.15l.88,2.67a1.83,1.83,0,0,0,.47.44,4.16,4.16,0,0,0,.76.4,5.73,5.73,0,0,0,1,.28A6,6,0,0,0,228,163a3.93,3.93,0,0,0,1.4-.21,2.27,2.27,0,0,0,.86-.52,1.63,1.63,0,0,0,.44-.71,2.74,2.74,0,0,0,.12-.78,2.13,2.13,0,0,0-.36-1.24,3.79,3.79,0,0,0-1.05-1,10.67,10.67,0,0,0-1.63-.84c-.64-.28-1.34-.57-2.12-.89a14.46,14.46,0,0,1-2.12-1.07,7,7,0,0,1-1.59-1.33,5.26,5.26,0,0,1-1-1.64,5.44,5.44,0,0,1-.36-2,4.89,4.89,0,0,1,2-4,7.43,7.43,0,0,1,2.46-1.2,12,12,0,0,1,3.4-.43,13.48,13.48,0,0,1,2,.13c.59.1,1.12.2,1.6.32s.91.25,1.31.38a9.46,9.46,0,0,0,1.16.3V151l-3,0-.8-2.27a2.33,2.33,0,0,0-.91-.76,3.52,3.52,0,0,0-1.69-.39,4.34,4.34,0,0,0-1.29.17,2.39,2.39,0,0,0-.84.46,1.74,1.74,0,0,0-.45.65,1.94,1.94,0,0,0-.14.7,2.33,2.33,0,0,0,.46,1.47,4,4,0,0,0,1.17,1,10.25,10.25,0,0,0,1.53.69c.56.2,1.09.42,1.59.64.76.34,1.47.69,2.16,1.06a9,9,0,0,1,1.82,1.29,5.54,5.54,0,0,1,1.26,1.7,5.1,5.1,0,0,1,.47,2.3,5.48,5.48,0,0,1-.48,2.3,5.2,5.2,0,0,1-1.47,1.85A7.42,7.42,0,0,1,231.5,165a12.23,12.23,0,0,1-3.46.44,14.5,14.5,0,0,1-2.47-.19c-.74-.12-1.42-.27-2-.43s-1.15-.33-1.63-.5S221,164,220.66,163.91Z"/><path class="cls-1" d="M238.35,155.45a12.33,12.33,0,0,1,.69-4.22,9.31,9.31,0,0,1,2-3.29,8.74,8.74,0,0,1,3.1-2.14,10.4,10.4,0,0,1,4.07-.76,15,15,0,0,1,2.1.13,15.76,15.76,0,0,1,1.71.3,12.35,12.35,0,0,1,1.3.35l.89.28-.17,5.83h-3l-1-3a3.28,3.28,0,0,0-.92-1.13,2.19,2.19,0,0,0-1.33-.41,3.07,3.07,0,0,0-1.47.38,3.66,3.66,0,0,0-1.23,1.22,7.39,7.39,0,0,0-.86,2.14,13.86,13.86,0,0,0-.32,3.18,16.69,16.69,0,0,0,.33,3.59,6.8,6.8,0,0,0,1,2.38,3.69,3.69,0,0,0,1.57,1.3,5.06,5.06,0,0,0,2.07.4,8.05,8.05,0,0,0,2.74-.42,10.35,10.35,0,0,0,1.94-.93l.9,2.07a6.69,6.69,0,0,1-1,.87,10.84,10.84,0,0,1-1.57.88,11.79,11.79,0,0,1-2,.68,9.41,9.41,0,0,1-2.27.27,10.46,10.46,0,0,1-4.15-.75,7.51,7.51,0,0,1-2.86-2.08,8.6,8.6,0,0,1-1.66-3.16A13.82,13.82,0,0,1,238.35,155.45Z"/><path class="cls-1" d="M256.86,165v-2.29l2.46-.33V149.23l-2.33-.72v-2.58l5.85-.84h.1l.91.73v1.42l0,2.67h.07a7.74,7.74,0,0,1,.74-1.38,10.16,10.16,0,0,1,1.33-1.6,8,8,0,0,1,1.83-1.34,4.68,4.68,0,0,1,2.25-.55,5.67,5.67,0,0,1,.81,0,3,3,0,0,1,.47.11v5.92a2.7,2.7,0,0,0-1-.3,9.39,9.39,0,0,0-1.89-.17,11.7,11.7,0,0,0-1.19.07c-.4,0-.78.11-1.12.18a6.62,6.62,0,0,0-.94.27,3.11,3.11,0,0,0-.63.3v10.91l4.26.41V165Z"/><path class="cls-1" d="M282.46,165.39a10.43,10.43,0,0,1-4.15-.75,7.66,7.66,0,0,1-2.85-2.09,8.59,8.59,0,0,1-1.65-3.21,14.88,14.88,0,0,1-.53-4.06A12.46,12.46,0,0,1,274,151a9.24,9.24,0,0,1,1.9-3.21,8.13,8.13,0,0,1,3-2,10,10,0,0,1,3.83-.7q7.08,0,7.39,6.92,0,1.17,0,2.13a10.33,10.33,0,0,1-.18,1.59H278.7a10.52,10.52,0,0,0,.49,2.89,5.84,5.84,0,0,0,1.08,1.95,3.82,3.82,0,0,0,1.58,1.09,5.65,5.65,0,0,0,2,.34,9.17,9.17,0,0,0,1.62-.13,12.49,12.49,0,0,0,1.4-.34A8.25,8.25,0,0,0,288,161a9.9,9.9,0,0,0,.89-.49l.89,2.07a7.13,7.13,0,0,1-1.18.93,12.39,12.39,0,0,1-1.75.9,13.86,13.86,0,0,1-2.12.68A9.93,9.93,0,0,1,282.46,165.39Zm-.46-18a3.15,3.15,0,0,0-1.24.24,2.25,2.25,0,0,0-1,.9,6,6,0,0,0-.72,1.86,16.37,16.37,0,0,0-.35,3.06h6.14v-.24c0-.1,0-.21,0-.32s0-.22,0-.33v-.22a13.38,13.38,0,0,0-.12-1.77,5.69,5.69,0,0,0-.44-1.59,3.05,3.05,0,0,0-.87-1.15A2.17,2.17,0,0,0,282,147.35Z"/><path class="cls-1" d="M301.7,165.39a10.38,10.38,0,0,1-4.14-.75,7.61,7.61,0,0,1-2.86-2.09,8.89,8.89,0,0,1-1.65-3.21,14.88,14.88,0,0,1-.53-4.06,12.7,12.7,0,0,1,.68-4.29,9.26,9.26,0,0,1,1.91-3.21,8.09,8.09,0,0,1,2.95-2,10,10,0,0,1,3.83-.7q7.1,0,7.4,6.92c0,.78,0,1.49,0,2.13a10.33,10.33,0,0,1-.18,1.59H297.94a10.5,10.5,0,0,0,.5,2.89,5.66,5.66,0,0,0,1.07,1.95,4,4,0,0,0,1.58,1.09,5.65,5.65,0,0,0,2,.34,9.36,9.36,0,0,0,1.63-.13,12.3,12.3,0,0,0,1.39-.34,7.78,7.78,0,0,0,1.16-.47,8.93,8.93,0,0,0,.9-.49l.89,2.07a7.26,7.26,0,0,1-1.19.93,12.81,12.81,0,0,1-1.74.9,14.61,14.61,0,0,1-2.12.68A10,10,0,0,1,301.7,165.39Zm-.46-18a3.19,3.19,0,0,0-1.24.24,2.25,2.25,0,0,0-1,.9,5.78,5.78,0,0,0-.71,1.86,16.26,16.26,0,0,0-.36,3.06h6.14s0-.13,0-.24,0-.21,0-.32v-.55a13.38,13.38,0,0,0-.12-1.77,5.69,5.69,0,0,0-.43-1.59,3.05,3.05,0,0,0-.87-1.15A2.2,2.2,0,0,0,301.24,147.35Z"/><path class="cls-1" d="M312.19,165v-2.29l2.21-.34V149.23l-2.33-.72v-2.58l6.12-.84h.09l.9.73v2a10.17,10.17,0,0,1,1.34-1,10.41,10.41,0,0,1,1.66-.87,12.65,12.65,0,0,1,1.89-.61,9,9,0,0,1,2-.23,7.5,7.5,0,0,1,2.74.43,3.69,3.69,0,0,1,1.76,1.37,6.17,6.17,0,0,1,.92,2.41,20.29,20.29,0,0,1,.27,3.57v9.46l2.43.33V165h-9.62v-2.29l1.86-.33v-9.53a14.93,14.93,0,0,0-.12-2,3.84,3.84,0,0,0-.44-1.41,2,2,0,0,0-.87-.82,3.4,3.4,0,0,0-1.42-.26,5,5,0,0,0-1.15.13,6.06,6.06,0,0,0-1.07.33,8.76,8.76,0,0,0-.92.45,8.37,8.37,0,0,0-.73.49v12.65l2.29.34V165Z"/><path class="cls-1" d="M336.19,165v-2.29l2.49-.33V149.23l-2.3-.74v-2.56l6.27-.84h.08l1.25.73v16.55l2.48.34V165Zm4.54-22.8a2.39,2.39,0,0,1-1.06-.22,2.25,2.25,0,0,1-.79-.59,2.45,2.45,0,0,1-.48-.87,3.42,3.42,0,0,1-.16-1.07,4.36,4.36,0,0,1,.18-1.26,2.92,2.92,0,0,1,.55-1,2.64,2.64,0,0,1,.94-.7,3.06,3.06,0,0,1,1.29-.26h0a3,3,0,0,1,1.21.23,2.53,2.53,0,0,1,1.35,1.5,3.28,3.28,0,0,1,.16,1,4,4,0,0,1-.19,1.27,2.66,2.66,0,0,1-.57,1,2.61,2.61,0,0,1-1,.68,3.69,3.69,0,0,1-1.43.25Z"/><path class="cls-1" d="M349,165v-2.29l2.21-.34V149.23l-2.33-.72v-2.58l6.12-.84h.08l.91.73v2a10.73,10.73,0,0,1,1.33-1A11,11,0,0,1,359,146a12.65,12.65,0,0,1,1.89-.61,9,9,0,0,1,2-.23,7.5,7.5,0,0,1,2.74.43,3.62,3.62,0,0,1,1.75,1.37,6.17,6.17,0,0,1,.93,2.41,20.29,20.29,0,0,1,.27,3.57v9.46l2.43.33V165h-9.63v-2.29l1.87-.33v-9.53a14.93,14.93,0,0,0-.12-2,3.84,3.84,0,0,0-.44-1.41,2,2,0,0,0-.87-.82,3.45,3.45,0,0,0-1.43-.26,4.86,4.86,0,0,0-1.14.13,6.06,6.06,0,0,0-1.07.33,7.89,7.89,0,0,0-.92.45,8.37,8.37,0,0,0-.73.49v12.65l2.29.34V165Z"/><path class="cls-1" d="M381.7,158.32a14.88,14.88,0,0,1-2.6-.21,2.78,2.78,0,0,0-.48.68,2.06,2.06,0,0,0-.19.9,1.78,1.78,0,0,0,.23.95,1.38,1.38,0,0,0,.7.56,4.12,4.12,0,0,0,1.22.26c.5,0,1.09.07,1.79.07h3.41a9.77,9.77,0,0,1,5.5,1.25,4.61,4.61,0,0,1,1.8,4.08,5.67,5.67,0,0,1-.9,3.13,7.94,7.94,0,0,1-2.41,2.38,12.32,12.32,0,0,1-3.53,1.53,16.34,16.34,0,0,1-4.18.53h0a17.62,17.62,0,0,1-4.13-.42,9,9,0,0,1-2.82-1.18,4.84,4.84,0,0,1-1.62-1.8,5,5,0,0,1-.52-2.27,3.69,3.69,0,0,1,.29-1.48A4.79,4.79,0,0,1,374,166a4.87,4.87,0,0,1,1.12-1,5.66,5.66,0,0,1,1.32-.67,3.91,3.91,0,0,1-1.52-1.3,3.23,3.23,0,0,1-.53-1.84,3.56,3.56,0,0,1,.68-2.2,6.69,6.69,0,0,1,1.75-1.58,5.44,5.44,0,0,1-2.57-2.22,6.67,6.67,0,0,1-.83-3.42,5.68,5.68,0,0,1,.69-2.79,6.48,6.48,0,0,1,1.89-2.12,8.9,8.9,0,0,1,2.78-1.36,11.74,11.74,0,0,1,3.4-.48h0q4.28,0,6.34,1.64a3.85,3.85,0,0,1,.65-.59,5.26,5.26,0,0,1,.94-.54,7.09,7.09,0,0,1,1.18-.4,5.53,5.53,0,0,1,1.37-.16h.8v3.83h-3.37a6.8,6.8,0,0,1,.3,1.14,6.63,6.63,0,0,1,.11,1.3,6.26,6.26,0,0,1-.64,2.83,6.56,6.56,0,0,1-1.81,2.23,8.62,8.62,0,0,1-2.79,1.47,11.57,11.57,0,0,1-3.57.53Zm-.87,6.9a13.16,13.16,0,0,1-2.05-.15,4,4,0,0,0-.64,1,3.81,3.81,0,0,0-.3,1.67,5.55,5.55,0,0,0,.3,1.95,3.15,3.15,0,0,0,.91,1.3,3.61,3.61,0,0,0,1.48.73,8.22,8.22,0,0,0,2,.22h0a8.63,8.63,0,0,0,2-.24,6.09,6.09,0,0,0,1.77-.72,4,4,0,0,0,1.24-1.23,3.06,3.06,0,0,0,.47-1.72,4.34,4.34,0,0,0-.16-1.28,1.7,1.7,0,0,0-.58-.87,2.73,2.73,0,0,0-1.14-.48,8.75,8.75,0,0,0-1.86-.16Zm1.28-9.19h0a2.74,2.74,0,0,0,1.44-.35,2.57,2.57,0,0,0,.9-1,4.65,4.65,0,0,0,.45-1.42,10.66,10.66,0,0,0,.13-1.73,5.69,5.69,0,0,0-.73-3.27,2.72,2.72,0,0,0-2.38-1h0a2.67,2.67,0,0,0-2.34,1,5.48,5.48,0,0,0-.72,3.13,9.66,9.66,0,0,0,.16,1.85,4,4,0,0,0,.52,1.45,2.65,2.65,0,0,0,1,.94A3.23,3.23,0,0,0,382.11,156Z"/><path class="cls-1" d="M52.19,209v-2.26l2.73-.46V192.51h-3v-2l3-.86v-1a7.88,7.88,0,0,1,.84-3.65,9.25,9.25,0,0,1,2.15-2.77,9.59,9.59,0,0,1,2.94-1.76,9,9,0,0,1,3.2-.62,6.29,6.29,0,0,1,1.32.1,6.44,6.44,0,0,1,.68.19v5.11a2.71,2.71,0,0,0-.62-.47,5.92,5.92,0,0,0-.91-.41,8.22,8.22,0,0,0-1.09-.3,5.74,5.74,0,0,0-1.17-.12,3.58,3.58,0,0,0-.84.1,1.46,1.46,0,0,0-.64.37,1.68,1.68,0,0,0-.41.72,3.73,3.73,0,0,0-.15,1.15l0,3.35h4.39v2.91H60.24v13.87l3.79.36V209Z"/><path class="cls-1" d="M66.51,199.33a11.86,11.86,0,0,1,.8-4.53,9.36,9.36,0,0,1,2.14-3.21,8.6,8.6,0,0,1,3.08-1.92,10.74,10.74,0,0,1,3.65-.63,10.44,10.44,0,0,1,3.93.69,7.75,7.75,0,0,1,2.88,2,8.75,8.75,0,0,1,1.76,3.16,14.13,14.13,0,0,1,.59,4.23,12,12,0,0,1-.8,4.61,9,9,0,0,1-2.14,3.2,8.49,8.49,0,0,1-3.07,1.87,11.12,11.12,0,0,1-3.64.6,10.44,10.44,0,0,1-3.93-.69,7.64,7.64,0,0,1-2.88-2,8.62,8.62,0,0,1-1.77-3.16A13.74,13.74,0,0,1,66.51,199.33ZM76,207a3,3,0,0,0,1.62-.41,3.12,3.12,0,0,0,1.14-1.32,7.7,7.7,0,0,0,.66-2.3,21.5,21.5,0,0,0,.22-3.35,28.48,28.48,0,0,0-.2-3.54,9.92,9.92,0,0,0-.63-2.59,3.66,3.66,0,0,0-1.14-1.58,2.82,2.82,0,0,0-1.74-.54,3.07,3.07,0,0,0-1.63.42,3.2,3.2,0,0,0-1.16,1.31,8.06,8.06,0,0,0-.68,2.3,21.5,21.5,0,0,0-.22,3.35,28.65,28.65,0,0,0,.2,3.55,10,10,0,0,0,.66,2.59,3.9,3.9,0,0,0,1.16,1.58A2.79,2.79,0,0,0,76,207Z"/><path class="cls-1" d="M88,209v-2.29l2.46-.33V193.23l-2.32-.72v-2.58l5.84-.84H94l.91.73v1.42l0,2.67H95a7.74,7.74,0,0,1,.74-1.38,9.72,9.72,0,0,1,1.34-1.6,7.93,7.93,0,0,1,1.82-1.34,4.68,4.68,0,0,1,2.25-.55,5.59,5.59,0,0,1,.81,0,3,3,0,0,1,.47.11v5.92a2.7,2.7,0,0,0-1-.3,9.39,9.39,0,0,0-1.89-.17,11.7,11.7,0,0,0-1.19.07c-.4,0-.78.11-1.12.18a6.11,6.11,0,0,0-.93.27,3,3,0,0,0-.64.3v10.91l4.26.41V209Z"/><path class="cls-2" d="M115.39,209v-2.29l2.1-.34V183.55l-2.56-.42v-2l6.64-.84h.09l1,.8,0,8-.28,2.72a9.6,9.6,0,0,1,1.16-.91,10.44,10.44,0,0,1,1.56-.88,11.26,11.26,0,0,1,1.91-.66,8.49,8.49,0,0,1,2.17-.27,7.12,7.12,0,0,1,2.77.46,3.86,3.86,0,0,1,1.74,1.42,6.4,6.4,0,0,1,.9,2.42,19.28,19.28,0,0,1,.27,3.46v9.47l2.41.34V209h-9.57v-2.22l1.89-.38v-9.55a16.93,16.93,0,0,0-.11-2,3.65,3.65,0,0,0-.46-1.41,2,2,0,0,0-.92-.82,3.83,3.83,0,0,0-1.51-.26,5.29,5.29,0,0,0-1.1.12,9.55,9.55,0,0,0-1.08.3,6.7,6.7,0,0,0-1,.41,4.11,4.11,0,0,0-.77.47v12.75l2.34.34V209Z"/><path class="cls-2" d="M148.34,209.39a10.43,10.43,0,0,1-4.15-.75,7.58,7.58,0,0,1-2.85-2.09,8.59,8.59,0,0,1-1.65-3.21,14.88,14.88,0,0,1-.53-4.06,12.71,12.71,0,0,1,.67-4.29,9.26,9.26,0,0,1,1.91-3.21,8.13,8.13,0,0,1,3-2,10,10,0,0,1,3.82-.7q7.09,0,7.4,6.92c0,.78,0,1.49,0,2.13a10.33,10.33,0,0,1-.18,1.59H144.58a10.52,10.52,0,0,0,.49,2.89,5.84,5.84,0,0,0,1.08,1.95,3.82,3.82,0,0,0,1.58,1.09,5.65,5.65,0,0,0,2,.34,9.17,9.17,0,0,0,1.62-.13,11.79,11.79,0,0,0,1.39-.34,7.92,7.92,0,0,0,1.17-.47,9.9,9.9,0,0,0,.89-.49l.89,2.07a7.13,7.13,0,0,1-1.18.93,12.39,12.39,0,0,1-1.75.9,13.86,13.86,0,0,1-2.12.68A10,10,0,0,1,148.34,209.39Zm-.46-18a3.15,3.15,0,0,0-1.24.24,2.2,2.2,0,0,0-1,.9,6,6,0,0,0-.72,1.86,16.37,16.37,0,0,0-.35,3.06h6.14v-.24c0-.1,0-.21,0-.32s0-.22,0-.33v-.22a13.38,13.38,0,0,0-.12-1.77,5.69,5.69,0,0,0-.44-1.59,3.05,3.05,0,0,0-.87-1.15A2.17,2.17,0,0,0,147.88,191.35Z"/><path class="cls-2" d="M158.27,203.8a5.22,5.22,0,0,1,.45-2.23,5.39,5.39,0,0,1,1.25-1.71,7.36,7.36,0,0,1,1.87-1.25,14.44,14.44,0,0,1,2.32-.85,17.85,17.85,0,0,1,2.6-.48c.9-.11,1.8-.17,2.7-.19v-.82a4,4,0,0,0-.79-2.78,3.51,3.51,0,0,0-2.61-.83,11.76,11.76,0,0,0-1.86.15,16,16,0,0,0-1.78.36c-.57.14-1.1.3-1.58.47s-.9.35-1.24.51h0l-1-2.29a8.24,8.24,0,0,1,1.22-.76,14.92,14.92,0,0,1,2.05-.92,22.13,22.13,0,0,1,2.65-.77,14,14,0,0,1,3-.32,11.11,11.11,0,0,1,3.22.41,5,5,0,0,1,2.15,1.27,5.13,5.13,0,0,1,1.22,2.16,11.23,11.23,0,0,1,.38,3.08v10.67h2.12v2.1c-.22,0-.49.1-.8.18s-.68.14-1.06.2-.81.12-1.25.16a12.32,12.32,0,0,1-1.37.07,8,8,0,0,1-1.05,0,1.42,1.42,0,0,1-.7-.24,1,1,0,0,1-.38-.54,3,3,0,0,1-.12-.95v-1a6.86,6.86,0,0,1-.81.88,6.5,6.5,0,0,1-1.24.9,7.32,7.32,0,0,1-1.65.71,6.82,6.82,0,0,1-2,.28,7.88,7.88,0,0,1-2.27-.32,5.09,5.09,0,0,1-1.86-1,4.86,4.86,0,0,1-1.25-1.74A6.27,6.27,0,0,1,158.27,203.8Zm8.11,2.29a3.07,3.07,0,0,0,.7-.08,6.84,6.84,0,0,0,.82-.24,6.3,6.3,0,0,0,.84-.37,3.47,3.47,0,0,0,.72-.48v-5.66a10.45,10.45,0,0,0-2.78.31,4.91,4.91,0,0,0-1.78.82,2.86,2.86,0,0,0-1,1.18,3.51,3.51,0,0,0-.28,1.41,3.44,3.44,0,0,0,.69,2.32A2.54,2.54,0,0,0,166.38,206.09Z"/><path class="cls-2" d="M178.65,209v-2.29l2.47-.33V193.23l-2.33-.72v-2.58l5.85-.84h.1l.9.73v4.09h.07a7.13,7.13,0,0,1,.74-1.38,9.64,9.64,0,0,1,1.33-1.6,8,8,0,0,1,1.83-1.34,4.68,4.68,0,0,1,2.25-.55,5.67,5.67,0,0,1,.81,0,3.3,3.3,0,0,1,.47.11v5.92a2.78,2.78,0,0,0-1-.3,9.39,9.39,0,0,0-1.89-.17c-.4,0-.8,0-1.2.07s-.77.11-1.12.18a6.11,6.11,0,0,0-.93.27,3.11,3.11,0,0,0-.63.3v10.91l4.25.41V209Z"/><path class="cls-2" d="M197.25,204.9V192.32h-2.41v-1.95l.43-.14.62-.23.57-.23a2.22,2.22,0,0,0,.33-.17A5.4,5.4,0,0,0,198,188l.38-.79c.13-.3.27-.62.4-.95s.25-.66.37-1,.21-.62.29-.88h3l.05,5h5v2.91h-5v9.47c0,.91,0,1.63,0,2.17a4,4,0,0,0,.21,1.21.8.8,0,0,0,.5.53,2.94,2.94,0,0,0,.94.12h0a5.24,5.24,0,0,0,.86-.07c.3,0,.6-.1.89-.16s.56-.13.8-.2l.61-.2h0l.8,2A8.67,8.67,0,0,1,207,208a10.79,10.79,0,0,1-1.64.71,13.4,13.4,0,0,1-1.89.52,10.52,10.52,0,0,1-2,.19h0a5.47,5.47,0,0,1-1.92-.29,2.93,2.93,0,0,1-1.28-.86,3.48,3.48,0,0,1-.71-1.41A7.48,7.48,0,0,1,197.25,204.9Z"/><path class="cls-2" d="M220.63,209v-2.29l2.1-.34V183.55l-2.56-.42v-2l6.64-.84h.09l1,.8,0,8-.28,2.72a9.6,9.6,0,0,1,1.16-.91,10.44,10.44,0,0,1,1.56-.88,11.15,11.15,0,0,1,1.9-.66,8.62,8.62,0,0,1,2.18-.27,7.12,7.12,0,0,1,2.77.46A3.86,3.86,0,0,1,239,191a6.4,6.4,0,0,1,.9,2.42,19.28,19.28,0,0,1,.27,3.46v9.47l2.41.34V209H233v-2.22l1.89-.38v-9.55a14.93,14.93,0,0,0-.12-2,3.66,3.66,0,0,0-.45-1.41,2,2,0,0,0-.92-.82,3.83,3.83,0,0,0-1.51-.26,5.29,5.29,0,0,0-1.1.12,9,9,0,0,0-1.08.3,7.33,7.33,0,0,0-1,.41,4.35,4.35,0,0,0-.76.47v12.75l2.34.34V209Z"/><path class="cls-2" d="M253.58,209.39a10.43,10.43,0,0,1-4.15-.75,7.58,7.58,0,0,1-2.85-2.09,8.59,8.59,0,0,1-1.65-3.21,14.88,14.88,0,0,1-.53-4.06,12.71,12.71,0,0,1,.67-4.29,9.26,9.26,0,0,1,1.91-3.21,8.13,8.13,0,0,1,3-2,10,10,0,0,1,3.82-.7q7.1,0,7.4,6.92c0,.78,0,1.49,0,2.13a10.33,10.33,0,0,1-.18,1.59H249.82a10.52,10.52,0,0,0,.49,2.89,5.84,5.84,0,0,0,1.08,1.95,3.82,3.82,0,0,0,1.58,1.09,5.65,5.65,0,0,0,2,.34,9.17,9.17,0,0,0,1.62-.13,11.79,11.79,0,0,0,1.39-.34,7.92,7.92,0,0,0,1.17-.47,9.9,9.9,0,0,0,.89-.49l.89,2.07a6.85,6.85,0,0,1-1.19.93,11.73,11.73,0,0,1-1.74.9,13.86,13.86,0,0,1-2.12.68A10,10,0,0,1,253.58,209.39Zm-.46-18a3.15,3.15,0,0,0-1.24.24,2.2,2.2,0,0,0-1,.9,6,6,0,0,0-.72,1.86,15.57,15.57,0,0,0-.35,3.06h6.14v-.24c0-.1,0-.21,0-.32s0-.22,0-.33v-.22a13.38,13.38,0,0,0-.12-1.77,5.69,5.69,0,0,0-.44-1.59,3.05,3.05,0,0,0-.87-1.15A2.17,2.17,0,0,0,253.12,191.35Z"/><path class="cls-2" d="M263.5,203.8a5.22,5.22,0,0,1,.46-2.23,5.39,5.39,0,0,1,1.25-1.71,7.36,7.36,0,0,1,1.87-1.25,14.1,14.1,0,0,1,2.32-.85,17.85,17.85,0,0,1,2.6-.48c.9-.11,1.8-.17,2.7-.19v-.82a4,4,0,0,0-.8-2.78,3.5,3.5,0,0,0-2.6-.83,11.66,11.66,0,0,0-1.86.15,16,16,0,0,0-1.78.36c-.57.14-1.1.3-1.58.47s-.9.35-1.24.51h0l-1-2.29a8.24,8.24,0,0,1,1.22-.76,14.92,14.92,0,0,1,2.05-.92,21.6,21.6,0,0,1,2.65-.77,14,14,0,0,1,3-.32,11.16,11.16,0,0,1,3.22.41,5,5,0,0,1,2.15,1.27,5,5,0,0,1,1.21,2.16,10.83,10.83,0,0,1,.39,3.08v10.67h2.12v2.1L281,209c-.31.07-.67.14-1.05.2s-.81.12-1.25.16a12.32,12.32,0,0,1-1.37.07,8,8,0,0,1-1.05,0,1.38,1.38,0,0,1-.7-.24,1,1,0,0,1-.39-.54,3,3,0,0,1-.12-.95v-1a6.06,6.06,0,0,1-.8.88,6.5,6.5,0,0,1-1.24.9,7.32,7.32,0,0,1-1.65.71,6.82,6.82,0,0,1-2,.28,7.88,7.88,0,0,1-2.27-.32,5.09,5.09,0,0,1-1.86-1,4.74,4.74,0,0,1-1.25-1.74A6.26,6.26,0,0,1,263.5,203.8Zm8.12,2.29a3.07,3.07,0,0,0,.7-.08,7.43,7.43,0,0,0,.82-.24,6.3,6.3,0,0,0,.84-.37,3.76,3.76,0,0,0,.72-.48v-5.66a10.45,10.45,0,0,0-2.78.31,4.83,4.83,0,0,0-1.78.82,2.86,2.86,0,0,0-.95,1.18,3.51,3.51,0,0,0-.28,1.41,3.44,3.44,0,0,0,.69,2.32A2.52,2.52,0,0,0,271.62,206.09Z"/><path class="cls-2" d="M283.36,209v-2.29l2.48-.34V183.55l-2.54-.42v-2l6.68-.84h0l1.08.8v25.28l2.58.34V209Z"/><path class="cls-2" d="M297.86,204.9V192.32h-2.41v-1.95l.43-.14.62-.23.57-.23a1.58,1.58,0,0,0,.32-.17,5.24,5.24,0,0,0,1.22-1.64c.11-.23.24-.49.37-.79s.27-.62.41-.95.25-.66.36-1,.21-.62.29-.88h3l.06,5h5v2.91h-5v9.47c0,.91,0,1.63,0,2.17a4.42,4.42,0,0,0,.2,1.21.84.84,0,0,0,.51.53,2.94,2.94,0,0,0,.94.12h0a5.24,5.24,0,0,0,.86-.07c.3,0,.6-.1.89-.16s.56-.13.8-.2l.61-.2h0l.81,2a8.67,8.67,0,0,1-1.26.78,10.79,10.79,0,0,1-1.64.71,13.54,13.54,0,0,1-1.9.52,10.34,10.34,0,0,1-2,.19h0a5.47,5.47,0,0,1-1.92-.29,2.93,2.93,0,0,1-1.28-.86,3.48,3.48,0,0,1-.71-1.41A7.48,7.48,0,0,1,297.86,204.9Z"/><path class="cls-2" d="M310.25,209v-2.29l2.1-.34V183.55l-2.56-.42v-2l6.64-.84h.09l1,.8,0,8-.28,2.72a9.6,9.6,0,0,1,1.16-.91,10.44,10.44,0,0,1,1.56-.88,11.15,11.15,0,0,1,1.9-.66,8.62,8.62,0,0,1,2.18-.27,7.12,7.12,0,0,1,2.77.46,3.86,3.86,0,0,1,1.74,1.42,6.4,6.4,0,0,1,.9,2.42,19.28,19.28,0,0,1,.27,3.46v9.47l2.41.34V209h-9.57v-2.22l1.89-.38v-9.55a14.93,14.93,0,0,0-.12-2,3.66,3.66,0,0,0-.45-1.41,2,2,0,0,0-.92-.82,3.83,3.83,0,0,0-1.51-.26,5.29,5.29,0,0,0-1.1.12,9,9,0,0,0-1.08.3,7.33,7.33,0,0,0-1,.41,4.35,4.35,0,0,0-.76.47v12.75l2.34.34V209Z"/><path class="cls-2" d="M338.67,209.29a3.43,3.43,0,0,1-1.15-.19,3,3,0,0,1-1-.54,2.66,2.66,0,0,1-.64-.87,2.57,2.57,0,0,1-.24-1.13,3,3,0,0,1,.27-1.29,3.22,3.22,0,0,1,.75-1,3.52,3.52,0,0,1,1.11-.69,3.56,3.56,0,0,1,1.35-.25,4.19,4.19,0,0,1,1.42.22,2.67,2.67,0,0,1,.95.6,2.29,2.29,0,0,1,.53.87,3.36,3.36,0,0,1,.16,1.06,3.41,3.41,0,0,1-.26,1.34,2.91,2.91,0,0,1-.74,1,3.09,3.09,0,0,1-1.13.66A4.31,4.31,0,0,1,338.67,209.29Z"/><path class="cls-1" d="M50.1,165v-2.34l2.2-.48,8.24-23.29H66l8.22,23.29,2.37.48V165H65.52v-2.34l2.79-.48L67,158H57.74l-1.21,4.19,2.82.46V165Zm11.59-20.68-3.18,11H66.2l-3.36-11-.6-2.49Z"/><path class="cls-1" d="M88.49,163.91V159.1h3.14l.89,2.67a1.68,1.68,0,0,0,.47.44,3.76,3.76,0,0,0,.75.4,5.85,5.85,0,0,0,1,.28,6,6,0,0,0,1.14.11,3.84,3.84,0,0,0,1.39-.21,2.32,2.32,0,0,0,.87-.52,1.72,1.72,0,0,0,.44-.71,2.74,2.74,0,0,0,.12-.78,2.07,2.07,0,0,0-.37-1.24,3.6,3.6,0,0,0-1-1,10.67,10.67,0,0,0-1.63-.84c-.64-.28-1.35-.57-2.12-.89a14,14,0,0,1-2.12-1.07,7,7,0,0,1-1.6-1.33,5.23,5.23,0,0,1-1-1.64,5.44,5.44,0,0,1-.36-2,5,5,0,0,1,.5-2.25,5.1,5.1,0,0,1,1.5-1.79,7.43,7.43,0,0,1,2.46-1.2,12,12,0,0,1,3.4-.43,13.48,13.48,0,0,1,2,.13c.58.1,1.12.2,1.59.32s.92.25,1.32.38a9.46,9.46,0,0,0,1.16.3V151l-3,0-.8-2.27a2.4,2.4,0,0,0-.91-.76,3.52,3.52,0,0,0-1.69-.39,4.29,4.29,0,0,0-1.29.17,2.39,2.39,0,0,0-.84.46,1.74,1.74,0,0,0-.45.65,1.94,1.94,0,0,0-.14.7,2.27,2.27,0,0,0,.46,1.47,4.05,4.05,0,0,0,1.16,1,10.38,10.38,0,0,0,1.54.69c.56.2,1.09.42,1.59.64.75.34,1.47.69,2.15,1.06a8.49,8.49,0,0,1,1.82,1.29,5.57,5.57,0,0,1,1.27,1.7,5.24,5.24,0,0,1,.47,2.3,5.33,5.33,0,0,1-.49,2.3,5,5,0,0,1-1.47,1.85A7.27,7.27,0,0,1,99.33,165a12.28,12.28,0,0,1-3.46.44,14.5,14.5,0,0,1-2.47-.19c-.74-.12-1.42-.27-2-.43s-1.16-.33-1.63-.5S88.84,164,88.49,163.91Z"/><path class="cls-1" d="M106.35,165v-2.29l2.49-.33V149.23l-2.3-.74v-2.56l6.27-.84h.08l1.25.73v16.55l2.48.34V165Zm4.54-22.8a2.47,2.47,0,0,1-1.07-.22,2.3,2.3,0,0,1-.78-.59,2.45,2.45,0,0,1-.48-.87,3.42,3.42,0,0,1-.16-1.07,4.36,4.36,0,0,1,.18-1.26,2.92,2.92,0,0,1,.55-1,2.6,2.6,0,0,1,.93-.7,3.06,3.06,0,0,1,1.29-.26h0a3,3,0,0,1,1.21.23,2.62,2.62,0,0,1,.84.62,2.51,2.51,0,0,1,.51.88,3.59,3.59,0,0,1,.16,1,4,4,0,0,1-.19,1.27,2.8,2.8,0,0,1-.57,1,2.61,2.61,0,0,1-1,.68,3.69,3.69,0,0,1-1.43.25Z"/><path class="cls-1" d="M119.2,165v-2.22l2.13-.4V149.23l-2.32-.72v-2.58l6-.84h.09l.9.73v2a8.5,8.5,0,0,1,1.39-1,12.77,12.77,0,0,1,1.78-.87,13.19,13.19,0,0,1,1.94-.6,9.14,9.14,0,0,1,1.88-.22,6.61,6.61,0,0,1,3.13.63,4.09,4.09,0,0,1,1.76,2,9.49,9.49,0,0,1,1.26-.9,11.85,11.85,0,0,1,1.71-.85,13.88,13.88,0,0,1,2-.64,8.39,8.39,0,0,1,2-.26,7.69,7.69,0,0,1,2.69.41,3.61,3.61,0,0,1,1.72,1.33,6.11,6.11,0,0,1,.93,2.41,20.29,20.29,0,0,1,.27,3.59v9.5l2.41.4V165h-9.47v-2.22l1.8-.4V153a14,14,0,0,0-.15-2.23,4.08,4.08,0,0,0-.49-1.48,1.93,1.93,0,0,0-.92-.82,3.62,3.62,0,0,0-1.45-.26,4.1,4.1,0,0,0-.94.12c-.34.08-.68.18-1,.3s-.67.25-1,.4a8,8,0,0,0-.84.45,10.24,10.24,0,0,1,.19,1.56c0,.56,0,1.18,0,1.84v9.48l2.28.38V165h-9.57v-2.22l2-.38v-9.55a13.23,13.23,0,0,0-.14-2,3.83,3.83,0,0,0-.47-1.41,2,2,0,0,0-.9-.82,3.62,3.62,0,0,0-1.45-.26,5.08,5.08,0,0,0-1.07.12,9.55,9.55,0,0,0-1.08.3,6.27,6.27,0,0,0-1,.41,5.12,5.12,0,0,0-.75.47v12.76l2.31.4V165Z"/><path class="cls-1" d="M154.61,171.31l2.56-.43V149.23l-2.32-.72v-2.58l6.12-.84h.08l.87.73v1.82a7.82,7.82,0,0,1,1-1,7.4,7.4,0,0,1,1.3-.83,8.09,8.09,0,0,1,1.57-.58,7.27,7.27,0,0,1,1.85-.22,8.22,8.22,0,0,1,2.95.53,6.17,6.17,0,0,1,2.4,1.68,8.3,8.3,0,0,1,1.61,3,14.27,14.27,0,0,1,.59,4.41,12.59,12.59,0,0,1-.69,4.23,10.15,10.15,0,0,1-2,3.41,9.19,9.19,0,0,1-3.16,2.28,10.14,10.14,0,0,1-4.21.83l-.84,0q-.42,0-.81-.09l-.69-.1c-.2,0-.37-.07-.49-.1l.1,2.84v3l3.38.43v2.17H154.61Zm10.87-23.16a4.24,4.24,0,0,0-1.83.37,3.62,3.62,0,0,0-1.23.83v12.93a2.41,2.41,0,0,0,.94.58,4.55,4.55,0,0,0,1.57.24,3.9,3.9,0,0,0,1.75-.4,3.7,3.7,0,0,0,1.45-1.32,7.87,7.87,0,0,0,1-2.43,16.37,16.37,0,0,0,.41-3.69,15,15,0,0,0-.25-3.28,7,7,0,0,0-.81-2.21,3.25,3.25,0,0,0-1.29-1.24A3.82,3.82,0,0,0,165.48,148.15Z"/><path class="cls-1" d="M177.39,165v-2.29l2.48-.34V139.55l-2.55-.42v-2l6.68-.84h.05l1.08.8v25.28l2.58.34V165Z"/><path class="cls-1" d="M198.89,165.39a10.43,10.43,0,0,1-4.15-.75,7.66,7.66,0,0,1-2.85-2.09,8.59,8.59,0,0,1-1.65-3.21,14.88,14.88,0,0,1-.53-4.06,12.7,12.7,0,0,1,.68-4.29,9.24,9.24,0,0,1,1.9-3.21,8.13,8.13,0,0,1,3-2,10,10,0,0,1,3.83-.7q7.08,0,7.4,6.92c0,.78,0,1.49,0,2.13a10.33,10.33,0,0,1-.18,1.59H195.13a10.91,10.91,0,0,0,.49,2.89,5.84,5.84,0,0,0,1.08,1.95,3.88,3.88,0,0,0,1.58,1.09,5.65,5.65,0,0,0,2,.34,9.17,9.17,0,0,0,1.62-.13,12.49,12.49,0,0,0,1.4-.34,8.25,8.25,0,0,0,1.16-.47,10.19,10.19,0,0,0,.9-.49l.88,2.07a7.13,7.13,0,0,1-1.18.93,12.39,12.39,0,0,1-1.75.9,13.86,13.86,0,0,1-2.12.68A9.93,9.93,0,0,1,198.89,165.39Zm-.46-18a3.15,3.15,0,0,0-1.24.24,2.25,2.25,0,0,0-1,.9,6,6,0,0,0-.72,1.86,16.37,16.37,0,0,0-.35,3.06h6.14s0-.13,0-.24,0-.21,0-.32,0-.22,0-.33v-.22a13.38,13.38,0,0,0-.12-1.77,5.69,5.69,0,0,0-.43-1.59,3.18,3.18,0,0,0-.88-1.15A2.17,2.17,0,0,0,198.43,147.35Z"/><path class="cls-1" d="M220.66,163.91V159.1h3.15l.88,2.67a1.83,1.83,0,0,0,.47.44,4.16,4.16,0,0,0,.76.4,5.73,5.73,0,0,0,1,.28A6,6,0,0,0,228,163a3.93,3.93,0,0,0,1.4-.21,2.27,2.27,0,0,0,.86-.52,1.63,1.63,0,0,0,.44-.71,2.74,2.74,0,0,0,.12-.78,2.13,2.13,0,0,0-.36-1.24,3.79,3.79,0,0,0-1.05-1,10.67,10.67,0,0,0-1.63-.84c-.64-.28-1.34-.57-2.12-.89a14.46,14.46,0,0,1-2.12-1.07,7,7,0,0,1-1.59-1.33,5.26,5.26,0,0,1-1-1.64,5.44,5.44,0,0,1-.36-2,4.89,4.89,0,0,1,2-4,7.43,7.43,0,0,1,2.46-1.2,12,12,0,0,1,3.4-.43,13.48,13.48,0,0,1,2,.13c.59.1,1.12.2,1.6.32s.91.25,1.31.38a9.46,9.46,0,0,0,1.16.3V151l-3,0-.8-2.27a2.33,2.33,0,0,0-.91-.76,3.52,3.52,0,0,0-1.69-.39,4.34,4.34,0,0,0-1.29.17,2.39,2.39,0,0,0-.84.46,1.74,1.74,0,0,0-.45.65,1.94,1.94,0,0,0-.14.7,2.33,2.33,0,0,0,.46,1.47,4,4,0,0,0,1.17,1,10.25,10.25,0,0,0,1.53.69c.56.2,1.09.42,1.59.64.76.34,1.47.69,2.16,1.06a9,9,0,0,1,1.82,1.29,5.54,5.54,0,0,1,1.26,1.7,5.1,5.1,0,0,1,.47,2.3,5.48,5.48,0,0,1-.48,2.3,5.2,5.2,0,0,1-1.47,1.85A7.42,7.42,0,0,1,231.5,165a12.23,12.23,0,0,1-3.46.44,14.5,14.5,0,0,1-2.47-.19c-.74-.12-1.42-.27-2-.43s-1.15-.33-1.63-.5S221,164,220.66,163.91Z"/><path class="cls-1" d="M238.35,155.45a12.33,12.33,0,0,1,.69-4.22,9.31,9.31,0,0,1,2-3.29,8.74,8.74,0,0,1,3.1-2.14,10.4,10.4,0,0,1,4.07-.76,15,15,0,0,1,2.1.13,15.76,15.76,0,0,1,1.71.3,12.35,12.35,0,0,1,1.3.35l.89.28-.17,5.83h-3l-1-3a3.28,3.28,0,0,0-.92-1.13,2.19,2.19,0,0,0-1.33-.41,3.07,3.07,0,0,0-1.47.38,3.66,3.66,0,0,0-1.23,1.22,7.39,7.39,0,0,0-.86,2.14,13.86,13.86,0,0,0-.32,3.18,16.69,16.69,0,0,0,.33,3.59,6.8,6.8,0,0,0,1,2.38,3.69,3.69,0,0,0,1.57,1.3,5.06,5.06,0,0,0,2.07.4,8.05,8.05,0,0,0,2.74-.42,10.35,10.35,0,0,0,1.94-.93l.9,2.07a6.69,6.69,0,0,1-1,.87,10.84,10.84,0,0,1-1.57.88,11.79,11.79,0,0,1-2,.68,9.41,9.41,0,0,1-2.27.27,10.46,10.46,0,0,1-4.15-.75,7.51,7.51,0,0,1-2.86-2.08,8.6,8.6,0,0,1-1.66-3.16A13.82,13.82,0,0,1,238.35,155.45Z"/><path class="cls-1" d="M256.86,165v-2.29l2.46-.33V149.23l-2.33-.72v-2.58l5.85-.84h.1l.91.73v1.42l0,2.67h.07a7.74,7.74,0,0,1,.74-1.38,10.16,10.16,0,0,1,1.33-1.6,8,8,0,0,1,1.83-1.34,4.68,4.68,0,0,1,2.25-.55,5.67,5.67,0,0,1,.81,0,3,3,0,0,1,.47.11v5.92a2.7,2.7,0,0,0-1-.3,9.39,9.39,0,0,0-1.89-.17,11.7,11.7,0,0,0-1.19.07c-.4,0-.78.11-1.12.18a6.62,6.62,0,0,0-.94.27,3.11,3.11,0,0,0-.63.3v10.91l4.26.41V165Z"/><path class="cls-1" d="M282.46,165.39a10.43,10.43,0,0,1-4.15-.75,7.66,7.66,0,0,1-2.85-2.09,8.59,8.59,0,0,1-1.65-3.21,14.88,14.88,0,0,1-.53-4.06A12.46,12.46,0,0,1,274,151a9.24,9.24,0,0,1,1.9-3.21,8.13,8.13,0,0,1,3-2,10,10,0,0,1,3.83-.7q7.08,0,7.39,6.92,0,1.17,0,2.13a10.33,10.33,0,0,1-.18,1.59H278.7a10.52,10.52,0,0,0,.49,2.89,5.84,5.84,0,0,0,1.08,1.95,3.82,3.82,0,0,0,1.58,1.09,5.65,5.65,0,0,0,2,.34,9.17,9.17,0,0,0,1.62-.13,12.49,12.49,0,0,0,1.4-.34A8.25,8.25,0,0,0,288,161a9.9,9.9,0,0,0,.89-.49l.89,2.07a7.13,7.13,0,0,1-1.18.93,12.39,12.39,0,0,1-1.75.9,13.86,13.86,0,0,1-2.12.68A9.93,9.93,0,0,1,282.46,165.39Zm-.46-18a3.15,3.15,0,0,0-1.24.24,2.25,2.25,0,0,0-1,.9,6,6,0,0,0-.72,1.86,16.37,16.37,0,0,0-.35,3.06h6.14v-.24c0-.1,0-.21,0-.32s0-.22,0-.33v-.22a13.38,13.38,0,0,0-.12-1.77,5.69,5.69,0,0,0-.44-1.59,3.05,3.05,0,0,0-.87-1.15A2.17,2.17,0,0,0,282,147.35Z"/><path class="cls-1" d="M301.7,165.39a10.38,10.38,0,0,1-4.14-.75,7.61,7.61,0,0,1-2.86-2.09,8.89,8.89,0,0,1-1.65-3.21,14.88,14.88,0,0,1-.53-4.06,12.7,12.7,0,0,1,.68-4.29,9.26,9.26,0,0,1,1.91-3.21,8.09,8.09,0,0,1,2.95-2,10,10,0,0,1,3.83-.7q7.1,0,7.4,6.92c0,.78,0,1.49,0,2.13a10.33,10.33,0,0,1-.18,1.59H297.94a10.5,10.5,0,0,0,.5,2.89,5.66,5.66,0,0,0,1.07,1.95,4,4,0,0,0,1.58,1.09,5.65,5.65,0,0,0,2,.34,9.36,9.36,0,0,0,1.63-.13,12.3,12.3,0,0,0,1.39-.34,7.78,7.78,0,0,0,1.16-.47,8.93,8.93,0,0,0,.9-.49l.89,2.07a7.26,7.26,0,0,1-1.19.93,12.81,12.81,0,0,1-1.74.9,14.61,14.61,0,0,1-2.12.68A10,10,0,0,1,301.7,165.39Zm-.46-18a3.19,3.19,0,0,0-1.24.24,2.25,2.25,0,0,0-1,.9,5.78,5.78,0,0,0-.71,1.86,16.26,16.26,0,0,0-.36,3.06h6.14s0-.13,0-.24,0-.21,0-.32v-.55a13.38,13.38,0,0,0-.12-1.77,5.69,5.69,0,0,0-.43-1.59,3.05,3.05,0,0,0-.87-1.15A2.2,2.2,0,0,0,301.24,147.35Z"/><path class="cls-1" d="M312.19,165v-2.29l2.21-.34V149.23l-2.33-.72v-2.58l6.12-.84h.09l.9.73v2a10.17,10.17,0,0,1,1.34-1,10.41,10.41,0,0,1,1.66-.87,12.65,12.65,0,0,1,1.89-.61,9,9,0,0,1,2-.23,7.5,7.5,0,0,1,2.74.43,3.69,3.69,0,0,1,1.76,1.37,6.17,6.17,0,0,1,.92,2.41,20.29,20.29,0,0,1,.27,3.57v9.46l2.43.33V165h-9.62v-2.29l1.86-.33v-9.53a14.93,14.93,0,0,0-.12-2,3.84,3.84,0,0,0-.44-1.41,2,2,0,0,0-.87-.82,3.4,3.4,0,0,0-1.42-.26,5,5,0,0,0-1.15.13,6.06,6.06,0,0,0-1.07.33,8.76,8.76,0,0,0-.92.45,8.37,8.37,0,0,0-.73.49v12.65l2.29.34V165Z"/><path class="cls-1" d="M336.19,165v-2.29l2.49-.33V149.23l-2.3-.74v-2.56l6.27-.84h.08l1.25.73v16.55l2.48.34V165Zm4.54-22.8a2.39,2.39,0,0,1-1.06-.22,2.25,2.25,0,0,1-.79-.59,2.45,2.45,0,0,1-.48-.87,3.42,3.42,0,0,1-.16-1.07,4.36,4.36,0,0,1,.18-1.26,2.92,2.92,0,0,1,.55-1,2.64,2.64,0,0,1,.94-.7,3.06,3.06,0,0,1,1.29-.26h0a3,3,0,0,1,1.21.23,2.53,2.53,0,0,1,1.35,1.5,3.28,3.28,0,0,1,.16,1,4,4,0,0,1-.19,1.27,2.66,2.66,0,0,1-.57,1,2.61,2.61,0,0,1-1,.68,3.69,3.69,0,0,1-1.43.25Z"/><path class="cls-1" d="M349,165v-2.29l2.21-.34V149.23l-2.33-.72v-2.58l6.12-.84h.08l.91.73v2a10.73,10.73,0,0,1,1.33-1A11,11,0,0,1,359,146a12.65,12.65,0,0,1,1.89-.61,9,9,0,0,1,2-.23,7.5,7.5,0,0,1,2.74.43,3.62,3.62,0,0,1,1.75,1.37,6.17,6.17,0,0,1,.93,2.41,20.29,20.29,0,0,1,.27,3.57v9.46l2.43.33V165h-9.63v-2.29l1.87-.33v-9.53a14.93,14.93,0,0,0-.12-2,3.84,3.84,0,0,0-.44-1.41,2,2,0,0,0-.87-.82,3.45,3.45,0,0,0-1.43-.26,4.86,4.86,0,0,0-1.14.13,6.06,6.06,0,0,0-1.07.33,7.89,7.89,0,0,0-.92.45,8.37,8.37,0,0,0-.73.49v12.65l2.29.34V165Z"/><path class="cls-1" d="M381.7,158.32a14.88,14.88,0,0,1-2.6-.21,2.78,2.78,0,0,0-.48.68,2.06,2.06,0,0,0-.19.9,1.78,1.78,0,0,0,.23.95,1.38,1.38,0,0,0,.7.56,4.12,4.12,0,0,0,1.22.26c.5,0,1.09.07,1.79.07h3.41a9.77,9.77,0,0,1,5.5,1.25,4.61,4.61,0,0,1,1.8,4.08,5.67,5.67,0,0,1-.9,3.13,7.94,7.94,0,0,1-2.41,2.38,12.32,12.32,0,0,1-3.53,1.53,16.34,16.34,0,0,1-4.18.53h0a17.62,17.62,0,0,1-4.13-.42,9,9,0,0,1-2.82-1.18,4.84,4.84,0,0,1-1.62-1.8,5,5,0,0,1-.52-2.27,3.69,3.69,0,0,1,.29-1.48A4.79,4.79,0,0,1,374,166a4.87,4.87,0,0,1,1.12-1,5.66,5.66,0,0,1,1.32-.67,3.91,3.91,0,0,1-1.52-1.3,3.23,3.23,0,0,1-.53-1.84,3.56,3.56,0,0,1,.68-2.2,6.69,6.69,0,0,1,1.75-1.58,5.44,5.44,0,0,1-2.57-2.22,6.67,6.67,0,0,1-.83-3.42,5.68,5.68,0,0,1,.69-2.79,6.48,6.48,0,0,1,1.89-2.12,8.9,8.9,0,0,1,2.78-1.36,11.74,11.74,0,0,1,3.4-.48h0q4.28,0,6.34,1.64a3.85,3.85,0,0,1,.65-.59,5.26,5.26,0,0,1,.94-.54,7.09,7.09,0,0,1,1.18-.4,5.53,5.53,0,0,1,1.37-.16h.8v3.83h-3.37a6.8,6.8,0,0,1,.3,1.14,6.63,6.63,0,0,1,.11,1.3,6.26,6.26,0,0,1-.64,2.83,6.56,6.56,0,0,1-1.81,2.23,8.62,8.62,0,0,1-2.79,1.47,11.57,11.57,0,0,1-3.57.53Zm-.87,6.9a13.16,13.16,0,0,1-2.05-.15,4,4,0,0,0-.64,1,3.81,3.81,0,0,0-.3,1.67,5.55,5.55,0,0,0,.3,1.95,3.15,3.15,0,0,0,.91,1.3,3.61,3.61,0,0,0,1.48.73,8.22,8.22,0,0,0,2,.22h0a8.63,8.63,0,0,0,2-.24,6.09,6.09,0,0,0,1.77-.72,4,4,0,0,0,1.24-1.23,3.06,3.06,0,0,0,.47-1.72,4.34,4.34,0,0,0-.16-1.28,1.7,1.7,0,0,0-.58-.87,2.73,2.73,0,0,0-1.14-.48,8.75,8.75,0,0,0-1.86-.16Zm1.28-9.19h0a2.74,2.74,0,0,0,1.44-.35,2.57,2.57,0,0,0,.9-1,4.65,4.65,0,0,0,.45-1.42,10.66,10.66,0,0,0,.13-1.73,5.69,5.69,0,0,0-.73-3.27,2.72,2.72,0,0,0-2.38-1h0a2.67,2.67,0,0,0-2.34,1,5.48,5.48,0,0,0-.72,3.13,9.66,9.66,0,0,0,.16,1.85,4,4,0,0,0,.52,1.45,2.65,2.65,0,0,0,1,.94A3.23,3.23,0,0,0,382.11,156Z"/><path class="cls-1" d="M52.19,209v-2.26l2.73-.46V192.51h-3v-2l3-.86v-1a7.88,7.88,0,0,1,.84-3.65,9.25,9.25,0,0,1,2.15-2.77,9.59,9.59,0,0,1,2.94-1.76,9,9,0,0,1,3.2-.62,6.29,6.29,0,0,1,1.32.1,6.44,6.44,0,0,1,.68.19v5.11a2.71,2.71,0,0,0-.62-.47,5.92,5.92,0,0,0-.91-.41,8.22,8.22,0,0,0-1.09-.3,5.74,5.74,0,0,0-1.17-.12,3.58,3.58,0,0,0-.84.1,1.46,1.46,0,0,0-.64.37,1.68,1.68,0,0,0-.41.72,3.73,3.73,0,0,0-.15,1.15l0,3.35h4.39v2.91H60.24v13.87l3.79.36V209Z"/><path class="cls-1" d="M66.51,199.33a11.86,11.86,0,0,1,.8-4.53,9.36,9.36,0,0,1,2.14-3.21,8.6,8.6,0,0,1,3.08-1.92,10.74,10.74,0,0,1,3.65-.63,10.44,10.44,0,0,1,3.93.69,7.75,7.75,0,0,1,2.88,2,8.75,8.75,0,0,1,1.76,3.16,14.13,14.13,0,0,1,.59,4.23,12,12,0,0,1-.8,4.61,9,9,0,0,1-2.14,3.2,8.49,8.49,0,0,1-3.07,1.87,11.12,11.12,0,0,1-3.64.6,10.44,10.44,0,0,1-3.93-.69,7.64,7.64,0,0,1-2.88-2,8.62,8.62,0,0,1-1.77-3.16A13.74,13.74,0,0,1,66.51,199.33ZM76,207a3,3,0,0,0,1.62-.41,3.12,3.12,0,0,0,1.14-1.32,7.7,7.7,0,0,0,.66-2.3,21.5,21.5,0,0,0,.22-3.35,28.48,28.48,0,0,0-.2-3.54,9.92,9.92,0,0,0-.63-2.59,3.66,3.66,0,0,0-1.14-1.58,2.82,2.82,0,0,0-1.74-.54,3.07,3.07,0,0,0-1.63.42,3.2,3.2,0,0,0-1.16,1.31,8.06,8.06,0,0,0-.68,2.3,21.5,21.5,0,0,0-.22,3.35,28.65,28.65,0,0,0,.2,3.55,10,10,0,0,0,.66,2.59,3.9,3.9,0,0,0,1.16,1.58A2.79,2.79,0,0,0,76,207Z"/><path class="cls-1" d="M88,209v-2.29l2.46-.33V193.23l-2.32-.72v-2.58l5.84-.84H94l.91.73v1.42l0,2.67H95a7.74,7.74,0,0,1,.74-1.38,9.72,9.72,0,0,1,1.34-1.6,7.93,7.93,0,0,1,1.82-1.34,4.68,4.68,0,0,1,2.25-.55,5.59,5.59,0,0,1,.81,0,3,3,0,0,1,.47.11v5.92a2.7,2.7,0,0,0-1-.3,9.39,9.39,0,0,0-1.89-.17,11.7,11.7,0,0,0-1.19.07c-.4,0-.78.11-1.12.18a6.11,6.11,0,0,0-.93.27,3,3,0,0,0-.64.3v10.91l4.26.41V209Z"/><path class="cls-2" d="M115.39,209v-2.29l2.1-.34V183.55l-2.56-.42v-2l6.64-.84h.09l1,.8,0,8-.28,2.72a9.6,9.6,0,0,1,1.16-.91,10.44,10.44,0,0,1,1.56-.88,11.26,11.26,0,0,1,1.91-.66,8.49,8.49,0,0,1,2.17-.27,7.12,7.12,0,0,1,2.77.46,3.86,3.86,0,0,1,1.74,1.42,6.4,6.4,0,0,1,.9,2.42,19.28,19.28,0,0,1,.27,3.46v9.47l2.41.34V209h-9.57v-2.22l1.89-.38v-9.55a16.93,16.93,0,0,0-.11-2,3.65,3.65,0,0,0-.46-1.41,2,2,0,0,0-.92-.82,3.83,3.83,0,0,0-1.51-.26,5.29,5.29,0,0,0-1.1.12,9.55,9.55,0,0,0-1.08.3,6.7,6.7,0,0,0-1,.41,4.11,4.11,0,0,0-.77.47v12.75l2.34.34V209Z"/><path class="cls-2" d="M148.34,209.39a10.43,10.43,0,0,1-4.15-.75,7.58,7.58,0,0,1-2.85-2.09,8.59,8.59,0,0,1-1.65-3.21,14.88,14.88,0,0,1-.53-4.06,12.71,12.71,0,0,1,.67-4.29,9.26,9.26,0,0,1,1.91-3.21,8.13,8.13,0,0,1,3-2,10,10,0,0,1,3.82-.7q7.09,0,7.4,6.92c0,.78,0,1.49,0,2.13a10.33,10.33,0,0,1-.18,1.59H144.58a10.52,10.52,0,0,0,.49,2.89,5.84,5.84,0,0,0,1.08,1.95,3.82,3.82,0,0,0,1.58,1.09,5.65,5.65,0,0,0,2,.34,9.17,9.17,0,0,0,1.62-.13,11.79,11.79,0,0,0,1.39-.34,7.92,7.92,0,0,0,1.17-.47,9.9,9.9,0,0,0,.89-.49l.89,2.07a7.13,7.13,0,0,1-1.18.93,12.39,12.39,0,0,1-1.75.9,13.86,13.86,0,0,1-2.12.68A10,10,0,0,1,148.34,209.39Zm-.46-18a3.15,3.15,0,0,0-1.24.24,2.2,2.2,0,0,0-1,.9,6,6,0,0,0-.72,1.86,16.37,16.37,0,0,0-.35,3.06h6.14v-.24c0-.1,0-.21,0-.32s0-.22,0-.33v-.22a13.38,13.38,0,0,0-.12-1.77,5.69,5.69,0,0,0-.44-1.59,3.05,3.05,0,0,0-.87-1.15A2.17,2.17,0,0,0,147.88,191.35Z"/><path class="cls-2" d="M158.27,203.8a5.22,5.22,0,0,1,.45-2.23,5.39,5.39,0,0,1,1.25-1.71,7.36,7.36,0,0,1,1.87-1.25,14.44,14.44,0,0,1,2.32-.85,17.85,17.85,0,0,1,2.6-.48c.9-.11,1.8-.17,2.7-.19v-.82a4,4,0,0,0-.79-2.78,3.51,3.51,0,0,0-2.61-.83,11.76,11.76,0,0,0-1.86.15,16,16,0,0,0-1.78.36c-.57.14-1.1.3-1.58.47s-.9.35-1.24.51h0l-1-2.29a8.24,8.24,0,0,1,1.22-.76,14.92,14.92,0,0,1,2.05-.92,22.13,22.13,0,0,1,2.65-.77,14,14,0,0,1,3-.32,11.11,11.11,0,0,1,3.22.41,5,5,0,0,1,2.15,1.27,5.13,5.13,0,0,1,1.22,2.16,11.23,11.23,0,0,1,.38,3.08v10.67h2.12v2.1c-.22,0-.49.1-.8.18s-.68.14-1.06.2-.81.12-1.25.16a12.32,12.32,0,0,1-1.37.07,8,8,0,0,1-1.05,0,1.42,1.42,0,0,1-.7-.24,1,1,0,0,1-.38-.54,3,3,0,0,1-.12-.95v-1a6.86,6.86,0,0,1-.81.88,6.5,6.5,0,0,1-1.24.9,7.32,7.32,0,0,1-1.65.71,6.82,6.82,0,0,1-2,.28,7.88,7.88,0,0,1-2.27-.32,5.09,5.09,0,0,1-1.86-1,4.86,4.86,0,0,1-1.25-1.74A6.27,6.27,0,0,1,158.27,203.8Zm8.11,2.29a3.07,3.07,0,0,0,.7-.08,6.84,6.84,0,0,0,.82-.24,6.3,6.3,0,0,0,.84-.37,3.47,3.47,0,0,0,.72-.48v-5.66a10.45,10.45,0,0,0-2.78.31,4.91,4.91,0,0,0-1.78.82,2.86,2.86,0,0,0-1,1.18,3.51,3.51,0,0,0-.28,1.41,3.44,3.44,0,0,0,.69,2.32A2.54,2.54,0,0,0,166.38,206.09Z"/><path class="cls-2" d="M178.65,209v-2.29l2.47-.33V193.23l-2.33-.72v-2.58l5.85-.84h.1l.9.73v4.09h.07a7.13,7.13,0,0,1,.74-1.38,9.64,9.64,0,0,1,1.33-1.6,8,8,0,0,1,1.83-1.34,4.68,4.68,0,0,1,2.25-.55,5.67,5.67,0,0,1,.81,0,3.3,3.3,0,0,1,.47.11v5.92a2.78,2.78,0,0,0-1-.3,9.39,9.39,0,0,0-1.89-.17c-.4,0-.8,0-1.2.07s-.77.11-1.12.18a6.11,6.11,0,0,0-.93.27,3.11,3.11,0,0,0-.63.3v10.91l4.25.41V209Z"/><path class="cls-2" d="M197.25,204.9V192.32h-2.41v-1.95l.43-.14.62-.23.57-.23a2.22,2.22,0,0,0,.33-.17A5.4,5.4,0,0,0,198,188l.38-.79c.13-.3.27-.62.4-.95s.25-.66.37-1,.21-.62.29-.88h3l.05,5h5v2.91h-5v9.47c0,.91,0,1.63,0,2.17a4,4,0,0,0,.21,1.21.8.8,0,0,0,.5.53,2.94,2.94,0,0,0,.94.12h0a5.24,5.24,0,0,0,.86-.07c.3,0,.6-.1.89-.16s.56-.13.8-.2l.61-.2h0l.8,2A8.67,8.67,0,0,1,207,208a10.79,10.79,0,0,1-1.64.71,13.4,13.4,0,0,1-1.89.52,10.52,10.52,0,0,1-2,.19h0a5.47,5.47,0,0,1-1.92-.29,2.93,2.93,0,0,1-1.28-.86,3.48,3.48,0,0,1-.71-1.41A7.48,7.48,0,0,1,197.25,204.9Z"/><path class="cls-2" d="M220.63,209v-2.29l2.1-.34V183.55l-2.56-.42v-2l6.64-.84h.09l1,.8,0,8-.28,2.72a9.6,9.6,0,0,1,1.16-.91,10.44,10.44,0,0,1,1.56-.88,11.15,11.15,0,0,1,1.9-.66,8.62,8.62,0,0,1,2.18-.27,7.12,7.12,0,0,1,2.77.46A3.86,3.86,0,0,1,239,191a6.4,6.4,0,0,1,.9,2.42,19.28,19.28,0,0,1,.27,3.46v9.47l2.41.34V209H233v-2.22l1.89-.38v-9.55a14.93,14.93,0,0,0-.12-2,3.66,3.66,0,0,0-.45-1.41,2,2,0,0,0-.92-.82,3.83,3.83,0,0,0-1.51-.26,5.29,5.29,0,0,0-1.1.12,9,9,0,0,0-1.08.3,7.33,7.33,0,0,0-1,.41,4.35,4.35,0,0,0-.76.47v12.75l2.34.34V209Z"/><path class="cls-2" d="M253.58,209.39a10.43,10.43,0,0,1-4.15-.75,7.58,7.58,0,0,1-2.85-2.09,8.59,8.59,0,0,1-1.65-3.21,14.88,14.88,0,0,1-.53-4.06,12.71,12.71,0,0,1,.67-4.29,9.26,9.26,0,0,1,1.91-3.21,8.13,8.13,0,0,1,3-2,10,10,0,0,1,3.82-.7q7.1,0,7.4,6.92c0,.78,0,1.49,0,2.13a10.33,10.33,0,0,1-.18,1.59H249.82a10.52,10.52,0,0,0,.49,2.89,5.84,5.84,0,0,0,1.08,1.95,3.82,3.82,0,0,0,1.58,1.09,5.65,5.65,0,0,0,2,.34,9.17,9.17,0,0,0,1.62-.13,11.79,11.79,0,0,0,1.39-.34,7.92,7.92,0,0,0,1.17-.47,9.9,9.9,0,0,0,.89-.49l.89,2.07a6.85,6.85,0,0,1-1.19.93,11.73,11.73,0,0,1-1.74.9,13.86,13.86,0,0,1-2.12.68A10,10,0,0,1,253.58,209.39Zm-.46-18a3.15,3.15,0,0,0-1.24.24,2.2,2.2,0,0,0-1,.9,6,6,0,0,0-.72,1.86,15.57,15.57,0,0,0-.35,3.06h6.14v-.24c0-.1,0-.21,0-.32s0-.22,0-.33v-.22a13.38,13.38,0,0,0-.12-1.77,5.69,5.69,0,0,0-.44-1.59,3.05,3.05,0,0,0-.87-1.15A2.17,2.17,0,0,0,253.12,191.35Z"/><path class="cls-2" d="M263.5,203.8a5.22,5.22,0,0,1,.46-2.23,5.39,5.39,0,0,1,1.25-1.71,7.36,7.36,0,0,1,1.87-1.25,14.1,14.1,0,0,1,2.32-.85,17.85,17.85,0,0,1,2.6-.48c.9-.11,1.8-.17,2.7-.19v-.82a4,4,0,0,0-.8-2.78,3.5,3.5,0,0,0-2.6-.83,11.66,11.66,0,0,0-1.86.15,16,16,0,0,0-1.78.36c-.57.14-1.1.3-1.58.47s-.9.35-1.24.51h0l-1-2.29a8.24,8.24,0,0,1,1.22-.76,14.92,14.92,0,0,1,2.05-.92,21.6,21.6,0,0,1,2.65-.77,14,14,0,0,1,3-.32,11.16,11.16,0,0,1,3.22.41,5,5,0,0,1,2.15,1.27,5,5,0,0,1,1.21,2.16,10.83,10.83,0,0,1,.39,3.08v10.67h2.12v2.1L281,209c-.31.07-.67.14-1.05.2s-.81.12-1.25.16a12.32,12.32,0,0,1-1.37.07,8,8,0,0,1-1.05,0,1.38,1.38,0,0,1-.7-.24,1,1,0,0,1-.39-.54,3,3,0,0,1-.12-.95v-1a6.06,6.06,0,0,1-.8.88,6.5,6.5,0,0,1-1.24.9,7.32,7.32,0,0,1-1.65.71,6.82,6.82,0,0,1-2,.28,7.88,7.88,0,0,1-2.27-.32,5.09,5.09,0,0,1-1.86-1,4.74,4.74,0,0,1-1.25-1.74A6.26,6.26,0,0,1,263.5,203.8Zm8.12,2.29a3.07,3.07,0,0,0,.7-.08,7.43,7.43,0,0,0,.82-.24,6.3,6.3,0,0,0,.84-.37,3.76,3.76,0,0,0,.72-.48v-5.66a10.45,10.45,0,0,0-2.78.31,4.83,4.83,0,0,0-1.78.82,2.86,2.86,0,0,0-.95,1.18,3.51,3.51,0,0,0-.28,1.41,3.44,3.44,0,0,0,.69,2.32A2.52,2.52,0,0,0,271.62,206.09Z"/><path class="cls-2" d="M283.36,209v-2.29l2.48-.34V183.55l-2.54-.42v-2l6.68-.84h0l1.08.8v25.28l2.58.34V209Z"/><path class="cls-2" d="M297.86,204.9V192.32h-2.41v-1.95l.43-.14.62-.23.57-.23a1.58,1.58,0,0,0,.32-.17,5.24,5.24,0,0,0,1.22-1.64c.11-.23.24-.49.37-.79s.27-.62.41-.95.25-.66.36-1,.21-.62.29-.88h3l.06,5h5v2.91h-5v9.47c0,.91,0,1.63,0,2.17a4.42,4.42,0,0,0,.2,1.21.84.84,0,0,0,.51.53,2.94,2.94,0,0,0,.94.12h0a5.24,5.24,0,0,0,.86-.07c.3,0,.6-.1.89-.16s.56-.13.8-.2l.61-.2h0l.81,2a8.67,8.67,0,0,1-1.26.78,10.79,10.79,0,0,1-1.64.71,13.54,13.54,0,0,1-1.9.52,10.34,10.34,0,0,1-2,.19h0a5.47,5.47,0,0,1-1.92-.29,2.93,2.93,0,0,1-1.28-.86,3.48,3.48,0,0,1-.71-1.41A7.48,7.48,0,0,1,297.86,204.9Z"/><path class="cls-2" d="M310.25,209v-2.29l2.1-.34V183.55l-2.56-.42v-2l6.64-.84h.09l1,.8,0,8-.28,2.72a9.6,9.6,0,0,1,1.16-.91,10.44,10.44,0,0,1,1.56-.88,11.15,11.15,0,0,1,1.9-.66,8.62,8.62,0,0,1,2.18-.27,7.12,7.12,0,0,1,2.77.46,3.86,3.86,0,0,1,1.74,1.42,6.4,6.4,0,0,1,.9,2.42,19.28,19.28,0,0,1,.27,3.46v9.47l2.41.34V209h-9.57v-2.22l1.89-.38v-9.55a14.93,14.93,0,0,0-.12-2,3.66,3.66,0,0,0-.45-1.41,2,2,0,0,0-.92-.82,3.83,3.83,0,0,0-1.51-.26,5.29,5.29,0,0,0-1.1.12,9,9,0,0,0-1.08.3,7.33,7.33,0,0,0-1,.41,4.35,4.35,0,0,0-.76.47v12.75l2.34.34V209Z"/><path class="cls-2" d="M338.67,209.29a3.43,3.43,0,0,1-1.15-.19,3,3,0,0,1-1-.54,2.66,2.66,0,0,1-.64-.87,2.57,2.57,0,0,1-.24-1.13,3,3,0,0,1,.27-1.29,3.22,3.22,0,0,1,.75-1,3.52,3.52,0,0,1,1.11-.69,3.56,3.56,0,0,1,1.35-.25,4.19,4.19,0,0,1,1.42.22,2.67,2.67,0,0,1,.95.6,2.29,2.29,0,0,1,.53.87,3.36,3.36,0,0,1,.16,1.06,3.41,3.41,0,0,1-.26,1.34,2.91,2.91,0,0,1-.74,1,3.09,3.09,0,0,1-1.13.66A4.31,4.31,0,0,1,338.67,209.29Z"/></svg>