<svg id="Layer_1" data-name="Layer 1" xmlns="http://www.w3.org/2000/svg" viewBox="0 0 160 600"><defs><style>.cls-1{fill:#435563;}.cls-2{opacity:0.05;}.cls-3{fill:#fff;}.cls-4{fill:#e87824;}.cls-5{fill:#d4262f;}.cls-6{fill:#f1b533;}.cls-7{fill:none;stroke:#f1b533;stroke-miterlimit:10;}</style></defs><rect class="cls-1" width="160" height="600"/><g class="cls-2"><polygon class="cls-3" points="153.61 367.5 146.25 360 138.89 367.5 131.52 360 124.16 367.5 116.8 360 109.44 367.5 102.08 360 94.72 367.5 87.36 360 80 367.5 72.64 360 65.28 367.5 57.92 360 50.56 367.5 43.2 360 35.84 367.5 28.48 360 21.11 367.5 13.75 360 6.39 367.5 0 360.99 0 368.49 6.39 375 13.75 367.5 21.11 375 28.48 367.5 35.84 375 43.2 367.5 50.56 375 57.92 367.5 65.28 375 72.64 367.5 80 375 87.36 367.5 94.72 375 102.08 367.5 109.44 375 116.8 367.5 124.16 375 131.52 367.5 138.89 375 146.25 367.5 153.61 375 160 368.49 160 360.99 153.61 367.5"/><polygon class="cls-3" points="153.61 397.5 146.25 390 138.89 397.5 131.52 390 124.16 397.5 116.8 390 109.44 397.5 102.08 390 94.72 397.5 87.36 390 80 397.5 72.64 390 65.28 397.5 57.92 390 50.56 397.5 43.2 390 35.84 397.5 28.48 390 21.11 397.5 13.75 390 6.39 397.5 0 390.99 0 398.49 6.39 405 13.75 397.5 21.11 405 28.48 397.5 35.84 405 43.2 397.5 50.56 405 57.92 397.5 65.28 405 72.64 397.5 80 405 87.36 397.5 94.72 405 102.08 397.5 109.44 405 116.8 397.5 124.16 405 131.52 397.5 138.89 405 146.25 397.5 153.61 405 160 398.49 160 390.99 153.61 397.5"/><polygon class="cls-3" points="153.61 352.5 146.25 345 138.89 352.5 131.52 345 124.16 352.5 116.8 345 109.44 352.5 102.08 345 94.72 352.5 87.36 345 80 352.5 72.64 345 65.28 352.5 57.92 345 50.56 352.5 43.2 345 35.84 352.5 28.48 345 21.11 352.5 13.75 345 6.39 352.5 0 345.99 0 353.49 6.39 360 13.75 352.5 21.11 360 28.48 352.5 35.84 360 43.2 352.5 50.56 360 57.92 352.5 65.28 360 72.64 352.5 80 360 87.36 352.5 94.72 360 102.08 352.5 109.44 360 116.8 352.5 124.16 360 131.52 352.5 138.89 360 146.25 352.5 153.61 360 160 353.49 160 345.99 153.61 352.5"/><polygon class="cls-3" points="153.61 382.5 146.25 375 138.89 382.5 131.52 375 124.16 382.5 116.8 375 109.44 382.5 102.08 375 94.72 382.5 87.36 375 80 382.5 72.64 375 65.28 382.5 57.92 375 50.56 382.5 43.2 375 35.84 382.5 28.48 375 21.11 382.5 13.75 375 6.39 382.5 0 375.99 0 383.49 6.39 390 13.75 382.5 21.11 390 28.48 382.5 35.84 390 43.2 382.5 50.56 390 57.92 382.5 65.28 390 72.64 382.5 80 390 87.36 382.5 94.72 390 102.08 382.5 109.44 390 116.8 382.5 124.16 390 131.52 382.5 138.89 390 146.25 382.5 153.61 390 160 383.49 160 375.99 153.61 382.5"/><polygon class="cls-3" points="153.61 292.5 146.25 285 138.89 292.5 131.52 285 124.16 292.5 116.8 285 109.44 292.5 102.08 285 94.72 292.5 87.36 285 80 292.5 72.64 285 65.28 292.5 57.92 285 50.56 292.5 43.2 285 35.84 292.5 28.48 285 21.11 292.5 13.75 285 6.39 292.5 0 285.99 0 293.49 6.39 300 13.75 292.5 21.11 300 28.48 292.5 35.84 300 43.2 292.5 50.56 300 57.92 292.5 65.28 300 72.64 292.5 80 300 87.36 292.5 94.72 300 102.08 292.5 109.44 300 116.8 292.5 124.16 300 131.52 292.5 138.89 300 146.25 292.5 153.61 300 160 293.49 160 285.99 153.61 292.5"/><polygon class="cls-3" points="153.61 307.5 146.25 300 138.89 307.5 131.52 300 124.16 307.5 116.8 300 109.44 307.5 102.08 300 94.72 307.5 87.36 300 80 307.5 72.64 300 65.28 307.5 57.92 300 50.56 307.5 43.2 300 35.84 307.5 28.48 300 21.11 307.5 13.75 300 6.39 307.5 0 300.99 0 308.49 6.39 315 13.75 307.5 21.11 315 28.48 307.5 35.84 315 43.2 307.5 50.56 315 57.92 307.5 65.28 315 72.64 307.5 80 315 87.36 307.5 94.72 315 102.08 307.5 109.44 315 116.8 307.5 124.16 315 131.52 307.5 138.89 315 146.25 307.5 153.61 315 160 308.49 160 300.99 153.61 307.5"/><polygon class="cls-3" points="153.61 412.5 146.25 405 138.89 412.5 131.52 405 124.16 412.5 116.8 405 109.44 412.5 102.08 405 94.72 412.5 87.36 405 80 412.5 72.64 405 65.28 412.5 57.92 405 50.56 412.5 43.2 405 35.84 412.5 28.48 405 21.11 412.5 13.75 405 6.39 412.5 0 405.99 0 413.49 6.39 420 13.75 412.5 21.11 420 28.48 412.5 35.84 420 43.2 412.5 50.56 420 57.92 412.5 65.28 420 72.64 412.5 80 420 87.36 412.5 94.72 420 102.08 412.5 109.44 420 116.8 412.5 124.16 420 131.52 412.5 138.89 420 146.25 412.5 153.61 420 160 413.49 160 405.99 153.61 412.5"/><polygon class="cls-3" points="153.61 322.5 146.25 315 138.89 322.5 131.52 315 124.16 322.5 116.8 315 109.44 322.5 102.08 315 94.72 322.5 87.36 315 80 322.5 72.64 315 65.28 322.5 57.92 315 50.56 322.5 43.2 315 35.84 322.5 28.48 315 21.11 322.5 13.75 315 6.39 322.5 0 315.99 0 323.49 6.39 330 13.75 322.5 21.11 330 28.48 322.5 35.84 330 43.2 322.5 50.56 330 57.92 322.5 65.28 330 72.64 322.5 80 330 87.36 322.5 94.72 330 102.08 322.5 109.44 330 116.8 322.5 124.16 330 131.52 322.5 138.89 330 146.25 322.5 153.61 330 160 323.49 160 315.99 153.61 322.5"/><polygon class="cls-3" points="153.61 337.5 146.25 330 138.89 337.5 131.52 330 124.16 337.5 116.8 330 109.44 337.5 102.08 330 94.72 337.5 87.36 330 80 337.5 72.64 330 65.28 337.5 57.92 330 50.56 337.5 43.2 330 35.84 337.5 28.48 330 21.11 337.5 13.75 330 6.39 337.5 0 330.99 0 338.49 6.39 345 13.75 337.5 21.11 345 28.48 337.5 35.84 345 43.2 337.5 50.56 345 57.92 337.5 65.28 345 72.64 337.5 80 345 87.36 337.5 94.72 345 102.08 337.5 109.44 345 116.8 337.5 124.16 345 131.52 337.5 138.89 345 146.25 337.5 153.61 345 160 338.49 160 330.99 153.61 337.5"/><polygon class="cls-3" points="153.61 502.5 146.25 495 138.89 502.5 131.52 495 124.16 502.5 116.8 495 109.44 502.5 102.08 495 94.72 502.5 87.36 495 80 502.5 72.64 495 65.28 502.5 57.92 495 50.56 502.5 43.2 495 35.84 502.5 28.48 495 21.11 502.5 13.75 495 6.39 502.5 0 495.99 0 503.49 6.39 510 13.75 502.5 21.11 510 28.48 502.5 35.84 510 43.2 502.5 50.56 510 57.92 502.5 65.28 510 72.64 502.5 80 510 87.36 502.5 94.72 510 102.08 502.5 109.44 510 116.8 502.5 124.16 510 131.52 502.5 138.89 510 146.25 502.5 153.61 510 160 503.49 160 495.99 153.61 502.5"/><polygon class="cls-3" points="153.61 517.5 146.25 510 138.89 517.5 131.52 510 124.16 517.5 116.8 510 109.44 517.5 102.08 510 94.72 517.5 87.36 510 80 517.5 72.64 510 65.28 517.5 57.92 510 50.56 517.5 43.2 510 35.84 517.5 28.48 510 21.11 517.5 13.75 510 6.39 517.5 0 510.99 0 518.49 6.39 525 13.75 517.5 21.11 525 28.48 517.5 35.84 525 43.2 517.5 50.56 525 57.92 517.5 65.28 525 72.64 517.5 80 525 87.36 517.5 94.72 525 102.08 517.5 109.44 525 116.8 517.5 124.16 525 131.52 517.5 138.89 525 146.25 517.5 153.61 525 160 518.49 160 510.99 153.61 517.5"/><polygon class="cls-3" points="153.61 532.5 146.25 525 138.89 532.5 131.52 525 124.16 532.5 116.8 525 109.44 532.5 102.08 525 94.72 532.5 87.36 525 80 532.5 72.64 525 65.28 532.5 57.92 525 50.56 532.5 43.2 525 35.84 532.5 28.48 525 21.11 532.5 13.75 525 6.39 532.5 0 525.99 0 533.49 6.39 540 13.75 532.5 21.11 540 28.48 532.5 35.84 540 43.2 532.5 50.56 540 57.92 532.5 65.28 540 72.64 532.5 80 540 87.36 532.5 94.72 540 102.08 532.5 109.44 540 116.8 532.5 124.16 540 131.52 532.5 138.89 540 146.25 532.5 153.61 540 160 533.49 160 525.99 153.61 532.5"/><polygon class="cls-3" points="153.61 427.5 146.25 420 138.89 427.5 131.52 420 124.16 427.5 116.8 420 109.44 427.5 102.08 420 94.72 427.5 87.36 420 80 427.5 72.64 420 65.28 427.5 57.92 420 50.56 427.5 43.2 420 35.84 427.5 28.48 420 21.11 427.5 13.75 420 6.39 427.5 0 420.99 0 428.49 6.39 435 13.75 427.5 21.11 435 28.48 427.5 35.84 435 43.2 427.5 50.56 435 57.92 427.5 65.28 435 72.64 427.5 80 435 87.36 427.5 94.72 435 102.08 427.5 109.44 435 116.8 427.5 124.16 435 131.52 427.5 138.89 435 146.25 427.5 153.61 435 160 428.49 160 420.99 153.61 427.5"/><polygon class="cls-3" points="153.61 547.5 146.25 540 138.89 547.5 131.52 540 124.16 547.5 116.8 540 109.44 547.5 102.08 540 94.72 547.5 87.36 540 80 547.5 72.64 540 65.28 547.5 57.92 540 50.56 547.5 43.2 540 35.84 547.5 28.48 540 21.11 547.5 13.75 540 6.39 547.5 0 540.99 0 548.49 6.39 555 13.75 547.5 21.11 555 28.48 547.5 35.84 555 43.2 547.5 50.56 555 57.92 547.5 65.28 555 72.64 547.5 80 555 87.36 547.5 94.72 555 102.08 547.5 109.44 555 116.8 547.5 124.16 555 131.52 547.5 138.89 555 146.25 547.5 153.61 555 160 548.49 160 540.99 153.61 547.5"/><polygon class="cls-3" points="146.25 555 138.89 562.5 131.52 555 124.16 562.5 116.8 555 109.44 562.5 102.08 555 94.72 562.5 87.36 555 80 562.5 72.64 555 65.28 562.5 57.92 555 50.56 562.5 43.2 555 35.84 562.5 28.48 555 21.11 562.5 13.75 555 6.39 562.5 0 555.99 0 563.49 6.39 570 13.75 562.5 21.11 570 28.48 562.5 35.84 570 43.2 562.5 50.56 570 57.92 562.5 65.28 570 72.64 562.5 80 570 87.36 562.5 94.72 570 102.08 562.5 109.44 570 116.8 562.5 124.16 570 131.52 562.5 138.89 570 146.25 562.5 153.61 570 160 563.49 160 555.99 153.61 562.5 146.25 555"/><polygon class="cls-3" points="153.61 277.5 146.25 270 138.89 277.5 131.52 270 124.16 277.5 116.8 270 109.44 277.5 102.08 270 94.72 277.5 87.36 270 80 277.5 72.64 270 65.28 277.5 57.92 270 50.56 277.5 43.2 270 35.84 277.5 28.48 270 21.11 277.5 13.75 270 6.39 277.5 0 270.99 0 278.49 6.39 285 13.75 277.5 21.11 285 28.48 277.5 35.84 285 43.2 277.5 50.56 285 57.92 277.5 65.28 285 72.64 277.5 80 285 87.36 277.5 94.72 285 102.08 277.5 109.44 285 116.8 277.5 124.16 285 131.52 277.5 138.89 285 146.25 277.5 153.61 285 160 278.49 160 270.99 153.61 277.5"/><polygon class="cls-3" points="153.61 442.5 146.25 435 138.89 442.5 131.52 435 124.16 442.5 116.8 435 109.44 442.5 102.08 435 94.72 442.5 87.36 435 80 442.5 72.64 435 65.28 442.5 57.92 435 50.56 442.5 43.2 435 35.84 442.5 28.48 435 21.11 442.5 13.75 435 6.39 442.5 0 435.99 0 443.49 6.39 450 13.75 442.5 21.11 450 28.48 442.5 35.84 450 43.2 442.5 50.56 450 57.92 442.5 65.28 450 72.64 442.5 80 450 87.36 442.5 94.72 450 102.08 442.5 109.44 450 116.8 442.5 124.16 450 131.52 442.5 138.89 450 146.25 442.5 153.61 450 160 443.49 160 435.99 153.61 442.5"/><polygon class="cls-3" points="153.61 457.5 146.25 450 138.89 457.5 131.52 450 124.16 457.5 116.8 450 109.44 457.5 102.08 450 94.72 457.5 87.36 450 80 457.5 72.64 450 65.28 457.5 57.92 450 50.56 457.5 43.2 450 35.84 457.5 28.48 450 21.11 457.5 13.75 450 6.39 457.5 0 450.99 0 458.49 6.39 465 13.75 457.5 21.11 465 28.48 457.5 35.84 465 43.2 457.5 50.56 465 57.92 457.5 65.28 465 72.64 457.5 80 465 87.36 457.5 94.72 465 102.08 457.5 109.44 465 116.8 457.5 124.16 465 131.52 457.5 138.89 465 146.25 457.5 153.61 465 160 458.49 160 450.99 153.61 457.5"/><polygon class="cls-3" points="153.61 487.5 146.25 480 138.89 487.5 131.52 480 124.16 487.5 116.8 480 109.44 487.5 102.08 480 94.72 487.5 87.36 480 80 487.5 72.64 480 65.28 487.5 57.92 480 50.56 487.5 43.2 480 35.84 487.5 28.48 480 21.11 487.5 13.75 480 6.39 487.5 0 480.99 0 488.49 6.39 495 13.75 487.5 21.11 495 28.48 487.5 35.84 495 43.2 487.5 50.56 495 57.92 487.5 65.28 495 72.64 487.5 80 495 87.36 487.5 94.72 495 102.08 487.5 109.44 495 116.8 487.5 124.16 495 131.52 487.5 138.89 495 146.25 487.5 153.61 495 160 488.49 160 480.99 153.61 487.5"/><polygon class="cls-3" points="153.61 472.5 146.25 465 138.89 472.5 131.52 465 124.16 472.5 116.8 465 109.44 472.5 102.08 465 94.72 472.5 87.36 465 80 472.5 72.64 465 65.28 472.5 57.92 465 50.56 472.5 43.2 465 35.84 472.5 28.48 465 21.11 472.5 13.75 465 6.39 472.5 0 465.99 0 473.49 6.39 480 13.75 472.5 21.11 480 28.48 472.5 35.84 480 43.2 472.5 50.56 480 57.92 472.5 65.28 480 72.64 472.5 80 480 87.36 472.5 94.72 480 102.08 472.5 109.44 480 116.8 472.5 124.16 480 131.52 472.5 138.89 480 146.25 472.5 153.61 480 160 473.49 160 465.99 153.61 472.5"/><polygon class="cls-3" points="153.61 172.5 146.25 165 138.89 172.5 131.52 165 124.16 172.5 116.8 165 109.44 172.5 102.08 165 94.72 172.5 87.36 165 80 172.5 72.64 165 65.28 172.5 57.92 165 50.56 172.5 43.2 165 35.84 172.5 28.48 165 21.11 172.5 13.75 165 6.39 172.5 0 165.99 0 173.49 6.39 180 13.75 172.5 21.11 180 28.48 172.5 35.84 180 43.2 172.5 50.56 180 57.92 172.5 65.28 180 72.64 172.5 80 180 87.36 172.5 94.72 180 102.08 172.5 109.44 180 116.8 172.5 124.16 180 131.52 172.5 138.89 180 146.25 172.5 153.61 180 160 173.49 160 165.99 153.61 172.5"/><polygon class="cls-3" points="153.61 37.5 146.25 30 138.89 37.5 131.52 30 124.16 37.5 116.8 30 109.44 37.5 102.08 30 94.72 37.5 87.36 30 80 37.5 72.64 30 65.28 37.5 57.92 30 50.56 37.5 43.2 30 35.84 37.5 28.48 30 21.11 37.5 13.75 30 6.39 37.5 0 30.99 0 38.49 6.39 45 13.75 37.5 21.11 45 28.48 37.5 35.84 45 43.2 37.5 50.56 45 57.92 37.5 65.28 45 72.64 37.5 80 45 87.36 37.5 94.72 45 102.08 37.5 109.44 45 116.8 37.5 124.16 45 131.52 37.5 138.89 45 146.25 37.5 153.61 45 160 38.49 160 30.99 153.61 37.5"/><polygon class="cls-3" points="153.61 52.5 146.25 45 138.89 52.5 131.52 45 124.16 52.5 116.8 45 109.44 52.5 102.08 45 94.72 52.5 87.36 45 80 52.5 72.64 45 65.28 52.5 57.92 45 50.56 52.5 43.2 45 35.84 52.5 28.48 45 21.11 52.5 13.75 45 6.39 52.5 0 45.99 0 53.49 6.39 60 13.75 52.5 21.11 60 28.48 52.5 35.84 60 43.2 52.5 50.56 60 57.92 52.5 65.28 60 72.64 52.5 80 60 87.36 52.5 94.72 60 102.08 52.5 109.44 60 116.8 52.5 124.16 60 131.52 52.5 138.89 60 146.25 52.5 153.61 60 160 53.49 160 45.99 153.61 52.5"/><polygon class="cls-3" points="153.61 67.5 146.25 60 138.89 67.5 131.52 60 124.16 67.5 116.8 60 109.44 67.5 102.08 60 94.72 67.5 87.36 60 80 67.5 72.64 60 65.28 67.5 57.92 60 50.56 67.5 43.2 60 35.84 67.5 28.48 60 21.11 67.5 13.75 60 6.39 67.5 0 60.99 0 68.49 6.39 75 13.75 67.5 21.11 75 28.48 67.5 35.84 75 43.2 67.5 50.56 75 57.92 67.5 65.28 75 72.64 67.5 80 75 87.36 67.5 94.72 75 102.08 67.5 109.44 75 116.8 67.5 124.16 75 131.52 67.5 138.89 75 146.25 67.5 153.61 75 160 68.49 160 60.99 153.61 67.5"/><polygon class="cls-3" points="153.61 82.5 146.25 75 138.89 82.5 131.52 75 124.16 82.5 116.8 75 109.44 82.5 102.08 75 94.72 82.5 87.36 75 80 82.5 72.64 75 65.28 82.5 57.92 75 50.56 82.5 43.2 75 35.84 82.5 28.48 75 21.11 82.5 13.75 75 6.39 82.5 0 75.99 0 83.49 6.39 90 13.75 82.5 21.11 90 28.48 82.5 35.84 90 43.2 82.5 50.56 90 57.92 82.5 65.28 90 72.64 82.5 80 90 87.36 82.5 94.72 90 102.08 82.5 109.44 90 116.8 82.5 124.16 90 131.52 82.5 138.89 90 146.25 82.5 153.61 90 160 83.49 160 75.99 153.61 82.5"/><polygon class="cls-3" points="6.39 7.5 0 0.98 0 8.49 6.39 15 13.75 7.5 21.11 15 28.48 7.5 35.84 15 43.2 7.5 50.56 15 57.92 7.5 65.28 15 72.64 7.5 80 15 87.36 7.5 94.72 15 102.08 7.5 109.44 15 116.8 7.5 124.16 15 131.52 7.5 138.89 15 146.25 7.5 153.61 15 160 8.49 160 0.98 153.61 7.5 146.25 0 138.88 7.5 138.88 7.5 131.53 0 124.16 7.5 124.16 7.5 116.8 0 109.44 7.5 102.08 0 94.72 7.5 94.72 7.5 87.36 0 80 7.5 72.64 0 68.96 3.75 65.28 7.5 57.92 0 50.56 7.5 50.56 7.5 43.2 0 35.84 7.5 28.48 0 21.11 7.5 21.11 7.5 13.75 0 6.39 7.5 6.39 7.5"/><polygon class="cls-3" points="153.61 22.5 146.25 15 138.89 22.5 131.52 15 124.16 22.5 116.8 15 109.44 22.5 102.08 15 94.72 22.5 87.36 15 80 22.5 72.64 15 65.28 22.5 57.92 15 50.56 22.5 43.2 15 35.84 22.5 28.48 15 21.11 22.5 13.75 15 6.39 22.5 0 15.99 0 23.49 6.39 30 13.75 22.5 21.11 30 28.48 22.5 35.84 30 43.2 22.5 50.56 30 57.92 22.5 65.28 30 72.64 22.5 80 30 87.36 22.5 94.72 30 102.08 22.5 109.44 30 116.8 22.5 124.16 30 131.52 22.5 138.89 30 146.25 22.5 153.61 30 160 23.49 160 15.99 153.61 22.5"/><polygon class="cls-3" points="160 585.99 153.61 592.5 146.25 585 138.89 592.5 131.52 585 124.16 592.5 116.8 585 109.44 592.5 102.08 585 94.72 592.5 87.36 585 80 592.5 72.64 585 65.28 592.5 57.92 585 50.56 592.5 43.2 585 35.84 592.5 28.48 585 21.11 592.5 13.75 585 6.39 592.5 0 585.99 0 593.49 6.39 600 13.75 592.5 21.11 600 28.48 592.5 35.84 600 43.2 592.5 50.56 600 57.92 592.5 65.28 600 72.64 592.5 80 600 87.36 592.5 94.72 600 102.08 592.5 109.44 600 116.8 592.5 124.16 600 131.52 592.5 138.89 600 146.25 592.5 153.61 600 160 593.49 160 585.99"/><polygon class="cls-3" points="153.61 97.5 146.25 90 138.89 97.5 131.52 90 124.16 97.5 116.8 90 109.44 97.5 102.08 90 94.72 97.5 87.36 90 80 97.5 72.64 90 65.28 97.5 57.92 90 50.56 97.5 43.2 90 35.84 97.5 28.48 90 21.11 97.5 13.75 90 6.39 97.5 0 90.99 0 98.49 6.39 105 13.75 97.5 21.11 105 28.48 97.5 35.84 105 43.2 97.5 50.56 105 57.92 97.5 65.28 105 72.64 97.5 80 105 87.36 97.5 94.72 105 102.08 97.5 109.44 105 116.8 97.5 124.16 105 131.52 97.5 138.89 105 146.25 97.5 153.61 105 160 98.49 160 90.99 153.61 97.5"/><polygon class="cls-3" points="153.61 262.5 146.25 255 138.89 262.5 131.52 255 124.16 262.5 116.8 255 109.44 262.5 102.08 255 94.72 262.5 87.36 255 80 262.5 72.64 255 65.28 262.5 57.92 255 50.56 262.5 43.2 255 35.84 262.5 28.48 255 21.11 262.5 13.75 255 6.39 262.5 0 255.99 0 263.49 6.39 270 13.75 262.5 21.11 270 28.48 262.5 35.84 270 43.2 262.5 50.56 270 57.92 262.5 65.28 270 72.64 262.5 80 270 87.36 262.5 94.72 270 102.08 262.5 109.44 270 116.8 262.5 124.16 270 131.52 262.5 138.89 270 146.25 262.5 153.61 270 160 263.49 160 255.99 153.61 262.5"/><polygon class="cls-3" points="13.75 577.5 21.11 585 28.48 577.5 35.84 585 43.2 577.5 50.56 585 57.92 577.5 65.28 585 72.64 577.5 80 585 87.36 577.5 94.72 585 102.08 577.5 109.44 585 116.8 577.5 124.16 585 131.52 577.5 138.89 585 146.25 577.5 153.61 585 160 578.49 160 570.99 153.61 577.5 146.25 570 138.89 577.5 131.52 570 124.16 577.5 116.8 570 109.44 577.5 102.08 570 94.72 577.5 87.36 570 80 577.5 72.64 570 65.28 577.5 57.92 570 50.56 577.5 43.2 570 35.84 577.5 28.48 570 21.11 577.5 13.75 570 6.39 577.5 0 570.99 0 578.49 6.39 585 13.75 577.5"/><polygon class="cls-3" points="153.61 202.5 146.25 195 138.89 202.5 131.52 195 124.16 202.5 116.8 195 109.44 202.5 102.08 195 94.72 202.5 87.36 195 80 202.5 72.64 195 65.28 202.5 57.92 195 50.56 202.5 43.2 195 35.84 202.5 28.48 195 21.11 202.5 13.75 195 6.39 202.5 0 195.99 0 203.49 6.39 210 13.75 202.5 21.11 210 28.48 202.5 35.84 210 43.2 202.5 50.56 210 57.92 202.5 65.28 210 72.64 202.5 80 210 87.36 202.5 94.72 210 102.08 202.5 109.44 210 116.8 202.5 124.16 210 131.52 202.5 138.89 210 146.25 202.5 153.61 210 160 203.49 160 195.99 153.61 202.5"/><polygon class="cls-3" points="153.61 217.5 146.25 210 138.89 217.5 131.52 210 124.16 217.5 116.8 210 109.44 217.5 102.08 210 94.72 217.5 87.36 210 80 217.5 72.64 210 65.28 217.5 57.92 210 50.56 217.5 43.2 210 35.84 217.5 28.48 210 21.11 217.5 13.75 210 6.39 217.5 0 210.99 0 218.49 6.39 225 13.75 217.5 21.11 225 28.48 217.5 35.84 225 43.2 217.5 50.56 225 57.92 217.5 65.28 225 72.64 217.5 80 225 87.36 217.5 94.72 225 102.08 217.5 109.44 225 116.8 217.5 124.16 225 131.52 217.5 138.89 225 146.25 217.5 153.61 225 160 218.49 160 210.99 153.61 217.5"/><polygon class="cls-3" points="153.61 232.5 146.25 225 138.89 232.5 131.52 225 124.16 232.5 116.8 225 109.44 232.5 102.08 225 94.72 232.5 87.36 225 80 232.5 72.64 225 65.28 232.5 57.92 225 50.56 232.5 43.2 225 35.84 232.5 28.48 225 21.11 232.5 13.75 225 6.39 232.5 0 225.99 0 233.49 6.39 240 13.75 232.5 21.11 240 28.48 232.5 35.84 240 43.2 232.5 50.56 240 57.92 232.5 65.28 240 72.64 232.5 80 240 87.36 232.5 94.72 240 102.08 232.5 109.44 240 116.8 232.5 124.16 240 131.52 232.5 138.89 240 146.25 232.5 153.61 240 160 233.49 160 225.99 153.61 232.5"/><polygon class="cls-3" points="153.61 247.5 146.25 240 138.89 247.5 131.52 240 124.16 247.5 116.8 240 109.44 247.5 102.08 240 94.72 247.5 87.36 240 80 247.5 72.64 240 65.28 247.5 57.92 240 50.56 247.5 43.2 240 35.84 247.5 28.48 240 21.11 247.5 13.75 240 6.39 247.5 0 240.99 0 248.49 6.39 255 13.75 247.5 21.11 255 28.48 247.5 35.84 255 43.2 247.5 50.56 255 57.92 247.5 65.28 255 72.64 247.5 80 255 87.36 247.5 94.72 255 102.08 247.5 109.44 255 116.8 247.5 124.16 255 131.52 247.5 138.89 255 146.25 247.5 153.61 255 160 248.49 160 240.99 153.61 247.5"/><polygon class="cls-3" points="153.61 142.5 146.25 135 138.89 142.5 131.52 135 124.16 142.5 116.8 135 109.44 142.5 102.08 135 94.72 142.5 87.36 135 80 142.5 72.64 135 65.28 142.5 57.92 135 50.56 142.5 43.2 135 35.84 142.5 28.48 135 21.11 142.5 13.75 135 6.39 142.5 0 135.99 0 143.49 6.39 150 13.75 142.5 21.11 150 28.48 142.5 35.84 150 43.2 142.5 50.56 150 57.92 142.5 65.28 150 72.64 142.5 80 150 87.36 142.5 94.72 150 102.08 142.5 109.44 150 116.8 142.5 124.16 150 131.52 142.5 138.89 150 146.25 142.5 153.61 150 160 143.49 160 135.99 153.61 142.5"/><polygon class="cls-3" points="153.61 112.5 146.25 105 138.89 112.5 131.52 105 124.16 112.5 116.8 105 109.44 112.5 102.08 105 94.72 112.5 87.36 105 80 112.5 72.64 105 65.28 112.5 57.92 105 50.56 112.5 43.2 105 35.84 112.5 28.48 105 21.11 112.5 13.75 105 6.39 112.5 0 105.99 0 113.49 6.39 120 13.75 112.5 21.11 120 28.48 112.5 35.84 120 43.2 112.5 50.56 120 57.92 112.5 65.28 120 72.64 112.5 80 120 87.36 112.5 94.72 120 102.08 112.5 109.44 120 116.8 112.5 124.16 120 131.52 112.5 138.89 120 146.25 112.5 153.61 120 160 113.49 160 105.99 153.61 112.5"/><polygon class="cls-3" points="153.61 127.5 146.25 120 138.89 127.5 131.52 120 124.16 127.5 116.8 120 109.44 127.5 102.08 120 94.72 127.5 87.36 120 80 127.5 72.64 120 65.28 127.5 57.92 120 50.56 127.5 43.2 120 35.84 127.5 28.48 120 21.11 127.5 13.75 120 6.39 127.5 0 120.99 0 128.49 6.39 135 13.75 127.5 21.11 135 28.48 127.5 35.84 135 43.2 127.5 50.56 135 57.92 127.5 65.28 135 72.64 127.5 80 135 87.36 127.5 94.72 135 102.08 127.5 109.44 135 116.8 127.5 124.16 135 131.52 127.5 138.89 135 146.25 127.5 153.61 135 160 128.49 160 120.99 153.61 127.5"/><polygon class="cls-3" points="153.61 157.5 146.25 150 138.89 157.5 131.52 150 124.16 157.5 116.8 150 109.44 157.5 102.08 150 94.72 157.5 87.36 150 80 157.5 72.64 150 65.28 157.5 57.92 150 50.56 157.5 43.2 150 35.84 157.5 28.48 150 21.11 157.5 13.75 150 6.39 157.5 0 150.99 0 158.49 6.39 165 13.75 157.5 21.11 165 28.48 157.5 35.84 165 43.2 157.5 50.56 165 57.92 157.5 65.28 165 72.64 157.5 80 165 87.36 157.5 94.72 165 102.08 157.5 109.44 165 116.8 157.5 124.16 165 131.52 157.5 138.89 165 146.25 157.5 153.61 165 160 158.49 160 150.99 153.61 157.5"/><polygon class="cls-3" points="153.61 187.5 146.25 180 138.89 187.5 131.52 180 124.16 187.5 116.8 180 109.44 187.5 102.08 180 94.72 187.5 87.36 180 80 187.5 72.64 180 65.28 187.5 57.92 180 50.56 187.5 43.2 180 35.84 187.5 28.48 180 21.11 187.5 13.75 180 6.39 187.5 0 180.99 0 188.49 6.39 195 13.75 187.5 21.11 195 28.48 187.5 35.84 195 43.2 187.5 50.56 195 57.92 187.5 65.28 195 72.64 187.5 80 195 87.36 187.5 94.72 195 102.08 187.5 109.44 195 116.8 187.5 124.16 195 131.52 187.5 138.89 195 146.25 187.5 153.61 195 160 188.49 160 180.99 153.61 187.5"/></g><path class="cls-4" d="M32.76,240.49,28.23,245a.42.42,0,0,1-.34.13v2.91a.35.35,0,0,0,.23-.12l4.59-4.58a.48.48,0,0,1,.33-.13v-2.86a.39.39,0,0,0-.28.12"/><path class="cls-4" d="M39,247.18H32.6a.44.44,0,0,1-.32-.15l-2.14,2a.42.42,0,0,0,.33.16H37a.4.4,0,0,1,.3.13l2.06-2a.45.45,0,0,0-.3-.12"/><path class="cls-4" d="M38.72,256.34l-4.54-4.55a.41.41,0,0,1-.12-.39H31.14a.42.42,0,0,0,.12.3l4.59,4.59a.42.42,0,0,1,.12.3h2.87a.37.37,0,0,0-.12-.25"/><path class="cls-4" d="M30,254v6.49a.42.42,0,0,1-.14.32l2,2a.49.49,0,0,0,.11-.29v-6.41a.45.45,0,0,1,.1-.28l-2-2.16a.43.43,0,0,0-.13.3"/><path class="cls-4" d="M27.51,254.84l-4.59,4.58a.45.45,0,0,1-.28.13v2.86a.46.46,0,0,0,.23-.12l4.54-4.54a.47.47,0,0,1,.32-.12v-2.91a.35.35,0,0,0-.22.12"/><path class="cls-4" d="M25.17,253.61H18.68a.41.41,0,0,1-.32-.15l-2,2a.39.39,0,0,0,.28.11H23a.42.42,0,0,1,.3.13l2.12-2a.43.43,0,0,0-.28-.11"/><path class="cls-4" d="M24.49,251.35a.39.39,0,0,0-.12-.26l-4.59-4.6a.42.42,0,0,1-.09-.45H16.81a.42.42,0,0,0,.11.41L21.45,251a.43.43,0,0,1,.12.37h2.92"/><path class="cls-4" d="M25.6,248.74v-6.49a.41.41,0,0,1,.15-.32l-2-2a.44.44,0,0,0-.11.3v6.41a.49.49,0,0,1-.11.29l2,2.13a.43.43,0,0,0,.11-.28"/><path class="cls-5" d="M27.62,245l-.78-.78c-.16-.16-.3-.11-.3.13v2.16a1.19,1.19,0,0,0,.3.72l.68.68a.43.43,0,0,0,.37.12v-2.91a.47.47,0,0,1-.27-.12"/><path class="cls-5" d="M32.18,246.75v-1.1c0-.24-.14-.29-.3-.13l-1.54,1.53a1.25,1.25,0,0,0-.3.73v1a.41.41,0,0,0,.1.27l2.14-2a.43.43,0,0,1-.1-.28"/><path class="cls-5" d="M34.18,251.19l.78-.78c.16-.16.11-.3-.13-.3H32.67a1.22,1.22,0,0,0-.73.3l-.68.68a.42.42,0,0,0-.12.31h2.92a.5.5,0,0,1,.12-.21"/><path class="cls-5" d="M33.68,255.45l-1.53-1.53a1.14,1.14,0,0,0-.73-.3h-1a.41.41,0,0,0-.3.12l2,2.16a.42.42,0,0,1,.32-.15h1.1c.24,0,.29-.13.13-.3"/><path class="cls-5" d="M28.79,255.51l-.68-.67a.4.4,0,0,0-.38-.12v2.91a.38.38,0,0,1,.28.12l.78.78c.17.17.3.11.3-.13v-2.16a1.19,1.19,0,0,0-.3-.73"/><path class="cls-5" d="M25.45,253.72l-2.12,2a.42.42,0,0,1,.13.3v1.1c0,.23.13.29.3.12l1.53-1.53a1.14,1.14,0,0,0,.3-.73v-1a.45.45,0,0,0-.14-.32"/><path class="cls-5" d="M21.57,251.35a.35.35,0,0,1-.12.23l-.77.78c-.17.17-.11.31.12.31H23a1.15,1.15,0,0,0,.72-.31l.68-.67a.44.44,0,0,0,.12-.34H21.57"/><path class="cls-5" d="M23.5,246.89a.43.43,0,0,1-.32.14h-1.1c-.24,0-.29.14-.13.3l1.53,1.53a1.25,1.25,0,0,0,.73.3h1a.45.45,0,0,0,.32-.14l-2-2.13"/><path class="cls-6" d="M38.3,245.42l-4.94-4.93a.38.38,0,0,0-.32-.12v2.86a.45.45,0,0,1,.28.13l2.06,2.07a1.22,1.22,0,0,0,.73.3h2.06c.24,0,.29-.13.13-.3"/><path class="cls-6" d="M39.32,247.3l-2.06,2a.41.41,0,0,1,.12.3v2.92a1.13,1.13,0,0,0,.31.72l1.45,1.4c.17.17.31.11.31-.13v-6.9a.44.44,0,0,0-.13-.31"/><path class="cls-6" d="M36,256.59a.42.42,0,0,1-.12.3L33.79,259a1.2,1.2,0,0,0-.31.73v2.07c0,.24.13.29.3.13l4.94-4.94a.47.47,0,0,0,.12-.35H36"/><path class="cls-6" d="M29.61,261H26.69a1.16,1.16,0,0,0-.73.3l-1.4,1.45c-.16.17-.1.31.13.31H31.6a.45.45,0,0,0,.32-.14l-2-2a.46.46,0,0,1-.28.11"/><path class="cls-6" d="M22.32,259.42l-2.07-2.07a1.2,1.2,0,0,0-.73-.3H17.44c-.23,0-.29.13-.12.3l4.95,5a.43.43,0,0,0,.37.12v-2.86a.44.44,0,0,1-.32-.13"/><path class="cls-6" d="M18.25,253.18v-2.92a1.17,1.17,0,0,0-.31-.73l-1.45-1.39c-.17-.17-.3-.11-.3.12v6.92a.41.41,0,0,0,.14.31l2-2a.39.39,0,0,1-.11-.28"/><path class="cls-6" d="M19.78,245.89l2.07-2.07a1.13,1.13,0,0,0,.29-.72l0-2c0-.23-.14-.29-.31-.12l-4.88,4.88a.37.37,0,0,0-.11.2h2.88a.46.46,0,0,1,.09-.15"/><path class="cls-6" d="M30.94,239.76H24a.44.44,0,0,0-.31.13l2,2a.41.41,0,0,1,.28-.11H29a1.14,1.14,0,0,0,.72-.3l1.4-1.45c.16-.17.11-.31-.13-.31"/><path class="cls-6" d="M38.44,261a1,1,0,1,1,0,2,1,1,0,1,1,0-2h0m0,.23a.77.77,0,1,0,.74.77.75.75,0,0,0-.74-.77Zm-.13,1.26H38v-.95a1.75,1.75,0,0,1,.4,0,.52.52,0,0,1,.35.08.21.21,0,0,1,.1.2.24.24,0,0,1-.2.22v0c.1,0,.15.11.18.24a2,2,0,0,0,.06.23h-.28a.56.56,0,0,1-.07-.22.15.15,0,0,0-.18-.14h-.09Zm0-.54h.1c.11,0,.19-.05.19-.13s0-.14-.18-.14h-.11Z"/><path class="cls-3" d="M50.15,254.58a3.84,3.84,0,0,1,0-7.68,5.46,5.46,0,0,1,2.21.43l.56-2.08a6.93,6.93,0,0,0-2.87-.52c-3.52,0-6.35,2.2-6.35,6.18,0,3.34,2.07,5.87,6.09,5.87a7.54,7.54,0,0,0,3-.51l-.38-2.07a6.4,6.4,0,0,1-2.21.38"/><path class="cls-3" d="M57.46,247.93a4.22,4.22,0,0,0-4.52,4.49,4.13,4.13,0,0,0,4.36,4.35h0a4.23,4.23,0,0,0,4.44-4.49,4.12,4.12,0,0,0-4.3-4.35m-.1,6.95h0c-1.11,0-1.71-1.08-1.71-2.52,0-1.26.48-2.54,1.73-2.54S59,251.1,59,252.35C59,253.87,58.39,254.88,57.36,254.88Z"/><path class="cls-3" d="M82.74,247.93a3.17,3.17,0,0,0-1.6.42,3.63,3.63,0,0,0-1.11,1h0a2.39,2.39,0,0,0-2.32-1.46,2.92,2.92,0,0,0-2.55,1.35l-.16.19a2.56,2.56,0,0,0-2.44-1.54,3.17,3.17,0,0,0-1.6.42,3.63,3.63,0,0,0-1.11,1h0a2.39,2.39,0,0,0-2.32-1.46,2.92,2.92,0,0,0-2.55,1.35h0l-.11-1.16H62.54c0,.77.06,1.65.06,2.7v5.76h2.56v-4.91a1.69,1.69,0,0,1,.11-.67,1.33,1.33,0,0,1,1.22-.94c.85,0,1.23.73,1.23,1.78v4.74h2.55v-4.94a2.84,2.84,0,0,1,.09-.66,1.31,1.31,0,0,1,1.22-.92c.79,0,1.18.62,1.23,1.68v4.84h2.57v-5.12a1.4,1.4,0,0,1,.1-.46,1.33,1.33,0,0,1,1.22-.94c.85,0,1.22.73,1.22,1.78v4.74h2.56v-4.94a2.84,2.84,0,0,1,.09-.66,1.31,1.31,0,0,1,1.22-.92c.85,0,1.25.71,1.25,1.94v4.58h2.55v-5c0-2.52-1.22-3.67-2.85-3.67"/><path class="cls-3" d="M94.52,248.12H91.89v5a1.45,1.45,0,0,1-1.41,1.49c-.94,0-1.33-.75-1.33-2v-4.56H86.52v5c0,2.61,1.25,3.68,3,3.68a3,3,0,0,0,2.65-1.38h0l.12,1.19h2.28c0-.71-.07-1.6-.07-2.71v-5.75"/><path class="cls-3" d="M100.59,247.93A3,3,0,0,0,98,249.3h0l-.12-1.18H95.53c0,.77.07,1.65.07,2.7v5.76h2.62V251.7a1.82,1.82,0,0,1,.09-.65,1.44,1.44,0,0,1,1.35-1c1,0,1.33.75,1.33,1.84v4.68h2.62v-5c0-2.49-1.29-3.65-3-3.65"/><path class="cls-3" d="M106,244.22a1.4,1.4,0,1,0,0,2.8h0a1.4,1.4,0,1,0,0-2.8"/><path class="cls-3" d="M120.05,248.12l-1,4.16c-.13.48-.26,1.12-.38,1.57h0c-.11-.45-.28-1.07-.42-1.57l-1.26-4.16H112v-2.29l-2.57.7v1.59h-4.72v8.46h2.62v-6.52h2.1v3.48a3.49,3.49,0,0,0,.72,2.5,2.81,2.81,0,0,0,2,.73,5.5,5.5,0,0,0,1.69-.22v-2a3.4,3.4,0,0,1-.78.07c-.78,0-1-.47-1-1.49v-3.08h2.8l2.33,5.79a1.26,1.26,0,0,1,.1.44.78.78,0,0,1-.13.38,3,3,0,0,1-1.09,1.05,3.78,3.78,0,0,1-1.14.45l.55,2.22a4.67,4.67,0,0,0,2.54-1.16c.95-.85,1.76-2.18,3-5.54l2-5.57h-2.82"/><polyline class="cls-3" points="64.15 262.23 64.15 265.61 67.72 265.61 67.72 262.23 69.27 262.23 69.27 270.68 67.72 270.68 67.72 266.95 64.15 266.95 64.15 270.68 62.6 270.68 62.6 262.23 64.15 262.23"/><path class="cls-3" d="M71.79,268.06a1.66,1.66,0,0,0,1.88,1.58,4.91,4.91,0,0,0,1.69-.28l.23,1.06a5.62,5.62,0,0,1-2.13.39,2.89,2.89,0,0,1-3.15-3.09,3,3,0,0,1,3-3.29c2,0,2.64,1.63,2.64,3a4.54,4.54,0,0,1-.05.66H71.79M74.47,267a1.31,1.31,0,0,0-1.26-1.49A1.5,1.5,0,0,0,71.79,267Z"/><path class="cls-3" d="M81.68,269.21a8.85,8.85,0,0,0,.1,1.47H80.39l-.11-.68h0a2.22,2.22,0,0,1-1.81.82A1.82,1.82,0,0,1,76.51,269c0-1.53,1.37-2.32,3.63-2.31v-.1c0-.4-.16-1.06-1.24-1.06a3.22,3.22,0,0,0-1.65.45l-.3-1a4.52,4.52,0,0,1,2.21-.54A2.29,2.29,0,0,1,81.68,267v2.19m-1.5-1.52c-1.09,0-2.13.22-2.13,1.15a.8.8,0,0,0,.87.87,1.27,1.27,0,0,0,1.22-.84.93.93,0,0,0,0-.33Z"/><rect class="cls-3" x="83.06" y="261.77" width="1.55" height="8.91"/><path class="cls-3" d="M87.8,263v1.57h1.47v1.16H87.8v2.69c0,.76.2,1.13.79,1.13a2.09,2.09,0,0,0,.61-.06l0,1.17a3.66,3.66,0,0,1-1.12.16,1.75,1.75,0,0,1-1.32-.5,2.38,2.38,0,0,1-.5-1.72v-2.87h-.86v-1.16h.86v-1.14L87.8,263"/><path class="cls-3" d="M90.19,261.77h1.54v3.63h0a2,2,0,0,1,.77-.69,2.13,2.13,0,0,1,1.07-.28c1,0,2.13.69,2.13,2.65v3.6H94.17v-3.44c0-.87-.32-1.55-1.17-1.55a1.29,1.29,0,0,0-1.21.86,1.41,1.41,0,0,0-.06.47v3.66H90.19v-8.91"/><path class="cls-3" d="M99.5,270.68v-8.45h1.77l2.19,3.62a25.3,25.3,0,0,1,1.44,2.84h0c-.11-1.13-.13-2.22-.13-3.52v-2.94h1.43v8.45h-1.61L102.4,267a26.71,26.71,0,0,1-1.5-2.91l-.05,0c.06,1.09.08,2.2.08,3.6v3H99.5"/><path class="cls-3" d="M108.77,268.06c0,1.1.89,1.58,1.89,1.58a5,5,0,0,0,1.69-.28l.23,1.06a5.64,5.64,0,0,1-2.14.39,2.89,2.89,0,0,1-3.15-3.09,3,3,0,0,1,3-3.29c2,0,2.63,1.63,2.63,3a3.45,3.45,0,0,1,0,.66h-4.09m2.69-1.08a1.32,1.32,0,0,0-1.27-1.49,1.52,1.52,0,0,0-1.42,1.49Z"/><path class="cls-3" d="M115.67,263v1.57h1.47v1.16h-1.47v2.69c0,.76.2,1.13.79,1.13a2,2,0,0,0,.6-.06l0,1.17a3.66,3.66,0,0,1-1.12.16,1.79,1.79,0,0,1-1.33-.5,2.42,2.42,0,0,1-.49-1.72v-2.87h-.86v-1.16h.86v-1.14l1.52-.43"/><path class="cls-3" d="M119.07,264.57l.63,2.77c.15.66.29,1.32.4,2h0c.13-.67.33-1.34.49-2l.81-2.79h1.25l.77,2.71c.18.72.35,1.38.49,2.05h0c.09-.67.24-1.33.4-2.05l.68-2.71h1.52l-1.92,6.11H123.2l-.73-2.48a16.63,16.63,0,0,1-.46-2h0c-.14.75-.29,1.35-.46,2l-.78,2.48H119.3l-1.81-6.11h1.58"/><path class="cls-3" d="M132.93,267.57a3,3,0,0,1-3.13,3.25,3,3,0,0,1-3.07-3.15,3,3,0,0,1,3.16-3.24,2.94,2.94,0,0,1,3,3.14m-4.6.06c0,1.18.59,2.07,1.52,2.07s1.49-.85,1.49-2.09c0-1-.43-2.06-1.48-2.06S128.33,266.62,128.33,267.63Z"/><path class="cls-3" d="M133.89,266.54c0-.83,0-1.43,0-2h1.33l.06,1.16h0a1.83,1.83,0,0,1,1.68-1.3,2.1,2.1,0,0,1,.37,0v1.44a3.18,3.18,0,0,0-.47,0,1.36,1.36,0,0,0-1.38,1.16,3.3,3.3,0,0,0,0,.47v3.17h-1.54v-4.14"/><path class="cls-3" d="M139.65,267.26h0c.15-.24.33-.51.48-.72l1.49-2h1.86l-2.27,2.5,2.58,3.61h-1.89L140.16,268l-.51.61v2.08h-1.54v-8.91h1.54v5.49"/><path class="cls-6" d="M53.84,329.15H51.48v-1.67h6.74v1.67h-2.4v7.1h-2Z"/><path class="cls-6" d="M60.37,334l-.62,2.25h-2l2.68-8.77H63l2.73,8.77H63.56L62.89,334Zm2.23-1.48-.55-1.86c-.15-.52-.31-1.18-.44-1.69h0c-.13.52-.26,1.18-.4,1.69l-.52,1.86Z"/><path class="cls-6" d="M66.87,327.48h2v3.88h0c.19-.33.4-.65.6-1l2-2.92h2.44L71,331.21l3.05,5H71.73l-2.15-3.78-.75.91v2.87h-2Z"/><path class="cls-6" d="M80.06,332.54H76.84v2.08h3.6v1.63H74.85v-8.77h5.4v1.63H76.84v1.82h3.22Z"/><path class="cls-6" d="M85.61,329.15H83.25v-1.67H90v1.67h-2.4v7.1h-2Z"/><path class="cls-6" d="M93,327.48v3.37h3.26v-3.37h2v8.77h-2v-3.67H93v3.67H91v-8.77Z"/><path class="cls-6" d="M105.21,332.54H102v2.08h3.6v1.63H100v-8.77h5.4v1.63H102v1.82h3.22Z"/><path class="cls-6" d="M26.52,343.09h5.35v1.62H28.5v2h3.15v1.61H28.5v3.52h-2Z"/><path class="cls-6" d="M33.37,343.21A16.45,16.45,0,0,1,36,343a4.53,4.53,0,0,1,2.84.69,2.25,2.25,0,0,1,.81,1.84,2.33,2.33,0,0,1-1.55,2.16v0a2.17,2.17,0,0,1,1.17,1.63c.28,1,.54,2.13.71,2.47H38a11.6,11.6,0,0,1-.6-2c-.24-1.1-.61-1.39-1.43-1.4h-.59v3.44h-2Zm2,3.77h.78c1,0,1.57-.5,1.57-1.27s-.55-1.21-1.45-1.21a4.77,4.77,0,0,0-.9.06Z"/><path class="cls-6" d="M46.29,348.14H43.06v2.09h3.61v1.62H41.08v-8.76h5.4v1.62H43.06v1.83h3.23Z"/><path class="cls-6" d="M53.23,348.14H50v2.09h3.6v1.62H48v-8.76h5.4v1.62H50v1.83h3.22Z"/><path class="cls-6" d="M59.63,349.6,59,351.85H57l2.68-8.76h2.59L65,351.85H62.82l-.67-2.25Zm2.22-1.47-.54-1.87c-.15-.51-.31-1.17-.44-1.68h0c-.13.51-.26,1.18-.4,1.69l-.52,1.86Z"/><path class="cls-6" d="M66.19,349.81a4.94,4.94,0,0,0,2.2.55c.91,0,1.39-.38,1.39-1s-.42-.85-1.47-1.22c-1.46-.52-2.41-1.32-2.41-2.6,0-1.49,1.25-2.63,3.31-2.63a5.26,5.26,0,0,1,2.24.44L71,345a4.32,4.32,0,0,0-1.83-.41c-.86,0-1.27.4-1.27.84s.48.81,1.62,1.24c1.55.58,2.27,1.38,2.27,2.62,0,1.46-1.12,2.72-3.53,2.72a5.59,5.59,0,0,1-2.48-.55Z"/><path class="cls-6" d="M73.22,349.81a4.86,4.86,0,0,0,2.19.55c.91,0,1.39-.38,1.39-1s-.41-.85-1.46-1.22c-1.46-.52-2.42-1.32-2.42-2.6,0-1.49,1.25-2.63,3.31-2.63a5.22,5.22,0,0,1,2.24.44L78,345a4.23,4.23,0,0,0-1.82-.41c-.87,0-1.28.4-1.28.84s.49.81,1.62,1.24c1.55.58,2.27,1.38,2.27,2.62,0,1.46-1.12,2.72-3.53,2.72a5.54,5.54,0,0,1-2.47-.55Z"/><path class="cls-6" d="M85.38,348.14H82.15v2.09h3.61v1.62H80.17v-8.76h5.4v1.62H82.15v1.83h3.23Z"/><path class="cls-6" d="M87.18,349.81a4.94,4.94,0,0,0,2.2.55c.91,0,1.39-.38,1.39-1s-.42-.85-1.47-1.22c-1.46-.52-2.41-1.32-2.41-2.6,0-1.49,1.25-2.63,3.31-2.63a5.26,5.26,0,0,1,2.24.44L92,345a4.32,4.32,0,0,0-1.83-.41c-.86,0-1.27.4-1.27.84s.48.81,1.62,1.24c1.55.58,2.27,1.38,2.27,2.62,0,1.46-1.12,2.72-3.53,2.72a5.59,5.59,0,0,1-2.48-.55Z"/><path class="cls-6" d="M94.2,349.81a4.94,4.94,0,0,0,2.2.55c.91,0,1.39-.38,1.39-1s-.41-.85-1.46-1.22c-1.47-.52-2.42-1.32-2.42-2.6,0-1.49,1.25-2.63,3.31-2.63a5.26,5.26,0,0,1,2.24.44L99,345a4.28,4.28,0,0,0-1.83-.41c-.86,0-1.27.4-1.27.84s.48.81,1.62,1.24c1.55.58,2.27,1.38,2.27,2.62,0,1.46-1.12,2.72-3.53,2.72a5.62,5.62,0,0,1-2.48-.55Z"/><path class="cls-6" d="M108.57,348.5c0-1.06-.08-2.33-.08-3.61h0c-.28,1.12-.65,2.37-1,3.4l-1.08,3.42h-1.53l-1-3.39c-.28-1-.57-2.27-.79-3.43h0c0,1.19-.09,2.54-.14,3.64l-.17,3.32H101l.56-8.76h2.64L105,346c.28,1,.55,2.1.74,3.13h0c.24-1,.54-2.17.84-3.15l.93-2.91h2.59l.47,8.76H108.7Z"/><path class="cls-6" d="M117.37,348.14h-3.23v2.09h3.61v1.62h-5.59v-8.76h5.4v1.62h-3.42v1.83h3.23Z"/><path class="cls-6" d="M119.11,351.85v-8.76h2.31l1.81,3.21a25.19,25.19,0,0,1,1.44,3h0a35,35,0,0,1-.16-3.66v-2.55h1.82v8.76h-2.08l-1.87-3.37a31.87,31.87,0,0,1-1.53-3.1h0c.06,1.16.09,2.4.09,3.83v2.63Z"/><path class="cls-6" d="M129.77,344.75h-2.36v-1.66h6.74v1.66h-2.4v7.1h-2Z"/><rect class="cls-7" x="21.89" y="320.22" width="116.21" height="40.02" rx="2.7"/></svg>