<svg id="Layer_1" data-name="Layer 1" xmlns="http://www.w3.org/2000/svg" viewBox="0 0 160 600"><defs><style>.cls-1{fill:#f1b533;}.cls-2{fill:#fff;}</style></defs><path class="cls-1" d="M16.06,373.77v-1.14l1.36-.23v-9.89l-1.33-.26v-1.11h5.37v1.11l-1.42.26v4.15h5v-4.15l-1.35-.26v-1.11H29v1.11l-1.33.26v9.9l1.33.22v1.14H23.67v-1.14L25,372.4V368H20v4.42l1.42.23v1.14Z"/><path class="cls-1" d="M34.73,374a5.08,5.08,0,0,1-2-.36,3.89,3.89,0,0,1-1.39-1,4.28,4.28,0,0,1-.8-1.56,7.23,7.23,0,0,1-.25-2A6.1,6.1,0,0,1,30.6,367a4.41,4.41,0,0,1,.93-1.56,4.08,4.08,0,0,1,1.43-1,5,5,0,0,1,1.86-.34q3.45,0,3.6,3.36c0,.39,0,.73,0,1a4.94,4.94,0,0,1-.08.77H32.91a4.7,4.7,0,0,0,.24,1.41,2.64,2.64,0,0,0,.52.94,1.84,1.84,0,0,0,.77.53,2.54,2.54,0,0,0,1,.17,3.87,3.87,0,0,0,.79-.07,5.68,5.68,0,0,0,.68-.16,3.63,3.63,0,0,0,.56-.23,3.49,3.49,0,0,0,.44-.24l.43,1a3.45,3.45,0,0,1-.58.45,5.46,5.46,0,0,1-.84.44,7.31,7.31,0,0,1-1,.33A4.78,4.78,0,0,1,34.73,374Zm-.22-8.76a1.46,1.46,0,0,0-.6.11,1.13,1.13,0,0,0-.49.44,3,3,0,0,0-.35.9,7.86,7.86,0,0,0-.17,1.49h3V368a.86.86,0,0,0,0-.16c0-.06,0-.11,0-.16v-.11a6.33,6.33,0,0,0-.06-.86,2.48,2.48,0,0,0-.22-.77,1.41,1.41,0,0,0-.42-.56A1.09,1.09,0,0,0,34.51,365.2Z"/><path class="cls-1" d="M39.56,371.25a2.5,2.5,0,0,1,.22-1.09,2.45,2.45,0,0,1,.6-.83,3.71,3.71,0,0,1,.91-.61,7.53,7.53,0,0,1,1.13-.41,7.2,7.2,0,0,1,1.26-.23c.44-.05.88-.08,1.31-.1v-.39a1.94,1.94,0,0,0-.38-1.35,1.7,1.7,0,0,0-1.27-.41,6.82,6.82,0,0,0-.9.07q-.45.08-.87.18c-.27.07-.53.15-.77.23l-.6.25h0l-.49-1.12a5.63,5.63,0,0,1,.58-.37,7.42,7.42,0,0,1,1-.44,9.92,9.92,0,0,1,1.29-.37A6.32,6.32,0,0,1,44,364.1a5.38,5.38,0,0,1,1.56.2A2.3,2.3,0,0,1,47.23,366a5.58,5.58,0,0,1,.19,1.5v5.18h1v1l-.39.09-.52.1-.6.08c-.22,0-.44,0-.67,0l-.51,0a.8.8,0,0,1-.34-.12.51.51,0,0,1-.19-.26,1.5,1.5,0,0,1,0-.46v-.48q-.15.18-.39.42a3.84,3.84,0,0,1-.61.44,3.44,3.44,0,0,1-.8.34,3.12,3.12,0,0,1-1,.14,3.57,3.57,0,0,1-1.1-.16,2.46,2.46,0,0,1-.9-.49,2.28,2.28,0,0,1-.61-.84A3.06,3.06,0,0,1,39.56,371.25Zm3.94,1.11a2.38,2.38,0,0,0,.34,0l.4-.12a2.87,2.87,0,0,0,.4-.18,1.93,1.93,0,0,0,.35-.23V369a5.24,5.24,0,0,0-1.35.15,2.37,2.37,0,0,0-.86.4,1.31,1.31,0,0,0-.46.57,1.61,1.61,0,0,0-.14.69,1.68,1.68,0,0,0,.33,1.12A1.25,1.25,0,0,0,43.5,372.36Z"/><path class="cls-1" d="M49.2,373.77v-1.11l1.21-.17V361.41l-1.24-.21v-1l3.24-.41h0l.52.39v12.28l1.25.17v1.11Z"/><path class="cls-1" d="M56.24,371.78v-6.11H55.07v-.95l.21-.07.3-.11.28-.11.16-.08a2.7,2.7,0,0,0,.59-.8l.18-.38c.07-.15.13-.3.19-.46s.13-.33.18-.48.1-.3.14-.43h1.48l0,2.46h2.44v1.41H58.81v4.6c0,.44,0,.79,0,1.05a1.66,1.66,0,0,0,.1.59.42.42,0,0,0,.24.26,1.38,1.38,0,0,0,.46.06h0a3,3,0,0,0,.41,0l.44-.08.39-.1.29-.09h0l.39,1a4.64,4.64,0,0,1-.61.38,6.63,6.63,0,0,1-.8.35,7.68,7.68,0,0,1-.92.25,5.31,5.31,0,0,1-1,.09h0a2.76,2.76,0,0,1-.93-.14,1.4,1.4,0,0,1-.63-.42,1.79,1.79,0,0,1-.34-.69A3.71,3.71,0,0,1,56.24,371.78Z"/><path class="cls-1" d="M62.26,373.77v-1.11l1-.17V361.41L62,361.2v-1l3.23-.41h0l.51.39,0,3.91-.14,1.32c.15-.13.34-.28.56-.44a6,6,0,0,1,.76-.42,6.36,6.36,0,0,1,.93-.33,4.59,4.59,0,0,1,1.06-.13,3.43,3.43,0,0,1,1.34.23,1.87,1.87,0,0,1,.85.69,3.29,3.29,0,0,1,.44,1.17,10.25,10.25,0,0,1,.12,1.68v4.6l1.17.17v1.11H68.28v-1.08l.92-.18v-4.64a7.1,7.1,0,0,0-.06-1,1.81,1.81,0,0,0-.22-.69,1,1,0,0,0-.45-.39,1.7,1.7,0,0,0-.73-.13,2.46,2.46,0,0,0-.53.06,2.94,2.94,0,0,0-.53.14c-.17.06-.33.13-.48.2a2.39,2.39,0,0,0-.37.23v6.19l1.13.17v1.11Z"/><path class="cls-1" d="M75.92,378h-.36l-.39,0-.35,0-.22,0v-2a2.35,2.35,0,0,0,.5.14,4.27,4.27,0,0,0,.86.08,2.8,2.8,0,0,0,.55-.06,1.53,1.53,0,0,0,.61-.29,3.11,3.11,0,0,0,.64-.69,6.67,6.67,0,0,0,.63-1.26h-1.5l-3-8.22-.75-.23v-1.06H78v1.05l-1.26.24,1.59,4.92.64,2.26.57-2.26,1.26-4.92-1.08-.24v-1.05h3.67v1.06l-.76.23-.51,1.63c-.18.59-.36,1.18-.55,1.77s-.36,1.17-.54,1.74-.33,1.08-.48,1.54-.27.86-.38,1.19a6.1,6.1,0,0,1-.23.66A8.44,8.44,0,0,1,78.24,377,3.08,3.08,0,0,1,75.92,378Z"/><path class="cls-1" d="M89.34,373.77v-1.11l1-.17V361.41l-1.24-.21v-1l3.23-.41h0l.51.39v3.91l-.13,1.32c.15-.13.34-.28.56-.44a5.4,5.4,0,0,1,.76-.42,5.62,5.62,0,0,1,.93-.33,4.44,4.44,0,0,1,1-.13,3.48,3.48,0,0,1,1.35.23,1.89,1.89,0,0,1,.84.69,3.11,3.11,0,0,1,.44,1.17,9.17,9.17,0,0,1,.13,1.68v4.6l1.17.17v1.11H95.36v-1.08l.92-.18v-4.64a7.1,7.1,0,0,0-.06-1,1.65,1.65,0,0,0-.22-.69.88.88,0,0,0-.44-.39,1.75,1.75,0,0,0-.74-.13,2.46,2.46,0,0,0-.53.06,3.18,3.18,0,0,0-.53.14,5.11,5.11,0,0,0-.47.2,2.53,2.53,0,0,0-.38.23v6.19l1.14.17v1.11Z"/><path class="cls-1" d="M105.35,374a5.17,5.17,0,0,1-2-.36,3.77,3.77,0,0,1-1.38-1,4.28,4.28,0,0,1-.8-1.56,7.22,7.22,0,0,1-.26-2,6.09,6.09,0,0,1,.33-2.08,4.39,4.39,0,0,1,.92-1.56,4,4,0,0,1,1.44-1,5,5,0,0,1,1.86-.34c2.3,0,3.49,1.12,3.59,3.36,0,.39,0,.73,0,1a4.8,4.8,0,0,1-.09.77h-5.42a5.43,5.43,0,0,0,.24,1.41,2.66,2.66,0,0,0,.53.94,1.81,1.81,0,0,0,.76.53,2.59,2.59,0,0,0,1,.17,4,4,0,0,0,.79-.07,5.5,5.5,0,0,0,.67-.16,3.76,3.76,0,0,0,.57-.23,3.31,3.31,0,0,0,.43-.24l.43,1a3.33,3.33,0,0,1-.57.45,6.11,6.11,0,0,1-.85.44,7.31,7.31,0,0,1-1,.33A4.7,4.7,0,0,1,105.35,374Zm-.23-8.76a1.52,1.52,0,0,0-.6.11,1.19,1.19,0,0,0-.49.44,3,3,0,0,0-.35.9,8.78,8.78,0,0,0-.17,1.49h3a.49.49,0,0,1,0-.11v-.16a.92.92,0,0,0,0-.16v-.11a6.33,6.33,0,0,0-.06-.86,2.79,2.79,0,0,0-.21-.77,1.41,1.41,0,0,0-.42-.56A1.1,1.1,0,0,0,105.12,365.2Z"/><path class="cls-1" d="M110.17,371.25a2.5,2.5,0,0,1,.22-1.09,2.63,2.63,0,0,1,.61-.83,3.53,3.53,0,0,1,.91-.61,6.8,6.8,0,0,1,1.13-.41,7.2,7.2,0,0,1,1.26-.23c.43-.05.87-.08,1.31-.1v-.39a1.89,1.89,0,0,0-.39-1.35,1.69,1.69,0,0,0-1.26-.41,6.82,6.82,0,0,0-.9.07q-.47.08-.87.18c-.28.07-.53.15-.77.23a6.49,6.49,0,0,0-.6.25h0l-.49-1.12a6.08,6.08,0,0,1,.59-.37,7.42,7.42,0,0,1,1-.44,9.33,9.33,0,0,1,1.28-.37,6.38,6.38,0,0,1,1.45-.16,5.45,5.45,0,0,1,1.57.2,2.47,2.47,0,0,1,1.05.61,2.55,2.55,0,0,1,.58,1,5.21,5.21,0,0,1,.19,1.5v5.18h1v1l-.39.09c-.15,0-.33.07-.51.1l-.61.08-.66,0-.51,0a.71.71,0,0,1-.34-.12.51.51,0,0,1-.19-.26,1.47,1.47,0,0,1-.06-.46v-.48a3.45,3.45,0,0,1-.39.42,4.24,4.24,0,0,1-.6.44,3.63,3.63,0,0,1-.8.34,3.12,3.12,0,0,1-1,.14,3.57,3.57,0,0,1-1.1-.16,2.43,2.43,0,0,1-.91-.49,2.4,2.4,0,0,1-.61-.84A3.24,3.24,0,0,1,110.17,371.25Zm3.94,1.11a2.23,2.23,0,0,0,.34,0l.4-.12a3,3,0,0,0,.41-.18,2.36,2.36,0,0,0,.35-.23V369a5.13,5.13,0,0,0-1.35.15,2.51,2.51,0,0,0-.87.4,1.39,1.39,0,0,0-.46.57,1.77,1.77,0,0,0-.14.69,1.68,1.68,0,0,0,.34,1.12A1.22,1.22,0,0,0,114.11,372.36Z"/><path class="cls-1" d="M120.07,373.77v-1.11l1.2-.16v-6.39l-1.13-.35v-1.25l2.84-.41h0l.44.36v2h0a4.18,4.18,0,0,1,.36-.67,4.64,4.64,0,0,1,.65-.78,3.92,3.92,0,0,1,.89-.65,2.26,2.26,0,0,1,1.09-.27l.4,0,.22.06V367a1.66,1.66,0,0,0-.47-.14,4.2,4.2,0,0,0-.92-.08,5.63,5.63,0,0,0-.58,0,4.21,4.21,0,0,0-.55.09,2.66,2.66,0,0,0-.45.13,1.38,1.38,0,0,0-.3.15v5.29l2.06.2v1.08Z"/><path class="cls-1" d="M129.1,371.78v-6.11h-1.17v-.95l.22-.07.29-.11.28-.11.16-.08a2.7,2.7,0,0,0,.59-.8c.05-.11.12-.24.18-.38s.13-.3.2-.46l.18-.48.14-.43h1.47l0,2.46h2.44v1.41h-2.44v4.6c0,.44,0,.79,0,1.05a1.92,1.92,0,0,0,.1.59.42.42,0,0,0,.24.26,1.42,1.42,0,0,0,.46.06h0a3.29,3.29,0,0,0,.42,0l.43-.08.39-.1.3-.09h0l.39,1a4.06,4.06,0,0,1-.61.38,6.46,6.46,0,0,1-.79.35,7.86,7.86,0,0,1-.93.25,5.23,5.23,0,0,1-1,.09h0a2.84,2.84,0,0,1-.93-.14,1.32,1.32,0,0,1-.62-.42,1.67,1.67,0,0,1-.35-.69A3.71,3.71,0,0,1,129.1,371.78Z"/><path class="cls-1" d="M135.46,373.24v-2.33H137l.43,1.29a1.23,1.23,0,0,0,.23.22,1.81,1.81,0,0,0,.37.19,2.91,2.91,0,0,0,.47.13,2.6,2.6,0,0,0,.56.06,1.88,1.88,0,0,0,.68-.1,1.24,1.24,0,0,0,.41-.25.83.83,0,0,0,.22-.35,1.31,1.31,0,0,0,.06-.38,1,1,0,0,0-.18-.6,1.8,1.8,0,0,0-.51-.47,6.35,6.35,0,0,0-.79-.41l-1-.43a6.61,6.61,0,0,1-1-.52,3.5,3.5,0,0,1-.77-.64,2.69,2.69,0,0,1-.5-.8,2.78,2.78,0,0,1-.17-1,2.52,2.52,0,0,1,.24-1.09,2.61,2.61,0,0,1,.73-.87,3.57,3.57,0,0,1,1.19-.58,5.93,5.93,0,0,1,1.66-.21,7,7,0,0,1,1,.06c.29.05.55.1.78.16l.64.18.56.15V367l-1.44,0-.39-1.1a1.21,1.21,0,0,0-.44-.37,1.8,1.8,0,0,0-.82-.19,2.25,2.25,0,0,0-.63.08,1.07,1.07,0,0,0-.41.23.93.93,0,0,0-.22.31,1,1,0,0,0-.07.34,1.08,1.08,0,0,0,.23.71,1.82,1.82,0,0,0,.56.47,5.16,5.16,0,0,0,.75.34c.27.1.53.2.77.31s.72.33,1.05.51a4.11,4.11,0,0,1,.88.63,2.73,2.73,0,0,1,.62.82,2.79,2.79,0,0,1,0,2.24,2.56,2.56,0,0,1-.72.9,3.4,3.4,0,0,1-1.19.59,5.66,5.66,0,0,1-1.68.22,7.33,7.33,0,0,1-1.2-.09q-.54-.09-1-.21c-.29-.08-.56-.16-.79-.24A6.27,6.27,0,0,0,135.46,373.24Z"/><path class="cls-2" d="M16.28,395.24v-2.33h1.53l.43,1.29a1.23,1.23,0,0,0,.23.22,2,2,0,0,0,.36.19,2.77,2.77,0,0,0,.48.13,2.53,2.53,0,0,0,.56.06,1.82,1.82,0,0,0,.67-.1,1.2,1.2,0,0,0,.42-.25.83.83,0,0,0,.22-.35,1.31,1.31,0,0,0,.06-.38,1,1,0,0,0-.18-.6,1.8,1.8,0,0,0-.51-.47,6.35,6.35,0,0,0-.79-.41l-1-.43a6.19,6.19,0,0,1-1-.52,3.81,3.81,0,0,1-.78-.64,2.87,2.87,0,0,1-.49-.8,2.57,2.57,0,0,1-.18-1,2.41,2.41,0,0,1,1-2,3.57,3.57,0,0,1,1.19-.58,5.9,5.9,0,0,1,1.65-.21,7.15,7.15,0,0,1,1,.06c.28.05.54.1.78.16l.63.18.57.15V389l-1.45,0-.39-1.1a1.06,1.06,0,0,0-.44-.37,1.77,1.77,0,0,0-.82-.19,2.12,2.12,0,0,0-.62.08,1.07,1.07,0,0,0-.41.23.81.81,0,0,0-.22.31.83.83,0,0,0-.07.34,1.08,1.08,0,0,0,.23.71,1.72,1.72,0,0,0,.56.47,5.16,5.16,0,0,0,.75.34c.27.1.53.2.77.31s.71.33,1,.51a4.38,4.38,0,0,1,.88.63,2.7,2.7,0,0,1,.61.82,2.46,2.46,0,0,1,.23,1.12,2.77,2.77,0,0,1-.23,1.12,2.56,2.56,0,0,1-.72.9,3.49,3.49,0,0,1-1.19.59,5.66,5.66,0,0,1-1.68.22,7.33,7.33,0,0,1-1.2-.09,9.42,9.42,0,0,1-1-.21c-.3-.08-.56-.16-.79-.24S16.45,395.28,16.28,395.24Z"/><path class="cls-2" d="M25.91,393.78v-6.11H24.74v-.95l.21-.07.3-.11.28-.11.15-.08a2.54,2.54,0,0,0,.59-.8l.19-.38c.06-.15.13-.3.19-.46l.18-.48c.06-.16.1-.3.14-.43h1.48l0,2.46h2.44v1.41H28.47v4.6c0,.44,0,.79,0,1.05a2.28,2.28,0,0,0,.1.59.46.46,0,0,0,.25.26,1.36,1.36,0,0,0,.45.06h0a3,3,0,0,0,.42,0l.43-.08a2.74,2.74,0,0,0,.39-.1l.3-.09h0l.39,1a4.64,4.64,0,0,1-.61.38,6.63,6.63,0,0,1-.8.35,8.23,8.23,0,0,1-.92.25,5.33,5.33,0,0,1-1,.09h0a2.86,2.86,0,0,1-.94-.14,1.43,1.43,0,0,1-.62-.42,1.66,1.66,0,0,1-.34-.69A3.3,3.3,0,0,1,25.91,393.78Z"/><path class="cls-2" d="M31.85,393.25a2.48,2.48,0,0,1,.83-1.92,3.71,3.71,0,0,1,.91-.61,7.42,7.42,0,0,1,2.39-.64c.44-.05.87-.08,1.31-.1v-.39a1.89,1.89,0,0,0-.39-1.35,1.67,1.67,0,0,0-1.26-.41,6.82,6.82,0,0,0-.9.07q-.45.08-.87.18c-.28.07-.53.15-.77.23l-.6.25h0L32,387.44a6.08,6.08,0,0,1,.59-.37,7.42,7.42,0,0,1,1-.44,9.33,9.33,0,0,1,1.28-.37,6.41,6.41,0,0,1,1.46-.16,5.43,5.43,0,0,1,1.56.2,2.47,2.47,0,0,1,1,.61,2.57,2.57,0,0,1,.59,1,5.61,5.61,0,0,1,.18,1.5v5.18h1v1l-.39.09a5.13,5.13,0,0,1-.51.1l-.61.08c-.21,0-.44,0-.66,0l-.51,0a.76.76,0,0,1-.34-.12.51.51,0,0,1-.19-.26,1.47,1.47,0,0,1-.06-.46v-.48a3.45,3.45,0,0,1-.39.42,3.33,3.33,0,0,1-.6.44,3.44,3.44,0,0,1-.8.34,3.12,3.12,0,0,1-1,.14,3.57,3.57,0,0,1-1.1-.16,2.31,2.31,0,0,1-.9-.49,2.28,2.28,0,0,1-.61-.84A3.05,3.05,0,0,1,31.85,393.25Zm3.94,1.11a2.5,2.5,0,0,0,.35,0l.39-.12a3,3,0,0,0,.41-.18,2.36,2.36,0,0,0,.35-.23V391a5.13,5.13,0,0,0-1.35.15,2.51,2.51,0,0,0-.87.4,1.39,1.39,0,0,0-.46.57,1.77,1.77,0,0,0-.13.69,1.68,1.68,0,0,0,.33,1.12A1.23,1.23,0,0,0,35.79,394.36Z"/><path class="cls-2" d="M41.76,395.77v-1.11L43,394.5v-6.39l-1.13-.35v-1.25l2.84-.41h.05l.44.36v2h0a3,3,0,0,1,.36-.67,4.56,4.56,0,0,1,.64-.78,4.16,4.16,0,0,1,.89-.65,2.29,2.29,0,0,1,1.09-.27l.4,0,.23.06V389a1.65,1.65,0,0,0-.48-.14,4.14,4.14,0,0,0-.92-.08,5.63,5.63,0,0,0-.58,0,4.34,4.34,0,0,0-.54.09,2.78,2.78,0,0,0-.46.13,1.38,1.38,0,0,0-.3.15v5.29l2.06.2v1.08Z"/><path class="cls-2" d="M50.79,393.78v-6.11H49.62v-.95l.21-.07.3-.11.28-.11.15-.08a2.54,2.54,0,0,0,.59-.8c.06-.11.12-.24.18-.38s.14-.3.2-.46l.18-.48.14-.43h1.48l0,2.46h2.44v1.41H53.35v4.6c0,.44,0,.79,0,1.05a2.28,2.28,0,0,0,.1.59.43.43,0,0,0,.25.26,1.36,1.36,0,0,0,.45.06h0a3.29,3.29,0,0,0,.42,0l.43-.08.39-.1.3-.09h0l.39,1a4.64,4.64,0,0,1-.61.38,7.4,7.4,0,0,1-.8.35,8.23,8.23,0,0,1-.92.25,5.41,5.41,0,0,1-1,.09h0a2.86,2.86,0,0,1-.94-.14,1.37,1.37,0,0,1-.62-.42,1.8,1.8,0,0,1-.35-.69A3.73,3.73,0,0,1,50.79,393.78Z"/><path class="cls-2" d="M62.14,395.77v-1.11l1-.17V383.41l-1.24-.21v-1l3.23-.41h0l.51.39v3.91l-.13,1.32c.15-.13.34-.28.56-.44a5.4,5.4,0,0,1,.76-.42,5.85,5.85,0,0,1,.92-.33,4.59,4.59,0,0,1,1.06-.13,3.52,3.52,0,0,1,1.35.23,1.89,1.89,0,0,1,.84.69,3.11,3.11,0,0,1,.44,1.17,9.17,9.17,0,0,1,.13,1.68v4.6l1.17.17v1.11H68.16v-1.08l.92-.18v-4.64a7.1,7.1,0,0,0-.06-1,1.81,1.81,0,0,0-.22-.69.88.88,0,0,0-.44-.39,1.78,1.78,0,0,0-.74-.13,2.46,2.46,0,0,0-.53.06,3.18,3.18,0,0,0-.53.14c-.17.06-.33.13-.48.2a3,3,0,0,0-.37.23v6.19l1.14.17v1.11Z"/><path class="cls-2" d="M78.15,396a5.14,5.14,0,0,1-2-.36,3.77,3.77,0,0,1-1.38-1A4.13,4.13,0,0,1,74,393a6.85,6.85,0,0,1-.26-2A6.09,6.09,0,0,1,74,389a4.39,4.39,0,0,1,.92-1.56,4,4,0,0,1,1.44-1,5,5,0,0,1,1.86-.34q3.44,0,3.59,3.36c0,.39,0,.73,0,1a6.31,6.31,0,0,1-.09.77H76.32a5.43,5.43,0,0,0,.24,1.41,2.81,2.81,0,0,0,.52.94,1.91,1.91,0,0,0,.77.53,2.59,2.59,0,0,0,1,.17,4,4,0,0,0,.79-.07,6,6,0,0,0,.67-.16,3.76,3.76,0,0,0,.57-.23,3.31,3.31,0,0,0,.43-.24l.43,1a3.78,3.78,0,0,1-.57.45,6.11,6.11,0,0,1-.85.44,7.31,7.31,0,0,1-1,.33A4.7,4.7,0,0,1,78.15,396Zm-.23-8.76a1.52,1.52,0,0,0-.6.11,1.13,1.13,0,0,0-.49.44,3,3,0,0,0-.35.9,7.86,7.86,0,0,0-.17,1.49h3a.49.49,0,0,1,0-.11v-.16a.92.92,0,0,0,0-.16v-.11a6.33,6.33,0,0,0-.06-.86A2.79,2.79,0,0,0,79,388a1.5,1.5,0,0,0-.42-.56A1.12,1.12,0,0,0,77.92,387.2Z"/><path class="cls-2" d="M83.18,395.77v-1.11l1.2-.16v-6.39l-1.13-.35v-1.25l2.84-.41h0l.44.36v2h0a3.65,3.65,0,0,1,.37-.67,4.56,4.56,0,0,1,.64-.78,4.16,4.16,0,0,1,.89-.65,2.29,2.29,0,0,1,1.09-.27l.4,0,.23.06V389a1.77,1.77,0,0,0-.48-.14,4.2,4.2,0,0,0-.92-.08,5.63,5.63,0,0,0-.58,0,4.34,4.34,0,0,0-.54.09,2.78,2.78,0,0,0-.46.13,1.38,1.38,0,0,0-.3.15v5.29l2.06.2v1.08Z"/><path class="cls-2" d="M95.62,396a5.08,5.08,0,0,1-2-.36,3.73,3.73,0,0,1-1.39-1,4.28,4.28,0,0,1-.8-1.56,7.22,7.22,0,0,1-.26-2,6.09,6.09,0,0,1,.33-2.08,4.54,4.54,0,0,1,.92-1.56,4,4,0,0,1,1.44-1,5,5,0,0,1,1.86-.34q3.45,0,3.59,3.36c0,.39,0,.73,0,1a3.88,3.88,0,0,1-.09.77H93.79a5.43,5.43,0,0,0,.24,1.41,2.82,2.82,0,0,0,.53.94,1.81,1.81,0,0,0,.76.53,2.62,2.62,0,0,0,1,.17,4,4,0,0,0,.79-.07,5.5,5.5,0,0,0,.67-.16,3.76,3.76,0,0,0,.57-.23,3.31,3.31,0,0,0,.43-.24l.44,1a3.45,3.45,0,0,1-.58.45,6.11,6.11,0,0,1-.85.44,7.31,7.31,0,0,1-1,.33A4.64,4.64,0,0,1,95.62,396Zm-.23-8.76a1.52,1.52,0,0,0-.6.11,1.19,1.19,0,0,0-.49.44,3.25,3.25,0,0,0-.35.9,8.78,8.78,0,0,0-.17,1.49h3s0-.06,0-.11a.86.86,0,0,1,0-.16v-.27a6.33,6.33,0,0,0-.06-.86,2.79,2.79,0,0,0-.21-.77,1.41,1.41,0,0,0-.42-.56A1.1,1.1,0,0,0,95.39,387.2Z"/><path class="cls-2" d="M102.77,395.91a1.73,1.73,0,0,1-.56-.09,1.24,1.24,0,0,1-.46-.27,1.12,1.12,0,0,1-.32-.42,1.2,1.2,0,0,1-.12-.55,1.44,1.44,0,0,1,.14-.62,1.68,1.68,0,0,1,.36-.51,1.87,1.87,0,0,1,.54-.33A1.84,1.84,0,0,1,103,393a1.78,1.78,0,0,1,.69.11,1.21,1.21,0,0,1,.46.29,1,1,0,0,1,.25.42,1.44,1.44,0,0,1,.08.51,1.51,1.51,0,0,1-.13.65,1.46,1.46,0,0,1-.35.5,1.66,1.66,0,0,1-.55.32A2.17,2.17,0,0,1,102.77,395.91Z"/></svg>