<svg id="Layer_1" data-name="Layer 1" xmlns="http://www.w3.org/2000/svg" viewBox="0 0 728 90"><defs><style>.cls-1{fill:#fff;}.cls-2{fill:#f1b533;}</style></defs><path class="cls-1" d="M42.62,53.51,36.85,34.83l-1.66-.43V32.57h8.53V34.4l-2.31.43,3.46,12.49.53,2.79.53-2.79,3-10-.8-2.46-1.84-.42V32.57H55V34.4l-2.41.43L56,47.32l.63,3,.53-3,3.27-12.49-2.61-.43V32.57h7.07V34.4l-1.82.43L57.62,53.51H53.73L50,41l-3.6,12.56Z"/><path class="cls-1" d="M72.58,53.69a8.34,8.34,0,0,1-3.32-.6A6.06,6.06,0,0,1,67,51.41a6.77,6.77,0,0,1-1.32-2.56,12,12,0,0,1-.42-3.26,10.14,10.14,0,0,1,.54-3.42A7.46,7.46,0,0,1,67.3,39.6,6.51,6.51,0,0,1,69.67,38a8.13,8.13,0,0,1,3.06-.56c3.78,0,5.76,1.84,5.92,5.54,0,.62,0,1.19,0,1.7a8.33,8.33,0,0,1-.14,1.28H69.57a8.64,8.64,0,0,0,.4,2.31,4.65,4.65,0,0,0,.86,1.56,3.11,3.11,0,0,0,1.26.87A4.65,4.65,0,0,0,73.7,51a6.63,6.63,0,0,0,1.3-.11,8.2,8.2,0,0,0,1.11-.27A6.21,6.21,0,0,0,77,50.2a7.59,7.59,0,0,0,.72-.39l.71,1.65a5.07,5.07,0,0,1-1,.75,10,10,0,0,1-1.39.71,11.68,11.68,0,0,1-1.7.55A7.62,7.62,0,0,1,72.58,53.69Zm-.37-14.44a2.46,2.46,0,0,0-1,.19,1.8,1.8,0,0,0-.81.73,4.76,4.76,0,0,0-.57,1.48,12.46,12.46,0,0,0-.28,2.45h4.91v-.19c0-.08,0-.17,0-.26v-.43a11.4,11.4,0,0,0-.09-1.42,4.79,4.79,0,0,0-.35-1.28,2.37,2.37,0,0,0-.7-.91A1.77,1.77,0,0,0,72.21,39.25Z"/><path class="cls-1" d="M89.33,53.37V51.54l1.77-.26V33l-2-.35V31.08l5.29-.67h0l.87.64V43.28l-.07,2.12,5.32-5.47-2.14-.36V37.71h7.71v1.86l-2.54.49-3.39,3.1,5.28,8.11,1.68.27v1.83H99.43V51.54l1.38-.3-3.35-5.71-2.21,2.13.07,1.63v2l1.87.27v1.83Z"/><path class="cls-1" d="M108.33,53.37V51.54l1.76-.27V40.75l-1.85-.57V38.12l4.89-.67h.07l.72.58v1.63a9,9,0,0,1,1.07-.81,8.77,8.77,0,0,1,1.33-.69,9.19,9.19,0,0,1,1.51-.49,7.2,7.2,0,0,1,1.6-.18,6.09,6.09,0,0,1,2.2.34,3,3,0,0,1,1.4,1.09,5.14,5.14,0,0,1,.74,1.94,16.51,16.51,0,0,1,.22,2.85v7.57l1.94.26v1.83h-7.7V51.54l1.49-.26V43.65a11,11,0,0,0-.1-1.63,3.21,3.21,0,0,0-.34-1.13,1.62,1.62,0,0,0-.7-.65,2.7,2.7,0,0,0-1.14-.21,4.05,4.05,0,0,0-.92.1,5.29,5.29,0,0,0-.85.27,5.66,5.66,0,0,0-.74.36,4.16,4.16,0,0,0-.58.39V51.27l1.83.27v1.83Z"/><path class="cls-1" d="M127.29,45.64a9.38,9.38,0,0,1,.65-3.63,7.33,7.33,0,0,1,1.71-2.57,7,7,0,0,1,2.46-1.53,8.5,8.5,0,0,1,2.92-.5,8.35,8.35,0,0,1,3.15.55,6.13,6.13,0,0,1,2.29,1.59,6.92,6.92,0,0,1,1.41,2.53,11,11,0,0,1,.48,3.38,9.63,9.63,0,0,1-.64,3.69A7.28,7.28,0,0,1,140,51.71a6.75,6.75,0,0,1-2.46,1.49,8.63,8.63,0,0,1-2.91.49,8.31,8.31,0,0,1-3.15-.56,6.05,6.05,0,0,1-2.3-1.59A6.72,6.72,0,0,1,127.77,49,11,11,0,0,1,127.29,45.64Zm7.58,6.16a2.49,2.49,0,0,0,1.3-.33,2.68,2.68,0,0,0,.91-1.06,6,6,0,0,0,.53-1.83,18.77,18.77,0,0,0,.17-2.68,21.7,21.7,0,0,0-.16-2.84,7.85,7.85,0,0,0-.5-2.07,3.05,3.05,0,0,0-.92-1.27,2.28,2.28,0,0,0-1.39-.43,2.4,2.4,0,0,0-1.3.34,2.54,2.54,0,0,0-.93,1,6.4,6.4,0,0,0-.54,1.84,17.2,17.2,0,0,0-.18,2.68A23.85,23.85,0,0,0,132,48a8,8,0,0,0,.53,2.07,3.1,3.1,0,0,0,.93,1.26A2.21,2.21,0,0,0,134.87,51.8Z"/><path class="cls-1" d="M149.18,53.59l-4.54-13.75-1.51-.38V37.71h7.79v1.73l-2.13.4L150.67,47l.71,3.17.69-3.17,2.68-9.27h3.58L161.05,47l.68,3,.63-3,1.94-7.14-2.2-.41V37.71h6.58v1.73l-1.63.4-4.26,13.75h-3.42l-2.86-9.08-.59-2.44-.52,2.44-2.77,9.08Z"/><path class="cls-1" d="M183.05,53.59l-4.54-13.75L177,39.46V37.71h7.79v1.73l-2.13.4L184.54,47l.71,3.17.68-3.17,2.68-9.27h3.58L194.92,47l.68,3,.63-3,1.94-7.14-2.2-.41V37.71h6.57v1.73l-1.62.4-4.27,13.75h-3.42l-2.85-9.08-.59-2.44-.52,2.44-2.78,9.08Z"/><path class="cls-1" d="M203.16,53.37V51.54l1.68-.27V33l-2.05-.35V31.08l5.32-.67h.07l.83.64,0,6.44-.22,2.17a7.79,7.79,0,0,1,.92-.72,8.7,8.7,0,0,1,1.25-.71,9.48,9.48,0,0,1,1.53-.53,7,7,0,0,1,1.74-.21,5.72,5.72,0,0,1,2.22.37A3,3,0,0,1,217.86,39a5,5,0,0,1,.73,1.94,15.82,15.82,0,0,1,.21,2.76v7.58l1.93.27v1.83h-7.66V51.6l1.52-.3V43.65a11,11,0,0,0-.1-1.63,2.84,2.84,0,0,0-.36-1.13,1.62,1.62,0,0,0-.74-.65,3,3,0,0,0-1.21-.21,3.81,3.81,0,0,0-.87.1,7.59,7.59,0,0,0-1.66.56,4.06,4.06,0,0,0-.61.38v10.2l1.87.27v1.83Z"/><path class="cls-1" d="M222.07,49.22a4.11,4.11,0,0,1,1.36-3.16,5.89,5.89,0,0,1,1.49-1,11.69,11.69,0,0,1,1.86-.68,15.3,15.3,0,0,1,2.08-.38c.72-.09,1.44-.14,2.16-.16v-.65a3.17,3.17,0,0,0-.63-2.22,2.78,2.78,0,0,0-2.09-.67,9.23,9.23,0,0,0-1.48.12,14.44,14.44,0,0,0-1.43.29,11.13,11.13,0,0,0-1.26.38c-.39.14-.72.28-1,.4h0l-.81-1.83a7.89,7.89,0,0,1,1-.61,13.68,13.68,0,0,1,1.64-.73,15.72,15.72,0,0,1,2.12-.61,10.63,10.63,0,0,1,2.4-.26,9,9,0,0,1,2.57.32,4,4,0,0,1,1.73,1,4.12,4.12,0,0,1,1,1.73A9,9,0,0,1,235,43v8.53h1.7V53.2l-.64.14c-.26.06-.54.11-.85.16s-.64.1-1,.13a9.69,9.69,0,0,1-1.09.06c-.33,0-.61,0-.84,0a1.19,1.19,0,0,1-.56-.19.8.8,0,0,1-.31-.43,2.25,2.25,0,0,1-.1-.76v-.8a4.84,4.84,0,0,1-.64.7,5.29,5.29,0,0,1-1,.73,6.63,6.63,0,0,1-1.32.56,5.58,5.58,0,0,1-1.63.23,6.35,6.35,0,0,1-1.82-.26,4,4,0,0,1-1.48-.81,3.76,3.76,0,0,1-1-1.39A5,5,0,0,1,222.07,49.22Zm6.49,1.83a2.38,2.38,0,0,0,.56-.07,4.78,4.78,0,0,0,.66-.19,5.65,5.65,0,0,0,.67-.29,3.16,3.16,0,0,0,.57-.39V45.58a8.28,8.28,0,0,0-2.22.25,4.13,4.13,0,0,0-1.43.65,2.43,2.43,0,0,0-.76,1,2.85,2.85,0,0,0-.22,1.13,2.73,2.73,0,0,0,.55,1.85A2,2,0,0,0,228.56,51.05Z"/><path class="cls-1" d="M239.87,50.09V40h-1.93V38.47l.35-.11.49-.19.46-.18.26-.13a4.39,4.39,0,0,0,1-1.32l.3-.63c.11-.24.22-.5.32-.76s.2-.53.3-.79.16-.49.23-.7h2.43l0,4.05h4V40h-4V47.6c0,.73,0,1.31,0,1.74a3.07,3.07,0,0,0,.16,1,.71.71,0,0,0,.4.43,2.58,2.58,0,0,0,.76.09h0a5.6,5.6,0,0,0,.69,0l.71-.13c.23,0,.45-.11.64-.17l.49-.15h0l.65,1.59a7.42,7.42,0,0,1-1,.63,9.92,9.92,0,0,1-1.31.57,10.26,10.26,0,0,1-1.52.41,7.92,7.92,0,0,1-1.61.16h0a4.63,4.63,0,0,1-1.54-.23,2.47,2.47,0,0,1-1-.69,2.79,2.79,0,0,1-.56-1.13A6,6,0,0,1,239.87,50.09Z"/><path class="cls-1" d="M258.57,53.37V51.54l1.68-.27V33l-2.05-.35V31.08l5.32-.67h.07l.83.64,0,6.44-.22,2.17a8.72,8.72,0,0,1,.92-.72,8.31,8.31,0,0,1,1.26-.71,9,9,0,0,1,1.52-.53,7,7,0,0,1,1.74-.21,5.69,5.69,0,0,1,2.22.37A3.08,3.08,0,0,1,273.28,39a5.1,5.1,0,0,1,.72,1.94,15.82,15.82,0,0,1,.21,2.76v7.58l1.93.27v1.83h-7.66V51.6l1.52-.3V43.65a12.76,12.76,0,0,0-.09-1.63,3,3,0,0,0-.37-1.13,1.57,1.57,0,0,0-.74-.65,3,3,0,0,0-1.21-.21,3.81,3.81,0,0,0-.87.1,6.2,6.2,0,0,0-.87.24,5.52,5.52,0,0,0-.78.32,3.73,3.73,0,0,0-.62.38v10.2l1.87.27v1.83Z"/><path class="cls-1" d="M284.93,53.69a8.29,8.29,0,0,1-3.31-.6,6,6,0,0,1-2.29-1.68A6.77,6.77,0,0,1,278,48.85a12,12,0,0,1-.42-3.26,10.14,10.14,0,0,1,.54-3.42,7.46,7.46,0,0,1,1.52-2.57A6.51,6.51,0,0,1,282,38a8.13,8.13,0,0,1,3.06-.56c3.78,0,5.76,1.84,5.92,5.54,0,.62,0,1.19,0,1.7a8.33,8.33,0,0,1-.14,1.28h-8.93a8.64,8.64,0,0,0,.4,2.31,4.83,4.83,0,0,0,.86,1.56,3.15,3.15,0,0,0,1.27.87,4.55,4.55,0,0,0,1.6.27,6.63,6.63,0,0,0,1.3-.11,8.2,8.2,0,0,0,1.11-.27,5.81,5.81,0,0,0,.93-.37,7.59,7.59,0,0,0,.72-.39l.71,1.65a5.07,5.07,0,0,1-.95.75,10,10,0,0,1-1.39.71,11.68,11.68,0,0,1-1.7.55A7.62,7.62,0,0,1,284.93,53.69Zm-.37-14.44a2.53,2.53,0,0,0-1,.19,1.85,1.85,0,0,0-.81.73,4.76,4.76,0,0,0-.57,1.48,13.27,13.27,0,0,0-.28,2.45h4.91v-.19c0-.08,0-.17,0-.26v-.43a11.4,11.4,0,0,0-.09-1.42,4.79,4.79,0,0,0-.35-1.28,2.37,2.37,0,0,0-.7-.91A1.73,1.73,0,0,0,284.56,39.25Z"/><path class="cls-1" d="M292.87,49.22a4.06,4.06,0,0,1,.37-1.79,4.33,4.33,0,0,1,1-1.37,6.13,6.13,0,0,1,1.5-1,11.34,11.34,0,0,1,1.86-.68,15.3,15.3,0,0,1,2.08-.38c.72-.09,1.44-.14,2.16-.16v-.65a3.12,3.12,0,0,0-.64-2.22,2.75,2.75,0,0,0-2.08-.67,9.23,9.23,0,0,0-1.48.12,14.44,14.44,0,0,0-1.43.29,12,12,0,0,0-1.27.38c-.39.14-.72.28-1,.4h0l-.81-1.83a7.17,7.17,0,0,1,1-.61,13,13,0,0,1,1.64-.73,15.72,15.72,0,0,1,2.12-.61,10.55,10.55,0,0,1,2.39-.26,9.17,9.17,0,0,1,2.58.32,3.84,3.84,0,0,1,2.69,2.75,8.56,8.56,0,0,1,.31,2.46v8.53h1.7V53.2l-.65.14c-.25.06-.53.11-.84.16s-.65.1-1,.13a9.87,9.87,0,0,1-1.1.06c-.32,0-.6,0-.84,0a1.23,1.23,0,0,1-.56-.19.84.84,0,0,1-.3-.43,2.25,2.25,0,0,1-.1-.76v-.8a5.51,5.51,0,0,1-.64.7,6,6,0,0,1-1,.73,6.63,6.63,0,0,1-1.32.56,5.63,5.63,0,0,1-1.63.23,6.3,6.3,0,0,1-1.82-.26,4,4,0,0,1-1.48-.81,3.79,3.79,0,0,1-1-1.39A5.15,5.15,0,0,1,292.87,49.22Zm6.5,1.83a2.44,2.44,0,0,0,.56-.07,4.3,4.3,0,0,0,.65-.19,5,5,0,0,0,.67-.29,3.26,3.26,0,0,0,.58-.39V45.58a8.23,8.23,0,0,0-2.22.25,4,4,0,0,0-1.43.65,2.34,2.34,0,0,0-.76,1,2.85,2.85,0,0,0-.23,1.13,2.73,2.73,0,0,0,.56,1.85A2,2,0,0,0,299.37,51.05Z"/><path class="cls-1" d="M309.18,53.37V51.54l2-.26V40.75l-1.86-.57V38.12l4.68-.67h.08l.73.58v1.14l0,2.13h.06a6.49,6.49,0,0,1,.59-1.1,7.34,7.34,0,0,1,1.07-1.28,6.32,6.32,0,0,1,1.46-1.07,3.69,3.69,0,0,1,1.8-.44,5.32,5.32,0,0,1,.65,0,1.54,1.54,0,0,1,.37.09v4.73A2.73,2.73,0,0,0,320,42a7.45,7.45,0,0,0-1.51-.13c-.32,0-.64,0-1,0s-.62.09-.89.15a5.7,5.7,0,0,0-.75.21,2,2,0,0,0-.51.25v8.72l3.41.33v1.77Z"/><path class="cls-1" d="M324.06,50.09V40h-1.93V38.47l.35-.11.49-.19.46-.18.26-.13a4.39,4.39,0,0,0,1-1.32l.3-.63c.11-.24.22-.5.32-.76s.21-.53.3-.79.17-.49.23-.7h2.43l0,4.05h4V40h-4V47.6c0,.73,0,1.31,0,1.74a3.39,3.39,0,0,0,.16,1,.7.7,0,0,0,.41.43,2.47,2.47,0,0,0,.75.09h0a5.6,5.6,0,0,0,.69,0l.71-.13c.24,0,.45-.11.65-.17l.48-.15h0l.65,1.59a7.42,7.42,0,0,1-1,.63,9.37,9.37,0,0,1-1.31.57,9.94,9.94,0,0,1-1.52.41,7.89,7.89,0,0,1-1.6.16h0a4.63,4.63,0,0,1-1.54-.23,2.53,2.53,0,0,1-1-.69,2.93,2.93,0,0,1-.56-1.13A6,6,0,0,1,324.06,50.09Z"/><path class="cls-1" d="M342.76,53.37V51.54l1.68-.27V33l-2.05-.35V31.08l5.32-.67h.07l.83.64,0,6.44-.22,2.17a8,8,0,0,1,.93-.72,7.74,7.74,0,0,1,1.25-.71,9,9,0,0,1,1.52-.53,7,7,0,0,1,1.74-.21,5.65,5.65,0,0,1,2.22.37A3,3,0,0,1,357.47,39a5.1,5.1,0,0,1,.72,1.94,15.82,15.82,0,0,1,.21,2.76v7.58l1.93.27v1.83h-7.66V51.6l1.52-.3V43.65A12.76,12.76,0,0,0,354.1,42a3,3,0,0,0-.37-1.13,1.59,1.59,0,0,0-.73-.65,3,3,0,0,0-1.21-.21,3.83,3.83,0,0,0-.88.1,6.2,6.2,0,0,0-.87.24,5.52,5.52,0,0,0-.78.32,4.2,4.2,0,0,0-.62.38v10.2l1.87.27v1.83Z"/><path class="cls-1" d="M369.12,53.69a8.29,8.29,0,0,1-3.31-.6,6,6,0,0,1-2.29-1.68,7.07,7.07,0,0,1-1.32-2.56,12,12,0,0,1-.42-3.26,10.14,10.14,0,0,1,.54-3.42,7.46,7.46,0,0,1,1.52-2.57A6.51,6.51,0,0,1,366.21,38a8.13,8.13,0,0,1,3.06-.56c3.78,0,5.76,1.84,5.92,5.54,0,.62,0,1.19,0,1.7a8.2,8.2,0,0,1-.15,1.28h-8.93a8.64,8.64,0,0,0,.4,2.31,4.83,4.83,0,0,0,.86,1.56,3.15,3.15,0,0,0,1.27.87,4.55,4.55,0,0,0,1.6.27,6.63,6.63,0,0,0,1.3-.11,8.75,8.75,0,0,0,1.12-.27,6.67,6.67,0,0,0,.93-.37c.27-.13.51-.27.71-.39l.71,1.65a4.76,4.76,0,0,1-.95.75,10,10,0,0,1-1.39.71,11.29,11.29,0,0,1-1.7.55A7.62,7.62,0,0,1,369.12,53.69Zm-.37-14.44a2.53,2.53,0,0,0-1,.19,1.83,1.83,0,0,0-.8.73,4.51,4.51,0,0,0-.58,1.48,13.27,13.27,0,0,0-.28,2.45H371a1.58,1.58,0,0,1,0-.19,2.35,2.35,0,0,1,0-.26c0-.09,0-.17,0-.26v-.17a11.43,11.43,0,0,0-.1-1.42,4.45,4.45,0,0,0-.35-1.28,2.37,2.37,0,0,0-.7-.91A1.73,1.73,0,0,0,368.75,39.25Z"/><path class="cls-1" d="M377.07,49.22a4.11,4.11,0,0,1,1.36-3.16,5.89,5.89,0,0,1,1.49-1,11.69,11.69,0,0,1,1.86-.68,15.3,15.3,0,0,1,2.08-.38c.72-.09,1.44-.14,2.16-.16v-.65a3.12,3.12,0,0,0-.64-2.22,2.74,2.74,0,0,0-2.08-.67,9.23,9.23,0,0,0-1.48.12,14.44,14.44,0,0,0-1.43.29,12,12,0,0,0-1.27.38c-.38.14-.71.28-1,.4h0l-.81-1.83a7.89,7.89,0,0,1,1-.61,13.68,13.68,0,0,1,1.64-.73,15.72,15.72,0,0,1,2.12-.61,10.55,10.55,0,0,1,2.39-.26,9.07,9.07,0,0,1,2.58.32,3.93,3.93,0,0,1,1.72,1,4,4,0,0,1,1,1.73A9,9,0,0,1,390,43v8.53h1.7V53.2l-.64.14c-.26.06-.54.11-.85.16s-.64.1-1,.13a9.82,9.82,0,0,1-1.09.06c-.33,0-.61,0-.84,0a1.28,1.28,0,0,1-.57-.19.84.84,0,0,1-.3-.43,2.25,2.25,0,0,1-.1-.76v-.8a4.84,4.84,0,0,1-.64.7,5.29,5.29,0,0,1-1,.73,6.63,6.63,0,0,1-1.32.56,5.58,5.58,0,0,1-1.63.23,6.3,6.3,0,0,1-1.82-.26,4,4,0,0,1-1.48-.81,3.9,3.9,0,0,1-1-1.39A5.15,5.15,0,0,1,377.07,49.22Zm6.49,1.83a2.44,2.44,0,0,0,.56-.07,4.78,4.78,0,0,0,.66-.19,6.46,6.46,0,0,0,.67-.29,3.16,3.16,0,0,0,.57-.39V45.58a8.28,8.28,0,0,0-2.22.25,4.13,4.13,0,0,0-1.43.65,2.34,2.34,0,0,0-.76,1,2.85,2.85,0,0,0-.22,1.13,2.73,2.73,0,0,0,.55,1.85A2,2,0,0,0,383.56,51.05Z"/><path class="cls-1" d="M393,53.37V51.54l2-.27V33l-2-.35V31.08l5.34-.67h0l.87.64V51.27l2.06.27v1.83Z"/><path class="cls-1" d="M404.55,50.09V40h-1.93V38.47l.35-.11.49-.19.46-.18.26-.13a4.39,4.39,0,0,0,1-1.32l.3-.63c.11-.24.22-.5.32-.76s.2-.53.29-.79l.24-.7h2.43l0,4.05h4V40h-4V47.6q0,1.09,0,1.74a3.33,3.33,0,0,0,.17,1,.71.71,0,0,0,.4.43,2.47,2.47,0,0,0,.75.09h0a5.6,5.6,0,0,0,.69,0l.71-.13c.23,0,.45-.11.64-.17l.49-.15h0l.64,1.59a7.26,7.26,0,0,1-1,.63,10.54,10.54,0,0,1-1.31.57,10.26,10.26,0,0,1-1.52.41,7.92,7.92,0,0,1-1.61.16h0a4.56,4.56,0,0,1-1.53-.23,2.47,2.47,0,0,1-1-.69,2.94,2.94,0,0,1-.57-1.13A6.5,6.5,0,0,1,404.55,50.09Z"/><path class="cls-1" d="M414.46,53.37V51.54l1.68-.27V33l-2.05-.35V31.08l5.32-.67h.07l.83.64,0,6.44-.22,2.17a7,7,0,0,1,.92-.72,8.7,8.7,0,0,1,1.25-.71,9.15,9.15,0,0,1,1.53-.53,7,7,0,0,1,1.74-.21,5.63,5.63,0,0,1,2.21.37A3,3,0,0,1,429.16,39a5.1,5.1,0,0,1,.73,1.94,15.82,15.82,0,0,1,.21,2.76v7.58l1.93.27v1.83h-7.66V51.6l1.52-.3V43.65a11,11,0,0,0-.1-1.63,2.84,2.84,0,0,0-.36-1.13,1.62,1.62,0,0,0-.74-.65,3,3,0,0,0-1.21-.21,3.81,3.81,0,0,0-.87.1,7.59,7.59,0,0,0-1.66.56,4.06,4.06,0,0,0-.61.38v10.2l1.87.27v1.83Z"/><path class="cls-2" d="M442.51,53.37V51.54l2-.26V40.75l-1.86-.57V38.12l4.68-.67h.08l.72.58V41.3h.06a5.3,5.3,0,0,1,.59-1.1,7.34,7.34,0,0,1,1.07-1.28,6.32,6.32,0,0,1,1.46-1.07,3.69,3.69,0,0,1,1.8-.44,5.32,5.32,0,0,1,.65,0,1.54,1.54,0,0,1,.37.09v4.73a2.73,2.73,0,0,0-.78-.24,7.45,7.45,0,0,0-1.51-.13c-.32,0-.64,0-1,0s-.62.09-.9.15a6,6,0,0,0-.74.21,2,2,0,0,0-.51.25v8.72l3.41.33v1.77Z"/><path class="cls-2" d="M463,53.69a8.29,8.29,0,0,1-3.31-.6,6,6,0,0,1-2.29-1.68,6.9,6.9,0,0,1-1.31-2.56,11.58,11.58,0,0,1-.43-3.26,10.14,10.14,0,0,1,.54-3.42,7.32,7.32,0,0,1,1.53-2.57A6.39,6.39,0,0,1,460.08,38a8.13,8.13,0,0,1,3.06-.56c3.79,0,5.76,1.84,5.92,5.54,0,.62,0,1.19,0,1.7a8.2,8.2,0,0,1-.15,1.28H460a8.28,8.28,0,0,0,.39,2.31,4.83,4.83,0,0,0,.86,1.56,3.15,3.15,0,0,0,1.27.87,4.59,4.59,0,0,0,1.6.27,6.63,6.63,0,0,0,1.3-.11,8.36,8.36,0,0,0,1.12-.27,6.67,6.67,0,0,0,.93-.37,7.32,7.32,0,0,0,.71-.39l.72,1.65a5.42,5.42,0,0,1-.95.75,10.13,10.13,0,0,1-1.4.71,11.54,11.54,0,0,1-1.69.55A7.76,7.76,0,0,1,463,53.69Zm-.37-14.44a2.53,2.53,0,0,0-1,.19,1.83,1.83,0,0,0-.8.73,4.51,4.51,0,0,0-.58,1.48A13.27,13.27,0,0,0,460,44.1h4.91a1.58,1.58,0,0,1,0-.19c0-.08,0-.17,0-.26a2.26,2.26,0,0,0,0-.26v-.17a9.78,9.78,0,0,0-.1-1.42,4.45,4.45,0,0,0-.35-1.28,2.44,2.44,0,0,0-.69-.91A1.78,1.78,0,0,0,462.62,39.25Z"/><path class="cls-2" d="M470.94,49.22a4.11,4.11,0,0,1,1.36-3.16,5.89,5.89,0,0,1,1.49-1,11.69,11.69,0,0,1,1.86-.68,15.3,15.3,0,0,1,2.08-.38c.72-.09,1.44-.14,2.16-.16v-.65a3.17,3.17,0,0,0-.63-2.22,2.78,2.78,0,0,0-2.09-.67,9.23,9.23,0,0,0-1.48.12,14.44,14.44,0,0,0-1.43.29,12,12,0,0,0-1.27.38c-.38.14-.71.28-1,.4h0l-.81-1.83a7.89,7.89,0,0,1,1-.61,13.68,13.68,0,0,1,1.64-.73,15.72,15.72,0,0,1,2.12-.61,10.63,10.63,0,0,1,2.4-.26,9,9,0,0,1,2.57.32,4,4,0,0,1,1.73,1,4.12,4.12,0,0,1,1,1.73,9,9,0,0,1,.3,2.46v8.53h1.7V53.2l-.64.14c-.26.06-.54.11-.85.16s-.64.1-1,.13a9.69,9.69,0,0,1-1.09.06c-.33,0-.61,0-.84,0a1.19,1.19,0,0,1-.56-.19.8.8,0,0,1-.31-.43,2.25,2.25,0,0,1-.1-.76v-.8a4.84,4.84,0,0,1-.64.7,5.29,5.29,0,0,1-1,.73,6.63,6.63,0,0,1-1.32.56,5.53,5.53,0,0,1-1.63.23,6.3,6.3,0,0,1-1.82-.26,4,4,0,0,1-1.48-.81,3.76,3.76,0,0,1-1-1.39A5,5,0,0,1,470.94,49.22Zm6.49,1.83A2.44,2.44,0,0,0,478,51a4.78,4.78,0,0,0,.66-.19,5.65,5.65,0,0,0,.67-.29,3.16,3.16,0,0,0,.57-.39V45.58a8.28,8.28,0,0,0-2.22.25,4.13,4.13,0,0,0-1.43.65,2.43,2.43,0,0,0-.76,1,2.85,2.85,0,0,0-.22,1.13,2.73,2.73,0,0,0,.55,1.85A2,2,0,0,0,477.43,51.05Z"/><path class="cls-2" d="M486.82,53.37V51.54l2-.27V33l-2-.35V31.08l5.34-.67h.05l.86.64V51.27l2.06.27v1.83Z"/><path class="cls-2" d="M496.5,53.37V51.54l2-.27V33l-2-.35V31.08l5.34-.67h0l.87.64V51.27l2.06.27v1.83Z"/><path class="cls-2" d="M509.85,60.35l-.6,0-.65,0-.56-.06a2.74,2.74,0,0,1-.37-.07V56.81a5.54,5.54,0,0,0,.82.22,6.64,6.64,0,0,0,1.43.13,4.88,4.88,0,0,0,.89-.09,2.8,2.8,0,0,0,1-.48,5.4,5.4,0,0,0,1.05-1.14,10.25,10.25,0,0,0,1-2.08h-2.46l-4.93-13.53-1.24-.38V37.71h7.92v1.73l-2.07.4L513.74,48l1.07,3.72.93-3.72,2.08-8.11-1.78-.4V37.71h6v1.75l-1.25.38c-.27.83-.55,1.72-.85,2.69s-.59,1.93-.89,2.91-.6,1.93-.89,2.86-.56,1.78-.79,2.54-.45,1.42-.62,2-.31.9-.39,1.09a13.91,13.91,0,0,1-2.74,4.81A5.07,5.07,0,0,1,509.85,60.35Z"/><path class="cls-2" d="M532.34,53.37V51.6l1.71-.32V40.75l-1.86-.57V38.12l4.84-.67h.06l.73.58v1.63a7,7,0,0,1,1.11-.82,10.54,10.54,0,0,1,1.43-.7,9.24,9.24,0,0,1,1.55-.47,6.8,6.8,0,0,1,1.5-.18,5.33,5.33,0,0,1,2.5.5,3.23,3.23,0,0,1,1.41,1.62,6.66,6.66,0,0,1,1-.72,9.2,9.2,0,0,1,1.37-.68,11.24,11.24,0,0,1,1.58-.52,7,7,0,0,1,1.61-.2,6,6,0,0,1,2.14.33,2.81,2.81,0,0,1,1.38,1.06,4.68,4.68,0,0,1,.74,1.92,15.77,15.77,0,0,1,.22,2.88v7.6l1.93.32v1.77h-7.58V51.6l1.44-.32V43.8A11.23,11.23,0,0,0,553,42a3,3,0,0,0-.39-1.18,1.66,1.66,0,0,0-.73-.66,2.86,2.86,0,0,0-1.17-.2,3.55,3.55,0,0,0-.75.09,6.35,6.35,0,0,0-.82.24c-.27.1-.54.2-.79.32a5.8,5.8,0,0,0-.67.36,11,11,0,0,1,.15,1.25c0,.45,0,.94,0,1.47V51.3l1.82.3v1.77h-7.66V51.6l1.64-.3V43.65A9.71,9.71,0,0,0,543.6,42a3.19,3.19,0,0,0-.37-1.13,1.64,1.64,0,0,0-.73-.65,2.75,2.75,0,0,0-1.15-.21,3.73,3.73,0,0,0-.86.1,7,7,0,0,0-.87.24,5.52,5.52,0,0,0-.78.32,5.23,5.23,0,0,0-.6.38V51.28l1.85.32v1.77Z"/><path class="cls-2" d="M568.09,53.69a8.34,8.34,0,0,1-3.32-.6,6.06,6.06,0,0,1-2.28-1.68,6.77,6.77,0,0,1-1.32-2.56,12,12,0,0,1-.42-3.26,10.14,10.14,0,0,1,.54-3.42,7.46,7.46,0,0,1,1.52-2.57A6.51,6.51,0,0,1,565.18,38a8.13,8.13,0,0,1,3.06-.56c3.78,0,5.76,1.84,5.92,5.54,0,.62,0,1.19,0,1.7a8.33,8.33,0,0,1-.14,1.28h-8.93a8.64,8.64,0,0,0,.4,2.31,4.65,4.65,0,0,0,.86,1.56,3.11,3.11,0,0,0,1.26.87,4.65,4.65,0,0,0,1.61.27,6.7,6.7,0,0,0,1.3-.11,8.2,8.2,0,0,0,1.11-.27,6.67,6.67,0,0,0,.93-.37,7.59,7.59,0,0,0,.72-.39l.71,1.65a5.07,5.07,0,0,1-1,.75,10,10,0,0,1-1.39.71,11.68,11.68,0,0,1-1.7.55A7.67,7.67,0,0,1,568.09,53.69Zm-.37-14.44a2.46,2.46,0,0,0-1,.19,1.8,1.8,0,0,0-.81.73,4.76,4.76,0,0,0-.57,1.48,12.46,12.46,0,0,0-.28,2.45H570v-.19c0-.08,0-.17,0-.26v-.43a11.4,11.4,0,0,0-.09-1.42,4.79,4.79,0,0,0-.35-1.28,2.37,2.37,0,0,0-.7-.91A1.75,1.75,0,0,0,567.72,39.25Z"/><path class="cls-2" d="M576,49.22a4.21,4.21,0,0,1,.36-1.79,4.52,4.52,0,0,1,1-1.37,6.13,6.13,0,0,1,1.5-1,11,11,0,0,1,1.86-.68,15,15,0,0,1,2.08-.38c.72-.09,1.44-.14,2.16-.16v-.65a3.12,3.12,0,0,0-.64-2.22,2.75,2.75,0,0,0-2.08-.67,9.36,9.36,0,0,0-1.49.12c-.49.08-1,.17-1.43.29a12.54,12.54,0,0,0-1.26.38c-.39.14-.72.28-1,.4h0l-.8-1.83a7.17,7.17,0,0,1,1-.61,13,13,0,0,1,1.64-.73,15.3,15.3,0,0,1,2.12-.61,10.48,10.48,0,0,1,2.39-.26,9.17,9.17,0,0,1,2.58.32,3.84,3.84,0,0,1,2.69,2.75A8.56,8.56,0,0,1,589,43v8.53h1.69V53.2l-.64.14c-.25.06-.54.11-.85.16s-.64.1-1,.13a9.87,9.87,0,0,1-1.1.06c-.33,0-.61,0-.84,0a1.23,1.23,0,0,1-.56-.19.92.92,0,0,1-.31-.43,2.58,2.58,0,0,1-.09-.76v-.8a5.51,5.51,0,0,1-.64.7,5.74,5.74,0,0,1-1,.73,6.17,6.17,0,0,1-1.32.56,5.51,5.51,0,0,1-1.62.23,6.3,6.3,0,0,1-1.82-.26,3.88,3.88,0,0,1-1.48-.81,3.79,3.79,0,0,1-1-1.39A5.15,5.15,0,0,1,576,49.22Zm6.5,1.83a2.44,2.44,0,0,0,.56-.07,4.3,4.3,0,0,0,.65-.19,5.65,5.65,0,0,0,.67-.29,3.66,3.66,0,0,0,.58-.39V45.58a8.18,8.18,0,0,0-2.22.25,4,4,0,0,0-1.43.65,2.34,2.34,0,0,0-.76,1,2.85,2.85,0,0,0-.23,1.13,2.73,2.73,0,0,0,.56,1.85A2,2,0,0,0,582.53,51.05Z"/><path class="cls-2" d="M592.44,53.37V51.54l1.76-.27V40.75l-1.86-.57V38.12l4.9-.67h.07L598,38v1.63a9,9,0,0,1,1.07-.81,8.77,8.77,0,0,1,1.33-.69,9.19,9.19,0,0,1,1.51-.49,7.2,7.2,0,0,1,1.6-.18,6,6,0,0,1,2.19.34,3,3,0,0,1,1.41,1.09,5,5,0,0,1,.73,1.94,15.57,15.57,0,0,1,.22,2.85v7.57l1.94.26v1.83h-7.69V51.54l1.49-.26V43.65a12.59,12.59,0,0,0-.1-1.63,3,3,0,0,0-.35-1.13,1.6,1.6,0,0,0-.69-.65,2.72,2.72,0,0,0-1.15-.21,4,4,0,0,0-.91.1,5.75,5.75,0,0,0-.86.27,5.52,5.52,0,0,0-.73.36,5,5,0,0,0-.59.39V51.27l1.84.27v1.83Z"/><path class="cls-2" d="M612,52.5V48.66h2.52l.71,2.13a1.47,1.47,0,0,0,.38.36,3.36,3.36,0,0,0,.6.31,4.82,4.82,0,0,0,.78.23,4.63,4.63,0,0,0,.92.08,3.1,3.1,0,0,0,1.11-.16,1.93,1.93,0,0,0,.69-.42,1.26,1.26,0,0,0,.36-.57,2.29,2.29,0,0,0,.1-.62,1.62,1.62,0,0,0-.3-1,2.82,2.82,0,0,0-.83-.77,9.29,9.29,0,0,0-1.31-.68l-1.69-.71a10.78,10.78,0,0,1-1.7-.85,6.18,6.18,0,0,1-1.28-1.06,4.35,4.35,0,0,1-.81-1.31A4.46,4.46,0,0,1,612,42a4,4,0,0,1,.41-1.8,3.86,3.86,0,0,1,1.19-1.43,5.94,5.94,0,0,1,2-1,9.71,9.71,0,0,1,2.72-.35,11,11,0,0,1,1.61.11c.47.07.89.16,1.28.25l1.05.3a5.8,5.8,0,0,0,.93.24v3.78l-2.38,0-.64-1.81a1.85,1.85,0,0,0-.73-.61,2.81,2.81,0,0,0-1.35-.31,3.37,3.37,0,0,0-1,.14,1.72,1.72,0,0,0-.67.37,1.26,1.26,0,0,0-.36.51,1.41,1.41,0,0,0-.11.57,1.85,1.85,0,0,0,.36,1.17,3.36,3.36,0,0,0,.93.77,8.29,8.29,0,0,0,1.24.55c.44.16.87.33,1.27.51.6.27,1.17.55,1.72.84a7.52,7.52,0,0,1,1.46,1,4.51,4.51,0,0,1,1,1.36,4.17,4.17,0,0,1,.37,1.84,4.34,4.34,0,0,1-.39,1.84,4,4,0,0,1-1.17,1.48,5.68,5.68,0,0,1-2,1,9.55,9.55,0,0,1-2.77.36,12.08,12.08,0,0,1-2-.15c-.59-.1-1.14-.22-1.62-.35s-.93-.27-1.31-.4A8.53,8.53,0,0,0,612,52.5Z"/><path class="cls-2" d="M629.89,53.61a2.82,2.82,0,0,1-.92-.15,2.34,2.34,0,0,1-.77-.44,2.24,2.24,0,0,1-.52-.69,2.21,2.21,0,0,1-.19-.91,2.47,2.47,0,0,1,.22-1,2.76,2.76,0,0,1,.6-.83,2.91,2.91,0,0,1,2-.75,3.17,3.17,0,0,1,1.14.18,2,2,0,0,1,.76.47,1.93,1.93,0,0,1,.42.7,2.84,2.84,0,0,1-.08,1.92,2.53,2.53,0,0,1-.59.82,2.66,2.66,0,0,1-.9.52A3.49,3.49,0,0,1,629.89,53.61Z"/></svg>