<svg id="Layer_1" data-name="Layer 1" xmlns="http://www.w3.org/2000/svg" viewBox="0 0 728 90"><defs><style>.cls-1{fill:#435563;}.cls-2{opacity:0.05;}.cls-3{fill:#fff;}.cls-4{fill:#f1b533;}.cls-5{fill:none;stroke:#f1b533;stroke-miterlimit:10;}.cls-6{fill:#e87824;}.cls-7{fill:#d4262f;}</style></defs><rect class="cls-1" width="728" height="90"/><g class="cls-2"><polygon class="cls-3" points="722 86.45 713.87 78.16 705.73 86.45 705.73 86.45 697.6 78.16 689.46 86.45 681.32 78.16 673.19 86.45 665.05 78.16 656.91 86.45 656.91 86.45 648.78 78.16 640.64 86.45 632.5 78.16 628.43 82.31 624.37 86.45 616.23 78.16 608.09 86.45 599.96 78.16 591.82 86.45 583.68 78.16 575.55 86.45 575.55 86.45 567.41 78.16 559.27 86.45 559.27 86.45 551.14 78.16 543 86.45 534.87 78.16 526.73 86.45 518.59 78.16 510.46 86.45 502.32 78.16 494.18 86.45 486.05 78.16 477.91 86.45 477.91 86.45 469.77 78.16 461.64 86.45 453.5 78.16 445.37 86.45 437.23 78.16 429.09 86.45 429.09 86.45 420.95 78.16 412.82 86.45 404.68 78.16 396.55 86.45 396.55 86.45 388.41 78.16 380.27 86.45 372.14 78.16 364 86.45 355.86 78.16 351.8 82.31 347.73 86.45 339.59 78.16 331.45 86.45 323.32 78.16 315.18 86.45 315.18 86.45 307.05 78.16 298.91 86.45 290.77 78.16 282.63 86.45 282.63 86.45 274.5 78.16 266.36 86.45 266.36 86.45 258.23 78.16 250.09 86.45 241.95 78.16 233.82 86.45 233.82 86.45 225.68 78.16 217.54 86.45 209.41 78.16 201.27 86.45 193.13 78.16 185 86.45 176.86 78.16 168.72 86.45 160.59 78.16 152.45 86.45 152.45 86.45 144.31 78.16 136.18 86.45 136.18 86.45 128.04 78.16 119.91 86.45 111.77 78.16 103.63 86.45 95.5 78.16 87.36 86.45 79.22 78.16 75.16 82.31 71.09 86.45 62.95 78.16 54.81 86.45 54.81 86.45 46.68 78.16 38.54 86.45 30.41 78.16 22.27 86.45 22.27 86.45 14.13 78.16 6 86.45 6 86.45 0 80.34 0 88.63 1.34 90 10.65 90 14.13 86.45 14.13 86.45 17.61 90 26.92 90 30.41 86.45 33.89 90 43.2 90 46.68 86.45 46.68 86.45 50.16 90 59.47 90 62.95 86.45 66.43 90 75.74 90 79.22 86.45 79.22 86.45 82.7 90 92.02 90 95.5 86.45 98.98 90 108.29 90 111.77 86.45 111.77 86.45 115.25 90 124.56 90 128.04 86.45 131.52 90 140.83 90 144.31 86.45 144.31 86.45 147.8 90 157.11 90 160.59 86.45 164.07 90 173.38 90 176.86 86.45 180.34 90 189.65 90 193.13 86.45 196.62 90 205.93 90 209.41 86.45 212.89 90 222.2 90 225.68 86.45 229.16 90 238.47 90 241.95 86.45 241.95 86.45 245.44 90 254.74 90 258.23 86.45 261.71 90 271.02 90 274.5 86.45 277.98 90 287.29 90 290.77 86.45 294.25 90 303.56 90 307.05 86.45 307.05 86.45 310.53 90 319.84 90 323.32 86.45 326.8 90 336.11 90 339.59 86.45 343.07 90 352.38 90 355.86 86.45 359.35 90 368.65 90 372.14 86.45 375.62 90 384.93 90 388.41 86.45 391.89 90 401.2 90 404.68 86.45 408.16 90 417.47 90 420.95 86.45 424.44 90 433.75 90 437.23 86.45 437.23 86.45 440.71 90 450.02 90 453.5 86.45 456.98 90 466.29 90 469.77 86.45 473.26 90 482.56 90 486.05 86.45 489.53 90 498.84 90 502.32 86.45 505.8 90 515.11 90 518.59 86.45 518.59 86.45 522.08 90 531.38 90 534.87 86.45 538.35 90 547.66 90 551.14 86.45 554.62 90 563.93 90 567.41 86.45 567.41 86.45 570.89 90 580.2 90 583.68 86.45 587.17 90 596.48 90 599.96 86.45 599.96 86.45 603.44 90 612.75 90 616.23 86.45 619.71 90 629.02 90 632.5 86.45 632.5 86.45 635.99 90 645.29 90 648.78 86.45 652.26 90 661.57 90 665.05 86.45 668.53 90 677.84 90 681.32 86.45 684.8 90 694.11 90 697.6 86.45 701.08 90 710.39 90 713.87 86.45 717.35 90 726.66 90 728 88.63 728 80.34 722 86.45"/><polygon class="cls-3" points="518.59 69.87 526.73 78.16 534.87 69.87 543 78.16 551.14 69.87 559.27 78.16 567.41 69.87 567.41 69.87 575.55 78.16 583.68 69.87 591.82 78.16 599.96 69.87 599.96 69.87 608.09 78.16 616.23 69.87 624.37 78.16 632.5 69.87 632.5 69.87 640.64 78.16 648.78 69.87 656.91 78.16 665.05 69.87 673.19 78.16 681.32 69.87 689.46 78.16 697.6 69.87 705.73 78.16 713.87 69.87 722 78.16 728 72.05 728 63.76 722 69.87 713.87 61.58 705.73 69.87 705.73 69.87 697.6 61.58 689.46 69.87 681.32 61.58 673.19 69.87 665.05 61.58 656.91 69.87 656.91 69.87 648.78 61.58 640.64 69.87 632.5 61.58 628.43 65.73 624.37 69.87 616.23 61.58 608.09 69.87 599.96 61.58 591.82 69.87 583.68 61.58 575.55 69.87 575.55 69.87 567.41 61.58 559.27 69.87 559.27 69.87 551.14 61.58 543 69.87 534.87 61.58 526.73 69.87 518.59 61.58 510.46 69.87 502.32 61.58 494.18 69.87 486.05 61.58 477.91 69.87 477.91 69.87 469.77 61.58 461.64 69.87 453.5 61.58 445.37 69.87 437.23 61.58 429.09 69.87 429.09 69.87 420.95 61.58 412.82 69.87 404.68 61.58 396.55 69.87 396.55 69.87 388.41 61.58 380.27 69.87 372.14 61.58 364 69.87 355.86 61.58 351.8 65.73 347.73 69.87 339.59 61.58 331.45 69.87 323.32 61.58 315.18 69.87 315.18 69.87 307.05 61.58 298.91 69.87 290.77 61.58 282.63 69.87 282.63 69.87 274.5 61.58 266.36 69.87 266.36 69.87 258.23 61.58 250.09 69.87 241.95 61.58 233.82 69.87 233.82 69.87 225.68 61.58 217.54 69.87 209.41 61.58 201.27 69.87 193.13 61.58 185 69.87 176.86 61.58 168.72 69.87 160.59 61.58 152.45 69.87 152.45 69.87 144.31 61.58 136.18 69.87 136.18 69.87 128.04 61.58 119.91 69.87 111.77 61.58 103.63 69.87 95.5 61.58 87.36 69.87 79.22 61.58 75.16 65.73 71.09 69.87 62.95 61.58 54.81 69.87 54.81 69.87 46.68 61.58 38.54 69.87 30.41 61.58 22.27 69.87 22.27 69.87 14.13 61.58 6 69.87 6 69.87 0 63.76 0 72.05 6 78.16 14.13 69.87 14.13 69.87 22.27 78.16 30.41 69.87 38.54 78.16 46.68 69.87 46.68 69.87 54.81 78.16 62.95 69.87 71.09 78.16 79.22 69.87 79.22 69.87 87.36 78.16 95.5 69.87 103.63 78.16 111.77 69.87 111.77 69.87 119.91 78.16 128.04 69.87 136.18 78.16 144.31 69.87 144.31 69.87 152.45 78.16 160.59 69.87 168.72 78.16 176.86 69.87 185 78.16 193.13 69.87 201.27 78.16 209.41 69.87 217.54 78.16 225.68 69.87 233.82 78.16 241.95 69.87 241.95 69.87 241.95 69.87 250.09 78.16 258.23 69.87 266.36 78.16 274.5 69.87 282.63 78.16 290.77 69.87 298.91 78.16 307.05 69.87 307.05 69.87 315.18 78.16 323.32 69.87 331.45 78.16 339.59 69.87 347.73 78.16 355.86 69.87 364 78.16 372.14 69.87 380.27 78.16 388.41 69.87 396.55 78.16 404.68 69.87 412.82 78.16 420.95 69.87 429.09 78.16 437.23 69.87 437.23 69.87 445.37 78.16 453.5 69.87 461.64 78.16 469.77 69.87 477.91 78.16 486.05 69.87 494.18 78.16 502.32 69.87 510.46 78.16 518.59 69.87 518.59 69.87 518.59 69.87"/><polygon class="cls-3" points="0 5.73 6 11.84 14.13 3.55 14.13 3.55 22.27 11.84 30.41 3.55 38.54 11.84 46.68 3.55 46.68 3.55 54.81 11.84 62.95 3.55 71.09 11.84 79.22 3.55 79.22 3.55 87.36 11.84 95.5 3.55 103.63 11.84 111.77 3.55 111.77 3.55 119.91 11.84 128.04 3.55 136.18 11.84 144.31 3.55 144.31 3.55 152.45 11.84 160.59 3.55 168.72 11.84 176.86 3.55 185 11.84 193.13 3.55 201.27 11.84 209.41 3.55 217.54 11.84 225.68 3.55 233.82 11.84 241.95 3.55 241.95 3.55 241.95 3.55 250.09 11.84 258.23 3.55 266.36 11.84 274.5 3.55 282.63 11.84 290.77 3.55 298.91 11.84 307.05 3.55 307.05 3.55 315.18 11.84 323.32 3.55 331.45 11.84 339.59 3.55 347.73 11.84 355.86 3.55 364 11.84 372.14 3.55 380.27 11.84 388.41 3.55 396.55 11.84 404.68 3.55 412.82 11.84 420.95 3.55 429.09 11.84 437.23 3.55 437.23 3.55 445.37 11.84 453.5 3.55 461.64 11.84 469.77 3.55 477.91 11.84 486.05 3.55 494.18 11.84 502.32 3.55 510.46 11.84 518.59 3.55 518.59 3.55 518.59 3.55 526.73 11.84 534.87 3.55 543 11.84 551.14 3.55 559.27 11.84 567.41 3.55 567.41 3.55 575.55 11.84 583.68 3.55 591.82 11.84 599.96 3.55 599.96 3.55 608.09 11.84 616.23 3.55 624.37 11.84 632.5 3.55 632.5 3.55 640.64 11.84 648.78 3.55 656.91 11.84 665.05 3.55 673.19 11.84 681.32 3.55 689.46 11.84 697.6 3.55 705.73 11.84 713.87 3.55 722 11.84 728 5.73 728 0 725.49 0 722 3.55 718.52 0 709.21 0 705.73 3.55 705.73 3.55 702.25 0 692.94 0 689.46 3.55 685.98 0 676.67 0 673.19 3.55 669.7 0 660.39 0 656.91 3.55 656.91 3.55 653.43 0 644.12 0 640.64 3.55 637.16 0 627.85 0 624.37 3.55 620.88 0 611.58 0 608.09 3.55 604.61 0 595.3 0 591.82 3.55 588.34 0 579.03 0 575.55 3.55 575.55 3.55 572.07 0 562.76 0 559.27 3.55 559.27 3.55 555.79 0 546.48 0 543 3.55 539.52 0 530.21 0 526.73 3.55 523.25 0 513.94 0 510.46 3.55 506.98 0 497.67 0 494.18 3.55 490.7 0 481.39 0 477.91 3.55 477.91 3.55 474.43 0 465.12 0 461.64 3.55 458.16 0 448.85 0 445.37 3.55 441.88 0 432.57 0 429.09 3.55 429.09 3.55 425.61 0 416.3 0 412.82 3.55 409.34 0 400.03 0 396.55 3.55 396.55 3.55 393.06 0 383.75 0 380.27 3.55 376.79 0 367.48 0 364 3.55 360.52 0 351.21 0 347.73 3.55 344.25 0 334.94 0 331.45 3.55 327.97 0 318.66 0 315.18 3.55 315.18 3.55 311.7 0 302.39 0 298.91 3.55 295.43 0 286.12 0 282.63 3.55 282.63 3.55 279.15 0 269.84 0 266.36 3.55 266.36 3.55 262.88 0 253.57 0 250.09 3.55 246.61 0 237.3 0 233.82 3.55 233.82 3.55 230.34 0 221.03 0 217.54 3.55 214.06 0 204.75 0 201.27 3.55 197.79 0 188.48 0 185 3.55 181.52 0 172.21 0 168.72 3.55 165.24 0 155.93 0 152.45 3.55 152.45 3.55 148.97 0 139.66 0 136.18 3.55 136.18 3.55 132.7 0 123.39 0 119.91 3.55 116.42 0 107.11 0 103.63 3.55 100.15 0 90.84 0 87.36 3.55 83.88 0 74.57 0 71.09 3.55 67.61 0 58.3 0 54.81 3.55 54.81 3.55 51.33 0 42.02 0 38.54 3.55 35.06 0 25.75 0 22.27 3.55 22.27 3.55 18.79 0 9.48 0 6 3.55 6 3.55 2.51 0 0 0 0 5.73"/><polygon class="cls-3" points="713.87 28.42 705.73 36.71 705.73 36.71 697.6 28.42 689.46 36.71 681.32 28.42 673.19 36.71 665.05 28.42 656.91 36.71 656.91 36.71 648.78 28.42 640.64 36.71 632.5 28.42 628.43 32.56 624.37 36.71 620.3 32.56 616.23 28.42 608.09 36.71 599.96 28.42 591.82 36.71 583.68 28.42 575.55 36.71 575.55 36.71 567.41 28.42 559.27 36.71 559.27 36.71 551.14 28.42 543 36.71 534.87 28.42 526.73 36.71 518.59 28.42 510.46 36.71 502.32 28.42 494.18 36.71 486.05 28.42 477.91 36.71 477.91 36.71 469.77 28.42 461.64 36.71 453.5 28.42 445.37 36.71 437.23 28.42 429.09 36.71 429.09 36.71 420.95 28.42 412.82 36.71 404.68 28.42 396.55 36.71 396.55 36.71 388.41 28.42 380.27 36.71 372.14 28.42 364 36.71 355.86 28.42 351.8 32.56 347.73 36.71 343.66 32.56 339.59 28.42 331.45 36.71 323.32 28.42 315.18 36.71 315.18 36.71 307.05 28.42 298.91 36.71 290.77 28.42 282.63 36.71 282.63 36.71 274.5 28.42 266.36 36.71 266.36 36.71 258.23 28.42 250.09 36.71 241.95 28.42 233.82 36.71 233.82 36.71 225.68 28.42 217.54 36.71 209.41 28.42 201.27 36.71 193.13 28.42 185 36.71 176.86 28.42 168.72 36.71 160.59 28.42 152.45 36.71 152.45 36.71 144.31 28.42 136.18 36.71 136.18 36.71 128.04 28.42 119.91 36.71 111.77 28.42 103.63 36.71 95.5 28.42 87.36 36.71 79.22 28.42 75.16 32.56 71.09 36.71 67.02 32.56 62.95 28.42 54.81 36.71 54.81 36.71 46.68 28.42 38.54 36.71 30.41 28.42 22.27 36.71 22.27 36.71 14.13 28.42 6 36.71 6 36.71 0 30.6 0 38.89 6 45 14.13 36.71 14.13 36.71 22.27 45 30.41 36.71 38.54 45 46.68 36.71 46.68 36.71 54.81 45 62.95 36.71 71.09 45 79.22 36.71 79.22 36.71 87.36 45 95.5 36.71 103.63 45 111.77 36.71 111.77 36.71 119.91 45 128.04 36.71 136.18 45 144.31 36.71 144.31 36.71 152.45 45 160.59 36.71 168.72 45 176.86 36.71 185 45 193.13 36.71 201.27 45 209.41 36.71 217.54 45 225.68 36.71 233.82 45 241.95 36.71 241.95 36.71 250.09 45 258.23 36.71 266.36 45 274.5 36.71 282.63 45 290.77 36.71 298.91 45 307.05 36.71 307.05 36.71 315.18 45 323.32 36.71 331.45 45 339.59 36.71 347.73 45 355.86 36.71 364 45 372.14 36.71 380.27 45 388.41 36.71 396.55 45 404.68 36.71 412.82 45 420.95 36.71 429.09 45 437.23 36.71 437.23 36.71 445.37 45 453.5 36.71 461.64 45 469.77 36.71 477.91 45 486.05 36.71 494.18 45 502.32 36.71 510.46 45 518.59 36.71 518.59 36.71 526.73 45 534.87 36.71 543 45 551.14 36.71 559.27 45 567.41 36.71 567.41 36.71 575.55 45 583.68 36.71 591.82 45 599.96 36.71 599.96 36.71 608.09 45 616.23 36.71 624.37 45 632.5 36.71 632.5 36.71 640.64 45 648.78 36.71 656.91 45 665.05 36.71 673.19 45 681.32 36.71 689.46 45 697.6 36.71 705.73 45 713.87 36.71 722 45 728 38.89 728 30.6 722 36.71 713.87 28.42"/><polygon class="cls-3" points="14.13 53.29 14.13 53.29 22.27 61.58 30.41 53.29 38.54 61.58 46.68 53.29 46.68 53.29 54.81 61.58 62.95 53.29 71.09 61.58 79.22 53.29 79.22 53.29 87.36 61.58 95.5 53.29 103.63 61.58 111.77 53.29 111.77 53.29 119.91 61.58 128.04 53.29 136.18 61.58 144.31 53.29 144.31 53.29 152.45 61.58 160.59 53.29 168.72 61.58 176.86 53.29 185 61.58 193.13 53.29 201.27 61.58 209.41 53.29 217.54 61.58 225.68 53.29 233.82 61.58 241.95 53.29 241.95 53.29 250.09 61.58 258.23 53.29 266.36 61.58 274.5 53.29 282.63 61.58 290.77 53.29 298.91 61.58 307.05 53.29 307.05 53.29 315.18 61.58 323.32 53.29 331.45 61.58 339.59 53.29 347.73 61.58 355.86 53.29 364 61.58 372.14 53.29 380.27 61.58 388.41 53.29 396.55 61.58 404.68 53.29 412.82 61.58 420.95 53.29 429.09 61.58 437.23 53.29 437.23 53.29 445.37 61.58 453.5 53.29 461.64 61.58 469.77 53.29 477.91 61.58 486.05 53.29 494.18 61.58 502.32 53.29 510.46 61.58 518.59 53.29 518.59 53.29 526.73 61.58 534.87 53.29 543 61.58 551.14 53.29 559.27 61.58 567.41 53.29 567.41 53.29 575.55 61.58 583.68 53.29 591.82 61.58 599.96 53.29 599.96 53.29 608.09 61.58 616.23 53.29 624.37 61.58 632.5 53.29 632.5 53.29 640.64 61.58 648.78 53.29 656.91 61.58 665.05 53.29 673.19 61.58 681.32 53.29 689.46 61.58 697.6 53.29 705.73 61.58 713.87 53.29 722 61.58 728 55.47 728 47.18 722 53.29 713.87 45 705.73 53.29 705.73 53.29 697.6 45 689.46 53.29 681.32 45 673.19 53.29 665.05 45 656.91 53.29 656.91 53.29 648.78 45 640.64 53.29 632.5 45 628.43 49.15 624.37 53.29 616.23 45 608.09 53.29 599.96 45 591.82 53.29 583.68 45 575.55 53.29 575.55 53.29 567.41 45 559.27 53.29 559.27 53.29 551.14 45 543 53.29 534.87 45 526.73 53.29 518.59 45 510.46 53.29 502.32 45 494.18 53.29 486.05 45 477.91 53.29 477.91 53.29 469.77 45 461.64 53.29 453.5 45 445.37 53.29 437.23 45 429.09 53.29 429.09 53.29 420.95 45 412.82 53.29 404.68 45 396.55 53.29 396.55 53.29 388.41 45 380.27 53.29 372.14 45 364 53.29 355.86 45 351.8 49.15 347.73 53.29 339.59 45 331.45 53.29 323.32 45 315.18 53.29 315.18 53.29 307.05 45 298.91 53.29 290.77 45 282.63 53.29 282.63 53.29 274.5 45 266.36 53.29 266.36 53.29 258.23 45 250.09 53.29 241.95 45 233.82 53.29 233.82 53.29 225.68 45 217.54 53.29 209.41 45 201.27 53.29 193.13 45 185 53.29 176.86 45 168.72 53.29 160.59 45 152.45 53.29 152.45 53.29 144.31 45 136.18 53.29 136.18 53.29 128.04 45 119.91 53.29 111.77 45 103.63 53.29 95.5 45 87.36 53.29 79.22 45 75.16 49.15 71.09 53.29 62.95 45 54.81 53.29 54.81 53.29 46.68 45 38.54 53.29 30.41 45 22.27 53.29 22.27 53.29 14.13 45 6 53.29 6 53.29 0 47.18 0 55.47 6 61.58 14.13 53.29"/><polygon class="cls-3" points="713.87 11.84 705.73 20.13 705.73 20.13 697.6 11.84 689.46 20.13 681.32 11.84 673.19 20.13 665.05 11.84 656.91 20.13 656.91 20.13 648.78 11.84 640.64 20.13 632.5 11.84 628.43 15.98 624.37 20.13 616.23 11.84 608.09 20.13 599.96 11.84 591.82 20.13 583.68 11.84 575.55 20.13 575.55 20.13 567.41 11.84 559.27 20.13 559.27 20.13 551.14 11.84 543 20.13 534.87 11.84 526.73 20.13 518.59 11.84 510.46 20.13 502.32 11.84 494.18 20.13 486.05 11.84 477.91 20.13 477.91 20.13 469.77 11.84 461.64 20.13 453.5 11.84 445.37 20.13 437.23 11.84 429.09 20.13 429.09 20.13 420.95 11.84 412.82 20.13 404.68 11.84 396.55 20.13 396.55 20.13 388.41 11.84 380.27 20.13 372.14 11.84 364 20.13 355.86 11.84 351.8 15.98 347.73 20.13 339.59 11.84 331.45 20.13 323.32 11.84 315.18 20.13 315.18 20.13 307.05 11.84 298.91 20.13 290.77 11.84 282.63 20.13 282.63 20.13 274.5 11.84 266.36 20.13 266.36 20.13 258.23 11.84 250.09 20.13 241.95 11.84 233.82 20.13 233.82 20.13 225.68 11.84 217.54 20.13 209.41 11.84 201.27 20.13 193.13 11.84 185 20.13 176.86 11.84 168.72 20.13 160.59 11.84 152.45 20.13 152.45 20.13 144.31 11.84 136.18 20.13 136.18 20.13 128.04 11.84 119.91 20.13 111.77 11.84 103.63 20.13 95.5 11.84 87.36 20.13 79.22 11.84 75.16 15.98 71.09 20.13 62.95 11.84 54.81 20.13 54.81 20.13 46.68 11.84 38.54 20.13 30.41 11.84 22.27 20.13 22.27 20.13 14.13 11.84 6 20.13 6 20.13 0 14.02 0 22.31 6 28.42 14.13 20.13 14.13 20.13 22.27 28.42 30.41 20.13 38.54 28.42 46.68 20.13 46.68 20.13 54.81 28.42 62.95 20.13 71.09 28.42 79.22 20.13 79.22 20.13 87.36 28.42 95.5 20.13 103.63 28.42 111.77 20.13 111.77 20.13 119.91 28.42 128.04 20.13 136.18 28.42 144.31 20.13 144.31 20.13 152.45 28.42 160.59 20.13 168.72 28.42 176.86 20.13 185 28.42 193.13 20.13 201.27 28.42 209.41 20.13 217.54 28.42 225.68 20.13 233.82 28.42 241.95 20.13 241.95 20.13 250.09 28.42 258.23 20.13 266.36 28.42 274.5 20.13 282.63 28.42 290.77 20.13 298.91 28.42 307.05 20.13 307.05 20.13 315.18 28.42 323.32 20.13 331.45 28.42 339.59 20.13 347.73 28.42 355.86 20.13 364 28.42 372.14 20.13 380.27 28.42 388.41 20.13 396.55 28.42 404.68 20.13 412.82 28.42 420.95 20.13 429.09 28.42 437.23 20.13 437.23 20.13 445.37 28.42 453.5 20.13 461.64 28.42 469.77 20.13 477.91 28.42 486.05 20.13 494.18 28.42 502.32 20.13 510.46 28.42 518.59 20.13 518.59 20.13 526.73 28.42 534.87 20.13 543 28.42 551.14 20.13 559.27 28.42 567.41 20.13 567.41 20.13 575.55 28.42 583.68 20.13 591.82 28.42 599.96 20.13 599.96 20.13 608.09 28.42 616.23 20.13 624.37 28.42 632.5 20.13 632.5 20.13 640.64 28.42 648.78 20.13 656.91 28.42 665.05 20.13 673.19 28.42 681.32 20.13 689.46 28.42 697.6 20.13 705.73 28.42 713.87 20.13 722 28.42 728 22.31 728 14.02 722 20.13 713.87 11.84"/></g><path class="cls-4" d="M457.13,40.76h-3.05V38.61h8.71v2.15h-3.1v9.17h-2.56Z"/><path class="cls-4" d="M465.57,47l-.8,2.91h-2.65l3.46-11.32h3.35l3.52,11.32h-2.76L468.82,47Zm2.87-1.91-.7-2.4c-.2-.67-.4-1.52-.57-2.18h0c-.16.66-.33,1.52-.52,2.18l-.67,2.4Z"/><path class="cls-4" d="M474,38.61h2.54v5h0c.25-.43.52-.84.78-1.23l2.56-3.77H483l-3.75,4.81,3.94,6.51h-3l-2.78-4.88-1,1.18v3.7H474Z"/><path class="cls-4" d="M491,45.14h-4.17v2.69h4.66v2.1h-7.22V38.61h7V40.7h-4.42v2.36H491Z"/><path class="cls-4" d="M498.16,40.76h-3.05V38.61h8.71v2.15h-3.1v9.17h-2.56Z"/><path class="cls-4" d="M507.74,38.61V43H512V38.61h2.56V49.93H512V45.19h-4.22v4.74h-2.56V38.61Z"/><path class="cls-4" d="M523.48,45.14h-4.17v2.69H524v2.1h-7.22V38.61h7V40.7h-4.42v2.36h4.17Z"/><path class="cls-4" d="M529.12,38.61H536V40.7h-4.35v2.6h4.07v2.08h-4.07v4.55h-2.56Z"/><path class="cls-4" d="M538,38.76a21.53,21.53,0,0,1,3.4-.24,5.68,5.68,0,0,1,3.66.9,2.85,2.85,0,0,1,1.05,2.37,3,3,0,0,1-2,2.78v0a2.86,2.86,0,0,1,1.52,2.11c.35,1.28.69,2.76.91,3.2h-2.62a13.73,13.73,0,0,1-.78-2.64c-.32-1.41-.79-1.79-1.84-1.81h-.77v4.45H538Zm2.53,4.87h1c1.27,0,2-.65,2-1.63s-.71-1.57-1.88-1.57a5.93,5.93,0,0,0-1.16.08Z"/><path class="cls-4" d="M554.65,45.14h-4.16v2.69h4.66v2.1h-7.22V38.61h7V40.7h-4.41v2.36h4.16Z"/><path class="cls-4" d="M563.62,45.14h-4.16v2.69h4.65v2.1H556.9V38.61h7V40.7h-4.41v2.36h4.16Z"/><path class="cls-4" d="M571.88,47l-.8,2.91h-2.64l3.45-11.32h3.35l3.53,11.32H576L575.14,47Zm2.88-1.91-.71-2.4c-.19-.67-.39-1.52-.56-2.18h0c-.17.66-.34,1.52-.52,2.18l-.68,2.4Z"/><path class="cls-4" d="M580.36,47.29a6.38,6.38,0,0,0,2.84.71c1.17,0,1.8-.49,1.8-1.24s-.54-1.1-1.9-1.58c-1.89-.67-3.12-1.7-3.12-3.35,0-1.93,1.62-3.4,4.28-3.4a6.77,6.77,0,0,1,2.89.57l-.56,2a5.55,5.55,0,0,0-2.37-.53c-1.11,0-1.64.51-1.64,1.09s.62,1,2.09,1.59c2,.75,2.94,1.79,2.94,3.39,0,1.89-1.45,3.52-4.57,3.52a7.25,7.25,0,0,1-3.2-.71Z"/><path class="cls-4" d="M589.43,47.29a6.38,6.38,0,0,0,2.84.71c1.17,0,1.8-.49,1.8-1.24s-.54-1.1-1.9-1.58c-1.89-.67-3.12-1.7-3.12-3.35,0-1.93,1.62-3.4,4.28-3.4a6.77,6.77,0,0,1,2.89.57l-.56,2a5.55,5.55,0,0,0-2.37-.53c-1.11,0-1.64.51-1.64,1.09s.62,1,2.09,1.59c2,.75,2.93,1.79,2.93,3.39,0,1.89-1.44,3.52-4.56,3.52a7.25,7.25,0,0,1-3.2-.71Z"/><path class="cls-4" d="M605.14,45.14H601v2.69h4.65v2.1h-7.21V38.61h7V40.7H601v2.36h4.16Z"/><path class="cls-4" d="M607.47,47.29a6.38,6.38,0,0,0,2.84.71c1.17,0,1.8-.49,1.8-1.24s-.54-1.1-1.9-1.58c-1.89-.67-3.12-1.7-3.12-3.35,0-1.93,1.62-3.4,4.28-3.4a6.77,6.77,0,0,1,2.89.57l-.56,2a5.55,5.55,0,0,0-2.37-.53c-1.11,0-1.65.51-1.65,1.09s.63,1,2.1,1.59c2,.75,2.93,1.79,2.93,3.39,0,1.89-1.44,3.52-4.56,3.52a7.25,7.25,0,0,1-3.2-.71Z"/><path class="cls-4" d="M616.54,47.29a6.38,6.38,0,0,0,2.84.71c1.17,0,1.79-.49,1.79-1.24s-.54-1.1-1.89-1.58c-1.89-.67-3.12-1.7-3.12-3.35,0-1.93,1.62-3.4,4.28-3.4a6.77,6.77,0,0,1,2.89.57l-.57,2a5.46,5.46,0,0,0-2.36-.53c-1.11,0-1.65.51-1.65,1.09s.63,1,2.1,1.59c2,.75,2.93,1.79,2.93,3.39,0,1.89-1.45,3.52-4.56,3.52a7.22,7.22,0,0,1-3.2-.71Z"/><path class="cls-4" d="M635.09,45.6c-.05-1.37-.1-3-.09-4.67h0c-.36,1.45-.84,3.06-1.26,4.4l-1.39,4.41h-2l-1.22-4.37c-.37-1.34-.74-2.94-1-4.44h0c0,1.54-.12,3.29-.18,4.7l-.22,4.3h-2.36L626,38.61h3.41l1.11,3.78c.36,1.3.7,2.72,1,4h0c.31-1.31.69-2.81,1.08-4.07l1.2-3.76h3.35l.61,11.32h-2.49Z"/><path class="cls-4" d="M646.46,45.14h-4.17v2.69H647v2.1h-7.22V38.61h7V40.7h-4.42v2.36h4.17Z"/><path class="cls-4" d="M648.7,49.93V38.61h3L654,42.76a33.66,33.66,0,0,1,1.85,3.88h0a44.16,44.16,0,0,1-.21-4.73v-3.3h2.35V49.93h-2.68L653,45.57a42.38,42.38,0,0,1-2-4h-.06c.08,1.5.11,3.11.11,5v3.4Z"/><path class="cls-4" d="M662.48,40.76h-3.06V38.61h8.72v2.15H665v9.17h-2.56Z"/><rect class="cls-5" x="449.03" y="30.57" width="224.16" height="28.86" rx="2.7"/><path class="cls-6" d="M81.64,27.36,74.3,34.7a.7.7,0,0,1-.54.2v4.71a.63.63,0,0,0,.37-.19L81.56,32a.72.72,0,0,1,.53-.2V27.16A.67.67,0,0,0,81.64,27.36Z"/><path class="cls-6" d="M91.77,38.19H81.38a.71.71,0,0,1-.52-.24l-3.47,3.2a.69.69,0,0,0,.54.26h10.5a.71.71,0,0,1,.5.21l3.33-3.23A.72.72,0,0,0,91.77,38.19Z"/><path class="cls-6" d="M91.28,53l-7.35-7.34a.7.7,0,0,1-.18-.64H79a.65.65,0,0,0,.2.48l7.43,7.42a.71.71,0,0,1,.2.49h4.63A.74.74,0,0,0,91.28,53Z"/><path class="cls-6" d="M77.23,49.29v10.5a.67.67,0,0,1-.24.51l3.28,3.29a.7.7,0,0,0,.18-.46V52.75a.66.66,0,0,1,.17-.45l-3.19-3.49A.66.66,0,0,0,77.23,49.29Z"/><path class="cls-6" d="M73.14,50.58,65.71,58a.67.67,0,0,1-.45.2v4.63a.66.66,0,0,0,.38-.19L73,55.3a.68.68,0,0,1,.51-.2V50.39A.64.64,0,0,0,73.14,50.58Z"/><path class="cls-6" d="M69.34,48.59H58.84a.68.68,0,0,1-.51-.23l-3.28,3.28a.68.68,0,0,0,.46.18H65.89a.69.69,0,0,1,.49.21l3.42-3.26A.7.7,0,0,0,69.34,48.59Z"/><path class="cls-6" d="M68.25,44.94a.65.65,0,0,0-.19-.43l-7.42-7.43a.69.69,0,0,1-.16-.73H55.82A.69.69,0,0,0,56,37l7.34,7.34a.71.71,0,0,1,.19.6Z"/><path class="cls-6" d="M70.05,40.71V30.21a.71.71,0,0,1,.25-.53L67,26.4a.67.67,0,0,0-.19.47V37.26a.72.72,0,0,1-.18.46l3.23,3.44A.67.67,0,0,0,70.05,40.71Z"/><path class="cls-7" d="M73.32,34.7l-1.26-1.25c-.27-.27-.49-.18-.49.2v3.5a1.87,1.87,0,0,0,.49,1.17l1.1,1.1a.68.68,0,0,0,.6.19V34.9A.64.64,0,0,1,73.32,34.7Z"/><path class="cls-7" d="M80.69,37.5V35.71c0-.38-.22-.47-.49-.2L77.73,38a1.92,1.92,0,0,0-.49,1.18v1.55a.7.7,0,0,0,.15.43L80.86,38A.71.71,0,0,1,80.69,37.5Z"/><path class="cls-7" d="M83.93,44.68l1.26-1.26c.27-.27.18-.49-.2-.49h-3.5a1.92,1.92,0,0,0-1.18.49l-1.1,1.1a.66.66,0,0,0-.2.5h4.74A.63.63,0,0,1,83.93,44.68Z"/><path class="cls-7" d="M83.12,51.57l-2.47-2.48a1.92,1.92,0,0,0-1.18-.49H77.92a.67.67,0,0,0-.49.21l3.19,3.49a.71.71,0,0,1,.52-.24h1.78C83.3,52.06,83.39,51.84,83.12,51.57Z"/><path class="cls-7" d="M75.21,51.67l-1.09-1.09a.69.69,0,0,0-.63-.19V55.1a.71.71,0,0,1,.47.2l1.26,1.26c.26.27.48.17.48-.21v-3.5A1.92,1.92,0,0,0,75.21,51.67Z"/><path class="cls-7" d="M69.8,48.77,66.38,52a.68.68,0,0,1,.2.48v1.77c0,.38.22.47.49.21L69.55,52A1.92,1.92,0,0,0,70,50.83V49.28A.71.71,0,0,0,69.8,48.77Z"/><path class="cls-7" d="M63.53,44.94a.6.6,0,0,1-.19.37l-1.26,1.27c-.27.27-.18.49.21.49h3.5A1.92,1.92,0,0,0,67,46.58l1.1-1.1a.64.64,0,0,0,.19-.54Z"/><path class="cls-7" d="M66.64,37.72a.68.68,0,0,1-.51.23H64.35c-.38,0-.47.22-.2.49l2.47,2.47a1.91,1.91,0,0,0,1.18.48h1.56a.7.7,0,0,0,.51-.23Z"/><path class="cls-4" d="M90.59,35.34l-8-8a.65.65,0,0,0-.52-.2V31.8a.77.77,0,0,1,.45.2l3.34,3.35a1.92,1.92,0,0,0,1.17.49h3.34C90.77,35.83,90.86,35.61,90.59,35.34Z"/><path class="cls-4" d="M92.26,38.39l-3.33,3.23a.76.76,0,0,1,.19.48v4.74a1.83,1.83,0,0,0,.5,1.16L92,50.26c.27.27.5.17.5-.21V38.88A.72.72,0,0,0,92.26,38.39Z"/><path class="cls-4" d="M86.84,53.41a.7.7,0,0,1-.2.49l-3.35,3.34a1.92,1.92,0,0,0-.49,1.18v3.35c0,.38.22.47.48.2l8-8a.71.71,0,0,0,.19-.57Z"/><path class="cls-4" d="M76.54,60.48H71.81a1.88,1.88,0,0,0-1.17.5l-2.27,2.34c-.26.28-.17.5.21.5H79.76a.68.68,0,0,0,.51-.23L77,60.3A.63.63,0,0,1,76.54,60.48Z"/><path class="cls-4" d="M64.73,58l-3.34-3.35a1.9,1.9,0,0,0-1.18-.49l-3.37,0c-.38,0-.47.22-.2.49l8,8a.68.68,0,0,0,.6.19V58.2A.68.68,0,0,1,64.73,58Z"/><path class="cls-4" d="M58.15,47.9V43.17a1.83,1.83,0,0,0-.5-1.17l-2.34-2.26c-.27-.27-.5-.17-.5.21V51.13a.66.66,0,0,0,.24.51l3.28-3.28A.68.68,0,0,1,58.15,47.9Z"/><path class="cls-4" d="M60.64,36.1,64,32.76a1.82,1.82,0,0,0,.47-1.18l0-3.26c0-.38-.23-.47-.5-.21L56,36a.77.77,0,0,0-.18.33h4.66A.56.56,0,0,1,60.64,36.1Z"/><path class="cls-4" d="M78.69,26.18H67.51a.7.7,0,0,0-.5.22l3.29,3.28a.68.68,0,0,1,.44-.16h4.73a1.85,1.85,0,0,0,1.17-.5l2.26-2.34C79.17,26.4,79.07,26.18,78.69,26.18Z"/><path class="cls-4" d="M90.82,60.59a1.62,1.62,0,1,1,0,3.23,1.62,1.62,0,1,1,0-3.23Zm0,.36A1.25,1.25,0,1,0,92,62.2,1.21,1.21,0,0,0,90.79,61Zm-.21,2h-.43V61.46a2.91,2.91,0,0,1,.64-.06.92.92,0,0,1,.58.12.38.38,0,0,1,.16.33c0,.17-.15.3-.34.36v0a.47.47,0,0,1,.3.4,1.71,1.71,0,0,0,.11.37h-.47a1.41,1.41,0,0,1-.11-.36.25.25,0,0,0-.29-.23h-.15Zm0-.88h.15c.19,0,.32-.07.32-.22s-.09-.21-.3-.21l-.17,0Z"/><path class="cls-3" d="M109.79,50c-3.77,0-6-2.38-6-6.16,0-4.23,2.63-6.27,6-6.27a9,9,0,0,1,3.57.69l.9-3.36a11.18,11.18,0,0,0-4.64-.83c-5.7,0-10.28,3.55-10.28,10,0,5.41,3.35,9.49,9.86,9.49a12.63,12.63,0,0,0,4.81-.81l-.62-3.36A10.22,10.22,0,0,1,109.79,50Z"/><path class="cls-3" d="M121.62,39.28c-4.41,0-7.32,2.83-7.32,7.26a6.71,6.71,0,0,0,7.07,7.05h0a6.85,6.85,0,0,0,7.18-7.28A6.65,6.65,0,0,0,121.62,39.28Zm-.17,11.25h0c-1.78,0-2.76-1.76-2.76-4.08,0-2,.78-4.12,2.79-4.12s2.71,2.08,2.71,4.09C124.16,48.88,123.13,50.53,121.45,50.53Z"/><path class="cls-3" d="M162.54,39.28a5.21,5.21,0,0,0-2.6.68,5.76,5.76,0,0,0-1.78,1.68h-.07a3.84,3.84,0,0,0-3.74-2.36,4.73,4.73,0,0,0-4.13,2.19l-.26.3A4.12,4.12,0,0,0,146,39.28a5.18,5.18,0,0,0-2.6.68,5.9,5.9,0,0,0-1.79,1.68h-.06a3.84,3.84,0,0,0-3.74-2.36,4.73,4.73,0,0,0-4.14,2.19h-.08l-.17-1.88h-3.6c0,1.23.11,2.66.11,4.37v9.32h4.14v-8a3.07,3.07,0,0,1,.16-1.09,2.19,2.19,0,0,1,2-1.52c1.37,0,2,1.19,2,2.89v7.67h4.14v-8a4.17,4.17,0,0,1,.14-1.06,2.11,2.11,0,0,1,2-1.49c1.27,0,1.9,1,2,2.72v7.84h4.16V45.22c0-.08,0-.16,0-.24a2.33,2.33,0,0,1,.16-.74,2.18,2.18,0,0,1,2-1.52c1.37,0,2,1.19,2,2.89v7.67h4.14v-8a4.17,4.17,0,0,1,.14-1.06,2.11,2.11,0,0,1,2-1.49c1.37,0,2,1.15,2,3.14v7.42h4.14V45.22C167.15,41.13,165.17,39.28,162.54,39.28Z"/><path class="cls-3" d="M181.6,39.59h-4.25v8.15a2.13,2.13,0,0,1-.18.92,2.24,2.24,0,0,1-2.12,1.48c-1.5,0-2.15-1.2-2.15-3.18V39.59h-4.24v8c0,4.21,2,6,4.8,6a4.89,4.89,0,0,0,4.28-2.24h.08l.2,1.93h3.68c0-1.15-.1-2.6-.1-4.4Z"/><path class="cls-3" d="M191.42,39.28a4.9,4.9,0,0,0-4.22,2.22h-.09l-.19-1.91h-3.69c.06,1.23.12,2.66.12,4.37v9.32h4.24v-7.9a3,3,0,0,1,.14-1.05,2.34,2.34,0,0,1,2.18-1.61c1.54,0,2.15,1.21,2.15,3v7.58h4.25V45.19C196.31,41.16,194.21,39.28,191.42,39.28Z"/><path class="cls-3" d="M200.19,33.27a2.24,2.24,0,0,0-2.41,2.26,2.22,2.22,0,0,0,2.34,2.27h0a2.27,2.27,0,1,0,0-4.53Z"/><path class="cls-3" d="M222.92,39.59l-1.67,6.72c-.21.79-.43,1.82-.62,2.55h-.09c-.17-.73-.45-1.74-.67-2.55l-2-6.72h-8V35.87L205.68,37v2.57H198V53.28h4.24V42.72h3.4v5.63c0,1.93.39,3.25,1.17,4.06a4.55,4.55,0,0,0,3.22,1.18,8.72,8.72,0,0,0,2.73-.37l0-3.21a6.13,6.13,0,0,1-1.26.11c-1.26,0-1.68-.76-1.68-2.41v-5h4.53l3.77,9.38a2,2,0,0,1,.16.7,1.2,1.2,0,0,1-.22.62,4.85,4.85,0,0,1-1.76,1.7,6.5,6.5,0,0,1-1.84.73l.89,3.59a7.56,7.56,0,0,0,4.11-1.88c1.54-1.37,2.85-3.53,4.8-9l3.19-9Z"/><path class="cls-3" d="M238.32,35.87v7h7.37v-7h3.17V53.28h-3.17V45.6h-7.37v7.68h-3.17V35.87Z"/><path class="cls-3" d="M254.06,47.88c.07,2.27,1.83,3.25,3.87,3.25a10.05,10.05,0,0,0,3.49-.57l.46,2.17a11.17,11.17,0,0,1-4.39.8c-4.08,0-6.48-2.5-6.48-6.35,0-3.49,2.12-6.77,6.15-6.77s5.42,3.36,5.42,6.12a8.17,8.17,0,0,1-.1,1.35Zm5.52-2.22c0-1.17-.49-3.08-2.61-3.08a3.1,3.1,0,0,0-2.91,3.08Z"/><path class="cls-3" d="M274.43,50.25a16.58,16.58,0,0,0,.21,3h-2.87l-.24-1.4h-.07a4.61,4.61,0,0,1-3.72,1.68,3.73,3.73,0,0,1-3.95-3.74c0-3.16,2.81-4.78,7.46-4.76v-.2c0-.83-.34-2.2-2.56-2.2a6.66,6.66,0,0,0-3.38.93l-.62-2.07a9.05,9.05,0,0,1,4.55-1.11c4,0,5.19,2.56,5.19,5.32Zm-3.1-3.12c-2.25,0-4.39.44-4.39,2.35a1.67,1.67,0,0,0,1.8,1.81,2.61,2.61,0,0,0,2.51-1.73,2.13,2.13,0,0,0,.08-.7Z"/><path class="cls-3" d="M277.26,34.94h3.18V53.28h-3.18Z"/><path class="cls-3" d="M287,37.47V40.7h3v2.37h-3v5.56c0,1.55.41,2.32,1.62,2.32a4.23,4.23,0,0,0,1.24-.13l.06,2.4a6.75,6.75,0,0,1-2.3.34,3.65,3.65,0,0,1-2.74-1,5,5,0,0,1-1-3.54V43.07h-1.78V40.7h1.78V38.35Z"/><path class="cls-3" d="M291.93,34.94h3.18V42.4h.05A4.25,4.25,0,0,1,296.74,41a4.46,4.46,0,0,1,2.19-.57c2.15,0,4.39,1.42,4.39,5.45v7.42h-3.17V46.2c0-1.81-.67-3.2-2.43-3.2a2.64,2.64,0,0,0-2.48,1.78,2.91,2.91,0,0,0-.13.95v7.55h-3.18Z"/><path class="cls-3" d="M311.12,53.28V35.87h3.64l4.5,7.46a52.73,52.73,0,0,1,3,5.84h0a71.77,71.77,0,0,1-.29-7.23V35.87h2.95V53.28h-3.31l-4.54-7.68a59.77,59.77,0,0,1-3.1-6l-.11,0c.13,2.24.18,4.54.18,7.41v6.23Z"/><path class="cls-3" d="M330.2,47.88c.08,2.27,1.84,3.25,3.88,3.25a10.09,10.09,0,0,0,3.49-.57l.46,2.17a11.17,11.17,0,0,1-4.39.8c-4.08,0-6.48-2.5-6.48-6.35,0-3.49,2.11-6.77,6.14-6.77s5.43,3.36,5.43,6.12a8.17,8.17,0,0,1-.1,1.35Zm5.53-2.22c0-1.17-.49-3.08-2.61-3.08-2,0-2.79,1.78-2.92,3.08Z"/><path class="cls-3" d="M344.41,37.47V40.7h3v2.37h-3v5.56c0,1.55.41,2.32,1.63,2.32a4.32,4.32,0,0,0,1.24-.13l.05,2.4a6.75,6.75,0,0,1-2.3.34,3.65,3.65,0,0,1-2.74-1,5,5,0,0,1-1-3.54V43.07H339.5V40.7h1.78V38.35Z"/><path class="cls-3" d="M351.41,40.7l1.29,5.7c.31,1.35.59,2.72.82,4.09h.06c.25-1.37.67-2.77,1-4.06l1.66-5.73h2.58l1.57,5.58c.39,1.47.73,2.84,1,4.21h.05c.18-1.37.49-2.74.83-4.21l1.39-5.58h3.13l-3.95,12.58h-3l-1.49-5.12a36.74,36.74,0,0,1-1-4h-.05a40.8,40.8,0,0,1-1,4l-1.6,5.12h-3L348.15,40.7Z"/><path class="cls-3" d="M379.94,46.87c0,4.62-3.25,6.69-6.45,6.69a6.09,6.09,0,0,1-6.31-6.48c0-4.14,2.71-6.67,6.51-6.67S379.94,43.05,379.94,46.87Zm-9.48.13c0,2.43,1.22,4.26,3.13,4.26s3.07-1.76,3.07-4.31c0-2-.87-4.24-3-4.24S370.46,44.91,370.46,47Z"/><path class="cls-3" d="M381.92,44.75c0-1.7,0-2.94-.1-4h2.74l.13,2.37h.07a3.77,3.77,0,0,1,3.46-2.66,3.45,3.45,0,0,1,.75.08v3a5.19,5.19,0,0,0-1-.08,2.8,2.8,0,0,0-2.84,2.41,4.68,4.68,0,0,0-.08,1v6.54h-3.18Z"/><path class="cls-3" d="M393.77,46.22h.06c.31-.49.67-1,1-1.47l3.07-4h3.83L397,45.84l5.32,7.44h-3.9l-3.62-5.56L393.77,49v4.29H390.6V34.94h3.17Z"/></svg>