<svg id="Layer_1" data-name="Layer 1" xmlns="http://www.w3.org/2000/svg" viewBox="0 0 728 90"><defs><style>.cls-1{fill:#fff;}.cls-2{fill:#f1b533;}</style></defs><path class="cls-1" d="M35,54.87l0-2.21,2.08-.45,7.77-22H50l7.75,22,2.24.45v2.21H49.57V52.66l2.63-.45L51,48.28H42.24L41.1,52.23l2.65.43v2.21ZM46,35.37l-3,10.4h7.26L47,35.37,46.48,33Z"/><path class="cls-1" d="M71.23,53.84V49.31h3L75,51.82a1.79,1.79,0,0,0,.44.42,3.16,3.16,0,0,0,.71.37,5.4,5.4,0,0,0,2,.37,3.7,3.7,0,0,0,1.31-.19,2.41,2.41,0,0,0,.82-.49,1.5,1.5,0,0,0,.41-.68,2.37,2.37,0,0,0,.12-.73,2,2,0,0,0-.35-1.17,3.44,3.44,0,0,0-1-.9A11.48,11.48,0,0,0,78,48l-2-.84a12.86,12.86,0,0,1-2-1,6.92,6.92,0,0,1-1.5-1.25,4.9,4.9,0,0,1-1-1.55,5.09,5.09,0,0,1-.34-1.92,4.87,4.87,0,0,1,.47-2.12,4.82,4.82,0,0,1,1.41-1.69,7.27,7.27,0,0,1,2.32-1.13,11.53,11.53,0,0,1,3.21-.41,13.14,13.14,0,0,1,1.89.13c.56.09,1.06.19,1.51.3s.87.23,1.24.36a9.87,9.87,0,0,0,1.1.28v4.44l-2.81,0-.75-2.15a2.3,2.3,0,0,0-.86-.71,3.28,3.28,0,0,0-1.59-.37,4.2,4.2,0,0,0-1.22.16,2.2,2.2,0,0,0-.79.44,1.63,1.63,0,0,0-.43.6,2,2,0,0,0-.13.67,2.13,2.13,0,0,0,.44,1.38,3.8,3.8,0,0,0,1.1.91,8.37,8.37,0,0,0,1.45.65c.52.19,1,.39,1.49.61.71.31,1.39.64,2,1A8.06,8.06,0,0,1,84,46a5.19,5.19,0,0,1,1.19,1.6,4.86,4.86,0,0,1,.45,2.17,5.21,5.21,0,0,1-.46,2.17,4.73,4.73,0,0,1-1.39,1.74,6.73,6.73,0,0,1-2.32,1.16,11.37,11.37,0,0,1-3.26.42,13.87,13.87,0,0,1-2.33-.18c-.7-.12-1.34-.25-1.92-.41s-1.09-.31-1.54-.46A9.53,9.53,0,0,0,71.23,53.84Z"/><path class="cls-1" d="M88.07,54.87V52.71l2.35-.31V40l-2.18-.7V36.89l5.92-.79h.08l1.17.69v15.6l2.34.32v2.16Zm4.28-21.5a2.23,2.23,0,0,1-1-.21,2.14,2.14,0,0,1-.74-.55,2.33,2.33,0,0,1-.45-.82,3.33,3.33,0,0,1-.15-1,4.1,4.1,0,0,1,.17-1.18,2.8,2.8,0,0,1,.52-1,2.52,2.52,0,0,1,.88-.66,2.92,2.92,0,0,1,1.22-.24h0a2.67,2.67,0,0,1,1.14.22,2.23,2.23,0,0,1,.8.58,2.27,2.27,0,0,1,.47.83,3.19,3.19,0,0,1,.16,1,3.87,3.87,0,0,1-.18,1.2,2.79,2.79,0,0,1-.54,1,2.57,2.57,0,0,1-.94.64,3.45,3.45,0,0,1-1.34.23Z"/><path class="cls-1" d="M100.18,54.87v-2.1l2-.37V40L100,39.32V36.89l5.7-.79h.08l.85.69v1.92a8.07,8.07,0,0,1,1.32-1,12.33,12.33,0,0,1,1.67-.82,12,12,0,0,1,1.83-.56,8.11,8.11,0,0,1,1.77-.21,6.28,6.28,0,0,1,3,.59,3.76,3.76,0,0,1,1.66,1.9A8.27,8.27,0,0,1,119,37.8a11.13,11.13,0,0,1,1.62-.81,13.48,13.48,0,0,1,1.86-.6,7.9,7.9,0,0,1,1.89-.24,7.13,7.13,0,0,1,2.53.38,3.46,3.46,0,0,1,1.63,1.26,5.63,5.63,0,0,1,.87,2.26,19.2,19.2,0,0,1,.26,3.4V52.4l2.27.37v2.1H123v-2.1l1.69-.37V43.59a13.84,13.84,0,0,0-.13-2.1,4,4,0,0,0-.46-1.4,2,2,0,0,0-.87-.77,3.43,3.43,0,0,0-1.37-.24,4.23,4.23,0,0,0-.89.11c-.32.08-.64.17-1,.28s-.63.24-.93.38a8.1,8.1,0,0,0-.79.42,10.52,10.52,0,0,1,.18,1.48c0,.53.05,1.1.05,1.73v8.94l2.14.35v2.1h-9v-2.1l1.93-.35v-9a11.9,11.9,0,0,0-.13-1.92,3.64,3.64,0,0,0-.44-1.33,1.94,1.94,0,0,0-.86-.77,3.34,3.34,0,0,0-1.36-.25,4.55,4.55,0,0,0-1,.12,9.06,9.06,0,0,0-1,.28,7.06,7.06,0,0,0-.92.38,5.49,5.49,0,0,0-.71.45v12l2.18.37v2.1Z"/><path class="cls-1" d="M133.57,60.81l2.42-.4V40l-2.2-.68V36.89l5.77-.79h.08l.83.69V38.5a6.38,6.38,0,0,1,.95-.91,6.05,6.05,0,0,1,1.22-.78,7.42,7.42,0,0,1,1.48-.55,6.91,6.91,0,0,1,1.74-.21,7.71,7.71,0,0,1,2.78.5,5.73,5.73,0,0,1,2.27,1.59A7.75,7.75,0,0,1,152.43,41,13.61,13.61,0,0,1,153,45.1a11.76,11.76,0,0,1-.66,4,9.53,9.53,0,0,1-1.87,3.22,8.73,8.73,0,0,1-3,2.15,9.73,9.73,0,0,1-4,.78c-.27,0-.53,0-.8,0l-.75-.08-.66-.1a3,3,0,0,1-.46-.1l.09,2.68v2.8l3.19.4v2H133.57ZM143.82,39a4.14,4.14,0,0,0-1.73.35,3.66,3.66,0,0,0-1.16.78v12.2a2.43,2.43,0,0,0,.89.54,4.3,4.3,0,0,0,1.48.23A3.77,3.77,0,0,0,145,52.7a3.51,3.51,0,0,0,1.37-1.25,7.6,7.6,0,0,0,.93-2.28,15.34,15.34,0,0,0,.39-3.48,14.08,14.08,0,0,0-.24-3.1,6.38,6.38,0,0,0-.76-2.08,3.24,3.24,0,0,0-1.22-1.17A3.52,3.52,0,0,0,143.82,39Z"/><path class="cls-1" d="M155.05,54.87V52.71l2.33-.32V30.88l-2.4-.41V28.59l6.3-.79h.05l1,.76V52.39l2.43.32v2.16Z"/><path class="cls-1" d="M175.32,55.24a9.82,9.82,0,0,1-3.91-.71,7.1,7.1,0,0,1-2.69-2,8.17,8.17,0,0,1-1.55-3,13.73,13.73,0,0,1-.5-3.84,12.11,12.11,0,0,1,.63-4,8.83,8.83,0,0,1,1.8-3,7.56,7.56,0,0,1,2.79-1.91,9.48,9.48,0,0,1,3.61-.67q6.67,0,7,6.53c0,.74,0,1.41,0,2a9.44,9.44,0,0,1-.16,1.5H171.77a10.16,10.16,0,0,0,.47,2.73,5.33,5.33,0,0,0,1,1.83,3.67,3.67,0,0,0,1.49,1,5.43,5.43,0,0,0,1.89.32,8.16,8.16,0,0,0,1.53-.13,10.93,10.93,0,0,0,1.31-.32,8.13,8.13,0,0,0,1.1-.44,9,9,0,0,0,.85-.47l.83,2a5.6,5.6,0,0,1-1.12.88,10,10,0,0,1-1.64.85,12.66,12.66,0,0,1-2,.64A9.35,9.35,0,0,1,175.32,55.24Zm-.44-17a3,3,0,0,0-1.16.22,2.25,2.25,0,0,0-1,.85,5.87,5.87,0,0,0-.67,1.75,14.88,14.88,0,0,0-.33,2.89h5.78a2,2,0,0,1,0-.22c0-.1,0-.2,0-.31s0-.21,0-.3V42.9a11.83,11.83,0,0,0-.12-1.67,5.22,5.22,0,0,0-.41-1.51,2.87,2.87,0,0,0-.82-1.08A2.09,2.09,0,0,0,174.88,38.23Z"/><path class="cls-1" d="M195.85,53.84V49.31h3l.84,2.51a1.79,1.79,0,0,0,.44.42,3.16,3.16,0,0,0,.71.37,5.4,5.4,0,0,0,2,.37,3.7,3.7,0,0,0,1.31-.19,2.41,2.41,0,0,0,.82-.49,1.5,1.5,0,0,0,.41-.68,2.37,2.37,0,0,0,.12-.73,2,2,0,0,0-.35-1.17,3.44,3.44,0,0,0-1-.9,11.48,11.48,0,0,0-1.54-.8l-2-.84a12.86,12.86,0,0,1-2-1,6.92,6.92,0,0,1-1.5-1.25,4.9,4.9,0,0,1-1-1.55,5.09,5.09,0,0,1-.34-1.92,4.87,4.87,0,0,1,.47-2.12,4.82,4.82,0,0,1,1.41-1.69A7.27,7.27,0,0,1,200,36.52a11.53,11.53,0,0,1,3.21-.41,13.14,13.14,0,0,1,1.89.13c.56.09,1.06.19,1.51.3s.87.23,1.24.36a9.87,9.87,0,0,0,1.1.28v4.44l-2.81,0-.75-2.15a2.3,2.3,0,0,0-.86-.71,3.28,3.28,0,0,0-1.59-.37,4.2,4.2,0,0,0-1.22.16,2.2,2.2,0,0,0-.79.44,1.63,1.63,0,0,0-.43.6,2,2,0,0,0-.12.67,2.13,2.13,0,0,0,.43,1.38,3.8,3.8,0,0,0,1.1.91,8.37,8.37,0,0,0,1.45.65c.52.19,1,.39,1.49.61.71.31,1.39.64,2,1A8.06,8.06,0,0,1,208.6,46a5.19,5.19,0,0,1,1.19,1.6,4.86,4.86,0,0,1,.45,2.17,5.21,5.21,0,0,1-.46,2.17,4.73,4.73,0,0,1-1.39,1.74,6.73,6.73,0,0,1-2.32,1.16,11.37,11.37,0,0,1-3.26.42,13.87,13.87,0,0,1-2.33-.18c-.7-.12-1.34-.25-1.92-.41s-1.09-.31-1.54-.46A9.53,9.53,0,0,0,195.85,53.84Z"/><path class="cls-1" d="M212.52,45.86a11.54,11.54,0,0,1,.66-4,8.88,8.88,0,0,1,1.86-3.1,8.24,8.24,0,0,1,2.92-2,9.89,9.89,0,0,1,3.85-.72,15,15,0,0,1,2,.12c.6.08,1.14.18,1.61.28s.88.22,1.22.33l.84.27-.16,5.49h-2.84l-.93-2.83a3.24,3.24,0,0,0-.87-1.07,2.07,2.07,0,0,0-1.26-.38,2.78,2.78,0,0,0-1.37.36,3.23,3.23,0,0,0-1.16,1.14,6.75,6.75,0,0,0-.82,2,12.82,12.82,0,0,0-.3,3,15.67,15.67,0,0,0,.31,3.39,6.35,6.35,0,0,0,.92,2.24,3.46,3.46,0,0,0,1.47,1.23,4.88,4.88,0,0,0,2,.38,7.45,7.45,0,0,0,2.59-.41,9.2,9.2,0,0,0,1.83-.87l.85,1.95a5.86,5.86,0,0,1-1,.82A10.33,10.33,0,0,1,223.34,55a8.75,8.75,0,0,1-2.13.26,9.94,9.94,0,0,1-3.92-.71,7.22,7.22,0,0,1-2.7-2,8.11,8.11,0,0,1-1.56-3A13,13,0,0,1,212.52,45.86Z"/><path class="cls-1" d="M230,54.87V52.71l2.32-.31V40l-2.2-.68V36.89l5.52-.79h.09l.86.69v1.34l0,2.51h.06a7.72,7.72,0,0,1,.71-1.3,8.55,8.55,0,0,1,1.25-1.51,7.61,7.61,0,0,1,1.73-1.26,4.38,4.38,0,0,1,2.12-.52,5,5,0,0,1,.76,0,2.92,2.92,0,0,1,.44.1v5.58a2.82,2.82,0,0,0-.92-.28,9.18,9.18,0,0,0-1.78-.16,10.55,10.55,0,0,0-1.13.07,10.23,10.23,0,0,0-1.06.17,6.16,6.16,0,0,0-.88.25,2.49,2.49,0,0,0-.59.29V52.39l4,.38v2.1Z"/><path class="cls-1" d="M254.11,55.24a9.81,9.81,0,0,1-3.9-.71,7.22,7.22,0,0,1-2.7-2,8.17,8.17,0,0,1-1.55-3,14.11,14.11,0,0,1-.5-3.84,11.85,11.85,0,0,1,.64-4,8.65,8.65,0,0,1,1.79-3,7.72,7.72,0,0,1,2.79-1.91,9.55,9.55,0,0,1,3.61-.67q6.69,0,7,6.53c0,.74,0,1.41,0,2a9.32,9.32,0,0,1-.17,1.5H250.57a9.78,9.78,0,0,0,.47,2.73,5.16,5.16,0,0,0,1,1.83,3.74,3.74,0,0,0,1.49,1,5.51,5.51,0,0,0,1.89.32,8.16,8.16,0,0,0,1.53-.13,10.65,10.65,0,0,0,1.32-.32,8,8,0,0,0,1.09-.44,9,9,0,0,0,.85-.47l.84,2a5.9,5.9,0,0,1-1.12.88,10.58,10.58,0,0,1-1.65.85,12.54,12.54,0,0,1-2,.64A9.5,9.5,0,0,1,254.11,55.24Zm-.43-17a3,3,0,0,0-1.17.22,2.17,2.17,0,0,0-.95.85,5.85,5.85,0,0,0-.68,1.75,15.7,15.7,0,0,0-.33,2.89h5.79v-.22a3,3,0,0,0,0-.31c0-.1,0-.21,0-.3V42.9a13.51,13.51,0,0,0-.11-1.67,5.56,5.56,0,0,0-.42-1.51,2.78,2.78,0,0,0-.82-1.08A2.06,2.06,0,0,0,253.68,38.23Z"/><path class="cls-1" d="M272.26,55.24a9.82,9.82,0,0,1-3.91-.71,7.1,7.1,0,0,1-2.69-2,8.18,8.18,0,0,1-1.56-3,14.11,14.11,0,0,1-.5-3.84,12.1,12.1,0,0,1,.64-4,8.52,8.52,0,0,1,1.8-3,7.6,7.6,0,0,1,2.78-1.91,9.55,9.55,0,0,1,3.61-.67q6.69,0,7,6.53c0,.74,0,1.41,0,2a8.3,8.3,0,0,1-.17,1.5H268.71a10.16,10.16,0,0,0,.47,2.73,5.49,5.49,0,0,0,1,1.83,3.74,3.74,0,0,0,1.49,1,5.53,5.53,0,0,0,1.9.32,8.16,8.16,0,0,0,1.53-.13,10.93,10.93,0,0,0,1.31-.32,8.29,8.29,0,0,0,1.94-.91l.84,2a5.9,5.9,0,0,1-1.12.88,10.46,10.46,0,0,1-1.64.85,13,13,0,0,1-2,.64A9.35,9.35,0,0,1,272.26,55.24Zm-.44-17a3,3,0,0,0-1.17.22,2.23,2.23,0,0,0-.95.85,5.61,5.61,0,0,0-.67,1.75,14.88,14.88,0,0,0-.33,2.89h5.78a2,2,0,0,1,0-.22c0-.1,0-.2,0-.31s0-.21,0-.3V42.9a13.51,13.51,0,0,0-.11-1.67,5.56,5.56,0,0,0-.41-1.51,2.87,2.87,0,0,0-.82-1.08A2.09,2.09,0,0,0,271.82,38.23Z"/><path class="cls-1" d="M282.15,54.87V52.71l2.08-.32V40L282,39.32V36.89l5.77-.79h.08l.85.69v1.92a9,9,0,0,1,1.26-1,9.31,9.31,0,0,1,1.57-.82,11.23,11.23,0,0,1,1.78-.58,8.53,8.53,0,0,1,1.88-.21,7.16,7.16,0,0,1,2.59.4,3.52,3.52,0,0,1,1.65,1.29,5.78,5.78,0,0,1,.87,2.28,19,19,0,0,1,.26,3.36V52.4l2.29.31v2.16h-9.07V52.71l1.75-.31v-9a13.44,13.44,0,0,0-.11-1.92,3.66,3.66,0,0,0-.41-1.33,1.85,1.85,0,0,0-.82-.77,3.25,3.25,0,0,0-1.35-.25,5,5,0,0,0-1.08.12,6.61,6.61,0,0,0-1,.32,7,7,0,0,0-.87.43,5.73,5.73,0,0,0-.68.45V52.39l2.16.32v2.16Z"/><path class="cls-1" d="M304.77,54.87V52.71l2.36-.31V40L305,39.3V36.89l5.91-.79h.08l1.18.69v15.6l2.34.32v2.16Zm4.29-21.5a2.2,2.2,0,0,1-1-.21,2.14,2.14,0,0,1-.74-.55,2.33,2.33,0,0,1-.45-.82,3.33,3.33,0,0,1-.15-1,3.78,3.78,0,0,1,.17-1.18,2.64,2.64,0,0,1,.52-1,2.52,2.52,0,0,1,.88-.66,2.89,2.89,0,0,1,1.22-.24h0a2.67,2.67,0,0,1,1.14.22,2.19,2.19,0,0,1,.79.58,2.16,2.16,0,0,1,.48.83,3.19,3.19,0,0,1,.15,1,4.19,4.19,0,0,1-.17,1.2,2.79,2.79,0,0,1-.54,1,2.66,2.66,0,0,1-.94.64,3.45,3.45,0,0,1-1.34.23Z"/><path class="cls-1" d="M316.83,54.87V52.71l2.07-.32V40l-2.19-.68V36.89l5.77-.79h.08l.86.69v1.92a9.48,9.48,0,0,1,1.25-1,10.14,10.14,0,0,1,1.57-.82,11.58,11.58,0,0,1,1.78-.58,8.69,8.69,0,0,1,1.89-.21,7.23,7.23,0,0,1,2.59.4,3.52,3.52,0,0,1,1.65,1.29,5.78,5.78,0,0,1,.87,2.28,19,19,0,0,1,.26,3.36V52.4l2.28.31v2.16h-9.07V52.71l1.76-.31v-9a13.3,13.3,0,0,0-.12-1.92,3.48,3.48,0,0,0-.41-1.33,1.8,1.8,0,0,0-.82-.77,3.2,3.2,0,0,0-1.34-.25,4.83,4.83,0,0,0-1.08.12,6.27,6.27,0,0,0-1,.32,5.87,5.87,0,0,0-.87.43,5.73,5.73,0,0,0-.68.45V52.39l2.15.32v2.16Z"/><path class="cls-1" d="M347.68,48.57a15.43,15.43,0,0,1-2.45-.19,2.4,2.4,0,0,0-.45.63,1.9,1.9,0,0,0-.17.85,1.6,1.6,0,0,0,.21.9,1.22,1.22,0,0,0,.66.52,3.71,3.71,0,0,0,1.15.25,16.18,16.18,0,0,0,1.68.07h3.22a9.21,9.21,0,0,1,5.18,1.17,4.35,4.35,0,0,1,1.71,3.86,5.37,5.37,0,0,1-.85,2.94,7.53,7.53,0,0,1-2.28,2.25A11.66,11.66,0,0,1,352,63.26a15.06,15.06,0,0,1-4,.5h0a16.27,16.27,0,0,1-3.89-.4,8.23,8.23,0,0,1-2.65-1.11,4.48,4.48,0,0,1-1.54-1.69,4.85,4.85,0,0,1-.49-2.15,3.45,3.45,0,0,1,.28-1.39,4.67,4.67,0,0,1,.72-1.19,4.55,4.55,0,0,1,1.06-.94,5.43,5.43,0,0,1,1.25-.63A3.66,3.66,0,0,1,341.3,53a3,3,0,0,1-.5-1.74,3.34,3.34,0,0,1,.65-2.07,6.4,6.4,0,0,1,1.64-1.49,5.11,5.11,0,0,1-2.42-2.09,6.29,6.29,0,0,1-.79-3.23,5.26,5.26,0,0,1,.66-2.62,6.1,6.1,0,0,1,1.78-2,8.53,8.53,0,0,1,2.62-1.28,11.12,11.12,0,0,1,3.21-.45h0c2.68,0,4.67.51,6,1.55a3.15,3.15,0,0,1,.62-.56,4.62,4.62,0,0,1,.88-.51,8,8,0,0,1,1.11-.38A5.43,5.43,0,0,1,358,36h.76v3.61h-3.17a7.11,7.11,0,0,1,.28,1.08,6.7,6.7,0,0,1,.1,1.22,6,6,0,0,1-.6,2.67,6.15,6.15,0,0,1-1.71,2.1,8.13,8.13,0,0,1-2.63,1.39,10.93,10.93,0,0,1-3.37.5Zm-.82,6.51a11.72,11.72,0,0,1-1.93-.15,4,4,0,0,0-.61.93,3.74,3.74,0,0,0-.28,1.57,5.24,5.24,0,0,0,.29,1.85,2.91,2.91,0,0,0,.86,1.22,3.37,3.37,0,0,0,1.39.69,7.83,7.83,0,0,0,1.92.21h0a8.12,8.12,0,0,0,1.91-.23,5.44,5.44,0,0,0,1.67-.69,3.71,3.71,0,0,0,1.18-1.15,3,3,0,0,0,.44-1.62,4.2,4.2,0,0,0-.15-1.21,1.62,1.62,0,0,0-.55-.82,2.57,2.57,0,0,0-1.08-.46,9.29,9.29,0,0,0-1.75-.14Zm1.21-8.67h0a2.59,2.59,0,0,0,1.36-.33,2.32,2.32,0,0,0,.84-.89,4.06,4.06,0,0,0,.43-1.34,10.68,10.68,0,0,0,.12-1.63,5.42,5.42,0,0,0-.68-3.08,2.58,2.58,0,0,0-2.25-1h0a2.53,2.53,0,0,0-2.21,1,5.21,5.21,0,0,0-.67,3,10.43,10.43,0,0,0,.14,1.75,4.11,4.11,0,0,0,.5,1.37,2.46,2.46,0,0,0,1,.89A3.08,3.08,0,0,0,348.07,46.41Z"/><path class="cls-1" d="M370.39,54.87V52.74l2.57-.43v-13h-2.83V37.39l2.83-.81v-.93a7.48,7.48,0,0,1,.79-3.44,8.68,8.68,0,0,1,2-2.62,8.89,8.89,0,0,1,2.77-1.66,8.37,8.37,0,0,1,3-.58,6.34,6.34,0,0,1,1.24.09l.65.18v4.82a2.66,2.66,0,0,0-.59-.44,4.86,4.86,0,0,0-.86-.39,7.2,7.2,0,0,0-1-.28,5.22,5.22,0,0,0-1.11-.11,3.18,3.18,0,0,0-.79.09,1.38,1.38,0,0,0-.61.35,1.64,1.64,0,0,0-.38.68,3.58,3.58,0,0,0-.14,1.08l0,3.16h4.14v2.74H378V52.4l3.57.34v2.13Z"/><path class="cls-1" d="M383.89,45.75a11,11,0,0,1,.76-4.27,8.82,8.82,0,0,1,2-3,8.13,8.13,0,0,1,2.91-1.8,10,10,0,0,1,3.44-.6,9.85,9.85,0,0,1,3.7.65,7.18,7.18,0,0,1,2.71,1.88,8.08,8.08,0,0,1,1.66,3,12.88,12.88,0,0,1,.57,4,11.43,11.43,0,0,1-.76,4.35,8.68,8.68,0,0,1-2,3A8,8,0,0,1,396,54.67a10.37,10.37,0,0,1-3.43.57,9.89,9.89,0,0,1-3.7-.65,7.3,7.3,0,0,1-2.72-1.88,8.1,8.1,0,0,1-1.67-3A13.19,13.19,0,0,1,383.89,45.75ZM392.82,53a2.82,2.82,0,0,0,1.53-.4,3,3,0,0,0,1.07-1.24,7.49,7.49,0,0,0,.63-2.17,21.84,21.84,0,0,0,.2-3.15,25.59,25.59,0,0,0-.19-3.35,9.59,9.59,0,0,0-.59-2.44,3.67,3.67,0,0,0-1.08-1.49,2.63,2.63,0,0,0-1.64-.51,2.87,2.87,0,0,0-1.54.4,3,3,0,0,0-1.08,1.24,6.89,6.89,0,0,0-.65,2.17,20.37,20.37,0,0,0-.21,3.15,27.59,27.59,0,0,0,.19,3.35,9.51,9.51,0,0,0,.62,2.44,3.7,3.7,0,0,0,1.1,1.49A2.63,2.63,0,0,0,392.82,53Z"/><path class="cls-1" d="M404.11,54.87V52.71l2.32-.31V40l-2.19-.68V36.89l5.51-.79h.1l.85.69v3.85h.06a7.54,7.54,0,0,1,.7-1.3,9.09,9.09,0,0,1,1.26-1.51,7.55,7.55,0,0,1,1.72-1.26,4.41,4.41,0,0,1,2.12-.52,5.15,5.15,0,0,1,.77,0,3.24,3.24,0,0,1,.44.1v5.58a2.91,2.91,0,0,0-.93-.28,9.1,9.1,0,0,0-1.78-.16,10.88,10.88,0,0,0-1.13.07,10.47,10.47,0,0,0-1.05.17,5.81,5.81,0,0,0-.88.25,2.4,2.4,0,0,0-.6.29V52.39l4,.38v2.1Z"/><path class="cls-2" d="M430,54.87V52.71l2-.32V30.88l-2.42-.41V28.59l6.27-.79h.08l1,.76,0,7.59-.26,2.56a11.24,11.24,0,0,1,1.09-.86,10.83,10.83,0,0,1,1.48-.83A9.9,9.9,0,0,1,441,36.4a8.13,8.13,0,0,1,2.06-.25,6.78,6.78,0,0,1,2.61.43,3.58,3.58,0,0,1,1.63,1.34,5.9,5.9,0,0,1,.86,2.28,19.13,19.13,0,0,1,.25,3.26v8.93l2.27.32v2.16h-9v-2.1l1.79-.35v-9a13.3,13.3,0,0,0-.12-1.92,3.47,3.47,0,0,0-.42-1.33,1.91,1.91,0,0,0-.87-.77,3.67,3.67,0,0,0-1.43-.25,4.66,4.66,0,0,0-1,.12,8.18,8.18,0,0,0-1,.28,8.44,8.44,0,0,0-.92.38,5.18,5.18,0,0,0-.73.45v12l2.21.32v2.16Z"/><path class="cls-2" d="M461,55.24a9.86,9.86,0,0,1-3.91-.71,7.18,7.18,0,0,1-2.69-2,8.17,8.17,0,0,1-1.55-3,13.73,13.73,0,0,1-.5-3.84,12.11,12.11,0,0,1,.63-4,8.83,8.83,0,0,1,1.8-3,7.56,7.56,0,0,1,2.79-1.91,9.51,9.51,0,0,1,3.61-.67q6.69,0,7,6.53c0,.74,0,1.41,0,2a10.61,10.61,0,0,1-.17,1.5H457.5a10.19,10.19,0,0,0,.46,2.73,5.33,5.33,0,0,0,1,1.83,3.67,3.67,0,0,0,1.49,1,5.43,5.43,0,0,0,1.89.32,8.16,8.16,0,0,0,1.53-.13,11.11,11.11,0,0,0,1.32-.32,8.53,8.53,0,0,0,1.09-.44,9,9,0,0,0,.85-.47l.84,2a6.24,6.24,0,0,1-1.12.88,10.58,10.58,0,0,1-1.65.85,12.66,12.66,0,0,1-2,.64A9.35,9.35,0,0,1,461,55.24Zm-.43-17a3,3,0,0,0-1.17.22,2.17,2.17,0,0,0-.95.85,5.6,5.6,0,0,0-.68,1.75,14.88,14.88,0,0,0-.33,2.89h5.78s0-.12,0-.22,0-.2,0-.31,0-.21,0-.3V42.9a11.83,11.83,0,0,0-.12-1.67,5.22,5.22,0,0,0-.41-1.51,2.87,2.87,0,0,0-.82-1.08A2.08,2.08,0,0,0,460.61,38.23Z"/><path class="cls-2" d="M470.4,50a4.88,4.88,0,0,1,.43-2.11A5,5,0,0,1,472,46.25a7.29,7.29,0,0,1,1.77-1.18,13.19,13.19,0,0,1,2.19-.8,17.14,17.14,0,0,1,2.45-.45q1.27-.15,2.55-.18v-.77a3.71,3.71,0,0,0-.75-2.62,3.3,3.3,0,0,0-2.46-.78,11.55,11.55,0,0,0-1.75.13c-.58.09-1.15.21-1.68.34a14.74,14.74,0,0,0-1.49.45q-.69.26-1.17.48h0l-.95-2.16a9.47,9.47,0,0,1,1.15-.72,15,15,0,0,1,1.93-.86,19.68,19.68,0,0,1,2.5-.73,13.1,13.1,0,0,1,2.82-.3,10.6,10.6,0,0,1,3,.38,4.66,4.66,0,0,1,2,1.2,4.74,4.74,0,0,1,1.15,2,10.4,10.4,0,0,1,.36,2.9V52.68h2v2l-.76.17c-.3.07-.63.13-1,.19s-.76.11-1.17.16-.85.06-1.29.06a9,9,0,0,1-1-.05,1.43,1.43,0,0,1-.66-.22,1,1,0,0,1-.37-.51,3.05,3.05,0,0,1-.11-.9v-.93a5.45,5.45,0,0,1-.76.82,6.57,6.57,0,0,1-1.17.86,7.09,7.09,0,0,1-1.55.66,6.46,6.46,0,0,1-1.92.27,7.05,7.05,0,0,1-2.14-.31A4.72,4.72,0,0,1,472,54a4.44,4.44,0,0,1-1.18-1.64A5.93,5.93,0,0,1,470.4,50Zm7.65,2.16a3.47,3.47,0,0,0,.67-.08,5.47,5.47,0,0,0,.77-.23,6.07,6.07,0,0,0,.79-.34A3.85,3.85,0,0,0,481,51V45.69a9.72,9.72,0,0,0-2.62.29,4.83,4.83,0,0,0-1.69.77,2.74,2.74,0,0,0-.89,1.11,3.38,3.38,0,0,0-.27,1.34,3.21,3.21,0,0,0,.66,2.18A2.38,2.38,0,0,0,478.05,52.13Z"/><path class="cls-2" d="M489.63,54.87V52.71L492,52.4V40l-2.2-.68V36.89l5.51-.79h.1l.85.69v3.85h.06a8.32,8.32,0,0,1,.7-1.3,9.09,9.09,0,0,1,1.26-1.51A7.61,7.61,0,0,1,500,36.57a4.37,4.37,0,0,1,2.11-.52,5.06,5.06,0,0,1,.77,0,2.92,2.92,0,0,1,.44.1v5.58a2.82,2.82,0,0,0-.92-.28,9.18,9.18,0,0,0-1.78-.16,10.55,10.55,0,0,0-1.13.07,10.23,10.23,0,0,0-1.06.17,5.81,5.81,0,0,0-.88.25,2.49,2.49,0,0,0-.59.29V52.39l4,.38v2.1Z"/><path class="cls-2" d="M507.16,51V39.14h-2.28V37.31l.42-.14.58-.22.54-.22.3-.15A4.9,4.9,0,0,0,507.87,35c.1-.21.22-.46.35-.75s.26-.58.38-.89.24-.62.35-.93l.27-.83h2.87l0,4.77h4.73v2.74h-4.73v8.93c0,.86,0,1.54,0,2a3.71,3.71,0,0,0,.19,1.14.78.78,0,0,0,.47.5,2.68,2.68,0,0,0,.89.11h0a5.84,5.84,0,0,0,.81-.06c.29,0,.57-.1.84-.16a7.67,7.67,0,0,0,.76-.19l.57-.18h0l.76,1.88a7.79,7.79,0,0,1-1.18.74,11.65,11.65,0,0,1-1.55.67,13.36,13.36,0,0,1-1.79.49,10.08,10.08,0,0,1-1.89.18h0a5.41,5.41,0,0,1-1.82-.27,2.83,2.83,0,0,1-1.2-.82,3.28,3.28,0,0,1-.67-1.33A7.06,7.06,0,0,1,507.16,51Z"/><path class="cls-2" d="M529.2,54.87V52.71l2-.32V30.88l-2.42-.41V28.59L535,27.8h.08l1,.76,0,7.59-.26,2.56a9.23,9.23,0,0,1,1.09-.86,10.13,10.13,0,0,1,1.47-.83,10.28,10.28,0,0,1,1.8-.62,8.05,8.05,0,0,1,2-.25,6.75,6.75,0,0,1,2.61.43,3.61,3.61,0,0,1,1.64,1.34,5.9,5.9,0,0,1,.85,2.28,18.16,18.16,0,0,1,.25,3.26v8.93l2.27.32v2.16h-9v-2.1l1.79-.35v-9a15.09,15.09,0,0,0-.11-1.92,3.47,3.47,0,0,0-.43-1.33,1.91,1.91,0,0,0-.87-.77,3.63,3.63,0,0,0-1.43-.25,4.73,4.73,0,0,0-1,.12,8.51,8.51,0,0,0-1,.28,7.85,7.85,0,0,0-.93.38,4.52,4.52,0,0,0-.72.45v12l2.2.32v2.16Z"/><path class="cls-2" d="M560.27,55.24a9.82,9.82,0,0,1-3.91-.71,7.1,7.1,0,0,1-2.69-2,8,8,0,0,1-1.56-3,14.11,14.11,0,0,1-.5-3.84,11.85,11.85,0,0,1,.64-4,8.65,8.65,0,0,1,1.79-3,7.72,7.72,0,0,1,2.79-1.91,9.55,9.55,0,0,1,3.61-.67q6.69,0,7,6.53c0,.74,0,1.41,0,2a9.32,9.32,0,0,1-.17,1.5H556.72a9.78,9.78,0,0,0,.47,2.73,5.32,5.32,0,0,0,1,1.83,3.74,3.74,0,0,0,1.49,1,5.53,5.53,0,0,0,1.9.32,8.31,8.31,0,0,0,1.53-.13,10.93,10.93,0,0,0,1.31-.32,8.29,8.29,0,0,0,1.94-.91l.84,2a5.9,5.9,0,0,1-1.12.88,10.92,10.92,0,0,1-1.64.85,13,13,0,0,1-2,.64A9.42,9.42,0,0,1,560.27,55.24Zm-.44-17a3,3,0,0,0-1.17.22,2.23,2.23,0,0,0-.95.85,5.85,5.85,0,0,0-.68,1.75,16.63,16.63,0,0,0-.33,2.89h5.79a2,2,0,0,1,0-.22c0-.1,0-.2,0-.31s0-.21,0-.3V42.9a13.51,13.51,0,0,0-.11-1.67,5.56,5.56,0,0,0-.41-1.51,3,3,0,0,0-.82-1.08A2.09,2.09,0,0,0,559.83,38.23Z"/><path class="cls-2" d="M569.63,50a5,5,0,0,1,.42-2.11,5.2,5.2,0,0,1,1.18-1.61A7.29,7.29,0,0,1,573,45.07a12.56,12.56,0,0,1,2.19-.8,17.14,17.14,0,0,1,2.45-.45c.84-.1,1.69-.16,2.54-.18v-.77a3.71,3.71,0,0,0-.75-2.62,3.29,3.29,0,0,0-2.45-.78,11.45,11.45,0,0,0-1.75.13c-.59.09-1.15.21-1.69.34s-1,.29-1.49.45-.84.33-1.17.48h0l-1-2.16a8.44,8.44,0,0,1,1.14-.72,15.21,15.21,0,0,1,1.94-.86,20,20,0,0,1,2.49-.73,13.24,13.24,0,0,1,2.82-.3,10.63,10.63,0,0,1,3,.38,4.5,4.5,0,0,1,3.17,3.24,10,10,0,0,1,.37,2.9V52.68h2v2l-.75.17c-.3.07-.64.13-1,.19l-1.18.16q-.63.06-1.29.06a9.31,9.31,0,0,1-1-.05A1.51,1.51,0,0,1,581,55a1,1,0,0,1-.36-.51,2.75,2.75,0,0,1-.11-.9v-.93a6.75,6.75,0,0,1-.76.82,6.57,6.57,0,0,1-1.17.86,7.3,7.3,0,0,1-1.55.66,6.46,6.46,0,0,1-1.92.27,7.05,7.05,0,0,1-2.14-.31,4.72,4.72,0,0,1-1.75-1,4.46,4.46,0,0,1-1.19-1.64A5.94,5.94,0,0,1,569.63,50Zm7.65,2.16a3.37,3.37,0,0,0,.66-.08,5.21,5.21,0,0,0,.78-.23,6.72,6.72,0,0,0,.79-.34,3.76,3.76,0,0,0,.67-.46V45.69a9.82,9.82,0,0,0-2.62.29,4.86,4.86,0,0,0-1.68.77,2.66,2.66,0,0,0-.89,1.11,3.38,3.38,0,0,0-.27,1.34,3.26,3.26,0,0,0,.65,2.18A2.4,2.4,0,0,0,577.28,52.13Z"/><path class="cls-2" d="M588.35,54.87V52.71l2.34-.32V30.88l-2.4-.41V28.59l6.3-.79h0l1,.76V52.39l2.43.32v2.16Z"/><path class="cls-2" d="M602,51V39.14h-2.27V37.31l.41-.14.58-.22c.2-.07.38-.15.54-.22a2.25,2.25,0,0,0,.31-.15A4.76,4.76,0,0,0,602.72,35q.16-.31.36-.75c.13-.28.25-.58.38-.89s.24-.62.34-.93.2-.58.28-.83H607l0,4.77h4.74v2.74H607v8.93c0,.86,0,1.54,0,2a4,4,0,0,0,.2,1.14.78.78,0,0,0,.47.5,2.68,2.68,0,0,0,.89.11h0a6,6,0,0,0,.81-.06c.28,0,.56-.1.84-.16a6.83,6.83,0,0,0,.75-.19l.58-.18h0l.76,1.88a7.79,7.79,0,0,1-1.18.74,11.65,11.65,0,0,1-1.55.67,13.78,13.78,0,0,1-1.79.49,10.08,10.08,0,0,1-1.89.18h0A5.41,5.41,0,0,1,604.1,55a2.92,2.92,0,0,1-1.21-.82,3.41,3.41,0,0,1-.67-1.33A7.06,7.06,0,0,1,602,51Z"/><path class="cls-2" d="M613.7,54.87V52.71l2-.32V30.88l-2.42-.41V28.59l6.27-.79h.08l1,.76,0,7.59-.26,2.56a9.23,9.23,0,0,1,1.09-.86,10.13,10.13,0,0,1,1.47-.83,10.28,10.28,0,0,1,1.8-.62,8.05,8.05,0,0,1,2-.25,6.78,6.78,0,0,1,2.61.43A3.66,3.66,0,0,1,631,37.92a6.06,6.06,0,0,1,.85,2.28,18.16,18.16,0,0,1,.25,3.26v8.93l2.27.32v2.16h-9v-2.1l1.79-.35v-9a13.3,13.3,0,0,0-.12-1.92,3.31,3.31,0,0,0-.42-1.33,1.91,1.91,0,0,0-.87-.77,3.63,3.63,0,0,0-1.43-.25,4.66,4.66,0,0,0-1,.12,8,8,0,0,0-1,.28,7.85,7.85,0,0,0-.93.38,4.52,4.52,0,0,0-.72.45v12l2.2.32v2.16Z"/><path class="cls-2" d="M640.49,55.14a3.59,3.59,0,0,1-1.08-.17,2.69,2.69,0,0,1-.9-.52,2.44,2.44,0,0,1-.61-.81,2.52,2.52,0,0,1-.23-1.08,2.89,2.89,0,0,1,.26-1.21,3.12,3.12,0,0,1,.71-1,3.39,3.39,0,0,1,2.32-.88,3.77,3.77,0,0,1,1.34.21,2.42,2.42,0,0,1,.89.56,2.11,2.11,0,0,1,.5.82,3.32,3.32,0,0,1,.15,1,3,3,0,0,1-.25,1.26,2.69,2.69,0,0,1-.69,1,3.26,3.26,0,0,1-1.06.62A4.2,4.2,0,0,1,640.49,55.14Z"/><path class="cls-1" d="M35,54.87l0-2.21,2.08-.45,7.77-22H50l7.75,22,2.24.45v2.21H49.57V52.66l2.63-.45L51,48.28H42.24L41.1,52.23l2.65.43v2.21ZM46,35.37l-3,10.4h7.26L47,35.37,46.48,33Z"/><path class="cls-1" d="M71.23,53.84V49.31h3L75,51.82a1.79,1.79,0,0,0,.44.42,3.16,3.16,0,0,0,.71.37,5.4,5.4,0,0,0,2,.37,3.7,3.7,0,0,0,1.31-.19,2.41,2.41,0,0,0,.82-.49,1.5,1.5,0,0,0,.41-.68,2.37,2.37,0,0,0,.12-.73,2,2,0,0,0-.35-1.17,3.44,3.44,0,0,0-1-.9A11.48,11.48,0,0,0,78,48l-2-.84a12.86,12.86,0,0,1-2-1,6.92,6.92,0,0,1-1.5-1.25,4.9,4.9,0,0,1-1-1.55,5.09,5.09,0,0,1-.34-1.92,4.87,4.87,0,0,1,.47-2.12,4.82,4.82,0,0,1,1.41-1.69,7.27,7.27,0,0,1,2.32-1.13,11.53,11.53,0,0,1,3.21-.41,13.14,13.14,0,0,1,1.89.13c.56.09,1.06.19,1.51.3s.87.23,1.24.36a9.87,9.87,0,0,0,1.1.28v4.44l-2.81,0-.75-2.15a2.3,2.3,0,0,0-.86-.71,3.28,3.28,0,0,0-1.59-.37,4.2,4.2,0,0,0-1.22.16,2.2,2.2,0,0,0-.79.44,1.63,1.63,0,0,0-.43.6,2,2,0,0,0-.13.67,2.13,2.13,0,0,0,.44,1.38,3.8,3.8,0,0,0,1.1.91,8.37,8.37,0,0,0,1.45.65c.52.19,1,.39,1.49.61.71.31,1.39.64,2,1A8.06,8.06,0,0,1,84,46a5.19,5.19,0,0,1,1.19,1.6,4.86,4.86,0,0,1,.45,2.17,5.21,5.21,0,0,1-.46,2.17,4.73,4.73,0,0,1-1.39,1.74,6.73,6.73,0,0,1-2.32,1.16,11.37,11.37,0,0,1-3.26.42,13.87,13.87,0,0,1-2.33-.18c-.7-.12-1.34-.25-1.92-.41s-1.09-.31-1.54-.46A9.53,9.53,0,0,0,71.23,53.84Z"/><path class="cls-1" d="M88.07,54.87V52.71l2.35-.31V40l-2.18-.7V36.89l5.92-.79h.08l1.17.69v15.6l2.34.32v2.16Zm4.28-21.5a2.23,2.23,0,0,1-1-.21,2.14,2.14,0,0,1-.74-.55,2.33,2.33,0,0,1-.45-.82,3.33,3.33,0,0,1-.15-1,4.1,4.1,0,0,1,.17-1.18,2.8,2.8,0,0,1,.52-1,2.52,2.52,0,0,1,.88-.66,2.92,2.92,0,0,1,1.22-.24h0a2.67,2.67,0,0,1,1.14.22,2.23,2.23,0,0,1,.8.58,2.27,2.27,0,0,1,.47.83,3.19,3.19,0,0,1,.16,1,3.87,3.87,0,0,1-.18,1.2,2.79,2.79,0,0,1-.54,1,2.57,2.57,0,0,1-.94.64,3.45,3.45,0,0,1-1.34.23Z"/><path class="cls-1" d="M100.18,54.87v-2.1l2-.37V40L100,39.32V36.89l5.7-.79h.08l.85.69v1.92a8.07,8.07,0,0,1,1.32-1,12.33,12.33,0,0,1,1.67-.82,12,12,0,0,1,1.83-.56,8.11,8.11,0,0,1,1.77-.21,6.28,6.28,0,0,1,3,.59,3.76,3.76,0,0,1,1.66,1.9A8.27,8.27,0,0,1,119,37.8a11.13,11.13,0,0,1,1.62-.81,13.48,13.48,0,0,1,1.86-.6,7.9,7.9,0,0,1,1.89-.24,7.13,7.13,0,0,1,2.53.38,3.46,3.46,0,0,1,1.63,1.26,5.63,5.63,0,0,1,.87,2.26,19.2,19.2,0,0,1,.26,3.4V52.4l2.27.37v2.1H123v-2.1l1.69-.37V43.59a13.84,13.84,0,0,0-.13-2.1,4,4,0,0,0-.46-1.4,2,2,0,0,0-.87-.77,3.43,3.43,0,0,0-1.37-.24,4.23,4.23,0,0,0-.89.11c-.32.08-.64.17-1,.28s-.63.24-.93.38a8.1,8.1,0,0,0-.79.42,10.52,10.52,0,0,1,.18,1.48c0,.53.05,1.1.05,1.73v8.94l2.14.35v2.1h-9v-2.1l1.93-.35v-9a11.9,11.9,0,0,0-.13-1.92,3.64,3.64,0,0,0-.44-1.33,1.94,1.94,0,0,0-.86-.77,3.34,3.34,0,0,0-1.36-.25,4.55,4.55,0,0,0-1,.12,9.06,9.06,0,0,0-1,.28,7.06,7.06,0,0,0-.92.38,5.49,5.49,0,0,0-.71.45v12l2.18.37v2.1Z"/><path class="cls-1" d="M133.57,60.81l2.42-.4V40l-2.2-.68V36.89l5.77-.79h.08l.83.69V38.5a6.38,6.38,0,0,1,.95-.91,6.05,6.05,0,0,1,1.22-.78,7.42,7.42,0,0,1,1.48-.55,6.91,6.91,0,0,1,1.74-.21,7.71,7.71,0,0,1,2.78.5,5.73,5.73,0,0,1,2.27,1.59A7.75,7.75,0,0,1,152.43,41,13.61,13.61,0,0,1,153,45.1a11.76,11.76,0,0,1-.66,4,9.53,9.53,0,0,1-1.87,3.22,8.73,8.73,0,0,1-3,2.15,9.73,9.73,0,0,1-4,.78c-.27,0-.53,0-.8,0l-.75-.08-.66-.1a3,3,0,0,1-.46-.1l.09,2.68v2.8l3.19.4v2H133.57ZM143.82,39a4.14,4.14,0,0,0-1.73.35,3.66,3.66,0,0,0-1.16.78v12.2a2.43,2.43,0,0,0,.89.54,4.3,4.3,0,0,0,1.48.23A3.77,3.77,0,0,0,145,52.7a3.51,3.51,0,0,0,1.37-1.25,7.6,7.6,0,0,0,.93-2.28,15.34,15.34,0,0,0,.39-3.48,14.08,14.08,0,0,0-.24-3.1,6.38,6.38,0,0,0-.76-2.08,3.24,3.24,0,0,0-1.22-1.17A3.52,3.52,0,0,0,143.82,39Z"/><path class="cls-1" d="M155.05,54.87V52.71l2.33-.32V30.88l-2.4-.41V28.59l6.3-.79h.05l1,.76V52.39l2.43.32v2.16Z"/><path class="cls-1" d="M175.32,55.24a9.82,9.82,0,0,1-3.91-.71,7.1,7.1,0,0,1-2.69-2,8.17,8.17,0,0,1-1.55-3,13.73,13.73,0,0,1-.5-3.84,12.11,12.11,0,0,1,.63-4,8.83,8.83,0,0,1,1.8-3,7.56,7.56,0,0,1,2.79-1.91,9.48,9.48,0,0,1,3.61-.67q6.67,0,7,6.53c0,.74,0,1.41,0,2a9.44,9.44,0,0,1-.16,1.5H171.77a10.16,10.16,0,0,0,.47,2.73,5.33,5.33,0,0,0,1,1.83,3.67,3.67,0,0,0,1.49,1,5.43,5.43,0,0,0,1.89.32,8.16,8.16,0,0,0,1.53-.13,10.93,10.93,0,0,0,1.31-.32,8.13,8.13,0,0,0,1.1-.44,9,9,0,0,0,.85-.47l.83,2a5.6,5.6,0,0,1-1.12.88,10,10,0,0,1-1.64.85,12.66,12.66,0,0,1-2,.64A9.35,9.35,0,0,1,175.32,55.24Zm-.44-17a3,3,0,0,0-1.16.22,2.25,2.25,0,0,0-1,.85,5.87,5.87,0,0,0-.67,1.75,14.88,14.88,0,0,0-.33,2.89h5.78a2,2,0,0,1,0-.22c0-.1,0-.2,0-.31s0-.21,0-.3V42.9a11.83,11.83,0,0,0-.12-1.67,5.22,5.22,0,0,0-.41-1.51,2.87,2.87,0,0,0-.82-1.08A2.09,2.09,0,0,0,174.88,38.23Z"/><path class="cls-1" d="M195.85,53.84V49.31h3l.84,2.51a1.79,1.79,0,0,0,.44.42,3.16,3.16,0,0,0,.71.37,5.4,5.4,0,0,0,2,.37,3.7,3.7,0,0,0,1.31-.19,2.41,2.41,0,0,0,.82-.49,1.5,1.5,0,0,0,.41-.68,2.37,2.37,0,0,0,.12-.73,2,2,0,0,0-.35-1.17,3.44,3.44,0,0,0-1-.9,11.48,11.48,0,0,0-1.54-.8l-2-.84a12.86,12.86,0,0,1-2-1,6.92,6.92,0,0,1-1.5-1.25,4.9,4.9,0,0,1-1-1.55,5.09,5.09,0,0,1-.34-1.92,4.87,4.87,0,0,1,.47-2.12,4.82,4.82,0,0,1,1.41-1.69A7.27,7.27,0,0,1,200,36.52a11.53,11.53,0,0,1,3.21-.41,13.14,13.14,0,0,1,1.89.13c.56.09,1.06.19,1.51.3s.87.23,1.24.36a9.87,9.87,0,0,0,1.1.28v4.44l-2.81,0-.75-2.15a2.3,2.3,0,0,0-.86-.71,3.28,3.28,0,0,0-1.59-.37,4.2,4.2,0,0,0-1.22.16,2.2,2.2,0,0,0-.79.44,1.63,1.63,0,0,0-.43.6,2,2,0,0,0-.12.67,2.13,2.13,0,0,0,.43,1.38,3.8,3.8,0,0,0,1.1.91,8.37,8.37,0,0,0,1.45.65c.52.19,1,.39,1.49.61.71.31,1.39.64,2,1A8.06,8.06,0,0,1,208.6,46a5.19,5.19,0,0,1,1.19,1.6,4.86,4.86,0,0,1,.45,2.17,5.21,5.21,0,0,1-.46,2.17,4.73,4.73,0,0,1-1.39,1.74,6.73,6.73,0,0,1-2.32,1.16,11.37,11.37,0,0,1-3.26.42,13.87,13.87,0,0,1-2.33-.18c-.7-.12-1.34-.25-1.92-.41s-1.09-.31-1.54-.46A9.53,9.53,0,0,0,195.85,53.84Z"/><path class="cls-1" d="M212.52,45.86a11.54,11.54,0,0,1,.66-4,8.88,8.88,0,0,1,1.86-3.1,8.24,8.24,0,0,1,2.92-2,9.89,9.89,0,0,1,3.85-.72,15,15,0,0,1,2,.12c.6.08,1.14.18,1.61.28s.88.22,1.22.33l.84.27-.16,5.49h-2.84l-.93-2.83a3.24,3.24,0,0,0-.87-1.07,2.07,2.07,0,0,0-1.26-.38,2.78,2.78,0,0,0-1.37.36,3.23,3.23,0,0,0-1.16,1.14,6.75,6.75,0,0,0-.82,2,12.82,12.82,0,0,0-.3,3,15.67,15.67,0,0,0,.31,3.39,6.35,6.35,0,0,0,.92,2.24,3.46,3.46,0,0,0,1.47,1.23,4.88,4.88,0,0,0,2,.38,7.45,7.45,0,0,0,2.59-.41,9.2,9.2,0,0,0,1.83-.87l.85,1.95a5.86,5.86,0,0,1-1,.82A10.33,10.33,0,0,1,223.34,55a8.75,8.75,0,0,1-2.13.26,9.94,9.94,0,0,1-3.92-.71,7.22,7.22,0,0,1-2.7-2,8.11,8.11,0,0,1-1.56-3A13,13,0,0,1,212.52,45.86Z"/><path class="cls-1" d="M230,54.87V52.71l2.32-.31V40l-2.2-.68V36.89l5.52-.79h.09l.86.69v1.34l0,2.51h.06a7.72,7.72,0,0,1,.71-1.3,8.55,8.55,0,0,1,1.25-1.51,7.61,7.61,0,0,1,1.73-1.26,4.38,4.38,0,0,1,2.12-.52,5,5,0,0,1,.76,0,2.92,2.92,0,0,1,.44.1v5.58a2.82,2.82,0,0,0-.92-.28,9.18,9.18,0,0,0-1.78-.16,10.55,10.55,0,0,0-1.13.07,10.23,10.23,0,0,0-1.06.17,6.16,6.16,0,0,0-.88.25,2.49,2.49,0,0,0-.59.29V52.39l4,.38v2.1Z"/><path class="cls-1" d="M254.11,55.24a9.81,9.81,0,0,1-3.9-.71,7.22,7.22,0,0,1-2.7-2,8.17,8.17,0,0,1-1.55-3,14.11,14.11,0,0,1-.5-3.84,11.85,11.85,0,0,1,.64-4,8.65,8.65,0,0,1,1.79-3,7.72,7.72,0,0,1,2.79-1.91,9.55,9.55,0,0,1,3.61-.67q6.69,0,7,6.53c0,.74,0,1.41,0,2a9.32,9.32,0,0,1-.17,1.5H250.57a9.78,9.78,0,0,0,.47,2.73,5.16,5.16,0,0,0,1,1.83,3.74,3.74,0,0,0,1.49,1,5.51,5.51,0,0,0,1.89.32,8.16,8.16,0,0,0,1.53-.13,10.65,10.65,0,0,0,1.32-.32,8,8,0,0,0,1.09-.44,9,9,0,0,0,.85-.47l.84,2a5.9,5.9,0,0,1-1.12.88,10.58,10.58,0,0,1-1.65.85,12.54,12.54,0,0,1-2,.64A9.5,9.5,0,0,1,254.11,55.24Zm-.43-17a3,3,0,0,0-1.17.22,2.17,2.17,0,0,0-.95.85,5.85,5.85,0,0,0-.68,1.75,15.7,15.7,0,0,0-.33,2.89h5.79v-.22a3,3,0,0,0,0-.31c0-.1,0-.21,0-.3V42.9a13.51,13.51,0,0,0-.11-1.67,5.56,5.56,0,0,0-.42-1.51,2.78,2.78,0,0,0-.82-1.08A2.06,2.06,0,0,0,253.68,38.23Z"/><path class="cls-1" d="M272.26,55.24a9.82,9.82,0,0,1-3.91-.71,7.1,7.1,0,0,1-2.69-2,8.18,8.18,0,0,1-1.56-3,14.11,14.11,0,0,1-.5-3.84,12.1,12.1,0,0,1,.64-4,8.52,8.52,0,0,1,1.8-3,7.6,7.6,0,0,1,2.78-1.91,9.55,9.55,0,0,1,3.61-.67q6.69,0,7,6.53c0,.74,0,1.41,0,2a8.3,8.3,0,0,1-.17,1.5H268.71a10.16,10.16,0,0,0,.47,2.73,5.49,5.49,0,0,0,1,1.83,3.74,3.74,0,0,0,1.49,1,5.53,5.53,0,0,0,1.9.32,8.16,8.16,0,0,0,1.53-.13,10.93,10.93,0,0,0,1.31-.32,8.29,8.29,0,0,0,1.94-.91l.84,2a5.9,5.9,0,0,1-1.12.88,10.46,10.46,0,0,1-1.64.85,13,13,0,0,1-2,.64A9.35,9.35,0,0,1,272.26,55.24Zm-.44-17a3,3,0,0,0-1.17.22,2.23,2.23,0,0,0-.95.85,5.61,5.61,0,0,0-.67,1.75,14.88,14.88,0,0,0-.33,2.89h5.78a2,2,0,0,1,0-.22c0-.1,0-.2,0-.31s0-.21,0-.3V42.9a13.51,13.51,0,0,0-.11-1.67,5.56,5.56,0,0,0-.41-1.51,2.87,2.87,0,0,0-.82-1.08A2.09,2.09,0,0,0,271.82,38.23Z"/><path class="cls-1" d="M282.15,54.87V52.71l2.08-.32V40L282,39.32V36.89l5.77-.79h.08l.85.69v1.92a9,9,0,0,1,1.26-1,9.31,9.31,0,0,1,1.57-.82,11.23,11.23,0,0,1,1.78-.58,8.53,8.53,0,0,1,1.88-.21,7.16,7.16,0,0,1,2.59.4,3.52,3.52,0,0,1,1.65,1.29,5.78,5.78,0,0,1,.87,2.28,19,19,0,0,1,.26,3.36V52.4l2.29.31v2.16h-9.07V52.71l1.75-.31v-9a13.44,13.44,0,0,0-.11-1.92,3.66,3.66,0,0,0-.41-1.33,1.85,1.85,0,0,0-.82-.77,3.25,3.25,0,0,0-1.35-.25,5,5,0,0,0-1.08.12,6.61,6.61,0,0,0-1,.32,7,7,0,0,0-.87.43,5.73,5.73,0,0,0-.68.45V52.39l2.16.32v2.16Z"/><path class="cls-1" d="M304.77,54.87V52.71l2.36-.31V40L305,39.3V36.89l5.91-.79h.08l1.18.69v15.6l2.34.32v2.16Zm4.29-21.5a2.2,2.2,0,0,1-1-.21,2.14,2.14,0,0,1-.74-.55,2.33,2.33,0,0,1-.45-.82,3.33,3.33,0,0,1-.15-1,3.78,3.78,0,0,1,.17-1.18,2.64,2.64,0,0,1,.52-1,2.52,2.52,0,0,1,.88-.66,2.89,2.89,0,0,1,1.22-.24h0a2.67,2.67,0,0,1,1.14.22,2.19,2.19,0,0,1,.79.58,2.16,2.16,0,0,1,.48.83,3.19,3.19,0,0,1,.15,1,4.19,4.19,0,0,1-.17,1.2,2.79,2.79,0,0,1-.54,1,2.66,2.66,0,0,1-.94.64,3.45,3.45,0,0,1-1.34.23Z"/><path class="cls-1" d="M316.83,54.87V52.71l2.07-.32V40l-2.19-.68V36.89l5.77-.79h.08l.86.69v1.92a9.48,9.48,0,0,1,1.25-1,10.14,10.14,0,0,1,1.57-.82,11.58,11.58,0,0,1,1.78-.58,8.69,8.69,0,0,1,1.89-.21,7.23,7.23,0,0,1,2.59.4,3.52,3.52,0,0,1,1.65,1.29,5.78,5.78,0,0,1,.87,2.28,19,19,0,0,1,.26,3.36V52.4l2.28.31v2.16h-9.07V52.71l1.76-.31v-9a13.3,13.3,0,0,0-.12-1.92,3.48,3.48,0,0,0-.41-1.33,1.8,1.8,0,0,0-.82-.77,3.2,3.2,0,0,0-1.34-.25,4.83,4.83,0,0,0-1.08.12,6.27,6.27,0,0,0-1,.32,5.87,5.87,0,0,0-.87.43,5.73,5.73,0,0,0-.68.45V52.39l2.15.32v2.16Z"/><path class="cls-1" d="M347.68,48.57a15.43,15.43,0,0,1-2.45-.19,2.4,2.4,0,0,0-.45.63,1.9,1.9,0,0,0-.17.85,1.6,1.6,0,0,0,.21.9,1.22,1.22,0,0,0,.66.52,3.71,3.71,0,0,0,1.15.25,16.18,16.18,0,0,0,1.68.07h3.22a9.21,9.21,0,0,1,5.18,1.17,4.35,4.35,0,0,1,1.71,3.86,5.37,5.37,0,0,1-.85,2.94,7.53,7.53,0,0,1-2.28,2.25A11.66,11.66,0,0,1,352,63.26a15.06,15.06,0,0,1-4,.5h0a16.27,16.27,0,0,1-3.89-.4,8.23,8.23,0,0,1-2.65-1.11,4.48,4.48,0,0,1-1.54-1.69,4.85,4.85,0,0,1-.49-2.15,3.45,3.45,0,0,1,.28-1.39,4.67,4.67,0,0,1,.72-1.19,4.55,4.55,0,0,1,1.06-.94,5.43,5.43,0,0,1,1.25-.63A3.66,3.66,0,0,1,341.3,53a3,3,0,0,1-.5-1.74,3.34,3.34,0,0,1,.65-2.07,6.4,6.4,0,0,1,1.64-1.49,5.11,5.11,0,0,1-2.42-2.09,6.29,6.29,0,0,1-.79-3.23,5.26,5.26,0,0,1,.66-2.62,6.1,6.1,0,0,1,1.78-2,8.53,8.53,0,0,1,2.62-1.28,11.12,11.12,0,0,1,3.21-.45h0c2.68,0,4.67.51,6,1.55a3.15,3.15,0,0,1,.62-.56,4.62,4.62,0,0,1,.88-.51,8,8,0,0,1,1.11-.38A5.43,5.43,0,0,1,358,36h.76v3.61h-3.17a7.11,7.11,0,0,1,.28,1.08,6.7,6.7,0,0,1,.1,1.22,6,6,0,0,1-.6,2.67,6.15,6.15,0,0,1-1.71,2.1,8.13,8.13,0,0,1-2.63,1.39,10.93,10.93,0,0,1-3.37.5Zm-.82,6.51a11.72,11.72,0,0,1-1.93-.15,4,4,0,0,0-.61.93,3.74,3.74,0,0,0-.28,1.57,5.24,5.24,0,0,0,.29,1.85,2.91,2.91,0,0,0,.86,1.22,3.37,3.37,0,0,0,1.39.69,7.83,7.83,0,0,0,1.92.21h0a8.12,8.12,0,0,0,1.91-.23,5.44,5.44,0,0,0,1.67-.69,3.71,3.71,0,0,0,1.18-1.15,3,3,0,0,0,.44-1.62,4.2,4.2,0,0,0-.15-1.21,1.62,1.62,0,0,0-.55-.82,2.57,2.57,0,0,0-1.08-.46,9.29,9.29,0,0,0-1.75-.14Zm1.21-8.67h0a2.59,2.59,0,0,0,1.36-.33,2.32,2.32,0,0,0,.84-.89,4.06,4.06,0,0,0,.43-1.34,10.68,10.68,0,0,0,.12-1.63,5.42,5.42,0,0,0-.68-3.08,2.58,2.58,0,0,0-2.25-1h0a2.53,2.53,0,0,0-2.21,1,5.21,5.21,0,0,0-.67,3,10.43,10.43,0,0,0,.14,1.75,4.11,4.11,0,0,0,.5,1.37,2.46,2.46,0,0,0,1,.89A3.08,3.08,0,0,0,348.07,46.41Z"/><path class="cls-1" d="M370.39,54.87V52.74l2.57-.43v-13h-2.83V37.39l2.83-.81v-.93a7.48,7.48,0,0,1,.79-3.44,8.68,8.68,0,0,1,2-2.62,8.89,8.89,0,0,1,2.77-1.66,8.37,8.37,0,0,1,3-.58,6.34,6.34,0,0,1,1.24.09l.65.18v4.82a2.66,2.66,0,0,0-.59-.44,4.86,4.86,0,0,0-.86-.39,7.2,7.2,0,0,0-1-.28,5.22,5.22,0,0,0-1.11-.11,3.18,3.18,0,0,0-.79.09,1.38,1.38,0,0,0-.61.35,1.64,1.64,0,0,0-.38.68,3.58,3.58,0,0,0-.14,1.08l0,3.16h4.14v2.74H378V52.4l3.57.34v2.13Z"/><path class="cls-1" d="M383.89,45.75a11,11,0,0,1,.76-4.27,8.82,8.82,0,0,1,2-3,8.13,8.13,0,0,1,2.91-1.8,10,10,0,0,1,3.44-.6,9.85,9.85,0,0,1,3.7.65,7.18,7.18,0,0,1,2.71,1.88,8.08,8.08,0,0,1,1.66,3,12.88,12.88,0,0,1,.57,4,11.43,11.43,0,0,1-.76,4.35,8.68,8.68,0,0,1-2,3A8,8,0,0,1,396,54.67a10.37,10.37,0,0,1-3.43.57,9.89,9.89,0,0,1-3.7-.65,7.3,7.3,0,0,1-2.72-1.88,8.1,8.1,0,0,1-1.67-3A13.19,13.19,0,0,1,383.89,45.75ZM392.82,53a2.82,2.82,0,0,0,1.53-.4,3,3,0,0,0,1.07-1.24,7.49,7.49,0,0,0,.63-2.17,21.84,21.84,0,0,0,.2-3.15,25.59,25.59,0,0,0-.19-3.35,9.59,9.59,0,0,0-.59-2.44,3.67,3.67,0,0,0-1.08-1.49,2.63,2.63,0,0,0-1.64-.51,2.87,2.87,0,0,0-1.54.4,3,3,0,0,0-1.08,1.24,6.89,6.89,0,0,0-.65,2.17,20.37,20.37,0,0,0-.21,3.15,27.59,27.59,0,0,0,.19,3.35,9.51,9.51,0,0,0,.62,2.44,3.7,3.7,0,0,0,1.1,1.49A2.63,2.63,0,0,0,392.82,53Z"/><path class="cls-1" d="M404.11,54.87V52.71l2.32-.31V40l-2.19-.68V36.89l5.51-.79h.1l.85.69v3.85h.06a7.54,7.54,0,0,1,.7-1.3,9.09,9.09,0,0,1,1.26-1.51,7.55,7.55,0,0,1,1.72-1.26,4.41,4.41,0,0,1,2.12-.52,5.15,5.15,0,0,1,.77,0,3.24,3.24,0,0,1,.44.1v5.58a2.91,2.91,0,0,0-.93-.28,9.1,9.1,0,0,0-1.78-.16,10.88,10.88,0,0,0-1.13.07,10.47,10.47,0,0,0-1.05.17,5.81,5.81,0,0,0-.88.25,2.4,2.4,0,0,0-.6.29V52.39l4,.38v2.1Z"/><path class="cls-2" d="M430,54.87V52.71l2-.32V30.88l-2.42-.41V28.59l6.27-.79h.08l1,.76,0,7.59-.26,2.56a11.24,11.24,0,0,1,1.09-.86,10.83,10.83,0,0,1,1.48-.83A9.9,9.9,0,0,1,441,36.4a8.13,8.13,0,0,1,2.06-.25,6.78,6.78,0,0,1,2.61.43,3.58,3.58,0,0,1,1.63,1.34,5.9,5.9,0,0,1,.86,2.28,19.13,19.13,0,0,1,.25,3.26v8.93l2.27.32v2.16h-9v-2.1l1.79-.35v-9a13.3,13.3,0,0,0-.12-1.92,3.47,3.47,0,0,0-.42-1.33,1.91,1.91,0,0,0-.87-.77,3.67,3.67,0,0,0-1.43-.25,4.66,4.66,0,0,0-1,.12,8.18,8.18,0,0,0-1,.28,8.44,8.44,0,0,0-.92.38,5.18,5.18,0,0,0-.73.45v12l2.21.32v2.16Z"/><path class="cls-2" d="M461,55.24a9.86,9.86,0,0,1-3.91-.71,7.18,7.18,0,0,1-2.69-2,8.17,8.17,0,0,1-1.55-3,13.73,13.73,0,0,1-.5-3.84,12.11,12.11,0,0,1,.63-4,8.83,8.83,0,0,1,1.8-3,7.56,7.56,0,0,1,2.79-1.91,9.51,9.51,0,0,1,3.61-.67q6.69,0,7,6.53c0,.74,0,1.41,0,2a10.61,10.61,0,0,1-.17,1.5H457.5a10.19,10.19,0,0,0,.46,2.73,5.33,5.33,0,0,0,1,1.83,3.67,3.67,0,0,0,1.49,1,5.43,5.43,0,0,0,1.89.32,8.16,8.16,0,0,0,1.53-.13,11.11,11.11,0,0,0,1.32-.32,8.53,8.53,0,0,0,1.09-.44,9,9,0,0,0,.85-.47l.84,2a6.24,6.24,0,0,1-1.12.88,10.58,10.58,0,0,1-1.65.85,12.66,12.66,0,0,1-2,.64A9.35,9.35,0,0,1,461,55.24Zm-.43-17a3,3,0,0,0-1.17.22,2.17,2.17,0,0,0-.95.85,5.6,5.6,0,0,0-.68,1.75,14.88,14.88,0,0,0-.33,2.89h5.78s0-.12,0-.22,0-.2,0-.31,0-.21,0-.3V42.9a11.83,11.83,0,0,0-.12-1.67,5.22,5.22,0,0,0-.41-1.51,2.87,2.87,0,0,0-.82-1.08A2.08,2.08,0,0,0,460.61,38.23Z"/><path class="cls-2" d="M470.4,50a4.88,4.88,0,0,1,.43-2.11A5,5,0,0,1,472,46.25a7.29,7.29,0,0,1,1.77-1.18,13.19,13.19,0,0,1,2.19-.8,17.14,17.14,0,0,1,2.45-.45q1.27-.15,2.55-.18v-.77a3.71,3.71,0,0,0-.75-2.62,3.3,3.3,0,0,0-2.46-.78,11.55,11.55,0,0,0-1.75.13c-.58.09-1.15.21-1.68.34a14.74,14.74,0,0,0-1.49.45q-.69.26-1.17.48h0l-.95-2.16a9.47,9.47,0,0,1,1.15-.72,15,15,0,0,1,1.93-.86,19.68,19.68,0,0,1,2.5-.73,13.1,13.1,0,0,1,2.82-.3,10.6,10.6,0,0,1,3,.38,4.66,4.66,0,0,1,2,1.2,4.74,4.74,0,0,1,1.15,2,10.4,10.4,0,0,1,.36,2.9V52.68h2v2l-.76.17c-.3.07-.63.13-1,.19s-.76.11-1.17.16-.85.06-1.29.06a9,9,0,0,1-1-.05,1.43,1.43,0,0,1-.66-.22,1,1,0,0,1-.37-.51,3.05,3.05,0,0,1-.11-.9v-.93a5.45,5.45,0,0,1-.76.82,6.57,6.57,0,0,1-1.17.86,7.09,7.09,0,0,1-1.55.66,6.46,6.46,0,0,1-1.92.27,7.05,7.05,0,0,1-2.14-.31A4.72,4.72,0,0,1,472,54a4.44,4.44,0,0,1-1.18-1.64A5.93,5.93,0,0,1,470.4,50Zm7.65,2.16a3.47,3.47,0,0,0,.67-.08,5.47,5.47,0,0,0,.77-.23,6.07,6.07,0,0,0,.79-.34A3.85,3.85,0,0,0,481,51V45.69a9.72,9.72,0,0,0-2.62.29,4.83,4.83,0,0,0-1.69.77,2.74,2.74,0,0,0-.89,1.11,3.38,3.38,0,0,0-.27,1.34,3.21,3.21,0,0,0,.66,2.18A2.38,2.38,0,0,0,478.05,52.13Z"/><path class="cls-2" d="M489.63,54.87V52.71L492,52.4V40l-2.2-.68V36.89l5.51-.79h.1l.85.69v3.85h.06a8.32,8.32,0,0,1,.7-1.3,9.09,9.09,0,0,1,1.26-1.51A7.61,7.61,0,0,1,500,36.57a4.37,4.37,0,0,1,2.11-.52,5.06,5.06,0,0,1,.77,0,2.92,2.92,0,0,1,.44.1v5.58a2.82,2.82,0,0,0-.92-.28,9.18,9.18,0,0,0-1.78-.16,10.55,10.55,0,0,0-1.13.07,10.23,10.23,0,0,0-1.06.17,5.81,5.81,0,0,0-.88.25,2.49,2.49,0,0,0-.59.29V52.39l4,.38v2.1Z"/><path class="cls-2" d="M507.16,51V39.14h-2.28V37.31l.42-.14.58-.22.54-.22.3-.15A4.9,4.9,0,0,0,507.87,35c.1-.21.22-.46.35-.75s.26-.58.38-.89.24-.62.35-.93l.27-.83h2.87l0,4.77h4.73v2.74h-4.73v8.93c0,.86,0,1.54,0,2a3.71,3.71,0,0,0,.19,1.14.78.78,0,0,0,.47.5,2.68,2.68,0,0,0,.89.11h0a5.84,5.84,0,0,0,.81-.06c.29,0,.57-.1.84-.16a7.67,7.67,0,0,0,.76-.19l.57-.18h0l.76,1.88a7.79,7.79,0,0,1-1.18.74,11.65,11.65,0,0,1-1.55.67,13.36,13.36,0,0,1-1.79.49,10.08,10.08,0,0,1-1.89.18h0a5.41,5.41,0,0,1-1.82-.27,2.83,2.83,0,0,1-1.2-.82,3.28,3.28,0,0,1-.67-1.33A7.06,7.06,0,0,1,507.16,51Z"/><path class="cls-2" d="M529.2,54.87V52.71l2-.32V30.88l-2.42-.41V28.59L535,27.8h.08l1,.76,0,7.59-.26,2.56a9.23,9.23,0,0,1,1.09-.86,10.13,10.13,0,0,1,1.47-.83,10.28,10.28,0,0,1,1.8-.62,8.05,8.05,0,0,1,2-.25,6.75,6.75,0,0,1,2.61.43,3.61,3.61,0,0,1,1.64,1.34,5.9,5.9,0,0,1,.85,2.28,18.16,18.16,0,0,1,.25,3.26v8.93l2.27.32v2.16h-9v-2.1l1.79-.35v-9a15.09,15.09,0,0,0-.11-1.92,3.47,3.47,0,0,0-.43-1.33,1.91,1.91,0,0,0-.87-.77,3.63,3.63,0,0,0-1.43-.25,4.73,4.73,0,0,0-1,.12,8.51,8.51,0,0,0-1,.28,7.85,7.85,0,0,0-.93.38,4.52,4.52,0,0,0-.72.45v12l2.2.32v2.16Z"/><path class="cls-2" d="M560.27,55.24a9.82,9.82,0,0,1-3.91-.71,7.1,7.1,0,0,1-2.69-2,8,8,0,0,1-1.56-3,14.11,14.11,0,0,1-.5-3.84,11.85,11.85,0,0,1,.64-4,8.65,8.65,0,0,1,1.79-3,7.72,7.72,0,0,1,2.79-1.91,9.55,9.55,0,0,1,3.61-.67q6.69,0,7,6.53c0,.74,0,1.41,0,2a9.32,9.32,0,0,1-.17,1.5H556.72a9.78,9.78,0,0,0,.47,2.73,5.32,5.32,0,0,0,1,1.83,3.74,3.74,0,0,0,1.49,1,5.53,5.53,0,0,0,1.9.32,8.31,8.31,0,0,0,1.53-.13,10.93,10.93,0,0,0,1.31-.32,8.29,8.29,0,0,0,1.94-.91l.84,2a5.9,5.9,0,0,1-1.12.88,10.92,10.92,0,0,1-1.64.85,13,13,0,0,1-2,.64A9.42,9.42,0,0,1,560.27,55.24Zm-.44-17a3,3,0,0,0-1.17.22,2.23,2.23,0,0,0-.95.85,5.85,5.85,0,0,0-.68,1.75,16.63,16.63,0,0,0-.33,2.89h5.79a2,2,0,0,1,0-.22c0-.1,0-.2,0-.31s0-.21,0-.3V42.9a13.51,13.51,0,0,0-.11-1.67,5.56,5.56,0,0,0-.41-1.51,3,3,0,0,0-.82-1.08A2.09,2.09,0,0,0,559.83,38.23Z"/><path class="cls-2" d="M569.63,50a5,5,0,0,1,.42-2.11,5.2,5.2,0,0,1,1.18-1.61A7.29,7.29,0,0,1,573,45.07a12.56,12.56,0,0,1,2.19-.8,17.14,17.14,0,0,1,2.45-.45c.84-.1,1.69-.16,2.54-.18v-.77a3.71,3.71,0,0,0-.75-2.62,3.29,3.29,0,0,0-2.45-.78,11.45,11.45,0,0,0-1.75.13c-.59.09-1.15.21-1.69.34s-1,.29-1.49.45-.84.33-1.17.48h0l-1-2.16a8.44,8.44,0,0,1,1.14-.72,15.21,15.21,0,0,1,1.94-.86,20,20,0,0,1,2.49-.73,13.24,13.24,0,0,1,2.82-.3,10.63,10.63,0,0,1,3,.38,4.5,4.5,0,0,1,3.17,3.24,10,10,0,0,1,.37,2.9V52.68h2v2l-.75.17c-.3.07-.64.13-1,.19l-1.18.16q-.63.06-1.29.06a9.31,9.31,0,0,1-1-.05A1.51,1.51,0,0,1,581,55a1,1,0,0,1-.36-.51,2.75,2.75,0,0,1-.11-.9v-.93a6.75,6.75,0,0,1-.76.82,6.57,6.57,0,0,1-1.17.86,7.3,7.3,0,0,1-1.55.66,6.46,6.46,0,0,1-1.92.27,7.05,7.05,0,0,1-2.14-.31,4.72,4.72,0,0,1-1.75-1,4.46,4.46,0,0,1-1.19-1.64A5.94,5.94,0,0,1,569.63,50Zm7.65,2.16a3.37,3.37,0,0,0,.66-.08,5.21,5.21,0,0,0,.78-.23,6.72,6.72,0,0,0,.79-.34,3.76,3.76,0,0,0,.67-.46V45.69a9.82,9.82,0,0,0-2.62.29,4.86,4.86,0,0,0-1.68.77,2.66,2.66,0,0,0-.89,1.11,3.38,3.38,0,0,0-.27,1.34,3.26,3.26,0,0,0,.65,2.18A2.4,2.4,0,0,0,577.28,52.13Z"/><path class="cls-2" d="M588.35,54.87V52.71l2.34-.32V30.88l-2.4-.41V28.59l6.3-.79h0l1,.76V52.39l2.43.32v2.16Z"/><path class="cls-2" d="M602,51V39.14h-2.27V37.31l.41-.14.58-.22c.2-.07.38-.15.54-.22a2.25,2.25,0,0,0,.31-.15A4.76,4.76,0,0,0,602.72,35q.16-.31.36-.75c.13-.28.25-.58.38-.89s.24-.62.34-.93.2-.58.28-.83H607l0,4.77h4.74v2.74H607v8.93c0,.86,0,1.54,0,2a4,4,0,0,0,.2,1.14.78.78,0,0,0,.47.5,2.68,2.68,0,0,0,.89.11h0a6,6,0,0,0,.81-.06c.28,0,.56-.1.84-.16a6.83,6.83,0,0,0,.75-.19l.58-.18h0l.76,1.88a7.79,7.79,0,0,1-1.18.74,11.65,11.65,0,0,1-1.55.67,13.78,13.78,0,0,1-1.79.49,10.08,10.08,0,0,1-1.89.18h0A5.41,5.41,0,0,1,604.1,55a2.92,2.92,0,0,1-1.21-.82,3.41,3.41,0,0,1-.67-1.33A7.06,7.06,0,0,1,602,51Z"/><path class="cls-2" d="M613.7,54.87V52.71l2-.32V30.88l-2.42-.41V28.59l6.27-.79h.08l1,.76,0,7.59-.26,2.56a9.23,9.23,0,0,1,1.09-.86,10.13,10.13,0,0,1,1.47-.83,10.28,10.28,0,0,1,1.8-.62,8.05,8.05,0,0,1,2-.25,6.78,6.78,0,0,1,2.61.43A3.66,3.66,0,0,1,631,37.92a6.06,6.06,0,0,1,.85,2.28,18.16,18.16,0,0,1,.25,3.26v8.93l2.27.32v2.16h-9v-2.1l1.79-.35v-9a13.3,13.3,0,0,0-.12-1.92,3.31,3.31,0,0,0-.42-1.33,1.91,1.91,0,0,0-.87-.77,3.63,3.63,0,0,0-1.43-.25,4.66,4.66,0,0,0-1,.12,8,8,0,0,0-1,.28,7.85,7.85,0,0,0-.93.38,4.52,4.52,0,0,0-.72.45v12l2.2.32v2.16Z"/><path class="cls-2" d="M640.49,55.14a3.59,3.59,0,0,1-1.08-.17,2.69,2.69,0,0,1-.9-.52,2.44,2.44,0,0,1-.61-.81,2.52,2.52,0,0,1-.23-1.08,2.89,2.89,0,0,1,.26-1.21,3.12,3.12,0,0,1,.71-1,3.39,3.39,0,0,1,2.32-.88,3.77,3.77,0,0,1,1.34.21,2.42,2.42,0,0,1,.89.56,2.11,2.11,0,0,1,.5.82,3.32,3.32,0,0,1,.15,1,3,3,0,0,1-.25,1.26,2.69,2.69,0,0,1-.69,1,3.26,3.26,0,0,1-1.06.62A4.2,4.2,0,0,1,640.49,55.14Z"/><path class="cls-1" d="M35,54.87l0-2.21,2.08-.45,7.77-22H50l7.75,22,2.24.45v2.21H49.57V52.66l2.63-.45L51,48.28H42.24L41.1,52.23l2.65.43v2.21ZM46,35.37l-3,10.4h7.26L47,35.37,46.48,33Z"/><path class="cls-1" d="M71.23,53.84V49.31h3L75,51.82a1.79,1.79,0,0,0,.44.42,3.16,3.16,0,0,0,.71.37,5.4,5.4,0,0,0,2,.37,3.7,3.7,0,0,0,1.31-.19,2.41,2.41,0,0,0,.82-.49,1.5,1.5,0,0,0,.41-.68,2.37,2.37,0,0,0,.12-.73,2,2,0,0,0-.35-1.17,3.44,3.44,0,0,0-1-.9A11.48,11.48,0,0,0,78,48l-2-.84a12.86,12.86,0,0,1-2-1,6.92,6.92,0,0,1-1.5-1.25,4.9,4.9,0,0,1-1-1.55,5.09,5.09,0,0,1-.34-1.92,4.87,4.87,0,0,1,.47-2.12,4.82,4.82,0,0,1,1.41-1.69,7.27,7.27,0,0,1,2.32-1.13,11.53,11.53,0,0,1,3.21-.41,13.14,13.14,0,0,1,1.89.13c.56.09,1.06.19,1.51.3s.87.23,1.24.36a9.87,9.87,0,0,0,1.1.28v4.44l-2.81,0-.75-2.15a2.3,2.3,0,0,0-.86-.71,3.28,3.28,0,0,0-1.59-.37,4.2,4.2,0,0,0-1.22.16,2.2,2.2,0,0,0-.79.44,1.63,1.63,0,0,0-.43.6,2,2,0,0,0-.13.67,2.13,2.13,0,0,0,.44,1.38,3.8,3.8,0,0,0,1.1.91,8.37,8.37,0,0,0,1.45.65c.52.19,1,.39,1.49.61.71.31,1.39.64,2,1A8.06,8.06,0,0,1,84,46a5.19,5.19,0,0,1,1.19,1.6,4.86,4.86,0,0,1,.45,2.17,5.21,5.21,0,0,1-.46,2.17,4.73,4.73,0,0,1-1.39,1.74,6.73,6.73,0,0,1-2.32,1.16,11.37,11.37,0,0,1-3.26.42,13.87,13.87,0,0,1-2.33-.18c-.7-.12-1.34-.25-1.92-.41s-1.09-.31-1.54-.46A9.53,9.53,0,0,0,71.23,53.84Z"/><path class="cls-1" d="M88.07,54.87V52.71l2.35-.31V40l-2.18-.7V36.89l5.92-.79h.08l1.17.69v15.6l2.34.32v2.16Zm4.28-21.5a2.23,2.23,0,0,1-1-.21,2.14,2.14,0,0,1-.74-.55,2.33,2.33,0,0,1-.45-.82,3.33,3.33,0,0,1-.15-1,4.1,4.1,0,0,1,.17-1.18,2.8,2.8,0,0,1,.52-1,2.52,2.52,0,0,1,.88-.66,2.92,2.92,0,0,1,1.22-.24h0a2.67,2.67,0,0,1,1.14.22,2.23,2.23,0,0,1,.8.58,2.27,2.27,0,0,1,.47.83,3.19,3.19,0,0,1,.16,1,3.87,3.87,0,0,1-.18,1.2,2.79,2.79,0,0,1-.54,1,2.57,2.57,0,0,1-.94.64,3.45,3.45,0,0,1-1.34.23Z"/><path class="cls-1" d="M100.18,54.87v-2.1l2-.37V40L100,39.32V36.89l5.7-.79h.08l.85.69v1.92a8.07,8.07,0,0,1,1.32-1,12.33,12.33,0,0,1,1.67-.82,12,12,0,0,1,1.83-.56,8.11,8.11,0,0,1,1.77-.21,6.28,6.28,0,0,1,3,.59,3.76,3.76,0,0,1,1.66,1.9A8.27,8.27,0,0,1,119,37.8a11.13,11.13,0,0,1,1.62-.81,13.48,13.48,0,0,1,1.86-.6,7.9,7.9,0,0,1,1.89-.24,7.13,7.13,0,0,1,2.53.38,3.46,3.46,0,0,1,1.63,1.26,5.63,5.63,0,0,1,.87,2.26,19.2,19.2,0,0,1,.26,3.4V52.4l2.27.37v2.1H123v-2.1l1.69-.37V43.59a13.84,13.84,0,0,0-.13-2.1,4,4,0,0,0-.46-1.4,2,2,0,0,0-.87-.77,3.43,3.43,0,0,0-1.37-.24,4.23,4.23,0,0,0-.89.11c-.32.08-.64.17-1,.28s-.63.24-.93.38a8.1,8.1,0,0,0-.79.42,10.52,10.52,0,0,1,.18,1.48c0,.53.05,1.1.05,1.73v8.94l2.14.35v2.1h-9v-2.1l1.93-.35v-9a11.9,11.9,0,0,0-.13-1.92,3.64,3.64,0,0,0-.44-1.33,1.94,1.94,0,0,0-.86-.77,3.34,3.34,0,0,0-1.36-.25,4.55,4.55,0,0,0-1,.12,9.06,9.06,0,0,0-1,.28,7.06,7.06,0,0,0-.92.38,5.49,5.49,0,0,0-.71.45v12l2.18.37v2.1Z"/><path class="cls-1" d="M133.57,60.81l2.42-.4V40l-2.2-.68V36.89l5.77-.79h.08l.83.69V38.5a6.38,6.38,0,0,1,.95-.91,6.05,6.05,0,0,1,1.22-.78,7.42,7.42,0,0,1,1.48-.55,6.91,6.91,0,0,1,1.74-.21,7.71,7.71,0,0,1,2.78.5,5.73,5.73,0,0,1,2.27,1.59A7.75,7.75,0,0,1,152.43,41,13.61,13.61,0,0,1,153,45.1a11.76,11.76,0,0,1-.66,4,9.53,9.53,0,0,1-1.87,3.22,8.73,8.73,0,0,1-3,2.15,9.73,9.73,0,0,1-4,.78c-.27,0-.53,0-.8,0l-.75-.08-.66-.1a3,3,0,0,1-.46-.1l.09,2.68v2.8l3.19.4v2H133.57ZM143.82,39a4.14,4.14,0,0,0-1.73.35,3.66,3.66,0,0,0-1.16.78v12.2a2.43,2.43,0,0,0,.89.54,4.3,4.3,0,0,0,1.48.23A3.77,3.77,0,0,0,145,52.7a3.51,3.51,0,0,0,1.37-1.25,7.6,7.6,0,0,0,.93-2.28,15.34,15.34,0,0,0,.39-3.48,14.08,14.08,0,0,0-.24-3.1,6.38,6.38,0,0,0-.76-2.08,3.24,3.24,0,0,0-1.22-1.17A3.52,3.52,0,0,0,143.82,39Z"/><path class="cls-1" d="M155.05,54.87V52.71l2.33-.32V30.88l-2.4-.41V28.59l6.3-.79h.05l1,.76V52.39l2.43.32v2.16Z"/><path class="cls-1" d="M175.32,55.24a9.82,9.82,0,0,1-3.91-.71,7.1,7.1,0,0,1-2.69-2,8.17,8.17,0,0,1-1.55-3,13.73,13.73,0,0,1-.5-3.84,12.11,12.11,0,0,1,.63-4,8.83,8.83,0,0,1,1.8-3,7.56,7.56,0,0,1,2.79-1.91,9.48,9.48,0,0,1,3.61-.67q6.67,0,7,6.53c0,.74,0,1.41,0,2a9.44,9.44,0,0,1-.16,1.5H171.77a10.16,10.16,0,0,0,.47,2.73,5.33,5.33,0,0,0,1,1.83,3.67,3.67,0,0,0,1.49,1,5.43,5.43,0,0,0,1.89.32,8.16,8.16,0,0,0,1.53-.13,10.93,10.93,0,0,0,1.31-.32,8.13,8.13,0,0,0,1.1-.44,9,9,0,0,0,.85-.47l.83,2a5.6,5.6,0,0,1-1.12.88,10,10,0,0,1-1.64.85,12.66,12.66,0,0,1-2,.64A9.35,9.35,0,0,1,175.32,55.24Zm-.44-17a3,3,0,0,0-1.16.22,2.25,2.25,0,0,0-1,.85,5.87,5.87,0,0,0-.67,1.75,14.88,14.88,0,0,0-.33,2.89h5.78a2,2,0,0,1,0-.22c0-.1,0-.2,0-.31s0-.21,0-.3V42.9a11.83,11.83,0,0,0-.12-1.67,5.22,5.22,0,0,0-.41-1.51,2.87,2.87,0,0,0-.82-1.08A2.09,2.09,0,0,0,174.88,38.23Z"/><path class="cls-1" d="M195.85,53.84V49.31h3l.84,2.51a1.79,1.79,0,0,0,.44.42,3.16,3.16,0,0,0,.71.37,5.4,5.4,0,0,0,2,.37,3.7,3.7,0,0,0,1.31-.19,2.41,2.41,0,0,0,.82-.49,1.5,1.5,0,0,0,.41-.68,2.37,2.37,0,0,0,.12-.73,2,2,0,0,0-.35-1.17,3.44,3.44,0,0,0-1-.9,11.48,11.48,0,0,0-1.54-.8l-2-.84a12.86,12.86,0,0,1-2-1,6.92,6.92,0,0,1-1.5-1.25,4.9,4.9,0,0,1-1-1.55,5.09,5.09,0,0,1-.34-1.92,4.87,4.87,0,0,1,.47-2.12,4.82,4.82,0,0,1,1.41-1.69A7.27,7.27,0,0,1,200,36.52a11.53,11.53,0,0,1,3.21-.41,13.14,13.14,0,0,1,1.89.13c.56.09,1.06.19,1.51.3s.87.23,1.24.36a9.87,9.87,0,0,0,1.1.28v4.44l-2.81,0-.75-2.15a2.3,2.3,0,0,0-.86-.71,3.28,3.28,0,0,0-1.59-.37,4.2,4.2,0,0,0-1.22.16,2.2,2.2,0,0,0-.79.44,1.63,1.63,0,0,0-.43.6,2,2,0,0,0-.12.67,2.13,2.13,0,0,0,.43,1.38,3.8,3.8,0,0,0,1.1.91,8.37,8.37,0,0,0,1.45.65c.52.19,1,.39,1.49.61.71.31,1.39.64,2,1A8.06,8.06,0,0,1,208.6,46a5.19,5.19,0,0,1,1.19,1.6,4.86,4.86,0,0,1,.45,2.17,5.21,5.21,0,0,1-.46,2.17,4.73,4.73,0,0,1-1.39,1.74,6.73,6.73,0,0,1-2.32,1.16,11.37,11.37,0,0,1-3.26.42,13.87,13.87,0,0,1-2.33-.18c-.7-.12-1.34-.25-1.92-.41s-1.09-.31-1.54-.46A9.53,9.53,0,0,0,195.85,53.84Z"/><path class="cls-1" d="M212.52,45.86a11.54,11.54,0,0,1,.66-4,8.88,8.88,0,0,1,1.86-3.1,8.24,8.24,0,0,1,2.92-2,9.89,9.89,0,0,1,3.85-.72,15,15,0,0,1,2,.12c.6.08,1.14.18,1.61.28s.88.22,1.22.33l.84.27-.16,5.49h-2.84l-.93-2.83a3.24,3.24,0,0,0-.87-1.07,2.07,2.07,0,0,0-1.26-.38,2.78,2.78,0,0,0-1.37.36,3.23,3.23,0,0,0-1.16,1.14,6.75,6.75,0,0,0-.82,2,12.82,12.82,0,0,0-.3,3,15.67,15.67,0,0,0,.31,3.39,6.35,6.35,0,0,0,.92,2.24,3.46,3.46,0,0,0,1.47,1.23,4.88,4.88,0,0,0,2,.38,7.45,7.45,0,0,0,2.59-.41,9.2,9.2,0,0,0,1.83-.87l.85,1.95a5.86,5.86,0,0,1-1,.82A10.33,10.33,0,0,1,223.34,55a8.75,8.75,0,0,1-2.13.26,9.94,9.94,0,0,1-3.92-.71,7.22,7.22,0,0,1-2.7-2,8.11,8.11,0,0,1-1.56-3A13,13,0,0,1,212.52,45.86Z"/><path class="cls-1" d="M230,54.87V52.71l2.32-.31V40l-2.2-.68V36.89l5.52-.79h.09l.86.69v1.34l0,2.51h.06a7.72,7.72,0,0,1,.71-1.3,8.55,8.55,0,0,1,1.25-1.51,7.61,7.61,0,0,1,1.73-1.26,4.38,4.38,0,0,1,2.12-.52,5,5,0,0,1,.76,0,2.92,2.92,0,0,1,.44.1v5.58a2.82,2.82,0,0,0-.92-.28,9.18,9.18,0,0,0-1.78-.16,10.55,10.55,0,0,0-1.13.07,10.23,10.23,0,0,0-1.06.17,6.16,6.16,0,0,0-.88.25,2.49,2.49,0,0,0-.59.29V52.39l4,.38v2.1Z"/><path class="cls-1" d="M254.11,55.24a9.81,9.81,0,0,1-3.9-.71,7.22,7.22,0,0,1-2.7-2,8.17,8.17,0,0,1-1.55-3,14.11,14.11,0,0,1-.5-3.84,11.85,11.85,0,0,1,.64-4,8.65,8.65,0,0,1,1.79-3,7.72,7.72,0,0,1,2.79-1.91,9.55,9.55,0,0,1,3.61-.67q6.69,0,7,6.53c0,.74,0,1.41,0,2a9.32,9.32,0,0,1-.17,1.5H250.57a9.78,9.78,0,0,0,.47,2.73,5.16,5.16,0,0,0,1,1.83,3.74,3.74,0,0,0,1.49,1,5.51,5.51,0,0,0,1.89.32,8.16,8.16,0,0,0,1.53-.13,10.65,10.65,0,0,0,1.32-.32,8,8,0,0,0,1.09-.44,9,9,0,0,0,.85-.47l.84,2a5.9,5.9,0,0,1-1.12.88,10.58,10.58,0,0,1-1.65.85,12.54,12.54,0,0,1-2,.64A9.5,9.5,0,0,1,254.11,55.24Zm-.43-17a3,3,0,0,0-1.17.22,2.17,2.17,0,0,0-.95.85,5.85,5.85,0,0,0-.68,1.75,15.7,15.7,0,0,0-.33,2.89h5.79v-.22a3,3,0,0,0,0-.31c0-.1,0-.21,0-.3V42.9a13.51,13.51,0,0,0-.11-1.67,5.56,5.56,0,0,0-.42-1.51,2.78,2.78,0,0,0-.82-1.08A2.06,2.06,0,0,0,253.68,38.23Z"/><path class="cls-1" d="M272.26,55.24a9.82,9.82,0,0,1-3.91-.71,7.1,7.1,0,0,1-2.69-2,8.18,8.18,0,0,1-1.56-3,14.11,14.11,0,0,1-.5-3.84,12.1,12.1,0,0,1,.64-4,8.52,8.52,0,0,1,1.8-3,7.6,7.6,0,0,1,2.78-1.91,9.55,9.55,0,0,1,3.61-.67q6.69,0,7,6.53c0,.74,0,1.41,0,2a8.3,8.3,0,0,1-.17,1.5H268.71a10.16,10.16,0,0,0,.47,2.73,5.49,5.49,0,0,0,1,1.83,3.74,3.74,0,0,0,1.49,1,5.53,5.53,0,0,0,1.9.32,8.16,8.16,0,0,0,1.53-.13,10.93,10.93,0,0,0,1.31-.32,8.29,8.29,0,0,0,1.94-.91l.84,2a5.9,5.9,0,0,1-1.12.88,10.46,10.46,0,0,1-1.64.85,13,13,0,0,1-2,.64A9.35,9.35,0,0,1,272.26,55.24Zm-.44-17a3,3,0,0,0-1.17.22,2.23,2.23,0,0,0-.95.85,5.61,5.61,0,0,0-.67,1.75,14.88,14.88,0,0,0-.33,2.89h5.78a2,2,0,0,1,0-.22c0-.1,0-.2,0-.31s0-.21,0-.3V42.9a13.51,13.51,0,0,0-.11-1.67,5.56,5.56,0,0,0-.41-1.51,2.87,2.87,0,0,0-.82-1.08A2.09,2.09,0,0,0,271.82,38.23Z"/><path class="cls-1" d="M282.15,54.87V52.71l2.08-.32V40L282,39.32V36.89l5.77-.79h.08l.85.69v1.92a9,9,0,0,1,1.26-1,9.31,9.31,0,0,1,1.57-.82,11.23,11.23,0,0,1,1.78-.58,8.53,8.53,0,0,1,1.88-.21,7.16,7.16,0,0,1,2.59.4,3.52,3.52,0,0,1,1.65,1.29,5.78,5.78,0,0,1,.87,2.28,19,19,0,0,1,.26,3.36V52.4l2.29.31v2.16h-9.07V52.71l1.75-.31v-9a13.44,13.44,0,0,0-.11-1.92,3.66,3.66,0,0,0-.41-1.33,1.85,1.85,0,0,0-.82-.77,3.25,3.25,0,0,0-1.35-.25,5,5,0,0,0-1.08.12,6.61,6.61,0,0,0-1,.32,7,7,0,0,0-.87.43,5.73,5.73,0,0,0-.68.45V52.39l2.16.32v2.16Z"/><path class="cls-1" d="M304.77,54.87V52.71l2.36-.31V40L305,39.3V36.89l5.91-.79h.08l1.18.69v15.6l2.34.32v2.16Zm4.29-21.5a2.2,2.2,0,0,1-1-.21,2.14,2.14,0,0,1-.74-.55,2.33,2.33,0,0,1-.45-.82,3.33,3.33,0,0,1-.15-1,3.78,3.78,0,0,1,.17-1.18,2.64,2.64,0,0,1,.52-1,2.52,2.52,0,0,1,.88-.66,2.89,2.89,0,0,1,1.22-.24h0a2.67,2.67,0,0,1,1.14.22,2.19,2.19,0,0,1,.79.58,2.16,2.16,0,0,1,.48.83,3.19,3.19,0,0,1,.15,1,4.19,4.19,0,0,1-.17,1.2,2.79,2.79,0,0,1-.54,1,2.66,2.66,0,0,1-.94.64,3.45,3.45,0,0,1-1.34.23Z"/><path class="cls-1" d="M316.83,54.87V52.71l2.07-.32V40l-2.19-.68V36.89l5.77-.79h.08l.86.69v1.92a9.48,9.48,0,0,1,1.25-1,10.14,10.14,0,0,1,1.57-.82,11.58,11.58,0,0,1,1.78-.58,8.69,8.69,0,0,1,1.89-.21,7.23,7.23,0,0,1,2.59.4,3.52,3.52,0,0,1,1.65,1.29,5.78,5.78,0,0,1,.87,2.28,19,19,0,0,1,.26,3.36V52.4l2.28.31v2.16h-9.07V52.71l1.76-.31v-9a13.3,13.3,0,0,0-.12-1.92,3.48,3.48,0,0,0-.41-1.33,1.8,1.8,0,0,0-.82-.77,3.2,3.2,0,0,0-1.34-.25,4.83,4.83,0,0,0-1.08.12,6.27,6.27,0,0,0-1,.32,5.87,5.87,0,0,0-.87.43,5.73,5.73,0,0,0-.68.45V52.39l2.15.32v2.16Z"/><path class="cls-1" d="M347.68,48.57a15.43,15.43,0,0,1-2.45-.19,2.4,2.4,0,0,0-.45.63,1.9,1.9,0,0,0-.17.85,1.6,1.6,0,0,0,.21.9,1.22,1.22,0,0,0,.66.52,3.71,3.71,0,0,0,1.15.25,16.18,16.18,0,0,0,1.68.07h3.22a9.21,9.21,0,0,1,5.18,1.17,4.35,4.35,0,0,1,1.71,3.86,5.37,5.37,0,0,1-.85,2.94,7.53,7.53,0,0,1-2.28,2.25A11.66,11.66,0,0,1,352,63.26a15.06,15.06,0,0,1-4,.5h0a16.27,16.27,0,0,1-3.89-.4,8.23,8.23,0,0,1-2.65-1.11,4.48,4.48,0,0,1-1.54-1.69,4.85,4.85,0,0,1-.49-2.15,3.45,3.45,0,0,1,.28-1.39,4.67,4.67,0,0,1,.72-1.19,4.55,4.55,0,0,1,1.06-.94,5.43,5.43,0,0,1,1.25-.63A3.66,3.66,0,0,1,341.3,53a3,3,0,0,1-.5-1.74,3.34,3.34,0,0,1,.65-2.07,6.4,6.4,0,0,1,1.64-1.49,5.11,5.11,0,0,1-2.42-2.09,6.29,6.29,0,0,1-.79-3.23,5.26,5.26,0,0,1,.66-2.62,6.1,6.1,0,0,1,1.78-2,8.53,8.53,0,0,1,2.62-1.28,11.12,11.12,0,0,1,3.21-.45h0c2.68,0,4.67.51,6,1.55a3.15,3.15,0,0,1,.62-.56,4.62,4.62,0,0,1,.88-.51,8,8,0,0,1,1.11-.38A5.43,5.43,0,0,1,358,36h.76v3.61h-3.17a7.11,7.11,0,0,1,.28,1.08,6.7,6.7,0,0,1,.1,1.22,6,6,0,0,1-.6,2.67,6.15,6.15,0,0,1-1.71,2.1,8.13,8.13,0,0,1-2.63,1.39,10.93,10.93,0,0,1-3.37.5Zm-.82,6.51a11.72,11.72,0,0,1-1.93-.15,4,4,0,0,0-.61.93,3.74,3.74,0,0,0-.28,1.57,5.24,5.24,0,0,0,.29,1.85,2.91,2.91,0,0,0,.86,1.22,3.37,3.37,0,0,0,1.39.69,7.83,7.83,0,0,0,1.92.21h0a8.12,8.12,0,0,0,1.91-.23,5.44,5.44,0,0,0,1.67-.69,3.71,3.71,0,0,0,1.18-1.15,3,3,0,0,0,.44-1.62,4.2,4.2,0,0,0-.15-1.21,1.62,1.62,0,0,0-.55-.82,2.57,2.57,0,0,0-1.08-.46,9.29,9.29,0,0,0-1.75-.14Zm1.21-8.67h0a2.59,2.59,0,0,0,1.36-.33,2.32,2.32,0,0,0,.84-.89,4.06,4.06,0,0,0,.43-1.34,10.68,10.68,0,0,0,.12-1.63,5.42,5.42,0,0,0-.68-3.08,2.58,2.58,0,0,0-2.25-1h0a2.53,2.53,0,0,0-2.21,1,5.21,5.21,0,0,0-.67,3,10.43,10.43,0,0,0,.14,1.75,4.11,4.11,0,0,0,.5,1.37,2.46,2.46,0,0,0,1,.89A3.08,3.08,0,0,0,348.07,46.41Z"/><path class="cls-1" d="M370.39,54.87V52.74l2.57-.43v-13h-2.83V37.39l2.83-.81v-.93a7.48,7.48,0,0,1,.79-3.44,8.68,8.68,0,0,1,2-2.62,8.89,8.89,0,0,1,2.77-1.66,8.37,8.37,0,0,1,3-.58,6.34,6.34,0,0,1,1.24.09l.65.18v4.82a2.66,2.66,0,0,0-.59-.44,4.86,4.86,0,0,0-.86-.39,7.2,7.2,0,0,0-1-.28,5.22,5.22,0,0,0-1.11-.11,3.18,3.18,0,0,0-.79.09,1.38,1.38,0,0,0-.61.35,1.64,1.64,0,0,0-.38.68,3.58,3.58,0,0,0-.14,1.08l0,3.16h4.14v2.74H378V52.4l3.57.34v2.13Z"/><path class="cls-1" d="M383.89,45.75a11,11,0,0,1,.76-4.27,8.82,8.82,0,0,1,2-3,8.13,8.13,0,0,1,2.91-1.8,10,10,0,0,1,3.44-.6,9.85,9.85,0,0,1,3.7.65,7.18,7.18,0,0,1,2.71,1.88,8.08,8.08,0,0,1,1.66,3,12.88,12.88,0,0,1,.57,4,11.43,11.43,0,0,1-.76,4.35,8.68,8.68,0,0,1-2,3A8,8,0,0,1,396,54.67a10.37,10.37,0,0,1-3.43.57,9.89,9.89,0,0,1-3.7-.65,7.3,7.3,0,0,1-2.72-1.88,8.1,8.1,0,0,1-1.67-3A13.19,13.19,0,0,1,383.89,45.75ZM392.82,53a2.82,2.82,0,0,0,1.53-.4,3,3,0,0,0,1.07-1.24,7.49,7.49,0,0,0,.63-2.17,21.84,21.84,0,0,0,.2-3.15,25.59,25.59,0,0,0-.19-3.35,9.59,9.59,0,0,0-.59-2.44,3.67,3.67,0,0,0-1.08-1.49,2.63,2.63,0,0,0-1.64-.51,2.87,2.87,0,0,0-1.54.4,3,3,0,0,0-1.08,1.24,6.89,6.89,0,0,0-.65,2.17,20.37,20.37,0,0,0-.21,3.15,27.59,27.59,0,0,0,.19,3.35,9.51,9.51,0,0,0,.62,2.44,3.7,3.7,0,0,0,1.1,1.49A2.63,2.63,0,0,0,392.82,53Z"/><path class="cls-1" d="M404.11,54.87V52.71l2.32-.31V40l-2.19-.68V36.89l5.51-.79h.1l.85.69v3.85h.06a7.54,7.54,0,0,1,.7-1.3,9.09,9.09,0,0,1,1.26-1.51,7.55,7.55,0,0,1,1.72-1.26,4.41,4.41,0,0,1,2.12-.52,5.15,5.15,0,0,1,.77,0,3.24,3.24,0,0,1,.44.1v5.58a2.91,2.91,0,0,0-.93-.28,9.1,9.1,0,0,0-1.78-.16,10.88,10.88,0,0,0-1.13.07,10.47,10.47,0,0,0-1.05.17,5.81,5.81,0,0,0-.88.25,2.4,2.4,0,0,0-.6.29V52.39l4,.38v2.1Z"/><path class="cls-2" d="M430,54.87V52.71l2-.32V30.88l-2.42-.41V28.59l6.27-.79h.08l1,.76,0,7.59-.26,2.56a11.24,11.24,0,0,1,1.09-.86,10.83,10.83,0,0,1,1.48-.83A9.9,9.9,0,0,1,441,36.4a8.13,8.13,0,0,1,2.06-.25,6.78,6.78,0,0,1,2.61.43,3.58,3.58,0,0,1,1.63,1.34,5.9,5.9,0,0,1,.86,2.28,19.13,19.13,0,0,1,.25,3.26v8.93l2.27.32v2.16h-9v-2.1l1.79-.35v-9a13.3,13.3,0,0,0-.12-1.92,3.47,3.47,0,0,0-.42-1.33,1.91,1.91,0,0,0-.87-.77,3.67,3.67,0,0,0-1.43-.25,4.66,4.66,0,0,0-1,.12,8.18,8.18,0,0,0-1,.28,8.44,8.44,0,0,0-.92.38,5.18,5.18,0,0,0-.73.45v12l2.21.32v2.16Z"/><path class="cls-2" d="M461,55.24a9.86,9.86,0,0,1-3.91-.71,7.18,7.18,0,0,1-2.69-2,8.17,8.17,0,0,1-1.55-3,13.73,13.73,0,0,1-.5-3.84,12.11,12.11,0,0,1,.63-4,8.83,8.83,0,0,1,1.8-3,7.56,7.56,0,0,1,2.79-1.91,9.51,9.51,0,0,1,3.61-.67q6.69,0,7,6.53c0,.74,0,1.41,0,2a10.61,10.61,0,0,1-.17,1.5H457.5a10.19,10.19,0,0,0,.46,2.73,5.33,5.33,0,0,0,1,1.83,3.67,3.67,0,0,0,1.49,1,5.43,5.43,0,0,0,1.89.32,8.16,8.16,0,0,0,1.53-.13,11.11,11.11,0,0,0,1.32-.32,8.53,8.53,0,0,0,1.09-.44,9,9,0,0,0,.85-.47l.84,2a6.24,6.24,0,0,1-1.12.88,10.58,10.58,0,0,1-1.65.85,12.66,12.66,0,0,1-2,.64A9.35,9.35,0,0,1,461,55.24Zm-.43-17a3,3,0,0,0-1.17.22,2.17,2.17,0,0,0-.95.85,5.6,5.6,0,0,0-.68,1.75,14.88,14.88,0,0,0-.33,2.89h5.78s0-.12,0-.22,0-.2,0-.31,0-.21,0-.3V42.9a11.83,11.83,0,0,0-.12-1.67,5.22,5.22,0,0,0-.41-1.51,2.87,2.87,0,0,0-.82-1.08A2.08,2.08,0,0,0,460.61,38.23Z"/><path class="cls-2" d="M470.4,50a4.88,4.88,0,0,1,.43-2.11A5,5,0,0,1,472,46.25a7.29,7.29,0,0,1,1.77-1.18,13.19,13.19,0,0,1,2.19-.8,17.14,17.14,0,0,1,2.45-.45q1.27-.15,2.55-.18v-.77a3.71,3.71,0,0,0-.75-2.62,3.3,3.3,0,0,0-2.46-.78,11.55,11.55,0,0,0-1.75.13c-.58.09-1.15.21-1.68.34a14.74,14.74,0,0,0-1.49.45q-.69.26-1.17.48h0l-.95-2.16a9.47,9.47,0,0,1,1.15-.72,15,15,0,0,1,1.93-.86,19.68,19.68,0,0,1,2.5-.73,13.1,13.1,0,0,1,2.82-.3,10.6,10.6,0,0,1,3,.38,4.66,4.66,0,0,1,2,1.2,4.74,4.74,0,0,1,1.15,2,10.4,10.4,0,0,1,.36,2.9V52.68h2v2l-.76.17c-.3.07-.63.13-1,.19s-.76.11-1.17.16-.85.06-1.29.06a9,9,0,0,1-1-.05,1.43,1.43,0,0,1-.66-.22,1,1,0,0,1-.37-.51,3.05,3.05,0,0,1-.11-.9v-.93a5.45,5.45,0,0,1-.76.82,6.57,6.57,0,0,1-1.17.86,7.09,7.09,0,0,1-1.55.66,6.46,6.46,0,0,1-1.92.27,7.05,7.05,0,0,1-2.14-.31A4.72,4.72,0,0,1,472,54a4.44,4.44,0,0,1-1.18-1.64A5.93,5.93,0,0,1,470.4,50Zm7.65,2.16a3.47,3.47,0,0,0,.67-.08,5.47,5.47,0,0,0,.77-.23,6.07,6.07,0,0,0,.79-.34A3.85,3.85,0,0,0,481,51V45.69a9.72,9.72,0,0,0-2.62.29,4.83,4.83,0,0,0-1.69.77,2.74,2.74,0,0,0-.89,1.11,3.38,3.38,0,0,0-.27,1.34,3.21,3.21,0,0,0,.66,2.18A2.38,2.38,0,0,0,478.05,52.13Z"/><path class="cls-2" d="M489.63,54.87V52.71L492,52.4V40l-2.2-.68V36.89l5.51-.79h.1l.85.69v3.85h.06a8.32,8.32,0,0,1,.7-1.3,9.09,9.09,0,0,1,1.26-1.51A7.61,7.61,0,0,1,500,36.57a4.37,4.37,0,0,1,2.11-.52,5.06,5.06,0,0,1,.77,0,2.92,2.92,0,0,1,.44.1v5.58a2.82,2.82,0,0,0-.92-.28,9.18,9.18,0,0,0-1.78-.16,10.55,10.55,0,0,0-1.13.07,10.23,10.23,0,0,0-1.06.17,5.81,5.81,0,0,0-.88.25,2.49,2.49,0,0,0-.59.29V52.39l4,.38v2.1Z"/><path class="cls-2" d="M507.16,51V39.14h-2.28V37.31l.42-.14.58-.22.54-.22.3-.15A4.9,4.9,0,0,0,507.87,35c.1-.21.22-.46.35-.75s.26-.58.38-.89.24-.62.35-.93l.27-.83h2.87l0,4.77h4.73v2.74h-4.73v8.93c0,.86,0,1.54,0,2a3.71,3.71,0,0,0,.19,1.14.78.78,0,0,0,.47.5,2.68,2.68,0,0,0,.89.11h0a5.84,5.84,0,0,0,.81-.06c.29,0,.57-.1.84-.16a7.67,7.67,0,0,0,.76-.19l.57-.18h0l.76,1.88a7.79,7.79,0,0,1-1.18.74,11.65,11.65,0,0,1-1.55.67,13.36,13.36,0,0,1-1.79.49,10.08,10.08,0,0,1-1.89.18h0a5.41,5.41,0,0,1-1.82-.27,2.83,2.83,0,0,1-1.2-.82,3.28,3.28,0,0,1-.67-1.33A7.06,7.06,0,0,1,507.16,51Z"/><path class="cls-2" d="M529.2,54.87V52.71l2-.32V30.88l-2.42-.41V28.59L535,27.8h.08l1,.76,0,7.59-.26,2.56a9.23,9.23,0,0,1,1.09-.86,10.13,10.13,0,0,1,1.47-.83,10.28,10.28,0,0,1,1.8-.62,8.05,8.05,0,0,1,2-.25,6.75,6.75,0,0,1,2.61.43,3.61,3.61,0,0,1,1.64,1.34,5.9,5.9,0,0,1,.85,2.28,18.16,18.16,0,0,1,.25,3.26v8.93l2.27.32v2.16h-9v-2.1l1.79-.35v-9a15.09,15.09,0,0,0-.11-1.92,3.47,3.47,0,0,0-.43-1.33,1.91,1.91,0,0,0-.87-.77,3.63,3.63,0,0,0-1.43-.25,4.73,4.73,0,0,0-1,.12,8.51,8.51,0,0,0-1,.28,7.85,7.85,0,0,0-.93.38,4.52,4.52,0,0,0-.72.45v12l2.2.32v2.16Z"/><path class="cls-2" d="M560.27,55.24a9.82,9.82,0,0,1-3.91-.71,7.1,7.1,0,0,1-2.69-2,8,8,0,0,1-1.56-3,14.11,14.11,0,0,1-.5-3.84,11.85,11.85,0,0,1,.64-4,8.65,8.65,0,0,1,1.79-3,7.72,7.72,0,0,1,2.79-1.91,9.55,9.55,0,0,1,3.61-.67q6.69,0,7,6.53c0,.74,0,1.41,0,2a9.32,9.32,0,0,1-.17,1.5H556.72a9.78,9.78,0,0,0,.47,2.73,5.32,5.32,0,0,0,1,1.83,3.74,3.74,0,0,0,1.49,1,5.53,5.53,0,0,0,1.9.32,8.31,8.31,0,0,0,1.53-.13,10.93,10.93,0,0,0,1.31-.32,8.29,8.29,0,0,0,1.94-.91l.84,2a5.9,5.9,0,0,1-1.12.88,10.92,10.92,0,0,1-1.64.85,13,13,0,0,1-2,.64A9.42,9.42,0,0,1,560.27,55.24Zm-.44-17a3,3,0,0,0-1.17.22,2.23,2.23,0,0,0-.95.85,5.85,5.85,0,0,0-.68,1.75,16.63,16.63,0,0,0-.33,2.89h5.79a2,2,0,0,1,0-.22c0-.1,0-.2,0-.31s0-.21,0-.3V42.9a13.51,13.51,0,0,0-.11-1.67,5.56,5.56,0,0,0-.41-1.51,3,3,0,0,0-.82-1.08A2.09,2.09,0,0,0,559.83,38.23Z"/><path class="cls-2" d="M569.63,50a5,5,0,0,1,.42-2.11,5.2,5.2,0,0,1,1.18-1.61A7.29,7.29,0,0,1,573,45.07a12.56,12.56,0,0,1,2.19-.8,17.14,17.14,0,0,1,2.45-.45c.84-.1,1.69-.16,2.54-.18v-.77a3.71,3.71,0,0,0-.75-2.62,3.29,3.29,0,0,0-2.45-.78,11.45,11.45,0,0,0-1.75.13c-.59.09-1.15.21-1.69.34s-1,.29-1.49.45-.84.33-1.17.48h0l-1-2.16a8.44,8.44,0,0,1,1.14-.72,15.21,15.21,0,0,1,1.94-.86,20,20,0,0,1,2.49-.73,13.24,13.24,0,0,1,2.82-.3,10.63,10.63,0,0,1,3,.38,4.5,4.5,0,0,1,3.17,3.24,10,10,0,0,1,.37,2.9V52.68h2v2l-.75.17c-.3.07-.64.13-1,.19l-1.18.16q-.63.06-1.29.06a9.31,9.31,0,0,1-1-.05A1.51,1.51,0,0,1,581,55a1,1,0,0,1-.36-.51,2.75,2.75,0,0,1-.11-.9v-.93a6.75,6.75,0,0,1-.76.82,6.57,6.57,0,0,1-1.17.86,7.3,7.3,0,0,1-1.55.66,6.46,6.46,0,0,1-1.92.27,7.05,7.05,0,0,1-2.14-.31,4.72,4.72,0,0,1-1.75-1,4.46,4.46,0,0,1-1.19-1.64A5.94,5.94,0,0,1,569.63,50Zm7.65,2.16a3.37,3.37,0,0,0,.66-.08,5.21,5.21,0,0,0,.78-.23,6.72,6.72,0,0,0,.79-.34,3.76,3.76,0,0,0,.67-.46V45.69a9.82,9.82,0,0,0-2.62.29,4.86,4.86,0,0,0-1.68.77,2.66,2.66,0,0,0-.89,1.11,3.38,3.38,0,0,0-.27,1.34,3.26,3.26,0,0,0,.65,2.18A2.4,2.4,0,0,0,577.28,52.13Z"/><path class="cls-2" d="M588.35,54.87V52.71l2.34-.32V30.88l-2.4-.41V28.59l6.3-.79h0l1,.76V52.39l2.43.32v2.16Z"/><path class="cls-2" d="M602,51V39.14h-2.27V37.31l.41-.14.58-.22c.2-.07.38-.15.54-.22a2.25,2.25,0,0,0,.31-.15A4.76,4.76,0,0,0,602.72,35q.16-.31.36-.75c.13-.28.25-.58.38-.89s.24-.62.34-.93.2-.58.28-.83H607l0,4.77h4.74v2.74H607v8.93c0,.86,0,1.54,0,2a4,4,0,0,0,.2,1.14.78.78,0,0,0,.47.5,2.68,2.68,0,0,0,.89.11h0a6,6,0,0,0,.81-.06c.28,0,.56-.1.84-.16a6.83,6.83,0,0,0,.75-.19l.58-.18h0l.76,1.88a7.79,7.79,0,0,1-1.18.74,11.65,11.65,0,0,1-1.55.67,13.78,13.78,0,0,1-1.79.49,10.08,10.08,0,0,1-1.89.18h0A5.41,5.41,0,0,1,604.1,55a2.92,2.92,0,0,1-1.21-.82,3.41,3.41,0,0,1-.67-1.33A7.06,7.06,0,0,1,602,51Z"/><path class="cls-2" d="M613.7,54.87V52.71l2-.32V30.88l-2.42-.41V28.59l6.27-.79h.08l1,.76,0,7.59-.26,2.56a9.23,9.23,0,0,1,1.09-.86,10.13,10.13,0,0,1,1.47-.83,10.28,10.28,0,0,1,1.8-.62,8.05,8.05,0,0,1,2-.25,6.78,6.78,0,0,1,2.61.43A3.66,3.66,0,0,1,631,37.92a6.06,6.06,0,0,1,.85,2.28,18.16,18.16,0,0,1,.25,3.26v8.93l2.27.32v2.16h-9v-2.1l1.79-.35v-9a13.3,13.3,0,0,0-.12-1.92,3.31,3.31,0,0,0-.42-1.33,1.91,1.91,0,0,0-.87-.77,3.63,3.63,0,0,0-1.43-.25,4.66,4.66,0,0,0-1,.12,8,8,0,0,0-1,.28,7.85,7.85,0,0,0-.93.38,4.52,4.52,0,0,0-.72.45v12l2.2.32v2.16Z"/><path class="cls-2" d="M640.49,55.14a3.59,3.59,0,0,1-1.08-.17,2.69,2.69,0,0,1-.9-.52,2.44,2.44,0,0,1-.61-.81,2.52,2.52,0,0,1-.23-1.08,2.89,2.89,0,0,1,.26-1.21,3.12,3.12,0,0,1,.71-1,3.39,3.39,0,0,1,2.32-.88,3.77,3.77,0,0,1,1.34.21,2.42,2.42,0,0,1,.89.56,2.11,2.11,0,0,1,.5.82,3.32,3.32,0,0,1,.15,1,3,3,0,0,1-.25,1.26,2.69,2.69,0,0,1-.69,1,3.26,3.26,0,0,1-1.06.62A4.2,4.2,0,0,1,640.49,55.14Z"/></svg>