<svg id="Layer_1" data-name="Layer 1" xmlns="http://www.w3.org/2000/svg" viewBox="0 0 728 90"><defs><style>.cls-1{fill:#435563;}.cls-2{opacity:0.1;}.cls-3{fill:#fff;}</style></defs><rect class="cls-1" width="728" height="90"/><g class="cls-2"><path class="cls-3" d="M711.86,20.85a1.68,1.68,0,0,1-1.05-.47l-3-3c-.64-.64-1.17-.42-1.17.49v8.36A4.57,4.57,0,0,0,707.8,29l2.63,2.64a1.68,1.68,0,0,0,2.33,0l17.77-17.76a1.65,1.65,0,0,1,1.27-.46,1.62,1.62,0,0,1,1.06.46l8,8a4.54,4.54,0,0,0,2.81,1.17h8c.91,0,1.12-.53.48-1.17L733,2.81a1.64,1.64,0,0,0-1.24-.47,1.68,1.68,0,0,0-1.1.47L713.15,20.38A1.65,1.65,0,0,1,711.86,20.85Z"/><path class="cls-3" d="M753.76,64.14,736.19,46.57a1.64,1.64,0,0,1-.44-1.52,1.62,1.62,0,0,1,.44-.81l3-3c.64-.64.42-1.16-.48-1.16h-8.38a4.57,4.57,0,0,0-2.81,1.16l-2.64,2.65a1.61,1.61,0,0,0-.48,1.19,1.63,1.63,0,0,0,.48,1.15L742.66,64a1.67,1.67,0,0,1,0,2.34l-8,8a4.57,4.57,0,0,0-1.17,2.82l0,8c0,.9.52,1.12,1.17.48l19.11-19.11a1.71,1.71,0,0,0,0-2.34Z"/><path class="cls-3" d="M711.23,69.15a1.61,1.61,0,0,1,1.11.47l3,3c.64.65,1.17.42,1.17-.48V63.77A4.58,4.58,0,0,0,715.35,61l-2.63-2.63a1.68,1.68,0,0,0-1.49-.45,1.72,1.72,0,0,0-.85.45L692.63,76.09a1.59,1.59,0,0,1-1.08.47,1.65,1.65,0,0,1-1.26-.47l-8-8a4.6,4.6,0,0,0-2.82-1.17l-8.06,0c-.91,0-1.12.51-.48,1.15l19.18,19.17a1.66,1.66,0,0,0,1.43.45,1.71,1.71,0,0,0,.9-.45L710,69.62A1.66,1.66,0,0,1,711.23,69.15Z"/><path class="cls-3" d="M694.22,61.8A1.62,1.62,0,0,1,694.7,63v4.23c0,.91.53,1.13,1.17.49l5.93-5.91A4.63,4.63,0,0,0,703,59V55.24a1.68,1.68,0,0,0-1.66-1.65H676.2A1.61,1.61,0,0,1,675,53a1.63,1.63,0,0,1-.42-1.09V40.62a4.49,4.49,0,0,0-1.19-2.8l-5.6-5.4c-.65-.64-1.19-.41-1.19.49V59.66a1.65,1.65,0,0,0,.55,1.22,1.67,1.67,0,0,0,1.1.42h24.83A1.66,1.66,0,0,1,694.22,61.8Z"/><path class="cls-3" d="M687,43.42a1.66,1.66,0,0,1,.46,1.44,1.58,1.58,0,0,1-.45.89l-3,3c-.64.64-.43,1.17.48,1.17h8.37a4.6,4.6,0,0,0,2.82-1.17l2.62-2.62a1.67,1.67,0,0,0,0-2.33L680.49,26.05a1.66,1.66,0,0,1,0-2.33l8-8a4.41,4.41,0,0,0,1.14-2.81l-.13-7.81c0-.91-.55-1.13-1.19-.49L669.4,23.54a1.63,1.63,0,0,0-.43.78,1.66,1.66,0,0,0,.43,1.55Z"/><path class="cls-3" d="M734.26,60.72l-5.91-5.94a4.59,4.59,0,0,0-2.82-1.16h-3.72a1.64,1.64,0,0,0-1.17.48,1.67,1.67,0,0,0-.48,1.17v25.1A1.67,1.67,0,0,1,718.51,82H707.2a4.49,4.49,0,0,0-2.8,1.19L699,88.81c-.63.66-.41,1.19.5,1.19h26.73a1.67,1.67,0,0,0,1.65-1.65V63.53a1.68,1.68,0,0,1,1.66-1.65h4.25C734.68,61.88,734.9,61.35,734.26,60.72Z"/><path class="cls-3" d="M688.88,29.31l5.92,5.91a4.64,4.64,0,0,0,2.82,1.16h3.72a1.62,1.62,0,0,0,1.22-.56,1.59,1.59,0,0,0,.43-1.09V9.63a1.64,1.64,0,0,1,.6-1.25,1.58,1.58,0,0,1,1-.39H716a4.49,4.49,0,0,0,2.8-1.19l5.42-5.61c.63-.66.41-1.19-.5-1.19H696.93a1.66,1.66,0,0,0-1.65,1.64V26.49a1.68,1.68,0,0,1-.43,1.1,1.63,1.63,0,0,1-1.22.55h-4.27C688.45,28.14,688.24,28.66,688.88,29.31Z"/><path class="cls-3" d="M756.1,29.19a1.7,1.7,0,0,0-1.17-.48H730.1a1.66,1.66,0,0,1-1.66-1.65V22.79c0-.91-.52-1.12-1.16-.48l-5.93,5.92a4.59,4.59,0,0,0-1.16,2.82v3.72a1.67,1.67,0,0,0,1.65,1.65H747a1.64,1.64,0,0,1,1.18.5,1.66,1.66,0,0,1,.47,1.15V49.39a4.43,4.43,0,0,0,1.19,2.79l5.61,5.4c.65.64,1.18.41,1.18-.5V30.37A1.68,1.68,0,0,0,756.1,29.19Z"/></g></svg>