<svg id="Layer_1" data-name="Layer 1" xmlns="http://www.w3.org/2000/svg" viewBox="0 0 728 90"><defs><style>.cls-1{fill:#fff;}.cls-2{fill:#f1b533;}</style></defs><path class="cls-1" d="M37.52,57V54.29l3.19-.55V30.46l-3.13-.61V27.24H50.22v2.61l-3.34.61v9.78H58.54V30.46l-3.17-.61V27.24H67.83v2.61l-3.12.61v23.3l3.12.53V57H55.41V54.29l3.13-.55V43.33H46.88V53.74l3.34.55V57Z"/><path class="cls-1" d="M70.8,51a6.06,6.06,0,0,1,.52-2.56,6.15,6.15,0,0,1,1.43-2,8.39,8.39,0,0,1,2.14-1.42,15.94,15.94,0,0,1,2.65-1,21.38,21.38,0,0,1,3-.56q1.55-.16,3.09-.21v-.94a4.53,4.53,0,0,0-.91-3.17,4,4,0,0,0-3-1,13.87,13.87,0,0,0-2.12.17,20.44,20.44,0,0,0-2,.41,18.56,18.56,0,0,0-1.81.54c-.55.21-1,.4-1.41.58h0l-1.15-2.62a10.2,10.2,0,0,1,1.38-.87,18.52,18.52,0,0,1,2.35-1,23.63,23.63,0,0,1,3-.88,15.52,15.52,0,0,1,3.42-.37,12.62,12.62,0,0,1,3.68.47,5.66,5.66,0,0,1,2.46,1.44,5.86,5.86,0,0,1,1.39,2.47,12.7,12.7,0,0,1,.44,3.53V54.31h2.42v2.4l-.92.2c-.36.09-.76.17-1.21.24s-.92.13-1.42.18a13.42,13.42,0,0,1-1.57.08,10.43,10.43,0,0,1-1.2-.06,1.76,1.76,0,0,1-.8-.27,1.2,1.2,0,0,1-.44-.62A3.45,3.45,0,0,1,84,55.38V54.25a7.93,7.93,0,0,1-.92,1,7.79,7.79,0,0,1-1.42,1,8.73,8.73,0,0,1-1.88.81,8.15,8.15,0,0,1-2.33.32A8.67,8.67,0,0,1,74.89,57a5.81,5.81,0,0,1-2.12-1.15,5.43,5.43,0,0,1-1.44-2A7.21,7.21,0,0,1,70.8,51Zm9.28,2.61a3.49,3.49,0,0,0,.8-.1,6.46,6.46,0,0,0,.94-.27,10,10,0,0,0,1-.42,4.08,4.08,0,0,0,.82-.56V45.83a12.43,12.43,0,0,0-3.18.35,6.05,6.05,0,0,0-2,.94,3.27,3.27,0,0,0-1.08,1.35A4,4,0,0,0,77,50.09a3.87,3.87,0,0,0,.79,2.64A2.88,2.88,0,0,0,80.08,53.64Z"/><path class="cls-1" d="M94.24,57V54.35L96.76,54v-15l-2.66-.82V35.17l7-1h.09l1,.84v2.32a12.29,12.29,0,0,1,3.43-2.15,14.35,14.35,0,0,1,2.16-.69,10.29,10.29,0,0,1,2.28-.26,8.66,8.66,0,0,1,3.14.49,4.19,4.19,0,0,1,2,1.56,7.17,7.17,0,0,1,1.05,2.76,22.7,22.7,0,0,1,.31,4.07V54l2.78.38V57h-11V54.35l2.13-.38V43.08a17.5,17.5,0,0,0-.14-2.34,4.43,4.43,0,0,0-.49-1.61,2.36,2.36,0,0,0-1-.93,3.83,3.83,0,0,0-1.63-.3,5.79,5.79,0,0,0-1.31.15,6.68,6.68,0,0,0-1.22.38,6.42,6.42,0,0,0-1,.52,7.66,7.66,0,0,0-.84.55V54l2.62.39V57Z"/><path class="cls-1" d="M130.08,57.39a8.86,8.86,0,0,1-3.39-.65,7.27,7.27,0,0,1-2.74-2,9.76,9.76,0,0,1-1.84-3.45,16.3,16.3,0,0,1-.66-4.91,14.53,14.53,0,0,1,.79-4.91,11.1,11.1,0,0,1,2.28-3.86,10.31,10.31,0,0,1,3.65-2.53,12.28,12.28,0,0,1,4.86-.91c.55,0,1.08,0,1.59.08a13.1,13.1,0,0,1,1.48.23V27.82l-3.58-.6V25l8.26-.84h.1l1.21.92V54.25h2.17v2.46l-2.23.46a14.45,14.45,0,0,1-2.73.24,2.88,2.88,0,0,1-1.86-.53,2.32,2.32,0,0,1-.66-1.91v-.76a8.16,8.16,0,0,1-1.16,1.2,8.49,8.49,0,0,1-1.53,1,9.22,9.22,0,0,1-1.85.7A8.76,8.76,0,0,1,130.08,57.39Zm2.48-3.53a4.79,4.79,0,0,0,2.12-.45,4.37,4.37,0,0,0,1.42-1V37.67A2.72,2.72,0,0,0,135,37a5.39,5.39,0,0,0-1.81-.27,4.57,4.57,0,0,0-2,.45,4.23,4.23,0,0,0-1.64,1.48,8.5,8.5,0,0,0-1.12,2.75,19.34,19.34,0,0,0-.46,4.2,17.86,17.86,0,0,0,.28,3.74,8,8,0,0,0,.9,2.55,3.81,3.81,0,0,0,1.47,1.46A4.15,4.15,0,0,0,132.56,53.86Z"/><path class="cls-1" d="M159.65,57V54.35L162.5,54v-15l-2.63-.84V35.17l7.16-1h.1l1.43.84V54l2.83.39V57Zm5.2-26a2.77,2.77,0,0,1-1.22-.26,2.53,2.53,0,0,1-.9-.67,2.77,2.77,0,0,1-.55-1,4,4,0,0,1-.18-1.22,4.8,4.8,0,0,1,.2-1.43,3.43,3.43,0,0,1,.63-1.18,3,3,0,0,1,1.07-.8,3.38,3.38,0,0,1,1.47-.3h0a3.2,3.2,0,0,1,1.38.27,2.88,2.88,0,0,1,1,.7,2.73,2.73,0,0,1,.57,1,3.58,3.58,0,0,1,.19,1.19,4.54,4.54,0,0,1-.22,1.45,3.19,3.19,0,0,1-.65,1.17,2.79,2.79,0,0,1-1.13.78,4.31,4.31,0,0,1-1.63.29Z"/><path class="cls-1" d="M174.26,57V54.35l2.52-.39v-15l-2.66-.82V35.17l7-1h.09l1,.84v2.32a12.29,12.29,0,0,1,3.43-2.15,14.59,14.59,0,0,1,2.15-.69,10.44,10.44,0,0,1,2.29-.26,8.57,8.57,0,0,1,3.13.49,4.21,4.21,0,0,1,2,1.56,7.17,7.17,0,0,1,1.05,2.76,22.7,22.7,0,0,1,.31,4.07V54l2.78.38V57h-11V54.35l2.13-.38V43.08a17.5,17.5,0,0,0-.14-2.34,4.43,4.43,0,0,0-.49-1.61,2.36,2.36,0,0,0-1-.93,3.83,3.83,0,0,0-1.63-.3,5.79,5.79,0,0,0-1.31.15,6.68,6.68,0,0,0-1.22.38,7,7,0,0,0-1.06.52,8.54,8.54,0,0,0-.83.55V54l2.62.39V57Z"/><path class="cls-1" d="M214,57V54.35l2.4-.39V27.88l-2.93-.49V25.11l7.6-1h.09l1.2.92,0,9.2-.31,3.1a12.54,12.54,0,0,1,3.11-2,13,13,0,0,1,2.18-.76,10,10,0,0,1,2.49-.3,8.22,8.22,0,0,1,3.16.52,4.46,4.46,0,0,1,2,1.63,7.2,7.2,0,0,1,1,2.76,22.61,22.61,0,0,1,.3,4V54l2.75.39V57H228.19V54.42l2.16-.43V43.08a17.66,17.66,0,0,0-.13-2.34,4.24,4.24,0,0,0-.52-1.61,2.37,2.37,0,0,0-1-.93,4.3,4.3,0,0,0-1.73-.3,6.06,6.06,0,0,0-1.25.14,9.38,9.38,0,0,0-1.24.34,9.56,9.56,0,0,0-1.13.47,5.38,5.38,0,0,0-.88.53V54l2.68.39V57Z"/><path class="cls-1" d="M241,51a5.91,5.91,0,0,1,.52-2.56,6.12,6.12,0,0,1,1.42-2,8.57,8.57,0,0,1,2.14-1.42,16.06,16.06,0,0,1,2.66-1,21.38,21.38,0,0,1,3-.56c1-.11,2.05-.18,3.08-.21v-.94a4.48,4.48,0,0,0-.91-3.17,4,4,0,0,0-3-1,13.64,13.64,0,0,0-2.11.17,20.64,20.64,0,0,0-2.05.41,17.55,17.55,0,0,0-1.8.54c-.56.21-1,.4-1.42.58h0l-1.15-2.62a10.47,10.47,0,0,1,1.39-.87,19,19,0,0,1,2.34-1,23.32,23.32,0,0,1,3-.88,15.38,15.38,0,0,1,3.42-.37,12.67,12.67,0,0,1,3.68.47,5.66,5.66,0,0,1,2.46,1.44,5.85,5.85,0,0,1,1.38,2.47,12.33,12.33,0,0,1,.44,3.53V54.31H262v2.4l-.92.2c-.37.09-.77.17-1.21.24s-.92.13-1.43.18a13.36,13.36,0,0,1-1.56.08,10.18,10.18,0,0,1-1.2-.06,1.76,1.76,0,0,1-.8-.27,1.14,1.14,0,0,1-.44-.62,3.4,3.4,0,0,1-.14-1.08V54.25a7.23,7.23,0,0,1-.92,1,8.05,8.05,0,0,1-1.41,1,8.82,8.82,0,0,1-1.89.81,8.08,8.08,0,0,1-2.32.32,8.74,8.74,0,0,1-2.6-.37A5.89,5.89,0,0,1,243,55.89a5.53,5.53,0,0,1-1.43-2A7,7,0,0,1,241,51Zm9.28,2.61a3.56,3.56,0,0,0,.8-.1,6,6,0,0,0,.93-.27,8.2,8.2,0,0,0,1-.42,3.82,3.82,0,0,0,.82-.56V45.83a12.34,12.34,0,0,0-3.17.35,5.87,5.87,0,0,0-2,.94,3.39,3.39,0,0,0-1.09,1.35,4.14,4.14,0,0,0-.32,1.62,3.87,3.87,0,0,0,.79,2.64A2.9,2.9,0,0,0,250.32,53.64Z"/><path class="cls-1" d="M264.48,57V54.35L267,54v-15l-2.66-.82V35.17l7-1h.1l1,.84v2.32A11.72,11.72,0,0,1,274,36.22a12.2,12.2,0,0,1,1.9-1,14.72,14.72,0,0,1,2.16-.69,10.35,10.35,0,0,1,2.28-.26,8.66,8.66,0,0,1,3.14.49,4.14,4.14,0,0,1,2,1.56,7,7,0,0,1,1.06,2.76,23.67,23.67,0,0,1,.31,4.07V54l2.77.38V57h-11V54.35l2.13-.38V43.08a17.5,17.5,0,0,0-.14-2.34,4.43,4.43,0,0,0-.5-1.61,2.25,2.25,0,0,0-1-.93,3.8,3.8,0,0,0-1.63-.3,5.79,5.79,0,0,0-1.31.15,7.2,7.2,0,0,0-1.22.38,7.33,7.33,0,0,0-1.05.52,6.64,6.64,0,0,0-.83.55V54l2.62.39V57Z"/><path class="cls-1" d="M300.32,57.39a8.79,8.79,0,0,1-3.39-.65,7.3,7.3,0,0,1-2.75-2,9.75,9.75,0,0,1-1.83-3.45,16,16,0,0,1-.67-4.91,14.78,14.78,0,0,1,.79-4.91,11,11,0,0,1,2.29-3.86,10.27,10.27,0,0,1,3.64-2.53,12.31,12.31,0,0,1,4.86-.91c.55,0,1.08,0,1.6.08a13.28,13.28,0,0,1,1.47.23V27.82l-3.57-.6V25l8.26-.84h.1l1.21.92V54.25h2.17v2.46l-2.23.46a14.56,14.56,0,0,1-2.74.24,2.85,2.85,0,0,1-1.85-.53A2.32,2.32,0,0,1,307,55v-.76a7.67,7.67,0,0,1-1.16,1.2,8.4,8.4,0,0,1-1.52,1,9.55,9.55,0,0,1-1.86.7A8.73,8.73,0,0,1,300.32,57.39Zm2.48-3.53a4.82,4.82,0,0,0,2.12-.45,4.32,4.32,0,0,0,1.41-1V37.67a2.67,2.67,0,0,0-1.09-.63,5.49,5.49,0,0,0-1.82-.27,4.53,4.53,0,0,0-2,.45,4.17,4.17,0,0,0-1.64,1.48,8.29,8.29,0,0,0-1.12,2.75,18.17,18.17,0,0,0-.46,4.2,17.27,17.27,0,0,0,.27,3.74,8,8,0,0,0,.91,2.55,3.72,3.72,0,0,0,1.46,1.46A4.19,4.19,0,0,0,302.8,53.86Z"/><path class="cls-1" d="M329.69,57V54.38l3.13-.52V38.12h-3.44V35.77l3.44-1V33.66a9,9,0,0,1,.95-4.17,10.59,10.59,0,0,1,2.46-3.17,11.29,11.29,0,0,1,3.36-2,10.29,10.29,0,0,1,3.66-.71,7,7,0,0,1,1.5.12,6.35,6.35,0,0,1,.78.22v5.84a2.8,2.8,0,0,0-.71-.54,6.26,6.26,0,0,0-1-.47,8.61,8.61,0,0,0-1.24-.34,6.72,6.72,0,0,0-1.35-.14,3.48,3.48,0,0,0-.95.12,1.7,1.7,0,0,0-.74.42,2,2,0,0,0-.46.82,4.36,4.36,0,0,0-.17,1.32l0,3.82h5v3.33h-5V54l4.34.41V57Z"/><path class="cls-1" d="M346.06,45.91a13.28,13.28,0,0,1,.92-5.18,10.67,10.67,0,0,1,2.44-3.67,9.76,9.76,0,0,1,3.52-2.19,12.27,12.27,0,0,1,4.17-.72,11.84,11.84,0,0,1,4.49.79,8.77,8.77,0,0,1,3.29,2.28,10,10,0,0,1,2,3.61,15.94,15.94,0,0,1,.68,4.82,13.66,13.66,0,0,1-.92,5.28,10.35,10.35,0,0,1-2.44,3.66,9.66,9.66,0,0,1-3.51,2.13,12.65,12.65,0,0,1-4.16.69,11.89,11.89,0,0,1-4.5-.79,8.94,8.94,0,0,1-3.29-2.27,9.89,9.89,0,0,1-2-3.62A15.9,15.9,0,0,1,346.06,45.91Zm10.82,8.81a3.47,3.47,0,0,0,1.85-.48,3.56,3.56,0,0,0,1.3-1.51,8.59,8.59,0,0,0,.76-2.62,24.9,24.9,0,0,0,.25-3.83,32.36,32.36,0,0,0-.23-4.05,11.55,11.55,0,0,0-.72-3,4.23,4.23,0,0,0-1.31-1.81,3.18,3.18,0,0,0-2-.61,3.54,3.54,0,0,0-1.87.47,3.65,3.65,0,0,0-1.31,1.51,8.54,8.54,0,0,0-.79,2.63,26,26,0,0,0-.25,3.82,30.48,30.48,0,0,0,.24,4.06,10.73,10.73,0,0,0,.75,2.95,4.34,4.34,0,0,0,1.33,1.81A3.18,3.18,0,0,0,356.88,54.72Z"/><path class="cls-1" d="M370.57,57V54.35l2.81-.38v-15l-2.65-.82V35.17l6.68-1h.11l1,.84v1.62l0,3h.08a8.47,8.47,0,0,1,.85-1.58A10.54,10.54,0,0,1,381,36.31a9,9,0,0,1,2.09-1.52,5.27,5.27,0,0,1,2.57-.64,7.16,7.16,0,0,1,.93.05,2.16,2.16,0,0,1,.53.13v6.75a4,4,0,0,0-1.12-.34,11.33,11.33,0,0,0-2.16-.18,12.7,12.7,0,0,0-1.37.07c-.45.06-.88.12-1.28.21a8,8,0,0,0-1.06.3,4,4,0,0,0-.72.35V54l4.86.46V57Z"/><path class="cls-2" d="M401.92,57V54.35l2.4-.39V27.88l-2.93-.49V25.11l7.6-1h.09l1.2.92,0,9.2-.32,3.1a12.54,12.54,0,0,1,3.11-2,13,13,0,0,1,2.18-.76,10,10,0,0,1,2.49-.3,8.22,8.22,0,0,1,3.16.52,4.46,4.46,0,0,1,2,1.63,7.2,7.2,0,0,1,1,2.76,22.61,22.61,0,0,1,.3,4V54l2.75.39V57H416.08V54.42l2.17-.43V43.08a17.5,17.5,0,0,0-.14-2.34,4.24,4.24,0,0,0-.52-1.61,2.32,2.32,0,0,0-1-.93,4.3,4.3,0,0,0-1.73-.3,6.06,6.06,0,0,0-1.25.14,9.38,9.38,0,0,0-1.24.34,9.56,9.56,0,0,0-1.13.47,4.86,4.86,0,0,0-.87.53V54l2.67.39V57Z"/><path class="cls-2" d="M439.57,57.41a11.72,11.72,0,0,1-4.73-.86,8.62,8.62,0,0,1-3.26-2.39,9.65,9.65,0,0,1-1.89-3.66,17.1,17.1,0,0,1-.61-4.65,14.34,14.34,0,0,1,.78-4.89A10.45,10.45,0,0,1,432,37.29,9.37,9.37,0,0,1,435.41,35a11.66,11.66,0,0,1,4.38-.8q8.1,0,8.46,7.91c0,.9,0,1.71,0,2.43a13.27,13.27,0,0,1-.21,1.83H435.28a12,12,0,0,0,.56,3.3,6.86,6.86,0,0,0,1.23,2.23,4.61,4.61,0,0,0,1.81,1.25,6.51,6.51,0,0,0,2.29.39,10.74,10.74,0,0,0,1.86-.16,11.56,11.56,0,0,0,1.59-.39,9.7,9.7,0,0,0,1.33-.53,10.43,10.43,0,0,0,1-.56l1,2.36a7.24,7.24,0,0,1-1.36,1.06,12.74,12.74,0,0,1-2,1,16.34,16.34,0,0,1-2.42.78A11.23,11.23,0,0,1,439.57,57.41Zm-.52-20.62a3.7,3.7,0,0,0-1.42.27,2.56,2.56,0,0,0-1.15,1,6.62,6.62,0,0,0-.82,2.11,18.1,18.1,0,0,0-.4,3.51h7c0-.06,0-.16,0-.27s0-.24,0-.37,0-.26,0-.37v-.26a15.47,15.47,0,0,0-.14-2,6.63,6.63,0,0,0-.5-1.83,3.53,3.53,0,0,0-1-1.31A2.6,2.6,0,0,0,439.05,36.79Z"/><path class="cls-2" d="M450.92,51a5.91,5.91,0,0,1,.52-2.56,6.12,6.12,0,0,1,1.42-2A8.57,8.57,0,0,1,455,45.09a16.06,16.06,0,0,1,2.66-1,21.38,21.38,0,0,1,3-.56c1-.11,2.06-.18,3.08-.21v-.94a4.53,4.53,0,0,0-.9-3.17,4,4,0,0,0-3-1,13.77,13.77,0,0,0-2.12.17,20.44,20.44,0,0,0-2,.41,17.76,17.76,0,0,0-1.81.54c-.55.21-1,.4-1.42.58h0l-1.15-2.62a11.2,11.2,0,0,1,1.39-.87,19,19,0,0,1,2.34-1,23.32,23.32,0,0,1,3-.88,15.52,15.52,0,0,1,3.42-.37,12.67,12.67,0,0,1,3.68.47,5.66,5.66,0,0,1,2.46,1.44A6,6,0,0,1,469,38.59a12.7,12.7,0,0,1,.44,3.53V54.31h2.42v2.4l-.92.2c-.36.09-.77.17-1.21.24s-.92.13-1.43.18a13.13,13.13,0,0,1-1.56.08,10.18,10.18,0,0,1-1.2-.06,1.76,1.76,0,0,1-.8-.27,1.2,1.2,0,0,1-.44-.62,3.4,3.4,0,0,1-.14-1.08V54.25a7.09,7.09,0,0,1-.91,1,8.42,8.42,0,0,1-3.31,1.85,8,8,0,0,1-2.32.32A8.79,8.79,0,0,1,455,57a6,6,0,0,1-2.12-1.15,5.53,5.53,0,0,1-1.43-2A7.21,7.21,0,0,1,450.92,51Zm9.28,2.61a3.56,3.56,0,0,0,.8-.1,6.46,6.46,0,0,0,.94-.27,8.86,8.86,0,0,0,.95-.42,3.58,3.58,0,0,0,.82-.56V45.83a12.34,12.34,0,0,0-3.17.35,6.05,6.05,0,0,0-2,.94,3.27,3.27,0,0,0-1.08,1.35,4,4,0,0,0-.33,1.62,3.93,3.93,0,0,0,.79,2.64A2.9,2.9,0,0,0,460.2,53.64Z"/><path class="cls-2" d="M474.22,57V54.35L477,54v-15l-2.65-.82V35.17l6.68-1h.11l1,.84v1.62l0,3h.08a8.47,8.47,0,0,1,.85-1.58,11,11,0,0,1,1.52-1.83,9.19,9.19,0,0,1,2.09-1.52,5.3,5.3,0,0,1,2.57-.64,7.16,7.16,0,0,1,.93.05,2.16,2.16,0,0,1,.53.13v6.75a3.89,3.89,0,0,0-1.12-.34,11.18,11.18,0,0,0-2.16-.18,12.39,12.39,0,0,0-1.36.07c-.46.06-.89.12-1.28.21a7.73,7.73,0,0,0-1.07.3,4,4,0,0,0-.72.35V54l4.86.46V57Z"/><path class="cls-2" d="M495.47,52.28V37.9h-2.75V35.67a5,5,0,0,0,.5-.16l.7-.27c.24-.09.46-.17.65-.26a1.63,1.63,0,0,0,.37-.19,5.88,5.88,0,0,0,1.39-1.87c.13-.26.27-.56.43-.91s.31-.7.46-1.08.29-.75.42-1.13.24-.7.33-1h3.48l.06,5.78h5.74V37.9h-5.74V48.72c0,1,0,1.87.05,2.48a4.72,4.72,0,0,0,.23,1.39,1,1,0,0,0,.58.6,3.34,3.34,0,0,0,1.07.14h0a7.06,7.06,0,0,0,1-.08c.34,0,.68-.11,1-.18a9.42,9.42,0,0,0,.92-.24l.69-.22h0l.92,2.28a10.48,10.48,0,0,1-1.43.9,14.17,14.17,0,0,1-1.88.81,15.65,15.65,0,0,1-2.17.59,11.77,11.77,0,0,1-2.29.22h0a6.49,6.49,0,0,1-2.2-.33,3.39,3.39,0,0,1-1.46-1,3.89,3.89,0,0,1-.81-1.61A8.57,8.57,0,0,1,495.47,52.28Z"/><path class="cls-2" d="M522.19,57V54.35l2.4-.39V27.88l-2.93-.49V25.11l7.6-1h.1l1.19.92,0,9.2-.31,3.1a12.52,12.52,0,0,1,1.31-1,12.13,12.13,0,0,1,1.79-1,13.28,13.28,0,0,1,2.18-.76,10.11,10.11,0,0,1,2.49-.3,8.18,8.18,0,0,1,3.16.52,4.44,4.44,0,0,1,2,1.63,7.36,7.36,0,0,1,1,2.76,22.61,22.61,0,0,1,.3,4V54l2.76.39V57H536.35V54.42l2.17-.43V43.08a17.5,17.5,0,0,0-.14-2.34,4.07,4.07,0,0,0-.52-1.61,2.32,2.32,0,0,0-1.05-.93,4.3,4.3,0,0,0-1.73-.3,6.14,6.14,0,0,0-1.25.14,9.82,9.82,0,0,0-1.24.34,8.75,8.75,0,0,0-1.12.47,5,5,0,0,0-.88.53V54l2.67.39V57Z"/><path class="cls-2" d="M559.85,57.41a11.74,11.74,0,0,1-4.74-.86,8.62,8.62,0,0,1-3.26-2.39A10,10,0,0,1,550,50.5a17.1,17.1,0,0,1-.6-4.65,14.59,14.59,0,0,1,.77-4.89,10.32,10.32,0,0,1,2.18-3.67A9.29,9.29,0,0,1,555.69,35a11.57,11.57,0,0,1,4.37-.8q8.1,0,8.46,7.91c0,.9,0,1.71,0,2.43a10.76,10.76,0,0,1-.21,1.83H555.55a12,12,0,0,0,.57,3.3,6.51,6.51,0,0,0,1.23,2.23,4.58,4.58,0,0,0,1.8,1.25,6.57,6.57,0,0,0,2.3.39,10.71,10.71,0,0,0,1.85-.16,11.36,11.36,0,0,0,1.6-.39,9.55,9.55,0,0,0,1.32-.53,10.43,10.43,0,0,0,1-.56l1,2.36a7.13,7.13,0,0,1-1.35,1.06,13.2,13.2,0,0,1-2,1,16.48,16.48,0,0,1-2.43.78A11.09,11.09,0,0,1,559.85,57.41Zm-.53-20.62a3.7,3.7,0,0,0-1.42.27,2.62,2.62,0,0,0-1.15,1,6.87,6.87,0,0,0-.82,2.11,18.92,18.92,0,0,0-.4,3.51h7c0-.06,0-.16,0-.27s0-.24,0-.37,0-.26,0-.37v-.26a13.91,13.91,0,0,0-.14-2A6.63,6.63,0,0,0,562,38.6a3.55,3.55,0,0,0-1-1.31A2.58,2.58,0,0,0,559.32,36.79Z"/><path class="cls-2" d="M571.19,51a6.06,6.06,0,0,1,.52-2.56,6.15,6.15,0,0,1,1.43-2,8.39,8.39,0,0,1,2.14-1.42,15.94,15.94,0,0,1,2.65-1,21.38,21.38,0,0,1,3-.56q1.54-.16,3.09-.21v-.94a4.53,4.53,0,0,0-.91-3.17,4,4,0,0,0-3-1,13.87,13.87,0,0,0-2.12.17,20.44,20.44,0,0,0-2,.41,18.56,18.56,0,0,0-1.81.54c-.55.21-1,.4-1.41.58h0l-1.15-2.62a10.2,10.2,0,0,1,1.38-.87,19.18,19.18,0,0,1,2.35-1,23.63,23.63,0,0,1,3-.88,15.52,15.52,0,0,1,3.42-.37,12.62,12.62,0,0,1,3.68.47,5.66,5.66,0,0,1,2.46,1.44,5.76,5.76,0,0,1,1.39,2.47,12.7,12.7,0,0,1,.44,3.53V54.31h2.42v2.4l-.92.2c-.36.09-.76.17-1.21.24s-.91.13-1.42.18a13.36,13.36,0,0,1-1.56.08,10.49,10.49,0,0,1-1.21-.06,1.8,1.8,0,0,1-.8-.27,1.2,1.2,0,0,1-.44-.62,3.45,3.45,0,0,1-.13-1.08V54.25a7.23,7.23,0,0,1-.92,1,7.79,7.79,0,0,1-1.42,1,8.73,8.73,0,0,1-1.88.81,8.1,8.1,0,0,1-2.33.32,8.67,8.67,0,0,1-2.59-.37,5.81,5.81,0,0,1-2.12-1.15,5.43,5.43,0,0,1-1.44-2A7.21,7.21,0,0,1,571.19,51Zm9.28,2.61a3.49,3.49,0,0,0,.8-.1,6.46,6.46,0,0,0,.94-.27,9,9,0,0,0,1-.42,4.08,4.08,0,0,0,.82-.56V45.83a12.43,12.43,0,0,0-3.18.35,6.05,6.05,0,0,0-2,.94,3.27,3.27,0,0,0-1.08,1.35,4,4,0,0,0-.32,1.62,3.87,3.87,0,0,0,.79,2.64A2.88,2.88,0,0,0,580.47,53.64Z"/><path class="cls-2" d="M593.89,57V54.35l2.83-.39V27.88l-2.91-.49V25.11l7.64-1h.06l1.23.92V54l3,.39V57Z"/><path class="cls-2" d="M610.45,52.28V37.9H607.7V35.67a5,5,0,0,0,.5-.16l.7-.27c.24-.09.46-.17.65-.26a1.63,1.63,0,0,0,.37-.19,5.88,5.88,0,0,0,1.39-1.87c.13-.26.27-.56.43-.91s.31-.7.46-1.08.29-.75.42-1.13.24-.7.33-1h3.48l.06,5.78h5.74V37.9h-5.74V48.72c0,1,0,1.87,0,2.48a4.72,4.72,0,0,0,.23,1.39,1,1,0,0,0,.58.6,3.34,3.34,0,0,0,1.07.14h0a7.06,7.06,0,0,0,1-.08c.34,0,.68-.11,1-.18a9.42,9.42,0,0,0,.92-.24l.69-.22h0l.92,2.28a10.48,10.48,0,0,1-1.43.9,14.17,14.17,0,0,1-1.88.81,15.65,15.65,0,0,1-2.17.59,11.77,11.77,0,0,1-2.29.22h0a6.49,6.49,0,0,1-2.2-.33,3.39,3.39,0,0,1-1.46-1,4,4,0,0,1-.81-1.61A8.57,8.57,0,0,1,610.45,52.28Z"/><path class="cls-2" d="M624.61,57V54.35L627,54V27.88l-2.93-.49V25.11l7.6-1h.1l1.19.92,0,9.2-.31,3.1a11.75,11.75,0,0,1,1.32-1,11.52,11.52,0,0,1,1.78-1,13.28,13.28,0,0,1,2.18-.76,10.11,10.11,0,0,1,2.49-.3,8.27,8.27,0,0,1,3.17.52,4.46,4.46,0,0,1,2,1.63,7.2,7.2,0,0,1,1,2.76,21.6,21.6,0,0,1,.31,4V54l2.75.39V57H638.77V54.42l2.17-.43V43.08a17.5,17.5,0,0,0-.14-2.34,4.24,4.24,0,0,0-.51-1.61,2.39,2.39,0,0,0-1.06-.93,4.26,4.26,0,0,0-1.73-.3,6.14,6.14,0,0,0-1.25.14,9.82,9.82,0,0,0-1.24.34,9.4,9.4,0,0,0-1.12.47,5.38,5.38,0,0,0-.88.53V54l2.68.39V57Z"/><path class="cls-2" d="M657.09,57.29a4.13,4.13,0,0,1-1.31-.21,3.26,3.26,0,0,1-1.09-.62,3.14,3.14,0,0,1-.74-1,3.06,3.06,0,0,1-.28-1.3A3.4,3.4,0,0,1,654,52.7a3.74,3.74,0,0,1,.86-1.19,3.84,3.84,0,0,1,1.27-.79,4.13,4.13,0,0,1,1.54-.28,4.52,4.52,0,0,1,1.62.25,3,3,0,0,1,1.08.69,2.49,2.49,0,0,1,.61,1,4,4,0,0,1,.19,1.21,3.8,3.8,0,0,1-.31,1.53,3.5,3.5,0,0,1-.84,1.17,3.75,3.75,0,0,1-1.29.75A4.76,4.76,0,0,1,657.09,57.29Z"/></svg>