<svg id="Layer_1" data-name="Layer 1" xmlns="http://www.w3.org/2000/svg" viewBox="0 0 1200 628"><defs><style>.cls-1{fill:#fff;}.cls-2{fill:#f1b533;}</style></defs><path class="cls-1" d="M96,498.19a24.81,24.81,0,0,1-4.19-.33c-1.27-.22-2.42-.47-3.45-.73s-1.9-.53-2.64-.76A7.65,7.65,0,0,0,84,496l.42-9.26h4.39l1.08,6.06A5.86,5.86,0,0,0,92,494.09a9.75,9.75,0,0,0,3.64.61,9,9,0,0,0,2.9-.41,5.13,5.13,0,0,0,2-1.12,4.27,4.27,0,0,0,1.07-1.68,6.45,6.45,0,0,0,.33-2.09,4.86,4.86,0,0,0-.56-2.33,7.09,7.09,0,0,0-1.61-2,14.93,14.93,0,0,0-2.57-1.75c-1-.57-2.15-1.16-3.41-1.77-1-.46-2-1-3.12-1.66a14.74,14.74,0,0,1-3-2.4,12.65,12.65,0,0,1-2.32-3.32,10,10,0,0,1-.92-4.42,9,9,0,0,1,.81-3.78,8.76,8.76,0,0,1,2.43-3.11,12.1,12.1,0,0,1,4-2.11,17.55,17.55,0,0,1,5.54-.79,22.25,22.25,0,0,1,3.29.25c1.08.16,2.08.34,3,.55s1.74.4,2.45.6,1.25.32,1.62.39l-.31,8.42h-4.3l-1-5.54a2.13,2.13,0,0,0-.65-.45,6.53,6.53,0,0,0-1-.43,9.16,9.16,0,0,0-1.3-.32,8.75,8.75,0,0,0-1.44-.12,8.87,8.87,0,0,0-2.59.33,4.5,4.5,0,0,0-1.75.94,3.73,3.73,0,0,0-1,1.44,5.09,5.09,0,0,0-.31,1.83,4.89,4.89,0,0,0,.63,2.5,7.17,7.17,0,0,0,1.77,2,17.77,17.77,0,0,0,2.7,1.76q1.56.84,3.42,1.77c1.07.54,2.17,1.15,3.29,1.82a17.8,17.8,0,0,1,3.08,2.33,11.31,11.31,0,0,1,2.27,3,8.13,8.13,0,0,1,.88,3.85,10.92,10.92,0,0,1-.76,3.93,10,10,0,0,1-2.42,3.64,12.3,12.3,0,0,1-4.29,2.66A17.56,17.56,0,0,1,96,498.19Z"/><path class="cls-1" d="M112.91,490.2a7.48,7.48,0,0,1,.65-3.19,7.68,7.68,0,0,1,1.78-2.45,11.1,11.1,0,0,1,2.67-1.78,19.44,19.44,0,0,1,3.32-1.21,25.89,25.89,0,0,1,3.71-.69c1.29-.15,2.58-.24,3.86-.27v-1.17a5.67,5.67,0,0,0-1.13-4,5,5,0,0,0-3.73-1.18,18.29,18.29,0,0,0-2.65.2c-.88.14-1.73.31-2.55.52a23.33,23.33,0,0,0-2.26.68q-1,.38-1.77.72h0l-1.44-3.27a12.66,12.66,0,0,1,1.73-1.09,21.72,21.72,0,0,1,2.93-1.3,28.06,28.06,0,0,1,3.79-1.1,19.4,19.4,0,0,1,4.27-.47,15.68,15.68,0,0,1,4.6.59,7.09,7.09,0,0,1,3.08,1.81,7.21,7.21,0,0,1,1.73,3.08,15.63,15.63,0,0,1,.55,4.41v15.24h3v3c-.31.06-.69.15-1.15.26s-1,.2-1.51.29-1.15.16-1.79.23-1.28.1-2,.1a12.67,12.67,0,0,1-1.5-.08,2,2,0,0,1-1-.34,1.48,1.48,0,0,1-.55-.77,4.39,4.39,0,0,1-.17-1.35v-1.42a9.52,9.52,0,0,1-1.15,1.25,10.12,10.12,0,0,1-1.77,1.29,10.47,10.47,0,0,1-2.35,1,9.89,9.89,0,0,1-2.91.41,11,11,0,0,1-3.25-.47,7.33,7.33,0,0,1-2.65-1.44,6.87,6.87,0,0,1-1.79-2.49A8.92,8.92,0,0,1,112.91,490.2Zm11.6,3.28a4.36,4.36,0,0,0,1-.13,8.83,8.83,0,0,0,1.17-.34,9.06,9.06,0,0,0,1.2-.52,5.23,5.23,0,0,0,1-.7v-8.08a15.38,15.38,0,0,0-4,.44,7.37,7.37,0,0,0-2.55,1.17A4.22,4.22,0,0,0,121,487a5.1,5.1,0,0,0-.41,2,5,5,0,0,0,1,3.31A3.64,3.64,0,0,0,124.51,493.48Z"/><path class="cls-1" d="M141.65,497.63V494.4l3.9-.66V474.07h-4.3v-2.93l4.3-1.22V468.5a11.2,11.2,0,0,1,1.2-5.21,13,13,0,0,1,3.07-4,13.83,13.83,0,0,1,4.2-2.51,12.77,12.77,0,0,1,4.57-.88,9.7,9.7,0,0,1,1.88.14c.42.1.75.19,1,.27v7.3a3.82,3.82,0,0,0-.9-.67,8.6,8.6,0,0,0-1.29-.59,11.29,11.29,0,0,0-1.55-.42,7.92,7.92,0,0,0-1.68-.17,4.49,4.49,0,0,0-1.2.14,2,2,0,0,0-.92.53,2.51,2.51,0,0,0-.58,1,5.43,5.43,0,0,0-.21,1.65l0,4.79h6.28v4.15h-6.28v19.82l5.42.51v3.23Z"/><path class="cls-1" d="M175.34,498.19a14.73,14.73,0,0,1-5.92-1.08,10.7,10.7,0,0,1-4.08-3,12.3,12.3,0,0,1-2.36-4.58,21.33,21.33,0,0,1-.75-5.81,18.18,18.18,0,0,1,1-6.11,13.1,13.1,0,0,1,2.72-4.59,11.56,11.56,0,0,1,4.23-2.89,14.33,14.33,0,0,1,5.47-1q10.13,0,10.57,9.89c0,1.13,0,2.14,0,3a14.25,14.25,0,0,1-.25,2.28H170a15.15,15.15,0,0,0,.7,4.13,8.1,8.1,0,0,0,1.54,2.78,5.67,5.67,0,0,0,2.26,1.57,8.27,8.27,0,0,0,2.87.48,13,13,0,0,0,2.32-.19,15.24,15.24,0,0,0,2-.49,11,11,0,0,0,1.66-.66,13.11,13.11,0,0,0,1.28-.71l1.27,3a9.32,9.32,0,0,1-1.7,1.33,16,16,0,0,1-2.49,1.28,19.57,19.57,0,0,1-3,1A14,14,0,0,1,175.34,498.19Zm-.66-25.78a4.47,4.47,0,0,0-1.77.34,3.24,3.24,0,0,0-1.44,1.29,8.46,8.46,0,0,0-1,2.65,23.46,23.46,0,0,0-.5,4.38h8.77c0-.08,0-.19,0-.34s0-.3,0-.46,0-.32,0-.47v-.31a18.12,18.12,0,0,0-.17-2.53,7.92,7.92,0,0,0-.62-2.28,4.28,4.28,0,0,0-1.24-1.64A3.18,3.18,0,0,0,174.68,472.41Z"/><path class="cls-1" d="M192.82,491.77v-18h-3.44V471l.62-.2.88-.33.81-.33a5.19,5.19,0,0,0,.47-.23,7.59,7.59,0,0,0,1.73-2.35c.16-.32.34-.7.54-1.13s.39-.89.57-1.36.36-.94.53-1.4.3-.88.41-1.26h4.35l.07,7.23h7.18v4.15h-7.18v13.52c0,1.31,0,2.34.06,3.1a6,6,0,0,0,.29,1.74,1.21,1.21,0,0,0,.73.75,4,4,0,0,0,1.34.17h0A9.16,9.16,0,0,0,204,493q.65-.11,1.26-.24a10.14,10.14,0,0,0,1.15-.29c.35-.1.64-.2.87-.28h0l1.15,2.86a13.31,13.31,0,0,1-1.79,1.12,16.44,16.44,0,0,1-2.35,1,18.19,18.19,0,0,1-2.71.74,15.42,15.42,0,0,1-2.87.28h0a8,8,0,0,1-2.75-.42,4.21,4.21,0,0,1-1.83-1.23,5.16,5.16,0,0,1-1-2A10.93,10.93,0,0,1,192.82,491.77Z"/><path class="cls-1" d="M216.72,510.08l-1.08,0c-.39,0-.77,0-1.14-.07s-.71-.07-1-.11a4.05,4.05,0,0,1-.64-.13v-6a7.78,7.78,0,0,0,1.45.41,12.62,12.62,0,0,0,2.55.23,8.64,8.64,0,0,0,1.6-.17,4.52,4.52,0,0,0,1.79-.86,8.54,8.54,0,0,0,1.88-2,17.33,17.33,0,0,0,1.86-3.7h-4.39l-8.79-24.17-2.23-.69v-3.12H222.7v3.1l-3.69.71,4.67,14.47,1.9,6.64,1.66-6.64L231,473.46l-3.17-.71v-3.1h10.79v3.12l-2.25.69q-.7,2.22-1.5,4.79l-1.6,5.2q-.79,2.63-1.58,5.12c-.53,1.66-1,3.17-1.42,4.54s-.79,2.53-1.11,3.49-.55,1.61-.7,1.95a24.83,24.83,0,0,1-4.88,8.59A9.06,9.06,0,0,1,216.72,510.08Z"/><path class="cls-1" d="M256,490.2a7.48,7.48,0,0,1,.64-3.19,7.71,7.71,0,0,1,1.79-2.45,10.72,10.72,0,0,1,2.67-1.78,19.13,19.13,0,0,1,3.32-1.21,25.63,25.63,0,0,1,3.71-.69c1.29-.15,2.57-.24,3.86-.27v-1.17a5.62,5.62,0,0,0-1.14-4,5,5,0,0,0-3.72-1.18,18.29,18.29,0,0,0-2.65.2c-.89.14-1.74.31-2.55.52a21.75,21.75,0,0,0-2.26.68q-1,.38-1.77.72h0l-1.44-3.27a12,12,0,0,1,1.73-1.09,21.17,21.17,0,0,1,2.93-1.3,28.34,28.34,0,0,1,3.78-1.1,19.56,19.56,0,0,1,4.28-.47,15.73,15.73,0,0,1,4.6.59,7.05,7.05,0,0,1,3.07,1.81,7.33,7.33,0,0,1,1.74,3.08,16,16,0,0,1,.55,4.41v15.24h3v3c-.31.06-.69.15-1.14.26s-1,.2-1.52.29-1.14.16-1.78.23-1.29.1-1.95.1a12.55,12.55,0,0,1-1.5-.08,2.08,2.08,0,0,1-1-.34,1.46,1.46,0,0,1-.54-.77,4.07,4.07,0,0,1-.18-1.35v-1.42a8.73,8.73,0,0,1-1.14,1.25,10.12,10.12,0,0,1-1.77,1.29,10.36,10.36,0,0,1-2.36,1,9.87,9.87,0,0,1-2.9.41,11,11,0,0,1-3.25-.47,7.33,7.33,0,0,1-2.65-1.44,6.75,6.75,0,0,1-1.79-2.49A8.92,8.92,0,0,1,256,490.2Zm11.59,3.28a4.23,4.23,0,0,0,1-.13,8.53,8.53,0,0,0,1.18-.34,9.54,9.54,0,0,0,1.19-.52,5.64,5.64,0,0,0,1-.7v-8.08a15.38,15.38,0,0,0-4,.44,7.2,7.2,0,0,0-2.55,1.17,4.17,4.17,0,0,0-1.36,1.69,5.27,5.27,0,0,0-.4,2,4.9,4.9,0,0,0,1,3.31A3.62,3.62,0,0,0,267.57,493.48Z"/><path class="cls-1" d="M285.27,497.63v-3.28l3.15-.48V475.09l-3.32-1v-3.69l8.74-1.2H294l1.3,1.05v2.91a14.49,14.49,0,0,1,1.9-1.44,16.24,16.24,0,0,1,2.38-1.25,18.09,18.09,0,0,1,2.7-.86,12.55,12.55,0,0,1,2.86-.33,10.87,10.87,0,0,1,3.92.61,5.27,5.27,0,0,1,2.5,1.95,8.89,8.89,0,0,1,1.32,3.45,28.6,28.6,0,0,1,.39,5.1v13.52l3.46.46v3.28H303v-3.28l2.66-.46V480.27a22.2,22.2,0,0,0-.17-2.92,5.48,5.48,0,0,0-.62-2,2.8,2.8,0,0,0-1.25-1.16,4.64,4.64,0,0,0-2-.38,7.4,7.4,0,0,0-1.63.18,9.11,9.11,0,0,0-1.53.48,10.12,10.12,0,0,0-1.32.64,9.63,9.63,0,0,0-1,.7v18.07l3.27.48v3.28Z"/><path class="cls-1" d="M330.07,498.16a10.81,10.81,0,0,1-4.23-.82,8.94,8.94,0,0,1-3.43-2.52,12.36,12.36,0,0,1-2.3-4.31,20.36,20.36,0,0,1-.83-6.14,18.26,18.26,0,0,1,1-6.14,13.78,13.78,0,0,1,2.86-4.82,12.83,12.83,0,0,1,4.55-3.16,15.43,15.43,0,0,1,6.08-1.14,18.41,18.41,0,0,1,2,.1,14.74,14.74,0,0,1,1.84.29v-8.3l-4.47-.76v-2.78l10.33-1.05h.12l1.52,1.15v36.47h2.71v3.08c-.82.18-1.74.37-2.79.57a17.28,17.28,0,0,1-3.41.31,3.62,3.62,0,0,1-2.32-.66,2.89,2.89,0,0,1-.83-2.39v-1a10.26,10.26,0,0,1-1.46,1.5,9.54,9.54,0,0,1-1.9,1.27,11,11,0,0,1-2.32.88A10.62,10.62,0,0,1,330.07,498.16Zm3.1-4.42a5.9,5.9,0,0,0,2.65-.56,5.11,5.11,0,0,0,1.77-1.27V473.5a3.52,3.52,0,0,0-1.36-.78,7,7,0,0,0-2.27-.34,5.82,5.82,0,0,0-2.5.56,5.36,5.36,0,0,0-2,1.86,10.68,10.68,0,0,0-1.4,3.43,23.86,23.86,0,0,0-.57,5.26,21.56,21.56,0,0,0,.34,4.67,10.22,10.22,0,0,0,1.13,3.19,4.76,4.76,0,0,0,1.83,1.82A5.18,5.18,0,0,0,333.17,493.74Z"/><path class="cls-1" d="M366.77,497.63v-3.28l3-.48v-32.6l-3.66-.61v-2.85l9.5-1.2h.12l1.49,1.15,0,11.5-.39,3.88a14,14,0,0,1,1.64-1.3,15.25,15.25,0,0,1,2.24-1.25,15,15,0,0,1,2.72-.95,12.1,12.1,0,0,1,3.11-.38,10.27,10.27,0,0,1,4,.66,5.4,5.4,0,0,1,2.47,2,8.84,8.84,0,0,1,1.3,3.46,28.27,28.27,0,0,1,.38,4.94v13.53l3.44.48v3.28H384.47v-3.18l2.71-.54V480.27a22.2,22.2,0,0,0-.17-2.92,5.28,5.28,0,0,0-.65-2,2.92,2.92,0,0,0-1.32-1.16,5.16,5.16,0,0,0-2.16-.38,7.83,7.83,0,0,0-1.56.17,12.13,12.13,0,0,0-1.55.43,11.23,11.23,0,0,0-1.41.58,6.92,6.92,0,0,0-1.09.67v18.22l3.34.48v3.28Z"/><path class="cls-1" d="M413.84,498.19a14.73,14.73,0,0,1-5.92-1.08,10.77,10.77,0,0,1-4.08-3,12.3,12.3,0,0,1-2.36-4.58,21.33,21.33,0,0,1-.75-5.81,18.18,18.18,0,0,1,1-6.11,13.1,13.1,0,0,1,2.72-4.59,11.64,11.64,0,0,1,4.23-2.89,14.33,14.33,0,0,1,5.47-1q10.13,0,10.57,9.89c0,1.13,0,2.14,0,3a15.35,15.35,0,0,1-.26,2.28H408.47a15.15,15.15,0,0,0,.7,4.13,8.27,8.27,0,0,0,1.54,2.78,5.67,5.67,0,0,0,2.26,1.57,8.27,8.27,0,0,0,2.87.48,13,13,0,0,0,2.32-.19,14.85,14.85,0,0,0,2-.49,11,11,0,0,0,1.66-.66,12,12,0,0,0,1.28-.71l1.27,3a9.32,9.32,0,0,1-1.7,1.33,16,16,0,0,1-2.49,1.28,19.79,19.79,0,0,1-3,1A14.2,14.2,0,0,1,413.84,498.19Zm-.66-25.78a4.47,4.47,0,0,0-1.77.34A3.24,3.24,0,0,0,410,474a8.46,8.46,0,0,0-1,2.65,23.46,23.46,0,0,0-.5,4.38h8.77c0-.08,0-.19,0-.34s0-.3,0-.46,0-.32,0-.47v-.31a18.15,18.15,0,0,0-.18-2.53,7.92,7.92,0,0,0-.62-2.28,4.28,4.28,0,0,0-1.24-1.64A3.18,3.18,0,0,0,413.18,472.41Z"/><path class="cls-1" d="M428,490.2a7.48,7.48,0,0,1,.65-3.19,7.68,7.68,0,0,1,1.78-2.45,11.1,11.1,0,0,1,2.67-1.78,19.55,19.55,0,0,1,3.33-1.21,25.38,25.38,0,0,1,3.71-.69c1.28-.15,2.57-.24,3.85-.27v-1.17a5.62,5.62,0,0,0-1.13-4,5,5,0,0,0-3.72-1.18,18.18,18.18,0,0,0-2.65.2c-.89.14-1.74.31-2.55.52a21.75,21.75,0,0,0-2.26.68c-.7.25-1.28.49-1.77.72h0l-1.44-3.27a12.29,12.29,0,0,1,1.74-1.09,21.55,21.55,0,0,1,2.92-1.3,28.5,28.5,0,0,1,3.79-1.1,19.47,19.47,0,0,1,4.27-.47,15.68,15.68,0,0,1,4.6.59,7.09,7.09,0,0,1,3.08,1.81,7.21,7.21,0,0,1,1.73,3.08,15.63,15.63,0,0,1,.55,4.41v15.24h3v3c-.31.06-.69.15-1.15.26s-1,.2-1.51.29-1.15.16-1.78.23-1.29.1-2,.1a12.8,12.8,0,0,1-1.5-.08,2,2,0,0,1-1-.34,1.48,1.48,0,0,1-.55-.77,4.39,4.39,0,0,1-.17-1.35v-1.42a9.52,9.52,0,0,1-1.15,1.25,9.41,9.41,0,0,1-1.77,1.29,10.28,10.28,0,0,1-2.35,1,9.89,9.89,0,0,1-2.91.41,11.05,11.05,0,0,1-3.25-.47,7.29,7.29,0,0,1-2.64-1.44,6.78,6.78,0,0,1-1.8-2.49A8.92,8.92,0,0,1,428,490.2Zm11.6,3.28a4.29,4.29,0,0,0,1-.13,8.83,8.83,0,0,0,1.17-.34,9.06,9.06,0,0,0,1.2-.52,5.23,5.23,0,0,0,1-.7v-8.08a15.25,15.25,0,0,0-4,.44,7.2,7.2,0,0,0-2.55,1.17,4.17,4.17,0,0,0-1.36,1.69,5.09,5.09,0,0,0-.4,2,4.9,4.9,0,0,0,1,3.31A3.62,3.62,0,0,0,439.62,493.48Z"/><path class="cls-1" d="M457.15,497.63v-3.28l3.51-.46v-18.8l-3.32-1v-3.69l8.35-1.2h.15l1.29,1.05v2l0,3.81h.1a10.69,10.69,0,0,1,1.06-2,13.65,13.65,0,0,1,1.9-2.29,11.54,11.54,0,0,1,2.62-1.91,6.64,6.64,0,0,1,3.21-.79,8.5,8.5,0,0,1,1.16.06,4.14,4.14,0,0,1,.67.16v8.45a4.47,4.47,0,0,0-1.41-.43,15.37,15.37,0,0,0-4.4-.13c-.57.06-1.11.15-1.6.25a9.27,9.27,0,0,0-1.33.38,4.3,4.3,0,0,0-.91.44v15.58l6.08.58v3.18Z"/><path class="cls-1" d="M483.71,491.77v-18h-3.44V471c.13,0,.34-.1.62-.2l.88-.33.82-.33.46-.23a7.76,7.76,0,0,0,1.74-2.35c.16-.32.34-.7.53-1.13s.39-.89.58-1.36.36-.94.52-1.4.3-.88.42-1.26h4.34l.07,7.23h7.18v4.15h-7.18v13.52c0,1.31,0,2.34.07,3.1a5.64,5.64,0,0,0,.29,1.74,1.17,1.17,0,0,0,.72.75,4,4,0,0,0,1.34.17h0a8.91,8.91,0,0,0,1.23-.09c.43-.07.85-.15,1.27-.24a10.71,10.71,0,0,0,1.15-.29c.35-.1.63-.2.86-.28h0l1.14,2.86a12.15,12.15,0,0,1-1.79,1.12,16.8,16.8,0,0,1-2.34,1,18.88,18.88,0,0,1-2.71.74,15.51,15.51,0,0,1-2.87.28h-.05a8,8,0,0,1-2.75-.42,4.27,4.27,0,0,1-1.83-1.23,5.15,5.15,0,0,1-1-2A10.9,10.9,0,0,1,483.71,491.77Z"/><path class="cls-1" d="M517.11,497.63v-3.28l3-.48v-32.6l-3.66-.61v-2.85l9.5-1.2h.12l1.49,1.15.05,11.5-.39,3.88a15.93,15.93,0,0,1,1.64-1.3,15.76,15.76,0,0,1,5-2.2,12.16,12.16,0,0,1,3.11-.38,10.23,10.23,0,0,1,4,.66,5.48,5.48,0,0,1,2.48,2,9,9,0,0,1,1.29,3.46,28.27,28.27,0,0,1,.38,4.94v13.53l3.44.48v3.28H534.81v-3.18l2.71-.54V480.27a22.2,22.2,0,0,0-.17-2.92,5.28,5.28,0,0,0-.65-2,2.92,2.92,0,0,0-1.32-1.16,5.16,5.16,0,0,0-2.16-.38,7.83,7.83,0,0,0-1.56.17,12.6,12.6,0,0,0-1.55.43,11.08,11.08,0,0,0-1.4.58,7.06,7.06,0,0,0-1.1.67v18.22l3.34.48v3.28Z"/><path class="cls-1" d="M564.18,498.19a14.73,14.73,0,0,1-5.92-1.08,10.77,10.77,0,0,1-4.08-3,12.29,12.29,0,0,1-2.35-4.58,21,21,0,0,1-.76-5.81,18.18,18.18,0,0,1,1-6.11,13.12,13.12,0,0,1,2.73-4.59,11.52,11.52,0,0,1,4.22-2.89,14.36,14.36,0,0,1,5.47-1q10.13,0,10.57,9.89c0,1.13,0,2.14,0,3a14.12,14.12,0,0,1-.26,2.28H558.81a15.12,15.12,0,0,0,.71,4.13,8.09,8.09,0,0,0,1.53,2.78,5.67,5.67,0,0,0,2.26,1.57,8.27,8.27,0,0,0,2.87.48,13,13,0,0,0,2.32-.19,14.85,14.85,0,0,0,2-.49,11,11,0,0,0,1.66-.66,12,12,0,0,0,1.28-.71l1.27,3a9.32,9.32,0,0,1-1.7,1.33,16,16,0,0,1-2.49,1.28,19.79,19.79,0,0,1-3,1A14.13,14.13,0,0,1,564.18,498.19Zm-.66-25.78a4.54,4.54,0,0,0-1.77.34,3.35,3.35,0,0,0-1.44,1.29,8.71,8.71,0,0,0-1,2.65,24.34,24.34,0,0,0-.5,4.38h8.77c0-.08,0-.19,0-.34s0-.3,0-.46,0-.32,0-.47v-.31a19.79,19.79,0,0,0-.17-2.53,7.92,7.92,0,0,0-.63-2.28,4.28,4.28,0,0,0-1.24-1.64A3.18,3.18,0,0,0,563.52,472.41Z"/><path class="cls-1" d="M578.36,490.2A7.48,7.48,0,0,1,579,487a7.83,7.83,0,0,1,1.78-2.45,11,11,0,0,1,2.68-1.78,19.13,19.13,0,0,1,3.32-1.21,25.38,25.38,0,0,1,3.71-.69c1.28-.15,2.57-.24,3.86-.27v-1.17a5.62,5.62,0,0,0-1.14-4,5,5,0,0,0-3.72-1.18,18.29,18.29,0,0,0-2.65.2c-.89.14-1.74.31-2.55.52a21.75,21.75,0,0,0-2.26.68q-1,.38-1.77.72h0l-1.44-3.27a12.92,12.92,0,0,1,1.74-1.09,21.17,21.17,0,0,1,2.93-1.3,28.34,28.34,0,0,1,3.78-1.1,19.47,19.47,0,0,1,4.27-.47,15.8,15.8,0,0,1,4.61.59,7.05,7.05,0,0,1,3.07,1.81,7.21,7.21,0,0,1,1.73,3.08,15.63,15.63,0,0,1,.55,4.41v15.24h3v3c-.31.06-.69.15-1.15.26s-1,.2-1.51.29-1.15.16-1.78.23-1.29.1-2,.1a12.86,12.86,0,0,1-1.51-.08,2.08,2.08,0,0,1-1-.34,1.54,1.54,0,0,1-.55-.77,4.39,4.39,0,0,1-.17-1.35v-1.42a9.37,9.37,0,0,1-1.14,1.25,10.12,10.12,0,0,1-1.77,1.29,10.55,10.55,0,0,1-2.36,1,9.89,9.89,0,0,1-2.91.41,11,11,0,0,1-3.24-.47,7.33,7.33,0,0,1-2.65-1.44,6.78,6.78,0,0,1-1.8-2.49A8.92,8.92,0,0,1,578.36,490.2Zm11.6,3.28a4.29,4.29,0,0,0,1-.13,8,8,0,0,0,1.17-.34,9.06,9.06,0,0,0,1.2-.52,5.64,5.64,0,0,0,1-.7v-8.08a15.33,15.33,0,0,0-4,.44,7.2,7.2,0,0,0-2.55,1.17,4.17,4.17,0,0,0-1.36,1.69,5.09,5.09,0,0,0-.4,2,4.9,4.9,0,0,0,1,3.31A3.62,3.62,0,0,0,590,493.48Z"/><path class="cls-1" d="M606.73,497.63v-3.28l3.54-.48v-32.6l-3.63-.61v-2.85l9.54-1.2h.07l1.54,1.15v36.11l3.69.48v3.28Z"/><path class="cls-1" d="M627.44,491.77v-18H624V471c.13,0,.34-.1.63-.2l.88-.33.81-.33a5.19,5.19,0,0,0,.47-.23,7.59,7.59,0,0,0,1.73-2.35c.16-.32.34-.7.54-1.13s.38-.89.57-1.36.36-.94.53-1.4.3-.88.41-1.26h4.35l.07,7.23h7.18v4.15H635v13.52c0,1.31,0,2.34.06,3.1a6,6,0,0,0,.29,1.74,1.22,1.22,0,0,0,.72.75,4.11,4.11,0,0,0,1.35.17h0a8.91,8.91,0,0,0,1.23-.09c.44-.07.86-.15,1.27-.24a10.14,10.14,0,0,0,1.15-.29c.35-.1.64-.2.87-.28h0l1.15,2.86a13.31,13.31,0,0,1-1.79,1.12,16.44,16.44,0,0,1-2.35,1,18.53,18.53,0,0,1-2.71.74,15.42,15.42,0,0,1-2.87.28h0a7.93,7.93,0,0,1-2.74-.42,4.21,4.21,0,0,1-1.83-1.23,5,5,0,0,1-1-2A10.93,10.93,0,0,1,627.44,491.77Z"/><path class="cls-1" d="M645.14,497.63v-3.28l3-.48v-32.6l-3.66-.61v-2.85l9.49-1.2h.13l1.49,1.15,0,11.5-.39,3.88a15.47,15.47,0,0,1,6.61-3.5,12.1,12.1,0,0,1,3.11-.38,10.27,10.27,0,0,1,4,.66,5.45,5.45,0,0,1,2.47,2,9,9,0,0,1,1.3,3.46,28.27,28.27,0,0,1,.38,4.94v13.53l3.44.48v3.28H662.84v-3.18l2.71-.54V480.27a22.2,22.2,0,0,0-.17-2.92,5.28,5.28,0,0,0-.65-2,2.92,2.92,0,0,0-1.32-1.16,5.16,5.16,0,0,0-2.16-.38,7.75,7.75,0,0,0-1.56.17,12.13,12.13,0,0,0-1.55.43,11.23,11.23,0,0,0-1.41.58,7.57,7.57,0,0,0-1.1.67v18.22l3.35.48v3.28Z"/><path class="cls-1" d="M82.69,550.2a7.48,7.48,0,0,1,.64-3.19,7.71,7.71,0,0,1,1.79-2.45,10.72,10.72,0,0,1,2.67-1.78,19.13,19.13,0,0,1,3.32-1.21,25.63,25.63,0,0,1,3.71-.69c1.28-.15,2.57-.24,3.86-.27v-1.17a5.62,5.62,0,0,0-1.14-4,5,5,0,0,0-3.72-1.18,18.29,18.29,0,0,0-2.65.2c-.89.14-1.74.31-2.55.52a21.75,21.75,0,0,0-2.26.68q-1,.38-1.77.72h0l-1.45-3.27a12.92,12.92,0,0,1,1.74-1.09,21.17,21.17,0,0,1,2.93-1.3,28.34,28.34,0,0,1,3.78-1.1,19.54,19.54,0,0,1,4.27-.47,15.75,15.75,0,0,1,4.61.59,7.05,7.05,0,0,1,3.07,1.81,7.33,7.33,0,0,1,1.74,3.08,16,16,0,0,1,.55,4.41v15.24h3v3c-.31.06-.69.15-1.14.26s-1,.2-1.52.29-1.15.16-1.78.23-1.29.1-2,.1a12.55,12.55,0,0,1-1.5-.08,2.08,2.08,0,0,1-1-.34,1.54,1.54,0,0,1-.55-.77,4.39,4.39,0,0,1-.17-1.35v-1.42a9.37,9.37,0,0,1-1.14,1.25,10.12,10.12,0,0,1-1.77,1.29,10.55,10.55,0,0,1-2.36,1,9.87,9.87,0,0,1-2.9.41,11,11,0,0,1-3.25-.47,7.33,7.33,0,0,1-2.65-1.44,6.78,6.78,0,0,1-1.8-2.49A9.1,9.1,0,0,1,82.69,550.2Zm11.59,3.28a4.23,4.23,0,0,0,1-.13,8.53,8.53,0,0,0,1.18-.34,9.54,9.54,0,0,0,1.19-.52,5.64,5.64,0,0,0,1-.7v-8.08a15.38,15.38,0,0,0-4,.44,7.2,7.2,0,0,0-2.55,1.17A4.17,4.17,0,0,0,90.8,547a5.27,5.27,0,0,0-.4,2,4.9,4.9,0,0,0,1,3.31A3.62,3.62,0,0,0,94.28,553.48Z"/><path class="cls-1" d="M111.81,557.63v-3.28l3.52-.46v-18.8l-3.32-1v-3.69l8.35-1.2h.14l1.3,1.05v2l0,3.81h.1a11.34,11.34,0,0,1,1.06-2,13.26,13.26,0,0,1,1.91-2.29,11.26,11.26,0,0,1,2.61-1.91,6.64,6.64,0,0,1,3.21-.79,8.5,8.5,0,0,1,1.16.06,3.89,3.89,0,0,1,.67.16v8.45a4.47,4.47,0,0,0-1.4-.43,15.44,15.44,0,0,0-4.41-.13c-.57.06-1.1.15-1.6.25a9.27,9.27,0,0,0-1.33.38,4.18,4.18,0,0,0-.9.44v15.58l6.08.58v3.18Z"/><path class="cls-1" d="M148.38,558.19a14.8,14.8,0,0,1-5.92-1.08,10.66,10.66,0,0,1-4.07-3,12.16,12.16,0,0,1-2.36-4.58,21.33,21.33,0,0,1-.76-5.81,17.93,17.93,0,0,1,1-6.11A13.1,13.1,0,0,1,139,533a11.61,11.61,0,0,1,4.22-2.89,14.4,14.4,0,0,1,5.47-1q10.14,0,10.57,9.89c0,1.13,0,2.14,0,3a15.51,15.51,0,0,1-.25,2.28H143a15.12,15.12,0,0,0,.71,4.13,7.94,7.94,0,0,0,1.54,2.78,5.61,5.61,0,0,0,2.26,1.57,8.23,8.23,0,0,0,2.87.48,13,13,0,0,0,2.32-.19,15.65,15.65,0,0,0,2-.49,11.48,11.48,0,0,0,1.66-.66,13.11,13.11,0,0,0,1.28-.71l1.27,3a9.68,9.68,0,0,1-1.7,1.33,16,16,0,0,1-2.49,1.28,20.29,20.29,0,0,1-3,1A14.07,14.07,0,0,1,148.38,558.19Zm-.66-25.78a4.45,4.45,0,0,0-1.76.34,3.32,3.32,0,0,0-1.45,1.29,8.72,8.72,0,0,0-1,2.65,22.64,22.64,0,0,0-.5,4.38h8.76c0-.08,0-.19,0-.34s0-.3,0-.46,0-.32,0-.47v-.31a19.79,19.79,0,0,0-.17-2.53,7.92,7.92,0,0,0-.62-2.28,4.3,4.3,0,0,0-1.25-1.64A3.18,3.18,0,0,0,147.72,532.41Z"/><path class="cls-2" d="M178.34,543.81a16.65,16.65,0,0,1,1.15-6.47,13.31,13.31,0,0,1,3-4.59A12.46,12.46,0,0,1,187,530a15.22,15.22,0,0,1,5.21-.9,14.82,14.82,0,0,1,5.61,1,11,11,0,0,1,4.11,2.84,12.49,12.49,0,0,1,2.51,4.52,19.65,19.65,0,0,1,.85,6,17.3,17.3,0,0,1-1.14,6.59,13.06,13.06,0,0,1-3.06,4.58,12,12,0,0,1-4.39,2.66,15.64,15.64,0,0,1-5.2.87,14.87,14.87,0,0,1-5.62-1,11.09,11.09,0,0,1-4.11-2.85,12.25,12.25,0,0,1-2.53-4.51A19.74,19.74,0,0,1,178.34,543.81Zm13.53,11a4.32,4.32,0,0,0,2.31-.6,4.55,4.55,0,0,0,1.63-1.88,11,11,0,0,0,.95-3.28,32.78,32.78,0,0,0,.31-4.79,39.84,39.84,0,0,0-.29-5.06,13.82,13.82,0,0,0-.9-3.7,5.27,5.27,0,0,0-1.63-2.26,4,4,0,0,0-2.48-.77,4.37,4.37,0,0,0-2.33.6,4.52,4.52,0,0,0-1.65,1.88,10.9,10.9,0,0,0-1,3.28,31.31,31.31,0,0,0-.32,4.79,38,38,0,0,0,.3,5.06,13.73,13.73,0,0,0,.94,3.7,5.47,5.47,0,0,0,1.66,2.26A4,4,0,0,0,191.87,554.82Z"/><path class="cls-2" d="M232,558.19a3.7,3.7,0,0,1-2.61-.78,3.06,3.06,0,0,1-.83-2.32v-.88a9.38,9.38,0,0,1-1.54,1.44,14.15,14.15,0,0,1-2,1.28,12.34,12.34,0,0,1-2.35.92,9.7,9.7,0,0,1-2.49.34,12.81,12.81,0,0,1-4.11-.58,6.18,6.18,0,0,1-2.82-1.84,8,8,0,0,1-1.63-3.3,19.78,19.78,0,0,1-.52-4.9V533.65l-2.44-.9v-2.86l8.79-.71h0l1.12.69v17.87a15,15,0,0,0,.21,2.72,4.65,4.65,0,0,0,.7,1.82,2.71,2.71,0,0,0,1.29,1,5.34,5.34,0,0,0,2,.32,7.05,7.05,0,0,0,1.71-.19,9.31,9.31,0,0,0,1.41-.47,7.72,7.72,0,0,0,1.08-.57,9.08,9.08,0,0,0,.76-.55V533.65l-3.37-.95v-2.88l9.47-.64h0l1.34.69v24.44h2.71v3c-.61.15-1.44.33-2.46.54A17.37,17.37,0,0,1,232,558.19Z"/><path class="cls-2" d="M241.69,557.63v-3.28l3.52-.46v-18.8l-3.32-1v-3.69l8.35-1.2h.15l1.29,1.05v2l0,3.81h.09a10.84,10.84,0,0,1,1.07-2,13.19,13.19,0,0,1,1.9-2.29,11.7,11.7,0,0,1,2.61-1.91,6.69,6.69,0,0,1,3.21-.79,8.4,8.4,0,0,1,1.16.06,3.89,3.89,0,0,1,.67.16v8.45a4.37,4.37,0,0,0-1.4-.43,15.44,15.44,0,0,0-4.41-.13c-.57.06-1.1.15-1.6.25a9.66,9.66,0,0,0-1.33.38,4.18,4.18,0,0,0-.9.44v15.58l6.08.58v3.18Z"/><path class="cls-2" d="M284,551.77v-18h-3.45V531c.13,0,.34-.1.63-.2l.87-.33.82-.33a5.19,5.19,0,0,0,.47-.23,7.59,7.59,0,0,0,1.73-2.35c.16-.32.34-.7.54-1.13s.38-.89.57-1.36.36-.94.53-1.4.3-.88.41-1.26h4.35l.07,7.23h7.18v4.15H291.5v13.52c0,1.31,0,2.34.06,3.1a6,6,0,0,0,.29,1.74,1.22,1.22,0,0,0,.72.75,4.11,4.11,0,0,0,1.35.17h0a8.91,8.91,0,0,0,1.23-.09c.43-.07.86-.15,1.27-.24a10.14,10.14,0,0,0,1.15-.29c.35-.1.64-.2.87-.28h0l1.15,2.86a12.86,12.86,0,0,1-1.8,1.12,16.3,16.3,0,0,1-2.34,1,18.53,18.53,0,0,1-2.71.74,15.42,15.42,0,0,1-2.87.28h-.05a7.89,7.89,0,0,1-2.74-.42,4.21,4.21,0,0,1-1.83-1.23,5,5,0,0,1-1-2A10.93,10.93,0,0,1,284,551.77Z"/><path class="cls-2" d="M301.51,543.81a16.65,16.65,0,0,1,1.15-6.47,13.31,13.31,0,0,1,3-4.59,12.46,12.46,0,0,1,4.41-2.74,15.22,15.22,0,0,1,5.21-.9,14.86,14.86,0,0,1,5.61,1,10.91,10.91,0,0,1,4.1,2.84,12.36,12.36,0,0,1,2.52,4.52,19.65,19.65,0,0,1,.85,6,17.3,17.3,0,0,1-1.14,6.59,13.06,13.06,0,0,1-3.06,4.58,12.13,12.13,0,0,1-4.39,2.66,15.64,15.64,0,0,1-5.2.87,14.87,14.87,0,0,1-5.62-1,11,11,0,0,1-4.11-2.85,12.25,12.25,0,0,1-2.53-4.51A19.74,19.74,0,0,1,301.51,543.81Zm13.52,11a4.33,4.33,0,0,0,2.32-.6,4.55,4.55,0,0,0,1.63-1.88,11,11,0,0,0,.95-3.28,32.92,32.92,0,0,0,.3-4.79,40,40,0,0,0-.28-5.06,14.21,14.21,0,0,0-.9-3.7,5.29,5.29,0,0,0-1.64-2.26,4,4,0,0,0-2.47-.77,4.37,4.37,0,0,0-2.33.6A4.52,4.52,0,0,0,311,535a10.9,10.9,0,0,0-1,3.28,31.31,31.31,0,0,0-.32,4.79,38,38,0,0,0,.3,5.06,13.36,13.36,0,0,0,.94,3.7,5.47,5.47,0,0,0,1.66,2.26A4,4,0,0,0,315,554.82Z"/><path class="cls-2" d="M331.56,566.63l3.66-.61V535.09l-3.32-1v-3.69l8.74-1.2h.13l1.24,1.05v2.59a11.92,11.92,0,0,1,1.44-1.38,9.66,9.66,0,0,1,1.86-1.18,11.41,11.41,0,0,1,2.24-.83,10.61,10.61,0,0,1,2.64-.32,11.49,11.49,0,0,1,4.21.76,8.64,8.64,0,0,1,3.43,2.4,11.7,11.7,0,0,1,2.31,4.26,20.71,20.71,0,0,1,.84,6.3,17.92,17.92,0,0,1-1,6,14.47,14.47,0,0,1-2.84,4.87,13,13,0,0,1-4.52,3.26,14.57,14.57,0,0,1-6,1.19c-.41,0-.81,0-1.21-.05s-.78-.07-1.15-.12l-1-.15c-.29,0-.53-.1-.71-.15l.15,4.06V566l4.83.61v3.11h-16Zm15.53-33.08a6.18,6.18,0,0,0-2.61.53,5.45,5.45,0,0,0-1.76,1.18v18.48a3.35,3.35,0,0,0,1.34.82,6.24,6.24,0,0,0,2.25.36,5.7,5.7,0,0,0,2.5-.58,5.19,5.19,0,0,0,2.06-1.89,11,11,0,0,0,1.42-3.47,23.91,23.91,0,0,0,.59-5.27,21.53,21.53,0,0,0-.36-4.69,9.79,9.79,0,0,0-1.16-3.15,4.71,4.71,0,0,0-1.84-1.77A5.42,5.42,0,0,0,347.09,533.55Z"/><path class="cls-2" d="M380,566.63l3.66-.61V535.09l-3.32-1v-3.69l8.74-1.2h.12l1.24,1.05v2.59a11.34,11.34,0,0,1,1.45-1.38,9.9,9.9,0,0,1,1.85-1.18,11.27,11.27,0,0,1,2.25-.83,10.47,10.47,0,0,1,2.63-.32,11.58,11.58,0,0,1,4.22.76,8.78,8.78,0,0,1,3.43,2.4,11.84,11.84,0,0,1,2.3,4.26,20.71,20.71,0,0,1,.84,6.3,17.92,17.92,0,0,1-1,6,14.32,14.32,0,0,1-2.85,4.87A13,13,0,0,1,401,557a14.57,14.57,0,0,1-6,1.19c-.41,0-.81,0-1.21-.05s-.78-.07-1.15-.12l-1-.15c-.29,0-.52-.1-.7-.15l.14,4.06V566l4.84.61v3.11H380Zm15.52-33.08a6.24,6.24,0,0,0-2.61.53,5.45,5.45,0,0,0-1.76,1.18v18.48a3.4,3.4,0,0,0,1.35.82,6.15,6.15,0,0,0,2.24.36,5.7,5.7,0,0,0,2.5-.58,5.28,5.28,0,0,0,2.07-1.89A11.27,11.27,0,0,0,400.7,549a23.32,23.32,0,0,0,.59-5.27,21.53,21.53,0,0,0-.36-4.69,9.79,9.79,0,0,0-1.15-3.15,4.73,4.73,0,0,0-1.85-1.77A5.36,5.36,0,0,0,395.5,533.55Z"/><path class="cls-2" d="M413.28,557.63v-3.28l3.51-.46v-18.8l-3.32-1v-3.69l8.35-1.2H422l1.29,1.05v2l0,3.81h.09a10.84,10.84,0,0,1,1.07-2,13.19,13.19,0,0,1,1.9-2.29,11.7,11.7,0,0,1,2.61-1.91,6.69,6.69,0,0,1,3.21-.79,8.4,8.4,0,0,1,1.16.06,4,4,0,0,1,.68.16v8.45a4.47,4.47,0,0,0-1.41-.43,15.44,15.44,0,0,0-4.41-.13c-.57.06-1.1.15-1.59.25a9.82,9.82,0,0,0-1.34.38,4.18,4.18,0,0,0-.9.44v15.58l6.08.58v3.18Z"/><path class="cls-2" d="M437,557.63v-3.28l3.57-.46v-18.8L437.3,534v-3.66l9-1.2h.12l1.78,1.05v23.64l3.54.48v3.28Zm6.5-32.57a3.58,3.58,0,0,1-1.53-.32,3.27,3.27,0,0,1-1.12-.84,3.7,3.7,0,0,1-.69-1.25,5.08,5.08,0,0,1-.23-1.52,6.17,6.17,0,0,1,.26-1.8,4,4,0,0,1,.79-1.47,3.82,3.82,0,0,1,1.33-1,4.41,4.41,0,0,1,1.84-.36h0a4.09,4.09,0,0,1,1.72.33,3.53,3.53,0,0,1,1.93,2.13,4.94,4.94,0,0,1,.23,1.49,5.93,5.93,0,0,1-.27,1.82,4.08,4.08,0,0,1-.82,1.47,3.62,3.62,0,0,1-1.41,1,5.31,5.31,0,0,1-2,.36Z"/><path class="cls-2" d="M454.56,543.81a16.65,16.65,0,0,1,1.15-6.47,13.31,13.31,0,0,1,3.05-4.59,12.46,12.46,0,0,1,4.41-2.74,15.22,15.22,0,0,1,5.21-.9,14.82,14.82,0,0,1,5.61,1,11,11,0,0,1,4.11,2.84,12.49,12.49,0,0,1,2.51,4.52,19.65,19.65,0,0,1,.85,6,17.3,17.3,0,0,1-1.14,6.59,13,13,0,0,1-3.05,4.58,12.17,12.17,0,0,1-4.4,2.66,15.64,15.64,0,0,1-5.2.87,14.78,14.78,0,0,1-5.61-1,11,11,0,0,1-4.12-2.85,12.09,12.09,0,0,1-2.52-4.51A19.43,19.43,0,0,1,454.56,543.81Zm13.53,11a4.38,4.38,0,0,0,2.32-.6,4.53,4.53,0,0,0,1.62-1.88,11,11,0,0,0,1-3.28,32.78,32.78,0,0,0,.31-4.79,39.84,39.84,0,0,0-.29-5.06,13.82,13.82,0,0,0-.9-3.7,5.27,5.27,0,0,0-1.63-2.26,4,4,0,0,0-2.48-.77,4.39,4.39,0,0,0-2.33.6A4.52,4.52,0,0,0,464,535a10.9,10.9,0,0,0-1,3.28,31.31,31.31,0,0,0-.32,4.79,38,38,0,0,0,.3,5.06,13.73,13.73,0,0,0,.94,3.7,5.47,5.47,0,0,0,1.66,2.26A4,4,0,0,0,468.09,554.82Z"/><path class="cls-2" d="M485.2,557.63v-3.28l3.52-.46v-18.8l-3.32-1v-3.69l8.35-1.2h.14l1.3,1.05v2l0,3.81h.1a10.69,10.69,0,0,1,1.06-2,13.26,13.26,0,0,1,1.91-2.29,11.26,11.26,0,0,1,2.61-1.91,6.64,6.64,0,0,1,3.21-.79,8.5,8.5,0,0,1,1.16.06,3.89,3.89,0,0,1,.67.16v8.45a4.47,4.47,0,0,0-1.4-.43,15.44,15.44,0,0,0-4.41-.13c-.57.06-1.1.15-1.6.25a9.27,9.27,0,0,0-1.33.38,4.18,4.18,0,0,0-.9.44v15.58l6.07.58v3.18Z"/><path class="cls-2" d="M509,557.63v-3.28l3.56-.46v-18.8l-3.3-1.05v-3.66l9-1.2h.13l1.78,1.05v23.64l3.54.48v3.28Zm6.49-32.57a3.58,3.58,0,0,1-1.53-.32,3.37,3.37,0,0,1-1.12-.84,3.52,3.52,0,0,1-.68-1.25,4.79,4.79,0,0,1-.24-1.52,6.17,6.17,0,0,1,.26-1.8,4.17,4.17,0,0,1,.79-1.47,3.86,3.86,0,0,1,1.34-1,4.38,4.38,0,0,1,1.84-.36h0a4.09,4.09,0,0,1,1.72.33,3.5,3.5,0,0,1,1.21.88,3.33,3.33,0,0,1,.72,1.25,4.64,4.64,0,0,1,.23,1.49,6.25,6.25,0,0,1-.26,1.82,4.23,4.23,0,0,1-.82,1.47,3.74,3.74,0,0,1-1.42,1,5.31,5.31,0,0,1-2,.36Z"/><path class="cls-2" d="M529.71,551.77v-18h-3.45V531c.13,0,.34-.1.63-.2l.88-.33.81-.33a5.19,5.19,0,0,0,.47-.23,7.59,7.59,0,0,0,1.73-2.35c.16-.32.34-.7.54-1.13s.39-.89.57-1.36.36-.94.53-1.4.3-.88.41-1.26h4.35l.07,7.23h7.18v4.15h-7.18v13.52c0,1.31,0,2.34.06,3.1a6,6,0,0,0,.29,1.74,1.21,1.21,0,0,0,.73.75,4,4,0,0,0,1.34.17h0a8.91,8.91,0,0,0,1.23-.09c.44-.07.86-.15,1.27-.24a10.14,10.14,0,0,0,1.15-.29c.35-.1.64-.2.87-.28h0l1.15,2.86a13.31,13.31,0,0,1-1.79,1.12,16.44,16.44,0,0,1-2.35,1,18.19,18.19,0,0,1-2.71.74,15.42,15.42,0,0,1-2.87.28h0a8,8,0,0,1-2.75-.42,4.21,4.21,0,0,1-1.83-1.23,5.16,5.16,0,0,1-1-2A10.93,10.93,0,0,1,529.71,551.77Z"/><path class="cls-2" d="M547.68,557.63v-3.28l3.56-.46v-18.8l-3.3-1.05v-3.66l9-1.2H557l1.78,1.05v23.64l3.54.48v3.28Zm6.49-32.57a3.58,3.58,0,0,1-1.53-.32,3.37,3.37,0,0,1-1.12-.84,3.52,3.52,0,0,1-.68-1.25,4.79,4.79,0,0,1-.23-1.52,6.17,6.17,0,0,1,.25-1.8,4,4,0,0,1,.8-1.47,3.73,3.73,0,0,1,1.33-1,4.38,4.38,0,0,1,1.84-.36h0a4.09,4.09,0,0,1,1.72.33,3.5,3.5,0,0,1,1.21.88,3.33,3.33,0,0,1,.72,1.25,4.65,4.65,0,0,1,.24,1.49,5.93,5.93,0,0,1-.27,1.82,4.08,4.08,0,0,1-.82,1.47,3.74,3.74,0,0,1-1.42,1,5.24,5.24,0,0,1-2,.36Z"/><path class="cls-2" d="M578.44,558.19a14.73,14.73,0,0,1-5.92-1.08,10.77,10.77,0,0,1-4.08-3,12.3,12.3,0,0,1-2.36-4.58,21.33,21.33,0,0,1-.75-5.81,18.18,18.18,0,0,1,1-6.11A13.1,13.1,0,0,1,569,533a11.64,11.64,0,0,1,4.23-2.89,14.33,14.33,0,0,1,5.47-1q10.13,0,10.57,9.89c0,1.13,0,2.14,0,3a14.25,14.25,0,0,1-.25,2.28H573.07a15.15,15.15,0,0,0,.7,4.13,8.27,8.27,0,0,0,1.54,2.78,5.67,5.67,0,0,0,2.26,1.57,8.27,8.27,0,0,0,2.87.48,13,13,0,0,0,2.32-.19,15.24,15.24,0,0,0,2-.49,11,11,0,0,0,1.66-.66,12,12,0,0,0,1.28-.71l1.27,3a9.32,9.32,0,0,1-1.7,1.33,16,16,0,0,1-2.49,1.28,19.79,19.79,0,0,1-3,1A14.2,14.2,0,0,1,578.44,558.19Zm-.66-25.78a4.47,4.47,0,0,0-1.77.34,3.24,3.24,0,0,0-1.44,1.29,8.46,8.46,0,0,0-1,2.65,23.46,23.46,0,0,0-.5,4.38h8.77c0-.08,0-.19,0-.34s0-.3,0-.46,0-.32,0-.47v-.31a18.15,18.15,0,0,0-.18-2.53,7.92,7.92,0,0,0-.62-2.28,4.28,4.28,0,0,0-1.24-1.64A3.18,3.18,0,0,0,577.78,532.41Z"/><path class="cls-2" d="M593.84,556.06V549.2h4.49L599.6,553a2.65,2.65,0,0,0,.68.64,4.87,4.87,0,0,0,1.07.56,9,9,0,0,0,1.4.4,7.93,7.93,0,0,0,1.64.16,5.81,5.81,0,0,0,2-.29,3.67,3.67,0,0,0,1.23-.75,2.41,2.41,0,0,0,.64-1,4.11,4.11,0,0,0,.17-1.11,3,3,0,0,0-.53-1.77,5.1,5.1,0,0,0-1.49-1.37,15.18,15.18,0,0,0-2.33-1.21L601,546a18.13,18.13,0,0,1-3-1.53,10.25,10.25,0,0,1-2.28-1.89,7.73,7.73,0,0,1-1.46-2.34,7.86,7.86,0,0,1-.51-2.91,7.26,7.26,0,0,1,.72-3.21,7.13,7.13,0,0,1,2.14-2.56,10.84,10.84,0,0,1,3.51-1.71,17,17,0,0,1,4.86-.62,19,19,0,0,1,2.87.19q1.26.2,2.28.45c.68.18,1.31.35,1.88.54a12.32,12.32,0,0,0,1.66.43v6.74l-4.25-.08-1.14-3.24a3.35,3.35,0,0,0-1.3-1.09,5.18,5.18,0,0,0-2.42-.55,5.76,5.76,0,0,0-1.84.25,3.29,3.29,0,0,0-1.19.65,2.43,2.43,0,0,0-.65.92,2.75,2.75,0,0,0-.2,1,3.21,3.21,0,0,0,.66,2.09A5.49,5.49,0,0,0,603,538.9a14.34,14.34,0,0,0,2.2,1c.8.28,1.55.59,2.27.91,1.07.48,2.1,1,3.08,1.51a12.65,12.65,0,0,1,2.6,1.84,8.09,8.09,0,0,1,1.8,2.43,7.38,7.38,0,0,1,.67,3.28,7.87,7.87,0,0,1-.69,3.3,7,7,0,0,1-2.1,2.63,10.28,10.28,0,0,1-3.52,1.76,16.92,16.92,0,0,1-4.94.64,21.28,21.28,0,0,1-3.53-.27c-1.06-.18-2-.39-2.9-.62s-1.65-.48-2.34-.71A17.19,17.19,0,0,0,593.84,556.06Z"/><path class="cls-2" d="M624.7,558a4.93,4.93,0,0,1-1.63-.27,4.11,4.11,0,0,1-1.37-.78,3.78,3.78,0,0,1-.93-1.23,3.71,3.71,0,0,1-.34-1.63,4.34,4.34,0,0,1,.39-1.84,4.74,4.74,0,0,1,1.08-1.48,4.84,4.84,0,0,1,1.58-1,5.17,5.17,0,0,1,1.93-.36,5.76,5.76,0,0,1,2,.32,3.8,3.8,0,0,1,1.35.85,3.29,3.29,0,0,1,.76,1.25,5,5,0,0,1,.23,1.51,4.56,4.56,0,0,1-.38,1.91,4.17,4.17,0,0,1-1,1.46,4.5,4.5,0,0,1-1.61.94A6.06,6.06,0,0,1,624.7,558Z"/></svg>