<svg id="Layer_1" data-name="Layer 1" xmlns="http://www.w3.org/2000/svg" viewBox="0 0 300 600"><defs><style>.cls-1{fill:#fff;}.cls-2{fill:#f1b533;}</style></defs><path class="cls-1" d="M32,533.21v-2l2.39-.41V513.33L32,512.88v-2h9.47v2l-2.5.45v7.34h8.74v-7.34l-2.37-.45v-2H54.7v2l-2.35.45v17.48l2.35.4v2H45.38v-2l2.34-.41V523H39v7.81l2.5.41v2Z"/><path class="cls-1" d="M56.92,528.76a4.51,4.51,0,0,1,.39-1.92,4.67,4.67,0,0,1,1.07-1.46A6.36,6.36,0,0,1,60,524.31a10.63,10.63,0,0,1,2-.73,15.57,15.57,0,0,1,2.22-.42c.78-.08,1.55-.14,2.32-.16v-.7a3.4,3.4,0,0,0-.68-2.38,3,3,0,0,0-2.24-.71,10.84,10.84,0,0,0-1.59.12c-.53.09-1,.19-1.53.31a13.52,13.52,0,0,0-1.35.41c-.42.15-.77.3-1.06.43h0l-.86-2a7,7,0,0,1,1-.65,13.58,13.58,0,0,1,1.76-.79,17.11,17.11,0,0,1,2.27-.65,11.41,11.41,0,0,1,2.56-.28,9.27,9.27,0,0,1,2.76.35,4.25,4.25,0,0,1,1.85,1.08,4.45,4.45,0,0,1,1,1.86,9.33,9.33,0,0,1,.33,2.64v9.14h1.81V533l-.69.16c-.27.06-.57.12-.9.17s-.69.1-1.07.14a11.37,11.37,0,0,1-1.18.06,7.82,7.82,0,0,1-.9,0,1.25,1.25,0,0,1-.6-.21.93.93,0,0,1-.33-.46,2.87,2.87,0,0,1-.1-.81v-.85a6.27,6.27,0,0,1-1.75,1.52,7,7,0,0,1-1.41.61,6,6,0,0,1-1.75.24,6.41,6.41,0,0,1-1.94-.28,4.22,4.22,0,0,1-1.59-.86,4,4,0,0,1-1.08-1.5A5.39,5.39,0,0,1,56.92,528.76Zm7,2a2.7,2.7,0,0,0,.6-.07,5.59,5.59,0,0,0,.71-.21,4.93,4.93,0,0,0,.71-.31,2.81,2.81,0,0,0,.62-.42v-4.85a8.91,8.91,0,0,0-2.38.27,4.35,4.35,0,0,0-1.53.7,2.61,2.61,0,0,0-.82,1,3.12,3.12,0,0,0-.24,1.22,2.89,2.89,0,0,0,.6,2A2.14,2.14,0,0,0,63.88,530.72Z"/><path class="cls-1" d="M74.5,533.21v-2l1.89-.29V519.69l-2-.61v-2.21l5.24-.72h.08l.77.63v1.74a9.3,9.3,0,0,1,1.15-.86,8.33,8.33,0,0,1,1.42-.75,9.87,9.87,0,0,1,1.62-.52,7.7,7.7,0,0,1,1.72-.2,6.44,6.44,0,0,1,2.35.37,3.12,3.12,0,0,1,1.5,1.17A5.43,5.43,0,0,1,91,519.8a16.89,16.89,0,0,1,.23,3.06V531l2.08.28v2H85.11v-2L86.7,531V522.8a12.62,12.62,0,0,0-.1-1.75,3.32,3.32,0,0,0-.37-1.21,1.69,1.69,0,0,0-.75-.7,2.86,2.86,0,0,0-1.22-.22,4,4,0,0,0-1,.11,5.19,5.19,0,0,0-.92.28,6.46,6.46,0,0,0-.79.39,4.75,4.75,0,0,0-.62.42V531l2,.29v2Z"/><path class="cls-1" d="M101.38,533.54a6.5,6.5,0,0,1-2.54-.5,5.4,5.4,0,0,1-2.06-1.51,7.49,7.49,0,0,1-1.37-2.59,11.91,11.91,0,0,1-.5-3.68,11.15,11.15,0,0,1,.59-3.69,8.52,8.52,0,0,1,1.71-2.89,7.72,7.72,0,0,1,2.74-1.89,9.16,9.16,0,0,1,3.64-.69,11.76,11.76,0,0,1,1.2.06,9.35,9.35,0,0,1,1.1.18v-5l-2.68-.46v-1.67l6.2-.63h.07l.91.69v21.89H112V533l-1.67.35a10.94,10.94,0,0,1-2,.18,2.18,2.18,0,0,1-1.4-.4,1.74,1.74,0,0,1-.49-1.43v-.57a7.32,7.32,0,0,1-.87.9,5.88,5.88,0,0,1-1.15.76,6.57,6.57,0,0,1-1.39.53A6.42,6.42,0,0,1,101.38,533.54Zm1.86-2.66a3.64,3.64,0,0,0,1.59-.33,3.37,3.37,0,0,0,1.06-.76v-11a2.06,2.06,0,0,0-.82-.47,3.94,3.94,0,0,0-1.36-.2,3.45,3.45,0,0,0-1.49.33,3.17,3.17,0,0,0-1.23,1.12,6.11,6.11,0,0,0-.85,2.05,14.53,14.53,0,0,0-.34,3.16,13.7,13.7,0,0,0,.2,2.81,6.16,6.16,0,0,0,.69,1.91,2.74,2.74,0,0,0,1.1,1.09A3,3,0,0,0,103.24,530.88Z"/><path class="cls-1" d="M123.56,533.21v-2l2.14-.28V519.69l-2-.63v-2.19l5.38-.72h.07l1.07.63V531l2.12.29v2Zm3.9-19.54a2.07,2.07,0,0,1-.92-.19,2,2,0,0,1-.67-.5,2.1,2.1,0,0,1-.41-.75,2.77,2.77,0,0,1-.14-.92,3.69,3.69,0,0,1,.15-1.07,2.34,2.34,0,0,1,1.28-1.49,2.51,2.51,0,0,1,1.1-.22h0a2.49,2.49,0,0,1,1,.2,2,2,0,0,1,.72.53,2.09,2.09,0,0,1,.44.75,2.91,2.91,0,0,1,.14.89A3.46,3.46,0,0,1,130,512a2.3,2.3,0,0,1-.49.88,2.2,2.2,0,0,1-.85.59,3.21,3.21,0,0,1-1.22.21Z"/><path class="cls-1" d="M134.52,533.21v-2l1.89-.29V519.69l-2-.61v-2.21l5.25-.72h.07l.78.63v1.74a9.33,9.33,0,0,1,2.57-1.61,9.29,9.29,0,0,1,1.62-.52,7.54,7.54,0,0,1,1.71-.2,6.4,6.4,0,0,1,2.35.37,3.12,3.12,0,0,1,1.5,1.17,5.27,5.27,0,0,1,.79,2.07,16.8,16.8,0,0,1,.24,3.06V531l2.08.28v2h-8.25v-2l1.6-.28V522.8a14.4,14.4,0,0,0-.1-1.75,3.32,3.32,0,0,0-.38-1.21,1.72,1.72,0,0,0-.74-.7,2.91,2.91,0,0,0-1.23-.22,4,4,0,0,0-1,.11,5.08,5.08,0,0,0-.91.28,6.62,6.62,0,0,0-.8.39,5.55,5.55,0,0,0-.62.42V531l2,.29v2Z"/><path class="cls-1" d="M164.34,533.21v-2l1.8-.29V511.4L164,511v-1.72l5.69-.72h.08l.89.69,0,6.9-.23,2.33a10.48,10.48,0,0,1,1-.78,10,10,0,0,1,1.34-.75,9.57,9.57,0,0,1,1.64-.57,7.54,7.54,0,0,1,1.87-.23,6,6,0,0,1,2.37.4,3.35,3.35,0,0,1,1.49,1.21,5.54,5.54,0,0,1,.77,2.08,16.87,16.87,0,0,1,.23,3V531l2.06.29v2H175v-1.9l1.63-.32V522.8a12.47,12.47,0,0,0-.11-1.75,3,3,0,0,0-.38-1.21,1.76,1.76,0,0,0-.8-.7,3.15,3.15,0,0,0-1.29-.22,4.42,4.42,0,0,0-.94.1,7.09,7.09,0,0,0-.93.26,5.29,5.29,0,0,0-.84.35,4,4,0,0,0-.66.4V531l2,.29v2Z"/><path class="cls-1" d="M184.6,528.76a4.4,4.4,0,0,1,1.46-3.38,6.3,6.3,0,0,1,1.6-1.07,11.18,11.18,0,0,1,2-.73,16,16,0,0,1,2.23-.42c.77-.08,1.54-.14,2.31-.16v-.7a3.35,3.35,0,0,0-.68-2.38,3,3,0,0,0-2.23-.71,10.64,10.64,0,0,0-1.59.12c-.53.09-1,.19-1.53.31a13.74,13.74,0,0,0-1.36.41c-.41.15-.76.3-1.06.43h0l-.87-2a8.36,8.36,0,0,1,1-.65,14.23,14.23,0,0,1,1.76-.79,17.11,17.11,0,0,1,2.27-.65,11.5,11.5,0,0,1,2.57-.28,9.27,9.27,0,0,1,2.76.35,4.21,4.21,0,0,1,1.84,1.08,4.34,4.34,0,0,1,1,1.86,9.33,9.33,0,0,1,.33,2.64v9.14h1.82V533l-.69.16c-.27.06-.58.12-.91.17s-.69.1-1.07.14a11.17,11.17,0,0,1-1.17.06,7.82,7.82,0,0,1-.9,0,1.25,1.25,0,0,1-.6-.21.93.93,0,0,1-.33-.46,2.54,2.54,0,0,1-.1-.81v-.85a6.32,6.32,0,0,1-.69.74,5.6,5.6,0,0,1-1.06.78,6.82,6.82,0,0,1-1.42.61,6,6,0,0,1-1.74.24,6.52,6.52,0,0,1-2-.28,4.38,4.38,0,0,1-1.59-.86,4.06,4.06,0,0,1-1.07-1.5A5.22,5.22,0,0,1,184.6,528.76Zm7,2a2.84,2.84,0,0,0,.6-.07,5.47,5.47,0,0,0,.7-.21,5,5,0,0,0,.72-.31,2.74,2.74,0,0,0,.61-.42v-4.85a9,9,0,0,0-2.38.27,4.35,4.35,0,0,0-1.53.7,2.49,2.49,0,0,0-.81,1,3.12,3.12,0,0,0-.24,1.22,2.94,2.94,0,0,0,.59,2A2.18,2.18,0,0,0,191.56,530.72Z"/><path class="cls-1" d="M202.18,533.21v-2l1.89-.29V519.69l-2-.61v-2.21l5.24-.72h.07l.78.63v1.74a9.33,9.33,0,0,1,2.57-1.61,9.29,9.29,0,0,1,1.62-.52,7.61,7.61,0,0,1,1.71-.2,6.4,6.4,0,0,1,2.35.37,3.12,3.12,0,0,1,1.5,1.17,5.27,5.27,0,0,1,.8,2.07,17.85,17.85,0,0,1,.23,3.06V531l2.08.28v2h-8.25v-2l1.6-.28V522.8a12.62,12.62,0,0,0-.1-1.75,3.32,3.32,0,0,0-.38-1.21,1.72,1.72,0,0,0-.74-.7,2.91,2.91,0,0,0-1.23-.22,4,4,0,0,0-1,.11,5.08,5.08,0,0,0-.91.28,5.81,5.81,0,0,0-.79.39,5.73,5.73,0,0,0-.63.42V531l2,.29v2Z"/><path class="cls-1" d="M229.06,533.54a6.47,6.47,0,0,1-2.54-.5,5.32,5.32,0,0,1-2.06-1.51,7.34,7.34,0,0,1-1.38-2.59,12.22,12.22,0,0,1-.5-3.68,10.9,10.9,0,0,1,.6-3.69,8.21,8.21,0,0,1,1.71-2.89,7.77,7.77,0,0,1,2.73-1.89,9.21,9.21,0,0,1,3.65-.69,11.42,11.42,0,0,1,1.19.06,9.19,9.19,0,0,1,1.11.18v-5l-2.68-.46v-1.67l6.19-.63h.08l.91.69v21.89h1.62V533l-1.67.35a10.86,10.86,0,0,1-2.05.18,2.15,2.15,0,0,1-1.39-.4,1.74,1.74,0,0,1-.5-1.43v-.57a6.13,6.13,0,0,1-2,1.66,6.78,6.78,0,0,1-1.39.53A6.54,6.54,0,0,1,229.06,533.54Zm1.86-2.66a3.71,3.71,0,0,0,1.59-.33,3.37,3.37,0,0,0,1.06-.76v-11a2.13,2.13,0,0,0-.82-.47,4,4,0,0,0-1.36-.2,3.5,3.5,0,0,0-1.5.33,3.17,3.17,0,0,0-1.23,1.12,6.33,6.33,0,0,0-.84,2.05,14.53,14.53,0,0,0-.34,3.16,13,13,0,0,0,.2,2.81,6.17,6.17,0,0,0,.68,1.91,2.87,2.87,0,0,0,1.1,1.09A3.05,3.05,0,0,0,230.92,530.88Z"/><path class="cls-1" d="M31.76,569.21v-1.93l2.34-.4v-11.8H31.52v-1.76l2.58-.73v-.85a6.71,6.71,0,0,1,.72-3.13,7.78,7.78,0,0,1,1.85-2.38,8.36,8.36,0,0,1,2.51-1.51,7.78,7.78,0,0,1,2.74-.53,5.25,5.25,0,0,1,1.13.09,5.61,5.61,0,0,1,.59.16v4.38a2.52,2.52,0,0,0-.54-.4,5,5,0,0,0-.77-.35,6.31,6.31,0,0,0-.93-.26,4.94,4.94,0,0,0-1-.1,2.63,2.63,0,0,0-.72.09,1.2,1.2,0,0,0-.55.31,1.48,1.48,0,0,0-.35.62,3.08,3.08,0,0,0-.13,1l0,2.87h3.76v2.49H38.66V567l3.25.31v1.93Z"/><path class="cls-1" d="M44,560.92a10,10,0,0,1,.69-3.88,8.08,8.08,0,0,1,1.83-2.75,7.29,7.29,0,0,1,2.65-1.64,8.92,8.92,0,0,1,3.12-.55,8.81,8.81,0,0,1,3.37.6,6.43,6.43,0,0,1,2.46,1.7,7.38,7.38,0,0,1,1.51,2.71,11.89,11.89,0,0,1,.52,3.62,10.38,10.38,0,0,1-.69,4,7.84,7.84,0,0,1-1.83,2.74A7.37,7.37,0,0,1,55,569a9.37,9.37,0,0,1-3.12.52,9,9,0,0,1-3.37-.59,6.68,6.68,0,0,1-2.47-1.71,7.3,7.3,0,0,1-1.51-2.71A11.55,11.55,0,0,1,44,560.92Zm8.12,6.61a2.59,2.59,0,0,0,1.39-.36,2.74,2.74,0,0,0,1-1.13,6.51,6.51,0,0,0,.57-2,18.28,18.28,0,0,0,.19-2.87,24.78,24.78,0,0,0-.17-3,8.59,8.59,0,0,0-.54-2.22,3.22,3.22,0,0,0-1-1.35,2.39,2.39,0,0,0-1.49-.47,2.75,2.75,0,0,0-1.4.36,2.85,2.85,0,0,0-1,1.13,6.49,6.49,0,0,0-.58,2,18.28,18.28,0,0,0-.19,2.87,22.84,22.84,0,0,0,.17,3,8.31,8.31,0,0,0,.57,2.22,3.27,3.27,0,0,0,1,1.36A2.38,2.38,0,0,0,52.15,567.53Z"/><path class="cls-1" d="M62.42,569.21v-2l2.11-.28V555.69l-2-.61v-2.21l5-.72h.09l.78.63V554l0,2.29h.06a6.53,6.53,0,0,1,.64-1.18,8.86,8.86,0,0,1,1.14-1.38,7.26,7.26,0,0,1,1.57-1.14,4,4,0,0,1,1.93-.48,5.55,5.55,0,0,1,.69,0,2.32,2.32,0,0,1,.4.1v5.06a2.81,2.81,0,0,0-.84-.25,8.35,8.35,0,0,0-1.62-.14,8.72,8.72,0,0,0-1,.06q-.51.06-1,.15a4.79,4.79,0,0,0-.8.23,2.73,2.73,0,0,0-.54.26V567l3.65.35v1.9Z"/><path class="cls-2" d="M85.93,569.21v-2l1.8-.29V547.4l-2.2-.36v-1.72l5.7-.72h.07l.9.69,0,6.9L92,554.52a10.75,10.75,0,0,1,1-.78,9.39,9.39,0,0,1,3-1.32,7.6,7.6,0,0,1,1.87-.23,6.06,6.06,0,0,1,2.38.4,3.27,3.27,0,0,1,1.48,1.21,5.38,5.38,0,0,1,.78,2.08,16.87,16.87,0,0,1,.23,3V567l2.06.29v2h-8.2v-1.9l1.62-.32V558.8a12.62,12.62,0,0,0-.1-1.75,3.13,3.13,0,0,0-.39-1.21,1.74,1.74,0,0,0-.79-.7,3.18,3.18,0,0,0-1.29-.22,4.36,4.36,0,0,0-.94.1,7.09,7.09,0,0,0-.93.26,5.29,5.29,0,0,0-.84.35,3.28,3.28,0,0,0-.66.4V567l2,.29v2Z"/><path class="cls-2" d="M114.17,569.55a9,9,0,0,1-3.55-.64,6.49,6.49,0,0,1-2.45-1.8,7.32,7.32,0,0,1-1.41-2.75,12.74,12.74,0,0,1-.46-3.48,11,11,0,0,1,.58-3.67,7.78,7.78,0,0,1,1.64-2.75,6.9,6.9,0,0,1,2.53-1.74,8.67,8.67,0,0,1,3.28-.6q6.08,0,6.34,5.93,0,1,0,1.83a8.93,8.93,0,0,1-.16,1.36H111a9.32,9.32,0,0,0,.42,2.48,5,5,0,0,0,.92,1.67,3.51,3.51,0,0,0,1.36.94,5,5,0,0,0,1.72.29,7.58,7.58,0,0,0,1.39-.12,9.59,9.59,0,0,0,1.2-.29,7.56,7.56,0,0,0,1-.4,5.93,5.93,0,0,0,.77-.42l.76,1.77a5.38,5.38,0,0,1-1,.8,9.55,9.55,0,0,1-1.5.77,13.24,13.24,0,0,1-1.81.59A8.94,8.94,0,0,1,114.17,569.55Zm-.4-15.47a2.67,2.67,0,0,0-1.06.21,1.89,1.89,0,0,0-.86.77,5,5,0,0,0-.62,1.59,14.16,14.16,0,0,0-.3,2.63h5.26a1.56,1.56,0,0,1,0-.2c0-.09,0-.18,0-.28a2.72,2.72,0,0,0,0-.28v-.19a11.3,11.3,0,0,0-.1-1.52,5.37,5.37,0,0,0-.37-1.37,2.85,2.85,0,0,0-.75-1A1.94,1.94,0,0,0,113.77,554.08Z"/><path class="cls-2" d="M122.68,564.76a4.4,4.4,0,0,1,1.46-3.38,6.3,6.3,0,0,1,1.6-1.07,11.18,11.18,0,0,1,2-.73,16,16,0,0,1,2.23-.42c.77-.08,1.54-.14,2.32-.16v-.7a3.35,3.35,0,0,0-.69-2.38,3,3,0,0,0-2.23-.71,10.64,10.64,0,0,0-1.59.12c-.53.09-1,.19-1.53.31a12.76,12.76,0,0,0-1.35.41c-.42.15-.77.3-1.07.43h0l-.87-2a8.36,8.36,0,0,1,1-.65,14.23,14.23,0,0,1,1.76-.79,17.56,17.56,0,0,1,2.27-.65,11.5,11.5,0,0,1,2.57-.28,9.27,9.27,0,0,1,2.76.35,4.21,4.21,0,0,1,1.84,1.08,4.34,4.34,0,0,1,1,1.86,9.33,9.33,0,0,1,.33,2.64v9.14h1.82V569l-.69.16c-.27.06-.58.12-.91.17s-.69.1-1.07.14a11.17,11.17,0,0,1-1.17.06,7.82,7.82,0,0,1-.9,0,1.25,1.25,0,0,1-.6-.21.93.93,0,0,1-.33-.46,2.54,2.54,0,0,1-.1-.81v-.85a6.32,6.32,0,0,1-.69.74,5.6,5.6,0,0,1-1.06.78,6.82,6.82,0,0,1-1.42.61,5.9,5.9,0,0,1-1.74.24,6.52,6.52,0,0,1-2-.28,4.38,4.38,0,0,1-1.59-.86,4.06,4.06,0,0,1-1.07-1.5A5.22,5.22,0,0,1,122.68,564.76Zm7,2a2.84,2.84,0,0,0,.6-.07,5.47,5.47,0,0,0,.7-.21,4.6,4.6,0,0,0,.72-.31,3.07,3.07,0,0,0,.62-.42v-4.85a8.86,8.86,0,0,0-2.38.27,4.41,4.41,0,0,0-1.54.7,2.49,2.49,0,0,0-.81,1,3.12,3.12,0,0,0-.24,1.22,2.94,2.94,0,0,0,.59,2A2.18,2.18,0,0,0,129.64,566.72Z"/><path class="cls-2" d="M140.16,569.21v-2l2.11-.28V555.69l-2-.61v-2.21l5-.72h.09l.78.63V554l0,2.29h.06a6.53,6.53,0,0,1,.64-1.18,8.86,8.86,0,0,1,1.14-1.38,7.26,7.26,0,0,1,1.57-1.14,4,4,0,0,1,1.92-.48,5.61,5.61,0,0,1,.7,0,2.32,2.32,0,0,1,.4.1v5.06a2.81,2.81,0,0,0-.84-.25,8.35,8.35,0,0,0-1.62-.14,8.72,8.72,0,0,0-1,.06q-.51.06-1,.15a4.79,4.79,0,0,0-.8.23,2.27,2.27,0,0,0-.54.26V567l3.64.35v1.9Z"/><path class="cls-2" d="M156.09,565.7V554.92H154v-1.67a2.85,2.85,0,0,0,.37-.13l.53-.2.49-.19.28-.14a4.74,4.74,0,0,0,1-1.41c.1-.19.2-.42.32-.68s.23-.53.35-.81.21-.57.31-.85.18-.53.25-.75h2.61l0,4.34h4.31v2.49h-4.31V563c0,.78,0,1.4,0,1.86a3.42,3.42,0,0,0,.17,1,.73.73,0,0,0,.43.46,2.87,2.87,0,0,0,.81.1h0a4.93,4.93,0,0,0,.75-.06l.76-.14.68-.17.52-.17h0l.69,1.71a7.27,7.27,0,0,1-1.08.67,9.2,9.2,0,0,1-1.41.61,11.29,11.29,0,0,1-1.62.44,9.12,9.12,0,0,1-1.72.17h0a4.7,4.7,0,0,1-1.65-.25,2.61,2.61,0,0,1-1.1-.74,3.07,3.07,0,0,1-.61-1.21A6.8,6.8,0,0,1,156.09,565.7Z"/><path class="cls-2" d="M176.13,569.21v-2l1.8-.29V547.4l-2.19-.36v-1.72l5.7-.72h.07l.89.69,0,6.9-.23,2.33a9.54,9.54,0,0,1,1-.78,8.87,8.87,0,0,1,1.34-.75,9.17,9.17,0,0,1,1.63-.57,7.54,7.54,0,0,1,1.87-.23,6,6,0,0,1,2.37.4,3.29,3.29,0,0,1,1.49,1.21,5.54,5.54,0,0,1,.77,2.08,16.87,16.87,0,0,1,.23,3V567l2.07.29v2h-8.21v-1.9l1.63-.32V558.8a14.4,14.4,0,0,0-.1-1.75,3.13,3.13,0,0,0-.39-1.21,1.79,1.79,0,0,0-.79-.7,3.23,3.23,0,0,0-1.3-.22,4.49,4.49,0,0,0-.94.1,7.09,7.09,0,0,0-.93.26,5.29,5.29,0,0,0-.84.35,4,4,0,0,0-.66.4V567l2,.29v2Z"/><path class="cls-2" d="M204.38,569.55a9.09,9.09,0,0,1-3.56-.64,6.45,6.45,0,0,1-2.44-1.8,7.49,7.49,0,0,1-1.42-2.75,12.75,12.75,0,0,1-.45-3.48,10.75,10.75,0,0,1,.58-3.67,7.76,7.76,0,0,1,1.63-2.75,7,7,0,0,1,2.53-1.74,8.68,8.68,0,0,1,3.29-.6q6.08,0,6.34,5.93c0,.67,0,1.28,0,1.83a7.92,7.92,0,0,1-.15,1.36h-9.57a8.91,8.91,0,0,0,.43,2.48,4.84,4.84,0,0,0,.92,1.67,3.41,3.41,0,0,0,1.35.94,5.06,5.06,0,0,0,1.73.29,7.66,7.66,0,0,0,1.39-.12,9,9,0,0,0,1.19-.29,7.18,7.18,0,0,0,1-.4,6.68,6.68,0,0,0,.77-.42l.76,1.77a5.85,5.85,0,0,1-1,.8,9,9,0,0,1-1.49.77,13.38,13.38,0,0,1-1.82.59A8.78,8.78,0,0,1,204.38,569.55Zm-.4-15.47a2.64,2.64,0,0,0-1.06.21,1.91,1.91,0,0,0-.87.77,5,5,0,0,0-.61,1.59,14.16,14.16,0,0,0-.3,2.63h5.26v-.2c0-.09,0-.18,0-.28s0-.19,0-.28v-.19a11.33,11.33,0,0,0-.11-1.52,5,5,0,0,0-.37-1.37,2.62,2.62,0,0,0-.75-1A1.91,1.91,0,0,0,204,554.08Z"/><path class="cls-2" d="M212.89,564.76a4.51,4.51,0,0,1,.38-1.92,4.67,4.67,0,0,1,1.07-1.46,6.36,6.36,0,0,1,1.61-1.07,10.9,10.9,0,0,1,2-.73,15.45,15.45,0,0,1,2.23-.42c.77-.08,1.54-.14,2.31-.16v-.7a3.4,3.4,0,0,0-.68-2.38,3,3,0,0,0-2.23-.71,10.64,10.64,0,0,0-1.59.12c-.54.09-1,.19-1.53.31a13,13,0,0,0-1.36.41c-.42.15-.77.3-1.06.43h0l-.86-2a7,7,0,0,1,1-.65,13.58,13.58,0,0,1,1.76-.79,17.11,17.11,0,0,1,2.27-.65,11.41,11.41,0,0,1,2.56-.28,9.18,9.18,0,0,1,2.76.35,4.25,4.25,0,0,1,1.85,1.08,4.45,4.45,0,0,1,1,1.86,9.33,9.33,0,0,1,.33,2.64v9.14h1.81V569l-.68.16c-.28.06-.58.12-.91.17s-.69.1-1.07.14a11.17,11.17,0,0,1-1.17.06,7.89,7.89,0,0,1-.91,0,1.25,1.25,0,0,1-.59-.21.82.82,0,0,1-.33-.46,2.51,2.51,0,0,1-.11-.81v-.85a5,5,0,0,1-.69.74,5.29,5.29,0,0,1-1.06.78,6.51,6.51,0,0,1-1.41.61,6,6,0,0,1-1.74.24,6.43,6.43,0,0,1-2-.28,4.22,4.22,0,0,1-1.59-.86,4,4,0,0,1-1.08-1.5A5.4,5.4,0,0,1,212.89,564.76Zm7,2a2.7,2.7,0,0,0,.6-.07,6.41,6.41,0,0,0,1.43-.52,3,3,0,0,0,.61-.42v-4.85a8.91,8.91,0,0,0-2.38.27,4.35,4.35,0,0,0-1.53.7,2.49,2.49,0,0,0-.81,1,3,3,0,0,0-.25,1.22,2.89,2.89,0,0,0,.6,2A2.14,2.14,0,0,0,219.84,566.72Z"/><path class="cls-2" d="M229.91,569.21v-2L232,567V547.4l-2.18-.36v-1.72l5.73-.72h0l.92.69V567l2.21.29v2Z"/><path class="cls-2" d="M242.33,565.7V554.92h-2.07v-1.67a2.86,2.86,0,0,0,.38-.13l.52-.2.5-.19.27-.14a4.57,4.57,0,0,0,1-1.41c.1-.19.21-.42.33-.68s.23-.53.34-.81.22-.57.32-.85.18-.53.24-.75h2.61l.05,4.34h4.3v2.49h-4.3V563q0,1.17,0,1.86a3.37,3.37,0,0,0,.18,1,.71.71,0,0,0,.43.46,2.82,2.82,0,0,0,.81.1h0a4.91,4.91,0,0,0,.74-.06l.76-.14c.25,0,.48-.11.69-.17L251,566h0l.69,1.71a7.68,7.68,0,0,1-1.07.67,10.14,10.14,0,0,1-1.41.61,11.08,11.08,0,0,1-1.63.44,9,9,0,0,1-1.72.17h0a4.68,4.68,0,0,1-1.64-.25,2.55,2.55,0,0,1-1.1-.74,3.07,3.07,0,0,1-.61-1.21A6.34,6.34,0,0,1,242.33,565.7Z"/><path class="cls-2" d="M253,569.21v-2l1.8-.29V547.4l-2.2-.36v-1.72l5.7-.72h.08l.89.69,0,6.9-.24,2.33a12.3,12.3,0,0,1,1-.78,9.39,9.39,0,0,1,1.34-.75,9.28,9.28,0,0,1,1.64-.57,7.52,7.52,0,0,1,1.86-.23,6.06,6.06,0,0,1,2.38.4,3.27,3.27,0,0,1,1.48,1.21,5.38,5.38,0,0,1,.78,2.08,16.87,16.87,0,0,1,.23,3V567l2.06.29v2h-8.2v-1.9l1.63-.32V558.8a12.47,12.47,0,0,0-.11-1.75,3,3,0,0,0-.39-1.21,1.74,1.74,0,0,0-.79-.7,3.18,3.18,0,0,0-1.29-.22,4.36,4.36,0,0,0-.94.1,7.09,7.09,0,0,0-.93.26,5.29,5.29,0,0,0-.84.35,3.28,3.28,0,0,0-.66.4V567l2,.29v2Z"/><path class="cls-2" d="M277.31,569.46a2.92,2.92,0,0,1-1-.16,2.38,2.38,0,0,1-.82-.47,2.18,2.18,0,0,1-.76-1.71A2.57,2.57,0,0,1,275,566a2.93,2.93,0,0,1,.64-.88,3,3,0,0,1,1-.6,3.13,3.13,0,0,1,1.15-.21,3.36,3.36,0,0,1,1.22.19,2.34,2.34,0,0,1,.81.51,2.09,2.09,0,0,1,.46.75,3,3,0,0,1,.14.91,2.8,2.8,0,0,1-.23,1.14,2.54,2.54,0,0,1-.63.88,2.81,2.81,0,0,1-1,.56A3.43,3.43,0,0,1,277.31,569.46Z"/></svg>