<svg id="Layer_1" data-name="Layer 1" xmlns="http://www.w3.org/2000/svg" viewBox="0 0 970 250"><defs><style>.cls-1{fill:#fff;}.cls-2{fill:#f1b533;}</style></defs><path class="cls-1" d="M60.87,103.91,52.44,76.62,50,76V73.31H62.47V76l-3.38.64,5.06,18.24.77,4.08.78-4.08L70.06,80.2l-1.18-3.6L66.2,76V73.31H79V76l-3.52.64,5,18.24.92,4.44.78-4.44,4.77-18.24L83.1,76V73.31H93.43V76l-2.65.64-8,27.29H77.09L71.68,85.55l-5.26,18.36Z"/><path class="cls-1" d="M104.64,104.17a12,12,0,0,1-4.84-.88,8.75,8.75,0,0,1-3.34-2.44,10.27,10.27,0,0,1-1.93-3.75,17.39,17.39,0,0,1-.62-4.75,15,15,0,0,1,.79-5,10.78,10.78,0,0,1,2.23-3.75,9.5,9.5,0,0,1,3.46-2.37,11.67,11.67,0,0,1,4.47-.82q8.3,0,8.65,8.09c0,.92,0,1.75,0,2.49a11.16,11.16,0,0,1-.21,1.87h-13a12.15,12.15,0,0,0,.58,3.37,6.6,6.6,0,0,0,1.25,2.28,4.61,4.61,0,0,0,1.85,1.28,6.63,6.63,0,0,0,2.35.4,10.35,10.35,0,0,0,1.9-.16,13.89,13.89,0,0,0,1.63-.4,9.49,9.49,0,0,0,1.35-.54,9.7,9.7,0,0,0,1-.58l1,2.42a7.64,7.64,0,0,1-1.39,1.09,13.25,13.25,0,0,1-2,1,17.57,17.57,0,0,1-2.48.79A11.22,11.22,0,0,1,104.64,104.17Zm-.54-21.09a3.67,3.67,0,0,0-1.45.28,2.63,2.63,0,0,0-1.17,1,7,7,0,0,0-.84,2.17,18.73,18.73,0,0,0-.41,3.59h7.17c0-.07,0-.16,0-.28s0-.25,0-.38,0-.26,0-.38v-.26a16.24,16.24,0,0,0-.14-2.07,6.49,6.49,0,0,0-.51-1.87,3.59,3.59,0,0,0-1-1.33A2.57,2.57,0,0,0,104.1,83.08Z"/><path class="cls-1" d="M129.12,103.71V101l2.59-.38V74l-2.89-.5V71.13l7.73-1h.06l1.26.94V89l-.1,3.1,7.77-8-3.12-.54V80.82h11.27v2.72l-3.72.72L145,88.79l7.71,11.85,2.46.4v2.67H143.88V101l2-.44L141,92.25l-3.23,3.11.1,2.38v2.9l2.73.4v2.67Z"/><path class="cls-1" d="M156.89,103.71V101l2.57-.4V85.27l-2.71-.83v-3l7.15-1h.1l1.06.86v2.38a11.34,11.34,0,0,1,1.56-1.18,11.49,11.49,0,0,1,1.94-1,14.26,14.26,0,0,1,2.21-.71,10.25,10.25,0,0,1,2.34-.27,8.92,8.92,0,0,1,3.2.5,4.24,4.24,0,0,1,2.05,1.6,7.11,7.11,0,0,1,1.08,2.82,23.65,23.65,0,0,1,.32,4.17v11.07l2.84.38v2.67H171.35V101l2.18-.38V89.51a18.2,18.2,0,0,0-.14-2.39,4.87,4.87,0,0,0-.51-1.65,2.31,2.31,0,0,0-1-.94,3.83,3.83,0,0,0-1.67-.31,6.7,6.7,0,0,0-1.34.14,11.42,11.42,0,0,0-1.25.39,8.2,8.2,0,0,0-1.07.53c-.33.2-.61.39-.85.57v14.79l2.67.4v2.67Z"/><path class="cls-1" d="M184.6,92.41a13.67,13.67,0,0,1,.94-5.3A10.89,10.89,0,0,1,188,83.36a10,10,0,0,1,3.61-2.24,12.52,12.52,0,0,1,4.26-.74,12.15,12.15,0,0,1,4.6.81,8.91,8.91,0,0,1,3.36,2.33,10,10,0,0,1,2,3.69,16,16,0,0,1,.7,4.94,14,14,0,0,1-.94,5.39,10.65,10.65,0,0,1-2.49,3.75,9.9,9.9,0,0,1-3.6,2.17,12.7,12.7,0,0,1-4.26.71,12.13,12.13,0,0,1-4.59-.81,9,9,0,0,1-3.37-2.32,10,10,0,0,1-2.06-3.7A16,16,0,0,1,184.6,92.41Zm11.06,9a3.6,3.6,0,0,0,1.9-.49,3.71,3.71,0,0,0,1.33-1.54,9.27,9.27,0,0,0,.78-2.69,25.92,25.92,0,0,0,.25-3.91,34,34,0,0,0-.23-4.15,11.78,11.78,0,0,0-.74-3,4.38,4.38,0,0,0-1.34-1.84,3.25,3.25,0,0,0-2-.63,3.56,3.56,0,0,0-1.9.49,3.71,3.71,0,0,0-1.35,1.53,8.94,8.94,0,0,0-.8,2.69,25.84,25.84,0,0,0-.26,3.92,31.65,31.65,0,0,0,.24,4.14,11.13,11.13,0,0,0,.77,3,4.45,4.45,0,0,0,1.36,1.85A3.22,3.22,0,0,0,195.66,101.42Z"/><path class="cls-1" d="M216.58,104,210,83.94l-2.22-.56V80.82h11.39v2.54l-3.12.58,2.76,10.42,1,4.64,1-4.64,3.91-13.54H230l4,13.54,1,4.44.92-4.42L238.68,84l-3.22-.6V80.82h9.61v2.54l-2.38.58L236.46,104h-5l-4.18-13.26-.86-3.58-.76,3.58-4,13.26Z"/><path class="cls-1" d="M266.07,104l-6.63-20.09-2.22-.56V80.82h11.39v2.54l-3.12.58,2.76,10.42,1,4.64,1-4.64,3.92-13.54h5.23l4,13.54,1,4.44.92-4.42L288.17,84l-3.22-.6V80.82h9.61v2.54l-2.38.58L286,104h-5l-4.17-13.26-.86-3.58-.76,3.58L271.1,104Z"/><path class="cls-1" d="M295.46,103.71V101l2.46-.4V74l-3-.5V71.13l7.77-1h.1l1.22.94,0,9.41-.32,3.18a11.18,11.18,0,0,1,1.35-1.06,11.35,11.35,0,0,1,1.83-1,13.44,13.44,0,0,1,2.22-.78,10.12,10.12,0,0,1,2.55-.31,8.4,8.4,0,0,1,3.24.54,4.4,4.4,0,0,1,2,1.66A7.29,7.29,0,0,1,318,85.52a22.7,22.7,0,0,1,.31,4v11.07l2.82.4v2.67H309.94v-2.59l2.22-.44V89.51a18.2,18.2,0,0,0-.14-2.39,4.28,4.28,0,0,0-.53-1.65,2.35,2.35,0,0,0-1.08-.94,4.29,4.29,0,0,0-1.77-.31,5.61,5.61,0,0,0-1.27.14,11.18,11.18,0,0,0-1.27.34,9.22,9.22,0,0,0-1.15.48,5.91,5.91,0,0,0-.9.55v14.91l2.74.4v2.67Z"/><path class="cls-1" d="M323.09,97.64a6.07,6.07,0,0,1,.53-2.62,6.21,6.21,0,0,1,1.46-2,8.48,8.48,0,0,1,2.18-1.46,15.89,15.89,0,0,1,2.72-1,21,21,0,0,1,3-.57c1.05-.12,2.1-.19,3.15-.22v-1a4.67,4.67,0,0,0-.92-3.25,4.12,4.12,0,0,0-3.05-1,14.52,14.52,0,0,0-2.17.17c-.73.12-1.42.26-2.09.42s-1.28.36-1.85.56-1,.41-1.44.59h0l-1.18-2.67a9.37,9.37,0,0,1,1.42-.89,16.55,16.55,0,0,1,2.39-1.07,23.31,23.31,0,0,1,3.1-.9,16.18,16.18,0,0,1,3.5-.38,12.83,12.83,0,0,1,3.76.48,5.84,5.84,0,0,1,2.52,1.48,5.93,5.93,0,0,1,1.42,2.52,12.9,12.9,0,0,1,.45,3.61V101h2.48v2.45l-.94.21c-.38.09-.79.17-1.24.24s-.94.14-1.46.19a13.94,13.94,0,0,1-1.6.08,10.74,10.74,0,0,1-1.23-.06,1.73,1.73,0,0,1-.82-.28,1.25,1.25,0,0,1-.45-.63,3.59,3.59,0,0,1-.14-1.1v-1.16a8.14,8.14,0,0,1-.94,1,8.53,8.53,0,0,1-1.44,1.06,9.19,9.19,0,0,1-1.93.82,8.1,8.1,0,0,1-2.38.33,8.87,8.87,0,0,1-2.66-.38,6,6,0,0,1-2.16-1.17,5.69,5.69,0,0,1-1.47-2A7.35,7.35,0,0,1,323.09,97.64Zm9.49,2.68a4.44,4.44,0,0,0,.82-.1,9.05,9.05,0,0,0,1-.28,7,7,0,0,0,1-.43,4.12,4.12,0,0,0,.84-.57V92.33a12.39,12.39,0,0,0-3.24.36,6.06,6.06,0,0,0-2.09,1A3.35,3.35,0,0,0,329.73,95a4.24,4.24,0,0,0-.33,1.66,4,4,0,0,0,.81,2.71A3,3,0,0,0,332.58,100.32Z"/><path class="cls-1" d="M349.1,98.92V84.22h-2.82V81.94a4.91,4.91,0,0,0,.51-.17l.72-.27c.25-.09.47-.18.67-.27a2.49,2.49,0,0,0,.38-.19A6.24,6.24,0,0,0,350,79.12c.13-.27.28-.58.44-.93s.32-.72.47-1.11.3-.77.43-1.15l.34-1h3.55l.06,5.91h5.88v3.4h-5.88V95.28c0,1.07,0,1.92.05,2.54a5.2,5.2,0,0,0,.24,1.42,1,1,0,0,0,.59.62,3.59,3.59,0,0,0,1.1.14h0a7.21,7.21,0,0,0,1-.08c.35,0,.7-.12,1-.19s.65-.15.94-.24l.71-.23h0l.94,2.34a11.48,11.48,0,0,1-1.47.92,15.6,15.6,0,0,1-1.92.83,16.37,16.37,0,0,1-2.22.59,11.6,11.6,0,0,1-2.34.23h0a6.5,6.5,0,0,1-2.25-.34,3.48,3.48,0,0,1-1.5-1,4.15,4.15,0,0,1-.83-1.65A9,9,0,0,1,349.1,98.92Z"/><path class="cls-1" d="M52.38,152.81v-2.67l2.45-.4V123.07l-3-.5v-2.34l7.77-1h.1l1.22.94,0,9.41-.32,3.18A11.18,11.18,0,0,1,62,131.72a11.35,11.35,0,0,1,1.83-1,11.83,11.83,0,0,1,2.22-.78,10.12,10.12,0,0,1,2.55-.31,8.4,8.4,0,0,1,3.24.54,4.4,4.4,0,0,1,2,1.66,7.29,7.29,0,0,1,1.06,2.82,22.7,22.7,0,0,1,.31,4v11.07l2.82.4v2.67H66.86v-2.59l2.22-.44V138.61a18.2,18.2,0,0,0-.14-2.39,4.28,4.28,0,0,0-.53-1.65,2.43,2.43,0,0,0-1.08-.95,4.47,4.47,0,0,0-1.77-.3,6.39,6.39,0,0,0-1.28.13,12.25,12.25,0,0,0-1.26.35,9.22,9.22,0,0,0-1.15.48,5.91,5.91,0,0,0-.9.55v14.91l2.74.4v2.67Z"/><path class="cls-1" d="M90.9,153.27a12.08,12.08,0,0,1-4.85-.88A8.91,8.91,0,0,1,82.71,150a10.1,10.1,0,0,1-1.92-3.75,17.06,17.06,0,0,1-.62-4.75,14.72,14.72,0,0,1,.79-5,10.76,10.76,0,0,1,2.22-3.75,9.46,9.46,0,0,1,3.46-2.37,11.76,11.76,0,0,1,4.48-.82q8.28,0,8.65,8.09c0,.92,0,1.75,0,2.49a13.75,13.75,0,0,1-.21,1.87h-13a12.53,12.53,0,0,0,.58,3.37,6.7,6.7,0,0,0,1.26,2.28,4.55,4.55,0,0,0,1.85,1.28,6.53,6.53,0,0,0,2.34.4,10.28,10.28,0,0,0,1.9-.16,13.41,13.41,0,0,0,1.63-.4,10.14,10.14,0,0,0,1.36-.54,10.76,10.76,0,0,0,1-.58l1,2.42a8.42,8.42,0,0,1-1.39,1.09,12.93,12.93,0,0,1-2,1,17.16,17.16,0,0,1-2.48.79A11.14,11.14,0,0,1,90.9,153.27Zm-.54-21.09a3.64,3.64,0,0,0-1.45.28,2.65,2.65,0,0,0-1.18,1,7,7,0,0,0-.84,2.17,18.73,18.73,0,0,0-.41,3.59h7.17c0-.07,0-.16,0-.28s0-.25,0-.38,0-.26,0-.38V138a14.6,14.6,0,0,0-.14-2.07A6.49,6.49,0,0,0,93,134a3.39,3.39,0,0,0-1-1.33A2.54,2.54,0,0,0,90.36,132.18Z"/><path class="cls-1" d="M102.5,146.74a6.22,6.22,0,0,1,.53-2.62,6.37,6.37,0,0,1,1.46-2,8.54,8.54,0,0,1,2.19-1.46,15.59,15.59,0,0,1,2.72-1,20.82,20.82,0,0,1,3-.57c1.06-.12,2.11-.19,3.16-.22v-1a4.62,4.62,0,0,0-.93-3.25,4.1,4.1,0,0,0-3-1,14.39,14.39,0,0,0-2.16.17c-.73.12-1.43.26-2.09.42s-1.28.36-1.85.56-1.05.41-1.45.59h0l-1.18-2.67a9.92,9.92,0,0,1,1.42-.89,17.22,17.22,0,0,1,2.4-1.07,22.46,22.46,0,0,1,3.1-.9,16.09,16.09,0,0,1,3.49-.38A12.85,12.85,0,0,1,117,130a5.84,5.84,0,0,1,2.52,1.48A6,6,0,0,1,121,134a12.9,12.9,0,0,1,.45,3.61V150.1h2.48v2.45l-.94.21c-.37.09-.78.17-1.24.24s-.94.14-1.46.19a13.76,13.76,0,0,1-1.59.08,10.74,10.74,0,0,1-1.23-.06,1.73,1.73,0,0,1-.82-.28,1.15,1.15,0,0,1-.45-.63,3.59,3.59,0,0,1-.14-1.1V150a9,9,0,0,1-.94,1,8.09,8.09,0,0,1-1.45,1.05,8.5,8.5,0,0,1-1.93.83,8.08,8.08,0,0,1-2.37.33,8.77,8.77,0,0,1-2.66-.38,5.92,5.92,0,0,1-2.17-1.17,5.69,5.69,0,0,1-1.47-2A7.35,7.35,0,0,1,102.5,146.74Zm9.49,2.68a4.34,4.34,0,0,0,.82-.1,7.86,7.86,0,0,0,1-.28,7.67,7.67,0,0,0,1-.43,4.41,4.41,0,0,0,.84-.57v-6.61a12.52,12.52,0,0,0-3.25.36,6.1,6.1,0,0,0-2.08,1,3.44,3.44,0,0,0-1.11,1.38,4.24,4.24,0,0,0-.33,1.66,4,4,0,0,0,.81,2.71A3,3,0,0,0,112,149.42Z"/><path class="cls-1" d="M126.34,152.81v-2.67l2.88-.38V134.37l-2.72-.84v-3l6.83-1h.12l1.06.86v1.66l0,3.11h.08a8.84,8.84,0,0,1,.87-1.6,10.73,10.73,0,0,1,1.56-1.88,9.28,9.28,0,0,1,2.13-1.56,5.54,5.54,0,0,1,2.63-.65,7.39,7.39,0,0,1,1,.05,3,3,0,0,1,.55.13v6.91a4.11,4.11,0,0,0-1.15-.35,11.66,11.66,0,0,0-2.21-.19,13,13,0,0,0-1.39.08c-.47.06-.91.13-1.31.21a8,8,0,0,0-1.09.31,3.4,3.4,0,0,0-.74.36v12.75l5,.48v2.59Z"/><path class="cls-1" d="M148.07,148v-14.7h-2.81V131l.51-.17.72-.27.67-.27a3.14,3.14,0,0,0,.38-.19,6.24,6.24,0,0,0,1.41-1.92c.14-.27.28-.58.44-.93s.32-.72.47-1.11.3-.77.43-1.15.25-.72.34-1h3.56l.06,5.92h5.87v3.4h-5.87v11.06c0,1.07,0,1.91.05,2.54a4.53,4.53,0,0,0,.24,1.42,1,1,0,0,0,.59.62,3.5,3.5,0,0,0,1.1.14h0a7.07,7.07,0,0,0,1-.08c.36-.05.7-.12,1-.19a9.16,9.16,0,0,0,.94-.24c.29-.09.53-.16.71-.23h0l.94,2.34a11.48,11.48,0,0,1-1.47.92,15.6,15.6,0,0,1-1.92.83,15.84,15.84,0,0,1-2.21.59,11.63,11.63,0,0,1-2.35.23h0a6.5,6.5,0,0,1-2.25-.34,3.48,3.48,0,0,1-1.5-1,4.28,4.28,0,0,1-.83-1.65A9.06,9.06,0,0,1,148.07,148Z"/><path class="cls-1" d="M175.41,152.81v-2.67l2.45-.4V123.07l-3-.5v-2.34l7.77-1h.1l1.22.94,0,9.41-.32,3.18a11.18,11.18,0,0,1,1.35-1.06,10.83,10.83,0,0,1,1.82-1,11.93,11.93,0,0,1,2.23-.78,10.12,10.12,0,0,1,2.55-.31,8.34,8.34,0,0,1,3.23.54,4.43,4.43,0,0,1,2,1.66,7.29,7.29,0,0,1,1.06,2.82,22.7,22.7,0,0,1,.31,4v11.07l2.82.4v2.67H189.89v-2.59l2.22-.44V138.61a18.2,18.2,0,0,0-.14-2.39,4.45,4.45,0,0,0-.53-1.65,2.43,2.43,0,0,0-1.08-.95,4.47,4.47,0,0,0-1.77-.3,6.39,6.39,0,0,0-1.28.13,12.44,12.44,0,0,0-1.27.35,9.74,9.74,0,0,0-1.14.48,5.91,5.91,0,0,0-.9.55v14.91l2.73.4v2.67Z"/><path class="cls-1" d="M213.92,153.27a12.06,12.06,0,0,1-4.84-.88,8.91,8.91,0,0,1-3.34-2.44,10.1,10.1,0,0,1-1.92-3.75,17.06,17.06,0,0,1-.62-4.75,15,15,0,0,1,.78-5,10.78,10.78,0,0,1,2.23-3.75,9.38,9.38,0,0,1,3.46-2.37,11.7,11.7,0,0,1,4.47-.82q8.3,0,8.65,8.09c0,.92,0,1.75,0,2.49a12.45,12.45,0,0,1-.2,1.87H209.53a12.53,12.53,0,0,0,.58,3.37,6.7,6.7,0,0,0,1.26,2.28,4.55,4.55,0,0,0,1.85,1.28,6.53,6.53,0,0,0,2.34.4,10.35,10.35,0,0,0,1.9-.16,13.41,13.41,0,0,0,1.63-.4,10.14,10.14,0,0,0,1.36-.54c.4-.2.75-.39,1.05-.58l1,2.42a8.42,8.42,0,0,1-1.39,1.09,13.87,13.87,0,0,1-2,1,17.16,17.16,0,0,1-2.48.79A11.16,11.16,0,0,1,213.92,153.27Zm-.54-21.09a3.63,3.63,0,0,0-1.44.28,2.65,2.65,0,0,0-1.18,1,7,7,0,0,0-.84,2.17,18.73,18.73,0,0,0-.41,3.59h7.17c0-.07,0-.16,0-.28s0-.25,0-.38,0-.26,0-.38V138a16.24,16.24,0,0,0-.14-2.07,6.49,6.49,0,0,0-.51-1.87,3.39,3.39,0,0,0-1-1.33A2.57,2.57,0,0,0,213.38,132.18Z"/><path class="cls-1" d="M225.53,146.74a6,6,0,0,1,2-4.61,8.54,8.54,0,0,1,2.19-1.46,15.78,15.78,0,0,1,2.71-1,21.21,21.21,0,0,1,3-.57c1-.12,2.11-.19,3.16-.22v-1a4.62,4.62,0,0,0-.93-3.25,4.12,4.12,0,0,0-3.05-1,14.52,14.52,0,0,0-2.17.17c-.72.12-1.42.26-2.08.42s-1.29.36-1.85.56-1,.41-1.45.59h0l-1.18-2.67a9.37,9.37,0,0,1,1.42-.89,17.22,17.22,0,0,1,2.4-1.07,22.72,22.72,0,0,1,3.09-.9,16.25,16.25,0,0,1,3.5-.38,12.85,12.85,0,0,1,3.77.48,5.75,5.75,0,0,1,2.51,1.48A5.93,5.93,0,0,1,244,134a12.9,12.9,0,0,1,.45,3.61V150.1h2.48v2.45l-.94.21c-.37.09-.78.17-1.24.24s-.94.14-1.46.19a13.88,13.88,0,0,1-1.59.08,10.62,10.62,0,0,1-1.23-.06,1.69,1.69,0,0,1-.82-.28,1.15,1.15,0,0,1-.45-.63,3.3,3.3,0,0,1-.14-1.1V150a9,9,0,0,1-.94,1,8.09,8.09,0,0,1-1.45,1.05,8.7,8.7,0,0,1-1.93.83,8.1,8.1,0,0,1-2.38.33,8.75,8.75,0,0,1-2.65-.38,5.92,5.92,0,0,1-2.17-1.17,5.69,5.69,0,0,1-1.47-2A7.35,7.35,0,0,1,225.53,146.74Zm9.49,2.68a4.44,4.44,0,0,0,.82-.1,7.86,7.86,0,0,0,1-.28,7.67,7.67,0,0,0,1-.43,4.41,4.41,0,0,0,.84-.57v-6.61a12.47,12.47,0,0,0-3.25.36,6.25,6.25,0,0,0-2.09,1,3.44,3.44,0,0,0-1.11,1.38,4.43,4.43,0,0,0-.33,1.66,4.06,4.06,0,0,0,.81,2.71A3,3,0,0,0,235,149.42Z"/><path class="cls-1" d="M248.75,152.81v-2.67l2.89-.4V123.07l-3-.5v-2.34l7.81-1h.06l1.26.94v29.55l3,.4v2.67Z"/><path class="cls-1" d="M265.69,148v-14.7h-2.82V131l.51-.17.72-.27.67-.27a2.49,2.49,0,0,0,.38-.19,6.24,6.24,0,0,0,1.42-1.92c.13-.27.28-.58.44-.93s.31-.72.47-1.11.29-.77.43-1.15.24-.72.34-1h3.55l.06,5.92h5.88v3.4h-5.88v11.06c0,1.07,0,1.91.05,2.54a5.2,5.2,0,0,0,.24,1.42,1,1,0,0,0,.59.62,3.54,3.54,0,0,0,1.1.14h0a7.21,7.21,0,0,0,1-.08c.35-.05.7-.12,1-.19s.65-.15.94-.24l.71-.23h0l.93,2.34a10.65,10.65,0,0,1-1.46.92,15.6,15.6,0,0,1-1.92.83,16.37,16.37,0,0,1-2.22.59,11.63,11.63,0,0,1-2.35.23h0a6.44,6.44,0,0,1-2.24-.34,3.48,3.48,0,0,1-1.5-1,4.15,4.15,0,0,1-.83-1.65A9.06,9.06,0,0,1,265.69,148Z"/><path class="cls-1" d="M280.17,152.81v-2.67l2.46-.4V123.07l-3-.5v-2.34l7.78-1h.1l1.21.94,0,9.41-.32,3.18a11.18,11.18,0,0,1,1.35-1.06,11.35,11.35,0,0,1,1.83-1,11.93,11.93,0,0,1,2.23-.78,10,10,0,0,1,2.55-.31,8.34,8.34,0,0,1,3.23.54,4.48,4.48,0,0,1,2,1.66,7.45,7.45,0,0,1,1.06,2.82,22.7,22.7,0,0,1,.31,4v11.07l2.82.4v2.67H294.66v-2.59l2.22-.44V138.61a18.2,18.2,0,0,0-.14-2.39,4.45,4.45,0,0,0-.53-1.65,2.43,2.43,0,0,0-1.08-.95,4.47,4.47,0,0,0-1.77-.3,6.39,6.39,0,0,0-1.28.13,12.44,12.44,0,0,0-1.27.35,9.9,9.9,0,0,0-1.15.48,5.91,5.91,0,0,0-.9.55v14.91l2.74.4v2.67Z"/><path class="cls-2" d="M52.72,201.91v-2.67l2.87-.38V183.47l-2.71-.84v-3l6.83-1h.12l1.06.86v1.66l0,3.11H61a9.21,9.21,0,0,1,.87-1.61,11.06,11.06,0,0,1,1.56-1.87,9.28,9.28,0,0,1,2.13-1.56,5.51,5.51,0,0,1,2.63-.65,7.39,7.39,0,0,1,1,0,3,3,0,0,1,.55.13v6.91a4.11,4.11,0,0,0-1.15-.35,11.74,11.74,0,0,0-2.21-.19,13.29,13.29,0,0,0-1.4.08c-.46.06-.9.12-1.3.21a8,8,0,0,0-1.09.31,3.4,3.4,0,0,0-.74.36v12.75l5,.48v2.59Z"/><path class="cls-2" d="M82.65,202.37a12.08,12.08,0,0,1-4.85-.88,8.91,8.91,0,0,1-3.34-2.44,10.1,10.1,0,0,1-1.92-3.75,17.06,17.06,0,0,1-.62-4.75,14.72,14.72,0,0,1,.79-5,10.74,10.74,0,0,1,2.22-3.76,9.48,9.48,0,0,1,3.46-2.36,11.7,11.7,0,0,1,4.47-.82q8.3,0,8.66,8.09c0,.92,0,1.75,0,2.49a13.75,13.75,0,0,1-.21,1.87h-13a12.53,12.53,0,0,0,.58,3.37,6.7,6.7,0,0,0,1.26,2.28A4.55,4.55,0,0,0,81.94,198a6.76,6.76,0,0,0,2.34.4,11.22,11.22,0,0,0,1.9-.16,13.41,13.41,0,0,0,1.63-.4,10.14,10.14,0,0,0,1.36-.54c.4-.2.75-.39,1-.58l1,2.42a8.42,8.42,0,0,1-1.39,1.09,12.53,12.53,0,0,1-2,1,16,16,0,0,1-2.48.8A11.14,11.14,0,0,1,82.65,202.37Zm-.54-21.09a3.64,3.64,0,0,0-1.45.28,2.65,2.65,0,0,0-1.18,1.05,7,7,0,0,0-.84,2.17,18.73,18.73,0,0,0-.41,3.59H85.4c0-.07,0-.16,0-.28s0-.25,0-.38,0-.26,0-.38v-.26A14.6,14.6,0,0,0,85.3,185a6.49,6.49,0,0,0-.51-1.87,3.39,3.39,0,0,0-1-1.33A2.54,2.54,0,0,0,82.11,181.28Z"/><path class="cls-2" d="M94.25,195.84a6.22,6.22,0,0,1,.53-2.62,6.37,6.37,0,0,1,1.46-2,8.54,8.54,0,0,1,2.19-1.46,15.59,15.59,0,0,1,2.72-1,20.82,20.82,0,0,1,3-.57c1-.12,2.11-.19,3.16-.22v-1a4.62,4.62,0,0,0-.93-3.25,4.12,4.12,0,0,0-3-1,14.29,14.29,0,0,0-2.16.17c-.73.12-1.43.26-2.09.42s-1.28.36-1.85.56-1.05.41-1.45.59h0l-1.18-2.67A9.37,9.37,0,0,1,96,181a17.22,17.22,0,0,1,2.4-1.07,22.72,22.72,0,0,1,3.09-.9,16.25,16.25,0,0,1,3.5-.38,12.9,12.9,0,0,1,3.77.48,5.75,5.75,0,0,1,2.51,1.48,5.93,5.93,0,0,1,1.42,2.52,12.9,12.9,0,0,1,.45,3.61V199.2h2.48v2.45l-.94.21c-.37.09-.79.17-1.24.24s-.94.14-1.46.19a13.88,13.88,0,0,1-1.59.08,10.74,10.74,0,0,1-1.23-.06,1.69,1.69,0,0,1-.82-.28,1.15,1.15,0,0,1-.45-.63,3.3,3.3,0,0,1-.14-1.1v-1.16a9,9,0,0,1-.94,1,8.09,8.09,0,0,1-1.45,1.05,8.7,8.7,0,0,1-1.93.83,8.08,8.08,0,0,1-2.37.33,8.77,8.77,0,0,1-2.66-.38,5.92,5.92,0,0,1-2.17-1.17,5.69,5.69,0,0,1-1.47-2A7.35,7.35,0,0,1,94.25,195.84Zm9.49,2.68a4.34,4.34,0,0,0,.82-.1,7.86,7.86,0,0,0,1-.28,9.4,9.4,0,0,0,1-.43,4.41,4.41,0,0,0,.84-.57v-6.61a12.47,12.47,0,0,0-3.25.36,6.25,6.25,0,0,0-2.09,1,3.41,3.41,0,0,0-1.1,1.38,4.24,4.24,0,0,0-.33,1.66,4,4,0,0,0,.81,2.71A2.94,2.94,0,0,0,103.74,198.52Z"/><path class="cls-2" d="M117.47,201.91v-2.67l2.89-.4V172.17l-3-.5v-2.34l7.81-1h.06l1.26.94v29.55l3,.4v2.67Z"/><path class="cls-2" d="M131.61,201.91v-2.67l2.9-.4V172.17l-3-.5v-2.34l7.81-1h.06l1.26.94v29.55l3,.4v2.67Z"/><path class="cls-2" d="M151.11,212.1c-.26,0-.56,0-.88,0s-.63,0-.94-.06-.58-.05-.83-.09a2.35,2.35,0,0,1-.52-.11v-4.89a7.12,7.12,0,0,0,1.18.33,10.65,10.65,0,0,0,2.09.19,7.05,7.05,0,0,0,1.31-.14,3.92,3.92,0,0,0,1.47-.7,7.05,7.05,0,0,0,1.54-1.67,14.62,14.62,0,0,0,1.52-3h-3.6l-7.19-19.78-1.82-.55V179H156v2.54l-3,.57L156.81,194l1.55,5.44,1.36-5.44,3-11.85-2.6-.57V179H169v2.56l-1.84.55c-.38,1.22-.79,2.53-1.22,3.93s-.87,2.82-1.31,4.26-.87,2.82-1.3,4.18-.81,2.6-1.16,3.72-.65,2.07-.91,2.85-.45,1.32-.57,1.6a20.29,20.29,0,0,1-4,7A7.45,7.45,0,0,1,151.11,212.1Z"/><path class="cls-2" d="M184,201.91v-2.59l2.49-.46V183.47l-2.71-.84v-3l7.07-1h.1l1.06.86v2.38a8.72,8.72,0,0,1,1.63-1.2,13.73,13.73,0,0,1,2.07-1A14.16,14.16,0,0,1,198,179a10.28,10.28,0,0,1,2.2-.26,7.74,7.74,0,0,1,3.66.74,4.66,4.66,0,0,1,2.05,2.36,9.71,9.71,0,0,1,1.47-1.05,14.48,14.48,0,0,1,2-1,16.43,16.43,0,0,1,2.31-.75,9.69,9.69,0,0,1,2.34-.3,8.86,8.86,0,0,1,3.14.48,4.29,4.29,0,0,1,2,1.56,7.1,7.1,0,0,1,1.08,2.8,24,24,0,0,1,.32,4.21v11.11l2.81.46v2.59H212.31v-2.59l2.09-.46V187.93a16.12,16.12,0,0,0-.17-2.61,4.89,4.89,0,0,0-.56-1.73,2.38,2.38,0,0,0-1.08-1,4.24,4.24,0,0,0-1.7-.3,5.1,5.1,0,0,0-1.1.14c-.4.1-.8.21-1.2.35s-.79.3-1.16.47-.7.35-1,.52a13.9,13.9,0,0,1,.22,1.83c0,.66.06,1.38.06,2.15v11.09l2.66.44v2.59H198.2v-2.59l2.4-.44V187.71a15.06,15.06,0,0,0-.16-2.39,4.63,4.63,0,0,0-.55-1.65,2.44,2.44,0,0,0-1.06-.95,4.15,4.15,0,0,0-1.69-.31,6.22,6.22,0,0,0-1.25.14,13,13,0,0,0-1.26.35,7.51,7.51,0,0,0-1.14.48,6.14,6.14,0,0,0-.88.55v14.93l2.69.46v2.59Z"/><path class="cls-2" d="M236.22,202.37a12,12,0,0,1-4.84-.88,8.75,8.75,0,0,1-3.34-2.44,10.12,10.12,0,0,1-1.93-3.75,17.44,17.44,0,0,1-.62-4.75,14.72,14.72,0,0,1,.79-5,10.92,10.92,0,0,1,2.23-3.76,9.52,9.52,0,0,1,3.45-2.36,11.76,11.76,0,0,1,4.48-.82q8.3,0,8.65,8.09c0,.92,0,1.75,0,2.49a11.16,11.16,0,0,1-.21,1.87h-13a12.17,12.17,0,0,0,.57,3.37,6.7,6.7,0,0,0,1.26,2.28,4.61,4.61,0,0,0,1.85,1.28,6.82,6.82,0,0,0,2.35.4,11.31,11.31,0,0,0,1.9-.16,13.24,13.24,0,0,0,1.62-.4,10.52,10.52,0,0,0,2.41-1.12l1,2.42a7.64,7.64,0,0,1-1.39,1.09,12.41,12.41,0,0,1-2,1,16.37,16.37,0,0,1-2.48.8A11.22,11.22,0,0,1,236.22,202.37Zm-.54-21.09a3.67,3.67,0,0,0-1.45.28,2.7,2.7,0,0,0-1.18,1.05,7,7,0,0,0-.84,2.17,19.69,19.69,0,0,0-.4,3.59H239c0-.07,0-.16,0-.28s0-.25,0-.38,0-.26,0-.38v-.26a16.24,16.24,0,0,0-.14-2.07,6.82,6.82,0,0,0-.51-1.87,3.59,3.59,0,0,0-1-1.33A2.57,2.57,0,0,0,235.68,181.28Z"/><path class="cls-2" d="M247.83,195.84a6.07,6.07,0,0,1,.53-2.62,6.21,6.21,0,0,1,1.46-2,8.66,8.66,0,0,1,2.18-1.46,15.89,15.89,0,0,1,2.72-1,21,21,0,0,1,3-.57c1.05-.12,2.1-.19,3.15-.22v-1a4.67,4.67,0,0,0-.92-3.25,4.12,4.12,0,0,0-3.05-1,14.52,14.52,0,0,0-2.17.17c-.73.12-1.42.26-2.09.42s-1.28.36-1.85.56-1,.41-1.44.59h0l-1.18-2.67a9.37,9.37,0,0,1,1.42-.89,16.55,16.55,0,0,1,2.39-1.07,23.31,23.31,0,0,1,3.1-.9,16.18,16.18,0,0,1,3.5-.38,12.78,12.78,0,0,1,3.76.48,5.84,5.84,0,0,1,2.52,1.48,5.93,5.93,0,0,1,1.42,2.52,12.9,12.9,0,0,1,.45,3.61V199.2h2.48v2.45l-.94.21c-.38.09-.79.17-1.24.24s-.94.14-1.46.19a13.94,13.94,0,0,1-1.6.08,10.74,10.74,0,0,1-1.23-.06,1.73,1.73,0,0,1-.82-.28,1.25,1.25,0,0,1-.45-.63,3.59,3.59,0,0,1-.14-1.1v-1.16a8.79,8.79,0,0,1-.93,1,8.47,8.47,0,0,1-1.45,1.05A8.7,8.7,0,0,1,257,202a8.1,8.1,0,0,1-2.38.33A8.87,8.87,0,0,1,252,202a6,6,0,0,1-2.16-1.17,5.69,5.69,0,0,1-1.47-2A7.35,7.35,0,0,1,247.83,195.84Zm9.49,2.68a4.44,4.44,0,0,0,.82-.1,9.05,9.05,0,0,0,1-.28,9.4,9.4,0,0,0,1-.43,4.33,4.33,0,0,0,.83-.57v-6.61a12.39,12.39,0,0,0-3.24.36,6.25,6.25,0,0,0-2.09,1,3.44,3.44,0,0,0-1.11,1.38,4.24,4.24,0,0,0-.33,1.66,4,4,0,0,0,.81,2.71A3,3,0,0,0,257.32,198.52Z"/><path class="cls-2" d="M271.8,201.91v-2.67l2.58-.4V183.47l-2.72-.84v-3l7.16-1h.1l1.05.86v2.38a11.34,11.34,0,0,1,1.56-1.18,12,12,0,0,1,2-1,13.26,13.26,0,0,1,2.21-.71,10.25,10.25,0,0,1,2.34-.27,8.78,8.78,0,0,1,3.2.5,4.29,4.29,0,0,1,2,1.6,7.11,7.11,0,0,1,1.08,2.82,23.65,23.65,0,0,1,.32,4.17v11.07l2.84.38v2.67H286.27v-2.67l2.18-.38V187.71a18.2,18.2,0,0,0-.14-2.39,4.87,4.87,0,0,0-.51-1.65,2.4,2.4,0,0,0-1-.95,4,4,0,0,0-1.67-.31,6,6,0,0,0-1.34.15,7.93,7.93,0,0,0-1.25.39,9,9,0,0,0-1.08.53c-.32.2-.61.39-.85.57v14.79l2.68.4v2.67Z"/><path class="cls-2" d="M300.45,200.64V195h3.68l1,3.12a2.32,2.32,0,0,0,.55.52,4.51,4.51,0,0,0,.88.46,7.54,7.54,0,0,0,1.15.33,7.14,7.14,0,0,0,1.33.13,4.64,4.64,0,0,0,1.63-.24,3,3,0,0,0,1-.61,2,2,0,0,0,.52-.84,3.36,3.36,0,0,0,.14-.91,2.44,2.44,0,0,0-.43-1.45,4.3,4.3,0,0,0-1.22-1.12,12.45,12.45,0,0,0-1.91-1l-2.47-1a16.38,16.38,0,0,1-2.48-1.24,8.77,8.77,0,0,1-1.87-1.55,6.62,6.62,0,0,1-1.19-1.92,6.43,6.43,0,0,1-.42-2.38,5.74,5.74,0,0,1,2.34-4.72,8.6,8.6,0,0,1,2.88-1.4,14,14,0,0,1,4-.51,15.05,15.05,0,0,1,2.35.16c.69.11,1.31.23,1.87.37s1.07.28,1.54.44a10.47,10.47,0,0,0,1.36.35v5.51l-3.48-.06-.94-2.66a2.79,2.79,0,0,0-1.06-.88,4.14,4.14,0,0,0-2-.45,4.72,4.72,0,0,0-1.51.2,2.63,2.63,0,0,0-1,.53,2,2,0,0,0-.53.75,2.22,2.22,0,0,0-.16.83,2.61,2.61,0,0,0,.54,1.71,4.68,4.68,0,0,0,1.35,1.13,11.41,11.41,0,0,0,1.8.81c.66.23,1.27.48,1.86.75q1.32.57,2.52,1.23a10.07,10.07,0,0,1,2.13,1.51,6.64,6.64,0,0,1,1.47,2,6.06,6.06,0,0,1,.55,2.69,6.41,6.41,0,0,1-.57,2.7,6.07,6.07,0,0,1-1.71,2.16,8.44,8.44,0,0,1-2.88,1.43,14,14,0,0,1-4.05.52,17,17,0,0,1-2.88-.22,20.92,20.92,0,0,1-2.38-.51c-.71-.19-1.35-.38-1.91-.57A11.64,11.64,0,0,0,300.45,200.64Z"/><path class="cls-2" d="M326.52,202.25a4,4,0,0,1-1.33-.22,3.18,3.18,0,0,1-1.12-.64,3,3,0,0,1-.76-1,3,3,0,0,1-.28-1.33,3.44,3.44,0,0,1,.32-1.51,3.73,3.73,0,0,1,.88-1.21,3.86,3.86,0,0,1,1.3-.81,4.29,4.29,0,0,1,1.57-.29,4.7,4.7,0,0,1,1.66.26,3.1,3.1,0,0,1,1.11.7,2.55,2.55,0,0,1,.62,1,3.88,3.88,0,0,1,.19,1.24,3.78,3.78,0,0,1-.31,1.56,3.53,3.53,0,0,1-.86,1.19,3.68,3.68,0,0,1-1.32.77A5,5,0,0,1,326.52,202.25Z"/></svg>