<svg id="Layer_1" data-name="Layer 1" xmlns="http://www.w3.org/2000/svg" viewBox="0 0 300 600"><defs><style>.cls-1{fill:#435563;}.cls-2{opacity:0.05;}.cls-3{fill:#fff;}.cls-4{fill:#e87824;}.cls-5{fill:#d4262f;}.cls-6{fill:#f1b533;}.cls-7{fill:none;stroke:#f1b533;stroke-miterlimit:10;stroke-width:1.5px;}</style></defs><rect class="cls-1" width="300" height="600"/><g class="cls-2"><polygon class="cls-3" points="10.15 0 17.51 7.5 24.87 0 17.51 0 10.15 0"/><polygon class="cls-3" points="32.23 0 24.87 0 32.23 7.5 39.59 0 32.23 0 32.23 0"/><polygon class="cls-3" points="46.95 0 39.59 0 46.95 7.5 54.31 0 46.95 0 46.95 0"/><polygon class="cls-3" points="76.39 0 69.03 0 76.39 7.5 76.39 7.5 83.75 0 76.39 0 76.39 0"/><polygon class="cls-3" points="91.11 0 83.75 0 91.11 7.5 91.11 7.5 98.47 0 91.11 0 91.11 0"/><polygon class="cls-3" points="98.47 0 105.84 7.5 113.2 0 105.84 0 98.47 0"/><polygon class="cls-3" points="120.56 0 113.2 0 120.56 7.5 120.56 7.5 127.92 0 120.56 0 120.56 0"/><polygon class="cls-3" points="135.28 0 127.92 0 135.28 7.5 138.96 3.75 142.64 0 135.28 0 135.28 0"/><polygon class="cls-3" points="142.64 0 150 7.5 157.36 0 150 0 142.64 0"/><polygon class="cls-3" points="10.15 0 2.79 7.5 0 4.66 0 0 10.15 0"/><polygon class="cls-3" points="54.31 0 61.67 7.5 69.03 0 61.67 0 54.31 0"/><polygon class="cls-3" points="164.72 0 157.36 0 164.72 7.5 164.72 7.5 172.08 0 164.72 0 164.72 0"/><polygon class="cls-3" points="172.08 0 179.44 7.5 186.8 0 179.44 0 172.08 0"/><polygon class="cls-3" points="194.16 0 186.8 0 194.16 7.5 194.16 7.5 201.53 0 194.16 0 194.16 0"/><polygon class="cls-3" points="208.88 0 201.53 0 208.88 7.5 208.88 7.5 216.25 0 208.88 0 208.88 0"/><polygon class="cls-3" points="216.25 0 223.61 7.5 230.97 0 223.61 0 216.25 0"/><polygon class="cls-3" points="238.33 0 230.97 0 238.33 7.5 238.33 7.5 245.69 0 238.33 0 238.33 0"/><polygon class="cls-3" points="267.77 0 260.41 0 267.77 7.5 275.13 0 267.77 0 267.77 0"/><polygon class="cls-3" points="282.49 0 275.13 0 282.49 7.5 282.49 7.5 289.85 0 282.49 0 282.49 0"/><polygon class="cls-3" points="300 0 300 4.66 297.21 7.5 289.85 0 300 0"/><polygon class="cls-3" points="253.05 0 245.69 0 253.05 7.5 260.41 0 253.05 0 253.05 0"/><polygon class="cls-3" points="300 297.16 300 304.66 297.21 307.5 289.85 300 282.49 307.5 275.13 300 267.77 307.5 260.41 300 253.05 307.5 245.69 300 238.33 307.5 230.97 300 223.61 307.5 216.25 300 208.89 307.5 201.52 300 194.16 307.5 186.8 300 179.44 307.5 172.08 300 164.72 307.5 157.36 300 150 307.5 142.64 300 135.28 307.5 127.92 300 120.56 307.5 113.2 300 105.84 307.5 98.48 300 91.11 307.5 83.75 300 76.39 307.5 69.03 300 61.67 307.5 54.31 300 46.95 307.5 39.59 300 32.23 307.5 24.87 300 17.51 307.5 10.15 300 2.79 307.5 0 304.66 0 297.16 2.79 300 10.15 292.5 17.51 300 24.87 292.5 32.23 300 39.59 292.5 46.95 300 54.31 292.5 61.67 300 69.03 292.5 76.39 300 83.75 292.5 91.11 300 98.48 292.5 105.84 300 113.2 292.5 120.56 300 127.92 292.5 135.28 300 142.64 292.5 150 300 157.36 292.5 164.72 300 172.08 292.5 179.44 300 186.8 292.5 194.16 300 201.52 292.5 208.89 300 216.25 292.5 223.61 300 230.97 292.5 238.33 300 245.69 292.5 253.05 300 260.41 292.5 267.77 300 275.13 292.5 282.49 300 289.85 292.5 297.21 300 300 297.16"/><polygon class="cls-3" points="300 12.16 300 19.66 297.21 22.5 289.85 15 282.49 22.5 275.13 15 267.77 22.5 260.41 15 253.05 22.5 245.69 15 238.33 22.5 230.97 15 223.61 22.5 216.25 15 208.89 22.5 201.52 15 194.16 22.5 186.8 15 179.44 22.5 172.08 15 164.72 22.5 157.36 15 150 22.5 142.64 15 135.28 22.5 131.6 18.75 127.92 15 120.56 22.5 113.2 15 105.84 22.5 98.48 15 91.11 22.5 83.75 15 76.39 22.5 69.03 15 61.67 22.5 54.31 15 46.95 22.5 39.59 15 32.23 22.5 24.87 15 17.51 22.5 10.15 15 2.79 22.5 0 19.66 0 12.16 2.79 15 10.15 7.5 17.51 15 24.87 7.5 32.23 15 39.59 7.5 46.95 15 54.31 7.5 61.67 15 69.03 7.5 76.39 15 83.75 7.5 91.11 15 98.48 7.5 105.84 15 113.2 7.5 120.56 15 127.92 7.5 135.28 15 142.64 7.5 150 15 157.36 7.5 164.72 15 172.08 7.5 179.44 15 186.8 7.5 194.16 15 201.52 7.5 208.89 15 216.25 7.5 223.61 15 230.97 7.5 238.33 15 245.69 7.5 253.05 15 260.41 7.5 267.77 15 275.13 7.5 282.49 15 289.85 7.5 297.21 15 300 12.16"/><polygon class="cls-3" points="300 27.16 300 34.66 297.21 37.5 289.85 30 282.49 37.5 275.13 30 267.77 37.5 260.41 30 253.05 37.5 245.69 30 238.33 37.5 230.97 30 223.61 37.5 216.25 30 208.89 37.5 201.52 30 194.16 37.5 186.8 30 179.44 37.5 172.08 30 164.72 37.5 157.36 30 150 37.5 142.64 30 135.28 37.5 131.6 33.75 127.92 30 120.56 37.5 113.2 30 105.84 37.5 98.48 30 91.11 37.5 83.75 30 76.39 37.5 69.03 30 61.67 37.5 54.31 30 46.95 37.5 39.59 30 32.23 37.5 24.87 30 17.51 37.5 10.15 30 2.79 37.5 0 34.66 0 27.16 2.79 30 10.15 22.5 17.51 30 24.87 22.5 32.23 30 39.59 22.5 46.95 30 54.31 22.5 61.67 30 69.03 22.5 76.39 30 83.75 22.5 91.11 30 98.48 22.5 105.84 30 113.2 22.5 120.56 30 127.92 22.5 135.28 30 142.64 22.5 150 30 157.36 22.5 164.72 30 172.08 22.5 179.44 30 186.8 22.5 194.16 30 201.52 22.5 208.89 30 216.25 22.5 223.61 30 230.97 22.5 238.33 30 245.69 22.5 253.05 30 260.41 22.5 267.77 30 275.13 22.5 282.49 30 289.85 22.5 297.21 30 300 27.16"/><polygon class="cls-3" points="300 42.16 300 49.66 297.21 52.5 289.85 45 282.49 52.5 275.13 45 267.77 52.5 260.41 45 253.05 52.5 245.69 45 238.33 52.5 230.97 45 223.61 52.5 216.25 45 208.89 52.5 201.52 45 194.16 52.5 186.8 45 179.44 52.5 172.08 45 164.72 52.5 157.36 45 150 52.5 142.64 45 135.28 52.5 127.92 45 120.56 52.5 113.2 45 105.84 52.5 98.48 45 91.11 52.5 83.75 45 76.39 52.5 69.03 45 61.67 52.5 54.31 45 46.95 52.5 39.59 45 32.23 52.5 24.87 45 17.51 52.5 10.15 45 2.79 52.5 0 49.66 0 42.16 2.79 45 10.15 37.5 17.51 45 24.87 37.5 32.23 45 39.59 37.5 46.95 45 54.31 37.5 61.67 45 69.03 37.5 76.39 45 83.75 37.5 91.11 45 98.48 37.5 105.84 45 113.2 37.5 120.56 45 127.92 37.5 135.28 45 142.64 37.5 150 45 157.36 37.5 164.72 45 172.08 37.5 179.44 45 186.8 37.5 194.16 45 201.52 37.5 208.89 45 216.25 37.5 223.61 45 230.97 37.5 238.33 45 245.69 37.5 253.05 45 260.41 37.5 267.77 45 275.13 37.5 282.49 45 289.85 37.5 297.21 45 300 42.16"/><polygon class="cls-3" points="300 57.16 300 64.66 297.21 67.5 289.85 60 282.49 67.5 275.13 60 267.77 67.5 260.41 60 253.05 67.5 245.69 60 238.33 67.5 230.97 60 223.61 67.5 216.25 60 208.89 67.5 201.52 60 194.16 67.5 186.8 60 179.44 67.5 172.08 60 164.72 67.5 157.36 60 150 67.5 142.64 60 135.28 67.5 127.92 60 120.56 67.5 113.2 60 105.84 67.5 98.48 60 91.11 67.5 83.75 60 76.39 67.5 69.03 60 61.67 67.5 54.31 60 46.95 67.5 39.59 60 32.23 67.5 24.87 60 17.51 67.5 10.15 60 2.79 67.5 0 64.66 0 57.16 2.79 60 10.15 52.5 17.51 60 24.87 52.5 32.23 60 39.59 52.5 46.95 60 54.31 52.5 61.67 60 69.03 52.5 76.39 60 83.75 52.5 91.11 60 98.48 52.5 105.84 60 113.2 52.5 120.56 60 127.92 52.5 135.28 60 142.64 52.5 150 60 157.36 52.5 164.72 60 172.08 52.5 179.44 60 186.8 52.5 194.16 60 201.52 52.5 208.89 60 216.25 52.5 223.61 60 230.97 52.5 238.33 60 245.69 52.5 253.05 60 260.41 52.5 267.77 60 275.13 52.5 282.49 60 289.85 52.5 297.21 60 300 57.16"/><polygon class="cls-3" points="300 72.16 300 79.66 297.21 82.5 289.85 75 282.49 82.5 275.13 75 267.77 82.5 260.41 75 253.05 82.5 245.69 75 238.33 82.5 230.97 75 223.61 82.5 216.25 75 208.89 82.5 201.52 75 194.16 82.5 186.8 75 179.44 82.5 172.08 75 164.72 82.5 157.36 75 150 82.5 142.64 75 135.28 82.5 131.6 78.75 127.92 75 120.56 82.5 113.2 75 105.84 82.5 98.48 75 91.11 82.5 83.75 75 76.39 82.5 69.03 75 61.67 82.5 54.31 75 46.95 82.5 39.59 75 32.23 82.5 24.87 75 17.51 82.5 10.15 75 2.79 82.5 0 79.66 0 72.16 2.79 75 10.15 67.5 17.51 75 24.87 67.5 32.23 75 39.59 67.5 46.95 75 54.31 67.5 61.67 75 69.03 67.5 76.39 75 83.75 67.5 91.11 75 98.48 67.5 105.84 75 113.2 67.5 120.56 75 127.92 67.5 135.28 75 142.64 67.5 150 75 157.36 67.5 164.72 75 172.08 67.5 179.44 75 186.8 67.5 194.16 75 201.52 67.5 208.89 75 216.25 67.5 223.61 75 230.97 67.5 238.33 75 245.69 67.5 253.05 75 260.41 67.5 267.77 75 275.13 67.5 282.49 75 289.85 67.5 297.21 75 300 72.16"/><polygon class="cls-3" points="300 87.16 300 94.66 297.21 97.5 289.85 90 282.49 97.5 275.13 90 267.77 97.5 260.41 90 253.05 97.5 245.69 90 238.33 97.5 230.97 90 223.61 97.5 216.25 90 208.89 97.5 201.52 90 194.16 97.5 186.8 90 179.44 97.5 172.08 90 164.72 97.5 157.36 90 150 97.5 142.64 90 135.28 97.5 131.6 93.75 127.92 90 120.56 97.5 113.2 90 105.84 97.5 98.48 90 91.11 97.5 83.75 90 76.39 97.5 69.03 90 61.67 97.5 54.31 90 46.95 97.5 39.59 90 32.23 97.5 24.87 90 17.51 97.5 10.15 90 2.79 97.5 0 94.66 0 87.16 2.79 90 10.15 82.5 17.51 90 24.87 82.5 32.23 90 39.59 82.5 46.95 90 54.31 82.5 61.67 90 69.03 82.5 76.39 90 83.75 82.5 91.11 90 98.48 82.5 105.84 90 113.2 82.5 120.56 90 127.92 82.5 135.28 90 142.64 82.5 150 90 157.36 82.5 164.72 90 172.08 82.5 179.44 90 186.8 82.5 194.16 90 201.52 82.5 208.89 90 216.25 82.5 223.61 90 230.97 82.5 238.33 90 245.69 82.5 253.05 90 260.41 82.5 267.77 90 275.13 82.5 282.49 90 289.85 82.5 297.21 90 300 87.16"/><polygon class="cls-3" points="300 102.16 300 109.66 297.21 112.5 289.85 105 282.49 112.5 275.13 105 267.77 112.5 260.41 105 253.05 112.5 245.69 105 238.33 112.5 230.97 105 223.61 112.5 216.25 105 208.89 112.5 201.52 105 194.16 112.5 186.8 105 179.44 112.5 172.08 105 164.72 112.5 157.36 105 150 112.5 142.64 105 135.28 112.5 127.92 105 120.56 112.5 113.2 105 105.84 112.5 98.48 105 91.11 112.5 83.75 105 76.39 112.5 69.03 105 61.67 112.5 54.31 105 46.95 112.5 39.59 105 32.23 112.5 24.87 105 17.51 112.5 10.15 105 2.79 112.5 0 109.66 0 102.16 2.79 105 10.15 97.5 17.51 105 24.87 97.5 32.23 105 39.59 97.5 46.95 105 54.31 97.5 61.67 105 69.03 97.5 76.39 105 83.75 97.5 91.11 105 98.48 97.5 105.84 105 113.2 97.5 120.56 105 127.92 97.5 135.28 105 142.64 97.5 150 105 157.36 97.5 164.72 105 172.08 97.5 179.44 105 186.8 97.5 194.16 105 201.52 97.5 208.89 105 216.25 97.5 223.61 105 230.97 97.5 238.33 105 245.69 97.5 253.05 105 260.41 97.5 267.77 105 275.13 97.5 282.49 105 289.85 97.5 297.21 105 300 102.16"/><polygon class="cls-3" points="300 117.16 300 124.66 297.21 127.5 289.85 120 282.49 127.5 275.13 120 267.77 127.5 260.41 120 253.05 127.5 245.69 120 238.33 127.5 230.97 120 223.61 127.5 216.25 120 208.89 127.5 201.52 120 194.16 127.5 186.8 120 179.44 127.5 172.08 120 164.72 127.5 157.36 120 150 127.5 142.64 120 135.28 127.5 127.92 120 120.56 127.5 113.2 120 105.84 127.5 98.48 120 91.11 127.5 83.75 120 76.39 127.5 69.03 120 61.67 127.5 54.31 120 46.95 127.5 39.59 120 32.23 127.5 24.87 120 17.51 127.5 10.15 120 2.79 127.5 0 124.66 0 117.16 2.79 120 10.15 112.5 17.51 120 24.87 112.5 32.23 120 39.59 112.5 46.95 120 54.31 112.5 61.67 120 69.03 112.5 76.39 120 83.75 112.5 91.11 120 98.48 112.5 105.84 120 113.2 112.5 120.56 120 127.92 112.5 135.28 120 142.64 112.5 150 120 157.36 112.5 164.72 120 172.08 112.5 179.44 120 186.8 112.5 194.16 120 201.52 112.5 208.89 120 216.25 112.5 223.61 120 230.97 112.5 238.33 120 245.69 112.5 253.05 120 260.41 112.5 267.77 120 275.13 112.5 282.49 120 289.85 112.5 297.21 120 300 117.16"/><polygon class="cls-3" points="300 132.16 300 139.66 297.21 142.5 289.85 135 282.49 142.5 275.13 135 267.77 142.5 260.41 135 253.05 142.5 245.69 135 238.33 142.5 230.97 135 223.61 142.5 216.25 135 208.89 142.5 201.52 135 194.16 142.5 186.8 135 179.44 142.5 172.08 135 164.72 142.5 157.36 135 150 142.5 142.64 135 135.28 142.5 131.6 138.75 127.92 135 120.56 142.5 113.2 135 105.84 142.5 98.48 135 91.11 142.5 83.75 135 76.39 142.5 69.03 135 61.67 142.5 54.31 135 46.95 142.5 39.59 135 32.23 142.5 24.87 135 17.51 142.5 10.15 135 2.79 142.5 0 139.66 0 132.16 2.79 135 10.15 127.5 17.51 135 24.87 127.5 32.23 135 39.59 127.5 46.95 135 54.31 127.5 61.67 135 69.03 127.5 76.39 135 83.75 127.5 91.11 135 98.48 127.5 105.84 135 113.2 127.5 120.56 135 127.92 127.5 135.28 135 142.64 127.5 150 135 157.36 127.5 164.72 135 172.08 127.5 179.44 135 186.8 127.5 194.16 135 201.52 127.5 208.89 135 216.25 127.5 223.61 135 230.97 127.5 238.33 135 245.69 127.5 253.05 135 260.41 127.5 267.77 135 275.13 127.5 282.49 135 289.85 127.5 297.21 135 300 132.16"/><polygon class="cls-3" points="300 147.16 300 154.66 297.21 157.5 289.85 150 282.49 157.5 275.13 150 267.77 157.5 260.41 150 253.05 157.5 245.69 150 238.33 157.5 230.97 150 223.61 157.5 216.25 150 208.89 157.5 201.52 150 194.16 157.5 186.8 150 179.44 157.5 172.08 150 164.72 157.5 157.36 150 150 157.5 142.64 150 135.28 157.5 127.92 150 120.56 157.5 113.2 150 105.84 157.5 98.48 150 91.11 157.5 83.75 150 76.39 157.5 69.03 150 61.67 157.5 54.31 150 46.95 157.5 39.59 150 32.23 157.5 24.87 150 17.51 157.5 10.15 150 2.79 157.5 0 154.66 0 147.16 2.79 150 10.15 142.5 17.51 150 24.87 142.5 32.23 150 39.59 142.5 46.95 150 54.31 142.5 61.67 150 69.03 142.5 76.39 150 83.75 142.5 91.11 150 98.48 142.5 105.84 150 113.2 142.5 120.56 150 127.92 142.5 135.28 150 142.64 142.5 150 150 157.36 142.5 164.72 150 172.08 142.5 179.44 150 186.8 142.5 194.16 150 201.52 142.5 208.89 150 216.25 142.5 223.61 150 230.97 142.5 238.33 150 245.69 142.5 253.05 150 260.41 142.5 267.77 150 275.13 142.5 282.49 150 289.85 142.5 297.21 150 300 147.16"/><polygon class="cls-3" points="300 162.16 300 169.66 297.21 172.5 289.85 165 282.49 172.5 275.13 165 267.77 172.5 260.41 165 253.05 172.5 245.69 165 238.33 172.5 230.97 165 223.61 172.5 216.25 165 208.89 172.5 201.52 165 194.16 172.5 186.8 165 179.44 172.5 172.08 165 164.72 172.5 157.36 165 150 172.5 142.64 165 135.28 172.5 127.92 165 120.56 172.5 113.2 165 105.84 172.5 98.48 165 91.11 172.5 83.75 165 76.39 172.5 69.03 165 61.67 172.5 54.31 165 46.95 172.5 39.59 165 32.23 172.5 24.87 165 17.51 172.5 10.15 165 2.79 172.5 0 169.66 0 162.16 2.79 165 10.15 157.5 17.51 165 24.87 157.5 32.23 165 39.59 157.5 46.95 165 54.31 157.5 61.67 165 69.03 157.5 76.39 165 83.75 157.5 91.11 165 98.48 157.5 105.84 165 113.2 157.5 120.56 165 127.92 157.5 135.28 165 142.64 157.5 150 165 157.36 157.5 164.72 165 172.08 157.5 179.44 165 186.8 157.5 194.16 165 201.52 157.5 208.89 165 216.25 157.5 223.61 165 230.97 157.5 238.33 165 245.69 157.5 253.05 165 260.41 157.5 267.77 165 275.13 157.5 282.49 165 289.85 157.5 297.21 165 300 162.16"/><polygon class="cls-3" points="300 177.16 300 184.66 297.21 187.5 289.85 180 282.49 187.5 275.13 180 267.77 187.5 260.41 180 253.05 187.5 245.69 180 238.33 187.5 230.97 180 223.61 187.5 216.25 180 208.89 187.5 201.52 180 194.16 187.5 186.8 180 179.44 187.5 172.08 180 164.72 187.5 157.36 180 150 187.5 142.64 180 135.28 187.5 127.92 180 120.56 187.5 113.2 180 105.84 187.5 98.48 180 91.11 187.5 83.75 180 76.39 187.5 69.03 180 61.67 187.5 54.31 180 46.95 187.5 39.59 180 32.23 187.5 24.87 180 17.51 187.5 10.15 180 2.79 187.5 0 184.66 0 177.16 2.79 180 10.15 172.5 17.51 180 24.87 172.5 32.23 180 39.59 172.5 46.95 180 54.31 172.5 61.67 180 69.03 172.5 76.39 180 83.75 172.5 91.11 180 98.48 172.5 105.84 180 113.2 172.5 120.56 180 127.92 172.5 135.28 180 142.64 172.5 150 180 157.36 172.5 164.72 180 172.08 172.5 179.44 180 186.8 172.5 194.16 180 201.52 172.5 208.89 180 216.25 172.5 223.61 180 230.97 172.5 238.33 180 245.69 172.5 253.05 180 260.41 172.5 267.77 180 275.13 172.5 282.49 180 289.85 172.5 297.21 180 300 177.16"/><polygon class="cls-3" points="300 192.16 300 199.66 297.21 202.5 289.85 195 282.49 202.5 275.13 195 267.77 202.5 260.41 195 253.05 202.5 245.69 195 238.33 202.5 230.97 195 223.61 202.5 216.25 195 208.89 202.5 201.52 195 194.16 202.5 186.8 195 179.44 202.5 172.08 195 164.72 202.5 157.36 195 150 202.5 142.64 195 135.28 202.5 131.6 198.75 127.92 195 120.56 202.5 113.2 195 105.84 202.5 98.48 195 91.11 202.5 83.75 195 76.39 202.5 69.03 195 61.67 202.5 54.31 195 46.95 202.5 39.59 195 32.23 202.5 24.87 195 17.51 202.5 10.15 195 2.79 202.5 0 199.66 0 192.16 2.79 195 10.15 187.5 17.51 195 24.87 187.5 32.23 195 39.59 187.5 46.95 195 54.31 187.5 61.67 195 69.03 187.5 76.39 195 83.75 187.5 91.11 195 98.48 187.5 105.84 195 113.2 187.5 120.56 195 127.92 187.5 135.28 195 142.64 187.5 150 195 157.36 187.5 164.72 195 172.08 187.5 179.44 195 186.8 187.5 194.16 195 201.52 187.5 208.89 195 216.25 187.5 223.61 195 230.97 187.5 238.33 195 245.69 187.5 253.05 195 260.41 187.5 267.77 195 275.13 187.5 282.49 195 289.85 187.5 297.21 195 300 192.16"/><polygon class="cls-3" points="300 207.16 300 214.66 297.21 217.5 289.85 210 282.49 217.5 275.13 210 267.77 217.5 260.41 210 253.05 217.5 245.69 210 238.33 217.5 230.97 210 223.61 217.5 216.25 210 208.89 217.5 201.52 210 194.16 217.5 186.8 210 179.44 217.5 172.08 210 164.72 217.5 157.36 210 150 217.5 142.64 210 135.28 217.5 127.92 210 120.56 217.5 113.2 210 105.84 217.5 98.48 210 91.11 217.5 83.75 210 76.39 217.5 69.03 210 61.67 217.5 54.31 210 46.95 217.5 39.59 210 32.23 217.5 24.87 210 17.51 217.5 10.15 210 2.79 217.5 0 214.66 0 207.16 2.79 210 10.15 202.5 17.51 210 24.87 202.5 32.23 210 39.59 202.5 46.95 210 54.31 202.5 61.67 210 69.03 202.5 76.39 210 83.75 202.5 91.11 210 98.48 202.5 105.84 210 113.2 202.5 120.56 210 127.92 202.5 135.28 210 142.64 202.5 150 210 157.36 202.5 164.72 210 172.08 202.5 179.44 210 186.8 202.5 194.16 210 201.52 202.5 208.89 210 216.25 202.5 223.61 210 230.97 202.5 238.33 210 245.69 202.5 253.05 210 260.41 202.5 267.77 210 275.13 202.5 282.49 210 289.85 202.5 297.21 210 300 207.16"/><polygon class="cls-3" points="300 222.16 300 229.66 297.21 232.5 289.85 225 282.49 232.5 275.13 225 267.77 232.5 260.41 225 253.05 232.5 245.69 225 238.33 232.5 230.97 225 223.61 232.5 216.25 225 208.89 232.5 201.52 225 194.16 232.5 186.8 225 179.44 232.5 172.08 225 164.72 232.5 157.36 225 150 232.5 142.64 225 135.28 232.5 127.92 225 120.56 232.5 113.2 225 105.84 232.5 98.48 225 91.11 232.5 83.75 225 76.39 232.5 69.03 225 61.67 232.5 54.31 225 46.95 232.5 39.59 225 32.23 232.5 24.87 225 17.51 232.5 10.15 225 2.79 232.5 0 229.66 0 222.16 2.79 225 10.15 217.5 17.51 225 24.87 217.5 32.23 225 39.59 217.5 46.95 225 54.31 217.5 61.67 225 69.03 217.5 76.39 225 83.75 217.5 91.11 225 98.48 217.5 105.84 225 113.2 217.5 120.56 225 127.92 217.5 135.28 225 142.64 217.5 150 225 157.36 217.5 164.72 225 172.08 217.5 179.44 225 186.8 217.5 194.16 225 201.52 217.5 208.89 225 216.25 217.5 223.61 225 230.97 217.5 238.33 225 245.69 217.5 253.05 225 260.41 217.5 267.77 225 275.13 217.5 282.49 225 289.85 217.5 297.21 225 300 222.16"/><polygon class="cls-3" points="300 237.16 300 244.66 297.21 247.5 289.85 240 282.49 247.5 275.13 240 267.77 247.5 260.41 240 253.05 247.5 245.69 240 238.33 247.5 230.97 240 223.61 247.5 216.25 240 208.89 247.5 201.52 240 194.16 247.5 186.8 240 179.44 247.5 172.08 240 164.72 247.5 157.36 240 150 247.5 142.64 240 135.28 247.5 131.6 243.75 127.92 240 120.56 247.5 113.2 240 105.84 247.5 98.48 240 91.11 247.5 83.75 240 76.39 247.5 69.03 240 61.67 247.5 54.31 240 46.95 247.5 39.59 240 32.23 247.5 24.87 240 17.51 247.5 10.15 240 2.79 247.5 0 244.66 0 237.16 2.79 240 10.15 232.5 17.51 240 24.87 232.5 32.23 240 39.59 232.5 46.95 240 54.31 232.5 61.67 240 69.03 232.5 76.39 240 83.75 232.5 91.11 240 98.48 232.5 105.84 240 113.2 232.5 120.56 240 127.92 232.5 135.28 240 142.64 232.5 150 240 157.36 232.5 164.72 240 172.08 232.5 179.44 240 186.8 232.5 194.16 240 201.52 232.5 208.89 240 216.25 232.5 223.61 240 230.97 232.5 238.33 240 245.69 232.5 253.05 240 260.41 232.5 267.77 240 275.13 232.5 282.49 240 289.85 232.5 297.21 240 300 237.16"/><polygon class="cls-3" points="300 252.16 300 259.66 297.21 262.5 289.85 255 282.49 262.5 275.13 255 267.77 262.5 260.41 255 253.05 262.5 245.69 255 238.33 262.5 230.97 255 223.61 262.5 216.25 255 208.89 262.5 201.52 255 194.16 262.5 186.8 255 179.44 262.5 172.08 255 164.72 262.5 157.36 255 150 262.5 142.64 255 135.28 262.5 131.6 258.75 127.92 255 120.56 262.5 113.2 255 105.84 262.5 98.48 255 91.11 262.5 83.75 255 76.39 262.5 69.03 255 61.67 262.5 54.31 255 46.95 262.5 39.59 255 32.23 262.5 24.87 255 17.51 262.5 10.15 255 2.79 262.5 0 259.66 0 252.16 2.79 255 10.15 247.5 17.51 255 24.87 247.5 32.23 255 39.59 247.5 46.95 255 54.31 247.5 61.67 255 69.03 247.5 76.39 255 83.75 247.5 91.11 255 98.48 247.5 105.84 255 113.2 247.5 120.56 255 127.92 247.5 135.28 255 142.64 247.5 150 255 157.36 247.5 164.72 255 172.08 247.5 179.44 255 186.8 247.5 194.16 255 201.52 247.5 208.89 255 216.25 247.5 223.61 255 230.97 247.5 238.33 255 245.69 247.5 253.05 255 260.41 247.5 267.77 255 275.13 247.5 282.49 255 289.85 247.5 297.21 255 300 252.16"/><polygon class="cls-3" points="300 267.16 300 274.66 297.21 277.5 289.85 270 282.49 277.5 275.13 270 267.77 277.5 260.41 270 253.05 277.5 245.69 270 238.33 277.5 230.97 270 223.61 277.5 216.25 270 208.89 277.5 201.52 270 194.16 277.5 186.8 270 179.44 277.5 172.08 270 164.72 277.5 157.36 270 150 277.5 142.64 270 135.28 277.5 127.92 270 120.56 277.5 113.2 270 105.84 277.5 98.48 270 91.11 277.5 83.75 270 76.39 277.5 69.03 270 61.67 277.5 54.31 270 46.95 277.5 39.59 270 32.23 277.5 24.87 270 17.51 277.5 10.15 270 2.79 277.5 0 274.66 0 267.16 2.79 270 10.15 262.5 17.51 270 24.87 262.5 32.23 270 39.59 262.5 46.95 270 54.31 262.5 61.67 270 69.03 262.5 76.39 270 83.75 262.5 91.11 270 98.48 262.5 105.84 270 113.2 262.5 120.56 270 127.92 262.5 135.28 270 142.64 262.5 150 270 157.36 262.5 164.72 270 172.08 262.5 179.44 270 186.8 262.5 194.16 270 201.52 262.5 208.89 270 216.25 262.5 223.61 270 230.97 262.5 238.33 270 245.69 262.5 253.05 270 260.41 262.5 267.77 270 275.13 262.5 282.49 270 289.85 262.5 297.21 270 300 267.16"/><polygon class="cls-3" points="300 282.16 300 289.66 297.21 292.5 289.85 285 282.49 292.5 275.13 285 267.77 292.5 260.41 285 253.05 292.5 245.69 285 238.33 292.5 230.97 285 223.61 292.5 216.25 285 208.89 292.5 201.52 285 194.16 292.5 186.8 285 179.44 292.5 172.08 285 164.72 292.5 157.36 285 150 292.5 142.64 285 135.28 292.5 127.92 285 120.56 292.5 113.2 285 105.84 292.5 98.48 285 91.11 292.5 83.75 285 76.39 292.5 69.03 285 61.67 292.5 54.31 285 46.95 292.5 39.59 285 32.23 292.5 24.87 285 17.51 292.5 10.15 285 2.79 292.5 0 289.66 0 282.16 2.79 285 10.15 277.5 17.51 285 24.87 277.5 32.23 285 39.59 277.5 46.95 285 54.31 277.5 61.67 285 69.03 277.5 76.39 285 83.75 277.5 91.11 285 98.48 277.5 105.84 285 113.2 277.5 120.56 285 127.92 277.5 135.28 285 142.64 277.5 150 285 157.36 277.5 164.72 285 172.08 277.5 179.44 285 186.8 277.5 194.16 285 201.52 277.5 208.89 285 216.25 277.5 223.61 285 230.97 277.5 238.33 285 245.69 277.5 253.05 285 260.41 277.5 267.77 285 275.13 277.5 282.49 285 289.85 277.5 297.21 285 300 282.16"/><polygon class="cls-3" points="2.79 600 0 600 0 597.16 2.79 600"/><polygon class="cls-3" points="10.15 592.5 17.51 600 2.79 600 10.15 592.5"/><polygon class="cls-3" points="24.87 592.5 32.23 600 17.51 600 24.87 592.5"/><polygon class="cls-3" points="39.59 592.5 46.95 600 32.23 600 39.59 592.5"/><polygon class="cls-3" points="54.31 592.5 61.67 600 46.95 600 54.31 592.5"/><polygon class="cls-3" points="69.03 592.5 76.39 600 61.67 600 69.03 592.5"/><polygon class="cls-3" points="83.75 592.5 91.11 600 76.39 600 83.75 592.5"/><polygon class="cls-3" points="98.48 592.5 105.84 600 91.11 600 98.48 592.5"/><polygon class="cls-3" points="113.2 592.5 120.56 600 105.84 600 113.2 592.5"/><polygon class="cls-3" points="127.92 592.5 135.28 600 120.56 600 127.92 592.5"/><polygon class="cls-3" points="142.64 592.5 150 600 135.28 600 142.64 592.5"/><polygon class="cls-3" points="157.36 592.5 164.72 600 150 600 157.36 592.5"/><polygon class="cls-3" points="172.08 592.5 179.44 600 164.72 600 172.08 592.5"/><polygon class="cls-3" points="186.8 592.5 194.16 600 179.44 600 186.8 592.5"/><polygon class="cls-3" points="201.52 592.5 208.89 600 194.16 600 201.52 592.5"/><polygon class="cls-3" points="216.25 592.5 223.61 600 208.89 600 216.25 592.5"/><polygon class="cls-3" points="230.97 592.5 238.33 600 223.61 600 230.97 592.5"/><polygon class="cls-3" points="245.69 592.5 253.05 600 238.33 600 245.69 592.5"/><polygon class="cls-3" points="260.41 592.5 267.77 600 253.05 600 260.41 592.5"/><polygon class="cls-3" points="275.13 592.5 282.49 600 267.77 600 275.13 592.5"/><polygon class="cls-3" points="289.85 592.5 297.21 600 282.49 600 289.85 592.5"/><polygon class="cls-3" points="300 597.16 300 600 297.21 600 300 597.16"/><polygon class="cls-3" points="300 312.16 300 319.66 297.21 322.5 289.85 315 282.49 322.5 275.13 315 267.77 322.5 260.41 315 253.05 322.5 245.69 315 238.33 322.5 230.97 315 223.61 322.5 216.25 315 208.89 322.5 201.52 315 194.16 322.5 186.8 315 179.44 322.5 172.08 315 164.72 322.5 157.36 315 150 322.5 142.64 315 135.28 322.5 131.6 318.75 127.92 315 120.56 322.5 113.2 315 105.84 322.5 98.48 315 91.11 322.5 83.75 315 76.39 322.5 69.03 315 61.67 322.5 54.31 315 46.95 322.5 39.59 315 32.23 322.5 24.87 315 17.51 322.5 10.15 315 2.79 322.5 0 319.66 0 312.16 2.79 315 10.15 307.5 17.51 315 24.87 307.5 32.23 315 39.59 307.5 46.95 315 54.31 307.5 61.67 315 69.03 307.5 76.39 315 83.75 307.5 91.11 315 98.48 307.5 105.84 315 113.2 307.5 120.56 315 127.92 307.5 135.28 315 142.64 307.5 150 315 157.36 307.5 164.72 315 172.08 307.5 179.44 315 186.8 307.5 194.16 315 201.52 307.5 208.89 315 216.25 307.5 223.61 315 230.97 307.5 238.33 315 245.69 307.5 253.05 315 260.41 307.5 267.77 315 275.13 307.5 282.49 315 289.85 307.5 297.21 315 300 312.16"/><polygon class="cls-3" points="300 327.16 300 334.66 297.21 337.5 289.85 330 282.49 337.5 275.13 330 267.77 337.5 260.41 330 253.05 337.5 245.69 330 238.33 337.5 230.97 330 223.61 337.5 216.25 330 208.89 337.5 201.52 330 194.16 337.5 186.8 330 179.44 337.5 172.08 330 164.72 337.5 157.36 330 150 337.5 142.64 330 135.28 337.5 131.6 333.75 127.92 330 120.56 337.5 113.2 330 105.84 337.5 98.48 330 91.11 337.5 83.75 330 76.39 337.5 69.03 330 61.67 337.5 54.31 330 46.95 337.5 39.59 330 32.23 337.5 24.87 330 17.51 337.5 10.15 330 2.79 337.5 0 334.66 0 327.16 2.79 330 10.15 322.5 17.51 330 24.87 322.5 32.23 330 39.59 322.5 46.95 330 54.31 322.5 61.67 330 69.03 322.5 76.39 330 83.75 322.5 91.11 330 98.48 322.5 105.84 330 113.2 322.5 120.56 330 127.92 322.5 135.28 330 142.64 322.5 150 330 157.36 322.5 164.72 330 172.08 322.5 179.44 330 186.8 322.5 194.16 330 201.52 322.5 208.89 330 216.25 322.5 223.61 330 230.97 322.5 238.33 330 245.69 322.5 253.05 330 260.41 322.5 267.77 330 275.13 322.5 282.49 330 289.85 322.5 297.21 330 300 327.16"/><polygon class="cls-3" points="300 342.16 300 349.66 297.21 352.5 289.85 345 282.49 352.5 275.13 345 267.77 352.5 260.41 345 253.05 352.5 245.69 345 238.33 352.5 230.97 345 223.61 352.5 216.25 345 208.89 352.5 201.52 345 194.16 352.5 186.8 345 179.44 352.5 172.08 345 164.72 352.5 157.36 345 150 352.5 142.64 345 135.28 352.5 127.92 345 120.56 352.5 113.2 345 105.84 352.5 98.48 345 91.11 352.5 83.75 345 76.39 352.5 69.03 345 61.67 352.5 54.31 345 46.95 352.5 39.59 345 32.23 352.5 24.87 345 17.51 352.5 10.15 345 2.79 352.5 0 349.66 0 342.16 2.79 345 10.15 337.5 17.51 345 24.87 337.5 32.23 345 39.59 337.5 46.95 345 54.31 337.5 61.67 345 69.03 337.5 76.39 345 83.75 337.5 91.11 345 98.48 337.5 105.84 345 113.2 337.5 120.56 345 127.92 337.5 135.28 345 142.64 337.5 150 345 157.36 337.5 164.72 345 172.08 337.5 179.44 345 186.8 337.5 194.16 345 201.52 337.5 208.89 345 216.25 337.5 223.61 345 230.97 337.5 238.33 345 245.69 337.5 253.05 345 260.41 337.5 267.77 345 275.13 337.5 282.49 345 289.85 337.5 297.21 345 300 342.16"/><polygon class="cls-3" points="300 357.16 300 364.66 297.21 367.5 289.85 360 282.49 367.5 275.13 360 267.77 367.5 260.41 360 253.05 367.5 245.69 360 238.33 367.5 230.97 360 223.61 367.5 216.25 360 208.89 367.5 201.52 360 194.16 367.5 186.8 360 179.44 367.5 172.08 360 164.72 367.5 157.36 360 150 367.5 142.64 360 135.28 367.5 127.92 360 120.56 367.5 113.2 360 105.84 367.5 98.48 360 91.11 367.5 83.75 360 76.39 367.5 69.03 360 61.67 367.5 54.31 360 46.95 367.5 39.59 360 32.23 367.5 24.87 360 17.51 367.5 10.15 360 2.79 367.5 0 364.66 0 357.16 2.79 360 10.15 352.5 17.51 360 24.87 352.5 32.23 360 39.59 352.5 46.95 360 54.31 352.5 61.67 360 69.03 352.5 76.39 360 83.75 352.5 91.11 360 98.48 352.5 105.84 360 113.2 352.5 120.56 360 127.92 352.5 135.28 360 142.64 352.5 150 360 157.36 352.5 164.72 360 172.08 352.5 179.44 360 186.8 352.5 194.16 360 201.52 352.5 208.89 360 216.25 352.5 223.61 360 230.97 352.5 238.33 360 245.69 352.5 253.05 360 260.41 352.5 267.77 360 275.13 352.5 282.49 360 289.85 352.5 297.21 360 300 357.16"/><polygon class="cls-3" points="300 372.16 300 379.66 297.21 382.5 289.85 375 282.49 382.5 275.13 375 267.77 382.5 260.41 375 253.05 382.5 245.69 375 238.33 382.5 230.97 375 223.61 382.5 216.25 375 208.89 382.5 201.52 375 194.16 382.5 186.8 375 179.44 382.5 172.08 375 164.72 382.5 157.36 375 150 382.5 142.64 375 135.28 382.5 131.6 378.75 127.92 375 120.56 382.5 113.2 375 105.84 382.5 98.48 375 91.11 382.5 83.75 375 76.39 382.5 69.03 375 61.67 382.5 54.31 375 46.95 382.5 39.59 375 32.23 382.5 24.87 375 17.51 382.5 10.15 375 2.79 382.5 0 379.66 0 372.16 2.79 375 10.15 367.5 17.51 375 24.87 367.5 32.23 375 39.59 367.5 46.95 375 54.31 367.5 61.67 375 69.03 367.5 76.39 375 83.75 367.5 91.11 375 98.48 367.5 105.84 375 113.2 367.5 120.56 375 127.92 367.5 135.28 375 142.64 367.5 150 375 157.36 367.5 164.72 375 172.08 367.5 179.44 375 186.8 367.5 194.16 375 201.52 367.5 208.89 375 216.25 367.5 223.61 375 230.97 367.5 238.33 375 245.69 367.5 253.05 375 260.41 367.5 267.77 375 275.13 367.5 282.49 375 289.85 367.5 297.21 375 300 372.16"/><polygon class="cls-3" points="300 387.16 300 394.66 297.21 397.5 289.85 390 282.49 397.5 275.13 390 267.77 397.5 260.41 390 253.05 397.5 245.69 390 238.33 397.5 230.97 390 223.61 397.5 216.25 390 208.89 397.5 201.52 390 194.16 397.5 186.8 390 179.44 397.5 172.08 390 164.72 397.5 157.36 390 150 397.5 142.64 390 135.28 397.5 131.6 393.75 127.92 390 120.56 397.5 113.2 390 105.84 397.5 98.48 390 91.11 397.5 83.75 390 76.39 397.5 69.03 390 61.67 397.5 54.31 390 46.95 397.5 39.59 390 32.23 397.5 24.87 390 17.51 397.5 10.15 390 2.79 397.5 0 394.66 0 387.16 2.79 390 10.15 382.5 17.51 390 24.87 382.5 32.23 390 39.59 382.5 46.95 390 54.31 382.5 61.67 390 69.03 382.5 76.39 390 83.75 382.5 91.11 390 98.48 382.5 105.84 390 113.2 382.5 120.56 390 127.92 382.5 135.28 390 142.64 382.5 150 390 157.36 382.5 164.72 390 172.08 382.5 179.44 390 186.8 382.5 194.16 390 201.52 382.5 208.89 390 216.25 382.5 223.61 390 230.97 382.5 238.33 390 245.69 382.5 253.05 390 260.41 382.5 267.77 390 275.13 382.5 282.49 390 289.85 382.5 297.21 390 300 387.16"/><polygon class="cls-3" points="300 402.16 300 409.66 297.21 412.5 289.85 405 282.49 412.5 275.13 405 267.77 412.5 260.41 405 253.05 412.5 245.69 405 238.33 412.5 230.97 405 223.61 412.5 216.25 405 208.89 412.5 201.52 405 194.16 412.5 186.8 405 179.44 412.5 172.08 405 164.72 412.5 157.36 405 150 412.5 142.64 405 135.28 412.5 127.92 405 120.56 412.5 113.2 405 105.84 412.5 98.48 405 91.11 412.5 83.75 405 76.39 412.5 69.03 405 61.67 412.5 54.31 405 46.95 412.5 39.59 405 32.23 412.5 24.87 405 17.51 412.5 10.15 405 2.79 412.5 0 409.66 0 402.16 2.79 405 10.15 397.5 17.51 405 24.87 397.5 32.23 405 39.59 397.5 46.95 405 54.31 397.5 61.67 405 69.03 397.5 76.39 405 83.75 397.5 91.11 405 98.48 397.5 105.84 405 113.2 397.5 120.56 405 127.92 397.5 135.28 405 142.64 397.5 150 405 157.36 397.5 164.72 405 172.08 397.5 179.44 405 186.8 397.5 194.16 405 201.52 397.5 208.89 405 216.25 397.5 223.61 405 230.97 397.5 238.33 405 245.69 397.5 253.05 405 260.41 397.5 267.77 405 275.13 397.5 282.49 405 289.85 397.5 297.21 405 300 402.16"/><polygon class="cls-3" points="300 417.16 300 424.66 297.21 427.5 289.85 420 282.49 427.5 275.13 420 267.77 427.5 260.41 420 253.05 427.5 245.69 420 238.33 427.5 230.97 420 223.61 427.5 216.25 420 208.89 427.5 201.52 420 194.16 427.5 186.8 420 179.44 427.5 172.08 420 164.72 427.5 157.36 420 150 427.5 142.64 420 135.28 427.5 127.92 420 120.56 427.5 113.2 420 105.84 427.5 98.48 420 91.11 427.5 83.75 420 76.39 427.5 69.03 420 61.67 427.5 54.31 420 46.95 427.5 39.59 420 32.23 427.5 24.87 420 17.51 427.5 10.15 420 2.79 427.5 0 424.66 0 417.16 2.79 420 10.15 412.5 17.51 420 24.87 412.5 32.23 420 39.59 412.5 46.95 420 54.31 412.5 61.67 420 69.03 412.5 76.39 420 83.75 412.5 91.11 420 98.48 412.5 105.84 420 113.2 412.5 120.56 420 127.92 412.5 135.28 420 142.64 412.5 150 420 157.36 412.5 164.72 420 172.08 412.5 179.44 420 186.8 412.5 194.16 420 201.52 412.5 208.89 420 216.25 412.5 223.61 420 230.97 412.5 238.33 420 245.69 412.5 253.05 420 260.41 412.5 267.77 420 275.13 412.5 282.49 420 289.85 412.5 297.21 420 300 417.16"/><polygon class="cls-3" points="300 432.16 300 439.66 297.21 442.5 289.85 435 282.49 442.5 275.13 435 267.77 442.5 260.41 435 253.05 442.5 245.69 435 238.33 442.5 230.97 435 223.61 442.5 216.25 435 208.89 442.5 201.52 435 194.16 442.5 186.8 435 179.44 442.5 172.08 435 164.72 442.5 157.36 435 150 442.5 142.64 435 135.28 442.5 131.6 438.75 127.92 435 120.56 442.5 113.2 435 105.84 442.5 98.48 435 91.11 442.5 83.75 435 76.39 442.5 69.03 435 61.67 442.5 54.31 435 46.95 442.5 39.59 435 32.23 442.5 24.87 435 17.51 442.5 10.15 435 2.79 442.5 0 439.66 0 432.16 2.79 435 10.15 427.5 17.51 435 24.87 427.5 32.23 435 39.59 427.5 46.95 435 54.31 427.5 61.67 435 69.03 427.5 76.39 435 83.75 427.5 91.11 435 98.48 427.5 105.84 435 113.2 427.5 120.56 435 127.92 427.5 135.28 435 142.64 427.5 150 435 157.36 427.5 164.72 435 172.08 427.5 179.44 435 186.8 427.5 194.16 435 201.52 427.5 208.89 435 216.25 427.5 223.61 435 230.97 427.5 238.33 435 245.69 427.5 253.05 435 260.41 427.5 267.77 435 275.13 427.5 282.49 435 289.85 427.5 297.21 435 300 432.16"/><polygon class="cls-3" points="300 447.16 300 454.66 297.21 457.5 289.85 450 282.49 457.5 275.13 450 267.77 457.5 260.41 450 253.05 457.5 245.69 450 238.33 457.5 230.97 450 223.61 457.5 216.25 450 208.89 457.5 201.52 450 194.16 457.5 186.8 450 179.44 457.5 172.08 450 164.72 457.5 157.36 450 150 457.5 142.64 450 135.28 457.5 127.92 450 120.56 457.5 113.2 450 105.84 457.5 98.48 450 91.11 457.5 83.75 450 76.39 457.5 69.03 450 61.67 457.5 54.31 450 46.95 457.5 39.59 450 32.23 457.5 24.87 450 17.51 457.5 10.15 450 2.79 457.5 0 454.66 0 447.16 2.79 450 10.15 442.5 17.51 450 24.87 442.5 32.23 450 39.59 442.5 46.95 450 54.31 442.5 61.67 450 69.03 442.5 76.39 450 83.75 442.5 91.11 450 98.48 442.5 105.84 450 113.2 442.5 120.56 450 127.92 442.5 135.28 450 142.64 442.5 150 450 157.36 442.5 164.72 450 172.08 442.5 179.44 450 186.8 442.5 194.16 450 201.52 442.5 208.89 450 216.25 442.5 223.61 450 230.97 442.5 238.33 450 245.69 442.5 253.05 450 260.41 442.5 267.77 450 275.13 442.5 282.49 450 289.85 442.5 297.21 450 300 447.16"/><polygon class="cls-3" points="300 462.16 300 469.66 297.21 472.5 289.85 465 282.49 472.5 275.13 465 267.77 472.5 260.41 465 253.05 472.5 245.69 465 238.33 472.5 230.97 465 223.61 472.5 216.25 465 208.89 472.5 201.52 465 194.16 472.5 186.8 465 179.44 472.5 172.08 465 164.72 472.5 157.36 465 150 472.5 142.64 465 135.28 472.5 127.92 465 120.56 472.5 113.2 465 105.84 472.5 98.48 465 91.11 472.5 83.75 465 76.39 472.5 69.03 465 61.67 472.5 54.31 465 46.95 472.5 39.59 465 32.23 472.5 24.87 465 17.51 472.5 10.15 465 2.79 472.5 0 469.66 0 462.16 2.79 465 10.15 457.5 17.51 465 24.87 457.5 32.23 465 39.59 457.5 46.95 465 54.31 457.5 61.67 465 69.03 457.5 76.39 465 83.75 457.5 91.11 465 98.48 457.5 105.84 465 113.2 457.5 120.56 465 127.92 457.5 135.28 465 142.64 457.5 150 465 157.36 457.5 164.72 465 172.08 457.5 179.44 465 186.8 457.5 194.16 465 201.52 457.5 208.89 465 216.25 457.5 223.61 465 230.97 457.5 238.33 465 245.69 457.5 253.05 465 260.41 457.5 267.77 465 275.13 457.5 282.49 465 289.85 457.5 297.21 465 300 462.16"/><polygon class="cls-3" points="300 477.16 300 484.66 297.21 487.5 289.85 480 282.49 487.5 275.13 480 267.77 487.5 260.41 480 253.05 487.5 245.69 480 238.33 487.5 230.97 480 223.61 487.5 216.25 480 208.89 487.5 201.52 480 194.16 487.5 186.8 480 179.44 487.5 172.08 480 164.72 487.5 157.36 480 150 487.5 142.64 480 135.28 487.5 127.92 480 120.56 487.5 113.2 480 105.84 487.5 98.48 480 91.11 487.5 83.75 480 76.39 487.5 69.03 480 61.67 487.5 54.31 480 46.95 487.5 39.59 480 32.23 487.5 24.87 480 17.51 487.5 10.15 480 2.79 487.5 0 484.66 0 477.16 2.79 480 10.15 472.5 17.51 480 24.87 472.5 32.23 480 39.59 472.5 46.95 480 54.31 472.5 61.67 480 69.03 472.5 76.39 480 83.75 472.5 91.11 480 98.48 472.5 105.84 480 113.2 472.5 120.56 480 127.92 472.5 135.28 480 142.64 472.5 150 480 157.36 472.5 164.72 480 172.08 472.5 179.44 480 186.8 472.5 194.16 480 201.52 472.5 208.89 480 216.25 472.5 223.61 480 230.97 472.5 238.33 480 245.69 472.5 253.05 480 260.41 472.5 267.77 480 275.13 472.5 282.49 480 289.85 472.5 297.21 480 300 477.16"/><polygon class="cls-3" points="300 492.16 300 499.66 297.21 502.5 289.85 495 282.49 502.5 275.13 495 267.77 502.5 260.41 495 253.05 502.5 245.69 495 238.33 502.5 230.97 495 223.61 502.5 216.25 495 208.89 502.5 201.52 495 194.16 502.5 186.8 495 179.44 502.5 172.08 495 164.72 502.5 157.36 495 150 502.5 142.64 495 135.28 502.5 131.6 498.75 127.92 495 120.56 502.5 113.2 495 105.84 502.5 98.48 495 91.11 502.5 83.75 495 76.39 502.5 69.03 495 61.67 502.5 54.31 495 46.95 502.5 39.59 495 32.23 502.5 24.87 495 17.51 502.5 10.15 495 2.79 502.5 0 499.66 0 492.16 2.79 495 10.15 487.5 17.51 495 24.87 487.5 32.23 495 39.59 487.5 46.95 495 54.31 487.5 61.67 495 69.03 487.5 76.39 495 83.75 487.5 91.11 495 98.48 487.5 105.84 495 113.2 487.5 120.56 495 127.92 487.5 135.28 495 142.64 487.5 150 495 157.36 487.5 164.72 495 172.08 487.5 179.44 495 186.8 487.5 194.16 495 201.52 487.5 208.89 495 216.25 487.5 223.61 495 230.97 487.5 238.33 495 245.69 487.5 253.05 495 260.41 487.5 267.77 495 275.13 487.5 282.49 495 289.85 487.5 297.21 495 300 492.16"/><polygon class="cls-3" points="300 507.16 300 514.66 297.21 517.5 289.85 510 282.49 517.5 275.13 510 267.77 517.5 260.41 510 253.05 517.5 245.69 510 238.33 517.5 230.97 510 223.61 517.5 216.25 510 208.89 517.5 201.52 510 194.16 517.5 186.8 510 179.44 517.5 172.08 510 164.72 517.5 157.36 510 150 517.5 142.64 510 135.28 517.5 127.92 510 120.56 517.5 113.2 510 105.84 517.5 98.48 510 91.11 517.5 83.75 510 76.39 517.5 69.03 510 61.67 517.5 54.31 510 46.95 517.5 39.59 510 32.23 517.5 24.87 510 17.51 517.5 10.15 510 2.79 517.5 0 514.66 0 507.16 2.79 510 10.15 502.5 17.51 510 24.87 502.5 32.23 510 39.59 502.5 46.95 510 54.31 502.5 61.67 510 69.03 502.5 76.39 510 83.75 502.5 91.11 510 98.48 502.5 105.84 510 113.2 502.5 120.56 510 127.92 502.5 135.28 510 142.64 502.5 150 510 157.36 502.5 164.72 510 172.08 502.5 179.44 510 186.8 502.5 194.16 510 201.52 502.5 208.89 510 216.25 502.5 223.61 510 230.97 502.5 238.33 510 245.69 502.5 253.05 510 260.41 502.5 267.77 510 275.13 502.5 282.49 510 289.85 502.5 297.21 510 300 507.16"/><polygon class="cls-3" points="300 522.16 300 529.66 297.21 532.5 289.85 525 282.49 532.5 275.13 525 267.77 532.5 260.41 525 253.05 532.5 245.69 525 238.33 532.5 230.97 525 223.61 532.5 216.25 525 208.89 532.5 201.52 525 194.16 532.5 186.8 525 179.44 532.5 172.08 525 164.72 532.5 157.36 525 150 532.5 142.64 525 135.28 532.5 127.92 525 120.56 532.5 113.2 525 105.84 532.5 98.48 525 91.11 532.5 83.75 525 76.39 532.5 69.03 525 61.67 532.5 54.31 525 46.95 532.5 39.59 525 32.23 532.5 24.87 525 17.51 532.5 10.15 525 2.79 532.5 0 529.66 0 522.16 2.79 525 10.15 517.5 17.51 525 24.87 517.5 32.23 525 39.59 517.5 46.95 525 54.31 517.5 61.67 525 69.03 517.5 76.39 525 83.75 517.5 91.11 525 98.48 517.5 105.84 525 113.2 517.5 120.56 525 127.92 517.5 135.28 525 142.64 517.5 150 525 157.36 517.5 164.72 525 172.08 517.5 179.44 525 186.8 517.5 194.16 525 201.52 517.5 208.89 525 216.25 517.5 223.61 525 230.97 517.5 238.33 525 245.69 517.5 253.05 525 260.41 517.5 267.77 525 275.13 517.5 282.49 525 289.85 517.5 297.21 525 300 522.16"/><polygon class="cls-3" points="300 537.16 300 544.66 297.21 547.5 289.85 540 282.49 547.5 275.13 540 267.77 547.5 260.41 540 253.05 547.5 245.69 540 238.33 547.5 230.97 540 223.61 547.5 216.25 540 208.89 547.5 201.52 540 194.16 547.5 186.8 540 179.44 547.5 172.08 540 164.72 547.5 157.36 540 150 547.5 142.64 540 135.28 547.5 131.6 543.75 127.92 540 120.56 547.5 113.2 540 105.84 547.5 98.48 540 91.11 547.5 83.75 540 76.39 547.5 69.03 540 61.67 547.5 54.31 540 46.95 547.5 39.59 540 32.23 547.5 24.87 540 17.51 547.5 10.15 540 2.79 547.5 0 544.66 0 537.16 2.79 540 10.15 532.5 17.51 540 24.87 532.5 32.23 540 39.59 532.5 46.95 540 54.31 532.5 61.67 540 69.03 532.5 76.39 540 83.75 532.5 91.11 540 98.48 532.5 105.84 540 113.2 532.5 120.56 540 127.92 532.5 135.28 540 142.64 532.5 150 540 157.36 532.5 164.72 540 172.08 532.5 179.44 540 186.8 532.5 194.16 540 201.52 532.5 208.89 540 216.25 532.5 223.61 540 230.97 532.5 238.33 540 245.69 532.5 253.05 540 260.41 532.5 267.77 540 275.13 532.5 282.49 540 289.85 532.5 297.21 540 300 537.16"/><polygon class="cls-3" points="300 552.16 300 559.66 297.21 562.5 289.85 555 282.49 562.5 275.13 555 267.77 562.5 260.41 555 253.05 562.5 245.69 555 238.33 562.5 230.97 555 223.61 562.5 216.25 555 208.89 562.5 201.52 555 194.16 562.5 186.8 555 179.44 562.5 172.08 555 164.72 562.5 157.36 555 150 562.5 142.64 555 135.28 562.5 131.6 558.75 127.92 555 120.56 562.5 113.2 555 105.84 562.5 98.48 555 91.11 562.5 83.75 555 76.39 562.5 69.03 555 61.67 562.5 54.31 555 46.95 562.5 39.59 555 32.23 562.5 24.87 555 17.51 562.5 10.15 555 2.79 562.5 0 559.66 0 552.16 2.79 555 10.15 547.5 17.51 555 24.87 547.5 32.23 555 39.59 547.5 46.95 555 54.31 547.5 61.67 555 69.03 547.5 76.39 555 83.75 547.5 91.11 555 98.48 547.5 105.84 555 113.2 547.5 120.56 555 127.92 547.5 135.28 555 142.64 547.5 150 555 157.36 547.5 164.72 555 172.08 547.5 179.44 555 186.8 547.5 194.16 555 201.52 547.5 208.89 555 216.25 547.5 223.61 555 230.97 547.5 238.33 555 245.69 547.5 253.05 555 260.41 547.5 267.77 555 275.13 547.5 282.49 555 289.85 547.5 297.21 555 300 552.16"/><polygon class="cls-3" points="300 567.16 300 574.66 297.21 577.5 289.85 570 282.49 577.5 275.13 570 267.77 577.5 260.41 570 253.05 577.5 245.69 570 238.33 577.5 230.97 570 223.61 577.5 216.25 570 208.89 577.5 201.52 570 194.16 577.5 186.8 570 179.44 577.5 172.08 570 164.72 577.5 157.36 570 150 577.5 142.64 570 135.28 577.5 127.92 570 120.56 577.5 113.2 570 105.84 577.5 98.48 570 91.11 577.5 83.75 570 76.39 577.5 69.03 570 61.67 577.5 54.31 570 46.95 577.5 39.59 570 32.23 577.5 24.87 570 17.51 577.5 10.15 570 2.79 577.5 0 574.66 0 567.16 2.79 570 10.15 562.5 17.51 570 24.87 562.5 32.23 570 39.59 562.5 46.95 570 54.31 562.5 61.67 570 69.03 562.5 76.39 570 83.75 562.5 91.11 570 98.48 562.5 105.84 570 113.2 562.5 120.56 570 127.92 562.5 135.28 570 142.64 562.5 150 570 157.36 562.5 164.72 570 172.08 562.5 179.44 570 186.8 562.5 194.16 570 201.52 562.5 208.89 570 216.25 562.5 223.61 570 230.97 562.5 238.33 570 245.69 562.5 253.05 570 260.41 562.5 267.77 570 275.13 562.5 282.49 570 289.85 562.5 297.21 570 300 567.16"/><polygon class="cls-3" points="300 582.16 300 589.66 297.21 592.5 289.85 585 282.49 592.5 275.13 585 267.77 592.5 260.41 585 253.05 592.5 245.69 585 238.33 592.5 230.97 585 223.61 592.5 216.25 585 208.89 592.5 201.52 585 194.16 592.5 186.8 585 179.44 592.5 172.08 585 164.72 592.5 157.36 585 150 592.5 142.64 585 135.28 592.5 127.92 585 120.56 592.5 113.2 585 105.84 592.5 98.48 585 91.11 592.5 83.75 585 76.39 592.5 69.03 585 61.67 592.5 54.31 585 46.95 592.5 39.59 585 32.23 592.5 24.87 585 17.51 592.5 10.15 585 2.79 592.5 0 589.66 0 582.16 2.79 585 10.15 577.5 17.51 585 24.87 577.5 32.23 585 39.59 577.5 46.95 585 54.31 577.5 61.67 585 69.03 577.5 76.39 585 83.75 577.5 91.11 585 98.48 577.5 105.84 585 113.2 577.5 120.56 585 127.92 577.5 135.28 585 142.64 577.5 150 585 157.36 577.5 164.72 585 172.08 577.5 179.44 585 186.8 577.5 194.16 585 201.52 577.5 208.89 585 216.25 577.5 223.61 585 230.97 577.5 238.33 585 245.69 577.5 253.05 585 260.41 577.5 267.77 585 275.13 577.5 282.49 585 289.85 577.5 297.21 585 300 582.16"/></g><path class="cls-4" d="M58.66,225.16l-8.77,8.77a.81.81,0,0,1-.65.24v5.63a.78.78,0,0,0,.45-.23l8.88-8.86a.83.83,0,0,1,.63-.24v-5.55a.81.81,0,0,0-.54.24"/><path class="cls-4" d="M70.76,238.1H58.35a.83.83,0,0,1-.62-.29l-4.14,3.83a.81.81,0,0,0,.64.31H66.77a.86.86,0,0,1,.6.25l4-3.86a.79.79,0,0,0-.58-.24"/><path class="cls-4" d="M70.18,255.8,61.4,247a.8.8,0,0,1-.22-.76H55.52a.82.82,0,0,0,.24.58l8.87,8.87a.82.82,0,0,1,.24.58H70.4a.79.79,0,0,0-.22-.49"/><path class="cls-4" d="M53.39,251.37v12.54a.79.79,0,0,1-.28.61L57,268.45a.84.84,0,0,0,.21-.55V255.5a.81.81,0,0,1,.2-.53l-3.81-4.18a.81.81,0,0,0-.24.58"/><path class="cls-4" d="M48.5,252.9l-8.87,8.87a.81.81,0,0,1-.54.24v5.53a.83.83,0,0,0,.45-.22l8.78-8.78a.81.81,0,0,1,.6-.24v-5.62a.82.82,0,0,0-.42.22"/><path class="cls-4" d="M44,250.53H31.42a.82.82,0,0,1-.61-.28l-3.93,3.92a.87.87,0,0,0,.56.22h12.4a.83.83,0,0,1,.59.24l4.08-3.89a.79.79,0,0,0-.54-.21"/><path class="cls-4" d="M42.67,246.17a.8.8,0,0,0-.23-.52l-8.87-8.88a.81.81,0,0,1-.19-.87H27.81a.81.81,0,0,0,.22.78l8.77,8.77a.8.8,0,0,1,.22.72h5.65"/><path class="cls-4" d="M44.81,241.11V228.56a.81.81,0,0,1,.3-.62L41.18,224a.83.83,0,0,0-.22.57V237a.84.84,0,0,1-.22.55l3.86,4.11a.81.81,0,0,0,.21-.54"/><path class="cls-5" d="M48.72,233.93l-1.51-1.49c-.32-.32-.58-.21-.58.24v4.17a2.28,2.28,0,0,0,.58,1.41l1.32,1.31a.8.8,0,0,0,.71.23v-5.63a.79.79,0,0,1-.52-.24"/><path class="cls-5" d="M57.53,237.27v-2.13c0-.46-.26-.56-.58-.24l-3,3a2.3,2.3,0,0,0-.59,1.41v1.85a.79.79,0,0,0,.19.52l4.14-3.83a.83.83,0,0,1-.2-.54"/><path class="cls-5" d="M61.4,245.86l1.51-1.51c.32-.32.21-.58-.24-.58H58.48a2.31,2.31,0,0,0-1.41.58l-1.31,1.32a.76.76,0,0,0-.24.59h5.66a.73.73,0,0,1,.22-.4"/><path class="cls-5" d="M60.43,254.09l-3-3a2.3,2.3,0,0,0-1.41-.59H54.21a.83.83,0,0,0-.58.25L57.44,255a.83.83,0,0,1,.63-.3h2.12c.45,0,.56-.26.24-.58"/><path class="cls-5" d="M51,254.21l-1.31-1.31a.84.84,0,0,0-.75-.22v5.62a.84.84,0,0,1,.56.24L51,260c.32.33.58.22.58-.24v-4.18a2.26,2.26,0,0,0-.59-1.41"/><path class="cls-5" d="M44.51,250.74l-4.08,3.89a.83.83,0,0,1,.24.58v2.12c0,.45.26.56.58.24l3-2.95a2.32,2.32,0,0,0,.59-1.41v-1.85a.8.8,0,0,0-.29-.62"/><path class="cls-5" d="M37,246.17a.83.83,0,0,1-.22.45l-1.51,1.5c-.32.32-.21.59.24.59h4.19a2.32,2.32,0,0,0,1.41-.59l1.31-1.3a.85.85,0,0,0,.23-.65H37"/><path class="cls-5" d="M40.74,237.54a.85.85,0,0,1-.61.27H38c-.45,0-.56.26-.24.58l3,3a2.28,2.28,0,0,0,1.41.58H44a.82.82,0,0,0,.61-.28l-3.86-4.11"/><path class="cls-6" d="M69.36,234.7l-9.54-9.54a.81.81,0,0,0-.62-.24v5.55a.86.86,0,0,1,.54.24l4,4a2.31,2.31,0,0,0,1.41.58h4c.45,0,.56-.26.24-.58"/><path class="cls-6" d="M71.34,238.34l-4,3.86a.84.84,0,0,1,.23.58v5.65a2.24,2.24,0,0,0,.59,1.4l2.8,2.7c.33.32.6.2.6-.25V238.93a.84.84,0,0,0-.25-.59"/><path class="cls-6" d="M64.87,256.29a.8.8,0,0,1-.24.58l-4,4a2.34,2.34,0,0,0-.59,1.41v4c0,.45.26.56.58.24L70.18,257a.82.82,0,0,0,.22-.68H64.87"/><path class="cls-6" d="M52.56,264.74H46.91a2.24,2.24,0,0,0-1.4.59l-2.7,2.8c-.32.33-.21.6.25.6H56.41a.82.82,0,0,0,.62-.28l-3.92-3.93a.8.8,0,0,1-.55.22"/><path class="cls-6" d="M38.46,261.77l-4-4a2.35,2.35,0,0,0-1.41-.59l-4,0c-.45,0-.56.26-.24.58l9.59,9.58a.79.79,0,0,0,.71.22V262a.81.81,0,0,1-.63-.24"/><path class="cls-6" d="M30.6,249.71v-5.66a2.22,2.22,0,0,0-.6-1.4L27.2,240c-.32-.32-.59-.21-.59.25v13.36a.83.83,0,0,0,.27.61l3.93-3.92a.79.79,0,0,1-.21-.54"/><path class="cls-6" d="M33.57,235.6l4-4a2.27,2.27,0,0,0,.57-1.4l-.07-3.9c0-.46-.28-.57-.6-.25L28,235.51a.77.77,0,0,0-.22.39h5.57a.89.89,0,0,1,.19-.3"/><path class="cls-6" d="M55.14,223.75H41.78a.83.83,0,0,0-.6.26l3.93,3.93a.84.84,0,0,1,.52-.2h5.66a2.24,2.24,0,0,0,1.39-.59l2.71-2.81c.32-.32.21-.59-.25-.59"/><path class="cls-6" d="M69.63,264.86a1.94,1.94,0,1,1,0,3.87,1.94,1.94,0,1,1,0-3.87h0m0,.44A1.49,1.49,0,1,0,71,266.79a1.44,1.44,0,0,0-1.45-1.49Zm-.25,2.45h-.51V265.9a4,4,0,0,1,.76-.07,1.1,1.1,0,0,1,.69.15.44.44,0,0,1,.2.39.51.51,0,0,1-.4.43v0a.58.58,0,0,1,.35.47,2.19,2.19,0,0,0,.13.45H70a1.42,1.42,0,0,1-.14-.43.29.29,0,0,0-.34-.27h-.19Zm0-1.06h.19c.22,0,.38-.08.38-.25s-.11-.26-.36-.26l-.21,0Z"/><path class="cls-3" d="M92.28,252.4c-4.51,0-7.18-2.84-7.18-7.36,0-5,3.15-7.49,7.15-7.49a10.66,10.66,0,0,1,4.28.84l1.06-4a13.37,13.37,0,0,0-5.54-1c-6.81,0-12.29,4.25-12.29,11.95,0,6.45,4,11.33,11.79,11.33a15,15,0,0,0,5.74-1l-.73-4a12.27,12.27,0,0,1-4.28.73"/><path class="cls-3" d="M106.42,239.56c-5.28,0-8.75,3.38-8.75,8.66s3.68,8.43,8.44,8.43h0c4.34,0,8.58-2.75,8.58-8.7,0-4.95-3.34-8.39-8.31-8.39m-.2,13.44h0c-2.13,0-3.31-2.1-3.31-4.88,0-2.44.94-4.92,3.35-4.92s3.23,2.48,3.23,4.89C109.45,251,108.22,253,106.22,253Z"/><path class="cls-3" d="M155.3,239.56a6.23,6.23,0,0,0-3.1.8,7.08,7.08,0,0,0-2.13,2H150a4.6,4.6,0,0,0-4.47-2.81,5.66,5.66,0,0,0-4.94,2.61l-.3.35a4.94,4.94,0,0,0-4.72-3,6.18,6.18,0,0,0-3.1.8,7.11,7.11,0,0,0-2.14,2h-.07a4.61,4.61,0,0,0-4.47-2.81,5.65,5.65,0,0,0-4.94,2.61h-.1l-.2-2.24h-4.31c.07,1.47.13,3.17.13,5.21v11.14h5v-9.49a3.56,3.56,0,0,1,.2-1.31,2.6,2.6,0,0,1,2.37-1.81c1.63,0,2.37,1.41,2.37,3.45v9.16h4.94v-9.56a5.41,5.41,0,0,1,.17-1.28,2.51,2.51,0,0,1,2.36-1.77c1.52,0,2.28,1.19,2.39,3.24v9.37h5v-9.63c0-.1,0-.18,0-.28a3.28,3.28,0,0,1,.19-.89,2.61,2.61,0,0,1,2.37-1.81c1.64,0,2.37,1.41,2.37,3.45v9.16h4.94v-9.56a5.41,5.41,0,0,1,.17-1.28,2.52,2.52,0,0,1,2.37-1.77c1.63,0,2.4,1.37,2.4,3.75v8.86h4.94v-9.63c0-4.88-2.36-7.09-5.51-7.09"/><path class="cls-3" d="M178.07,239.93H173v9.73a2.6,2.6,0,0,1-.21,1.1,2.7,2.7,0,0,1-2.53,1.78c-1.81,0-2.57-1.45-2.57-3.81v-8.8h-5.08v9.6c0,5,2.41,7.12,5.75,7.12a5.86,5.86,0,0,0,5.11-2.67h.09l.24,2.3h4.4c-.06-1.37-.13-3.11-.13-5.25v-11.1"/><path class="cls-3" d="M189.81,239.56a5.87,5.87,0,0,0-5,2.64h-.1l-.23-2.27H180c.07,1.47.14,3.17.14,5.21v11.14h5.07v-9.43a3.49,3.49,0,0,1,.17-1.27,2.78,2.78,0,0,1,2.6-1.91c1.84,0,2.57,1.44,2.57,3.55v9.06h5.07v-9.66c0-4.82-2.5-7.06-5.84-7.06"/><path class="cls-3" d="M200.29,232.37a2.71,2.71,0,1,0-.08,5.42h0a2.71,2.71,0,1,0,0-5.42"/><path class="cls-3" d="M227.45,239.93l-2,8c-.24.94-.51,2.17-.74,3.05h-.1c-.21-.88-.54-2.08-.81-3.05l-2.44-8h-9.54v-4.45l-5,1.37v3.08h-9.13v16.35h5.07V243.67h4.06v6.72c0,2.31.47,3.89,1.4,4.85a5.43,5.43,0,0,0,3.85,1.41,10.4,10.4,0,0,0,3.26-.44l0-3.84a6.84,6.84,0,0,1-1.5.13c-1.51,0-2-.9-2-2.87v-6h5.41l4.51,11.2a2.29,2.29,0,0,1,.19.84,1.38,1.38,0,0,1-.26.74,5.94,5.94,0,0,1-2.1,2,7.76,7.76,0,0,1-2.21.86l1.07,4.28a8.92,8.92,0,0,0,4.91-2.23c1.84-1.64,3.41-4.22,5.74-10.71l3.81-10.76h-5.44"/><polyline class="cls-3" points="119.35 267.19 119.35 273.74 126.26 273.74 126.26 267.19 129.25 267.19 129.25 283.54 126.26 283.54 126.26 276.34 119.35 276.34 119.35 283.54 116.36 283.54 116.36 267.19 119.35 267.19"/><path class="cls-3" d="M134.12,278.47c.07,2.14,1.72,3.06,3.64,3.06A9.71,9.71,0,0,0,141,281l.43,2a10.53,10.53,0,0,1-4.12.75c-3.83,0-6.09-2.35-6.09-6,0-3.27,2-6.35,5.77-6.35s5.1,3.15,5.1,5.75a7.12,7.12,0,0,1-.1,1.26h-7.91m5.2-2.09a2.54,2.54,0,0,0-2.46-2.88,2.92,2.92,0,0,0-2.74,2.88Z"/><path class="cls-3" d="M153.25,280.7a15.49,15.49,0,0,0,.2,2.84h-2.69l-.22-1.31h-.07a4.35,4.35,0,0,1-3.5,1.58,3.51,3.51,0,0,1-3.71-3.52c0-3,2.64-4.49,7-4.46v-.2c0-.77-.31-2.06-2.4-2.06a6.37,6.37,0,0,0-3.18.87l-.58-1.94a8.53,8.53,0,0,1,4.27-1c3.78,0,4.87,2.4,4.87,5v4.24m-2.91-2.93c-2.11,0-4.12.41-4.12,2.2a1.56,1.56,0,0,0,1.7,1.7,2.44,2.44,0,0,0,2.35-1.62,2.12,2.12,0,0,0,.07-.66Z"/><rect class="cls-3" x="155.92" y="266.32" width="2.99" height="17.23"/><path class="cls-3" d="M165.09,268.69v3h2.84V274h-2.84v5.21c0,1.46.38,2.18,1.52,2.18a4.21,4.21,0,0,0,1.17-.11l.05,2.25a6.55,6.55,0,0,1-2.16.32,3.43,3.43,0,0,1-2.57-1,4.64,4.64,0,0,1-.95-3.33V274h-1.67v-2.23h1.67v-2.21l2.94-.83"/><path class="cls-3" d="M169.69,266.32h3v7h0A3.85,3.85,0,0,1,174.2,272a4.15,4.15,0,0,1,2.07-.54c2,0,4.12,1.33,4.12,5.12v7h-3v-6.65c0-1.69-.63-3-2.28-3a2.48,2.48,0,0,0-2.33,1.67,2.62,2.62,0,0,0-.12.9v7.08h-3V266.32"/><path class="cls-3" d="M187.71,283.54V267.19h3.42l4.23,7a49.61,49.61,0,0,1,2.78,5.48h.05a66.28,66.28,0,0,1-.26-6.79v-5.7h2.76v16.35h-3.1l-4.27-7.2a58,58,0,0,1-2.92-5.63l-.09,0c.12,2.11.17,4.27.17,7v5.85h-2.77"/><path class="cls-3" d="M205.64,278.47c.07,2.14,1.72,3.06,3.64,3.06a9.61,9.61,0,0,0,3.27-.54l.44,2a10.58,10.58,0,0,1-4.13.75c-3.83,0-6.09-2.35-6.09-6,0-3.27,2-6.35,5.78-6.35s5.09,3.15,5.09,5.75a7.12,7.12,0,0,1-.1,1.26h-7.9m5.19-2.09c0-1.09-.46-2.88-2.45-2.88a2.91,2.91,0,0,0-2.74,2.88Z"/><path class="cls-3" d="M219,268.69v3h2.83V274H219v5.21c0,1.46.38,2.18,1.52,2.18a4.21,4.21,0,0,0,1.17-.11l.05,2.25a6.55,6.55,0,0,1-2.16.32,3.46,3.46,0,0,1-2.58-1,4.69,4.69,0,0,1-.94-3.33V274h-1.67v-2.23H216v-2.21l2.94-.83"/><path class="cls-3" d="M225.55,271.73l1.21,5.36c.29,1.26.56,2.55.77,3.83h.06c.24-1.28.62-2.59.94-3.81l1.55-5.38h2.43L234,277c.36,1.38.68,2.67.94,3.95h0c.17-1.28.46-2.57.78-3.95l1.31-5.24H240l-3.71,11.81h-2.76l-1.41-4.8a38.46,38.46,0,0,1-.9-3.79h0a37.36,37.36,0,0,1-.9,3.79l-1.51,4.8H226l-3.49-11.81h3.06"/><path class="cls-3" d="M252.35,277.52c0,4.35-3.06,6.29-6.07,6.29a5.71,5.71,0,0,1-5.92-6.09c0-3.88,2.55-6.26,6.12-6.26s5.87,2.48,5.87,6.06m-8.9.12c0,2.29,1.14,4,2.93,4s2.89-1.65,2.89-4c0-1.84-.83-4-2.87-4S243.45,275.68,243.45,277.64Z"/><path class="cls-3" d="M254.2,275.54c0-1.6,0-2.77-.09-3.81h2.57l.12,2.23h.07a3.54,3.54,0,0,1,3.25-2.5,3,3,0,0,1,.7.07v2.79a4.59,4.59,0,0,0-.89-.07,2.63,2.63,0,0,0-2.67,2.25,5.14,5.14,0,0,0-.07.9v6.14h-3v-8"/><path class="cls-3" d="M265.34,276.92h0c.3-.46.64-1,.92-1.38l2.89-3.81h3.59l-4.39,4.82,5,7h-3.66l-3.4-5.21-1,1.18v4h-3V266.32h3v10.6"/><path class="cls-6" d="M35.53,355.69H32.17v-2.36h9.59v2.36H38.35v10.1H35.53Z"/><path class="cls-6" d="M44.82,362.59l-.88,3.2H41l3.81-12.46h3.69l3.88,12.46h-3l-1-3.2Zm3.17-2.1-.78-2.65c-.22-.73-.44-1.67-.63-2.4h0c-.18.73-.37,1.68-.57,2.4l-.74,2.65Z"/><path class="cls-6" d="M54.06,353.33h2.79v5.51h0c.27-.48.57-.93.85-1.36l2.83-4.15H64l-4.12,5.3,4.34,7.16H61l-3.07-5.37-1.06,1.3v4.07H54.06Z"/><path class="cls-6" d="M72.82,360.52H68.23v3h5.13v2.31h-8V353.33h7.68v2.3H68.23v2.6h4.59Z"/><path class="cls-6" d="M80.71,355.69H77.34v-2.36h9.6v2.36H83.53v10.1H80.71Z"/><path class="cls-6" d="M91.25,353.33v4.79H95.9v-4.79h2.82v12.46H95.9v-5.21H91.25v5.21H88.43V353.33Z"/><path class="cls-6" d="M108.58,360.52H104v3h5.13v2.31h-8V353.33h7.68v2.3H104v2.6h4.59Z"/><path class="cls-6" d="M114.78,353.33h7.62v2.3h-4.8v2.86h4.48v2.29H117.6v5h-2.82Z"/><path class="cls-6" d="M124.53,353.5a22.83,22.83,0,0,1,3.74-.27,6.34,6.34,0,0,1,4,1,3.16,3.16,0,0,1,1.15,2.61,3.3,3.3,0,0,1-2.2,3.06V360a3.14,3.14,0,0,1,1.66,2.32c.39,1.41.77,3,1,3.52h-2.88a14.61,14.61,0,0,1-.86-2.9c-.35-1.56-.87-2-2-2h-.84v4.89h-2.79Zm2.79,5.36h1.1c1.4,0,2.24-.72,2.24-1.8s-.78-1.72-2.07-1.73a6,6,0,0,0-1.27.09Z"/><path class="cls-6" d="M142.9,360.52h-4.59v3h5.13v2.31h-7.95V353.33h7.68v2.3h-4.86v2.6h4.59Z"/><path class="cls-6" d="M152.77,360.52h-4.59v3h5.13v2.31h-7.94V353.33H153v2.3h-4.86v2.6h4.59Z"/><path class="cls-6" d="M161.86,362.59l-.88,3.2h-2.91l3.8-12.46h3.69l3.88,12.46h-3l-1-3.2Zm3.17-2.1-.78-2.65c-.21-.73-.43-1.67-.62-2.4h0c-.18.73-.37,1.68-.57,2.4l-.75,2.65Z"/><path class="cls-6" d="M171.2,362.88a7,7,0,0,0,3.12.79c1.3,0,2-.54,2-1.36s-.59-1.22-2.09-1.75c-2.08-.73-3.43-1.87-3.43-3.69,0-2.12,1.78-3.74,4.71-3.74a7.29,7.29,0,0,1,3.18.63l-.62,2.26a5.9,5.9,0,0,0-2.6-.59c-1.23,0-1.81.57-1.81,1.2,0,.79.69,1.15,2.3,1.76,2.21.82,3.23,2,3.23,3.73,0,2.08-1.59,3.87-5,3.87a8,8,0,0,1-3.52-.78Z"/><path class="cls-6" d="M181.18,362.88a7,7,0,0,0,3.13.79c1.29,0,2-.54,2-1.36s-.6-1.22-2.09-1.75c-2.08-.73-3.44-1.87-3.44-3.69,0-2.12,1.79-3.74,4.72-3.74a7.32,7.32,0,0,1,3.18.63L188,356a6,6,0,0,0-2.61-.59c-1.22,0-1.81.57-1.81,1.2,0,.79.69,1.15,2.31,1.76,2.21.82,3.23,2,3.23,3.73,0,2.08-1.6,3.87-5,3.87a8.08,8.08,0,0,1-3.52-.78Z"/><path class="cls-6" d="M198.48,360.52h-4.59v3H199v2.31h-8V353.33h7.68v2.3h-4.86v2.6h4.59Z"/><path class="cls-6" d="M201,362.88a7,7,0,0,0,3.12.79c1.3,0,2-.54,2-1.36s-.6-1.22-2.09-1.75c-2.08-.73-3.44-1.87-3.44-3.69,0-2.12,1.78-3.74,4.71-3.74a7.33,7.33,0,0,1,3.19.63l-.63,2.26a5.9,5.9,0,0,0-2.6-.59c-1.22,0-1.81.57-1.81,1.2,0,.79.69,1.15,2.31,1.76,2.2.82,3.23,2,3.23,3.73,0,2.08-1.6,3.87-5,3.87a8.08,8.08,0,0,1-3.52-.78Z"/><path class="cls-6" d="M211,362.88a6.91,6.91,0,0,0,3.12.79c1.29,0,2-.54,2-1.36s-.59-1.22-2.09-1.75c-2.08-.73-3.43-1.87-3.43-3.69,0-2.12,1.78-3.74,4.71-3.74a7.29,7.29,0,0,1,3.18.63l-.62,2.26a5.9,5.9,0,0,0-2.6-.59c-1.23,0-1.82.57-1.82,1.2,0,.79.7,1.15,2.31,1.76,2.21.82,3.23,2,3.23,3.73,0,2.08-1.59,3.87-5,3.87a8,8,0,0,1-3.52-.78Z"/><path class="cls-6" d="M231.45,361c-.06-1.51-.11-3.3-.11-5.13h-.05c-.39,1.59-.92,3.37-1.39,4.84l-1.52,4.86h-2.19l-1.35-4.82c-.4-1.47-.81-3.24-1.12-4.88h0c-.06,1.69-.13,3.62-.21,5.17l-.23,4.73h-2.61l.8-12.46h3.76l1.21,4.16c.4,1.43.78,3,1.06,4.46h.06c.34-1.44.76-3.09,1.19-4.48l1.32-4.14h3.69l.67,12.46h-2.74Z"/><path class="cls-6" d="M244,360.52h-4.59v3h5.13v2.31h-7.95V353.33h7.68v2.3h-4.86v2.6H244Z"/><path class="cls-6" d="M246.44,365.79V353.33h3.28l2.59,4.57a37.07,37.07,0,0,1,2,4.27h0a50.35,50.35,0,0,1-.23-5.21v-3.63h2.59v12.46H253.8l-2.67-4.8a44.94,44.94,0,0,1-2.17-4.4h-.06c.09,1.66.12,3.42.12,5.45v3.75Z"/><path class="cls-6" d="M261.6,355.69h-3.36v-2.36h9.59v2.36h-3.41v10.1H261.6Z"/><rect class="cls-7" x="26.61" y="344.48" width="246.78" height="31.77" rx="2.7"/></svg>