<svg id="Layer_1" data-name="Layer 1" xmlns="http://www.w3.org/2000/svg" viewBox="0 0 300 600"><defs><style>.cls-1{fill:#f1b533;}.cls-2{fill:#fff;}</style></defs><path class="cls-1" d="M32.05,533.21v-2.14l2.54-.44V512l-2.5-.48v-2.1H42.2v2.1l-2.67.48v7.83h9.33V512l-2.53-.48v-2.1h10v2.1l-2.5.48v18.64l2.5.42v2.14H46.36v-2.14l2.5-.44v-8.32H39.53v8.32l2.67.44v2.14Z"/><path class="cls-1" d="M67.19,533.57a9.47,9.47,0,0,1-3.79-.69A6.76,6.76,0,0,1,60.79,531,7.84,7.84,0,0,1,59.28,528a13.62,13.62,0,0,1-.48-3.72,11.59,11.59,0,0,1,.61-3.91,8.61,8.61,0,0,1,1.75-2.94,7.48,7.48,0,0,1,2.7-1.85,9.17,9.17,0,0,1,3.5-.64q6.48,0,6.76,6.33c0,.72,0,1.36,0,1.94a8.77,8.77,0,0,1-.17,1.46H63.75a9.65,9.65,0,0,0,.45,2.64,5,5,0,0,0,1,1.78,3.48,3.48,0,0,0,1.44,1,5.19,5.19,0,0,0,1.84.32,7.69,7.69,0,0,0,1.48-.13,10.44,10.44,0,0,0,1.28-.31,9.76,9.76,0,0,0,1.06-.42,8.31,8.31,0,0,0,.82-.46l.81,1.9a6.25,6.25,0,0,1-1.08.85,11.35,11.35,0,0,1-1.6.82,11.92,11.92,0,0,1-1.94.62A8.76,8.76,0,0,1,67.19,533.57Zm-.42-16.5a3,3,0,0,0-1.14.22,2.11,2.11,0,0,0-.92.83,5.83,5.83,0,0,0-.66,1.69,15.84,15.84,0,0,0-.32,2.81h5.61s0-.13,0-.22,0-.19,0-.3,0-.2,0-.29v-.21a12.56,12.56,0,0,0-.11-1.61,5.45,5.45,0,0,0-.4-1.46,2.83,2.83,0,0,0-.8-1A2,2,0,0,0,66.77,517.07Z"/><path class="cls-1" d="M76.27,528.46a4.71,4.71,0,0,1,.41-2,5.07,5.07,0,0,1,1.14-1.57,7.28,7.28,0,0,1,1.71-1.14,12.46,12.46,0,0,1,2.13-.77,17.74,17.74,0,0,1,2.37-.45c.82-.09,1.65-.15,2.47-.17v-.75a3.59,3.59,0,0,0-.73-2.54,3.2,3.2,0,0,0-2.38-.75,10.69,10.69,0,0,0-1.69.13c-.57.09-1.12.2-1.64.33a14.57,14.57,0,0,0-1.44.43c-.45.17-.82.32-1.14.46h0l-.92-2.09a7,7,0,0,1,1.11-.69,13.39,13.39,0,0,1,1.87-.84,17.85,17.85,0,0,1,2.42-.7,12.44,12.44,0,0,1,2.74-.3,10,10,0,0,1,2.94.37,4.37,4.37,0,0,1,3.08,3.14,9.79,9.79,0,0,1,.35,2.82v9.75H93V533l-.73.16c-.3.07-.62.13-1,.19s-.74.11-1.14.15-.83.06-1.25.06a8.73,8.73,0,0,1-1,0,1.6,1.6,0,0,1-.65-.22,1,1,0,0,1-.35-.5,2.81,2.81,0,0,1-.11-.86V531a5.58,5.58,0,0,1-.73.8,6.48,6.48,0,0,1-1.13.83,7.14,7.14,0,0,1-1.51.64,6.06,6.06,0,0,1-1.86.26,7.36,7.36,0,0,1-2.08-.29,4.57,4.57,0,0,1-1.69-.93,4.18,4.18,0,0,1-1.15-1.59A5.76,5.76,0,0,1,76.27,528.46Zm7.42,2.1a3.19,3.19,0,0,0,.64-.08,6.22,6.22,0,0,0,.75-.22,5.7,5.7,0,0,0,.76-.34,3.16,3.16,0,0,0,.66-.44v-5.17a9.64,9.64,0,0,0-2.54.28,4.76,4.76,0,0,0-1.63.75,2.61,2.61,0,0,0-.87,1.08,3.27,3.27,0,0,0-.26,1.29,3.09,3.09,0,0,0,.64,2.12A2.34,2.34,0,0,0,83.69,530.56Z"/><path class="cls-1" d="M94.42,533.21v-2.09l2.27-.31V510l-2.33-.39v-1.83l6.11-.77h0l1,.74v23.11l2.36.31v2.09Z"/><path class="cls-1" d="M107.67,529.46V518h-2.2v-1.78l.4-.13.56-.21.52-.21.3-.15a5,5,0,0,0,1.11-1.5c.1-.21.22-.45.34-.73s.25-.56.37-.87.23-.6.34-.89.19-.57.26-.81h2.78l0,4.63h4.59V518H112.5v8.66c0,.83,0,1.49,0,2a3.49,3.49,0,0,0,.19,1.11.8.8,0,0,0,.46.49,2.76,2.76,0,0,0,.86.11h0a4.37,4.37,0,0,0,.79-.07l.81-.14c.27-.06.51-.12.74-.19l.55-.18h0l.73,1.83a7.69,7.69,0,0,1-1.15.72,10.41,10.41,0,0,1-1.5.64,11.22,11.22,0,0,1-1.73.47,9.49,9.49,0,0,1-1.84.18h0a5.29,5.29,0,0,1-1.75-.26,2.77,2.77,0,0,1-1.18-.79,3.26,3.26,0,0,1-.64-1.29A6.71,6.71,0,0,1,107.67,529.46Z"/><path class="cls-1" d="M119,533.21v-2.09l1.92-.31V510l-2.34-.39v-1.83l6.08-.77h.07l1,.74,0,7.36-.25,2.48a9.4,9.4,0,0,1,1-.83,9.69,9.69,0,0,1,1.43-.8,9.46,9.46,0,0,1,1.75-.61,8,8,0,0,1,2-.24,6.59,6.59,0,0,1,2.53.42,3.47,3.47,0,0,1,1.58,1.3,5.61,5.61,0,0,1,.83,2.21,18,18,0,0,1,.25,3.16v8.66l2.2.31v2.09h-8.75v-2l1.73-.34V522.1a12.56,12.56,0,0,0-.11-1.86,3.32,3.32,0,0,0-.41-1.29,1.83,1.83,0,0,0-.84-.74,3.26,3.26,0,0,0-1.39-.25,5.1,5.1,0,0,0-1,.11c-.34.08-.67.17-1,.28a7.35,7.35,0,0,0-.9.37,4,4,0,0,0-.7.43v11.66l2.14.31v2.09Z"/><path class="cls-1" d="M144.72,541.18H144l-.73,0-.65-.07a2.85,2.85,0,0,1-.42-.09v-3.83a4.8,4.8,0,0,0,.93.26,7.9,7.9,0,0,0,1.64.15,5.55,5.55,0,0,0,1-.11,2.81,2.81,0,0,0,1.15-.55,5.5,5.5,0,0,0,1.2-1.3,11.28,11.28,0,0,0,1.19-2.37h-2.81l-5.63-15.47-1.42-.43v-2h9.05v2l-2.36.45,3,9.27,1.22,4.25,1.06-4.25,2.38-9.27-2-.45v-2h6.9v2l-1.43.43c-.31,1-.63,2-1,3.07s-.68,2.21-1,3.33-.68,2.21-1,3.28-.64,2-.91,2.9-.51,1.62-.71,2.24-.35,1-.45,1.25a15.8,15.8,0,0,1-3.12,5.49A5.82,5.82,0,0,1,144.72,541.18Z"/><path class="cls-1" d="M170,533.21v-2.09l1.93-.31V510l-2.35-.39v-1.83l6.08-.77h.08l.95.74,0,7.36-.25,2.48a9.6,9.6,0,0,1,1.06-.83,9.2,9.2,0,0,1,1.43-.8,9.62,9.62,0,0,1,1.74-.61,8,8,0,0,1,2-.24,6.55,6.55,0,0,1,2.53.42,3.45,3.45,0,0,1,1.59,1.3,5.76,5.76,0,0,1,.83,2.21,18.07,18.07,0,0,1,.24,3.16v8.66l2.2.31v2.09h-8.75v-2l1.74-.34V522.1a14.09,14.09,0,0,0-.11-1.86,3.32,3.32,0,0,0-.42-1.29,1.78,1.78,0,0,0-.84-.74,3.24,3.24,0,0,0-1.38-.25,4.94,4.94,0,0,0-1,.11,9.73,9.73,0,0,0-1,.28,7.9,7.9,0,0,0-.89.37,3.8,3.8,0,0,0-.71.43v11.66l2.14.31v2.09Z"/><path class="cls-1" d="M200.11,533.57a9.47,9.47,0,0,1-3.79-.69,6.76,6.76,0,0,1-2.61-1.91A8,8,0,0,1,192.2,528a13.62,13.62,0,0,1-.48-3.72,11.34,11.34,0,0,1,.62-3.91,8.43,8.43,0,0,1,1.74-2.94,7.48,7.48,0,0,1,2.7-1.85,9.17,9.17,0,0,1,3.5-.64q6.48,0,6.77,6.33c0,.72,0,1.36,0,1.94a10.14,10.14,0,0,1-.16,1.46H196.67a10,10,0,0,0,.45,2.64,5.21,5.21,0,0,0,1,1.78,3.55,3.55,0,0,0,1.44,1,5.19,5.19,0,0,0,1.84.32,7.8,7.8,0,0,0,1.49-.13,10.73,10.73,0,0,0,1.27-.31,9.76,9.76,0,0,0,1.06-.42,8.31,8.31,0,0,0,.82-.46l.81,1.9a6.25,6.25,0,0,1-1.08.85,11.35,11.35,0,0,1-1.6.82,12.11,12.11,0,0,1-1.93.62A8.91,8.91,0,0,1,200.11,533.57Zm-.42-16.5a3,3,0,0,0-1.14.22,2.17,2.17,0,0,0-.92.83,5.57,5.57,0,0,0-.65,1.69,14.16,14.16,0,0,0-.32,2.81h5.61v-.22c0-.09,0-.19,0-.3s0-.2,0-.29v-.21a12.56,12.56,0,0,0-.11-1.61,5.45,5.45,0,0,0-.4-1.46,2.72,2.72,0,0,0-.8-1A2,2,0,0,0,199.69,517.07Z"/><path class="cls-1" d="M209.19,528.46a4.86,4.86,0,0,1,.41-2,5.07,5.07,0,0,1,1.14-1.57,7.5,7.5,0,0,1,1.71-1.14,12.46,12.46,0,0,1,2.13-.77,17.74,17.74,0,0,1,2.37-.45c.83-.09,1.65-.15,2.47-.17v-.75a3.64,3.64,0,0,0-.72-2.54,3.23,3.23,0,0,0-2.39-.75,10.69,10.69,0,0,0-1.69.13c-.57.09-1.12.2-1.64.33a14.57,14.57,0,0,0-1.44.43c-.44.17-.82.32-1.13.46h0l-.92-2.09a7.53,7.53,0,0,1,1.11-.69,13.39,13.39,0,0,1,1.87-.84,17.59,17.59,0,0,1,2.43-.7,12.28,12.28,0,0,1,2.73-.3,10,10,0,0,1,2.94.37,4.37,4.37,0,0,1,3.08,3.14,9.79,9.79,0,0,1,.35,2.82v9.75h1.94V533l-.73.16c-.29.07-.62.13-1,.19s-.74.11-1.14.15-.83.06-1.25.06a8.73,8.73,0,0,1-1,0,1.5,1.5,0,0,1-.64-.22.92.92,0,0,1-.35-.5,2.53,2.53,0,0,1-.11-.86V531a6.4,6.4,0,0,1-.74.8,6.48,6.48,0,0,1-1.13.83,6.93,6.93,0,0,1-1.51.64,6.06,6.06,0,0,1-1.86.26,7.36,7.36,0,0,1-2.08-.29,4.65,4.65,0,0,1-1.69-.93,4.18,4.18,0,0,1-1.15-1.59A5.76,5.76,0,0,1,209.19,528.46Zm7.42,2.1a3.19,3.19,0,0,0,.64-.08,6.22,6.22,0,0,0,.75-.22,5.82,5.82,0,0,0,.77-.34,3.09,3.09,0,0,0,.65-.44v-5.17a9.64,9.64,0,0,0-2.54.28,4.85,4.85,0,0,0-1.63.75,2.61,2.61,0,0,0-.87,1.08,3.27,3.27,0,0,0-.26,1.29,3.14,3.14,0,0,0,.64,2.12A2.34,2.34,0,0,0,216.61,530.56Z"/><path class="cls-1" d="M227.83,533.21v-2.09l2.25-.3v-12l-2.13-.66v-2.35l5.35-.77h.09l.83.67V517l0,2.44h.07a6.2,6.2,0,0,1,.68-1.26,8.13,8.13,0,0,1,1.21-1.47,7.7,7.7,0,0,1,1.68-1.22,4.24,4.24,0,0,1,2-.51,6.38,6.38,0,0,1,.74,0,2.76,2.76,0,0,1,.43.1v5.41a3,3,0,0,0-.9-.27,8.6,8.6,0,0,0-1.72-.15,10.14,10.14,0,0,0-1.1.06c-.36,0-.7.1-1,.16a5.39,5.39,0,0,0-.85.25,2.41,2.41,0,0,0-.58.28v10l3.89.37v2Z"/><path class="cls-1" d="M244.83,529.46V518h-2.21v-1.78a2.9,2.9,0,0,0,.4-.13l.57-.21.52-.21.3-.15a5,5,0,0,0,1.11-1.5l.34-.73c.12-.27.25-.56.37-.87s.23-.6.33-.89.19-.57.27-.81h2.78l0,4.63h4.59V518h-4.59v8.66c0,.83,0,1.49,0,2a3.53,3.53,0,0,0,.18,1.11.8.8,0,0,0,.46.49,2.81,2.81,0,0,0,.86.11h0a4.45,4.45,0,0,0,.79-.07l.81-.14c.27-.06.51-.12.73-.19l.56-.18h0l.74,1.83a8.24,8.24,0,0,1-1.15.72,10.41,10.41,0,0,1-1.5.64,11.54,11.54,0,0,1-1.73.47,9.56,9.56,0,0,1-1.84.18h0a5.35,5.35,0,0,1-1.76-.26,2.79,2.79,0,0,1-1.17-.79,3.27,3.27,0,0,1-.65-1.29A7.19,7.19,0,0,1,244.83,529.46Z"/><path class="cls-1" d="M256.8,532.21v-4.39h2.87l.81,2.44a1.89,1.89,0,0,0,.43.41,4.44,4.44,0,0,0,.69.36,5.33,5.33,0,0,0,.9.25,5.06,5.06,0,0,0,1.05.1,3.76,3.76,0,0,0,1.27-.18,2.41,2.41,0,0,0,.79-.48,1.53,1.53,0,0,0,.41-.66,2.53,2.53,0,0,0,.1-.71,2,2,0,0,0-.33-1.13,3.36,3.36,0,0,0-1-.87,9.89,9.89,0,0,0-1.5-.78l-1.93-.81a12.11,12.11,0,0,1-1.94-1,6.77,6.77,0,0,1-1.46-1.21,5.09,5.09,0,0,1-.93-1.5,5,5,0,0,1-.33-1.86,4.5,4.5,0,0,1,1.83-3.69,6.75,6.75,0,0,1,2.25-1.1,11.15,11.15,0,0,1,3.11-.39,12.48,12.48,0,0,1,1.83.12,14.49,14.49,0,0,1,1.46.29c.44.11.84.22,1.21.34a9.27,9.27,0,0,0,1.06.28v4.31l-2.72,0-.73-2.08a2.22,2.22,0,0,0-.83-.69,3.35,3.35,0,0,0-1.55-.35,4,4,0,0,0-1.18.15,2,2,0,0,0-.76.43,1.54,1.54,0,0,0-.42.58,1.87,1.87,0,0,0-.12.65,2.08,2.08,0,0,0,.42,1.34,3.54,3.54,0,0,0,1.06.88,9.11,9.11,0,0,0,1.41.63c.51.18,1,.38,1.45.59.69.3,1.35.62,2,1a8.13,8.13,0,0,1,1.66,1.18,5.17,5.17,0,0,1,1.16,1.55,4.71,4.71,0,0,1,.43,2.1,4.93,4.93,0,0,1-.45,2.11A4.51,4.51,0,0,1,269,532a6.6,6.6,0,0,1-2.25,1.13,11.08,11.08,0,0,1-3.16.4,14.15,14.15,0,0,1-2.26-.17,18.73,18.73,0,0,1-1.86-.4c-.56-.15-1.05-.3-1.49-.45S257.12,532.29,256.8,532.21Z"/><path class="cls-2" d="M32.45,570.61v-4.39h2.88l.81,2.44a1.7,1.7,0,0,0,.43.41,3.69,3.69,0,0,0,.69.36,4.85,4.85,0,0,0,.9.25,5,5,0,0,0,1,.11,3.8,3.8,0,0,0,1.28-.19,2.52,2.52,0,0,0,.79-.48,1.51,1.51,0,0,0,.4-.66,2.56,2.56,0,0,0,.11-.71,2,2,0,0,0-.33-1.13,3.41,3.41,0,0,0-1-.87A9.74,9.74,0,0,0,39,565l-1.94-.81a12.55,12.55,0,0,1-1.94-1A6.77,6.77,0,0,1,33.66,562a4.84,4.84,0,0,1-.93-1.5,5.18,5.18,0,0,1-.32-1.86,4.57,4.57,0,0,1,.46-2.05,4.52,4.52,0,0,1,1.36-1.64,7.16,7.16,0,0,1,2.25-1.1,11.25,11.25,0,0,1,3.11-.39,12.62,12.62,0,0,1,1.84.12c.54.08,1,.18,1.46.29s.84.22,1.2.34a9.42,9.42,0,0,0,1.07.28v4.31l-2.72,0-.74-2.08a2.18,2.18,0,0,0-.82-.69,3.38,3.38,0,0,0-1.55-.35,4,4,0,0,0-1.18.15,2.18,2.18,0,0,0-.77.43,1.51,1.51,0,0,0-.41.58,1.68,1.68,0,0,0-.13.65,2,2,0,0,0,.43,1.34,3.54,3.54,0,0,0,1.06.88,8.58,8.58,0,0,0,1.4.63c.51.18,1,.38,1.46.59.69.3,1.34.62,2,1A8.13,8.13,0,0,1,44.82,563,5.47,5.47,0,0,1,46,564.54a5.26,5.26,0,0,1,0,4.21,4.61,4.61,0,0,1-1.34,1.69,6.6,6.6,0,0,1-2.25,1.13,11.11,11.11,0,0,1-3.17.4A13,13,0,0,1,37,571.8a17.57,17.57,0,0,1-1.86-.4q-.84-.23-1.5-.45C33.16,570.8,32.78,570.69,32.45,570.61Z"/><path class="cls-2" d="M50.58,567.86v-11.5h-2.2v-1.78l.39-.13.57-.21.52-.21a2.61,2.61,0,0,0,.3-.15,5,5,0,0,0,1.11-1.5l.34-.73c.12-.27.25-.56.37-.86s.23-.61.33-.9.19-.57.27-.81h2.78l0,4.63H60v2.65H55.41V565c0,.83,0,1.49,0,2a3.53,3.53,0,0,0,.18,1.11.78.78,0,0,0,.46.49,2.81,2.81,0,0,0,.86.11h0a4.45,4.45,0,0,0,.79-.07l.81-.14c.27-.06.51-.12.73-.19l.56-.18h0l.73,1.83a8.24,8.24,0,0,1-1.15.72,10.41,10.41,0,0,1-1.5.64,11.54,11.54,0,0,1-1.73.47,9.56,9.56,0,0,1-1.84.18h0a5.35,5.35,0,0,1-1.76-.26,2.79,2.79,0,0,1-1.17-.79,3.27,3.27,0,0,1-.65-1.29A7.19,7.19,0,0,1,50.58,567.86Z"/><path class="cls-2" d="M61.77,566.86a4.71,4.71,0,0,1,.41-2,5.07,5.07,0,0,1,1.14-1.57A7.28,7.28,0,0,1,65,562.11a12.46,12.46,0,0,1,2.13-.77,17.74,17.74,0,0,1,2.37-.45c.82-.09,1.65-.15,2.47-.17V560a3.6,3.6,0,0,0-.73-2.54,3.2,3.2,0,0,0-2.38-.75,10.69,10.69,0,0,0-1.69.13c-.57.09-1.12.2-1.64.33a14.57,14.57,0,0,0-1.44.43c-.45.17-.82.32-1.14.47h0l-.92-2.1a7,7,0,0,1,1.11-.69,13.39,13.39,0,0,1,1.87-.84,19.42,19.42,0,0,1,2.42-.7,12.44,12.44,0,0,1,2.74-.3,10,10,0,0,1,2.94.38,4.52,4.52,0,0,1,2,1.15,4.57,4.57,0,0,1,1.11,2,9.83,9.83,0,0,1,.35,2.82v9.75H78.5v1.92l-.73.16c-.3.07-.62.13-1,.19s-.74.11-1.14.15-.83.06-1.25.06a8.73,8.73,0,0,1-1,0,1.6,1.6,0,0,1-.65-.22,1,1,0,0,1-.35-.5,2.81,2.81,0,0,1-.11-.86v-.91a5.58,5.58,0,0,1-.73.8,6.48,6.48,0,0,1-1.13.83,7.14,7.14,0,0,1-1.51.64,6.06,6.06,0,0,1-1.86.26,7.36,7.36,0,0,1-2.08-.29,4.57,4.57,0,0,1-1.69-.93,4.18,4.18,0,0,1-1.15-1.59A5.76,5.76,0,0,1,61.77,566.86Zm7.42,2.1a3.19,3.19,0,0,0,.64-.08,6.22,6.22,0,0,0,.75-.22,4.66,4.66,0,0,0,.76-.34,3.16,3.16,0,0,0,.66-.44v-5.17a9.64,9.64,0,0,0-2.54.28,4.76,4.76,0,0,0-1.63.75,2.61,2.61,0,0,0-.87,1.08,3.3,3.3,0,0,0-.26,1.29,3.09,3.09,0,0,0,.64,2.12A2.34,2.34,0,0,0,69.19,569Z"/><path class="cls-2" d="M80.41,571.61v-2.09l2.25-.3v-12l-2.13-.65v-2.36l5.35-.77H86l.83.67v1.3l0,2.44h.06a7.4,7.4,0,0,1,.68-1.26,8.65,8.65,0,0,1,1.22-1.47,7.64,7.64,0,0,1,1.67-1.22,4.28,4.28,0,0,1,2.06-.51,6.38,6.38,0,0,1,.74,0,2.76,2.76,0,0,1,.43.1v5.41a3,3,0,0,0-.9-.27,8.6,8.6,0,0,0-1.72-.15,10.14,10.14,0,0,0-1.1.06c-.36,0-.7.1-1,.16a5.39,5.39,0,0,0-.85.25,2.24,2.24,0,0,0-.58.28v10l3.89.37v2Z"/><path class="cls-2" d="M97.41,567.86v-11.5H95.2v-1.78a2.9,2.9,0,0,0,.4-.13l.56-.21.53-.21.29-.15a4.67,4.67,0,0,0,1.11-1.5c.11-.21.22-.45.35-.73s.24-.56.36-.86.24-.61.34-.9l.27-.81h2.78l0,4.63h4.6v2.65h-4.6V565c0,.83,0,1.49,0,2a3.8,3.8,0,0,0,.19,1.11.78.78,0,0,0,.46.49,2.81,2.81,0,0,0,.86.11h0a4.45,4.45,0,0,0,.79-.07l.81-.14c.26-.06.51-.12.73-.19l.56-.18h0l.74,1.83a8.88,8.88,0,0,1-1.15.72,10.41,10.41,0,0,1-1.5.64,11.67,11.67,0,0,1-1.74.47,9.38,9.38,0,0,1-1.83.18h0a5.31,5.31,0,0,1-1.76-.26,2.73,2.73,0,0,1-1.17-.79,3.15,3.15,0,0,1-.65-1.29A6.74,6.74,0,0,1,97.41,567.86Z"/><path class="cls-2" d="M118.78,571.61v-2.09l1.92-.31V548.35l-2.34-.39v-1.83l6.08-.77h.08l1,.74,0,7.36-.25,2.48a10.72,10.72,0,0,1,1-.83,9.69,9.69,0,0,1,1.43-.8,10,10,0,0,1,1.75-.61,8,8,0,0,1,2-.24,6.59,6.59,0,0,1,2.53.42,3.45,3.45,0,0,1,1.59,1.3,5.76,5.76,0,0,1,.82,2.21,17.07,17.07,0,0,1,.25,3.16v8.66l2.2.31v2.09h-8.75v-2l1.73-.34V560.5a12.65,12.65,0,0,0-.11-1.86,3.32,3.32,0,0,0-.41-1.29,1.78,1.78,0,0,0-.84-.74,3.26,3.26,0,0,0-1.39-.25,5.1,5.1,0,0,0-1,.11c-.34.08-.67.17-1,.28a7.35,7.35,0,0,0-.9.37,4.76,4.76,0,0,0-.7.43v11.66l2.14.31v2.09Z"/><path class="cls-2" d="M148.91,572a9.61,9.61,0,0,1-3.79-.68,6.89,6.89,0,0,1-2.61-1.92,7.84,7.84,0,0,1-1.51-2.93,13.62,13.62,0,0,1-.48-3.72,11.59,11.59,0,0,1,.61-3.91,8.3,8.3,0,0,1,1.75-2.94,7.4,7.4,0,0,1,2.7-1.85,9.17,9.17,0,0,1,3.5-.64q6.48,0,6.76,6.33c0,.72,0,1.36,0,1.94a10,10,0,0,1-.17,1.46h-10.2a9.58,9.58,0,0,0,.45,2.64,5.19,5.19,0,0,0,1,1.79,3.61,3.61,0,0,0,1.44,1,5.42,5.42,0,0,0,1.84.31,7.69,7.69,0,0,0,1.48-.13,9.22,9.22,0,0,0,1.28-.31A8.07,8.07,0,0,0,154,568c.32-.16.59-.31.82-.45l.81,1.89a6,6,0,0,1-1.09.85,10.7,10.7,0,0,1-1.59.82,11.92,11.92,0,0,1-1.94.62A8.82,8.82,0,0,1,148.91,572Zm-.43-16.5a3,3,0,0,0-1.13.22,2.11,2.11,0,0,0-.92.83,5.56,5.56,0,0,0-.66,1.69,15,15,0,0,0-.32,2.81h5.61a1.94,1.94,0,0,1,0-.22c0-.09,0-.19,0-.3V560a11,11,0,0,0-.11-1.61,5.11,5.11,0,0,0-.39-1.46,2.83,2.83,0,0,0-.8-1A2,2,0,0,0,148.48,555.47Z"/><path class="cls-2" d="M158.39,571.61v-2.09l2.25-.3v-12l-2.12-.65v-2.36l5.34-.77H164l.83.67v3.74h.06a6.2,6.2,0,0,1,.68-1.26,8.2,8.2,0,0,1,1.22-1.47,7.4,7.4,0,0,1,1.67-1.22,4.24,4.24,0,0,1,2-.51,6.58,6.58,0,0,1,.75,0,2.61,2.61,0,0,1,.42.1v5.41a3,3,0,0,0-.89-.27,8.7,8.7,0,0,0-1.73-.15,9.82,9.82,0,0,0-1.09.06c-.37,0-.71.1-1,.16a5.39,5.39,0,0,0-.85.25,2.41,2.41,0,0,0-.58.28v10l3.89.37v2Z"/><path class="cls-2" d="M181.8,572a9.61,9.61,0,0,1-3.79-.68,6.89,6.89,0,0,1-2.61-1.92,7.84,7.84,0,0,1-1.51-2.93,13.62,13.62,0,0,1-.48-3.72,11.59,11.59,0,0,1,.61-3.91,8.45,8.45,0,0,1,1.75-2.94,7.48,7.48,0,0,1,2.7-1.85,9.17,9.17,0,0,1,3.5-.64q6.48,0,6.76,6.33c0,.72,0,1.36,0,1.94a8.77,8.77,0,0,1-.17,1.46h-10.2a9.58,9.58,0,0,0,.45,2.64,5.19,5.19,0,0,0,1,1.79,3.61,3.61,0,0,0,1.44,1,5.42,5.42,0,0,0,1.84.31,7.69,7.69,0,0,0,1.48-.13,8.89,8.89,0,0,0,1.28-.31,8.07,8.07,0,0,0,1.06-.42c.32-.16.59-.31.82-.45l.81,1.89a6.25,6.25,0,0,1-1.08.85,11.35,11.35,0,0,1-1.6.82,11.92,11.92,0,0,1-1.94.62A8.76,8.76,0,0,1,181.8,572Zm-.42-16.5a3,3,0,0,0-1.14.22,2.11,2.11,0,0,0-.92.83,5.56,5.56,0,0,0-.66,1.69,15,15,0,0,0-.32,2.81H184s0-.13,0-.22,0-.19,0-.3V560a12.54,12.54,0,0,0-.1-1.61,5.45,5.45,0,0,0-.4-1.46,2.83,2.83,0,0,0-.8-1A2,2,0,0,0,181.38,555.47Z"/><path class="cls-2" d="M195.25,571.88a3.35,3.35,0,0,1-1.05-.17,2.68,2.68,0,0,1-.87-.5,2.47,2.47,0,0,1-.6-.79,2.51,2.51,0,0,1-.21-1,2.71,2.71,0,0,1,.25-1.18,3,3,0,0,1,.68-1,3.13,3.13,0,0,1,1-.63,3.36,3.36,0,0,1,1.23-.23,3.54,3.54,0,0,1,1.3.21,2.52,2.52,0,0,1,.87.54,2.11,2.11,0,0,1,.48.8,3.08,3.08,0,0,1,.15,1,3,3,0,0,1-.24,1.22,2.88,2.88,0,0,1-.67.94,3,3,0,0,1-1,.6A3.9,3.9,0,0,1,195.25,571.88Z"/></svg>