<svg id="Layer_1" data-name="Layer 1" xmlns="http://www.w3.org/2000/svg" viewBox="0 0 970 250"><defs><style>.cls-1{fill:#fff;}.cls-2{fill:#f1b533;}</style></defs><path class="cls-1" d="M61.33,165.39a16.75,16.75,0,0,1-2.93-.23c-.89-.15-1.7-.32-2.42-.51s-1.33-.37-1.84-.53a5.28,5.28,0,0,0-1.2-.28l.29-6.48h3.08l.75,4.24a4,4,0,0,0,1.49.92,6.58,6.58,0,0,0,2.54.43,6.4,6.4,0,0,0,2-.28,3.54,3.54,0,0,0,1.36-.79,3.13,3.13,0,0,0,.75-1.18,4.61,4.61,0,0,0,.23-1.46,3.39,3.39,0,0,0-.39-1.63A5.09,5.09,0,0,0,64,156.24a10.08,10.08,0,0,0-1.8-1.23c-.7-.39-1.5-.81-2.39-1.24-.68-.32-1.41-.7-2.18-1.16a10.59,10.59,0,0,1-2.13-1.67,8.82,8.82,0,0,1-1.62-2.33,7,7,0,0,1-.65-3.09,6.28,6.28,0,0,1,.57-2.65,6.13,6.13,0,0,1,1.7-2.18,8.7,8.7,0,0,1,2.81-1.48,12.61,12.61,0,0,1,3.88-.55,14.57,14.57,0,0,1,2.3.18c.75.11,1.46.24,2.1.38s1.23.28,1.72.42a10.61,10.61,0,0,0,1.14.27l-.22,5.9h-3l-.7-3.88a1.63,1.63,0,0,0-.45-.32,6.67,6.67,0,0,0-.74-.3,7.14,7.14,0,0,0-.91-.22,5.66,5.66,0,0,0-1-.08,6,6,0,0,0-1.81.23,3.19,3.19,0,0,0-1.23.65,2.76,2.76,0,0,0-.69,1,3.55,3.55,0,0,0-.22,1.28,3.48,3.48,0,0,0,.44,1.76,5.37,5.37,0,0,0,1.24,1.4A13.46,13.46,0,0,0,62,148.57c.73.39,1.53.8,2.39,1.24s1.53.8,2.31,1.27a12,12,0,0,1,2.15,1.63,8.09,8.09,0,0,1,1.59,2.1,5.78,5.78,0,0,1,.62,2.7,7.89,7.89,0,0,1-.53,2.76,7.07,7.07,0,0,1-1.69,2.54,8.72,8.72,0,0,1-3,1.87A12.57,12.57,0,0,1,61.33,165.39Z"/><path class="cls-1" d="M73.18,159.8a5.22,5.22,0,0,1,.45-2.23,5.39,5.39,0,0,1,1.25-1.71,7.36,7.36,0,0,1,1.87-1.25,14.44,14.44,0,0,1,2.32-.85,17.85,17.85,0,0,1,2.6-.48c.9-.11,1.8-.17,2.7-.19v-.82a4,4,0,0,0-.79-2.78,3.52,3.52,0,0,0-2.61-.83,11.76,11.76,0,0,0-1.86.15,16,16,0,0,0-1.78.36c-.57.14-1.1.3-1.58.47s-.9.35-1.24.51h0l-1-2.29a8.24,8.24,0,0,1,1.22-.76,14.92,14.92,0,0,1,2-.92,21.6,21.6,0,0,1,2.65-.77,14,14,0,0,1,3-.32,11.11,11.11,0,0,1,3.22.41,5,5,0,0,1,2.15,1.27A5.13,5.13,0,0,1,89,148.93a11.23,11.23,0,0,1,.38,3.08v10.67h2.12v2.1c-.22,0-.49.1-.8.18s-.68.14-1.06.2-.81.12-1.25.16a12.32,12.32,0,0,1-1.37.07,8,8,0,0,1-1,0,1.42,1.42,0,0,1-.7-.24.94.94,0,0,1-.38-.54,3,3,0,0,1-.12-.95v-1a6.86,6.86,0,0,1-.81.88,6.5,6.5,0,0,1-1.24.9,7.32,7.32,0,0,1-1.65.71,6.82,6.82,0,0,1-2,.28,7.88,7.88,0,0,1-2.27-.32,5.09,5.09,0,0,1-1.86-1,4.74,4.74,0,0,1-1.25-1.74A6.27,6.27,0,0,1,73.18,159.8Zm8.11,2.29A3.07,3.07,0,0,0,82,162a6.84,6.84,0,0,0,.82-.24,6.3,6.3,0,0,0,.84-.37,3.47,3.47,0,0,0,.72-.48v-5.66a10.45,10.45,0,0,0-2.78.31,4.91,4.91,0,0,0-1.78.82,2.86,2.86,0,0,0-1,1.18,3.51,3.51,0,0,0-.28,1.41,3.44,3.44,0,0,0,.69,2.32A2.52,2.52,0,0,0,81.29,162.09Z"/><path class="cls-1" d="M93.29,165v-2.26l2.73-.46V148.51H93v-2l3-.86v-1a7.88,7.88,0,0,1,.84-3.65A9.12,9.12,0,0,1,99,138.19a9.36,9.36,0,0,1,2.94-1.76,8.94,8.94,0,0,1,3.19-.62,6.29,6.29,0,0,1,1.32.1,6.44,6.44,0,0,1,.68.19v5.11a2.71,2.71,0,0,0-.62-.47,5.92,5.92,0,0,0-.91-.41,8.51,8.51,0,0,0-1.08-.3,5.91,5.91,0,0,0-1.18-.12,3.58,3.58,0,0,0-.84.1,1.46,1.46,0,0,0-.64.37,1.68,1.68,0,0,0-.41.72,3.73,3.73,0,0,0-.15,1.15l0,3.35h4.39v2.91h-4.39v13.87l3.79.36V165Z"/><path class="cls-1" d="M116.87,165.39a10.41,10.41,0,0,1-4.14-.75,7.5,7.5,0,0,1-2.85-2.09,8.59,8.59,0,0,1-1.65-3.21,14.51,14.51,0,0,1-.53-4.06,12.71,12.71,0,0,1,.67-4.29,9.26,9.26,0,0,1,1.91-3.21,8.09,8.09,0,0,1,3-2,10,10,0,0,1,3.83-.7q7.09,0,7.4,6.92c0,.78,0,1.49,0,2.13a8.32,8.32,0,0,1-.18,1.59H113.11a10.89,10.89,0,0,0,.5,2.89,5.51,5.51,0,0,0,1.08,1.95,3.82,3.82,0,0,0,1.58,1.09,5.65,5.65,0,0,0,2,.34,9.17,9.17,0,0,0,1.62-.13,11.79,11.79,0,0,0,1.39-.34,7.37,7.37,0,0,0,1.16-.47,8.93,8.93,0,0,0,.9-.49l.89,2.07a6.85,6.85,0,0,1-1.19.93,12.24,12.24,0,0,1-1.74.9,14.23,14.23,0,0,1-2.12.68A10,10,0,0,1,116.87,165.39Zm-.46-18a3.22,3.22,0,0,0-1.24.24,2.23,2.23,0,0,0-1,.9,6,6,0,0,0-.72,1.86,15.57,15.57,0,0,0-.35,3.06h6.13s0-.13,0-.24,0-.21,0-.32,0-.22,0-.33v-.22a13.38,13.38,0,0,0-.12-1.77,5.69,5.69,0,0,0-.44-1.59,3.05,3.05,0,0,0-.87-1.15A2.2,2.2,0,0,0,116.41,147.35Z"/><path class="cls-1" d="M129.11,160.9V148.32H126.7v-1.95l.44-.14.61-.23.57-.23a1.78,1.78,0,0,0,.33-.17,5.24,5.24,0,0,0,1.21-1.64c.12-.23.24-.49.38-.79s.27-.62.4-.95.25-.66.37-1,.21-.62.29-.88h3l0,5h5v2.91h-5v9.47c0,.91,0,1.63,0,2.17a4,4,0,0,0,.21,1.21.85.85,0,0,0,.5.53,2.94,2.94,0,0,0,.94.12h0a5.24,5.24,0,0,0,.86-.07c.31,0,.6-.1.89-.16s.56-.13.81-.2l.6-.2h0l.8,2a9.09,9.09,0,0,1-1.25.78,11.73,11.73,0,0,1-1.64.71,13.54,13.54,0,0,1-1.9.52,10.52,10.52,0,0,1-2,.19h0a5.49,5.49,0,0,1-1.93-.29,3,3,0,0,1-1.28-.86,3.61,3.61,0,0,1-.71-1.41A7.48,7.48,0,0,1,129.11,160.9Z"/><path class="cls-1" d="M145.84,173.72l-.75,0-.8,0-.71-.08a3.37,3.37,0,0,1-.46-.09v-4.19a6.05,6.05,0,0,0,1,.28,8.55,8.55,0,0,0,1.79.16,5.86,5.86,0,0,0,1.12-.12,3.28,3.28,0,0,0,1.25-.59,6.21,6.21,0,0,0,1.32-1.43,12.39,12.39,0,0,0,1.3-2.59h-3.08l-6.15-16.92-1.56-.48v-2.19H150v2.18l-2.58.49,3.26,10.13,1.34,4.65,1.16-4.65,2.6-10.13-2.23-.49v-2.18h7.56v2.19l-1.58.48q-.5,1.56-1.05,3.36l-1.12,3.64c-.37,1.22-.74,2.42-1.11,3.58l-1,3.18c-.29.95-.55,1.77-.77,2.44s-.39,1.13-.49,1.37a17.45,17.45,0,0,1-3.42,6A6.36,6.36,0,0,1,145.84,173.72Z"/><path class="cls-1" d="M173.32,159.8a5.08,5.08,0,0,1,.46-2.23,5.36,5.36,0,0,1,1.24-1.71,7.54,7.54,0,0,1,1.87-1.25,14.56,14.56,0,0,1,2.33-.85,17.85,17.85,0,0,1,2.6-.48c.9-.11,1.8-.17,2.7-.19v-.82a4,4,0,0,0-.8-2.78,3.5,3.5,0,0,0-2.6-.83,11.66,11.66,0,0,0-1.86.15,15.56,15.56,0,0,0-1.78.36c-.57.14-1.1.3-1.59.47s-.89.35-1.23.51h0l-1-2.29a8,8,0,0,1,1.21-.76,15.49,15.49,0,0,1,2-.92,22.13,22.13,0,0,1,2.65-.77,14.12,14.12,0,0,1,3-.32,11.06,11.06,0,0,1,3.22.41,4.93,4.93,0,0,1,2.16,1.27,5,5,0,0,1,1.21,2.16,10.83,10.83,0,0,1,.39,3.08v10.67h2.12v2.1l-.81.18c-.32.07-.67.14-1.06.2s-.8.12-1.24.16a12.44,12.44,0,0,1-1.37.07,8,8,0,0,1-1.05,0,1.38,1.38,0,0,1-.7-.24,1,1,0,0,1-.39-.54,3,3,0,0,1-.12-.95v-1a6.06,6.06,0,0,1-.8.88,6.84,6.84,0,0,1-1.24.9,7.32,7.32,0,0,1-1.65.71,6.82,6.82,0,0,1-2,.28,8,8,0,0,1-2.28-.32,5.12,5.12,0,0,1-1.85-1,4.88,4.88,0,0,1-1.26-1.74A6.44,6.44,0,0,1,173.32,159.8Zm8.12,2.29a3.07,3.07,0,0,0,.7-.08,7.43,7.43,0,0,0,.82-.24,6.92,6.92,0,0,0,.84-.37,3.76,3.76,0,0,0,.72-.48v-5.66a10.4,10.4,0,0,0-2.78.31,5,5,0,0,0-1.79.82,3,3,0,0,0-.95,1.18,3.69,3.69,0,0,0-.28,1.41,3.39,3.39,0,0,0,.7,2.32A2.52,2.52,0,0,0,181.44,162.09Z"/><path class="cls-1" d="M193.83,165v-2.29l2.2-.34V149.23l-2.32-.72v-2.58l6.12-.84h.08l.91.73v2a10.73,10.73,0,0,1,1.33-1,11,11,0,0,1,1.67-.87,12.65,12.65,0,0,1,1.89-.61,9,9,0,0,1,2-.23,7.5,7.5,0,0,1,2.74.43,3.62,3.62,0,0,1,1.75,1.37,6.17,6.17,0,0,1,.92,2.41,19.28,19.28,0,0,1,.28,3.57v9.46l2.42.33V165H206.2v-2.29l1.87-.33v-9.53a14.93,14.93,0,0,0-.12-2,3.84,3.84,0,0,0-.44-1.41,2,2,0,0,0-.87-.82,3.45,3.45,0,0,0-1.43-.26,4.8,4.8,0,0,0-1.14.13,5.81,5.81,0,0,0-1.07.33,7.17,7.17,0,0,0-.92.45,7.08,7.08,0,0,0-.73.49v12.65l2.29.34V165Z"/><path class="cls-1" d="M225.19,165.38a7.71,7.71,0,0,1-3-.58,6.41,6.41,0,0,1-2.4-1.77,8.45,8.45,0,0,1-1.6-3,14.16,14.16,0,0,1-.58-4.3,12.88,12.88,0,0,1,.69-4.3,9.64,9.64,0,0,1,2-3.37,9,9,0,0,1,3.19-2.22,10.81,10.81,0,0,1,4.25-.79,12.56,12.56,0,0,1,1.39.07,10.23,10.23,0,0,1,1.29.2V139.5l-3.12-.53V137l7.22-.73h.09l1.06.8v25.53h1.9v2.16l-1.95.4a12.73,12.73,0,0,1-2.39.21,2.55,2.55,0,0,1-1.63-.46,2.05,2.05,0,0,1-.58-1.67v-.67a7,7,0,0,1-2.35,1.94,7.79,7.79,0,0,1-1.62.62A7.65,7.65,0,0,1,225.19,165.38Zm2.17-3.1a4.19,4.19,0,0,0,1.85-.39,3.64,3.64,0,0,0,1.24-.89V148.11a2.5,2.5,0,0,0-.95-.54,4.75,4.75,0,0,0-1.59-.24,4,4,0,0,0-1.75.39,3.73,3.73,0,0,0-1.43,1.3,7.35,7.35,0,0,0-1,2.4,17,17,0,0,0-.41,3.69,15.81,15.81,0,0,0,.24,3.27,7.24,7.24,0,0,0,.8,2.23,3.31,3.31,0,0,0,1.28,1.27A3.55,3.55,0,0,0,227.36,162.28Z"/><path class="cls-1" d="M250.88,165v-2.29l2.1-.34V139.55l-2.57-.42v-2l6.65-.84h.09l1,.8,0,8-.27,2.72a10.27,10.27,0,0,1,1.15-.91,10.81,10.81,0,0,1,3.47-1.54,8.62,8.62,0,0,1,2.18-.27,7.12,7.12,0,0,1,2.77.46,3.86,3.86,0,0,1,1.74,1.42,6.57,6.57,0,0,1,.9,2.42,19.28,19.28,0,0,1,.27,3.46v9.47l2.41.34V165h-9.57v-2.22l1.89-.38v-9.55a14.93,14.93,0,0,0-.12-2,3.66,3.66,0,0,0-.45-1.41,2,2,0,0,0-.92-.82,3.88,3.88,0,0,0-1.52-.26,5.27,5.27,0,0,0-1.09.12,9,9,0,0,0-1.08.3,7.33,7.33,0,0,0-1,.41,4.89,4.89,0,0,0-.77.47v12.75l2.35.34V165Z"/><path class="cls-1" d="M283.82,165.39a10.41,10.41,0,0,1-4.14-.75,7.5,7.5,0,0,1-2.85-2.09,8.59,8.59,0,0,1-1.65-3.21,14.51,14.51,0,0,1-.53-4.06,12.71,12.71,0,0,1,.67-4.29,9.26,9.26,0,0,1,1.91-3.21,8.09,8.09,0,0,1,2.95-2,10,10,0,0,1,3.83-.7q7.1,0,7.4,6.92c0,.78,0,1.49,0,2.13a8.32,8.32,0,0,1-.18,1.59H280.06a10.89,10.89,0,0,0,.5,2.89,5.51,5.51,0,0,0,1.08,1.95,3.82,3.82,0,0,0,1.58,1.09,5.65,5.65,0,0,0,2,.34,9.17,9.17,0,0,0,1.62-.13,11.79,11.79,0,0,0,1.39-.34,7.37,7.37,0,0,0,1.16-.47,8.93,8.93,0,0,0,.9-.49l.89,2.07a6.85,6.85,0,0,1-1.19.93,12.24,12.24,0,0,1-1.74.9,14.23,14.23,0,0,1-2.12.68A10,10,0,0,1,283.82,165.39Zm-.46-18a3.22,3.22,0,0,0-1.24.24,2.23,2.23,0,0,0-1,.9,6,6,0,0,0-.72,1.86,15.57,15.57,0,0,0-.35,3.06h6.13s0-.13,0-.24,0-.21,0-.32,0-.22,0-.33v-.22a13.38,13.38,0,0,0-.12-1.77,5.69,5.69,0,0,0-.44-1.59,3.05,3.05,0,0,0-.87-1.15A2.2,2.2,0,0,0,283.36,147.35Z"/><path class="cls-1" d="M293.75,159.8a5.22,5.22,0,0,1,.46-2.23,5.39,5.39,0,0,1,1.25-1.71,7.36,7.36,0,0,1,1.87-1.25,14.1,14.1,0,0,1,2.32-.85,17.85,17.85,0,0,1,2.6-.48c.9-.11,1.8-.17,2.7-.19v-.82a4,4,0,0,0-.8-2.78,3.5,3.5,0,0,0-2.6-.83,11.66,11.66,0,0,0-1.86.15,16,16,0,0,0-1.78.36c-.57.14-1.1.3-1.58.47s-.9.35-1.24.51h0l-1-2.29a8.24,8.24,0,0,1,1.22-.76,14.92,14.92,0,0,1,2.05-.92,21.6,21.6,0,0,1,2.65-.77,14,14,0,0,1,3-.32,11.16,11.16,0,0,1,3.22.41,5,5,0,0,1,2.15,1.27,5,5,0,0,1,1.21,2.16,10.83,10.83,0,0,1,.39,3.08v10.67h2.12v2.1l-.81.18c-.31.07-.67.14-1.05.2s-.81.12-1.25.16a12.32,12.32,0,0,1-1.37.07,8,8,0,0,1-1.05,0,1.38,1.38,0,0,1-.7-.24,1,1,0,0,1-.39-.54,3,3,0,0,1-.12-.95v-1a6.06,6.06,0,0,1-.8.88,6.5,6.5,0,0,1-1.24.9,7.32,7.32,0,0,1-1.65.71,6.82,6.82,0,0,1-2,.28,7.88,7.88,0,0,1-2.27-.32,5.09,5.09,0,0,1-1.86-1,4.74,4.74,0,0,1-1.25-1.74A6.26,6.26,0,0,1,293.75,159.8Zm8.12,2.29a3.07,3.07,0,0,0,.7-.08,7.43,7.43,0,0,0,.82-.24,6.3,6.3,0,0,0,.84-.37,3.76,3.76,0,0,0,.72-.48v-5.66a10.45,10.45,0,0,0-2.78.31,4.83,4.83,0,0,0-1.78.82,2.79,2.79,0,0,0-.95,1.18,3.51,3.51,0,0,0-.28,1.41,3.44,3.44,0,0,0,.69,2.32A2.52,2.52,0,0,0,301.87,162.09Z"/><path class="cls-1" d="M314.14,165v-2.29l2.46-.33V149.23l-2.32-.72v-2.58l5.84-.84h.11l.9.73v4.09h.06a7.9,7.9,0,0,1,.75-1.38,9.64,9.64,0,0,1,1.33-1.6,8,8,0,0,1,1.83-1.34,4.68,4.68,0,0,1,2.25-.55,5.67,5.67,0,0,1,.81,0,3.3,3.3,0,0,1,.47.11v5.92a2.78,2.78,0,0,0-1-.3,9.21,9.21,0,0,0-1.88-.17c-.4,0-.8,0-1.2.07s-.77.11-1.12.18a6.11,6.11,0,0,0-.93.27,2.87,2.87,0,0,0-.63.3v10.91l4.25.41V165Z"/><path class="cls-1" d="M332.74,160.9V148.32h-2.41v-1.95l.43-.14.62-.23.57-.23a1.58,1.58,0,0,0,.32-.17,5.24,5.24,0,0,0,1.22-1.64c.11-.23.24-.49.37-.79s.27-.62.41-.95.25-.66.36-1,.21-.62.29-.88h3l.06,5h5v2.91h-5v9.47c0,.91,0,1.63,0,2.17a4.42,4.42,0,0,0,.2,1.21.84.84,0,0,0,.51.53,2.94,2.94,0,0,0,.94.12h0a5.24,5.24,0,0,0,.86-.07c.3,0,.6-.1.89-.16s.56-.13.8-.2l.61-.2h0l.81,2a8.67,8.67,0,0,1-1.26.78,10.79,10.79,0,0,1-1.64.71,13.54,13.54,0,0,1-1.9.52,10.34,10.34,0,0,1-2,.19h0a5.47,5.47,0,0,1-1.92-.29,2.93,2.93,0,0,1-1.28-.86,3.48,3.48,0,0,1-.71-1.41A7.48,7.48,0,0,1,332.74,160.9Z"/><path class="cls-1" d="M356.12,165v-2.29l2.1-.34V139.55l-2.57-.42v-2l6.65-.84h.09l1,.8,0,8-.27,2.72a10.27,10.27,0,0,1,1.15-.91,10.81,10.81,0,0,1,3.47-1.54,8.62,8.62,0,0,1,2.18-.27,7.12,7.12,0,0,1,2.77.46A3.86,3.86,0,0,1,374.5,147a6.57,6.57,0,0,1,.9,2.42,19.28,19.28,0,0,1,.27,3.46v9.47l2.41.34V165h-9.57v-2.22l1.89-.38v-9.55a14.93,14.93,0,0,0-.12-2,3.66,3.66,0,0,0-.45-1.41,2,2,0,0,0-.92-.82,3.88,3.88,0,0,0-1.52-.26,5.27,5.27,0,0,0-1.09.12,9,9,0,0,0-1.08.3,7.33,7.33,0,0,0-1,.41,4.89,4.89,0,0,0-.77.47v12.75l2.35.34V165Z"/><path class="cls-1" d="M389.06,165.39a10.41,10.41,0,0,1-4.14-.75,7.5,7.5,0,0,1-2.85-2.09,8.59,8.59,0,0,1-1.65-3.21,14.51,14.51,0,0,1-.53-4.06,12.71,12.71,0,0,1,.67-4.29,9.26,9.26,0,0,1,1.91-3.21,8.09,8.09,0,0,1,2.95-2,10.08,10.08,0,0,1,3.83-.7q7.1,0,7.4,6.92c0,.78,0,1.49,0,2.13a8.32,8.32,0,0,1-.18,1.59H385.3a10.89,10.89,0,0,0,.5,2.89,5.51,5.51,0,0,0,1.08,1.95,3.82,3.82,0,0,0,1.58,1.09,5.65,5.65,0,0,0,2,.34,9.17,9.17,0,0,0,1.62-.13,11.79,11.79,0,0,0,1.39-.34,7.37,7.37,0,0,0,1.16-.47,8.93,8.93,0,0,0,.9-.49l.89,2.07a6.85,6.85,0,0,1-1.19.93,12.24,12.24,0,0,1-1.74.9,14.23,14.23,0,0,1-2.12.68A10,10,0,0,1,389.06,165.39Zm-.46-18a3.22,3.22,0,0,0-1.24.24,2.23,2.23,0,0,0-1,.9,6,6,0,0,0-.72,1.86,15.57,15.57,0,0,0-.35,3.06h6.13s0-.13,0-.24,0-.21,0-.32,0-.22,0-.33v-.22a13.38,13.38,0,0,0-.12-1.77,5.69,5.69,0,0,0-.44-1.59,3.05,3.05,0,0,0-.87-1.15A2.2,2.2,0,0,0,388.6,147.35Z"/><path class="cls-1" d="M399,159.8a5.08,5.08,0,0,1,.46-2.23,5.36,5.36,0,0,1,1.24-1.71,7.54,7.54,0,0,1,1.87-1.25,14.56,14.56,0,0,1,2.33-.85,17.85,17.85,0,0,1,2.6-.48c.9-.11,1.8-.17,2.7-.19v-.82a4,4,0,0,0-.8-2.78,3.5,3.5,0,0,0-2.6-.83,11.66,11.66,0,0,0-1.86.15,16,16,0,0,0-1.78.36c-.57.14-1.1.3-1.58.47s-.9.35-1.24.51h0l-1-2.29a8,8,0,0,1,1.21-.76,15.49,15.49,0,0,1,2.05-.92,22.68,22.68,0,0,1,2.65-.77,14.14,14.14,0,0,1,3-.32,11.16,11.16,0,0,1,3.22.41,5,5,0,0,1,2.15,1.27,5,5,0,0,1,1.21,2.16,10.83,10.83,0,0,1,.39,3.08v10.67h2.12v2.1l-.81.18c-.32.07-.67.14-1.06.2s-.8.12-1.24.16a12.32,12.32,0,0,1-1.37.07,8,8,0,0,1-1.05,0,1.38,1.38,0,0,1-.7-.24,1,1,0,0,1-.39-.54,3,3,0,0,1-.12-.95v-1a6.06,6.06,0,0,1-.8.88,6.84,6.84,0,0,1-1.24.9,7.32,7.32,0,0,1-1.65.71,6.82,6.82,0,0,1-2,.28,8,8,0,0,1-2.28-.32,5.12,5.12,0,0,1-1.85-1,4.74,4.74,0,0,1-1.25-1.74A6.26,6.26,0,0,1,399,159.8Zm8.12,2.29a3.07,3.07,0,0,0,.7-.08,7.43,7.43,0,0,0,.82-.24,6.3,6.3,0,0,0,.84-.37,3.76,3.76,0,0,0,.72-.48v-5.66a10.45,10.45,0,0,0-2.78.31,5,5,0,0,0-1.79.82,2.84,2.84,0,0,0-.94,1.18,3.52,3.52,0,0,0-.29,1.41,3.39,3.39,0,0,0,.7,2.32A2.52,2.52,0,0,0,407.11,162.09Z"/><path class="cls-1" d="M418.85,165v-2.29l2.48-.34V139.55l-2.55-.42v-2l6.69-.84h0l1.07.8v25.28l2.58.34V165Z"/><path class="cls-1" d="M433.34,160.9V148.32h-2.41v-1.95a4,4,0,0,0,.44-.14L432,146l.57-.23a1.58,1.58,0,0,0,.32-.17A5.4,5.4,0,0,0,434.1,144l.37-.79c.14-.3.27-.62.4-.95s.26-.66.37-1,.21-.62.29-.88h3l.05,5h5v2.91h-5v9.47c0,.91,0,1.63.05,2.17a4.06,4.06,0,0,0,.2,1.21.84.84,0,0,0,.51.53,2.9,2.9,0,0,0,.94.12h0a5.36,5.36,0,0,0,.87-.07c.3,0,.59-.1.89-.16s.55-.13.8-.2l.61-.2h0l.81,2a9.25,9.25,0,0,1-1.26.78,11.24,11.24,0,0,1-1.64.71,13.54,13.54,0,0,1-1.9.52,10.37,10.37,0,0,1-2,.19h0a5.47,5.47,0,0,1-1.92-.29,2.93,2.93,0,0,1-1.28-.86,3.36,3.36,0,0,1-.71-1.41A7.46,7.46,0,0,1,433.34,160.9Z"/><path class="cls-1" d="M445.73,165v-2.29l2.11-.34V139.55l-2.57-.42v-2l6.65-.84H452l1,.8,0,8-.27,2.72A10.27,10.27,0,0,1,454,147a10.56,10.56,0,0,1,1.57-.88,11.15,11.15,0,0,1,1.9-.66,8.62,8.62,0,0,1,2.18-.27,7.12,7.12,0,0,1,2.77.46,3.86,3.86,0,0,1,1.74,1.42,6.57,6.57,0,0,1,.9,2.42,19.28,19.28,0,0,1,.27,3.46v9.47l2.41.34V165h-9.58v-2.22l1.9-.38v-9.55a14.93,14.93,0,0,0-.12-2,3.66,3.66,0,0,0-.45-1.41,2,2,0,0,0-.92-.82,3.88,3.88,0,0,0-1.52-.26,5.27,5.27,0,0,0-1.09.12,9.16,9.16,0,0,0-1.09.3,7.77,7.77,0,0,0-1,.41,4.47,4.47,0,0,0-.77.47v12.75l2.34.34V165Z"/><path class="cls-1" d="M52,201.8a5.22,5.22,0,0,1,.45-2.23,5.39,5.39,0,0,1,1.25-1.71,7.36,7.36,0,0,1,1.87-1.25,14.44,14.44,0,0,1,2.32-.85,18.1,18.1,0,0,1,2.6-.48c.9-.11,1.8-.17,2.7-.19v-.82a4,4,0,0,0-.79-2.78,3.51,3.51,0,0,0-2.61-.83,11.63,11.63,0,0,0-1.85.15,16.19,16.19,0,0,0-1.79.36c-.57.14-1.1.3-1.58.47s-.9.35-1.24.51h0l-1-2.29a8,8,0,0,1,1.21-.76,14.92,14.92,0,0,1,2.05-.92,22.13,22.13,0,0,1,2.65-.77,14,14,0,0,1,3-.32,11.11,11.11,0,0,1,3.22.41,5,5,0,0,1,2.15,1.27,5,5,0,0,1,1.22,2.16A11.23,11.23,0,0,1,68.2,194v10.67h2.12v2.1l-.8.18c-.32.07-.67.14-1.06.2s-.8.12-1.25.16a12.19,12.19,0,0,1-1.37.07,8,8,0,0,1-1,0,1.42,1.42,0,0,1-.7-.24,1,1,0,0,1-.38-.54,3,3,0,0,1-.12-.95v-1a6.71,6.71,0,0,1-.8.88,7.21,7.21,0,0,1-1.24.9,7.74,7.74,0,0,1-1.65.71,6.94,6.94,0,0,1-2,.28,7.93,7.93,0,0,1-2.27-.32,5,5,0,0,1-1.85-1,4.88,4.88,0,0,1-1.26-1.74A6.27,6.27,0,0,1,52,201.8Zm8.12,2.29a3.19,3.19,0,0,0,.7-.08,8.12,8.12,0,0,0,.82-.24,6.79,6.79,0,0,0,.83-.37,3.22,3.22,0,0,0,.72-.48v-5.66a10.37,10.37,0,0,0-2.77.31,4.88,4.88,0,0,0-1.79.82,3,3,0,0,0-.95,1.18,3.51,3.51,0,0,0-.28,1.41,3.44,3.44,0,0,0,.69,2.32A2.54,2.54,0,0,0,60.14,204.09Z"/><path class="cls-1" d="M72.41,207v-2.29l2.46-.33V191.23l-2.33-.72v-2.58l5.85-.84h.1l.91.73v1.42l0,2.67h.07a7.13,7.13,0,0,1,.74-1.38,9.64,9.64,0,0,1,1.33-1.6,8,8,0,0,1,1.83-1.34A4.68,4.68,0,0,1,85.6,187a5.67,5.67,0,0,1,.81,0,3,3,0,0,1,.47.11v5.92a2.7,2.7,0,0,0-1-.3,9.39,9.39,0,0,0-1.89-.17c-.4,0-.8,0-1.2.07s-.77.11-1.12.18a6.86,6.86,0,0,0-.93.27,3.11,3.11,0,0,0-.63.3v10.91l4.26.41V207Z"/><path class="cls-1" d="M98,207.39a10.43,10.43,0,0,1-4.15-.75A7.58,7.58,0,0,1,91,204.55a8.59,8.59,0,0,1-1.65-3.21,14.88,14.88,0,0,1-.53-4.06A12.71,12.71,0,0,1,89.5,193a9.41,9.41,0,0,1,1.91-3.21,8.13,8.13,0,0,1,3-2,10,10,0,0,1,3.83-.7q7.08,0,7.4,6.92c0,.78,0,1.49,0,2.13a10.33,10.33,0,0,1-.18,1.59H94.25a10.52,10.52,0,0,0,.49,2.89,5.84,5.84,0,0,0,1.08,1.95,3.82,3.82,0,0,0,1.58,1.09,5.65,5.65,0,0,0,2,.34,9.17,9.17,0,0,0,1.62-.13,11.79,11.79,0,0,0,1.39-.34,7.92,7.92,0,0,0,1.17-.47,9.9,9.9,0,0,0,.89-.49l.89,2.07a7.13,7.13,0,0,1-1.18.93,12.39,12.39,0,0,1-1.75.9,13.86,13.86,0,0,1-2.12.68A10,10,0,0,1,98,207.39Zm-.46-18a3.15,3.15,0,0,0-1.24.24,2.2,2.2,0,0,0-1,.9,6,6,0,0,0-.72,1.86,16.37,16.37,0,0,0-.35,3.06h6.14v-.24c0-.1,0-.21,0-.32s0-.22,0-.33v-.22a13.38,13.38,0,0,0-.12-1.77,5.37,5.37,0,0,0-.44-1.59,3.05,3.05,0,0,0-.87-1.15A2.17,2.17,0,0,0,97.55,189.35Z"/><path class="cls-2" d="M119,197.33a11.68,11.68,0,0,1,.8-4.53,9.22,9.22,0,0,1,2.14-3.21,8.43,8.43,0,0,1,3.08-1.92,10.69,10.69,0,0,1,3.65-.63,10.44,10.44,0,0,1,3.93.69,7.63,7.63,0,0,1,2.87,2,8.61,8.61,0,0,1,1.76,3.16,13.81,13.81,0,0,1,.6,4.23,12.18,12.18,0,0,1-.8,4.61,9,9,0,0,1-2.14,3.2,8.53,8.53,0,0,1-3.08,1.87,11.07,11.07,0,0,1-3.64.6,10.44,10.44,0,0,1-3.93-.69,7.64,7.64,0,0,1-2.88-2,8.62,8.62,0,0,1-1.77-3.16A14.06,14.06,0,0,1,119,197.33Zm9.46,7.7a3.06,3.06,0,0,0,1.63-.41,3.17,3.17,0,0,0,1.13-1.32,7.4,7.4,0,0,0,.67-2.3,22.94,22.94,0,0,0,.21-3.35,28.63,28.63,0,0,0-.19-3.54,9.92,9.92,0,0,0-.63-2.59,3.67,3.67,0,0,0-1.15-1.58,2.77,2.77,0,0,0-1.73-.54,3.13,3.13,0,0,0-1.64.42,3.18,3.18,0,0,0-1.15,1.31,7.47,7.47,0,0,0-.68,2.3,21.37,21.37,0,0,0-.23,3.35,26.7,26.7,0,0,0,.21,3.55,10,10,0,0,0,.66,2.59,3.9,3.9,0,0,0,1.16,1.58A2.76,2.76,0,0,0,128.44,205Z"/><path class="cls-2" d="M156.54,207.39a2.63,2.63,0,0,1-1.83-.54,2.14,2.14,0,0,1-.58-1.63v-.61a6.23,6.23,0,0,1-1.08,1,9.16,9.16,0,0,1-1.41.9,8.19,8.19,0,0,1-1.65.64,6.52,6.52,0,0,1-1.74.24,9.1,9.1,0,0,1-2.88-.4,4.41,4.41,0,0,1-2-1.29,5.69,5.69,0,0,1-1.14-2.31,14.05,14.05,0,0,1-.37-3.43v-9.74l-1.7-.63v-2l6.15-.5h0l.79.48v12.51a10.15,10.15,0,0,0,.15,1.9,3.17,3.17,0,0,0,.48,1.28,1.88,1.88,0,0,0,.91.71,3.76,3.76,0,0,0,1.4.23,5.06,5.06,0,0,0,1.2-.14,7,7,0,0,0,1-.32,4.89,4.89,0,0,0,.76-.41,6.32,6.32,0,0,0,.53-.38V190.22l-2.36-.67v-2l6.63-.44h0l.94.48v17.11h1.89v2.11c-.43.11-1,.23-1.72.38A12,12,0,0,1,156.54,207.39Z"/><path class="cls-2" d="M163.32,207v-2.29l2.47-.33V191.23l-2.33-.72v-2.58l5.85-.84h.1l.9.73v4.09h.07a7.13,7.13,0,0,1,.74-1.38,9.64,9.64,0,0,1,1.33-1.6,8,8,0,0,1,1.83-1.34,4.68,4.68,0,0,1,2.25-.55,5.67,5.67,0,0,1,.81,0,3.3,3.3,0,0,1,.47.11v5.92a2.78,2.78,0,0,0-1-.3,9.39,9.39,0,0,0-1.89-.17c-.4,0-.8,0-1.2.07s-.77.11-1.12.18a6.86,6.86,0,0,0-.93.27,3.11,3.11,0,0,0-.63.3v10.91l4.25.41V207Z"/><path class="cls-2" d="M192.91,202.9V190.32H190.5v-1.95l.43-.14.62-.23.57-.23a2.22,2.22,0,0,0,.33-.17,5.4,5.4,0,0,0,1.21-1.64l.38-.79c.13-.3.27-.62.4-.95s.25-.66.36-1,.21-.62.29-.88h3l.05,5h5v2.91h-5v9.47c0,.91,0,1.63,0,2.17a4,4,0,0,0,.21,1.21.8.8,0,0,0,.5.53,2.94,2.94,0,0,0,.94.12h0a5.24,5.24,0,0,0,.86-.07c.3,0,.6-.1.89-.16s.56-.13.8-.2l.61-.2h0l.8,2a8.67,8.67,0,0,1-1.26.78,10.79,10.79,0,0,1-1.64.71,13.78,13.78,0,0,1-1.89.52,10.52,10.52,0,0,1-2,.19h0a5.47,5.47,0,0,1-1.92-.29,2.93,2.93,0,0,1-1.28-.86,3.48,3.48,0,0,1-.71-1.41A7.48,7.48,0,0,1,192.91,202.9Z"/><path class="cls-2" d="M205.19,197.33a11.67,11.67,0,0,1,.81-4.53,9.34,9.34,0,0,1,2.13-3.21,8.56,8.56,0,0,1,3.09-1.92,10.69,10.69,0,0,1,3.65-.63,10.44,10.44,0,0,1,3.93.69,7.71,7.71,0,0,1,2.87,2,8.75,8.75,0,0,1,1.76,3.16,13.81,13.81,0,0,1,.6,4.23,12,12,0,0,1-.81,4.61,8.89,8.89,0,0,1-2.13,3.2,8.62,8.62,0,0,1-3.08,1.87,11.07,11.07,0,0,1-3.64.6,10.44,10.44,0,0,1-3.93-.69,7.64,7.64,0,0,1-2.88-2,8.62,8.62,0,0,1-1.77-3.16A13.74,13.74,0,0,1,205.19,197.33Zm9.47,7.7a3.06,3.06,0,0,0,1.63-.41,3.17,3.17,0,0,0,1.13-1.32,7.68,7.68,0,0,0,.67-2.3,22.94,22.94,0,0,0,.21-3.35,28.63,28.63,0,0,0-.19-3.54,9.89,9.89,0,0,0-.64-2.59,3.66,3.66,0,0,0-1.14-1.58,2.78,2.78,0,0,0-1.74-.54,3.09,3.09,0,0,0-1.63.42,3.18,3.18,0,0,0-1.15,1.31,7.74,7.74,0,0,0-.69,2.3,22.8,22.8,0,0,0-.22,3.35,26.7,26.7,0,0,0,.21,3.55,9.3,9.3,0,0,0,.66,2.59,3.9,3.9,0,0,0,1.16,1.58A2.76,2.76,0,0,0,214.66,205Z"/><path class="cls-2" d="M226.23,213.31l2.57-.43V191.23l-2.33-.72v-2.58l6.12-.84h.08l.88.73v1.82a7.28,7.28,0,0,1,2.3-1.8,8.19,8.19,0,0,1,1.58-.58,7.19,7.19,0,0,1,1.84-.22,8.22,8.22,0,0,1,2.95.53,6,6,0,0,1,2.4,1.68,8.47,8.47,0,0,1,1.62,3,14.58,14.58,0,0,1,.59,4.41,12.6,12.6,0,0,1-.7,4.23,10,10,0,0,1-2,3.41,9.1,9.1,0,0,1-3.16,2.28,10.09,10.09,0,0,1-4.2.83c-.29,0-.57,0-.85,0s-.55-.05-.8-.09l-.69-.1a4.83,4.83,0,0,1-.5-.1l.1,2.84v3l3.39.43v2.17h-11.2Zm10.87-23.16a4.31,4.31,0,0,0-1.83.37,3.83,3.83,0,0,0-1.23.83v12.93a2.49,2.49,0,0,0,.94.58,4.59,4.59,0,0,0,1.57.24,4,4,0,0,0,1.76-.4,3.74,3.74,0,0,0,1.44-1.32,7.87,7.87,0,0,0,1-2.43,16.37,16.37,0,0,0,.41-3.69,15,15,0,0,0-.25-3.28,6.55,6.55,0,0,0-.81-2.21,3.25,3.25,0,0,0-1.29-1.24A3.79,3.79,0,0,0,237.1,190.15Z"/><path class="cls-2" d="M260.12,213.31l2.56-.43V191.23l-2.32-.72v-2.58l6.12-.84h.08l.88.73v1.82a7.71,7.71,0,0,1,1-1,7.4,7.4,0,0,1,1.3-.83,8.34,8.34,0,0,1,1.57-.58,7.27,7.27,0,0,1,1.85-.22,8.22,8.22,0,0,1,2.95.53,6,6,0,0,1,2.4,1.68,8.3,8.3,0,0,1,1.61,3,14.27,14.27,0,0,1,.59,4.41,12.59,12.59,0,0,1-.69,4.23,10,10,0,0,1-2,3.41,9.1,9.1,0,0,1-3.16,2.28,10.09,10.09,0,0,1-4.2.83c-.29,0-.57,0-.85,0s-.55-.05-.8-.09l-.7-.1c-.2,0-.37-.07-.49-.1l.1,2.84v3l3.38.43v2.17H260.12ZM271,190.15a4.31,4.31,0,0,0-1.83.37,3.83,3.83,0,0,0-1.23.83v12.93a2.41,2.41,0,0,0,.94.58,4.55,4.55,0,0,0,1.57.24,4,4,0,0,0,1.76-.4,3.74,3.74,0,0,0,1.44-1.32,7.87,7.87,0,0,0,1-2.43,16.37,16.37,0,0,0,.41-3.69,15,15,0,0,0-.25-3.28,7,7,0,0,0-.81-2.21,3.25,3.25,0,0,0-1.29-1.24A3.79,3.79,0,0,0,271,190.15Z"/><path class="cls-2" d="M283.43,207v-2.29l2.46-.33V191.23l-2.32-.72v-2.58l5.84-.84h.11l.9.73v1.42l0,2.67h.07a7.9,7.9,0,0,1,.75-1.38,9.64,9.64,0,0,1,1.33-1.6,8,8,0,0,1,1.83-1.34,4.67,4.67,0,0,1,2.24-.55,5.74,5.74,0,0,1,.82,0,3.66,3.66,0,0,1,.47.11v5.92a2.86,2.86,0,0,0-1-.3,9.35,9.35,0,0,0-1.88-.17c-.4,0-.8,0-1.2.07s-.77.11-1.12.18a6.11,6.11,0,0,0-.93.27,2.87,2.87,0,0,0-.63.3v10.91l4.25.41V207Z"/><path class="cls-2" d="M300.06,207v-2.29l2.5-.33V191.23l-2.31-.74v-2.56l6.27-.84h.09l1.24.73v16.55l2.48.34V207Zm4.55-22.8a2.44,2.44,0,0,1-1.07-.22,2.25,2.25,0,0,1-.79-.59,2.45,2.45,0,0,1-.48-.87,3.74,3.74,0,0,1-.16-1.07,4.36,4.36,0,0,1,.18-1.26,2.94,2.94,0,0,1,.56-1,2.6,2.6,0,0,1,.93-.7,3.06,3.06,0,0,1,1.29-.26h0a3,3,0,0,1,1.21.23,2.56,2.56,0,0,1,.85.62,2.65,2.65,0,0,1,.5.88,3.28,3.28,0,0,1,.16,1,4,4,0,0,1-.19,1.27,2.66,2.66,0,0,1-.57,1,2.47,2.47,0,0,1-1,.68,3.66,3.66,0,0,1-1.43.25Z"/><path class="cls-2" d="M312.33,197.33a11.86,11.86,0,0,1,.8-4.53,9.36,9.36,0,0,1,2.14-3.21,8.56,8.56,0,0,1,3.09-1.92A10.64,10.64,0,0,1,322,187a10.46,10.46,0,0,1,3.94.69,7.8,7.8,0,0,1,2.87,2,8.75,8.75,0,0,1,1.76,3.16,14.13,14.13,0,0,1,.59,4.23,12,12,0,0,1-.8,4.61,8.91,8.91,0,0,1-2.14,3.2,8.49,8.49,0,0,1-3.07,1.87,11.12,11.12,0,0,1-3.64.6,10.44,10.44,0,0,1-3.93-.69,7.64,7.64,0,0,1-2.88-2,8.62,8.62,0,0,1-1.77-3.16A13.74,13.74,0,0,1,312.33,197.33Zm9.47,7.7a3,3,0,0,0,1.62-.41,3.12,3.12,0,0,0,1.14-1.32,8,8,0,0,0,.67-2.3,22.94,22.94,0,0,0,.21-3.35,28.48,28.48,0,0,0-.2-3.54,9.92,9.92,0,0,0-.63-2.59,3.66,3.66,0,0,0-1.14-1.58,2.82,2.82,0,0,0-1.74-.54,3.07,3.07,0,0,0-1.63.42,3.11,3.11,0,0,0-1.15,1.31,7.74,7.74,0,0,0-.69,2.3,21.5,21.5,0,0,0-.22,3.35,28.65,28.65,0,0,0,.2,3.55,10,10,0,0,0,.66,2.59,3.9,3.9,0,0,0,1.16,1.58A2.81,2.81,0,0,0,321.8,205Z"/><path class="cls-2" d="M333.78,207v-2.29l2.46-.33V191.23l-2.32-.72v-2.58l5.84-.84h.1l.91.73v1.42l0,2.67h.07a8.46,8.46,0,0,1,.74-1.38,9.72,9.72,0,0,1,1.34-1.6,8,8,0,0,1,1.83-1.34A4.62,4.62,0,0,1,347,187a5.5,5.5,0,0,1,.81,0,3,3,0,0,1,.47.11v5.92a2.7,2.7,0,0,0-1-.3,9.39,9.39,0,0,0-1.89-.17,11.87,11.87,0,0,0-1.19.07c-.4,0-.77.11-1.12.18a6.11,6.11,0,0,0-.93.27,3,3,0,0,0-.64.3v10.91l4.26.41V207Z"/><path class="cls-2" d="M350.41,207v-2.29l2.49-.33V191.23l-2.3-.74v-2.56l6.27-.84H357l1.25.73v16.55l2.48.34V207ZM355,184.2a2.47,2.47,0,0,1-1.07-.22,2.3,2.3,0,0,1-.78-.59,2.45,2.45,0,0,1-.48-.87,3.42,3.42,0,0,1-.16-1.07,4.36,4.36,0,0,1,.18-1.26,2.92,2.92,0,0,1,.55-1,2.6,2.6,0,0,1,.93-.7,3.06,3.06,0,0,1,1.29-.26h0a3,3,0,0,1,1.21.23,2.62,2.62,0,0,1,.84.62,2.51,2.51,0,0,1,.51.88,3.59,3.59,0,0,1,.16,1,4,4,0,0,1-.19,1.27,3,3,0,0,1-.57,1,2.61,2.61,0,0,1-1,.68,3.69,3.69,0,0,1-1.43.25Z"/><path class="cls-2" d="M364.93,202.9V190.32h-2.41v-1.95l.44-.14.61-.23.58-.23a1.58,1.58,0,0,0,.32-.17,5.4,5.4,0,0,0,1.22-1.64l.37-.79c.14-.3.27-.62.4-.95s.26-.66.37-1,.21-.62.29-.88h3l0,5h5v2.91h-5v9.47c0,.91,0,1.63.05,2.17a4.06,4.06,0,0,0,.2,1.21.84.84,0,0,0,.51.53,2.9,2.9,0,0,0,.94.12h0a5.36,5.36,0,0,0,.87-.07c.3,0,.59-.1.88-.16s.56-.13.81-.2l.6-.2h0l.8,2a9.09,9.09,0,0,1-1.25.78,11.24,11.24,0,0,1-1.64.71,13.54,13.54,0,0,1-1.9.52,10.45,10.45,0,0,1-2,.19h0a5.47,5.47,0,0,1-1.92-.29,3,3,0,0,1-1.29-.86,3.46,3.46,0,0,1-.7-1.41A7.46,7.46,0,0,1,364.93,202.9Z"/><path class="cls-2" d="M377.51,207v-2.29l2.5-.33V191.23l-2.31-.74v-2.56l6.27-.84h.09l1.24.73v16.55l2.48.34V207Zm4.55-22.8A2.44,2.44,0,0,1,381,184a2.34,2.34,0,0,1-.79-.59,2.45,2.45,0,0,1-.48-.87,3.74,3.74,0,0,1-.16-1.07,4.36,4.36,0,0,1,.18-1.26,2.94,2.94,0,0,1,.56-1,2.6,2.6,0,0,1,.93-.7,3.06,3.06,0,0,1,1.29-.26h0a3,3,0,0,1,1.2.23,2.56,2.56,0,0,1,.85.62,2.65,2.65,0,0,1,.5.88,3.28,3.28,0,0,1,.16,1,4.28,4.28,0,0,1-.18,1.27,2.82,2.82,0,0,1-.58,1,2.47,2.47,0,0,1-1,.68,3.64,3.64,0,0,1-1.42.25Z"/><path class="cls-2" d="M399,207.39a10.41,10.41,0,0,1-4.14-.75,7.5,7.5,0,0,1-2.85-2.09,8.59,8.59,0,0,1-1.65-3.21,14.51,14.51,0,0,1-.53-4.06,12.71,12.71,0,0,1,.67-4.29,9.26,9.26,0,0,1,1.91-3.21,8,8,0,0,1,3-2,10,10,0,0,1,3.82-.7q7.09,0,7.4,6.92c0,.78,0,1.49,0,2.13a9.32,9.32,0,0,1-.17,1.59H395.29a10.52,10.52,0,0,0,.49,2.89,5.51,5.51,0,0,0,1.08,1.95,3.82,3.82,0,0,0,1.58,1.09,5.65,5.65,0,0,0,2,.34,9.17,9.17,0,0,0,1.62-.13,11.79,11.79,0,0,0,1.39-.34,7.37,7.37,0,0,0,1.16-.47,8.93,8.93,0,0,0,.9-.49l.89,2.07a6.85,6.85,0,0,1-1.19.93,12.24,12.24,0,0,1-1.74.9,13.86,13.86,0,0,1-2.12.68A10,10,0,0,1,399,207.39Zm-.46-18a3.22,3.22,0,0,0-1.24.24,2.23,2.23,0,0,0-1,.9,6,6,0,0,0-.72,1.86,15.57,15.57,0,0,0-.35,3.06h6.13s0-.13,0-.24,0-.21,0-.32,0-.22,0-.33v-.22a13.38,13.38,0,0,0-.12-1.77,5.69,5.69,0,0,0-.44-1.59,3.05,3.05,0,0,0-.87-1.15A2.18,2.18,0,0,0,398.58,189.35Z"/><path class="cls-2" d="M409.83,205.91V201.1H413l.89,2.67a1.68,1.68,0,0,0,.47.44,3.76,3.76,0,0,0,.75.4,5.85,5.85,0,0,0,1,.28,6,6,0,0,0,1.14.11,3.84,3.84,0,0,0,1.39-.21,2.32,2.32,0,0,0,.87-.52,1.72,1.72,0,0,0,.44-.71,2.74,2.74,0,0,0,.12-.78,2.07,2.07,0,0,0-.37-1.24,3.6,3.6,0,0,0-1-1,10.67,10.67,0,0,0-1.63-.84c-.64-.28-1.35-.57-2.12-.89a14,14,0,0,1-2.12-1.07,7,7,0,0,1-1.6-1.33,5.23,5.23,0,0,1-1-1.64,5.44,5.44,0,0,1-.36-2,5,5,0,0,1,.5-2.25,5.1,5.1,0,0,1,1.5-1.79,7.43,7.43,0,0,1,2.46-1.2,12,12,0,0,1,3.4-.43,13.48,13.48,0,0,1,2,.13c.58.1,1.12.2,1.59.32s.92.25,1.32.38a9.46,9.46,0,0,0,1.16.3V193l-3,0-.8-2.27a2.4,2.4,0,0,0-.91-.76,3.52,3.52,0,0,0-1.69-.39,4.24,4.24,0,0,0-1.29.17,2.39,2.39,0,0,0-.84.46,1.74,1.74,0,0,0-.45.65,1.94,1.94,0,0,0-.14.7,2.27,2.27,0,0,0,.46,1.47,4.05,4.05,0,0,0,1.16,1,10.38,10.38,0,0,0,1.54.69c.56.2,1.09.42,1.59.64.75.34,1.47.69,2.16,1.06a8.67,8.67,0,0,1,1.81,1.29,5.57,5.57,0,0,1,1.27,1.7,5.24,5.24,0,0,1,.47,2.3,5.33,5.33,0,0,1-.49,2.3,5,5,0,0,1-1.47,1.85,7.27,7.27,0,0,1-2.46,1.23,12.28,12.28,0,0,1-3.46.44,14.5,14.5,0,0,1-2.47-.19c-.74-.12-1.42-.27-2-.43s-1.16-.33-1.63-.5S410.18,206,409.83,205.91Z"/><path class="cls-2" d="M431.43,207.29a3.33,3.33,0,0,1-1.14-.19,2.82,2.82,0,0,1-1-.54,2.61,2.61,0,0,1-.89-2,3,3,0,0,1,.27-1.29,3.55,3.55,0,0,1,.75-1,3.46,3.46,0,0,1,1.12-.69,3.56,3.56,0,0,1,1.35-.25,4.13,4.13,0,0,1,1.41.22,2.58,2.58,0,0,1,1,.6,2.18,2.18,0,0,1,.53.87A3.36,3.36,0,0,1,435,204a3.24,3.24,0,0,1-.27,1.34,3,3,0,0,1-.73,1,3.18,3.18,0,0,1-1.13.66A4.42,4.42,0,0,1,431.43,207.29Z"/></svg>