<svg id="Layer_1" data-name="Layer 1" xmlns="http://www.w3.org/2000/svg" viewBox="0 0 300 250"><defs><style>.cls-1{fill:#f1b533;}.cls-2{fill:#fff;}</style></defs><path class="cls-1" d="M26.11,228.41v-1.2l1.43-.25V216.48l-1.41-.27V215h5.69v1.18l-1.5.27v4.41h5.24v-4.41l-1.42-.27V215h5.61v1.18l-1.41.27V227l1.41.24v1.2H34.16v-1.2l1.4-.25v-4.69H30.32V227l1.5.25v1.2Z"/><path class="cls-1" d="M45.87,228.61a5.33,5.33,0,0,1-2.13-.39,3.89,3.89,0,0,1-1.47-1.07,4.44,4.44,0,0,1-.84-1.65,7.71,7.71,0,0,1-.28-2.09,6.51,6.51,0,0,1,.35-2.2,4.81,4.81,0,0,1,1-1.66,4.25,4.25,0,0,1,1.52-1,5.2,5.2,0,0,1,2-.36q3.64,0,3.81,3.56c0,.41,0,.77,0,1.1a4.45,4.45,0,0,1-.09.82H43.94a5.1,5.1,0,0,0,.26,1.48,2.94,2.94,0,0,0,.55,1,2.15,2.15,0,0,0,.81.56,3.13,3.13,0,0,0,1,.17,4.46,4.46,0,0,0,.84-.07,4.75,4.75,0,0,0,.72-.17,4,4,0,0,0,.59-.24c.18-.09.34-.17.47-.25l.45,1.06a3.41,3.41,0,0,1-.61.48,5.4,5.4,0,0,1-.9.46,6.63,6.63,0,0,1-1.09.35A5.17,5.17,0,0,1,45.87,228.61Zm-.23-9.28a1.69,1.69,0,0,0-.64.12,1.21,1.21,0,0,0-.52.47,3.19,3.19,0,0,0-.37,1,9.75,9.75,0,0,0-.18,1.58h3.16v-.12c0-.06,0-.11,0-.17v-.28A7.07,7.07,0,0,0,47,221a2.81,2.81,0,0,0-.22-.82,1.57,1.57,0,0,0-.45-.59A1.14,1.14,0,0,0,45.64,219.33Z"/><path class="cls-1" d="M51,225.74a2.74,2.74,0,0,1,.23-1.15,2.81,2.81,0,0,1,.64-.88,3.89,3.89,0,0,1,1-.64,7,7,0,0,1,1.19-.44,9.62,9.62,0,0,1,1.34-.25c.46,0,.92-.09,1.39-.1v-.42a2.05,2.05,0,0,0-.41-1.43A1.81,1.81,0,0,0,55,220a6.2,6.2,0,0,0-1,.07,8.62,8.62,0,0,0-.91.19,7.32,7.32,0,0,0-.82.24c-.25.09-.46.18-.63.26h0l-.52-1.18a4.36,4.36,0,0,1,.62-.39,8.32,8.32,0,0,1,1.06-.47,10.54,10.54,0,0,1,1.36-.39,7.13,7.13,0,0,1,1.54-.17,5.61,5.61,0,0,1,1.65.21,2.54,2.54,0,0,1,1.11.65,2.63,2.63,0,0,1,.63,1.11,5.77,5.77,0,0,1,.19,1.59v5.48h1.09v1.08l-.41.1-.54.1-.65.09c-.22,0-.46,0-.7,0a4.16,4.16,0,0,1-.54,0,.64.64,0,0,1-.36-.12.5.5,0,0,1-.2-.28,1.52,1.52,0,0,1-.06-.48v-.51a4.94,4.94,0,0,1-.41.45,3.63,3.63,0,0,1-.64.46,3.89,3.89,0,0,1-.85.37,3.74,3.74,0,0,1-1,.14,3.68,3.68,0,0,1-1.17-.17,2.69,2.69,0,0,1-1-.51,2.58,2.58,0,0,1-.64-.9A3.16,3.16,0,0,1,51,225.74Zm4.18,1.18a1.81,1.81,0,0,0,.36,0l.42-.12a4,4,0,0,0,.43-.19,2,2,0,0,0,.37-.25V223.4a5.27,5.27,0,0,0-1.43.16,2.53,2.53,0,0,0-.92.42,1.56,1.56,0,0,0-.49.61,1.94,1.94,0,0,0-.14.73,1.82,1.82,0,0,0,.35,1.19A1.33,1.33,0,0,0,55.16,226.92Z"/><path class="cls-1" d="M61.19,228.41v-1.18l1.28-.17V215.32l-1.31-.22v-1l3.43-.43h0l.55.42v13l1.33.17v1.18Z"/><path class="cls-1" d="M68.65,226.3v-6.47H67.41v-1l.22-.08.32-.11.29-.12.17-.09a2.56,2.56,0,0,0,.62-.84c.06-.12.13-.25.2-.41s.14-.32.2-.49.13-.34.19-.5.11-.32.15-.45h1.57l0,2.6H74v1.49H71.36v4.87c0,.47,0,.84,0,1.12a2.1,2.1,0,0,0,.11.62.44.44,0,0,0,.26.27,1.56,1.56,0,0,0,.48.06h0l.45,0,.45-.08.42-.11.31-.1h0l.41,1a4.62,4.62,0,0,1-.65.4,5.44,5.44,0,0,1-.84.37,7,7,0,0,1-1,.26,5.07,5.07,0,0,1-1,.1h0a3,3,0,0,1-1-.15,1.53,1.53,0,0,1-.65-.44,1.87,1.87,0,0,1-.37-.73A3.7,3.7,0,0,1,68.65,226.3Z"/><path class="cls-1" d="M75,228.41v-1.18l1.08-.17V215.32l-1.32-.22v-1l3.42-.43h0l.54.42,0,4.14-.14,1.39a6,6,0,0,1,1.39-.92,6.63,6.63,0,0,1,1-.34,4.6,4.6,0,0,1,1.13-.13,3.87,3.87,0,0,1,1.42.23,2,2,0,0,1,.89.73,3.3,3.3,0,0,1,.47,1.25,10.21,10.21,0,0,1,.13,1.78v4.87l1.24.17v1.18H81.39v-1.14l1-.2v-4.91a6.51,6.51,0,0,0-.07-1,1.8,1.8,0,0,0-.23-.73,1,1,0,0,0-.47-.41,1.91,1.91,0,0,0-.78-.14,2.74,2.74,0,0,0-.56.06,4.58,4.58,0,0,0-.56.16,3.89,3.89,0,0,0-.51.21,2.66,2.66,0,0,0-.39.24v6.56l1.2.17v1.18Z"/><path class="cls-1" d="M89.49,232.89H89.1l-.41,0-.37,0a1.19,1.19,0,0,1-.23,0v-2.15a3.67,3.67,0,0,0,.52.14,4.2,4.2,0,0,0,.92.08,2.91,2.91,0,0,0,.57-.06,1.54,1.54,0,0,0,.65-.31,3,3,0,0,0,.68-.73,6.28,6.28,0,0,0,.67-1.33H90.51l-3.16-8.7-.8-.25v-1.12h5.09v1.11l-1.33.26L92,224.92l.69,2.39.59-2.39,1.34-5.21-1.14-.26v-1.11h3.88v1.12l-.81.25c-.17.53-.35,1.11-.54,1.72l-.57,1.88c-.2.63-.39,1.24-.57,1.84s-.36,1.14-.51,1.63L94,228c-.12.35-.2.58-.25.7a8.88,8.88,0,0,1-1.76,3.09A3.26,3.26,0,0,1,89.49,232.89Z"/><path class="cls-1" d="M103.7,228.41v-1.18l1.08-.17V215.32l-1.32-.22v-1l3.42-.43h0l.54.42,0,4.14-.14,1.39a4.69,4.69,0,0,1,.59-.46,5.08,5.08,0,0,1,.8-.46,6.63,6.63,0,0,1,1-.34,4.58,4.58,0,0,1,1.12-.13,3.89,3.89,0,0,1,1.43.23,2,2,0,0,1,.89.73,3.47,3.47,0,0,1,.47,1.25,10.21,10.21,0,0,1,.13,1.78v4.87l1.24.17v1.18h-4.92v-1.14l1-.2v-4.91a8,8,0,0,0-.06-1,2,2,0,0,0-.23-.73,1,1,0,0,0-.47-.41,2,2,0,0,0-.78-.14,2.74,2.74,0,0,0-.56.06,4.58,4.58,0,0,0-.56.16,3.89,3.89,0,0,0-.51.21,2.21,2.21,0,0,0-.39.24v6.56l1.2.17v1.18Z"/><path class="cls-1" d="M120.64,228.61a5.33,5.33,0,0,1-2.13-.39,3.89,3.89,0,0,1-1.47-1.07,4.44,4.44,0,0,1-.84-1.65,7.34,7.34,0,0,1-.28-2.09,6.51,6.51,0,0,1,.35-2.2,4.81,4.81,0,0,1,1-1.66,4.25,4.25,0,0,1,1.52-1,5.2,5.2,0,0,1,2-.36q3.65,0,3.8,3.56a10.06,10.06,0,0,1,0,1.1,4.45,4.45,0,0,1-.09.82h-5.74a5.49,5.49,0,0,0,.25,1.48,3,3,0,0,0,.56,1,2.15,2.15,0,0,0,.81.56,3.09,3.09,0,0,0,1,.17,4.46,4.46,0,0,0,.84-.07,4.62,4.62,0,0,0,.71-.17,4.17,4.17,0,0,0,.6-.24l.46-.25.46,1.06a3.81,3.81,0,0,1-.61.48,5.4,5.4,0,0,1-.9.46,6.63,6.63,0,0,1-1.09.35A5.23,5.23,0,0,1,120.64,228.61Zm-.23-9.28a1.66,1.66,0,0,0-.64.12,1.21,1.21,0,0,0-.52.47,3.19,3.19,0,0,0-.37,1,7.92,7.92,0,0,0-.18,1.58h3.16v-.12c0-.06,0-.11,0-.17v-.28a7.07,7.07,0,0,0-.06-.91,2.81,2.81,0,0,0-.22-.82,1.57,1.57,0,0,0-.45-.59A1.16,1.16,0,0,0,120.41,219.33Z"/><path class="cls-1" d="M125.75,225.74a2.74,2.74,0,0,1,.23-1.15,2.81,2.81,0,0,1,.64-.88,3.89,3.89,0,0,1,1-.64,7,7,0,0,1,1.19-.44,9.35,9.35,0,0,1,1.34-.25c.46,0,.92-.09,1.39-.1v-.42a2.05,2.05,0,0,0-.41-1.43,1.82,1.82,0,0,0-1.34-.42,6.2,6.2,0,0,0-1,.07,8.81,8.81,0,0,0-.92.19,7.79,7.79,0,0,0-.81.24c-.25.09-.46.18-.64.26h0l-.52-1.18a4.36,4.36,0,0,1,.62-.39,7.73,7.73,0,0,1,1.06-.47,10.54,10.54,0,0,1,1.36-.39,7.13,7.13,0,0,1,1.54-.17,5.61,5.61,0,0,1,1.65.21,2.54,2.54,0,0,1,1.11.65,2.61,2.61,0,0,1,.62,1.11,5.39,5.39,0,0,1,.2,1.59v5.48h1.09v1.08l-.41.1-.55.1-.64.09c-.23,0-.46,0-.7,0a4.16,4.16,0,0,1-.54,0,.64.64,0,0,1-.36-.12.5.5,0,0,1-.2-.28,1.52,1.52,0,0,1-.06-.48v-.51a4.94,4.94,0,0,1-.41.45,3.63,3.63,0,0,1-.64.46,3.89,3.89,0,0,1-.85.37,3.81,3.81,0,0,1-1.05.14,3.66,3.66,0,0,1-1.16-.17,2.6,2.6,0,0,1-1-.51,2.46,2.46,0,0,1-.64-.9A3.16,3.16,0,0,1,125.75,225.74Zm4.17,1.18a1.63,1.63,0,0,0,.36,0l.43-.12a4,4,0,0,0,.43-.19,2,2,0,0,0,.37-.25V223.4a5.27,5.27,0,0,0-1.43.16,2.46,2.46,0,0,0-.92.42,1.56,1.56,0,0,0-.49.61,1.76,1.76,0,0,0-.14.73,1.82,1.82,0,0,0,.35,1.19A1.33,1.33,0,0,0,129.92,226.92Z"/><path class="cls-1" d="M136.23,228.41v-1.18l1.27-.17V220.3l-1.2-.37V218.6l3-.43h.05l.47.38v2.1h0a3.63,3.63,0,0,1,.38-.71,5.06,5.06,0,0,1,.68-.83,4.61,4.61,0,0,1,.94-.68,2.43,2.43,0,0,1,1.16-.29,2.26,2.26,0,0,1,.42,0l.24.05v3a2.16,2.16,0,0,0-.51-.15,4.57,4.57,0,0,0-1-.08c-.2,0-.41,0-.61,0s-.4.06-.58.09a4,4,0,0,0-.48.14,1.35,1.35,0,0,0-.32.16v5.61l2.19.21v1.14Z"/><path class="cls-1" d="M145.8,226.3v-6.47h-1.24v-1l.22-.08.32-.11.29-.12.17-.09a2.56,2.56,0,0,0,.62-.84c.06-.12.13-.25.2-.41s.14-.32.2-.49.13-.34.19-.5.11-.32.15-.45h1.57l0,2.6h2.59v1.49h-2.59v4.87c0,.47,0,.84,0,1.12a2.1,2.1,0,0,0,.11.62.44.44,0,0,0,.26.27,1.56,1.56,0,0,0,.48.06h0l.45,0,.45-.08.42-.11.31-.1h0l.41,1a4.62,4.62,0,0,1-.65.4,5.44,5.44,0,0,1-.84.37,7,7,0,0,1-1,.26,5.07,5.07,0,0,1-1,.1h0a2.84,2.84,0,0,1-1-.15,1.51,1.51,0,0,1-.66-.44,1.87,1.87,0,0,1-.37-.73A3.7,3.7,0,0,1,145.8,226.3Z"/><path class="cls-1" d="M152.53,227.85v-2.47h1.62l.45,1.37a1.44,1.44,0,0,0,.25.23,1.91,1.91,0,0,0,.38.2,2.36,2.36,0,0,0,.51.14,2.74,2.74,0,0,0,.59.06,2,2,0,0,0,.71-.1,1.23,1.23,0,0,0,.45-.27.83.83,0,0,0,.22-.37,1.16,1.16,0,0,0,.07-.4,1.12,1.12,0,0,0-.19-.64,2,2,0,0,0-.54-.49,5.41,5.41,0,0,0-.84-.44l-1.09-.45a7.91,7.91,0,0,1-1.09-.55,4,4,0,0,1-.82-.68,2.78,2.78,0,0,1-.52-.85,2.62,2.62,0,0,1,.84-3.12,3.86,3.86,0,0,1,1.27-.62,6.11,6.11,0,0,1,1.75-.22,6.41,6.41,0,0,1,1,.07c.3.05.57.1.82.16l.68.19a4.73,4.73,0,0,0,.59.16v2.42l-1.52,0-.42-1.17a1.08,1.08,0,0,0-.46-.39,1.86,1.86,0,0,0-.87-.2,2.13,2.13,0,0,0-.67.09,1.18,1.18,0,0,0-.43.24.9.9,0,0,0-.23.33.92.92,0,0,0-.07.36,1.14,1.14,0,0,0,.24.75,1.94,1.94,0,0,0,.59.5,5.71,5.71,0,0,0,.79.35l.82.33q.59.26,1.11.54a5,5,0,0,1,.94.67,2.92,2.92,0,0,1,.65.87,2.7,2.7,0,0,1,.24,1.18,2.91,2.91,0,0,1-.25,1.19,2.65,2.65,0,0,1-.76.95,3.72,3.72,0,0,1-1.26.63,6,6,0,0,1-1.78.23,7,7,0,0,1-1.27-.1,8.37,8.37,0,0,1-1.05-.22c-.31-.08-.59-.17-.84-.25A5.27,5.27,0,0,0,152.53,227.85Z"/><path class="cls-2" d="M167.63,227.85v-2.47h1.62l.45,1.37a1.79,1.79,0,0,0,.24.23,2.35,2.35,0,0,0,.9.34,2.74,2.74,0,0,0,.59.06,2,2,0,0,0,.71-.1,1.31,1.31,0,0,0,.45-.27.83.83,0,0,0,.22-.37,1.16,1.16,0,0,0,.07-.4,1.12,1.12,0,0,0-.19-.64,2,2,0,0,0-.54-.49,5.41,5.41,0,0,0-.84-.44l-1.09-.45a7.91,7.91,0,0,1-1.09-.55,4,4,0,0,1-.82-.68,2.78,2.78,0,0,1-.52-.85,2.82,2.82,0,0,1,.07-2.2,2.58,2.58,0,0,1,.77-.92,3.86,3.86,0,0,1,1.27-.62,6.11,6.11,0,0,1,1.75-.22,6.41,6.41,0,0,1,1,.07c.3.05.57.1.82.16l.68.19a4.73,4.73,0,0,0,.59.16v2.42l-1.52,0-.42-1.17a1.15,1.15,0,0,0-.46-.39,1.86,1.86,0,0,0-.87-.2,2.13,2.13,0,0,0-.67.09,1.18,1.18,0,0,0-.43.24.9.9,0,0,0-.23.33.92.92,0,0,0-.07.36,1.14,1.14,0,0,0,.24.75,1.94,1.94,0,0,0,.59.5,5.71,5.71,0,0,0,.79.35l.82.33q.59.26,1.11.54a5,5,0,0,1,.94.67,3.1,3.1,0,0,1,.65.87,2.7,2.7,0,0,1,.24,1.18,2.91,2.91,0,0,1-.25,1.19,2.65,2.65,0,0,1-.76.95,3.72,3.72,0,0,1-1.26.63,6,6,0,0,1-1.78.23,7,7,0,0,1-1.27-.1,8.37,8.37,0,0,1-1-.22c-.31-.08-.59-.17-.84-.25A5.27,5.27,0,0,0,167.63,227.85Z"/><path class="cls-2" d="M177.82,226.3v-6.47h-1.24v-1l.23-.08.32-.11.29-.12.17-.09a2.71,2.71,0,0,0,.62-.84l.19-.41c.07-.15.14-.32.21-.49s.13-.34.19-.5.11-.32.15-.45h1.56l0,2.6h2.58v1.49h-2.58v4.87c0,.47,0,.84,0,1.12a2.1,2.1,0,0,0,.11.62.41.41,0,0,0,.26.27,1.52,1.52,0,0,0,.48.06h0l.44,0,.46-.08.41-.11.31-.1h0l.42,1a4.62,4.62,0,0,1-.65.4,5.9,5.9,0,0,1-.84.37,7.4,7.4,0,0,1-1,.26,5.14,5.14,0,0,1-1,.1h0a2.87,2.87,0,0,1-1-.15,1.63,1.63,0,0,1-.66-.44,1.85,1.85,0,0,1-.36-.73A3.68,3.68,0,0,1,177.82,226.3Z"/><path class="cls-2" d="M184.12,225.74a2.6,2.6,0,0,1,.23-1.15,2.81,2.81,0,0,1,.64-.88,3.66,3.66,0,0,1,1-.64,7.08,7.08,0,0,1,1.2-.44,9.35,9.35,0,0,1,1.34-.25c.46,0,.92-.09,1.38-.1v-.42a2.05,2.05,0,0,0-.4-1.43,1.83,1.83,0,0,0-1.35-.42,6.16,6.16,0,0,0-1,.07,8.81,8.81,0,0,0-.92.19,7.79,7.79,0,0,0-.81.24c-.25.09-.46.18-.64.26h0l-.51-1.18a4.36,4.36,0,0,1,.62-.39,7.56,7.56,0,0,1,1-.47,10.71,10.71,0,0,1,1.37-.39,7,7,0,0,1,1.53-.17,5.68,5.68,0,0,1,1.66.21,2.43,2.43,0,0,1,1.73,1.76,5.75,5.75,0,0,1,.2,1.59v5.48h1.09v1.08l-.41.1-.55.1-.64.09c-.23,0-.46,0-.7,0a4.16,4.16,0,0,1-.54,0,.64.64,0,0,1-.36-.12.5.5,0,0,1-.2-.28,1.52,1.52,0,0,1-.06-.48v-.51a4,4,0,0,1-.42.45,3.21,3.21,0,0,1-.63.46,3.58,3.58,0,0,1-1.9.51,3.76,3.76,0,0,1-1.17-.17,2.64,2.64,0,0,1-.95-.51,2.61,2.61,0,0,1-.65-.9A3.34,3.34,0,0,1,184.12,225.74Zm4.17,1.18a1.63,1.63,0,0,0,.36,0,3.29,3.29,0,0,0,.85-.31,1.5,1.5,0,0,0,.37-.25V223.4a5.24,5.24,0,0,0-1.42.16,2.46,2.46,0,0,0-.92.42,1.56,1.56,0,0,0-.49.61,2,2,0,0,0,.21,1.92A1.31,1.31,0,0,0,188.29,226.92Z"/><path class="cls-2" d="M194.6,228.41v-1.18l1.27-.17V220.3l-1.2-.37V218.6l3-.43h0l.47.38v2.1h0a3.78,3.78,0,0,1,.39-.71,5.06,5.06,0,0,1,.68-.83,4.35,4.35,0,0,1,.94-.68,2.43,2.43,0,0,1,1.16-.29,2.26,2.26,0,0,1,.42,0l.24.05v3a2.34,2.34,0,0,0-.51-.15,4.57,4.57,0,0,0-1-.08c-.2,0-.41,0-.61,0s-.4.06-.58.09a4,4,0,0,0-.48.14,1.35,1.35,0,0,0-.32.16v5.61l2.18.21v1.14Z"/><path class="cls-2" d="M204.17,226.3v-6.47h-1.24v-1l.22-.08.32-.11.29-.12.17-.09a2.71,2.71,0,0,0,.62-.84l.2-.41c.07-.15.13-.32.2-.49s.13-.34.19-.5.11-.32.15-.45h1.56l0,2.6h2.58v1.49h-2.58v4.87c0,.47,0,.84,0,1.12a2.1,2.1,0,0,0,.11.62.41.41,0,0,0,.26.27,1.52,1.52,0,0,0,.48.06h0l.44,0,.46-.08.41-.11.32-.1h0l.42,1a4.62,4.62,0,0,1-.65.4,5.44,5.44,0,0,1-.84.37,7,7,0,0,1-1,.26,5.07,5.07,0,0,1-1,.1h0a3,3,0,0,1-1-.15,1.63,1.63,0,0,1-.66-.44,2,2,0,0,1-.36-.73A3.7,3.7,0,0,1,204.17,226.3Z"/><path class="cls-2" d="M216.19,228.41v-1.18l1.08-.17V215.32L216,215.1v-1l3.42-.43h0l.54.42,0,4.14-.14,1.39a6,6,0,0,1,1.39-.92,6.63,6.63,0,0,1,1-.34,4.6,4.6,0,0,1,1.13-.13,3.87,3.87,0,0,1,1.42.23,2,2,0,0,1,.89.73,3.3,3.3,0,0,1,.47,1.25,10.21,10.21,0,0,1,.13,1.78v4.87l1.24.17v1.18h-4.92v-1.14l1-.2v-4.91a6.51,6.51,0,0,0-.07-1,1.8,1.8,0,0,0-.23-.73,1,1,0,0,0-.47-.41,1.94,1.94,0,0,0-.78-.14,2.74,2.74,0,0,0-.56.06,4.58,4.58,0,0,0-.56.16,3.89,3.89,0,0,0-.51.21,2.66,2.66,0,0,0-.39.24v6.56l1.2.17v1.18Z"/><path class="cls-2" d="M233.13,228.61a5.33,5.33,0,0,1-2.13-.39,3.89,3.89,0,0,1-1.47-1.07,4.44,4.44,0,0,1-.84-1.65,7.34,7.34,0,0,1-.28-2.09,6.51,6.51,0,0,1,.35-2.2,4.81,4.81,0,0,1,1-1.66,4.25,4.25,0,0,1,1.52-1,5.2,5.2,0,0,1,2-.36q3.65,0,3.81,3.56c0,.41,0,.77,0,1.1a4.45,4.45,0,0,1-.09.82H231.2a5.1,5.1,0,0,0,.26,1.48,2.94,2.94,0,0,0,.55,1,2.15,2.15,0,0,0,.81.56,3.13,3.13,0,0,0,1,.17,4.46,4.46,0,0,0,.84-.07,4.75,4.75,0,0,0,.72-.17,4,4,0,0,0,.59-.24,4.57,4.57,0,0,0,.46-.25l.46,1.06a3.41,3.41,0,0,1-.61.48,5.4,5.4,0,0,1-.9.46,6.63,6.63,0,0,1-1.09.35A5.17,5.17,0,0,1,233.13,228.61Zm-.23-9.28a1.69,1.69,0,0,0-.64.12,1.21,1.21,0,0,0-.52.47,3.19,3.19,0,0,0-.37,1,7.92,7.92,0,0,0-.18,1.58h3.16v-.12c0-.06,0-.11,0-.17v-.28a7.07,7.07,0,0,0-.06-.91,2.81,2.81,0,0,0-.22-.82,1.57,1.57,0,0,0-.45-.59A1.14,1.14,0,0,0,232.9,219.33Z"/><path class="cls-2" d="M238.47,228.41v-1.18l1.26-.17V220.3l-1.19-.37V218.6l3-.43h.06l.46.38v2.1h0a4.28,4.28,0,0,1,.38-.71,5.73,5.73,0,0,1,.69-.83,4.12,4.12,0,0,1,.94-.68,2.39,2.39,0,0,1,1.15-.29,2.19,2.19,0,0,1,.42,0,1.11,1.11,0,0,1,.24.05v3a2,2,0,0,0-.5-.15,4.63,4.63,0,0,0-1-.08c-.21,0-.41,0-.62,0s-.4.06-.57.09a4,4,0,0,0-.48.14,1.7,1.7,0,0,0-.33.16v5.61l2.19.21v1.14Z"/><path class="cls-2" d="M251.63,228.61a5.33,5.33,0,0,1-2.13-.39,3.77,3.77,0,0,1-1.46-1.07,4.31,4.31,0,0,1-.85-1.65,7.71,7.71,0,0,1-.27-2.09,6.52,6.52,0,0,1,.34-2.2,4.81,4.81,0,0,1,1-1.66,4.25,4.25,0,0,1,1.52-1,5.2,5.2,0,0,1,2-.36q3.65,0,3.81,3.56c0,.41,0,.77,0,1.1a4.45,4.45,0,0,1-.09.82H249.7a5.46,5.46,0,0,0,.26,1.48,2.94,2.94,0,0,0,.55,1,2.15,2.15,0,0,0,.81.56,3.15,3.15,0,0,0,1,.17,4.43,4.43,0,0,0,.83-.07,4.75,4.75,0,0,0,.72-.17,3.62,3.62,0,0,0,.59-.24c.18-.09.34-.17.47-.25l.45,1.06a3.41,3.41,0,0,1-.61.48,5.69,5.69,0,0,1-.89.46,7,7,0,0,1-1.09.35A5.32,5.32,0,0,1,251.63,228.61Zm-.23-9.28a1.69,1.69,0,0,0-.64.12,1.21,1.21,0,0,0-.52.47,3.19,3.19,0,0,0-.37,1,9.75,9.75,0,0,0-.18,1.58h3.16v-.12c0-.06,0-.11,0-.17s0-.11,0-.17v-.11a7.11,7.11,0,0,0-.07-.91,2.81,2.81,0,0,0-.22-.82,1.57,1.57,0,0,0-.45-.59A1.14,1.14,0,0,0,251.4,219.33Z"/><path class="cls-2" d="M259.2,228.56a1.7,1.7,0,0,1-.59-.1,1.49,1.49,0,0,1-.49-.28,1.31,1.31,0,0,1-.33-.44,1.42,1.42,0,0,1-.13-.59,1.59,1.59,0,0,1,.14-.66,1.87,1.87,0,0,1,.39-.53,1.9,1.9,0,0,1,.57-.36,2,2,0,0,1,.7-.13,2,2,0,0,1,.73.12,1.18,1.18,0,0,1,.48.31,1.07,1.07,0,0,1,.28.44,2,2,0,0,1,.08.55,1.65,1.65,0,0,1-.14.68,1.45,1.45,0,0,1-.37.53,1.77,1.77,0,0,1-.58.34A2.21,2.21,0,0,1,259.2,228.56Z"/></svg>