<svg id="Layer_1" data-name="Layer 1" xmlns="http://www.w3.org/2000/svg" viewBox="0 0 728 90"><defs><style>.cls-1{fill:#f1b533;}.cls-2{fill:#fff;}</style></defs><path class="cls-1" d="M37.52,57V54.29l3.19-.55V30.46l-3.13-.61V27.24H50.22v2.61l-3.34.61v9.78H58.54V30.46l-3.17-.61V27.24H67.83v2.61l-3.12.61v23.3l3.12.53V57H55.41V54.29l3.13-.55V43.33H46.88V53.74l3.34.55V57Z"/><path class="cls-1" d="M81.45,57.41a11.74,11.74,0,0,1-4.74-.86,8.62,8.62,0,0,1-3.26-2.39,9.78,9.78,0,0,1-1.88-3.66A16.71,16.71,0,0,1,71,45.85,14.59,14.59,0,0,1,71.73,41a10.47,10.47,0,0,1,2.18-3.67A9.29,9.29,0,0,1,77.29,35a11.57,11.57,0,0,1,4.37-.8q8.11,0,8.46,7.91c0,.9,0,1.71,0,2.43a12,12,0,0,1-.2,1.83H77.15a12.4,12.4,0,0,0,.57,3.3A6.51,6.51,0,0,0,79,51.87a4.65,4.65,0,0,0,1.8,1.25,6.57,6.57,0,0,0,2.3.39,10.92,10.92,0,0,0,1.86-.16A11.56,11.56,0,0,0,86.5,53a9.7,9.7,0,0,0,1.33-.53,11.43,11.43,0,0,0,1-.56l1,2.36a7.58,7.58,0,0,1-1.36,1.06,13.2,13.2,0,0,1-2,1,16.48,16.48,0,0,1-2.43.78A11.09,11.09,0,0,1,81.45,57.41Zm-.53-20.62a3.7,3.7,0,0,0-1.42.27,2.62,2.62,0,0,0-1.15,1,6.87,6.87,0,0,0-.82,2.11,18.92,18.92,0,0,0-.4,3.51h7c0-.06,0-.16,0-.27s0-.24,0-.37,0-.26,0-.37v-.26a15.44,15.44,0,0,0-.13-2,7,7,0,0,0-.5-1.83,3.55,3.55,0,0,0-1-1.31A2.58,2.58,0,0,0,80.92,36.79Z"/><path class="cls-1" d="M92.8,51a6.06,6.06,0,0,1,.51-2.56,6.15,6.15,0,0,1,1.43-2,8.39,8.39,0,0,1,2.14-1.42,15.94,15.94,0,0,1,2.65-1,21.38,21.38,0,0,1,3-.56q1.55-.16,3.09-.21v-.94a4.48,4.48,0,0,0-.91-3.17,4,4,0,0,0-3-1,13.87,13.87,0,0,0-2.12.17,20.44,20.44,0,0,0-2,.41,17.55,17.55,0,0,0-1.8.54c-.56.21-1,.4-1.42.58h0l-1.15-2.62a10.2,10.2,0,0,1,1.38-.87,19.18,19.18,0,0,1,2.35-1,23.32,23.32,0,0,1,3-.88,15.36,15.36,0,0,1,3.41-.37,12.57,12.57,0,0,1,3.68.47,5.76,5.76,0,0,1,2.47,1.44,5.85,5.85,0,0,1,1.38,2.47,12.33,12.33,0,0,1,.44,3.53V54.31h2.42v2.4l-.91.2c-.37.09-.77.17-1.22.24s-.91.13-1.42.18a13.36,13.36,0,0,1-1.56.08,10.18,10.18,0,0,1-1.2-.06,1.8,1.8,0,0,1-.81-.27,1.18,1.18,0,0,1-.43-.62,3.14,3.14,0,0,1-.14-1.08V54.25a7.23,7.23,0,0,1-.92,1,7.79,7.79,0,0,1-1.42,1,8.73,8.73,0,0,1-1.88.81,8.08,8.08,0,0,1-2.32.32,8.69,8.69,0,0,1-2.6-.37,5.81,5.81,0,0,1-2.12-1.15,5.43,5.43,0,0,1-1.44-2A7.21,7.21,0,0,1,92.8,51Zm9.27,2.61a3.49,3.49,0,0,0,.8-.1,6.12,6.12,0,0,0,.94-.27,8.2,8.2,0,0,0,1-.42,4.08,4.08,0,0,0,.82-.56V45.83a12.34,12.34,0,0,0-3.17.35,6,6,0,0,0-2,.94,3.36,3.36,0,0,0-1.08,1.35A4.14,4.14,0,0,0,99,50.09a3.87,3.87,0,0,0,.79,2.64A2.89,2.89,0,0,0,102.07,53.64Z"/><path class="cls-1" d="M115.49,57V54.35l2.83-.39V27.88l-2.91-.49V25.11l7.64-1h.06l1.23.92V54l3,.39V57Z"/><path class="cls-1" d="M132.05,52.28V37.9H129.3V35.67a5,5,0,0,0,.5-.16l.7-.27c.24-.09.46-.17.66-.26a2.29,2.29,0,0,0,.37-.19,6,6,0,0,0,1.38-1.87c.13-.26.28-.56.43-.91s.31-.7.46-1.08.29-.75.42-1.13.24-.7.33-1H138l.06,5.78h5.74V37.9h-5.74V48.72c0,1,0,1.87,0,2.48a4.72,4.72,0,0,0,.23,1.39,1,1,0,0,0,.58.6,3.38,3.38,0,0,0,1.07.14h0a7.06,7.06,0,0,0,1-.08c.34,0,.68-.11,1-.18a8.73,8.73,0,0,0,.92-.24l.7-.22h0l.92,2.28a10.48,10.48,0,0,1-1.43.9,13.62,13.62,0,0,1-1.88.81,15.27,15.27,0,0,1-2.17.59,11.77,11.77,0,0,1-2.29.22h0a6.49,6.49,0,0,1-2.2-.33,3.39,3.39,0,0,1-1.46-1,4,4,0,0,1-.81-1.61A8.57,8.57,0,0,1,132.05,52.28Z"/><path class="cls-1" d="M146.21,57V54.35l2.41-.39V27.88l-2.93-.49V25.11l7.59-1h.1l1.19.92,0,9.2-.31,3.1a12.54,12.54,0,0,1,3.11-2,12.84,12.84,0,0,1,2.17-.76,10.11,10.11,0,0,1,2.49-.3,8.27,8.27,0,0,1,3.17.52,4.46,4.46,0,0,1,2,1.63,7.2,7.2,0,0,1,1,2.76,21.6,21.6,0,0,1,.31,4V54l2.75.39V57H160.37V54.42l2.17-.43V43.08a17.66,17.66,0,0,0-.13-2.34,4.42,4.42,0,0,0-.52-1.61,2.39,2.39,0,0,0-1.06-.93,4.26,4.26,0,0,0-1.73-.3,6.14,6.14,0,0,0-1.25.14,9.82,9.82,0,0,0-1.24.34,9.4,9.4,0,0,0-1.12.47,5.38,5.38,0,0,0-.88.53V54l2.68.39V57Z"/><path class="cls-1" d="M178.36,66.92c-.26,0-.54,0-.86,0l-.92-.05-.81-.09a2.23,2.23,0,0,1-.51-.11V61.87a7,7,0,0,0,1.16.32,10.17,10.17,0,0,0,2,.18,6.69,6.69,0,0,0,1.28-.13,3.54,3.54,0,0,0,1.43-.69,6.92,6.92,0,0,0,1.51-1.63,13.74,13.74,0,0,0,1.48-3h-3.51l-7-19.33-1.78-.55v-2.5h11.31v2.48l-3,.57,3.73,11.58,1.52,5.31,1.33-5.31,3-11.58-2.54-.57V34.58h8.63v2.5l-1.79.55c-.38,1.18-.78,2.46-1.21,3.83s-.84,2.77-1.27,4.16-.86,2.77-1.27,4.1-.8,2.54-1.14,3.63-.63,2-.89,2.79-.44,1.29-.55,1.57a19.85,19.85,0,0,1-3.91,6.86A7.24,7.24,0,0,1,178.36,66.92Z"/><path class="cls-1" d="M209.94,57V54.35l2.41-.39V27.88l-2.93-.49V25.11l7.59-1h.1l1.19.92,0,9.2-.31,3.1a12.54,12.54,0,0,1,3.11-2,13.16,13.16,0,0,1,2.17-.76,10.11,10.11,0,0,1,2.49-.3,8.27,8.27,0,0,1,3.17.52,4.46,4.46,0,0,1,2,1.63,7.37,7.37,0,0,1,1,2.76,22.61,22.61,0,0,1,.3,4V54l2.75.39V57H224.1V54.42l2.17-.43V43.08a17.66,17.66,0,0,0-.13-2.34,4.42,4.42,0,0,0-.52-1.61,2.39,2.39,0,0,0-1.06-.93,4.26,4.26,0,0,0-1.73-.3,6.14,6.14,0,0,0-1.25.14,10.31,10.31,0,0,0-1.24.34,9.4,9.4,0,0,0-1.12.47,5.38,5.38,0,0,0-.88.53V54l2.68.39V57Z"/><path class="cls-1" d="M247.6,57.41a11.77,11.77,0,0,1-4.74-.86,8.69,8.69,0,0,1-3.26-2.39,9.78,9.78,0,0,1-1.88-3.66,16.71,16.71,0,0,1-.61-4.65,14.59,14.59,0,0,1,.77-4.89,10.47,10.47,0,0,1,2.18-3.67A9.37,9.37,0,0,1,243.44,35a11.58,11.58,0,0,1,4.38-.8q8.1,0,8.45,7.91c0,.9,0,1.71,0,2.43a12,12,0,0,1-.2,1.83H243.3a12.4,12.4,0,0,0,.57,3.3,6.51,6.51,0,0,0,1.23,2.23,4.61,4.61,0,0,0,1.81,1.25,6.47,6.47,0,0,0,2.29.39,10.83,10.83,0,0,0,1.86-.16,11.56,11.56,0,0,0,1.59-.39,9.7,9.7,0,0,0,1.33-.53,10.18,10.18,0,0,0,1-.56l1,2.36a7.58,7.58,0,0,1-1.36,1.06,12.74,12.74,0,0,1-2,1,16.73,16.73,0,0,1-2.42.78A11.23,11.23,0,0,1,247.6,57.41Zm-.53-20.62a3.65,3.65,0,0,0-1.41.27,2.64,2.64,0,0,0-1.16,1,6.87,6.87,0,0,0-.82,2.11,19.82,19.82,0,0,0-.4,3.51h7c0-.06,0-.16,0-.27s0-.24,0-.37v-.63a15.44,15.44,0,0,0-.13-2,6.63,6.63,0,0,0-.5-1.83,3.45,3.45,0,0,0-1-1.31A2.56,2.56,0,0,0,247.07,36.79Z"/><path class="cls-1" d="M259,51a5.91,5.91,0,0,1,.52-2.56,6.12,6.12,0,0,1,1.42-2A8.57,8.57,0,0,1,263,45.09a16.06,16.06,0,0,1,2.66-1,21.38,21.38,0,0,1,3-.56c1-.11,2-.18,3.08-.21v-.94a4.48,4.48,0,0,0-.91-3.17,4,4,0,0,0-3-1,13.64,13.64,0,0,0-2.11.17,20.64,20.64,0,0,0-2.05.41,17.55,17.55,0,0,0-1.8.54c-.56.21-1,.4-1.42.58h0l-1.15-2.62a10.47,10.47,0,0,1,1.39-.87,19,19,0,0,1,2.34-1,23.32,23.32,0,0,1,3-.88,15.38,15.38,0,0,1,3.42-.37,12.67,12.67,0,0,1,3.68.47,5.66,5.66,0,0,1,2.46,1.44A5.85,5.85,0,0,1,277,38.59a12.33,12.33,0,0,1,.44,3.53V54.31h2.43v2.4l-.92.2c-.37.09-.77.17-1.21.24s-.92.13-1.43.18a13.36,13.36,0,0,1-1.56.08,10.18,10.18,0,0,1-1.2-.06,1.76,1.76,0,0,1-.8-.27,1.14,1.14,0,0,1-.44-.62,3.4,3.4,0,0,1-.14-1.08V54.25a7.23,7.23,0,0,1-.92,1,8.05,8.05,0,0,1-1.41,1,8.82,8.82,0,0,1-1.89.81,8.08,8.08,0,0,1-2.32.32A8.74,8.74,0,0,1,263,57a5.89,5.89,0,0,1-2.12-1.15,5.53,5.53,0,0,1-1.43-2A7,7,0,0,1,259,51Zm9.28,2.61a3.56,3.56,0,0,0,.8-.1,6,6,0,0,0,.93-.27,8.2,8.2,0,0,0,1-.42,3.82,3.82,0,0,0,.82-.56V45.83a12.34,12.34,0,0,0-3.17.35,5.87,5.87,0,0,0-2,.94,3.39,3.39,0,0,0-1.09,1.35,4.14,4.14,0,0,0-.32,1.62,3.87,3.87,0,0,0,.79,2.64A2.9,2.9,0,0,0,268.23,53.64Z"/><path class="cls-1" d="M282.25,57V54.35l2.81-.38v-15l-2.65-.82V35.17l6.67-1h.12l1,.84v1.62l0,3h.08a8.47,8.47,0,0,1,.85-1.58,10.54,10.54,0,0,1,1.52-1.83,9,9,0,0,1,2.09-1.52,5.27,5.27,0,0,1,2.57-.64,6.87,6.87,0,0,1,.92.05,2.14,2.14,0,0,1,.54.13v6.75a4,4,0,0,0-1.12-.34,11.33,11.33,0,0,0-2.16-.18,12.57,12.57,0,0,0-1.37.07c-.45.06-.88.12-1.28.21a8,8,0,0,0-1.06.3,4,4,0,0,0-.72.35V54l4.86.46V57Z"/><path class="cls-1" d="M303.5,52.28V37.9h-2.75V35.67a4.31,4.31,0,0,0,.49-.16l.71-.27c.24-.09.46-.17.65-.26a1.63,1.63,0,0,0,.37-.19,6,6,0,0,0,1.39-1.87c.13-.26.27-.56.43-.91s.31-.7.46-1.08.29-.75.42-1.13.24-.7.33-1h3.48l0,5.78h5.75V37.9h-5.75V48.72c0,1,0,1.87.05,2.48a4.67,4.67,0,0,0,.24,1.39,1,1,0,0,0,.57.6,3.4,3.4,0,0,0,1.08.14h0a6.8,6.8,0,0,0,1-.08q.52-.07,1-.18a9.42,9.42,0,0,0,.92-.24l.69-.22h0l.92,2.28a10,10,0,0,1-1.44.9,13.48,13.48,0,0,1-1.87.81,16,16,0,0,1-2.17.59,11.87,11.87,0,0,1-2.3.22h0a6.45,6.45,0,0,1-2.2-.33,3.36,3.36,0,0,1-1.47-1,4,4,0,0,1-.81-1.61A8.59,8.59,0,0,1,303.5,52.28Z"/><path class="cls-1" d="M318.46,55.71V50.22h3.59l1,3.05a2.23,2.23,0,0,0,.54.51,3.84,3.84,0,0,0,.86.45,6.93,6.93,0,0,0,2.43.45,4.44,4.44,0,0,0,1.59-.24,2.8,2.8,0,0,0,1-.59A2,2,0,0,0,330,53a3.22,3.22,0,0,0,.14-.89,2.41,2.41,0,0,0-.42-1.42,4.37,4.37,0,0,0-1.19-1.09,12.9,12.9,0,0,0-1.87-1c-.73-.31-1.53-.65-2.42-1a16.07,16.07,0,0,1-2.42-1.22A8.41,8.41,0,0,1,320,44.91,6.16,6.16,0,0,1,318.81,43a6.36,6.36,0,0,1-.41-2.33,5.66,5.66,0,0,1,2.29-4.62,8.46,8.46,0,0,1,2.81-1.36,13.41,13.41,0,0,1,3.89-.5,15.61,15.61,0,0,1,2.29.15c.67.11,1.28.23,1.83.37s1,.28,1.5.43a10.41,10.41,0,0,0,1.33.34v5.39l-3.4-.06-.92-2.6a2.65,2.65,0,0,0-1-.87,4.24,4.24,0,0,0-1.94-.44,4.79,4.79,0,0,0-1.47.2,2.45,2.45,0,0,0-1,.53,2,2,0,0,0-.52.73,2.32,2.32,0,0,0-.15.81,2.53,2.53,0,0,0,.53,1.67A4.46,4.46,0,0,0,325.8,42a10.9,10.9,0,0,0,1.76.79c.64.23,1.24.48,1.82.74q1.29.56,2.46,1.2a10.22,10.22,0,0,1,2.08,1.47,6.5,6.5,0,0,1,1.44,1.94,6,6,0,0,1,.54,2.63,6.13,6.13,0,0,1-.56,2.64,5.82,5.82,0,0,1-1.67,2.11,8.1,8.1,0,0,1-2.82,1.4,13.67,13.67,0,0,1-4,.51,17.42,17.42,0,0,1-2.82-.21c-.86-.15-1.63-.31-2.33-.5s-1.32-.38-1.86-.57A13.7,13.7,0,0,0,318.46,55.71Z"/><path class="cls-2" d="M352,55.71V50.22h3.6l1,3.05a2.23,2.23,0,0,0,.54.51,4.07,4.07,0,0,0,.86.45,6.46,6.46,0,0,0,1.12.32,6.26,6.26,0,0,0,1.31.13,4.44,4.44,0,0,0,1.59-.24,2.8,2.8,0,0,0,1-.59,1.89,1.89,0,0,0,.51-.82,3.19,3.19,0,0,0,.13-.89,2.34,2.34,0,0,0-.42-1.42,4.23,4.23,0,0,0-1.19-1.09,12.25,12.25,0,0,0-1.86-1l-2.42-1a16.2,16.2,0,0,1-2.43-1.22,8.59,8.59,0,0,1-1.82-1.52,6,6,0,0,1-1.57-4.2,5.86,5.86,0,0,1,.57-2.57,6,6,0,0,1,1.71-2,8.56,8.56,0,0,1,2.81-1.36,13.45,13.45,0,0,1,3.89-.5,15.85,15.85,0,0,1,2.3.15c.67.11,1.27.23,1.82.37s1.05.28,1.51.43a9.87,9.87,0,0,0,1.32.34v5.39l-3.39-.06-.92-2.6a2.77,2.77,0,0,0-1-.87,4.2,4.2,0,0,0-1.93-.44,4.81,4.81,0,0,0-1.48.2,2.48,2.48,0,0,0-.95.53,1.9,1.9,0,0,0-.52.73,2.13,2.13,0,0,0-.16.81,2.59,2.59,0,0,0,.53,1.67,4.38,4.38,0,0,0,1.33,1.1,10.53,10.53,0,0,0,1.76.79c.63.23,1.24.48,1.81.74q1.29.56,2.46,1.2a10,10,0,0,1,2.08,1.47,6.53,6.53,0,0,1,1.45,1.94,6,6,0,0,1,.54,2.63,6.28,6.28,0,0,1-.56,2.64,5.74,5.74,0,0,1-1.68,2.11,8.13,8.13,0,0,1-2.81,1.4,13.79,13.79,0,0,1-4,.51,17.42,17.42,0,0,1-2.82-.21c-.85-.15-1.63-.31-2.32-.5s-1.32-.38-1.87-.57A13,13,0,0,0,352,55.71Z"/><path class="cls-2" d="M374.67,52.28V37.9h-2.75V35.67a5,5,0,0,0,.5-.16l.7-.27c.24-.09.46-.17.65-.26a1.63,1.63,0,0,0,.37-.19,5.88,5.88,0,0,0,1.39-1.87c.13-.26.27-.56.43-.91s.31-.7.46-1.08.29-.75.42-1.13.24-.7.33-1h3.48l.06,5.78h5.74V37.9h-5.74V48.72c0,1,0,1.87,0,2.48a5,5,0,0,0,.24,1.39.94.94,0,0,0,.58.6,3.34,3.34,0,0,0,1.07.14h0a7.06,7.06,0,0,0,1-.08c.34,0,.68-.11,1-.18a9.42,9.42,0,0,0,.92-.24l.69-.22h0l.92,2.28a10,10,0,0,1-1.44.9,13.48,13.48,0,0,1-1.87.81,15.65,15.65,0,0,1-2.17.59,11.77,11.77,0,0,1-2.29.22h0a6.49,6.49,0,0,1-2.2-.33,3.33,3.33,0,0,1-1.46-1,3.9,3.9,0,0,1-.82-1.61A9.06,9.06,0,0,1,374.67,52.28Z"/><path class="cls-2" d="M388.66,51a6.06,6.06,0,0,1,.51-2.56,6.15,6.15,0,0,1,1.43-2,8.39,8.39,0,0,1,2.14-1.42,15.94,15.94,0,0,1,2.65-1,21.38,21.38,0,0,1,3-.56q1.54-.16,3.09-.21v-.94a4.48,4.48,0,0,0-.91-3.17,4,4,0,0,0-3-1,13.87,13.87,0,0,0-2.12.17,20.44,20.44,0,0,0-2,.41,18.56,18.56,0,0,0-1.81.54c-.55.21-1,.4-1.41.58h0L389,37.37a10.2,10.2,0,0,1,1.38-.87,19.18,19.18,0,0,1,2.35-1,23.63,23.63,0,0,1,3-.88,15.52,15.52,0,0,1,3.42-.37,12.57,12.57,0,0,1,3.68.47,5.76,5.76,0,0,1,2.47,1.44,5.85,5.85,0,0,1,1.38,2.47,12.7,12.7,0,0,1,.44,3.53V54.31h2.42v2.4l-.91.2c-.37.09-.77.17-1.22.24s-.91.13-1.42.18a13.36,13.36,0,0,1-1.56.08,10.49,10.49,0,0,1-1.21-.06,1.8,1.8,0,0,1-.8-.27,1.26,1.26,0,0,1-.44-.62,3.45,3.45,0,0,1-.13-1.08V54.25a7.23,7.23,0,0,1-.92,1,7.79,7.79,0,0,1-1.42,1,8.73,8.73,0,0,1-1.88.81,8.1,8.1,0,0,1-2.33.32,8.67,8.67,0,0,1-2.59-.37,5.81,5.81,0,0,1-2.12-1.15,5.43,5.43,0,0,1-1.44-2A7.21,7.21,0,0,1,388.66,51Zm9.27,2.61a3.49,3.49,0,0,0,.8-.1,6.12,6.12,0,0,0,.94-.27,8.2,8.2,0,0,0,1-.42,4.08,4.08,0,0,0,.82-.56V45.83a12.48,12.48,0,0,0-3.18.35,6.05,6.05,0,0,0-2,.94,3.36,3.36,0,0,0-1.08,1.35,4,4,0,0,0-.32,1.62,3.87,3.87,0,0,0,.79,2.64A2.89,2.89,0,0,0,397.93,53.64Z"/><path class="cls-2" d="M412,57V54.35l2.81-.38v-15l-2.66-.82V35.17l6.68-1h.12l1,.84v1.62l0,3H420a9.12,9.12,0,0,1,.85-1.58,10.61,10.61,0,0,1,1.53-1.83,9,9,0,0,1,2.09-1.52,5.23,5.23,0,0,1,2.56-.64,6.93,6.93,0,0,1,.93.05,2.14,2.14,0,0,1,.54.13v6.75a4,4,0,0,0-1.12-.34,11.33,11.33,0,0,0-2.16-.18,12.57,12.57,0,0,0-1.37.07c-.46.06-.88.12-1.28.21a7.57,7.57,0,0,0-1.06.3,3.86,3.86,0,0,0-.73.35V54l4.87.46V57Z"/><path class="cls-2" d="M433.21,52.28V37.9h-2.76V35.67a4.31,4.31,0,0,0,.5-.16l.7-.27c.24-.09.46-.17.66-.26a1.9,1.9,0,0,0,.37-.19,6.2,6.2,0,0,0,1.39-1.87c.13-.26.27-.56.43-.91s.3-.7.45-1.08.29-.75.42-1.13.25-.7.34-1h3.47l.06,5.78H445V37.9h-5.74V48.72c0,1,0,1.87.05,2.48a4.72,4.72,0,0,0,.23,1.39,1,1,0,0,0,.58.6,3.38,3.38,0,0,0,1.07.14h0a6.83,6.83,0,0,0,1-.08c.35,0,.68-.11,1-.18a9.2,9.2,0,0,0,.91-.24l.7-.22h0l.92,2.28a10.64,10.64,0,0,1-1.44.9,13.62,13.62,0,0,1-1.88.81,15.5,15.5,0,0,1-2.16.59,11.94,11.94,0,0,1-2.3.22h0a6.39,6.39,0,0,1-2.19-.33,3.36,3.36,0,0,1-1.47-1,4,4,0,0,1-.81-1.61A8.59,8.59,0,0,1,433.21,52.28Z"/><path class="cls-2" d="M459.92,57V54.35l2.41-.39V27.88l-2.93-.49V25.11l7.6-1h.09l1.19.92,0,9.2-.31,3.1a12.54,12.54,0,0,1,3.11-2,13.16,13.16,0,0,1,2.17-.76,10.11,10.11,0,0,1,2.49-.3,8.24,8.24,0,0,1,3.17.52,4.46,4.46,0,0,1,2,1.63,7.37,7.37,0,0,1,1,2.76,22.61,22.61,0,0,1,.3,4V54l2.75.39V57H474.08V54.42l2.17-.43V43.08a17.66,17.66,0,0,0-.13-2.34,4.24,4.24,0,0,0-.52-1.61,2.39,2.39,0,0,0-1.06-.93,4.24,4.24,0,0,0-1.72-.3,6.06,6.06,0,0,0-1.25.14,9.38,9.38,0,0,0-1.24.34,8.9,8.9,0,0,0-1.13.47,5.38,5.38,0,0,0-.88.53V54l2.68.39V57Z"/><path class="cls-2" d="M497.58,57.41a11.8,11.8,0,0,1-4.74-.86,8.69,8.69,0,0,1-3.26-2.39,9.78,9.78,0,0,1-1.88-3.66,16.71,16.71,0,0,1-.61-4.65,14.59,14.59,0,0,1,.77-4.89A10.47,10.47,0,0,1,490,37.29,9.37,9.37,0,0,1,493.42,35a11.62,11.62,0,0,1,4.38-.8q8.1,0,8.45,7.91c0,.9,0,1.71,0,2.43a12,12,0,0,1-.2,1.83H493.28a12.4,12.4,0,0,0,.57,3.3,6.51,6.51,0,0,0,1.23,2.23,4.61,4.61,0,0,0,1.81,1.25,6.47,6.47,0,0,0,2.29.39,10.83,10.83,0,0,0,1.86-.16,11.56,11.56,0,0,0,1.59-.39,9.7,9.7,0,0,0,1.33-.53,9.18,9.18,0,0,0,1-.56l1,2.36a7.58,7.58,0,0,1-1.36,1.06,12.74,12.74,0,0,1-2,1,16.73,16.73,0,0,1-2.42.78A11.23,11.23,0,0,1,497.58,57.41Zm-.53-20.62a3.65,3.65,0,0,0-1.41.27,2.56,2.56,0,0,0-1.15,1,6.4,6.4,0,0,0-.82,2.11,18.82,18.82,0,0,0-.41,3.51h7c0-.06,0-.16,0-.27s0-.24,0-.37,0-.26,0-.37v-.26a15.47,15.47,0,0,0-.14-2,6.63,6.63,0,0,0-.5-1.83,3.45,3.45,0,0,0-1-1.31A2.56,2.56,0,0,0,497.05,36.79Z"/><path class="cls-2" d="M509.44,57V54.35l2.81-.38v-15l-2.66-.82V35.17l6.68-1h.12l1,.84v4.67h.07a9.12,9.12,0,0,1,.85-1.58,10.61,10.61,0,0,1,1.53-1.83A9,9,0,0,1,522,34.79a5.23,5.23,0,0,1,2.56-.64,6.93,6.93,0,0,1,.93.05,2.14,2.14,0,0,1,.54.13v6.75a4,4,0,0,0-1.12-.34,11.33,11.33,0,0,0-2.16-.18,12.57,12.57,0,0,0-1.37.07c-.45.06-.88.12-1.28.21a7.57,7.57,0,0,0-1.06.3,3.86,3.86,0,0,0-.73.35V54l4.87.46V57Z"/><path class="cls-2" d="M538.69,57.41a11.72,11.72,0,0,1-4.73-.86,8.62,8.62,0,0,1-3.26-2.39,9.65,9.65,0,0,1-1.89-3.66,17.1,17.1,0,0,1-.6-4.65A14.34,14.34,0,0,1,529,41a10.32,10.32,0,0,1,2.18-3.67A9.25,9.25,0,0,1,534.53,35a11.66,11.66,0,0,1,4.38-.8q8.1,0,8.46,7.91c0,.9,0,1.71,0,2.43a11.88,11.88,0,0,1-.21,1.83H534.4a12,12,0,0,0,.56,3.3,6.86,6.86,0,0,0,1.23,2.23A4.61,4.61,0,0,0,538,53.12a6.53,6.53,0,0,0,2.3.39,10.71,10.71,0,0,0,1.85-.16,11.56,11.56,0,0,0,1.59-.39,9.7,9.7,0,0,0,1.33-.53,10.43,10.43,0,0,0,1-.56l1,2.36a7.24,7.24,0,0,1-1.36,1.06,12.31,12.31,0,0,1-2,1,16.34,16.34,0,0,1-2.42.78A11.23,11.23,0,0,1,538.69,57.41Zm-.52-20.62a3.7,3.7,0,0,0-1.42.27,2.56,2.56,0,0,0-1.15,1,6.62,6.62,0,0,0-.82,2.11,18.1,18.1,0,0,0-.4,3.51h7c0-.06,0-.16,0-.27s0-.24,0-.37,0-.26,0-.37v-.26a15.47,15.47,0,0,0-.14-2,6.3,6.3,0,0,0-.5-1.83,3.53,3.53,0,0,0-1-1.31A2.58,2.58,0,0,0,538.17,36.79Z"/><path class="cls-2" d="M555.51,57.29a4.09,4.09,0,0,1-1.31-.21,3.26,3.26,0,0,1-1.09-.62,3.14,3.14,0,0,1-.74-1,2.92,2.92,0,0,1-.28-1.3,3.4,3.4,0,0,1,.32-1.47,3.71,3.71,0,0,1,.85-1.19,4.05,4.05,0,0,1,1.27-.79,4.22,4.22,0,0,1,1.55-.28,4.56,4.56,0,0,1,1.62.25,3,3,0,0,1,1.08.69,2.61,2.61,0,0,1,.61,1,4,4,0,0,1,.18,1.21,3.8,3.8,0,0,1-.3,1.53,3.5,3.5,0,0,1-.84,1.17,3.75,3.75,0,0,1-1.29.75A4.76,4.76,0,0,1,555.51,57.29Z"/></svg>