<svg id="Layer_1" data-name="Layer 1" xmlns="http://www.w3.org/2000/svg" viewBox="0 0 300 250"><defs><style>.cls-1{fill:#fff;}.cls-2{fill:#f1b533;}</style></defs><path class="cls-1" d="M29.8,208.24a7,7,0,0,1-1.26-.1c-.38-.06-.73-.14-1-.22l-.79-.22a1.63,1.63,0,0,0-.51-.12l.13-2.78h1.31l.33,1.82a1.71,1.71,0,0,0,.63.39,3,3,0,0,0,1.09.18,2.79,2.79,0,0,0,.88-.12,1.55,1.55,0,0,0,.58-.33,1.26,1.26,0,0,0,.32-.51,1.81,1.81,0,0,0,.1-.63,1.44,1.44,0,0,0-.17-.69,2,2,0,0,0-.48-.59,4.91,4.91,0,0,0-.77-.53c-.3-.17-.65-.34-1-.53s-.6-.3-.93-.5a4.38,4.38,0,0,1-.91-.71,4,4,0,0,1-.7-1,3.07,3.07,0,0,1-.28-1.33,2.74,2.74,0,0,1,.25-1.13,2.63,2.63,0,0,1,.73-.94,3.78,3.78,0,0,1,1.2-.63,5.55,5.55,0,0,1,1.66-.23,6.41,6.41,0,0,1,1,.07c.32,0,.62.1.9.16l.74.18.48.12-.09,2.53H31.87l-.3-1.66a.62.62,0,0,0-.19-.14,1.93,1.93,0,0,0-.32-.13,2.23,2.23,0,0,0-.39-.09,2.09,2.09,0,0,0-.43,0,2.55,2.55,0,0,0-.78.1,1.43,1.43,0,0,0-.52.28,1.05,1.05,0,0,0-.3.43,1.63,1.63,0,0,0-.1.55,1.4,1.4,0,0,0,.2.75,2,2,0,0,0,.53.6,4.37,4.37,0,0,0,.81.53c.31.17.65.35,1,.53s.65.35,1,.55a4.86,4.86,0,0,1,.92.7,3.14,3.14,0,0,1,.68.9,2.39,2.39,0,0,1,.27,1.16,3.33,3.33,0,0,1-.23,1.17,3,3,0,0,1-.72,1.1,3.91,3.91,0,0,1-1.29.79A5.22,5.22,0,0,1,29.8,208.24Z"/><path class="cls-1" d="M34.87,205.85a2.26,2.26,0,0,1,.2-1,2.4,2.4,0,0,1,.53-.73,3.51,3.51,0,0,1,.8-.54,5.14,5.14,0,0,1,1-.36,6.8,6.8,0,0,1,1.11-.21,11.3,11.3,0,0,1,1.16-.08v-.35a1.66,1.66,0,0,0-.34-1.19,1.49,1.49,0,0,0-1.12-.36,5.25,5.25,0,0,0-.79.06c-.27,0-.52.1-.77.16s-.47.13-.67.2l-.54.22h0l-.44-1a4.49,4.49,0,0,1,.52-.33,8.44,8.44,0,0,1,.88-.39,8.11,8.11,0,0,1,1.14-.33,6,6,0,0,1,1.28-.14,4.62,4.62,0,0,1,1.38.18,2,2,0,0,1,.92.54,2.13,2.13,0,0,1,.52.92,4.78,4.78,0,0,1,.17,1.33v4.57h.91v.9l-.35.07a2.75,2.75,0,0,1-.45.09l-.54.07a5.49,5.49,0,0,1-.58,0l-.45,0a.59.59,0,0,1-.3-.1.5.5,0,0,1-.17-.23,1.47,1.47,0,0,1-.05-.41v-.42a3.5,3.5,0,0,1-.34.37,3.16,3.16,0,0,1-.53.39,3.52,3.52,0,0,1-.71.3,3,3,0,0,1-.87.12,3.14,3.14,0,0,1-1-.14,2.1,2.1,0,0,1-.79-.43,1.91,1.91,0,0,1-.54-.75A2.69,2.69,0,0,1,34.87,205.85Zm3.48,1a1.13,1.13,0,0,0,.3,0,2.68,2.68,0,0,0,.35-.1,2,2,0,0,0,.36-.16,1.41,1.41,0,0,0,.31-.21V203.9a4.5,4.5,0,0,0-1.19.13,2.51,2.51,0,0,0-.77.35,1.28,1.28,0,0,0-.4.51,1.54,1.54,0,0,0-.12.61,1.52,1.52,0,0,0,.29,1A1.12,1.12,0,0,0,38.35,206.83Z"/><path class="cls-1" d="M43.49,208.07v-1l1.18-.2V201H43.38v-.87l1.29-.37v-.43a3.5,3.5,0,0,1,.35-1.56,4,4,0,0,1,.93-1.19,3.83,3.83,0,0,1,1.26-.75,3.75,3.75,0,0,1,1.37-.27,2.54,2.54,0,0,1,.56.05,1.58,1.58,0,0,1,.29.08v2.19a.94.94,0,0,0-.26-.2,2.32,2.32,0,0,0-.39-.18l-.47-.13a2.73,2.73,0,0,0-.5-.05,1.36,1.36,0,0,0-.36.05.59.59,0,0,0-.28.15.83.83,0,0,0-.17.31,1.7,1.7,0,0,0-.06.5v1.43h1.89V201H46.94V207l1.63.16v1Z"/><path class="cls-1" d="M53.6,208.24a4.48,4.48,0,0,1-1.77-.32,3.12,3.12,0,0,1-1.23-.9,3.63,3.63,0,0,1-.7-1.37,6,6,0,0,1-.23-1.74,5.27,5.27,0,0,1,.29-1.84,3.94,3.94,0,0,1,.81-1.38,3.71,3.71,0,0,1,1.27-.86,4.32,4.32,0,0,1,1.64-.3c2,0,3.09,1,3.17,3,0,.34,0,.64,0,.91a4.1,4.1,0,0,1-.08.69H52a4.32,4.32,0,0,0,.21,1.24,2.43,2.43,0,0,0,.46.83,1.67,1.67,0,0,0,.68.47,2.39,2.39,0,0,0,.86.15,3.88,3.88,0,0,0,.7-.06,4.61,4.61,0,0,0,.59-.15,2.89,2.89,0,0,0,.5-.2,3.44,3.44,0,0,0,.39-.21l.38.89a3,3,0,0,1-.51.4,5.24,5.24,0,0,1-.75.38,4.85,4.85,0,0,1-.91.29A4.07,4.07,0,0,1,53.6,208.24Zm-.2-7.73a1.35,1.35,0,0,0-.53.1,1,1,0,0,0-.43.39,2.59,2.59,0,0,0-.31.79,7.09,7.09,0,0,0-.15,1.32h2.63a.49.49,0,0,1,0-.11v-.13c0-.05,0-.1,0-.14v-.1a6.61,6.61,0,0,0-.05-.76,2.7,2.7,0,0,0-.19-.68,1.32,1.32,0,0,0-.38-.49A.91.91,0,0,0,53.4,200.51Z"/><path class="cls-1" d="M58.85,206.32v-5.4h-1v-.83L58,200l.26-.1.25-.1.14-.07a2.42,2.42,0,0,0,.52-.7l.16-.34c.06-.13.11-.27.17-.41s.11-.28.16-.42.09-.27.12-.38h1.31l0,2.17h2.15v1.24H61.11V205c0,.39,0,.7,0,.93a1.88,1.88,0,0,0,.08.52.36.36,0,0,0,.22.23,1.4,1.4,0,0,0,.4.05h0l.37,0,.38-.07a3,3,0,0,0,.35-.09l.26-.08h0l.35.86a4.26,4.26,0,0,1-.54.33,4.48,4.48,0,0,1-.7.31,6.54,6.54,0,0,1-.82.22,4.91,4.91,0,0,1-.86.08h0a2.55,2.55,0,0,1-.83-.12,1.44,1.44,0,0,1-.55-.37,1.66,1.66,0,0,1-.3-.61A3.37,3.37,0,0,1,58.85,206.32Z"/><path class="cls-1" d="M66,211.81h-.33l-.34,0-.3,0-.2,0v-1.8a1.67,1.67,0,0,0,.44.12,3.39,3.39,0,0,0,.76.07,2.8,2.8,0,0,0,.48,0,1.27,1.27,0,0,0,.54-.26,2.41,2.41,0,0,0,.56-.61,5.17,5.17,0,0,0,.56-1.11H66.87l-2.63-7.25-.67-.2v-.94h4.24v.93l-1.11.21,1.4,4.35.57,2,.5-2,1.12-4.35-1-.21v-.93h3.24v.94l-.67.2c-.14.45-.3.93-.45,1.44L71,203.82c-.16.53-.32,1-.48,1.54s-.3.95-.42,1.36-.24.76-.34,1.05a5.1,5.1,0,0,1-.21.58,7.39,7.39,0,0,1-1.46,2.58A2.74,2.74,0,0,1,66,211.81Z"/><path class="cls-1" d="M77.79,205.85a2.24,2.24,0,0,1,.73-1.69,3.51,3.51,0,0,1,.8-.54,5.14,5.14,0,0,1,1-.36,6.8,6.8,0,0,1,1.11-.21,11.3,11.3,0,0,1,1.16-.08v-.35a1.66,1.66,0,0,0-.34-1.19,1.49,1.49,0,0,0-1.12-.36,5.25,5.25,0,0,0-.79.06c-.27,0-.52.1-.77.16s-.47.13-.67.2l-.54.22h0l-.44-1a4.49,4.49,0,0,1,.52-.33,8.44,8.44,0,0,1,.88-.39,8.11,8.11,0,0,1,1.14-.33,6,6,0,0,1,1.28-.14,4.62,4.62,0,0,1,1.38.18,2,2,0,0,1,.92.54,2.13,2.13,0,0,1,.52.92,4.78,4.78,0,0,1,.17,1.33v4.57h.91v.9l-.35.07a2.75,2.75,0,0,1-.45.09l-.54.07a5.49,5.49,0,0,1-.58,0l-.45,0a.59.59,0,0,1-.3-.1.5.5,0,0,1-.17-.23,1.47,1.47,0,0,1,0-.41v-.42a3.5,3.5,0,0,1-.34.37,3.16,3.16,0,0,1-.53.39,3.52,3.52,0,0,1-.71.3,3,3,0,0,1-.87.12,3.14,3.14,0,0,1-1-.14,2.1,2.1,0,0,1-.79-.43,1.91,1.91,0,0,1-.54-.75A2.69,2.69,0,0,1,77.79,205.85Zm3.48,1a1.13,1.13,0,0,0,.3,0,2.68,2.68,0,0,0,.35-.1,2,2,0,0,0,.36-.16,1.41,1.41,0,0,0,.31-.21V203.9a4.5,4.5,0,0,0-1.19.13,2.51,2.51,0,0,0-.77.35,1.28,1.28,0,0,0-.4.51,1.54,1.54,0,0,0-.12.61,1.52,1.52,0,0,0,.29,1A1.12,1.12,0,0,0,81.27,206.83Z"/><path class="cls-1" d="M86.58,208.07v-1l1-.14v-5.64l-1-.31v-1.1l2.62-.36h0l.39.32v.87a4.71,4.71,0,0,1,.57-.44,5.29,5.29,0,0,1,.71-.37,5.47,5.47,0,0,1,.81-.26,4.2,4.2,0,0,1,.86-.1,3,3,0,0,1,1.17.19,1.57,1.57,0,0,1,.76.58,2.82,2.82,0,0,1,.39,1A8.33,8.33,0,0,1,95,202.9v4l1,.14v1H91.88v-1l.8-.14v-4.08a5.73,5.73,0,0,0-.05-.88,1.37,1.37,0,0,0-.19-.6.78.78,0,0,0-.37-.35,1.35,1.35,0,0,0-.61-.12A2,2,0,0,0,91,201a3.5,3.5,0,0,0-.46.14,3.55,3.55,0,0,0-.39.2,3,3,0,0,0-.32.21V207l1,.14v1Z"/><path class="cls-1" d="M100,208.23a3.34,3.34,0,0,1-1.27-.24,2.79,2.79,0,0,1-1-.76,3.77,3.77,0,0,1-.69-1.29,6.3,6.3,0,0,1-.25-1.84,5.48,5.48,0,0,1,.3-1.85,4.09,4.09,0,0,1,.86-1.44,3.88,3.88,0,0,1,1.36-.95,4.63,4.63,0,0,1,1.83-.34,5.68,5.68,0,0,1,.59,0,4.68,4.68,0,0,1,.56.09v-2.49l-1.34-.23v-.84l3.1-.31h0l.46.34v10.95h.81V208l-.84.17a5.38,5.38,0,0,1-1,.09,1.06,1.06,0,0,1-.7-.2.88.88,0,0,1-.25-.71V207a2.59,2.59,0,0,1-.43.45,3.33,3.33,0,0,1-.57.38,3.91,3.91,0,0,1-.7.27A3.47,3.47,0,0,1,100,208.23Zm.93-1.32a1.88,1.88,0,0,0,.8-.17,1.61,1.61,0,0,0,.53-.38v-5.52a1.11,1.11,0,0,0-.41-.24,2,2,0,0,0-.68-.1,1.72,1.72,0,0,0-.75.17,1.63,1.63,0,0,0-.62.56,3.37,3.37,0,0,0-.42,1,7.63,7.63,0,0,0-.17,1.58,7.28,7.28,0,0,0,.1,1.41,3.1,3.1,0,0,0,.34.95,1.52,1.52,0,0,0,.55.55A1.6,1.6,0,0,0,101,206.91Z"/><path class="cls-1" d="M111,208.07v-1l.9-.14v-9.78l-1.1-.19v-.85l2.85-.36h0l.45.34v3.45l-.12,1.17a4.89,4.89,0,0,1,.5-.39,4.21,4.21,0,0,1,.67-.38,4.82,4.82,0,0,1,.81-.28,3.61,3.61,0,0,1,.94-.12,3.05,3.05,0,0,1,1.18.2,1.61,1.61,0,0,1,.75.61,2.84,2.84,0,0,1,.39,1,9.17,9.17,0,0,1,.11,1.49V207l1,.14v1h-4.1v-.95l.81-.16v-4.09a5.73,5.73,0,0,0-.05-.88,1.51,1.51,0,0,0-.19-.6.85.85,0,0,0-.4-.35,1.51,1.51,0,0,0-.65-.12,1.88,1.88,0,0,0-.46.06,3.23,3.23,0,0,0-.47.12,4.08,4.08,0,0,0-.42.18,2.39,2.39,0,0,0-.33.2V207l1,.14v1Z"/><path class="cls-1" d="M125.15,208.24a4.48,4.48,0,0,1-1.77-.32,3.12,3.12,0,0,1-1.23-.9,3.63,3.63,0,0,1-.7-1.37,6,6,0,0,1-.23-1.74,5.27,5.27,0,0,1,.29-1.84,3.94,3.94,0,0,1,.81-1.38,3.71,3.71,0,0,1,1.27-.86,4.32,4.32,0,0,1,1.64-.3c2,0,3.09,1,3.17,3,0,.34,0,.64,0,.91a4.1,4.1,0,0,1-.08.69h-4.78a4.7,4.7,0,0,0,.21,1.24,2.43,2.43,0,0,0,.46.83,1.67,1.67,0,0,0,.68.47,2.39,2.39,0,0,0,.86.15,3.88,3.88,0,0,0,.7-.06,4.61,4.61,0,0,0,.59-.15,2.89,2.89,0,0,0,.5-.2,3.44,3.44,0,0,0,.39-.21l.38.89a3,3,0,0,1-.51.4,5.24,5.24,0,0,1-.75.38,4.85,4.85,0,0,1-.91.29A4.07,4.07,0,0,1,125.15,208.24Zm-.2-7.73a1.35,1.35,0,0,0-.53.1,1,1,0,0,0-.43.39,2.59,2.59,0,0,0-.31.79,7.09,7.09,0,0,0-.15,1.32h2.63a.49.49,0,0,1,0-.11v-.13a.71.71,0,0,0,0-.14v-.1a6.61,6.61,0,0,0-.05-.76,2.7,2.7,0,0,0-.19-.68,1.32,1.32,0,0,0-.38-.49A.91.91,0,0,0,125,200.51Z"/><path class="cls-1" d="M129.41,205.85a2.15,2.15,0,0,1,.73-1.69,3.12,3.12,0,0,1,.8-.54,5.29,5.29,0,0,1,1-.36,6.72,6.72,0,0,1,1.12-.21,11.11,11.11,0,0,1,1.15-.08v-.35a1.66,1.66,0,0,0-.34-1.19,1.47,1.47,0,0,0-1.11-.36,5.39,5.39,0,0,0-.8.06c-.26,0-.52.1-.76.16s-.47.13-.68.2-.39.15-.53.22h0l-.43-1a3.21,3.21,0,0,1,.52-.33,7.59,7.59,0,0,1,.88-.39,8,8,0,0,1,1.13-.33,6.12,6.12,0,0,1,1.28-.14,4.53,4.53,0,0,1,1.38.18,2,2,0,0,1,.93.54,2.24,2.24,0,0,1,.52.92,4.8,4.8,0,0,1,.16,1.33v4.57h.91v.9l-.34.07a2.88,2.88,0,0,1-.46.09l-.53.07a5.68,5.68,0,0,1-.59,0l-.45,0a.67.67,0,0,1-.3-.1.48.48,0,0,1-.16-.23,1.17,1.17,0,0,1,0-.41v-.42a3.74,3.74,0,0,1-.35.37,2.8,2.8,0,0,1-.53.39,3.3,3.3,0,0,1-.71.3,3,3,0,0,1-.87.12,3,3,0,0,1-1-.14,2.07,2.07,0,0,1-.8-.43,2.13,2.13,0,0,1-.54-.75A2.69,2.69,0,0,1,129.41,205.85Zm3.48,1a1.24,1.24,0,0,0,.3,0,2.68,2.68,0,0,0,.35-.1,2.83,2.83,0,0,0,.36-.16,1.34,1.34,0,0,0,.3-.21V203.9A4.5,4.5,0,0,0,133,204a2.34,2.34,0,0,0-.76.35,1.31,1.31,0,0,0-.41.51,1.54,1.54,0,0,0-.12.61,1.46,1.46,0,0,0,.3,1A1.11,1.11,0,0,0,132.89,206.83Z"/><path class="cls-1" d="M138.14,208.07v-1l1.06-.14v-5.64l-1-.31v-1.1l2.51-.36h0l.39.32v1.75h0a3.25,3.25,0,0,1,.32-.59,4,4,0,0,1,.57-.69,3.55,3.55,0,0,1,.79-.57,2,2,0,0,1,1-.24,1.68,1.68,0,0,1,.35,0l.2,0v2.54a1.59,1.59,0,0,0-.42-.13,3.88,3.88,0,0,0-.81-.07l-.52,0-.48.08-.39.11a1.13,1.13,0,0,0-.27.13V207l1.82.17v.95Z"/><path class="cls-1" d="M146.11,206.32v-5.4h-1v-.83l.19-.06.26-.1.25-.1.14-.07a2.62,2.62,0,0,0,.52-.7c0-.1.1-.21.16-.34s.11-.27.17-.41l.16-.42c0-.14.09-.27.12-.38h1.3l0,2.17h2.15v1.24h-2.15V205c0,.39,0,.7,0,.93a1.88,1.88,0,0,0,.08.52.36.36,0,0,0,.22.23,1.4,1.4,0,0,0,.4.05h0l.37,0,.38-.07a2.79,2.79,0,0,0,.34-.09l.26-.08h0l.35.86a4.26,4.26,0,0,1-.54.33,4.6,4.6,0,0,1-.71.31,6,6,0,0,1-.81.22,4.91,4.91,0,0,1-.86.08h0a2.51,2.51,0,0,1-.83-.12,1.37,1.37,0,0,1-.55-.37,1.52,1.52,0,0,1-.3-.61A3.35,3.35,0,0,1,146.11,206.32Z"/><path class="cls-1" d="M156.13,208.07v-1l.9-.14v-9.78l-1.09-.19v-.85l2.84-.36h0l.45.34v3.45l-.11,1.17a4.65,4.65,0,0,1,.49-.39,4.7,4.7,0,0,1,.67-.38,4.64,4.64,0,0,1,.82-.28,3.48,3.48,0,0,1,.93-.12,3.14,3.14,0,0,1,1.19.2,1.58,1.58,0,0,1,.74.61,2.84,2.84,0,0,1,.39,1,9.17,9.17,0,0,1,.11,1.49V207l1,.14v1h-4.1v-.95l.82-.16v-4.09a5.61,5.61,0,0,0-.06-.88,1.37,1.37,0,0,0-.19-.6.8.8,0,0,0-.4-.35,1.46,1.46,0,0,0-.64-.12,2,2,0,0,0-.47.06,3.59,3.59,0,0,0-.47.12,4.08,4.08,0,0,0-.42.18,2.39,2.39,0,0,0-.33.2V207l1,.14v1Z"/><path class="cls-1" d="M170.25,208.24a4.51,4.51,0,0,1-1.77-.32,3.12,3.12,0,0,1-1.23-.9,3.63,3.63,0,0,1-.7-1.37,6.37,6.37,0,0,1-.23-1.74,5.51,5.51,0,0,1,.29-1.84,4,4,0,0,1,.82-1.38,3.58,3.58,0,0,1,1.26-.86,4.35,4.35,0,0,1,1.64-.3c2,0,3.09,1,3.18,3,0,.34,0,.64,0,.91a5.7,5.7,0,0,1-.07.69h-4.79a5.15,5.15,0,0,0,.21,1.24,2.44,2.44,0,0,0,.47.83,1.64,1.64,0,0,0,.67.47,2.39,2.39,0,0,0,.86.15,3.8,3.8,0,0,0,.7-.06,4.78,4.78,0,0,0,.6-.15,3.26,3.26,0,0,0,.5-.2l.38-.21.38.89a3,3,0,0,1-.51.4,4.76,4.76,0,0,1-.75.38,5,5,0,0,1-.9.29A4.21,4.21,0,0,1,170.25,208.24Zm-.19-7.73a1.4,1.4,0,0,0-.54.1,1,1,0,0,0-.43.39,2.61,2.61,0,0,0-.3.79,5.72,5.72,0,0,0-.15,1.32h2.62s0-.06,0-.11a.62.62,0,0,1,0-.13v-.24a6.61,6.61,0,0,0-.05-.76,2.7,2.7,0,0,0-.19-.68,1.3,1.3,0,0,0-.37-.49A.93.93,0,0,0,170.06,200.51Z"/><path class="cls-1" d="M174.51,205.85a2.15,2.15,0,0,1,.73-1.69,3.3,3.3,0,0,1,.8-.54,5.14,5.14,0,0,1,1-.36,6.42,6.42,0,0,1,1.11-.21,11.3,11.3,0,0,1,1.16-.08v-.35a1.71,1.71,0,0,0-.34-1.19,1.49,1.49,0,0,0-1.12-.36,5.49,5.49,0,0,0-.8.06c-.26,0-.52.1-.76.16s-.47.13-.68.2l-.53.22h0l-.43-1a3.74,3.74,0,0,1,.52-.33A8.44,8.44,0,0,1,176,200a7.74,7.74,0,0,1,1.14-.33,6,6,0,0,1,1.28-.14,4.62,4.62,0,0,1,1.38.18,2,2,0,0,1,.92.54,2.13,2.13,0,0,1,.52.92,4.78,4.78,0,0,1,.17,1.33v4.57h.9v.9l-.34.07a3,3,0,0,1-.45.09l-.54.07a5.68,5.68,0,0,1-.59,0l-.45,0a.67.67,0,0,1-.3-.1.48.48,0,0,1-.16-.23,1.17,1.17,0,0,1-.05-.41v-.42a3.74,3.74,0,0,1-.35.37,2.51,2.51,0,0,1-.53.39,3.43,3.43,0,0,1-.7.3,3.36,3.36,0,0,1-1.85,0,2,2,0,0,1-.79-.43,1.91,1.91,0,0,1-.54-.75A2.69,2.69,0,0,1,174.51,205.85Zm3.48,1a1.13,1.13,0,0,0,.3,0,2.68,2.68,0,0,0,.35-.1,2.83,2.83,0,0,0,.36-.16,1.41,1.41,0,0,0,.31-.21V203.9a4.45,4.45,0,0,0-1.19.13,2.4,2.4,0,0,0-.77.35,1.31,1.31,0,0,0-.41.51,1.54,1.54,0,0,0-.12.61,1.46,1.46,0,0,0,.3,1A1.12,1.12,0,0,0,178,206.83Z"/><path class="cls-1" d="M183,208.07v-1l1.06-.14v-9.78L183,197v-.85l2.86-.36h0l.46.34V207l1.1.14v1Z"/><path class="cls-1" d="M189.23,206.32v-5.4h-1v-.83l.18-.06.27-.1.24-.1a.83.83,0,0,0,.14-.07,2.25,2.25,0,0,0,.52-.7,3.68,3.68,0,0,0,.16-.34l.18-.41c.05-.14.11-.28.15-.42l.13-.38h1.3l0,2.17h2.16v1.24h-2.16V205c0,.39,0,.7,0,.93a1.52,1.52,0,0,0,.09.52.36.36,0,0,0,.22.23,1.35,1.35,0,0,0,.4.05h0l.37,0,.38-.07a2.79,2.79,0,0,0,.34-.09l.26-.08h0l.34.86a3.19,3.19,0,0,1-.54.33,4.1,4.1,0,0,1-.7.31,6.38,6.38,0,0,1-.81.22,5,5,0,0,1-.86.08h0a2.49,2.49,0,0,1-.82-.12,1.37,1.37,0,0,1-.55-.37,1.52,1.52,0,0,1-.3-.61A2.92,2.92,0,0,1,189.23,206.32Z"/><path class="cls-1" d="M194.54,208.07v-1l.9-.14v-9.78l-1.1-.19v-.85l2.85-.36h0l.45.34v3.45l-.12,1.17a6.32,6.32,0,0,1,.5-.39,4.7,4.7,0,0,1,.67-.38,4.82,4.82,0,0,1,.81-.28,3.61,3.61,0,0,1,.94-.12,3.05,3.05,0,0,1,1.18.2,1.61,1.61,0,0,1,.75.61,2.84,2.84,0,0,1,.39,1,9.17,9.17,0,0,1,.11,1.49V207l1,.14v1h-4.1v-.95l.81-.16v-4.09a5.73,5.73,0,0,0,0-.88,1.51,1.51,0,0,0-.19-.6.85.85,0,0,0-.4-.35,1.49,1.49,0,0,0-.64-.12,1.89,1.89,0,0,0-.47.06,3.59,3.59,0,0,0-.47.12,4.08,4.08,0,0,0-.42.18,2.39,2.39,0,0,0-.33.2V207l1,.14v1Z"/><path class="cls-1" d="M25.81,223.85a2.25,2.25,0,0,1,.19-1,2.4,2.4,0,0,1,.53-.73,3.37,3.37,0,0,1,.81-.54,5,5,0,0,1,1-.36,6.72,6.72,0,0,1,1.12-.21A11.11,11.11,0,0,1,30.6,221v-.35a1.66,1.66,0,0,0-.34-1.19,1.47,1.47,0,0,0-1.11-.36,5.39,5.39,0,0,0-.8.06c-.27,0-.52.1-.76.16s-.47.13-.68.2-.39.15-.53.22h0l-.43-1a3.21,3.21,0,0,1,.52-.33,6.9,6.9,0,0,1,.88-.39,8,8,0,0,1,1.13-.33,6,6,0,0,1,1.28-.14,4.53,4.53,0,0,1,1.38.18,2,2,0,0,1,.93.54,2.24,2.24,0,0,1,.52.92,4.8,4.8,0,0,1,.16,1.33v4.57h.91v.9l-.34.07a2.88,2.88,0,0,1-.46.09l-.53.07a5.68,5.68,0,0,1-.59,0l-.45,0a.67.67,0,0,1-.3-.1.42.42,0,0,1-.16-.23,1.15,1.15,0,0,1-.06-.41v-.42a2.67,2.67,0,0,1-.34.37,2.8,2.8,0,0,1-.53.39,3.3,3.3,0,0,1-.71.3,3,3,0,0,1-.87.12,3,3,0,0,1-1-.14,2.07,2.07,0,0,1-.8-.43,2,2,0,0,1-.54-.75A2.69,2.69,0,0,1,25.81,223.85Zm3.47,1a1.13,1.13,0,0,0,.3,0,2.8,2.8,0,0,0,.36-.1,2.83,2.83,0,0,0,.36-.16,1.34,1.34,0,0,0,.3-.21V221.9a4.5,4.5,0,0,0-1.19.13,2.34,2.34,0,0,0-.76.35,1.31,1.31,0,0,0-.41.51,1.54,1.54,0,0,0-.12.61,1.46,1.46,0,0,0,.3,1A1.08,1.08,0,0,0,29.28,224.83Z"/><path class="cls-1" d="M34.54,226.07v-1L35.6,225v-5.64l-1-.31v-1.1l2.51-.36h0l.39.32v1.75h0a3.25,3.25,0,0,1,.32-.59,3.6,3.6,0,0,1,.57-.69,3.73,3.73,0,0,1,.78-.57,2,2,0,0,1,1-.24,1.68,1.68,0,0,1,.35,0l.2,0v2.54a1.59,1.59,0,0,0-.42-.13,3.88,3.88,0,0,0-.81-.07,4.53,4.53,0,0,0-.52,0l-.48.08-.4.11a1.71,1.71,0,0,0-.27.13V225l1.83.17v.95Z"/><path class="cls-1" d="M45.52,226.24a4.53,4.53,0,0,1-1.78-.32,3.09,3.09,0,0,1-1.22-.9,3.65,3.65,0,0,1-.71-1.37,6.37,6.37,0,0,1-.23-1.74,5.51,5.51,0,0,1,.29-1.84,4,4,0,0,1,.82-1.38,3.53,3.53,0,0,1,1.27-.86,4.32,4.32,0,0,1,1.64-.3c2,0,3.08,1,3.17,3a9,9,0,0,1,0,.91,4.21,4.21,0,0,1-.07.69H43.9a4.67,4.67,0,0,0,.22,1.24,2.27,2.27,0,0,0,.46.83,1.64,1.64,0,0,0,.67.47,2.45,2.45,0,0,0,.87.15,3.77,3.77,0,0,0,.69-.06,4.38,4.38,0,0,0,.6-.15,3.91,3.91,0,0,0,.88-.41l.38.89a3,3,0,0,1-.51.4,4.63,4.63,0,0,1-.74.38,5.37,5.37,0,0,1-.91.29A4.19,4.19,0,0,1,45.52,226.24Zm-.2-7.73a1.32,1.32,0,0,0-.53.1,1,1,0,0,0-.44.39,2.61,2.61,0,0,0-.3.79,7.09,7.09,0,0,0-.15,1.32h2.63V221a.62.62,0,0,1,0-.13v-.24a6.61,6.61,0,0,0,0-.76,2.34,2.34,0,0,0-.19-.68,1.3,1.3,0,0,0-.37-.49A.93.93,0,0,0,45.32,218.51Z"/><path class="cls-2" d="M54.5,221.93a5,5,0,0,1,.35-1.94,4.1,4.1,0,0,1,.91-1.38,3.62,3.62,0,0,1,1.32-.82,4.63,4.63,0,0,1,1.57-.27,4.42,4.42,0,0,1,1.68.3,3.16,3.16,0,0,1,1.23.85,3.71,3.71,0,0,1,.76,1.35,6,6,0,0,1,.25,1.81,5.2,5.2,0,0,1-.34,2,3.89,3.89,0,0,1-.92,1.37A3.62,3.62,0,0,1,60,226a4.56,4.56,0,0,1-1.56.26,4.64,4.64,0,0,1-1.69-.29,3.29,3.29,0,0,1-1.23-.86,3.57,3.57,0,0,1-.76-1.35A6,6,0,0,1,54.5,221.93Zm4.06,3.3a1.33,1.33,0,0,0,.7-.18,1.41,1.41,0,0,0,.48-.56,3.33,3.33,0,0,0,.29-1,9.83,9.83,0,0,0,.09-1.43,13.56,13.56,0,0,0-.08-1.52,4.27,4.27,0,0,0-.28-1.11,1.48,1.48,0,0,0-.49-.68,1.21,1.21,0,0,0-.74-.23,1.33,1.33,0,0,0-.7.18,1.36,1.36,0,0,0-.49.56,3.31,3.31,0,0,0-.3,1,9.83,9.83,0,0,0-.09,1.43,11.4,11.4,0,0,0,.09,1.52,3.74,3.74,0,0,0,.28,1.11,1.57,1.57,0,0,0,.5.68A1.21,1.21,0,0,0,58.56,225.23Z"/><path class="cls-2" d="M70.6,226.24a1.12,1.12,0,0,1-.78-.23.91.91,0,0,1-.25-.7v-.26a3.22,3.22,0,0,1-.46.43,4.17,4.17,0,0,1-.61.38,3.53,3.53,0,0,1-.7.28,2.76,2.76,0,0,1-.75.1,4.13,4.13,0,0,1-1.24-.17,1.87,1.87,0,0,1-.84-.55,2.55,2.55,0,0,1-.49-1,6.23,6.23,0,0,1-.16-1.47v-4.18l-.73-.27v-.86l2.64-.21h0l.33.21v5.36a4.62,4.62,0,0,0,.06.81,1.66,1.66,0,0,0,.21.55.92.92,0,0,0,.39.31,1.72,1.72,0,0,0,.6.09,2,2,0,0,0,.51-.06,2.41,2.41,0,0,0,.43-.14,1.91,1.91,0,0,0,.32-.17l.23-.16v-5.46l-1-.29v-.86l2.84-.19h0l.41.21v7.33h.81V226l-.74.16A5.44,5.44,0,0,1,70.6,226.24Z"/><path class="cls-2" d="M73.51,226.07v-1l1-.14v-5.64l-1-.31v-1.1l2.5-.36h.05l.38.32v1.75h0a2.62,2.62,0,0,1,.31-.59,4.09,4.09,0,0,1,.58-.69,3.27,3.27,0,0,1,.78-.57,2,2,0,0,1,1-.24,1.68,1.68,0,0,1,.35,0l.2,0v2.54a1.35,1.35,0,0,0-.42-.13,3.88,3.88,0,0,0-.81-.07L78,220l-.48.08a3.26,3.26,0,0,0-.4.11,1.13,1.13,0,0,0-.27.13V225l1.82.17v.95Z"/><path class="cls-2" d="M86.19,224.32v-5.4h-1v-.83l.19-.06.26-.1.25-.1.14-.07a2.42,2.42,0,0,0,.52-.7l.16-.34c.06-.13.12-.27.17-.41s.11-.28.16-.42.09-.27.12-.38h1.31l0,2.17H90.6v1.24H88.45V223c0,.39,0,.7,0,.93a1.52,1.52,0,0,0,.09.52.33.33,0,0,0,.21.23,1.4,1.4,0,0,0,.4.05h0l.37,0,.38-.07a3,3,0,0,0,.35-.09l.26-.08h0l.35.86a4.26,4.26,0,0,1-.54.33,4.48,4.48,0,0,1-.7.31,6.54,6.54,0,0,1-.82.22,4.91,4.91,0,0,1-.86.08h0a2.45,2.45,0,0,1-.82-.12,1.37,1.37,0,0,1-.55-.37,1.67,1.67,0,0,1-.31-.61A3.37,3.37,0,0,1,86.19,224.32Z"/><path class="cls-2" d="M91.45,221.93A5,5,0,0,1,91.8,220a4.1,4.1,0,0,1,.91-1.38,3.62,3.62,0,0,1,1.32-.82,4.63,4.63,0,0,1,1.57-.27,4.42,4.42,0,0,1,1.68.3,3.16,3.16,0,0,1,1.23.85,3.57,3.57,0,0,1,.76,1.35,6,6,0,0,1,.25,1.81,5.2,5.2,0,0,1-.34,2,3.76,3.76,0,0,1-.92,1.37A3.62,3.62,0,0,1,97,226a4.56,4.56,0,0,1-1.56.26A4.64,4.64,0,0,1,93.7,226a3.29,3.29,0,0,1-1.23-.86,3.57,3.57,0,0,1-.76-1.35A6,6,0,0,1,91.45,221.93Zm4.06,3.3a1.33,1.33,0,0,0,.7-.18,1.41,1.41,0,0,0,.48-.56,3.33,3.33,0,0,0,.29-1,9.83,9.83,0,0,0,.09-1.43,13.56,13.56,0,0,0-.08-1.52,4.27,4.27,0,0,0-.28-1.11,1.48,1.48,0,0,0-.49-.68,1.21,1.21,0,0,0-.74-.23,1.33,1.33,0,0,0-.7.18,1.36,1.36,0,0,0-.49.56,3.63,3.63,0,0,0-.3,1,9.83,9.83,0,0,0-.09,1.43,11.4,11.4,0,0,0,.09,1.52,4.07,4.07,0,0,0,.28,1.11,1.57,1.57,0,0,0,.5.68A1.21,1.21,0,0,0,95.51,225.23Z"/><path class="cls-2" d="M100.47,228.78l1.1-.19v-9.28l-1-.31v-1.1l2.62-.36h0l.37.32v.77a3.49,3.49,0,0,1,.44-.41,3.07,3.07,0,0,1,.55-.36,4.17,4.17,0,0,1,.68-.25,3.24,3.24,0,0,1,.79-.09,3.28,3.28,0,0,1,1.26.23,2.61,2.61,0,0,1,1,.72,3.54,3.54,0,0,1,.69,1.28,6.12,6.12,0,0,1,.25,1.88,5.39,5.39,0,0,1-.29,1.82,4.27,4.27,0,0,1-.86,1.46,4,4,0,0,1-1.35,1,4.48,4.48,0,0,1-1.8.35h-.37l-.34,0-.3,0-.21-.05,0,1.22v1.27l1.45.19v.93h-4.8Zm4.66-9.93a1.8,1.8,0,0,0-.79.16,1.52,1.52,0,0,0-.52.35v5.55a1,1,0,0,0,.4.24,1.88,1.88,0,0,0,.67.11,1.72,1.72,0,0,0,.75-.17,1.6,1.6,0,0,0,.62-.57,3.26,3.26,0,0,0,.43-1,7.63,7.63,0,0,0,.17-1.58,6.56,6.56,0,0,0-.1-1.41,2.93,2.93,0,0,0-.35-.94,1.39,1.39,0,0,0-.55-.53A1.6,1.6,0,0,0,105.13,218.85Z"/><path class="cls-2" d="M115,228.78l1.1-.19v-9.28l-1-.31v-1.1l2.62-.36h0l.38.32v.77a2.82,2.82,0,0,1,.43-.41,3.16,3.16,0,0,1,.56-.36,4.05,4.05,0,0,1,.67-.25,3.55,3.55,0,0,1,2,.14,2.54,2.54,0,0,1,1,.72,3.41,3.41,0,0,1,.7,1.28,6.44,6.44,0,0,1,.25,1.88,5.39,5.39,0,0,1-.3,1.82,4.42,4.42,0,0,1-.85,1.46,4,4,0,0,1-1.36,1,4.48,4.48,0,0,1-1.8.35h-.36l-.34,0-.3,0-.21-.05,0,1.22v1.27l1.45.19v.93H115Zm4.66-9.93a1.78,1.78,0,0,0-.78.16,1.57,1.57,0,0,0-.53.35v5.55a1.06,1.06,0,0,0,.4.24,1.94,1.94,0,0,0,.68.11,1.79,1.79,0,0,0,.75-.17,1.75,1.75,0,0,0,.62-.57,3.51,3.51,0,0,0,.42-1,7,7,0,0,0,.18-1.58,6.5,6.5,0,0,0-.11-1.41,2.93,2.93,0,0,0-.35-.94,1.33,1.33,0,0,0-.55-.53A1.6,1.6,0,0,0,119.65,218.85Z"/><path class="cls-2" d="M125,226.07v-1L126,225v-5.64l-1-.31v-1.1l2.51-.36h0l.39.32v1.75h0a3.25,3.25,0,0,1,.32-.59,3.6,3.6,0,0,1,.57-.69,3.73,3.73,0,0,1,.78-.57,2,2,0,0,1,1-.24,1.57,1.57,0,0,1,.34,0l.21,0v2.54a1.59,1.59,0,0,0-.42-.13,3.88,3.88,0,0,0-.81-.07,4.53,4.53,0,0,0-.52,0L129,220a3.26,3.26,0,0,0-.4.11,1.71,1.71,0,0,0-.27.13V225l1.83.17v.95Z"/><path class="cls-2" d="M132.11,226.07v-1l1.07-.14v-5.64l-1-.31v-1.1l2.69-.36h0l.54.32V225l1.06.14v1Zm1.95-9.77a1.11,1.11,0,0,1-.46-.09,1.25,1.25,0,0,1-.34-.25,1,1,0,0,1-.2-.38,1.39,1.39,0,0,1-.07-.46,1.61,1.61,0,0,1,.08-.54,1.42,1.42,0,0,1,.23-.44,1.35,1.35,0,0,1,.4-.3,1.4,1.4,0,0,1,.56-.11h0a1.21,1.21,0,0,1,.52.1,1.19,1.19,0,0,1,.36.26,1.11,1.11,0,0,1,.22.38,1.63,1.63,0,0,1,.07.45,1.85,1.85,0,0,1-.08.54,1.26,1.26,0,0,1-.25.44,1.08,1.08,0,0,1-.42.3,1.68,1.68,0,0,1-.62.1Z"/><path class="cls-2" d="M137.37,221.93a5,5,0,0,1,.34-1.94,4.12,4.12,0,0,1,.92-1.38,3.62,3.62,0,0,1,1.32-.82,4.57,4.57,0,0,1,1.56-.27,4.43,4.43,0,0,1,1.69.3,3.16,3.16,0,0,1,1.23.85,3.69,3.69,0,0,1,.75,1.35,6,6,0,0,1,.26,1.81,5.4,5.4,0,0,1-.34,2,3.89,3.89,0,0,1-.92,1.37,3.58,3.58,0,0,1-1.32.8,4.91,4.91,0,0,1-3.24,0,3.41,3.41,0,0,1-1.24-.86,3.86,3.86,0,0,1-.76-1.35A6,6,0,0,1,137.37,221.93Zm4.06,3.3a1.29,1.29,0,0,0,.69-.18,1.36,1.36,0,0,0,.49-.56,3.34,3.34,0,0,0,.28-1,8.5,8.5,0,0,0,.1-1.43,11.4,11.4,0,0,0-.09-1.52,3.92,3.92,0,0,0-.27-1.11,1.56,1.56,0,0,0-.49-.68,1.21,1.21,0,0,0-.74-.23,1.33,1.33,0,0,0-.7.18,1.38,1.38,0,0,0-.5.56,3.33,3.33,0,0,0-.29,1,9.7,9.7,0,0,0-.1,1.43,11.4,11.4,0,0,0,.09,1.52,4.07,4.07,0,0,0,.28,1.11,1.65,1.65,0,0,0,.5.68A1.22,1.22,0,0,0,141.43,225.23Z"/><path class="cls-2" d="M146.56,226.07v-1l1.05-.14v-5.64l-1-.31v-1.1l2.5-.36h0l.39.32v1.75h0a2.72,2.72,0,0,1,.32-.59,3.6,3.6,0,0,1,.57-.69,3.48,3.48,0,0,1,.78-.57,2,2,0,0,1,1-.24,1.63,1.63,0,0,1,.35,0l.2,0v2.54a1.35,1.35,0,0,0-.42-.13,3.75,3.75,0,0,0-.81-.07l-.51,0-.48.08a3.26,3.26,0,0,0-.4.11,1.13,1.13,0,0,0-.27.13V225l1.82.17v.95Z"/><path class="cls-2" d="M153.69,226.07v-1l1.07-.14v-5.64l-1-.31v-1.1l2.69-.36h0l.54.32V225l1.06.14v1Zm1.94-9.77a1.06,1.06,0,0,1-.45-.09,1.11,1.11,0,0,1-.34-.25,1.17,1.17,0,0,1-.21-.38,1.7,1.7,0,0,1-.06-.46,1.9,1.9,0,0,1,.07-.54,1.26,1.26,0,0,1,.24-.44,1.2,1.2,0,0,1,1-.41h0a1.21,1.21,0,0,1,.52.1,1.19,1.19,0,0,1,.36.26,1,1,0,0,1,.21.38,1.33,1.33,0,0,1,.07.45,1.57,1.57,0,0,1-.08.54,1.11,1.11,0,0,1-.24.44,1,1,0,0,1-.43.3,1.59,1.59,0,0,1-.61.1Z"/><path class="cls-2" d="M159.91,224.32v-5.4h-1v-.83l.19-.06.26-.1.25-.1.13-.07a2.25,2.25,0,0,0,.52-.7l.17-.34.17-.41.16-.42c0-.14.09-.27.12-.38h1.3l0,2.17h2.15v1.24h-2.15V223c0,.39,0,.7,0,.93a1.82,1.82,0,0,0,.09.52.36.36,0,0,0,.22.23,1.4,1.4,0,0,0,.4.05h0l.37,0,.38-.07a2.79,2.79,0,0,0,.34-.09l.26-.08h0l.34.86a3.5,3.5,0,0,1-.53.33,4.6,4.6,0,0,1-.71.31,6,6,0,0,1-.81.22,5,5,0,0,1-.86.08h0a2.49,2.49,0,0,1-.82-.12,1.37,1.37,0,0,1-.55-.37,1.52,1.52,0,0,1-.3-.61A2.92,2.92,0,0,1,159.91,224.32Z"/><path class="cls-2" d="M165.3,226.07v-1l1.07-.14v-5.64l-1-.31v-1.1l2.69-.36h0l.53.32V225l1.06.14v1Zm1.95-9.77a1.14,1.14,0,0,1-.46-.09,1.2,1.2,0,0,1-.33-.25,1.17,1.17,0,0,1-.21-.38,1.39,1.39,0,0,1-.07-.46,1.91,1.91,0,0,1,.08-.54,1.26,1.26,0,0,1,.24-.44,1.24,1.24,0,0,1,.4-.3,1.31,1.31,0,0,1,.55-.11h0a1.13,1.13,0,0,1,.51.1,1,1,0,0,1,.36.26,1.11,1.11,0,0,1,.22.38,1.33,1.33,0,0,1,.07.45,1.85,1.85,0,0,1-.08.54,1.12,1.12,0,0,1-.25.44,1.08,1.08,0,0,1-.42.3,1.63,1.63,0,0,1-.61.1Z"/><path class="cls-2" d="M174.53,226.24a4.48,4.48,0,0,1-1.77-.32,3.12,3.12,0,0,1-1.23-.9,3.63,3.63,0,0,1-.7-1.37,6,6,0,0,1-.23-1.74,5.27,5.27,0,0,1,.29-1.84,3.94,3.94,0,0,1,.81-1.38,3.71,3.71,0,0,1,1.27-.86,4.32,4.32,0,0,1,1.64-.3c2,0,3.09,1,3.17,3,0,.34,0,.64,0,.91a4.1,4.1,0,0,1-.08.69h-4.78a4.7,4.7,0,0,0,.21,1.24,2.43,2.43,0,0,0,.46.83,1.67,1.67,0,0,0,.68.47,2.39,2.39,0,0,0,.86.15,3.88,3.88,0,0,0,.7-.06,4.61,4.61,0,0,0,.59-.15,2.89,2.89,0,0,0,.5-.2,3.44,3.44,0,0,0,.39-.21l.38.89a3,3,0,0,1-.51.4,5.24,5.24,0,0,1-.75.38,4.85,4.85,0,0,1-.91.29A4.07,4.07,0,0,1,174.53,226.24Zm-.2-7.73a1.35,1.35,0,0,0-.53.1,1,1,0,0,0-.43.39,2.59,2.59,0,0,0-.31.79,7.09,7.09,0,0,0-.15,1.32h2.63a.49.49,0,0,1,0-.11v-.13a.71.71,0,0,0,0-.14v-.1a6.61,6.61,0,0,0-.05-.76,2.7,2.7,0,0,0-.19-.68,1.32,1.32,0,0,0-.38-.49A.91.91,0,0,0,174.33,218.51Z"/><path class="cls-2" d="M179.15,225.6v-2h1.35l.38,1.14a.92.92,0,0,0,.2.19,1.91,1.91,0,0,0,.32.17,2.43,2.43,0,0,0,.43.12,2.54,2.54,0,0,0,.49.05,1.63,1.63,0,0,0,.59-.09,1,1,0,0,0,.37-.22.69.69,0,0,0,.19-.31,1.06,1.06,0,0,0,.06-.34,1,1,0,0,0-.16-.53,1.81,1.81,0,0,0-.45-.41,5,5,0,0,0-.7-.36l-.91-.38a5.82,5.82,0,0,1-.9-.46,3.28,3.28,0,0,1-.69-.57,2.43,2.43,0,0,1-.44-.7,2.41,2.41,0,0,1-.15-.87,2.05,2.05,0,0,1,.22-1,2,2,0,0,1,.64-.77,3.22,3.22,0,0,1,1-.52,5.35,5.35,0,0,1,1.46-.18,5.52,5.52,0,0,1,.86.06c.25,0,.48.08.69.13l.56.16a3.36,3.36,0,0,0,.5.13v2l-1.28,0-.34-1a1,1,0,0,0-.39-.33,1.53,1.53,0,0,0-.72-.16,1.82,1.82,0,0,0-.56.07.89.89,0,0,0-.36.2.7.7,0,0,0-.19.27.81.81,0,0,0-.06.31,1,1,0,0,0,.2.62,1.72,1.72,0,0,0,.5.42,4,4,0,0,0,.66.29l.68.28c.32.14.63.29.92.45a4,4,0,0,1,.78.55,2.28,2.28,0,0,1,.54.73,2.15,2.15,0,0,1,.2,1,2.31,2.31,0,0,1-.21,1,1.91,1.91,0,0,1-.63.79,3,3,0,0,1-1,.53,5.07,5.07,0,0,1-1.48.19,6.83,6.83,0,0,1-1.06-.08,8.16,8.16,0,0,1-.87-.19c-.26-.07-.5-.14-.7-.21Z"/><path class="cls-2" d="M188.41,226.2a1.62,1.62,0,0,1-.49-.08,1.2,1.2,0,0,1-.41-.24,1,1,0,0,1-.28-.37,1.06,1.06,0,0,1-.1-.48,1.31,1.31,0,0,1,.12-.56,1.25,1.25,0,0,1,.32-.44,1.45,1.45,0,0,1,.47-.3,1.65,1.65,0,0,1,.58-.1,1.78,1.78,0,0,1,.61.09,1.2,1.2,0,0,1,.41.26,1.1,1.1,0,0,1,.23.37,1.7,1.7,0,0,1,.06.46,1.32,1.32,0,0,1-.11.57,1.25,1.25,0,0,1-.31.44,1.57,1.57,0,0,1-.49.28A1.74,1.74,0,0,1,188.41,226.2Z"/></svg>