<svg id="Layer_1" data-name="Layer 1" xmlns="http://www.w3.org/2000/svg" viewBox="0 0 160 600"><defs><style>.cls-1{fill:#fff;}.cls-2{fill:#f1b533;}</style></defs><path class="cls-1" d="M19.47,373.85,16,362.51l-1-.26v-1.11h5.18v1.11l-1.4.26,2.1,7.58.32,1.7.33-1.7L23.29,364l-.49-1.49-1.12-.26v-1.11H27v1.11l-1.46.26,2.08,7.58.38,1.85.33-1.85,2-7.58-1.58-.26v-1.11H33v1.11l-1.11.26-3.32,11.34H26.21L24,366.22l-2.18,7.63Z"/><path class="cls-1" d="M37.66,374a5.1,5.1,0,0,1-2-.36,3.77,3.77,0,0,1-1.38-1,4.29,4.29,0,0,1-.81-1.56,7.23,7.23,0,0,1-.25-2,6.09,6.09,0,0,1,.33-2.08,4.25,4.25,0,0,1,.92-1.56,4,4,0,0,1,1.44-1,5,5,0,0,1,1.86-.34q3.44,0,3.59,3.36c0,.39,0,.73,0,1a6.31,6.31,0,0,1-.09.77H35.83a5.43,5.43,0,0,0,.24,1.41,2.81,2.81,0,0,0,.52.94,1.84,1.84,0,0,0,.77.53,2.57,2.57,0,0,0,1,.17,3.87,3.87,0,0,0,.79-.07,5.68,5.68,0,0,0,.68-.16,3.76,3.76,0,0,0,.57-.23,4.14,4.14,0,0,0,.43-.24l.43,1a3.78,3.78,0,0,1-.57.45,6.11,6.11,0,0,1-.85.44,7.31,7.31,0,0,1-1,.33A4.7,4.7,0,0,1,37.66,374Zm-.23-8.76a1.46,1.46,0,0,0-.6.11,1.13,1.13,0,0,0-.49.44,3,3,0,0,0-.35.9,7.86,7.86,0,0,0-.17,1.49h3V368a.86.86,0,0,0,0-.16.92.92,0,0,0,0-.16v-.11a6.33,6.33,0,0,0-.06-.86,2.79,2.79,0,0,0-.21-.77,1.53,1.53,0,0,0-.43-.56A1.09,1.09,0,0,0,37.43,365.2Z"/><path class="cls-1" d="M47.82,373.77v-1.11l1.08-.16V361.41l-1.2-.21v-1l3.21-.41h0l.52.39v7.43l0,1.29,3.23-3.32-1.3-.22v-1.13H58v1.13l-1.54.29-2.06,1.89,3.2,4.92,1,.17v1.11H54v-1.11l.84-.19-2-3.47-1.34,1.3,0,1v1.2l1.14.17v1.11Z"/><path class="cls-1" d="M59.36,373.77v-1.11l1.07-.17v-6.38l-1.13-.35v-1.25l3-.41h0l.44.36v1a5.93,5.93,0,0,1,.64-.49,5.16,5.16,0,0,1,.81-.42,5.48,5.48,0,0,1,.92-.29,4,4,0,0,1,1-.12,3.64,3.64,0,0,1,1.33.21,1.79,1.79,0,0,1,.86.67,3,3,0,0,1,.44,1.17,9.52,9.52,0,0,1,.14,1.73v4.6l1.17.16v1.11H65.37v-1.11l.91-.16v-4.63a7.1,7.1,0,0,0-.06-1,2,2,0,0,0-.21-.69,1,1,0,0,0-.43-.39,1.55,1.55,0,0,0-.69-.13,2.67,2.67,0,0,0-.56.06,3.8,3.8,0,0,0-.51.16,3.15,3.15,0,0,0-.45.22,2.81,2.81,0,0,0-.36.24v6.14l1.12.17v1.11Z"/><path class="cls-1" d="M70.88,369.07a5.72,5.72,0,0,1,.39-2.2,4.66,4.66,0,0,1,1-1.56,4.31,4.31,0,0,1,1.5-.93,5.32,5.32,0,0,1,1.77-.31,5.13,5.13,0,0,1,1.91.34,3.67,3.67,0,0,1,1.4,1,4.21,4.21,0,0,1,.85,1.53,6.55,6.55,0,0,1,.29,2,5.92,5.92,0,0,1-.39,2.25,4.43,4.43,0,0,1-1,1.55,4.2,4.2,0,0,1-1.5.91,5.47,5.47,0,0,1-1.77.29,5,5,0,0,1-1.91-.34,3.61,3.61,0,0,1-1.39-1,4.13,4.13,0,0,1-.86-1.54A6.51,6.51,0,0,1,70.88,369.07Zm4.59,3.74a1.43,1.43,0,0,0,.79-.2,1.46,1.46,0,0,0,.55-.64,3.65,3.65,0,0,0,.33-1.11,11,11,0,0,0,.1-1.63,14.55,14.55,0,0,0-.09-1.72,5.27,5.27,0,0,0-.31-1.26,1.84,1.84,0,0,0-.56-.77,1.38,1.38,0,0,0-.84-.26,1.4,1.4,0,0,0-1.35.84,3.64,3.64,0,0,0-.33,1.12,9.56,9.56,0,0,0-.11,1.63,12.65,12.65,0,0,0,.1,1.72,4.45,4.45,0,0,0,.32,1.26,1.8,1.8,0,0,0,.56.76A1.32,1.32,0,0,0,75.47,372.81Z"/><path class="cls-1" d="M84.17,373.9l-2.76-8.35-.92-.23v-1.06h4.73v1.05l-1.3.24,1.15,4.33.43,1.93.42-1.93,1.62-5.62h2.18l1.65,5.62.42,1.85.38-1.84,1.18-4.33L92,365.31v-1.05h4v1.05l-1,.24-2.59,8.35H90.35l-1.74-5.51-.35-1.49-.32,1.49-1.68,5.51Z"/><path class="cls-1" d="M104.73,373.9,102,365.55l-.92-.23v-1.06h4.73v1.05l-1.3.24,1.15,4.33.43,1.93.42-1.93,1.62-5.62h2.18l1.65,5.62.42,1.85.38-1.84,1.18-4.33-1.34-.25v-1.05h4v1.05l-1,.24L113,373.9h-2.07l-1.74-5.51-.35-1.49-.32,1.49-1.68,5.51Z"/><path class="cls-1" d="M116.94,373.77v-1.11l1-.17V361.41l-1.25-.21v-1l3.23-.41h0l.51.39v3.91l-.13,1.32c.15-.13.34-.28.56-.44a6,6,0,0,1,.76-.42,5.62,5.62,0,0,1,.93-.33,4.52,4.52,0,0,1,1.06-.13,3.43,3.43,0,0,1,1.34.23,1.79,1.79,0,0,1,.84.69,3,3,0,0,1,.44,1.17,9.17,9.17,0,0,1,.13,1.68v4.6l1.17.17v1.11H123v-1.08l.93-.18v-4.64a7.1,7.1,0,0,0-.06-1,1.81,1.81,0,0,0-.22-.69,1,1,0,0,0-.45-.39,1.73,1.73,0,0,0-.73-.13,2.55,2.55,0,0,0-.54.06,3.07,3.07,0,0,0-.52.14c-.17.06-.33.13-.48.2a2.53,2.53,0,0,0-.38.23v6.19l1.14.17v1.11Z"/><path class="cls-1" d="M128.42,371.25a2.5,2.5,0,0,1,.22-1.09,2.45,2.45,0,0,1,.6-.83,3.71,3.71,0,0,1,.91-.61,7.53,7.53,0,0,1,1.13-.41,7.2,7.2,0,0,1,1.26-.23c.44-.05.88-.08,1.31-.1v-.39a1.94,1.94,0,0,0-.38-1.35,1.7,1.7,0,0,0-1.27-.41,6.82,6.82,0,0,0-.9.07q-.45.08-.87.18c-.27.07-.53.15-.76.23s-.44.17-.61.25h0l-.49-1.12a5,5,0,0,1,.59-.37,6.73,6.73,0,0,1,1-.44,9.92,9.92,0,0,1,1.29-.37,6.32,6.32,0,0,1,1.45-.16,5.5,5.5,0,0,1,1.57.2,2.5,2.5,0,0,1,1,.61,2.46,2.46,0,0,1,.59,1,5.58,5.58,0,0,1,.19,1.5v5.18h1v1l-.39.09-.52.1-.6.08c-.22,0-.44,0-.67,0l-.51,0a.8.8,0,0,1-.34-.12.51.51,0,0,1-.19-.26,1.5,1.5,0,0,1-.05-.46v-.48q-.15.18-.39.42a3.84,3.84,0,0,1-.61.44,3.44,3.44,0,0,1-.8.34,3.12,3.12,0,0,1-1,.14,3.57,3.57,0,0,1-1.1-.16,2.46,2.46,0,0,1-.9-.49,2.28,2.28,0,0,1-.61-.84A3.06,3.06,0,0,1,128.42,371.25Zm3.94,1.11a2.38,2.38,0,0,0,.34,0l.4-.12a2.87,2.87,0,0,0,.4-.18,1.93,1.93,0,0,0,.35-.23V369a5.24,5.24,0,0,0-1.35.15,2.37,2.37,0,0,0-.86.4,1.31,1.31,0,0,0-.46.57,1.61,1.61,0,0,0-.14.69,1.63,1.63,0,0,0,.34,1.12A1.22,1.22,0,0,0,132.36,372.36Z"/><path class="cls-1" d="M139.22,371.78v-6.11h-1.17v-.95l.21-.07.3-.11.28-.11.16-.08a2.7,2.7,0,0,0,.59-.8c0-.11.12-.24.18-.38s.13-.3.2-.46l.17-.48c.06-.16.11-.3.15-.43h1.47l0,2.46h2.44v1.41h-2.44v4.6c0,.44,0,.79,0,1.05a1.92,1.92,0,0,0,.1.59.42.42,0,0,0,.24.26,1.42,1.42,0,0,0,.46.06h0a3.29,3.29,0,0,0,.42,0l.43-.08.39-.1.29-.09h0l.39,1a4.06,4.06,0,0,1-.61.38,6.46,6.46,0,0,1-.79.35,8.41,8.41,0,0,1-.93.25,5.23,5.23,0,0,1-1,.09h0a2.84,2.84,0,0,1-.93-.14,1.32,1.32,0,0,1-.62-.42,1.67,1.67,0,0,1-.35-.69A3.71,3.71,0,0,1,139.22,371.78Z"/><path class="cls-1" d="M15.94,397.77v-1.11l1-.17V385.41l-1.24-.21v-1l3.22-.41h0l.5.39,0,3.91-.13,1.32a6.5,6.5,0,0,1,.56-.44,4.89,4.89,0,0,1,.76-.42,5.85,5.85,0,0,1,.92-.33,4.59,4.59,0,0,1,1.06-.13,3.43,3.43,0,0,1,1.34.23,1.87,1.87,0,0,1,.85.69,3.11,3.11,0,0,1,.44,1.17,10.15,10.15,0,0,1,.13,1.68v4.6l1.17.17v1.11H22v-1.08l.92-.18v-4.64a7.1,7.1,0,0,0-.06-1,1.81,1.81,0,0,0-.22-.69,1,1,0,0,0-.45-.39,1.7,1.7,0,0,0-.73-.13,2.46,2.46,0,0,0-.53.06,2.94,2.94,0,0,0-.53.14c-.17.06-.33.13-.48.2a2.39,2.39,0,0,0-.37.23v6.19l1.14.17v1.11Z"/><path class="cls-1" d="M31.94,398a5.08,5.08,0,0,1-2-.36,3.89,3.89,0,0,1-1.39-1,4.43,4.43,0,0,1-.8-1.56,7.23,7.23,0,0,1-.25-2,6.35,6.35,0,0,1,.32-2.08,4.41,4.41,0,0,1,.93-1.56,4,4,0,0,1,1.44-1,5,5,0,0,1,1.86-.34q3.43,0,3.59,3.36c0,.39,0,.73,0,1a4.94,4.94,0,0,1-.08.77H30.12a5.43,5.43,0,0,0,.24,1.41,2.81,2.81,0,0,0,.52.94,1.84,1.84,0,0,0,.77.53,2.57,2.57,0,0,0,1,.17,3.87,3.87,0,0,0,.79-.07,5.68,5.68,0,0,0,.68-.16,3.26,3.26,0,0,0,.56-.23,3.49,3.49,0,0,0,.44-.24l.43,1a3.45,3.45,0,0,1-.58.45,5.46,5.46,0,0,1-.84.44,7.31,7.31,0,0,1-1,.33A4.72,4.72,0,0,1,31.94,398Zm-.22-8.76a1.46,1.46,0,0,0-.6.11,1.13,1.13,0,0,0-.49.44,3,3,0,0,0-.35.9,7.86,7.86,0,0,0-.17,1.49h3V392a.86.86,0,0,0,0-.16c0-.06,0-.11,0-.16v-.11a6.33,6.33,0,0,0-.06-.86,2.79,2.79,0,0,0-.21-.77,1.53,1.53,0,0,0-.43-.56A1.09,1.09,0,0,0,31.72,389.2Z"/><path class="cls-1" d="M36.77,395.25a2.5,2.5,0,0,1,.22-1.09,2.45,2.45,0,0,1,.6-.83,3.71,3.71,0,0,1,.91-.61,7.53,7.53,0,0,1,1.13-.41,7.38,7.38,0,0,1,1.26-.23c.44-.05.88-.08,1.31-.1v-.39a1.9,1.9,0,0,0-.38-1.35,1.7,1.7,0,0,0-1.27-.41,6.82,6.82,0,0,0-.9.07q-.45.08-.87.18c-.27.07-.53.15-.76.23s-.44.17-.61.25h0l-.49-1.12a5,5,0,0,1,.59-.37,6.73,6.73,0,0,1,1-.44,9.92,9.92,0,0,1,1.29-.37,6.32,6.32,0,0,1,1.45-.16,5.45,5.45,0,0,1,1.57.2,2.5,2.5,0,0,1,1,.61,2.46,2.46,0,0,1,.59,1,5.21,5.21,0,0,1,.19,1.5v5.18h1v1l-.39.09-.52.1-.6.08c-.22,0-.44,0-.67,0l-.51,0a.8.8,0,0,1-.34-.12.51.51,0,0,1-.19-.26,1.89,1.89,0,0,1,0-.46v-.48q-.15.18-.39.42a3.84,3.84,0,0,1-.61.44,3.44,3.44,0,0,1-.8.34,3.1,3.1,0,0,1-1,.14,3.59,3.59,0,0,1-1.11-.16,2.46,2.46,0,0,1-.9-.49,2.28,2.28,0,0,1-.61-.84A3.06,3.06,0,0,1,36.77,395.25Zm3.94,1.11a2.38,2.38,0,0,0,.34,0l.4-.12a3.65,3.65,0,0,0,.41-.18,2.24,2.24,0,0,0,.34-.23V393a5.24,5.24,0,0,0-1.35.15,2.37,2.37,0,0,0-.86.4,1.31,1.31,0,0,0-.46.57,1.77,1.77,0,0,0-.14.69,1.63,1.63,0,0,0,.34,1.12A1.22,1.22,0,0,0,40.71,396.36Z"/><path class="cls-1" d="M46.67,397.77v-1.11l1.2-.16v-6.39l-1.13-.35v-1.25l2.84-.41h0l.44.36v2h0a4.41,4.41,0,0,1,1-1.45,3.92,3.92,0,0,1,.89-.65,2.26,2.26,0,0,1,1.09-.27l.39,0,.23.06V391a1.65,1.65,0,0,0-.48-.14,4,4,0,0,0-.91-.08,5.83,5.83,0,0,0-.59,0,4.34,4.34,0,0,0-.54.09,2.41,2.41,0,0,0-.45.13,1.5,1.5,0,0,0-.31.15v5.29l2.07.2v1.08Z"/><path class="cls-1" d="M55.7,395.78v-6.11H54.53v-.95l.21-.07.3-.11.28-.11.16-.08a2.7,2.7,0,0,0,.59-.8l.18-.38c.07-.15.13-.3.19-.46s.13-.33.18-.48a3.53,3.53,0,0,0,.14-.43h1.48l0,2.46h2.44v1.41H58.27v4.6c0,.44,0,.79,0,1.05a1.66,1.66,0,0,0,.1.59.42.42,0,0,0,.24.26,1.38,1.38,0,0,0,.46.06h0a3.29,3.29,0,0,0,.42,0l.43-.08.39-.1.29-.09h0l.39,1a4.06,4.06,0,0,1-.61.38,6.63,6.63,0,0,1-.8.35,7.68,7.68,0,0,1-.92.25,5.31,5.31,0,0,1-1,.09h0a2.8,2.8,0,0,1-.93-.14,1.4,1.4,0,0,1-.63-.42,1.79,1.79,0,0,1-.34-.69A3.71,3.71,0,0,1,55.7,395.78Z"/><path class="cls-1" d="M67.06,397.77v-1.11l1-.17V385.41l-1.25-.21v-1l3.23-.41h0l.51.39,0,3.91-.14,1.32c.15-.13.34-.28.56-.44a6,6,0,0,1,.76-.42,6.36,6.36,0,0,1,.93-.33,4.59,4.59,0,0,1,1.06-.13,3.43,3.43,0,0,1,1.34.23A1.87,1.87,0,0,1,76,389a3.29,3.29,0,0,1,.44,1.17,10.25,10.25,0,0,1,.12,1.68v4.6l1.17.17v1.11H73.08v-1.08l.92-.18v-4.64a7.1,7.1,0,0,0-.06-1,1.81,1.81,0,0,0-.22-.69,1,1,0,0,0-.45-.39,1.7,1.7,0,0,0-.73-.13,2.46,2.46,0,0,0-.53.06,2.94,2.94,0,0,0-.53.14c-.17.06-.33.13-.48.2a2.39,2.39,0,0,0-.37.23v6.19l1.13.17v1.11Z"/><path class="cls-1" d="M83.06,398a5.08,5.08,0,0,1-2-.36,3.89,3.89,0,0,1-1.39-1,4.28,4.28,0,0,1-.8-1.56,7.22,7.22,0,0,1-.26-2,6.09,6.09,0,0,1,.33-2.08,4.41,4.41,0,0,1,.93-1.56,4.08,4.08,0,0,1,1.43-1,5,5,0,0,1,1.86-.34q3.45,0,3.6,3.36c0,.39,0,.73,0,1a4.94,4.94,0,0,1-.08.77H81.24a4.7,4.7,0,0,0,.24,1.41,2.64,2.64,0,0,0,.52.94,1.78,1.78,0,0,0,.77.53,2.54,2.54,0,0,0,1,.17,3.87,3.87,0,0,0,.79-.07,6.18,6.18,0,0,0,.68-.16,3.63,3.63,0,0,0,.56-.23,3.49,3.49,0,0,0,.44-.24l.43,1a3.45,3.45,0,0,1-.58.45,6,6,0,0,1-.84.44,7.76,7.76,0,0,1-1,.33A4.78,4.78,0,0,1,83.06,398Zm-.22-8.76a1.46,1.46,0,0,0-.6.11,1.13,1.13,0,0,0-.49.44,3,3,0,0,0-.35.9,7.86,7.86,0,0,0-.17,1.49h3V392s0-.11,0-.16v-.27a6.29,6.29,0,0,0,0-.86A2.48,2.48,0,0,0,84,390a1.41,1.41,0,0,0-.42-.56A1.09,1.09,0,0,0,82.84,389.2Z"/><path class="cls-1" d="M87.88,395.25a2.48,2.48,0,0,1,.83-1.92,3.71,3.71,0,0,1,.91-.61,7.42,7.42,0,0,1,2.39-.64c.44-.05.87-.08,1.31-.1v-.39a1.94,1.94,0,0,0-.38-1.35,1.7,1.7,0,0,0-1.27-.41,6.82,6.82,0,0,0-.9.07q-.45.08-.87.18c-.28.07-.53.15-.77.23l-.6.25h0L88,389.44c.12-.09.32-.21.59-.37a7.42,7.42,0,0,1,1-.44,9.92,9.92,0,0,1,1.29-.37,6.32,6.32,0,0,1,1.45-.16,5.38,5.38,0,0,1,1.56.2,2.47,2.47,0,0,1,1,.61,2.57,2.57,0,0,1,.59,1,5.58,5.58,0,0,1,.19,1.5v5.18h1v1l-.39.09a5.13,5.13,0,0,1-.51.1l-.61.08q-.32,0-.66,0l-.51,0a.76.76,0,0,1-.34-.12.51.51,0,0,1-.19-.26,1.47,1.47,0,0,1-.06-.46v-.48a3.45,3.45,0,0,1-.39.42,3.33,3.33,0,0,1-.6.44,3.44,3.44,0,0,1-.8.34,3.12,3.12,0,0,1-1,.14,3.57,3.57,0,0,1-1.1-.16,2.46,2.46,0,0,1-.9-.49,2.28,2.28,0,0,1-.61-.84A3.05,3.05,0,0,1,87.88,395.25Zm4,1.11a2.38,2.38,0,0,0,.34,0l.4-.12A2.87,2.87,0,0,0,93,396a1.93,1.93,0,0,0,.35-.23V393a5.19,5.19,0,0,0-1.35.15,2.37,2.37,0,0,0-.86.4,1.41,1.41,0,0,0-.47.57,1.77,1.77,0,0,0-.13.69,1.68,1.68,0,0,0,.33,1.12A1.25,1.25,0,0,0,91.83,396.36Z"/><path class="cls-1" d="M97.53,397.77v-1.11l1.2-.17V385.41l-1.23-.21v-1l3.24-.41h0l.52.39v12.28l1.25.17v1.11Z"/><path class="cls-1" d="M104.57,395.78v-6.11H103.4v-.95l.21-.07.3-.11.28-.11.15-.08a2.54,2.54,0,0,0,.59-.8l.19-.38c.06-.15.13-.3.19-.46s.12-.33.18-.48.1-.3.14-.43h1.48l0,2.46h2.44v1.41h-2.44v4.6c0,.44,0,.79,0,1.05a2.28,2.28,0,0,0,.1.59.46.46,0,0,0,.25.26,1.38,1.38,0,0,0,.46.06h0a3,3,0,0,0,.42,0l.43-.08.4-.1.29-.09h0l.39,1a4.64,4.64,0,0,1-.61.38,6.63,6.63,0,0,1-.8.35,8.23,8.23,0,0,1-.92.25,5.33,5.33,0,0,1-1,.09h0a2.86,2.86,0,0,1-.94-.14,1.43,1.43,0,0,1-.62-.42,1.66,1.66,0,0,1-.34-.69A3.3,3.3,0,0,1,104.57,395.78Z"/><path class="cls-1" d="M110.59,397.77v-1.11l1-.17V385.41l-1.25-.21v-1l3.23-.41h0l.51.39,0,3.91-.14,1.32c.15-.13.34-.28.56-.44a6,6,0,0,1,.76-.42,6,6,0,0,1,.93-.33,4.52,4.52,0,0,1,1.06-.13,3.43,3.43,0,0,1,1.34.23,1.79,1.79,0,0,1,.84.69,3.11,3.11,0,0,1,.45,1.17,10.25,10.25,0,0,1,.12,1.68v4.6l1.17.17v1.11h-4.64v-1.08l.92-.18v-4.64a7.1,7.1,0,0,0-.06-1,1.81,1.81,0,0,0-.22-.69,1,1,0,0,0-.45-.39,1.7,1.7,0,0,0-.73-.13,2.39,2.39,0,0,0-.53.06,2.94,2.94,0,0,0-.53.14c-.17.06-.33.13-.48.2a2.39,2.39,0,0,0-.37.23v6.19l1.13.17v1.11Z"/><path class="cls-2" d="M16.08,421.77v-1.11l1.2-.16v-6.39l-1.13-.35v-1.25L19,412.1H19l.44.36v2h0a4.18,4.18,0,0,1,.36-.67,4.64,4.64,0,0,1,.65-.78,3.92,3.92,0,0,1,.89-.65,2.26,2.26,0,0,1,1.09-.27l.39,0,.23.06V415a1.65,1.65,0,0,0-.48-.14,4,4,0,0,0-.91-.08,5.49,5.49,0,0,0-.58,0,4.21,4.21,0,0,0-.55.09,2.41,2.41,0,0,0-.45.13,1.8,1.8,0,0,0-.31.15v5.29l2.07.2v1.08Z"/><path class="cls-2" d="M28.52,422a5.1,5.1,0,0,1-2-.36,3.77,3.77,0,0,1-1.38-1,4.29,4.29,0,0,1-.81-1.56,7.23,7.23,0,0,1-.25-2,6.09,6.09,0,0,1,.33-2.08,4.25,4.25,0,0,1,.92-1.56,4,4,0,0,1,1.44-1,5,5,0,0,1,1.86-.34q3.44,0,3.59,3.36c0,.39,0,.73,0,1a6.31,6.31,0,0,1-.09.77H26.69a5.43,5.43,0,0,0,.24,1.41,2.81,2.81,0,0,0,.52.94,1.84,1.84,0,0,0,.77.53,2.59,2.59,0,0,0,1,.17,3.84,3.84,0,0,0,.78-.07,5.68,5.68,0,0,0,.68-.16,3.76,3.76,0,0,0,.57-.23,4.14,4.14,0,0,0,.43-.24l.43,1a3.78,3.78,0,0,1-.57.45,6.11,6.11,0,0,1-.85.44,7.31,7.31,0,0,1-1,.33A4.7,4.7,0,0,1,28.52,422Zm-.23-8.76a1.52,1.52,0,0,0-.6.11,1.13,1.13,0,0,0-.49.44,3,3,0,0,0-.35.9,7.86,7.86,0,0,0-.17,1.49h3a.49.49,0,0,1,0-.11v-.16a.92.92,0,0,0,0-.16v-.11a6.33,6.33,0,0,0-.06-.86,2.79,2.79,0,0,0-.21-.77,1.53,1.53,0,0,0-.43-.56A1.09,1.09,0,0,0,28.29,413.2Z"/><path class="cls-2" d="M33.34,419.25a2.5,2.5,0,0,1,.22-1.09,2.6,2.6,0,0,1,.6-.83,3.71,3.71,0,0,1,.91-.61,7.42,7.42,0,0,1,2.39-.64c.44-.05.88-.08,1.31-.1v-.39a1.9,1.9,0,0,0-.38-1.35,1.7,1.7,0,0,0-1.27-.41,6.82,6.82,0,0,0-.9.07q-.45.08-.87.18c-.27.07-.53.15-.76.23a6.49,6.49,0,0,0-.6.25h0l-.49-1.12a5,5,0,0,1,.59-.37,7.25,7.25,0,0,1,1-.44,9.92,9.92,0,0,1,1.29-.37,6.32,6.32,0,0,1,1.45-.16,5.45,5.45,0,0,1,1.57.2,2.44,2.44,0,0,1,1,.61,2.46,2.46,0,0,1,.59,1,5.21,5.21,0,0,1,.19,1.5v5.18h1v1l-.39.09-.52.1-.6.08c-.22,0-.44,0-.67,0l-.51,0a.8.8,0,0,1-.34-.12.49.49,0,0,1-.18-.26,1.47,1.47,0,0,1-.06-.46v-.48q-.15.18-.39.42a4.24,4.24,0,0,1-.6.44,3.85,3.85,0,0,1-.8.34,3.12,3.12,0,0,1-1,.14,3.63,3.63,0,0,1-1.11-.16,2.46,2.46,0,0,1-.9-.49,2.4,2.4,0,0,1-.61-.84A3.06,3.06,0,0,1,33.34,419.25Zm3.94,1.11a2.38,2.38,0,0,0,.34,0l.4-.12a3.65,3.65,0,0,0,.41-.18,2.24,2.24,0,0,0,.34-.23V417a5.11,5.11,0,0,0-1.34.15,2.35,2.35,0,0,0-.87.4,1.31,1.31,0,0,0-.46.57,1.77,1.77,0,0,0-.14.69A1.63,1.63,0,0,0,36.3,420,1.22,1.22,0,0,0,37.28,420.36Z"/><path class="cls-2" d="M43,421.77v-1.11l1.21-.17V409.41L43,409.2v-1l3.25-.41h0l.52.39v12.28l1.26.17v1.11Z"/><path class="cls-2" d="M48.86,421.77v-1.11l1.2-.17V409.41l-1.23-.21v-1l3.24-.41h0l.52.39v12.28l1.25.17v1.11Z"/><path class="cls-2" d="M57,426H56.6l-.39,0-.35,0-.22,0v-2a2.35,2.35,0,0,0,.5.14,4.27,4.27,0,0,0,.86.08,2.8,2.8,0,0,0,.55-.06,1.53,1.53,0,0,0,.61-.29,3.11,3.11,0,0,0,.64-.69,6.67,6.67,0,0,0,.63-1.26h-1.5l-3-8.22-.75-.23v-1.06H59v1.05l-1.26.24,1.59,4.92.64,2.26.57-2.26,1.26-4.92-1.08-.24v-1.05h3.67v1.06l-.76.23-.51,1.63c-.18.59-.36,1.18-.55,1.77s-.36,1.17-.54,1.74-.33,1.08-.48,1.54-.27.86-.38,1.19a6.1,6.1,0,0,1-.23.66A8.44,8.44,0,0,1,59.28,425,3.08,3.08,0,0,1,57,426Z"/><path class="cls-2" d="M70.62,421.77v-1.08l1-.19v-6.39l-1.12-.35v-1.25l2.93-.41h.05l.44.36v1a3.75,3.75,0,0,1,.67-.49,5.87,5.87,0,0,1,.87-.43,6,6,0,0,1,.94-.29,4.26,4.26,0,0,1,.91-.11,3.25,3.25,0,0,1,1.52.31,1.92,1.92,0,0,1,.85,1,5.15,5.15,0,0,1,.61-.44,6,6,0,0,1,.84-.41,6.74,6.74,0,0,1,1-.31,4.18,4.18,0,0,1,1-.13,3.8,3.8,0,0,1,1.31.2,1.84,1.84,0,0,1,.83.65,3,3,0,0,1,.45,1.17,9.56,9.56,0,0,1,.14,1.74v4.62l1.17.19v1.08h-4.6v-1.08l.87-.19V416a6.58,6.58,0,0,0-.07-1.08,2,2,0,0,0-.24-.72.92.92,0,0,0-.45-.4,1.75,1.75,0,0,0-.7-.13,2,2,0,0,0-.46.06l-.5.15-.48.19-.4.22a7.57,7.57,0,0,1,.09.76c0,.27,0,.57,0,.89v4.61l1.11.18v1.08H76.53v-1.08l1-.18v-4.64a7.1,7.1,0,0,0-.06-1,2,2,0,0,0-.23-.69,1,1,0,0,0-.44-.39,1.62,1.62,0,0,0-.7-.13,2.37,2.37,0,0,0-.52.06,3.18,3.18,0,0,0-.53.14,4.15,4.15,0,0,0-.47.2,2.39,2.39,0,0,0-.37.23v6.2l1.12.19v1.08Z"/><path class="cls-2" d="M92.32,422a5.08,5.08,0,0,1-2-.36,3.89,3.89,0,0,1-1.39-1,4.28,4.28,0,0,1-.8-1.56,7.23,7.23,0,0,1-.25-2,6.35,6.35,0,0,1,.32-2.08,4.41,4.41,0,0,1,.93-1.56,4,4,0,0,1,1.44-1,5,5,0,0,1,1.86-.34q3.43,0,3.59,3.36c0,.39,0,.73,0,1a4.94,4.94,0,0,1-.08.77H90.5a5.43,5.43,0,0,0,.24,1.41,2.64,2.64,0,0,0,.52.94,1.84,1.84,0,0,0,.77.53,2.57,2.57,0,0,0,1,.17,3.87,3.87,0,0,0,.79-.07,5.68,5.68,0,0,0,.68-.16,3.26,3.26,0,0,0,.56-.23,3.49,3.49,0,0,0,.44-.24l.43,1a3.45,3.45,0,0,1-.58.45,5.46,5.46,0,0,1-.84.44,7.31,7.31,0,0,1-1,.33A4.72,4.72,0,0,1,92.32,422Zm-.22-8.76a1.46,1.46,0,0,0-.6.11,1.13,1.13,0,0,0-.49.44,3,3,0,0,0-.35.9,7.86,7.86,0,0,0-.17,1.49h3V416a.86.86,0,0,0,0-.16c0-.06,0-.11,0-.16v-.11a6.33,6.33,0,0,0-.06-.86,2.79,2.79,0,0,0-.21-.77,1.53,1.53,0,0,0-.43-.56A1.09,1.09,0,0,0,92.1,413.2Z"/><path class="cls-2" d="M97.15,419.25a2.5,2.5,0,0,1,.22-1.09,2.45,2.45,0,0,1,.6-.83,3.71,3.71,0,0,1,.91-.61,7.53,7.53,0,0,1,1.13-.41,7.2,7.2,0,0,1,1.26-.23c.44-.05.88-.08,1.31-.1v-.39a1.9,1.9,0,0,0-.38-1.35,1.7,1.7,0,0,0-1.27-.41,6.82,6.82,0,0,0-.9.07q-.45.08-.87.18c-.27.07-.53.15-.76.23s-.44.17-.61.25h0l-.49-1.12a5,5,0,0,1,.59-.37,6.73,6.73,0,0,1,1-.44,9.92,9.92,0,0,1,1.29-.37,6.32,6.32,0,0,1,1.45-.16,5.45,5.45,0,0,1,1.57.2,2.5,2.5,0,0,1,1,.61,2.46,2.46,0,0,1,.59,1,5.21,5.21,0,0,1,.19,1.5v5.18h1v1l-.39.09-.52.1-.6.08c-.22,0-.44,0-.67,0l-.51,0a.8.8,0,0,1-.34-.12.51.51,0,0,1-.19-.26,1.89,1.89,0,0,1,0-.46v-.48q-.15.18-.39.42a3.84,3.84,0,0,1-.61.44,3.44,3.44,0,0,1-.8.34,3.1,3.1,0,0,1-1,.14,3.59,3.59,0,0,1-1.11-.16,2.46,2.46,0,0,1-.9-.49,2.28,2.28,0,0,1-.61-.84A3.06,3.06,0,0,1,97.15,419.25Zm3.94,1.11a2.38,2.38,0,0,0,.34,0l.4-.12a3.65,3.65,0,0,0,.41-.18,2.24,2.24,0,0,0,.34-.23V417a5.24,5.24,0,0,0-1.35.15,2.37,2.37,0,0,0-.86.4,1.31,1.31,0,0,0-.46.57,1.77,1.77,0,0,0-.14.69,1.63,1.63,0,0,0,.34,1.12A1.22,1.22,0,0,0,101.09,420.36Z"/><path class="cls-2" d="M107.11,421.77v-1.11l1.07-.17v-6.38l-1.13-.35v-1.25l3-.41h0l.44.36v1a5.24,5.24,0,0,1,.65-.49,5.43,5.43,0,0,1,1.73-.71,4,4,0,0,1,1-.12,3.67,3.67,0,0,1,1.33.21,1.77,1.77,0,0,1,.85.67,3,3,0,0,1,.45,1.17,9.61,9.61,0,0,1,.13,1.73v4.6l1.18.16v1.11h-4.67v-1.11l.9-.16v-4.63a7.1,7.1,0,0,0-.06-1,2,2,0,0,0-.21-.69.88.88,0,0,0-.42-.39,1.56,1.56,0,0,0-.7-.13,2.57,2.57,0,0,0-.55.06,4,4,0,0,0-.52.16,4.71,4.71,0,0,0-.45.22,3.53,3.53,0,0,0-.35.24v6.14l1.11.17v1.11Z"/><path class="cls-2" d="M119,421.24v-2.33h1.53l.43,1.29a1,1,0,0,0,.23.22,2,2,0,0,0,.36.19,2.77,2.77,0,0,0,.48.13,2.53,2.53,0,0,0,.56.06,1.82,1.82,0,0,0,.67-.1,1.2,1.2,0,0,0,.42-.25.83.83,0,0,0,.22-.35,1.28,1.28,0,0,0,0-.38,1,1,0,0,0-.17-.6,1.8,1.8,0,0,0-.51-.47,6.35,6.35,0,0,0-.79-.41l-1-.43a6.19,6.19,0,0,1-1-.52,3.56,3.56,0,0,1-.78-.64,2.87,2.87,0,0,1-.49-.8,2.57,2.57,0,0,1-.18-1,2.53,2.53,0,0,1,.25-1.09,2.4,2.4,0,0,1,.73-.87,3.57,3.57,0,0,1,1.19-.58,5.9,5.9,0,0,1,1.65-.21,7.15,7.15,0,0,1,1,.06c.28.05.54.1.77.16l.64.18.57.15V415l-1.45,0-.39-1.1a1.06,1.06,0,0,0-.44-.37,1.77,1.77,0,0,0-.82-.19,2.12,2.12,0,0,0-.62.08,1.07,1.07,0,0,0-.41.23.81.81,0,0,0-.22.31.83.83,0,0,0-.07.34,1.08,1.08,0,0,0,.23.71,1.72,1.72,0,0,0,.56.47,5.16,5.16,0,0,0,.75.34c.27.1.53.2.77.31s.71.33,1,.51a4.38,4.38,0,0,1,.88.63,2.7,2.7,0,0,1,.61.82,2.46,2.46,0,0,1,.23,1.12,2.77,2.77,0,0,1-.23,1.12,2.56,2.56,0,0,1-.72.9,3.58,3.58,0,0,1-1.19.59,5.66,5.66,0,0,1-1.68.22,7.33,7.33,0,0,1-1.2-.09,9.42,9.42,0,0,1-1-.21c-.3-.08-.56-.16-.79-.24S119.18,421.28,119,421.24Z"/><path class="cls-2" d="M129.84,421.91a1.67,1.67,0,0,1-.55-.09,1.37,1.37,0,0,1-.47-.27,1.1,1.1,0,0,1-.31-.42,1.2,1.2,0,0,1-.12-.55,1.44,1.44,0,0,1,.13-.62,1.55,1.55,0,0,1,.37-.51,1.63,1.63,0,0,1,.54-.33,1.75,1.75,0,0,1,.65-.12,1.78,1.78,0,0,1,.69.11,1.13,1.13,0,0,1,.46.29,1,1,0,0,1,.26.42,1.7,1.7,0,0,1,.08.51,1.51,1.51,0,0,1-.13.65,1.49,1.49,0,0,1-.36.5,1.61,1.61,0,0,1-.54.32A2.28,2.28,0,0,1,129.84,421.91Z"/></svg>