<svg id="Layer_1" data-name="Layer 1" xmlns="http://www.w3.org/2000/svg" viewBox="0 0 970 250"><defs><style>.cls-1{fill:#435563;}.cls-2,.cls-6{fill:#fff;}.cls-2{opacity:0.05;}.cls-3{fill:#e87824;}.cls-4{fill:#d4262f;}.cls-5{fill:#f1b533;}.cls-7{fill:none;stroke:#f1b533;stroke-miterlimit:10;stroke-width:3px;}</style></defs><rect class="cls-1" width="970" height="250"/><polygon class="cls-2" points="970 7.82 970 25.8 961.47 17.11 943.82 35.09 926.18 17.11 908.53 35.09 890.88 17.11 873.24 35.09 855.59 17.11 837.94 35.09 820.29 17.11 802.65 35.09 785 17.11 767.35 35.09 749.71 17.11 732.06 35.09 714.41 17.11 696.76 35.09 679.12 17.11 661.47 35.09 643.82 17.11 626.18 35.09 608.53 17.11 590.88 35.09 573.24 17.11 555.59 35.09 537.94 17.11 520.29 35.09 502.65 17.11 485 35.09 467.35 17.11 458.53 26.1 449.71 35.09 432.06 17.11 414.41 35.09 396.76 17.11 379.12 35.09 361.47 17.11 343.82 35.09 326.18 17.11 308.53 35.09 290.88 17.11 273.24 35.09 255.59 17.11 237.94 35.09 220.29 17.11 202.65 35.09 185 17.11 167.35 35.09 149.71 17.11 132.06 35.09 114.41 17.11 96.76 35.09 79.12 17.11 61.47 35.09 43.82 17.11 26.18 35.09 8.53 17.11 0 25.8 0 7.82 7.68 0 9.38 0 26.18 17.11 42.97 0 44.67 0 61.47 17.11 78.27 0 79.97 0 96.76 17.11 113.56 0 115.26 0 132.06 17.11 148.86 0 150.56 0 167.35 17.11 184.15 0 185.85 0 202.65 17.11 219.44 0 221.14 0 237.94 17.11 254.74 0 256.44 0 273.24 17.11 290.03 0 291.73 0 308.53 17.11 325.33 0 327.03 0 343.82 17.11 360.62 0 362.32 0 379.12 17.11 395.91 0 397.61 0 414.41 17.11 431.21 0 432.91 0 449.71 17.11 466.5 0 468.2 0 485 17.11 501.8 0 503.5 0 520.29 17.11 537.09 0 538.79 0 555.59 17.11 572.39 0 574.09 0 590.88 17.11 607.68 0 609.38 0 626.18 17.11 642.97 0 644.67 0 661.47 17.11 678.27 0 679.97 0 696.76 17.11 713.56 0 715.26 0 732.06 17.11 748.86 0 750.56 0 767.35 17.11 784.15 0 785.85 0 802.65 17.11 819.44 0 821.14 0 837.94 17.11 854.74 0 856.44 0 873.24 17.11 890.03 0 891.73 0 908.53 17.11 925.33 0 927.03 0 943.82 17.11 960.62 0 962.32 0 970 7.82"/><polygon class="cls-2" points="970 43.78 970 61.76 961.47 53.07 943.82 71.05 926.18 53.07 908.53 71.05 890.88 53.07 873.24 71.05 855.59 53.07 837.94 71.05 820.29 53.07 802.65 71.05 785 53.07 767.35 71.05 749.71 53.07 732.06 71.05 714.41 53.07 696.76 71.05 679.12 53.07 661.47 71.05 643.82 53.07 626.18 71.05 608.53 53.07 590.88 71.05 573.24 53.07 555.59 71.05 537.94 53.07 520.29 71.05 502.65 53.07 485 71.05 467.35 53.07 458.53 62.06 449.71 71.05 432.06 53.07 414.41 71.05 396.76 53.07 379.12 71.05 361.47 53.07 343.82 71.05 326.18 53.07 308.53 71.05 290.88 53.07 273.24 71.05 255.59 53.07 237.94 71.05 220.29 53.07 202.65 71.05 185 53.07 167.35 71.05 149.71 53.07 132.06 71.05 114.41 53.07 96.76 71.05 79.12 53.07 61.47 71.05 43.82 53.07 26.18 71.05 8.53 53.07 0 61.76 0 43.78 8.53 35.09 26.18 53.07 43.82 35.09 61.47 53.07 79.12 35.09 96.76 53.07 114.41 35.09 132.06 53.07 149.71 35.09 167.35 53.07 185 35.09 202.65 53.07 220.29 35.09 237.94 53.07 255.59 35.09 273.24 53.07 290.88 35.09 308.53 53.07 326.18 35.09 343.82 53.07 361.47 35.09 379.12 53.07 396.76 35.09 414.41 53.07 432.06 35.09 449.71 53.07 467.35 35.09 485 53.07 502.65 35.09 520.29 53.07 537.94 35.09 555.59 53.07 573.24 35.09 590.88 53.07 608.53 35.09 626.18 53.07 643.82 35.09 661.47 53.07 679.12 35.09 696.76 53.07 714.41 35.09 732.06 53.07 749.71 35.09 767.35 53.07 785 35.09 802.65 53.07 820.29 35.09 837.94 53.07 855.59 35.09 873.24 53.07 890.88 35.09 908.53 53.07 926.18 35.09 943.82 53.07 961.47 35.09 970 43.78"/><polygon class="cls-2" points="970 79.74 970 97.73 961.47 89.04 943.82 107.02 926.18 89.04 908.53 107.02 890.88 89.04 873.24 107.02 855.59 89.04 837.94 107.02 820.29 89.04 802.65 107.02 785 89.04 767.35 107.02 749.71 89.04 732.06 107.02 714.41 89.04 696.76 107.02 679.12 89.04 661.47 107.02 643.82 89.04 626.18 107.02 608.53 89.04 590.88 107.02 573.24 89.04 555.59 107.02 537.94 89.04 520.29 107.02 502.65 89.04 485 107.02 467.35 89.04 458.53 98.03 449.71 107.02 440.88 98.03 432.06 89.04 414.41 107.02 396.76 89.04 379.12 107.02 361.47 89.04 343.82 107.02 326.18 89.04 308.53 107.02 290.88 89.04 273.24 107.02 255.59 89.04 237.94 107.02 220.29 89.04 202.65 107.02 185 89.04 167.35 107.02 149.71 89.04 132.06 107.02 114.41 89.04 96.76 107.02 79.12 89.04 61.47 107.02 43.82 89.04 26.18 107.02 8.53 89.04 0 97.73 0 79.74 8.53 71.05 26.18 89.04 43.82 71.05 61.47 89.04 79.12 71.05 96.76 89.04 114.41 71.05 132.06 89.04 149.71 71.05 167.35 89.04 185 71.05 202.65 89.04 220.29 71.05 237.94 89.04 255.59 71.05 273.24 89.04 290.88 71.05 308.53 89.04 326.18 71.05 343.82 89.04 361.47 71.05 379.12 89.04 396.76 71.05 414.41 89.04 432.06 71.05 449.71 89.04 467.35 71.05 485 89.04 502.65 71.05 520.29 89.04 537.94 71.05 555.59 89.04 573.24 71.05 590.88 89.04 608.53 71.05 626.18 89.04 643.82 71.05 661.47 89.04 679.12 71.05 696.76 89.04 714.41 71.05 732.06 89.04 749.71 71.05 767.35 89.04 785 71.05 802.65 89.04 820.29 71.05 837.94 89.04 855.59 71.05 873.24 89.04 890.88 71.05 908.53 89.04 926.18 71.05 943.82 89.04 961.47 71.05 970 79.74"/><polygon class="cls-2" points="970 115.71 970 133.69 961.47 125 943.82 142.98 926.18 125 908.53 142.98 890.88 125 873.24 142.98 855.59 125 837.94 142.98 820.29 125 802.65 142.98 785 125 767.35 142.98 749.71 125 732.06 142.98 714.41 125 696.76 142.98 679.12 125 661.47 142.98 643.82 125 626.18 142.98 608.53 125 590.88 142.98 573.24 125 555.59 142.98 537.94 125 520.29 142.98 502.65 125 485 142.98 467.35 125 458.53 133.99 449.71 142.98 432.06 125 414.41 142.98 396.76 125 379.12 142.98 361.47 125 343.82 142.98 326.18 125 308.53 142.98 290.88 125 273.24 142.98 255.59 125 237.94 142.98 220.29 125 202.65 142.98 185 125 167.35 142.98 149.71 125 132.06 142.98 114.41 125 96.76 142.98 79.12 125 61.47 142.98 43.82 125 26.18 142.98 8.53 125 0 133.69 0 115.71 8.53 107.02 26.18 125 43.82 107.02 61.47 125 79.12 107.02 96.76 125 114.41 107.02 132.06 125 149.71 107.02 167.35 125 185 107.02 202.65 125 220.29 107.02 237.94 125 255.59 107.02 273.24 125 290.88 107.02 308.53 125 326.18 107.02 343.82 125 361.47 107.02 379.12 125 396.76 107.02 414.41 125 432.06 107.02 449.71 125 467.35 107.02 485 125 502.65 107.02 520.29 125 537.94 107.02 555.59 125 573.24 107.02 590.88 125 608.53 107.02 626.18 125 643.82 107.02 661.47 125 679.12 107.02 696.76 125 714.41 107.02 732.06 125 749.71 107.02 767.35 125 785 107.02 802.65 125 820.29 107.02 837.94 125 855.59 107.02 873.24 125 890.88 107.02 908.53 125 926.18 107.02 943.82 125 961.47 107.02 970 115.71"/><polygon class="cls-2" points="970 151.67 970 169.65 961.47 160.96 943.82 178.94 926.18 160.96 908.53 178.94 890.88 160.96 873.24 178.94 855.59 160.96 837.94 178.94 820.29 160.96 802.65 178.94 785 160.96 767.35 178.94 749.71 160.96 732.06 178.94 714.41 160.96 696.76 178.94 679.12 160.96 661.47 178.94 643.82 160.96 626.18 178.94 608.53 160.96 590.88 178.94 573.24 160.96 555.59 178.94 537.94 160.96 520.29 178.94 502.65 160.96 485 178.94 467.35 160.96 458.53 169.95 449.71 178.94 432.06 160.96 414.41 178.94 396.76 160.96 379.12 178.94 361.47 160.96 343.82 178.94 326.18 160.96 308.53 178.94 290.88 160.96 273.24 178.94 255.59 160.96 237.94 178.94 220.29 160.96 202.65 178.94 185 160.96 167.35 178.94 149.71 160.96 132.06 178.94 114.41 160.96 96.76 178.94 79.12 160.96 61.47 178.94 43.82 160.96 26.18 178.94 8.53 160.96 0 169.65 0 151.67 8.53 142.98 26.18 160.96 43.82 142.98 61.47 160.96 79.12 142.98 96.76 160.96 114.41 142.98 132.06 160.96 149.71 142.98 167.35 160.96 185 142.98 202.65 160.96 220.29 142.98 237.94 160.96 255.59 142.98 273.24 160.96 290.88 142.98 308.53 160.96 326.18 142.98 343.82 160.96 361.47 142.98 379.12 160.96 396.76 142.98 414.41 160.96 432.06 142.98 449.71 160.96 467.35 142.98 485 160.96 502.65 142.98 520.29 160.96 537.94 142.98 555.59 160.96 573.24 142.98 590.88 160.96 608.53 142.98 626.18 160.96 643.82 142.98 661.47 160.96 679.12 142.98 696.76 160.96 714.41 142.98 732.06 160.96 749.71 142.98 767.35 160.96 785 142.98 802.65 160.96 820.29 142.98 837.94 160.96 855.59 142.98 873.24 160.96 890.88 142.98 908.53 160.96 926.18 142.98 943.82 160.96 961.47 142.98 970 151.67"/><polygon class="cls-2" points="970 187.63 970 205.61 961.47 196.92 943.82 214.9 926.18 196.92 908.53 214.9 890.88 196.92 873.24 214.9 855.59 196.92 837.94 214.9 820.29 196.92 802.65 214.9 785 196.92 767.35 214.9 749.71 196.92 732.06 214.9 714.41 196.92 696.76 214.9 679.12 196.92 661.47 214.9 643.82 196.92 626.18 214.9 608.53 196.92 590.88 214.9 573.24 196.92 555.59 214.9 537.94 196.92 520.29 214.9 502.65 196.92 485 214.9 467.35 196.92 458.53 205.91 449.71 214.9 432.06 196.92 414.41 214.9 396.76 196.92 379.12 214.9 361.47 196.92 343.82 214.9 326.18 196.92 308.53 214.9 290.88 196.92 273.24 214.9 255.59 196.92 237.94 214.9 220.29 196.92 202.65 214.9 185 196.92 167.35 214.9 149.71 196.92 132.06 214.9 114.41 196.92 96.76 214.9 79.12 196.92 61.47 214.9 43.82 196.92 26.18 214.9 8.53 196.92 0 205.61 0 187.63 8.53 178.94 26.18 196.92 43.82 178.94 61.47 196.92 79.12 178.94 96.76 196.92 114.41 178.94 132.06 196.92 149.71 178.94 167.35 196.92 185 178.94 202.65 196.92 220.29 178.94 237.94 196.92 255.59 178.94 273.24 196.92 290.88 178.94 308.53 196.92 326.18 178.94 343.82 196.92 361.47 178.94 379.12 196.92 396.76 178.94 414.41 196.92 432.06 178.94 449.71 196.92 467.35 178.94 485 196.92 502.65 178.94 520.29 196.92 537.94 178.94 555.59 196.92 573.24 178.94 590.88 196.92 608.53 178.94 626.18 196.92 643.82 178.94 661.47 196.92 679.12 178.94 696.76 196.92 714.41 178.94 732.06 196.92 749.71 178.94 767.35 196.92 785 178.94 802.65 196.92 820.29 178.94 837.94 196.92 855.59 178.94 873.24 196.92 890.88 178.94 908.53 196.92 926.18 178.94 943.82 196.92 961.47 178.94 970 187.63"/><polygon class="cls-2" points="970 223.59 970 241.57 961.47 232.88 944.67 250 942.97 250 926.18 232.88 909.38 250 907.68 250 890.88 232.88 874.09 250 872.39 250 855.59 232.88 838.79 250 837.09 250 820.29 232.88 803.5 250 801.8 250 785 232.88 768.2 250 766.5 250 749.71 232.88 732.91 250 731.21 250 714.41 232.88 697.61 250 695.91 250 679.12 232.88 662.32 250 660.62 250 643.82 232.88 627.03 250 625.33 250 608.53 232.88 591.73 250 590.03 250 573.24 232.88 556.44 250 554.74 250 537.94 232.88 521.14 250 519.44 250 502.65 232.88 485.85 250 484.15 250 467.35 232.88 458.53 241.87 450.56 250 448.86 250 440.88 241.87 432.06 232.88 415.26 250 413.56 250 396.76 232.88 379.97 250 378.27 250 361.47 232.88 344.67 250 342.97 250 326.18 232.88 309.38 250 307.68 250 290.88 232.88 274.09 250 272.39 250 255.59 232.88 238.79 250 237.09 250 220.29 232.88 203.5 250 201.8 250 185 232.88 168.2 250 166.5 250 149.71 232.88 132.91 250 131.21 250 114.41 232.88 97.61 250 95.91 250 79.12 232.88 62.32 250 60.62 250 43.82 232.88 27.03 250 25.33 250 8.53 232.88 0 241.57 0 223.59 8.53 214.9 26.18 232.88 43.82 214.9 61.47 232.88 79.12 214.9 96.76 232.88 114.41 214.9 132.06 232.88 149.71 214.9 167.35 232.88 185 214.9 202.65 232.88 220.29 214.9 237.94 232.88 255.59 214.9 273.24 232.88 290.88 214.9 308.53 232.88 326.18 214.9 343.82 232.88 361.47 214.9 379.12 232.88 396.76 214.9 414.41 232.88 432.06 214.9 449.71 232.88 467.35 214.9 485 232.88 502.65 214.9 520.29 232.88 537.94 214.9 555.59 232.88 573.24 214.9 590.88 232.88 608.53 214.9 626.18 232.88 643.82 214.9 661.47 232.88 679.12 214.9 696.76 232.88 714.41 214.9 732.06 232.88 749.71 214.9 767.35 232.88 785 214.9 802.65 232.88 820.29 214.9 837.94 232.88 855.59 214.9 873.24 232.88 890.88 214.9 908.53 232.88 926.18 214.9 943.82 232.88 961.47 214.9 970 223.59"/><path class="cls-3" d="M118.11,88.91,107.05,100a1,1,0,0,1-.81.3v7.1a1,1,0,0,0,.57-.28L118,95.91a1,1,0,0,1,.8-.3v-7a1,1,0,0,0-.69.3"/><path class="cls-3" d="M133.38,105.23H117.73a1.07,1.07,0,0,1-.79-.36l-5.22,4.82a1,1,0,0,0,.8.39h15.82a1.06,1.06,0,0,1,.75.32l5-4.87a1.07,1.07,0,0,0-.73-.3"/><path class="cls-3" d="M132.63,127.55l-11.06-11.07a1,1,0,0,1-.28-1h-7.14a1,1,0,0,0,.3.73l11.19,11.18a1,1,0,0,1,.3.73h7a1,1,0,0,0-.29-.61"/><path class="cls-3" d="M111.46,122v15.82a1,1,0,0,1-.35.77l4.94,4.95a1.08,1.08,0,0,0,.27-.69V127.17a1,1,0,0,1,.25-.67l-4.8-5.27a1,1,0,0,0-.31.73"/><path class="cls-3" d="M105.3,123.9,94.11,135.08a1,1,0,0,1-.68.3v7a1,1,0,0,0,.57-.29L105.07,131a1,1,0,0,1,.77-.3v-7.1a1.1,1.1,0,0,0-.54.29"/><path class="cls-3" d="M99.59,120.91H83.76a1,1,0,0,1-.77-.36l-4.95,5a1.09,1.09,0,0,0,.7.27H94.38a1,1,0,0,1,.74.31l5.15-4.91a1,1,0,0,0-.68-.26"/><path class="cls-3" d="M98,115.4a1.06,1.06,0,0,0-.3-.65l-11.18-11.2a1,1,0,0,1-.24-1.09h-7a1,1,0,0,0,.27,1L90.54,114.5a1,1,0,0,1,.29.9H98"/><path class="cls-3" d="M100.65,109V93.2a1,1,0,0,1,.37-.78l-5-5a1.07,1.07,0,0,0-.28.71v15.66a1.08,1.08,0,0,1-.27.69l4.86,5.19a1.08,1.08,0,0,0,.27-.69"/><path class="cls-4" d="M105.58,100l-1.9-1.89c-.41-.41-.74-.27-.74.3v5.27a2.85,2.85,0,0,0,.74,1.77l1.65,1.66a1,1,0,0,0,.91.28v-7.1a1,1,0,0,1-.66-.29"/><path class="cls-4" d="M116.68,104.19V101.5c0-.58-.33-.71-.73-.31l-3.73,3.73a2.94,2.94,0,0,0-.73,1.78V109a1,1,0,0,0,.23.65l5.22-4.82a1.1,1.1,0,0,1-.26-.68"/><path class="cls-4" d="M121.57,115l1.9-1.9c.4-.41.27-.73-.3-.73h-5.28a2.89,2.89,0,0,0-1.78.73l-1.66,1.66a1,1,0,0,0-.3.75h7.14a1,1,0,0,1,.28-.51"/><path class="cls-4" d="M120.35,125.4l-3.72-3.74a2.9,2.9,0,0,0-1.78-.74H112.5a1,1,0,0,0-.73.31l4.8,5.27a1.08,1.08,0,0,1,.79-.37H120c.57,0,.71-.33.31-.73"/><path class="cls-4" d="M108.43,125.55l-1.65-1.65a1.06,1.06,0,0,0-.94-.29v7.1a1.08,1.08,0,0,1,.7.3l1.9,1.89c.4.41.73.27.73-.3v-5.28a2.85,2.85,0,0,0-.74-1.77"/><path class="cls-4" d="M100.27,121.17l-5.15,4.91a1,1,0,0,1,.3.73v2.67c0,.57.33.71.74.3l3.73-3.72a2.87,2.87,0,0,0,.74-1.78V122a1,1,0,0,0-.36-.78"/><path class="cls-4" d="M90.83,115.4a1.08,1.08,0,0,1-.29.57l-1.89,1.9c-.41.4-.27.73.3.73h5.28a2.89,2.89,0,0,0,1.77-.73l1.65-1.65a1,1,0,0,0,.3-.82H90.83"/><path class="cls-4" d="M95.52,104.52a1.07,1.07,0,0,1-.78.35H92.06c-.57,0-.71.33-.31.73l3.74,3.73a2.89,2.89,0,0,0,1.77.73h2.35a1.05,1.05,0,0,0,.77-.35l-4.86-5.19"/><path class="cls-5" d="M131.61,100.94l-12-12a1,1,0,0,0-.78-.3v7a1.06,1.06,0,0,1,.67.3l5,5a2.85,2.85,0,0,0,1.77.74h5c.58,0,.71-.34.31-.74"/><path class="cls-5" d="M134.11,105.53l-5,4.87a1.05,1.05,0,0,1,.3.73v7.13a2.82,2.82,0,0,0,.74,1.76l3.54,3.4c.41.4.74.26.74-.31V106.27a1,1,0,0,0-.3-.74"/><path class="cls-5" d="M125.94,128.16a1,1,0,0,1-.3.75l-5,5a2.85,2.85,0,0,0-.74,1.77v5.06c0,.57.33.7.73.3l12-12a1,1,0,0,0,.29-.87h-7"/><path class="cls-5" d="M110.42,138.82H103.3a2.81,2.81,0,0,0-1.76.75l-3.42,3.53c-.4.42-.26.75.32.75h16.84a1,1,0,0,0,.77-.35l-4.94-4.95a1,1,0,0,1-.69.27"/><path class="cls-5" d="M92.64,135.08l-5-5.05a2.92,2.92,0,0,0-1.78-.73l-5.08,0c-.57,0-.71.32-.3.73l12.08,12.07a1,1,0,0,0,.9.29v-7a1,1,0,0,1-.79-.3"/><path class="cls-5" d="M82.72,119.87v-7.14A2.81,2.81,0,0,0,82,111l-3.53-3.41c-.41-.4-.74-.26-.74.31v16.86a1,1,0,0,0,.34.77l4.95-5a1,1,0,0,1-.27-.68"/><path class="cls-5" d="M86.47,102.08l5-5a2.77,2.77,0,0,0,.72-1.77l-.09-4.93c0-.57-.34-.7-.75-.3L79.48,102a1,1,0,0,0-.27.49h7a1,1,0,0,1,.24-.38"/><path class="cls-5" d="M113.68,87.13H96.83a1,1,0,0,0-.76.33l5,5a1,1,0,0,1,.67-.25h7.12a2.86,2.86,0,0,0,1.77-.75L114,87.88c.4-.41.26-.75-.31-.75"/><path class="cls-5" d="M132,139a2.44,2.44,0,1,1,0,4.87,2.44,2.44,0,1,1,0-4.87h0m0,.55a1.88,1.88,0,1,0,1.82,1.88,1.82,1.82,0,0,0-1.82-1.88Zm-.31,3.09h-.66v-2.33a4.27,4.27,0,0,1,1-.09,1.45,1.45,0,0,1,.87.18.57.57,0,0,1,.24.5.62.62,0,0,1-.5.55v0a.69.69,0,0,1,.44.59,2.93,2.93,0,0,0,.17.57h-.7a2,2,0,0,1-.17-.55.38.38,0,0,0-.44-.34h-.22Zm0-1.33h.23c.28,0,.48-.11.48-.33s-.14-.32-.45-.32l-.26,0Z"/><path class="cls-6" d="M160.51,123.27c-5.68,0-9-3.59-9-9.28,0-6.37,4-9.45,9-9.45a13.46,13.46,0,0,1,5.39,1l1.35-5.06a16.74,16.74,0,0,0-7-1.26c-8.59,0-15.5,5.36-15.5,15.06,0,8.14,5.06,14.3,14.87,14.3a18.9,18.9,0,0,0,7.24-1.23l-.92-5.06a15.3,15.3,0,0,1-5.4.93"/><path class="cls-6" d="M178.34,107.07c-6.66,0-11,4.26-11,10.92s4.63,10.63,10.65,10.63h0c5.47,0,10.82-3.46,10.82-11,0-6.25-4.21-10.59-10.48-10.59m-.26,17h0c-2.69,0-4.17-2.65-4.17-6.16,0-3.07,1.18-6.2,4.21-6.2s4.09,3.13,4.09,6.16C182.17,121.53,180.61,124,178.08,124Z"/><path class="cls-6" d="M240,107.07a7.82,7.82,0,0,0-3.9,1,8.82,8.82,0,0,0-2.7,2.53h-.09a5.79,5.79,0,0,0-5.64-3.54,7.13,7.13,0,0,0-6.23,3.29l-.38.45a6.23,6.23,0,0,0-5.95-3.74,7.9,7.9,0,0,0-3.92,1,9,9,0,0,0-2.69,2.53h-.08a5.81,5.81,0,0,0-5.64-3.54,7.15,7.15,0,0,0-6.24,3.29h-.12l-.26-2.83h-5.43c.09,1.86.17,4,.17,6.58v14h6.23v-12a4.28,4.28,0,0,1,.26-1.64,3.26,3.26,0,0,1,3-2.29c2.06,0,3,1.78,3,4.35v11.56h6.23V116.1a6.58,6.58,0,0,1,.21-1.61,3.17,3.17,0,0,1,3-2.24c1.92,0,2.88,1.5,3,4.09v11.82H222V116c0-.12,0-.23,0-.35a3.44,3.44,0,0,1,.24-1.12,3.28,3.28,0,0,1,3-2.29c2.07,0,3,1.78,3,4.35v11.56h6.23V116.1a6.58,6.58,0,0,1,.22-1.61,3.17,3.17,0,0,1,3-2.24c2.07,0,3,1.73,3,4.73v11.18h6.24V116c0-6.16-3-8.94-7-8.94"/><path class="cls-6" d="M268.7,107.53h-6.4v12.28a3.33,3.33,0,0,1-.26,1.38,3.39,3.39,0,0,1-3.2,2.24c-2.27,0-3.24-1.82-3.24-4.8v-11.1h-6.39v12.11c0,6.35,3,9,7.24,9a7.37,7.37,0,0,0,6.44-3.37H263l.3,2.91h5.56c-.09-1.74-.17-3.92-.17-6.63v-14"/><path class="cls-6" d="M283.5,107.07a7.38,7.38,0,0,0-6.35,3.33H277l-.29-2.87h-5.56c.08,1.86.17,4,.17,6.58v14h6.4v-11.9a4.57,4.57,0,0,1,.21-1.6,3.51,3.51,0,0,1,3.28-2.41c2.33,0,3.24,1.82,3.24,4.48v11.43h6.4V116c0-6.08-3.15-8.9-7.37-8.9"/><path class="cls-6" d="M296.72,98a3.42,3.42,0,1,0-.1,6.84h.05a3.42,3.42,0,1,0,.05-6.84"/><path class="cls-6" d="M331,107.53l-2.52,10.13c-.31,1.18-.65,2.73-.94,3.83h-.12c-.26-1.1-.68-2.62-1-3.83l-3.08-10.13h-12v-5.61L305,103.65v3.88H293.47v20.63h6.4V112.25H305v8.48c0,2.91.59,4.9,1.76,6.11a6.86,6.86,0,0,0,4.86,1.78,13.29,13.29,0,0,0,4.12-.55l0-4.84a9,9,0,0,1-1.9.16c-1.9,0-2.53-1.13-2.53-3.62v-7.52h6.82l5.69,14.13a2.92,2.92,0,0,1,.24,1.05,1.81,1.81,0,0,1-.33.94,7.4,7.4,0,0,1-2.65,2.57,9.87,9.87,0,0,1-2.78,1.09l1.35,5.4a11.29,11.29,0,0,0,6.19-2.82c2.32-2.07,4.3-5.32,7.23-13.5l4.81-13.58H331"/><polyline class="cls-6" points="194.64 141.91 194.64 150.18 203.36 150.18 203.36 141.91 207.13 141.91 207.13 162.53 203.36 162.53 203.36 153.45 194.64 153.45 194.64 162.53 190.88 162.53 190.88 141.91 194.64 141.91"/><path class="cls-6" d="M213.28,156.14c.09,2.69,2.16,3.85,4.58,3.85a12.16,12.16,0,0,0,4.13-.67l.56,2.58a13.66,13.66,0,0,1-5.2.94c-4.84,0-7.68-3-7.68-7.53,0-4.13,2.51-8,7.28-8s6.42,4,6.42,7.25a9.5,9.5,0,0,1-.12,1.59h-10m6.55-2.63c0-1.38-.59-3.64-3.1-3.64-2.32,0-3.3,2.11-3.45,3.64Z"/><path class="cls-6" d="M237.4,159a19.52,19.52,0,0,0,.25,3.58h-3.4l-.27-1.66h-.09a5.43,5.43,0,0,1-4.41,2,4.42,4.42,0,0,1-4.68-4.44c0-3.73,3.33-5.65,8.84-5.62v-.25c0-1-.4-2.6-3-2.6a7.92,7.92,0,0,0-4,1.1l-.73-2.44a10.64,10.64,0,0,1,5.38-1.32c4.78,0,6.15,3,6.15,6.3V159m-3.67-3.71c-2.66,0-5.2.52-5.2,2.79a2,2,0,0,0,2.14,2.14,3.1,3.1,0,0,0,3-2.05,2.61,2.61,0,0,0,.09-.83Z"/><rect class="cls-6" x="240.76" y="140.81" width="3.77" height="21.72"/><path class="cls-6" d="M252.33,143.81v3.82h3.58v2.82h-3.58V157c0,1.83.48,2.75,1.92,2.75a5,5,0,0,0,1.47-.15l.06,2.84a8.08,8.08,0,0,1-2.72.4,4.31,4.31,0,0,1-3.24-1.22c-.83-.86-1.2-2.24-1.2-4.2v-7h-2.11v-2.82h2.11v-2.78l3.71-1"/><path class="cls-6" d="M258.14,140.81h3.76v8.84H262a5,5,0,0,1,1.86-1.68,5.33,5.33,0,0,1,2.61-.67c2.53,0,5.2,1.68,5.2,6.45v8.79h-3.77v-8.39c0-2.14-.8-3.79-2.87-3.79a3.15,3.15,0,0,0-2.94,2.11,3.44,3.44,0,0,0-.15,1.13v8.94h-3.76V140.81"/><path class="cls-6" d="M280.86,162.54V141.91h4.31l5.33,8.85a61.63,61.63,0,0,1,3.51,6.91h.06c-.27-2.76-.33-5.41-.33-8.57v-7.19h3.49v20.63h-3.92l-5.39-9.09a73.61,73.61,0,0,1-3.67-7.1l-.12,0c.15,2.66.21,5.38.21,8.78v7.38h-3.48"/><path class="cls-6" d="M303.46,156.14c.09,2.69,2.17,3.85,4.59,3.85a12.24,12.24,0,0,0,4.13-.67l.55,2.58a13.62,13.62,0,0,1-5.2.94c-4.83,0-7.68-3-7.68-7.53,0-4.13,2.51-8,7.28-8s6.43,4,6.43,7.25a9.27,9.27,0,0,1-.13,1.59h-10m6.54-2.63c0-1.38-.58-3.64-3.08-3.64-2.33,0-3.31,2.11-3.46,3.64Z"/><path class="cls-6" d="M320.28,143.81v3.82h3.58v2.82h-3.58V157c0,1.83.49,2.75,1.93,2.75a5,5,0,0,0,1.47-.15l.06,2.84a8.11,8.11,0,0,1-2.73.4,4.32,4.32,0,0,1-3.24-1.22c-.82-.86-1.19-2.24-1.19-4.2v-7h-2.11v-2.82h2.11v-2.78l3.7-1"/><path class="cls-6" d="M328.57,147.63l1.53,6.77c.37,1.59.7,3.21,1,4.83h.06c.3-1.62.79-3.27,1.19-4.81l2-6.79h3.06l1.87,6.61c.45,1.75.85,3.37,1.19,5h.06c.21-1.62.58-3.24,1-5l1.65-6.61h3.7l-4.68,14.91h-3.49l-1.77-6.06a44.24,44.24,0,0,1-1.13-4.78h-.06a46.33,46.33,0,0,1-1.14,4.78l-1.89,6.06h-3.52l-4.4-14.91h3.85"/><path class="cls-6" d="M362.37,154.94c0,5.48-3.86,7.93-7.65,7.93-4.19,0-7.47-2.88-7.47-7.68s3.22-7.89,7.71-7.89,7.41,3.12,7.41,7.64m-11.23.16c0,2.88,1.44,5.05,3.7,5.05s3.64-2.08,3.64-5.11c0-2.32-1-5-3.61-5S351.14,152.62,351.14,155.1Z"/><path class="cls-6" d="M364.71,152.44c0-2,0-3.49-.13-4.81h3.25l.15,2.82h.09a4.46,4.46,0,0,1,4.1-3.15,4,4,0,0,1,.89.09v3.52a6.15,6.15,0,0,0-1.13-.09,3.32,3.32,0,0,0-3.37,2.84,6.72,6.72,0,0,0-.09,1.13v7.75h-3.76v-10.1"/><path class="cls-6" d="M378.75,154.18h.06c.36-.58.79-1.22,1.16-1.74l3.64-4.81h4.53l-5.54,6.09,6.3,8.82h-4.62L380,156l-1.25,1.49v5.09H375V140.81h3.77v13.37"/><path class="cls-5" d="M514.66,122.6h-5.34v-3.76h15.23v3.76h-5.42v16h-4.47Z"/><path class="cls-5" d="M529.4,133.55l-1.4,5.08h-4.62l6-19.79h5.86l6.16,19.79h-4.82l-1.52-5.08Zm5-3.33L533.19,126c-.34-1.17-.69-2.65-1-3.81h-.06c-.3,1.17-.59,2.67-.91,3.82l-1.18,4.2Z"/><path class="cls-5" d="M544.07,118.84h4.43v8.75h.08c.43-.75.9-1.46,1.36-2.16l4.48-6.59h5.49l-6.54,8.43,6.89,11.36h-5.21l-4.87-8.53-1.68,2.07v6.46h-4.43Z"/><path class="cls-5" d="M573.85,130.26h-7.28V135h8.14v3.66H562.1V118.84h12.19v3.67h-7.72v4.12h7.28Z"/><path class="cls-5" d="M586.38,122.6H581v-3.76h15.23v3.76h-5.42v16h-4.47Z"/><path class="cls-5" d="M603.12,118.84v7.61h7.38v-7.61H615v19.79H610.5v-8.28h-7.38v8.28h-4.47V118.84Z"/><path class="cls-5" d="M630.63,130.26h-7.28V135h8.14v3.66H618.87V118.84h12.19v3.67h-7.71v4.12h7.28Z"/><path class="cls-5" d="M640.48,118.84h12.09v3.67H645v4.54h7.11v3.63H645v7.95h-4.48Z"/><path class="cls-5" d="M656,119.12a37,37,0,0,1,5.95-.43c2.93,0,5,.45,6.4,1.57a5,5,0,0,1,1.83,4.15,5.25,5.25,0,0,1-3.49,4.86v.09c1.37.56,2.14,1.87,2.64,3.69a55.92,55.92,0,0,0,1.6,5.58H666.3a25,25,0,0,1-1.36-4.61c-.55-2.47-1.38-3.13-3.22-3.16h-1.34v7.77H656Zm4.43,8.51h1.76c2.22,0,3.54-1.14,3.54-2.86S664.44,122,662.4,122a9.62,9.62,0,0,0-2,.14Z"/><path class="cls-5" d="M685.12,130.26h-7.29V135H686v3.66H673.36V118.84h12.19v3.67h-7.72v4.12h7.29Z"/><path class="cls-5" d="M700.79,130.26h-7.28V135h8.14v3.66H689V118.84h12.19v3.67h-7.72v4.12h7.28Z"/><path class="cls-5" d="M715.23,133.55l-1.4,5.08h-4.62l6-19.79h5.85l6.16,19.79h-4.82l-1.52-5.08Zm5-3.33L719,126c-.34-1.17-.7-2.65-1-3.81H718c-.29,1.17-.59,2.67-.91,3.82l-1.18,4.2Z"/><path class="cls-5" d="M730.05,134a11,11,0,0,0,5,1.25c2,0,3.14-.86,3.14-2.16s-.94-1.93-3.31-2.76c-3.3-1.18-5.46-3-5.46-5.86,0-3.38,2.84-5.94,7.49-5.94a11.73,11.73,0,0,1,5,1l-1,3.59a9.54,9.54,0,0,0-4.13-.94c-1.95,0-2.88.9-2.88,1.91,0,1.26,1.1,1.82,3.67,2.79,3.5,1.31,5.12,3.12,5.12,5.92,0,3.31-2.53,6.14-8,6.14a12.74,12.74,0,0,1-5.58-1.23Z"/><path class="cls-5" d="M745.9,134a11,11,0,0,0,5,1.25c2.06,0,3.15-.86,3.15-2.16s-1-1.93-3.32-2.76c-3.3-1.18-5.45-3-5.45-5.86,0-3.38,2.83-5.94,7.48-5.94a11.66,11.66,0,0,1,5,1l-1,3.59a9.6,9.6,0,0,0-4.14-.94c-1.94,0-2.87.9-2.87,1.91,0,1.26,1.09,1.82,3.66,2.79,3.5,1.31,5.12,3.12,5.12,5.92,0,3.31-2.52,6.14-8,6.14a12.79,12.79,0,0,1-5.59-1.23Z"/><path class="cls-5" d="M773.37,130.26h-7.29V135h8.14v3.66H761.61V118.84H773.8v3.67h-7.72v4.12h7.29Z"/><path class="cls-5" d="M777.43,134a11,11,0,0,0,5,1.25c2.06,0,3.15-.86,3.15-2.16s-.95-1.93-3.32-2.76c-3.3-1.18-5.45-3-5.45-5.86,0-3.38,2.83-5.94,7.48-5.94a11.66,11.66,0,0,1,5,1l-1,3.59a9.6,9.6,0,0,0-4.14-.94c-1.94,0-2.87.9-2.87,1.91,0,1.26,1.09,1.82,3.66,2.79,3.5,1.31,5.12,3.12,5.12,5.92,0,3.31-2.52,6.14-8,6.14a12.79,12.79,0,0,1-5.59-1.23Z"/><path class="cls-5" d="M793.29,134a11,11,0,0,0,5,1.25c2,0,3.14-.86,3.14-2.16s-.94-1.93-3.31-2.76c-3.3-1.18-5.46-3-5.46-5.86,0-3.38,2.83-5.94,7.48-5.94a11.74,11.74,0,0,1,5.06,1l-1,3.59a9.58,9.58,0,0,0-4.13-.94c-1.95,0-2.88.9-2.88,1.91,0,1.26,1.09,1.82,3.66,2.79,3.51,1.31,5.13,3.12,5.13,5.92,0,3.31-2.53,6.14-8,6.14a12.79,12.79,0,0,1-5.59-1.23Z"/><path class="cls-5" d="M825.72,131.06c-.1-2.39-.19-5.25-.18-8.15h-.08c-.63,2.54-1.46,5.35-2.2,7.68l-2.43,7.72h-3.47l-2.13-7.65c-.64-2.33-1.3-5.14-1.79-7.75h-.06c-.1,2.69-.21,5.75-.33,8.21l-.37,7.51h-4.14l1.27-19.79h6l1.93,6.62c.63,2.27,1.24,4.75,1.68,7.07h.1c.54-2.29,1.21-4.9,1.88-7.1l2.1-6.59h5.85l1.06,19.79H826Z"/><path class="cls-5" d="M845.58,130.26H838.3V135h8.14v3.66H833.83V118.84H846v3.67H838.3v4.12h7.28Z"/><path class="cls-5" d="M849.51,138.63V118.84h5.21l4.11,7.26a57.06,57.06,0,0,1,3.23,6.79h.08a77.18,77.18,0,0,1-.36-8.27v-5.77h4.1v19.79H861.2L857,131a72,72,0,0,1-3.44-7h-.1c.14,2.62.19,5.42.19,8.65v5.95Z"/><path class="cls-5" d="M873.58,122.6h-5.34v-3.76h15.23v3.76h-5.41v16h-4.48Z"/><rect class="cls-7" x="500.49" y="104.79" width="391.81" height="50.44" rx="2.7"/></svg>