<svg id="Layer_1" data-name="Layer 1" xmlns="http://www.w3.org/2000/svg" viewBox="0 0 320 50"><defs><style>.cls-1{fill:#fff;}.cls-2{fill:#f1b533;}</style></defs><path class="cls-1" d="M23.47,29.79a6.36,6.36,0,0,1-1-.08,7.24,7.24,0,0,1-.82-.18c-.25-.06-.46-.12-.64-.18a1.82,1.82,0,0,0-.41-.1l.1-2.22h1.06L22,28.49a1.49,1.49,0,0,0,.51.31,2.28,2.28,0,0,0,.88.15,2,2,0,0,0,.69-.1,1.08,1.08,0,0,0,.47-.27,1,1,0,0,0,.26-.4,1.64,1.64,0,0,0,.08-.5,1.13,1.13,0,0,0-.14-.56,1.83,1.83,0,0,0-.38-.47,3.35,3.35,0,0,0-.62-.42c-.24-.14-.51-.28-.82-.43s-.48-.24-.75-.4a3.52,3.52,0,0,1-.73-.57,3.07,3.07,0,0,1-.55-.8A2.33,2.33,0,0,1,20.67,23a2.19,2.19,0,0,1,.2-.91,2.17,2.17,0,0,1,.58-.74,2.88,2.88,0,0,1,1-.51,4.39,4.39,0,0,1,1.33-.19,5.25,5.25,0,0,1,.79.06l.72.13.59.15c.17,0,.3.08.39.09l-.08,2h-1l-.24-1.33-.16-.11a2.16,2.16,0,0,0-.25-.1,1.55,1.55,0,0,0-.31-.07,2.07,2.07,0,0,0-.35,0,2.25,2.25,0,0,0-.62.07,1.2,1.2,0,0,0-.42.23.85.85,0,0,0-.24.35,1.23,1.23,0,0,0-.07.44,1.21,1.21,0,0,0,.15.6,1.86,1.86,0,0,0,.42.48,6.12,6.12,0,0,0,.65.42l.82.42c.26.13.52.28.79.44a4.11,4.11,0,0,1,.74.56,2.76,2.76,0,0,1,.55.72,2,2,0,0,1,.21.93,2.69,2.69,0,0,1-.18.94,2.46,2.46,0,0,1-.58.87,3,3,0,0,1-1,.64A4.09,4.09,0,0,1,23.47,29.79Z"/><path class="cls-1" d="M27.53,27.87a1.74,1.74,0,0,1,.16-.77,1.83,1.83,0,0,1,.42-.58,2.66,2.66,0,0,1,.64-.43,5.05,5.05,0,0,1,.8-.29,6.37,6.37,0,0,1,.89-.17q.46,0,.93-.06v-.28a1.38,1.38,0,0,0-.27-1,1.26,1.26,0,0,0-.9-.28,4.46,4.46,0,0,0-.63.05,5.67,5.67,0,0,0-.62.12l-.54.17-.42.17h0l-.34-.78a2.88,2.88,0,0,1,.41-.27,6.87,6.87,0,0,1,.7-.31,7,7,0,0,1,.91-.26,4.45,4.45,0,0,1,1-.11,3.55,3.55,0,0,1,1.1.14,1.69,1.69,0,0,1,.74.43,1.79,1.79,0,0,1,.42.74,3.7,3.7,0,0,1,.13,1.06v3.66h.73v.72l-.28.06-.36.07-.43.05a3.59,3.59,0,0,1-.47,0l-.36,0a.52.52,0,0,1-.24-.08.43.43,0,0,1-.13-.19,1,1,0,0,1,0-.32v-.34a2.44,2.44,0,0,1-.28.3,2.86,2.86,0,0,1-.42.31,3,3,0,0,1-.57.24,2.52,2.52,0,0,1-.7.1,2.88,2.88,0,0,1-.78-.11,1.77,1.77,0,0,1-.63-.35,1.65,1.65,0,0,1-.43-.6A2.06,2.06,0,0,1,27.53,27.87Zm2.78.79.24,0a1.52,1.52,0,0,0,.28-.09,1.48,1.48,0,0,0,.29-.12,1.21,1.21,0,0,0,.25-.17V26.31a3.59,3.59,0,0,0-.95.11,1.78,1.78,0,0,0-.62.28,1,1,0,0,0-.32.4,1.19,1.19,0,0,0-.1.49,1.15,1.15,0,0,0,.24.79A.85.85,0,0,0,30.31,28.66Z"/><path class="cls-1" d="M34.43,29.65v-.77l.93-.16V24h-1v-.71l1-.29v-.34a2.71,2.71,0,0,1,.29-1.25,3.16,3.16,0,0,1,.74-.95,3.34,3.34,0,0,1,1-.6,2.87,2.87,0,0,1,1.09-.22,2.31,2.31,0,0,1,.45,0l.24.06V21.5a.84.84,0,0,0-.22-.17l-.31-.14a2.8,2.8,0,0,0-.37-.1,1.81,1.81,0,0,0-.4,0,.88.88,0,0,0-.29,0,.43.43,0,0,0-.22.12.55.55,0,0,0-.14.25,1.37,1.37,0,0,0,0,.39V23h1.5v1h-1.5v4.76l1.3.12v.77Z"/><path class="cls-1" d="M42.51,29.79a3.6,3.6,0,0,1-1.42-.26,2.63,2.63,0,0,1-1-.72,3,3,0,0,1-.56-1.1,5.08,5.08,0,0,1-.18-1.39,4.2,4.2,0,0,1,.23-1.47,3.09,3.09,0,0,1,.65-1.1,2.87,2.87,0,0,1,1-.7,3.52,3.52,0,0,1,1.32-.24,2.23,2.23,0,0,1,2.53,2.38c0,.27,0,.51,0,.73a3.54,3.54,0,0,1-.06.54H41.22a3.92,3.92,0,0,0,.17,1,2.07,2.07,0,0,0,.37.66,1.52,1.52,0,0,0,.54.38,1.92,1.92,0,0,0,.69.12,3.24,3.24,0,0,0,.56-.05,3.37,3.37,0,0,0,.48-.12,3.7,3.7,0,0,0,.4-.16,2.67,2.67,0,0,0,.3-.17l.31.71a2.55,2.55,0,0,1-.41.32,3.36,3.36,0,0,1-.6.31,4.68,4.68,0,0,1-.72.23A3.08,3.08,0,0,1,42.51,29.79Zm-.16-6.19a1.16,1.16,0,0,0-.42.08.85.85,0,0,0-.35.31,2,2,0,0,0-.24.64,4.75,4.75,0,0,0-.12,1.05h2.1V25.3a4.26,4.26,0,0,0,0-.61,2.21,2.21,0,0,0-.15-.55,1,1,0,0,0-.3-.39A.75.75,0,0,0,42.35,23.6Z"/><path class="cls-1" d="M46.71,28.25V23.93h-.83v-.66l.15-.05.21-.08.2-.08.11-.06a1.87,1.87,0,0,0,.42-.56c0-.08.08-.17.12-.27a3.27,3.27,0,0,0,.14-.33,3.42,3.42,0,0,0,.13-.34l.1-.3h1l0,1.74h1.72v1H48.52v3.25c0,.31,0,.56,0,.74a1.63,1.63,0,0,0,.07.42.32.32,0,0,0,.18.18.89.89,0,0,0,.32,0h0l.3,0,.31-.06.27-.07.21-.06h0l.28.68a3.22,3.22,0,0,1-.43.27,4.1,4.1,0,0,1-.56.24,4.81,4.81,0,0,1-.65.18,4,4,0,0,1-.69.07h0a2.08,2.08,0,0,1-.66-.1,1.08,1.08,0,0,1-.44-.3,1.22,1.22,0,0,1-.25-.48A2.62,2.62,0,0,1,46.71,28.25Z"/><path class="cls-1" d="M52.44,32.64h-.53l-.24,0-.16,0V31.12a2,2,0,0,0,.35.1,2.8,2.8,0,0,0,.61.06,1.89,1.89,0,0,0,.39-.05,1,1,0,0,0,.43-.2,2,2,0,0,0,.45-.49,4.08,4.08,0,0,0,.44-.89h-1L51,23.85l-.53-.16v-.75h3.39v.74l-.88.17,1.11,3.48.46,1.59.4-1.59.89-3.48-.76-.17v-.74h2.59v.75l-.54.16L56.79,25c-.13.42-.26.83-.38,1.25s-.26.83-.39,1.23-.23.76-.34,1.09l-.26.84c-.08.23-.13.38-.17.47a5.85,5.85,0,0,1-1.17,2.05A2.16,2.16,0,0,1,52.44,32.64Z"/><path class="cls-1" d="M61.87,27.87A1.89,1.89,0,0,1,62,27.1a1.87,1.87,0,0,1,.43-.58,2.47,2.47,0,0,1,.64-.43,4.72,4.72,0,0,1,.8-.29,6.1,6.1,0,0,1,.89-.17l.92-.06v-.28a1.38,1.38,0,0,0-.27-1,1.23,1.23,0,0,0-.89-.28,4.72,4.72,0,0,0-.64.05,6,6,0,0,0-.61.12,5,5,0,0,0-.54.17l-.43.17h0L62,23.78a2.58,2.58,0,0,1,.42-.27,6,6,0,0,1,.7-.31,6.59,6.59,0,0,1,.91-.26,4.31,4.31,0,0,1,1-.11,3.57,3.57,0,0,1,1.11.14,1.75,1.75,0,0,1,.74.43,1.67,1.67,0,0,1,.41.74,3.68,3.68,0,0,1,.14,1.06v3.66h.72v.72l-.27.06-.37.07-.42.05a3.71,3.71,0,0,1-.47,0l-.36,0a.52.52,0,0,1-.24-.08.45.45,0,0,1-.14-.19,1.32,1.32,0,0,1,0-.32v-.34a2.27,2.27,0,0,1-.27.3,2.51,2.51,0,0,1-.43.31,2.62,2.62,0,0,1-.56.24,2.57,2.57,0,0,1-.7.1,2.77,2.77,0,0,1-.78-.11,1.77,1.77,0,0,1-.63-.35,1.67,1.67,0,0,1-.44-.6A2.24,2.24,0,0,1,61.87,27.87Zm2.78.79.24,0,.28-.09a1.78,1.78,0,0,0,.29-.12,1.46,1.46,0,0,0,.24-.17V26.31a3.7,3.7,0,0,0-1,.11,1.73,1.73,0,0,0-.61.28,1.12,1.12,0,0,0-.33.4,1.37,1.37,0,0,0-.09.49,1.15,1.15,0,0,0,.24.79A.82.82,0,0,0,64.65,28.66Z"/><path class="cls-1" d="M68.9,29.65v-.78l.75-.12V24.24L68.86,24v-.89L71,22.83h0l.31.25v.7a3.46,3.46,0,0,1,.46-.35,5.12,5.12,0,0,1,.57-.3,4.49,4.49,0,0,1,.65-.21,3.17,3.17,0,0,1,.69-.08,2.61,2.61,0,0,1,.94.15,1.27,1.27,0,0,1,.6.47,2.18,2.18,0,0,1,.31.83,6.12,6.12,0,0,1,.1,1.22v3.25l.83.11v.78h-3.3v-.78l.64-.11V25.49a6.64,6.64,0,0,0,0-.7,1.49,1.49,0,0,0-.15-.49.68.68,0,0,0-.3-.28,1.16,1.16,0,0,0-.49-.09,1.74,1.74,0,0,0-.39.05,2.26,2.26,0,0,0-.37.11,3.18,3.18,0,0,0-.32.16,2.5,2.5,0,0,0-.24.16v4.34l.78.12v.78Z"/><path class="cls-1" d="M79.65,29.78a2.51,2.51,0,0,1-1-.2,2.18,2.18,0,0,1-.82-.6,2.93,2.93,0,0,1-.55-1,4.88,4.88,0,0,1-.2-1.47A4.32,4.32,0,0,1,77.3,25,3.26,3.26,0,0,1,78,23.84a3.19,3.19,0,0,1,1.1-.76,3.68,3.68,0,0,1,1.45-.27l.48,0,.44.07v-2l-1.07-.18v-.67l2.48-.25h0l.36.27v8.76h.65v.74l-.66.13a4.22,4.22,0,0,1-.82.08.91.91,0,0,1-.56-.16.72.72,0,0,1-.2-.58v-.22a2.93,2.93,0,0,1-.35.36,2.61,2.61,0,0,1-.46.3,2.41,2.41,0,0,1-.55.21A2.69,2.69,0,0,1,79.65,29.78Zm.74-1.06a1.47,1.47,0,0,0,.64-.13,1.31,1.31,0,0,0,.42-.31V23.86a.73.73,0,0,0-.32-.18,1.55,1.55,0,0,0-.55-.09,1.39,1.39,0,0,0-.6.14,1.35,1.35,0,0,0-.49.44,2.8,2.8,0,0,0-.34.83A5.55,5.55,0,0,0,79,26.26a5.29,5.29,0,0,0,.08,1.12,2.39,2.39,0,0,0,.27.77,1.13,1.13,0,0,0,.44.43A1.24,1.24,0,0,0,80.39,28.72Z"/><path class="cls-1" d="M88.46,29.65v-.78l.72-.12V20.93l-.88-.15V20.1l2.28-.29h0l.35.27,0,2.76-.1.94a3.72,3.72,0,0,1,.4-.32,4.35,4.35,0,0,1,.53-.3,5.08,5.08,0,0,1,.66-.23,2.94,2.94,0,0,1,.74-.09,2.54,2.54,0,0,1,1,.16,1.38,1.38,0,0,1,.6.49,2.25,2.25,0,0,1,.31.83,6.75,6.75,0,0,1,.09,1.18v3.25l.83.12v.78H92.7v-.76l.65-.13V25.49a4.72,4.72,0,0,0,0-.7,1.29,1.29,0,0,0-.15-.49.73.73,0,0,0-.32-.28,1.28,1.28,0,0,0-.52-.09A2.46,2.46,0,0,0,92,24l-.37.11-.34.14a1.05,1.05,0,0,0-.26.16v4.37l.8.12v.78Z"/><path class="cls-1" d="M99.75,29.79a3.6,3.6,0,0,1-1.42-.26,2.63,2.63,0,0,1-1-.72,3,3,0,0,1-.56-1.1,5.08,5.08,0,0,1-.18-1.39,4.2,4.2,0,0,1,.23-1.47,3.09,3.09,0,0,1,.65-1.1,2.87,2.87,0,0,1,1-.7,3.52,3.52,0,0,1,1.32-.24,2.23,2.23,0,0,1,2.53,2.38c0,.27,0,.51,0,.73a3.54,3.54,0,0,1-.06.54H98.46a3.92,3.92,0,0,0,.17,1,2.07,2.07,0,0,0,.37.66,1.52,1.52,0,0,0,.54.38,1.92,1.92,0,0,0,.69.12,3.24,3.24,0,0,0,.56-.05,3.37,3.37,0,0,0,.48-.12,3.7,3.7,0,0,0,.4-.16,2,2,0,0,0,.3-.17l.31.71a2.55,2.55,0,0,1-.41.32,3.36,3.36,0,0,1-.6.31,4.68,4.68,0,0,1-.72.23A3.08,3.08,0,0,1,99.75,29.79Zm-.16-6.19a1.16,1.16,0,0,0-.42.08.85.85,0,0,0-.35.31,2,2,0,0,0-.24.64,4.75,4.75,0,0,0-.12,1.05h2.1V25.3a4.26,4.26,0,0,0,0-.61,1.85,1.85,0,0,0-.15-.55,1,1,0,0,0-.3-.39A.75.75,0,0,0,99.59,23.6Z"/><path class="cls-1" d="M103.16,27.87a1.89,1.89,0,0,1,.15-.77,2,2,0,0,1,.43-.58,2.66,2.66,0,0,1,.64-.43,4.72,4.72,0,0,1,.8-.29,6.1,6.1,0,0,1,.89-.17q.47,0,.93-.06v-.28a1.38,1.38,0,0,0-.28-1,1.23,1.23,0,0,0-.89-.28,4.72,4.72,0,0,0-.64.05,6,6,0,0,0-.61.12l-.54.17-.43.17h0l-.35-.78a2.58,2.58,0,0,1,.42-.27,6,6,0,0,1,.7-.31,7,7,0,0,1,.91-.26,4.34,4.34,0,0,1,1-.11,3.55,3.55,0,0,1,1.1.14,1.75,1.75,0,0,1,.74.43,1.67,1.67,0,0,1,.41.74,3.68,3.68,0,0,1,.14,1.06v3.66h.72v.72l-.27.06-.37.07-.42.05a3.71,3.71,0,0,1-.47,0l-.36,0a.52.52,0,0,1-.24-.08.36.36,0,0,1-.13-.19.93.93,0,0,1,0-.32v-.34a1.73,1.73,0,0,1-.27.3,2.51,2.51,0,0,1-.43.31,2.62,2.62,0,0,1-.56.24,2.52,2.52,0,0,1-.7.1,2.77,2.77,0,0,1-.78-.11,1.77,1.77,0,0,1-.63-.35,1.54,1.54,0,0,1-.43-.6A2.06,2.06,0,0,1,103.16,27.87Zm2.78.79.24,0,.28-.09a1.48,1.48,0,0,0,.29-.12,2.2,2.2,0,0,0,.25-.17V26.31a3.73,3.73,0,0,0-1,.11,1.73,1.73,0,0,0-.61.28,1,1,0,0,0-.32.4,1.19,1.19,0,0,0-.1.49,1.15,1.15,0,0,0,.24.79A.84.84,0,0,0,105.94,28.66Z"/><path class="cls-1" d="M110.15,29.65v-.78l.84-.11V24.24l-.8-.24v-.89l2-.28h0l.31.25v1.4h0a2.32,2.32,0,0,1,.26-.47,2.86,2.86,0,0,1,.45-.55,2.92,2.92,0,0,1,.63-.46,1.57,1.57,0,0,1,.77-.19H115l.16,0v2a.91.91,0,0,0-.34-.1,3,3,0,0,0-.64-.06l-.41,0-.39.07a1.5,1.5,0,0,0-.32.09,1,1,0,0,0-.21.1v3.74l1.45.14v.76Z"/><path class="cls-1" d="M116.52,28.25V23.93h-.82v-.66l.15-.05a1,1,0,0,1,.21-.08l.19-.08.11-.06a1.59,1.59,0,0,0,.42-.56l.13-.27.14-.33.12-.34a2.63,2.63,0,0,0,.1-.3h1v1.74h1.73v1h-1.73v3.25c0,.31,0,.56,0,.74a1.29,1.29,0,0,0,.07.42.3.3,0,0,0,.17.18,1,1,0,0,0,.32,0h0l.29,0,.31-.06.27-.07.21-.06h0l.27.68a2.68,2.68,0,0,1-.43.27,3.63,3.63,0,0,1-.56.24,4.11,4.11,0,0,1-.65.18,4,4,0,0,1-.69.07h0a2.08,2.08,0,0,1-.66-.1,1.08,1.08,0,0,1-.44-.3,1.21,1.21,0,0,1-.24-.48A2.59,2.59,0,0,1,116.52,28.25Z"/><path class="cls-1" d="M124.54,29.65v-.78l.72-.12V20.93l-.88-.15V20.1l2.28-.29h0l.36.27v2.76l-.1.94a3.72,3.72,0,0,1,.4-.32,4.52,4.52,0,0,1,.54-.3,4.46,4.46,0,0,1,.65-.23,3,3,0,0,1,.75-.09,2.58,2.58,0,0,1,.95.16,1.35,1.35,0,0,1,.59.49,2.09,2.09,0,0,1,.31.83,6.75,6.75,0,0,1,.09,1.18v3.25l.83.12v.78h-3.28v-.76l.65-.13V25.49a6.64,6.64,0,0,0,0-.7,1.28,1.28,0,0,0-.16-.49.73.73,0,0,0-.32-.28,1.23,1.23,0,0,0-.51-.09,2.45,2.45,0,0,0-.38,0l-.37.11-.34.14a1.28,1.28,0,0,0-.26.16v4.37l.8.12v.78Z"/><path class="cls-1" d="M135.83,29.79a3.6,3.6,0,0,1-1.42-.26,2.52,2.52,0,0,1-1-.72,2.88,2.88,0,0,1-.57-1.1,5.08,5.08,0,0,1-.18-1.39,4.45,4.45,0,0,1,.23-1.47,3.09,3.09,0,0,1,.65-1.1,2.82,2.82,0,0,1,1-.7,3.43,3.43,0,0,1,1.31-.24,2.24,2.24,0,0,1,2.54,2.38c0,.27,0,.51,0,.73a3.54,3.54,0,0,1-.06.54h-3.82a3.53,3.53,0,0,0,.17,1,1.89,1.89,0,0,0,.36.66,1.47,1.47,0,0,0,.55.38,1.92,1.92,0,0,0,.69.12,3.21,3.21,0,0,0,.55-.05,3.37,3.37,0,0,0,.48-.12,3,3,0,0,0,.4-.16,2.88,2.88,0,0,0,.31-.17l.3.71a2.17,2.17,0,0,1-.41.32,3.62,3.62,0,0,1-.59.31,5.19,5.19,0,0,1-.73.23A3.08,3.08,0,0,1,135.83,29.79Zm-.15-6.19a1.18,1.18,0,0,0-.43.08.83.83,0,0,0-.34.31,1.94,1.94,0,0,0-.25.64,6.36,6.36,0,0,0-.12,1.05h2.1a.25.25,0,0,1,0-.08v-.11s0-.08,0-.11V25.3a4.3,4.3,0,0,0,0-.61,1.6,1.6,0,0,0-.15-.55,1.05,1.05,0,0,0-.29-.39A.77.77,0,0,0,135.68,23.6Z"/><path class="cls-1" d="M139.24,27.87a1.89,1.89,0,0,1,.15-.77,2,2,0,0,1,.43-.58,2.66,2.66,0,0,1,.64-.43,5.05,5.05,0,0,1,.8-.29,6.37,6.37,0,0,1,.89-.17q.47,0,.93-.06v-.28a1.33,1.33,0,0,0-.28-1,1.21,1.21,0,0,0-.89-.28,4.46,4.46,0,0,0-.63.05,5.67,5.67,0,0,0-.62.12l-.54.17-.42.17h0l-.35-.78a4,4,0,0,1,.42-.27,6.87,6.87,0,0,1,.7-.31,7,7,0,0,1,.91-.26,4.39,4.39,0,0,1,1-.11,3.55,3.55,0,0,1,1.1.14,1.75,1.75,0,0,1,.74.43,1.79,1.79,0,0,1,.42.74,4.09,4.09,0,0,1,.13,1.06v3.66h.72v.72l-.27.06-.36.07-.43.05a3.59,3.59,0,0,1-.47,0l-.36,0a.52.52,0,0,1-.24-.08.36.36,0,0,1-.13-.19,1,1,0,0,1,0-.32v-.34a2.44,2.44,0,0,1-.28.3,2.86,2.86,0,0,1-.42.31,3,3,0,0,1-.57.24,2.52,2.52,0,0,1-.7.1,2.88,2.88,0,0,1-.78-.11,1.77,1.77,0,0,1-.63-.35,1.65,1.65,0,0,1-.43-.6A2.06,2.06,0,0,1,139.24,27.87Zm2.78.79.24,0a1.52,1.52,0,0,0,.28-.09,1.48,1.48,0,0,0,.29-.12,1.56,1.56,0,0,0,.25-.17V26.31a3.73,3.73,0,0,0-1,.11,1.82,1.82,0,0,0-.61.28,1,1,0,0,0-.32.4,1.19,1.19,0,0,0-.1.49,1.15,1.15,0,0,0,.24.79A.85.85,0,0,0,142,28.66Z"/><path class="cls-1" d="M146.05,29.65v-.78l.85-.12V20.93l-.88-.15V20.1l2.3-.29h0l.37.27v8.67l.89.12v.78Z"/><path class="cls-1" d="M151,28.25V23.93h-.83v-.66l.15-.05.21-.08.2-.08.11-.06a1.72,1.72,0,0,0,.41-.56c0-.08.09-.17.13-.27a3.27,3.27,0,0,0,.14-.33,3.42,3.42,0,0,0,.13-.34c0-.11.07-.21.1-.3h1l0,1.74h1.72v1h-1.72v3.25c0,.31,0,.56,0,.74a1.63,1.63,0,0,0,.07.42.33.33,0,0,0,.17.18,1,1,0,0,0,.33,0h0l.3,0,.3-.06a1.91,1.91,0,0,0,.28-.07l.21-.06h0l.28.68a3.22,3.22,0,0,1-.43.27,4.1,4.1,0,0,1-.56.24,4.57,4.57,0,0,1-.66.18,3.82,3.82,0,0,1-.68.07h0a2.06,2.06,0,0,1-.65-.1,1,1,0,0,1-.44-.3,1.1,1.1,0,0,1-.25-.48A2.62,2.62,0,0,1,151,28.25Z"/><path class="cls-1" d="M155.26,29.65v-.78l.73-.12V20.93l-.88-.15V20.1l2.28-.29h0l.35.27v2.76l-.09.94a3.52,3.52,0,0,1,.93-.62,5.08,5.08,0,0,1,.66-.23,2.94,2.94,0,0,1,.74-.09A2.54,2.54,0,0,1,161,23a1.38,1.38,0,0,1,.6.49,2.25,2.25,0,0,1,.31.83A6.75,6.75,0,0,1,162,25.5v3.25l.82.12v.78h-3.28v-.76l.65-.13V25.49a4.72,4.72,0,0,0,0-.7,1.49,1.49,0,0,0-.15-.49.73.73,0,0,0-.32-.28,1.28,1.28,0,0,0-.52-.09,2.46,2.46,0,0,0-.37,0l-.38.11-.33.14a1.13,1.13,0,0,0-.27.16v4.37l.81.12v.78Z"/><path class="cls-1" d="M167.14,27.87a1.89,1.89,0,0,1,.15-.77,1.87,1.87,0,0,1,.43-.58,2.47,2.47,0,0,1,.64-.43,4.72,4.72,0,0,1,.8-.29,6.1,6.1,0,0,1,.89-.17l.92-.06v-.28a1.38,1.38,0,0,0-.27-1,1.23,1.23,0,0,0-.89-.28,4.6,4.6,0,0,0-.64.05,5.49,5.49,0,0,0-.61.12,5,5,0,0,0-.54.17l-.43.17h0l-.35-.78a2.58,2.58,0,0,1,.42-.27,6,6,0,0,1,.7-.31,6.59,6.59,0,0,1,.91-.26,4.31,4.31,0,0,1,1-.11,3.57,3.57,0,0,1,1.11.14,1.75,1.75,0,0,1,.74.43,1.78,1.78,0,0,1,.41.74,3.7,3.7,0,0,1,.13,1.06v3.66h.73v.72l-.27.06-.37.07-.43.05a3.44,3.44,0,0,1-.46,0l-.36,0a.52.52,0,0,1-.24-.08.38.38,0,0,1-.14-.19,1.32,1.32,0,0,1,0-.32v-.34a2.27,2.27,0,0,1-.27.3,2.51,2.51,0,0,1-.43.31,2.62,2.62,0,0,1-.56.24,2.57,2.57,0,0,1-.7.1,2.77,2.77,0,0,1-.78-.11,1.9,1.9,0,0,1-.64-.35,1.77,1.77,0,0,1-.43-.6A2.24,2.24,0,0,1,167.14,27.87Zm2.78.79.24,0,.28-.09a1.78,1.78,0,0,0,.29-.12,1.46,1.46,0,0,0,.24-.17V26.31a3.65,3.65,0,0,0-.95.11,1.73,1.73,0,0,0-.61.28,1.12,1.12,0,0,0-.33.4,1.37,1.37,0,0,0-.09.49,1.2,1.2,0,0,0,.23.79A.86.86,0,0,0,169.92,28.66Z"/><path class="cls-1" d="M174.13,29.65v-.78l.84-.11V24.24l-.8-.24v-.89l2-.28h0l.31.25v1.4h0a2.77,2.77,0,0,1,.25-.47,3.36,3.36,0,0,1,.46-.55,2.69,2.69,0,0,1,.63-.46,1.57,1.57,0,0,1,.77-.19h.28l.16,0v2a1,1,0,0,0-.34-.1,3.06,3.06,0,0,0-.65-.06l-.41,0-.38.07a1.35,1.35,0,0,0-.32.09,1.56,1.56,0,0,0-.22.1v3.74l1.46.14v.76Z"/><path class="cls-1" d="M182.9,29.79a3.6,3.6,0,0,1-1.42-.26,2.63,2.63,0,0,1-1-.72,3,3,0,0,1-.56-1.1,5.08,5.08,0,0,1-.18-1.39,4.2,4.2,0,0,1,.23-1.47,3.09,3.09,0,0,1,.65-1.1,2.82,2.82,0,0,1,1-.7,3.43,3.43,0,0,1,1.31-.24,2.23,2.23,0,0,1,2.53,2.38c0,.27,0,.51,0,.73a3.54,3.54,0,0,1-.06.54h-3.83a3.92,3.92,0,0,0,.17,1,2.07,2.07,0,0,0,.37.66,1.47,1.47,0,0,0,.55.38,1.83,1.83,0,0,0,.68.12,3.24,3.24,0,0,0,.56-.05,3.37,3.37,0,0,0,.48-.12,3.7,3.7,0,0,0,.4-.16,2,2,0,0,0,.3-.17l.31.71a2.17,2.17,0,0,1-.41.32,3.36,3.36,0,0,1-.6.31,4.68,4.68,0,0,1-.72.23A3.08,3.08,0,0,1,182.9,29.79Zm-.15-6.19a1.18,1.18,0,0,0-.43.08A.85.85,0,0,0,182,24a2.2,2.2,0,0,0-.24.64,4.75,4.75,0,0,0-.12,1.05h2.1V25.3a4.26,4.26,0,0,0,0-.61,1.6,1.6,0,0,0-.15-.55,1,1,0,0,0-.3-.39A.74.74,0,0,0,182.75,23.6Z"/><path class="cls-2" d="M190.09,26.34a3.92,3.92,0,0,1,.28-1.56,3.21,3.21,0,0,1,.73-1.1,3,3,0,0,1,1.06-.65,3.79,3.79,0,0,1,2.6,0,2.44,2.44,0,0,1,1,.68,2.85,2.85,0,0,1,.6,1.08,4.66,4.66,0,0,1,.21,1.45,4,4,0,0,1-.28,1.58,3,3,0,0,1-.73,1.1,2.83,2.83,0,0,1-1,.64,3.77,3.77,0,0,1-1.25.21,3.54,3.54,0,0,1-1.35-.24,2.78,2.78,0,0,1-1-.68,3,3,0,0,1-.6-1.09A4.55,4.55,0,0,1,190.09,26.34ZM193.34,29a1,1,0,0,0,.56-.15,1.1,1.1,0,0,0,.39-.45,2.7,2.7,0,0,0,.22-.78,7.58,7.58,0,0,0,.08-1.15,10.73,10.73,0,0,0-.07-1.22,3.73,3.73,0,0,0-.22-.89,1.32,1.32,0,0,0-.39-.54,1,1,0,0,0-.59-.18,1.08,1.08,0,0,0-.56.14,1.18,1.18,0,0,0-.4.45,2.55,2.55,0,0,0-.23.79,7.48,7.48,0,0,0-.08,1.15,8.67,8.67,0,0,0,.07,1.21,3.19,3.19,0,0,0,.23.89,1.26,1.26,0,0,0,.39.54A.94.94,0,0,0,193.34,29Z"/><path class="cls-2" d="M203,29.79a1,1,0,0,1-.63-.19.75.75,0,0,1-.19-.56v-.21a3.15,3.15,0,0,1-.37.35,4.58,4.58,0,0,1-.49.31,3.43,3.43,0,0,1-.56.22,2.47,2.47,0,0,1-.6.08,3.24,3.24,0,0,1-1-.14,1.49,1.49,0,0,1-.67-.44,1.89,1.89,0,0,1-.39-.79,4.52,4.52,0,0,1-.13-1.18V23.9l-.59-.22V23l2.11-.17h0l.27.16v4.29a3.91,3.91,0,0,0,.05.65,1,1,0,0,0,.17.44.7.7,0,0,0,.31.25,1.69,1.69,0,0,0,.89,0,1.6,1.6,0,0,0,.33-.11l.26-.13.19-.14V23.9l-.81-.23V23l2.27-.15h0l.33.16v5.87h.65v.72l-.6.13A4.1,4.1,0,0,1,203,29.79Z"/><path class="cls-2" d="M205.3,29.65v-.78l.84-.11V24.24l-.8-.24v-.89l2-.28h0l.31.25v1.4h0A2.32,2.32,0,0,1,208,24a2.86,2.86,0,0,1,.45-.55,2.92,2.92,0,0,1,.63-.46,1.57,1.57,0,0,1,.77-.19h.28l.16,0v2a.91.91,0,0,0-.34-.1,3,3,0,0,0-.64-.06l-.41,0-.39.07a1.5,1.5,0,0,0-.32.09,1,1,0,0,0-.21.1v3.74l1.46.14v.76Z"/><path class="cls-2" d="M215.44,28.25V23.93h-.83v-.66l.15-.05.21-.08.2-.08.11-.06a1.72,1.72,0,0,0,.42-.56l.13-.27c0-.11.09-.21.13-.33a3.42,3.42,0,0,0,.13-.34l.1-.3h1l0,1.74H219v1h-1.72v3.25c0,.31,0,.56,0,.74a1.29,1.29,0,0,0,.07.42.28.28,0,0,0,.17.18.92.92,0,0,0,.32,0h0l.29,0,.31-.06.27-.07.21-.06h0l.27.68a3.22,3.22,0,0,1-.43.27,4.1,4.1,0,0,1-.56.24,4.43,4.43,0,0,1-.65.18,4,4,0,0,1-.69.07h0a2.08,2.08,0,0,1-.66-.1,1.08,1.08,0,0,1-.44-.3,1.21,1.21,0,0,1-.24-.48A2.59,2.59,0,0,1,215.44,28.25Z"/><path class="cls-2" d="M219.65,26.34a4.1,4.1,0,0,1,.28-1.56,3.21,3.21,0,0,1,.73-1.1,3,3,0,0,1,1.06-.65,3.79,3.79,0,0,1,2.6,0,2.44,2.44,0,0,1,1,.68,3,3,0,0,1,.61,1.08,5,5,0,0,1,.2,1.45,4,4,0,0,1-.28,1.58,3,3,0,0,1-.73,1.1,2.83,2.83,0,0,1-1,.64,3.77,3.77,0,0,1-1.25.21,3.54,3.54,0,0,1-1.35-.24,2.78,2.78,0,0,1-1-.68,3.1,3.1,0,0,1-.6-1.09A4.55,4.55,0,0,1,219.65,26.34ZM222.9,29a1,1,0,0,0,.56-.15,1.1,1.1,0,0,0,.39-.45,2.42,2.42,0,0,0,.22-.78,7.58,7.58,0,0,0,.08-1.15,10.73,10.73,0,0,0-.07-1.22,3.31,3.31,0,0,0-.22-.89,1.32,1.32,0,0,0-.39-.54,1,1,0,0,0-.59-.18,1.08,1.08,0,0,0-.56.14,1.18,1.18,0,0,0-.4.45,2.86,2.86,0,0,0-.23.79,7.48,7.48,0,0,0-.08,1.15,8.67,8.67,0,0,0,.07,1.21,3.19,3.19,0,0,0,.23.89,1.26,1.26,0,0,0,.39.54A1,1,0,0,0,222.9,29Z"/><path class="cls-2" d="M226.87,31.81l.88-.14V24.24L227,24v-.89l2.1-.28h0l.29.25v.62a3.75,3.75,0,0,1,.35-.33,2.49,2.49,0,0,1,.45-.29,3.65,3.65,0,0,1,.53-.2,2.62,2.62,0,0,1,.64-.07,2.83,2.83,0,0,1,1,.18,2,2,0,0,1,.82.58,2.62,2.62,0,0,1,.55,1,4.78,4.78,0,0,1,.21,1.51,4.28,4.28,0,0,1-.24,1.45,3.57,3.57,0,0,1-.68,1.17,3.19,3.19,0,0,1-1.09.78,3.46,3.46,0,0,1-1.44.29h-.29l-.27,0-.24,0-.17,0,0,1v1l1.16.14v.75h-3.83Zm3.72-7.93A1.52,1.52,0,0,0,230,24a1.2,1.2,0,0,0-.43.29v4.43a1,1,0,0,0,.33.2,1.62,1.62,0,0,0,.54.08,1.26,1.26,0,0,0,.6-.14,1.23,1.23,0,0,0,.49-.45,2.8,2.8,0,0,0,.34-.83,5.65,5.65,0,0,0,.14-1.27,5.29,5.29,0,0,0-.08-1.12,2.57,2.57,0,0,0-.28-.76,1.1,1.1,0,0,0-.44-.42A1.28,1.28,0,0,0,230.59,23.88Z"/><path class="cls-2" d="M238.49,31.81l.87-.14V24.24l-.79-.24v-.89l2.1-.28h0l.3.25v.62a3.75,3.75,0,0,1,.35-.33,2.79,2.79,0,0,1,.44-.29,4.3,4.3,0,0,1,.54-.2,2.62,2.62,0,0,1,.64-.07,2.83,2.83,0,0,1,1,.18,2,2,0,0,1,.82.58,2.75,2.75,0,0,1,.55,1,4.78,4.78,0,0,1,.21,1.51,4.28,4.28,0,0,1-.24,1.45,3.57,3.57,0,0,1-.68,1.17,3.19,3.19,0,0,1-1.09.78,3.46,3.46,0,0,1-1.44.29h-.29l-.27,0-.24,0-.17,0,0,1v1l1.16.14v.75h-3.83Zm3.72-7.93a1.61,1.61,0,0,0-.63.12,1.24,1.24,0,0,0-.42.29v4.43a1,1,0,0,0,.33.2A1.6,1.6,0,0,0,242,29a1.21,1.21,0,0,0,.6-.14,1.25,1.25,0,0,0,.5-.45,2.8,2.8,0,0,0,.34-.83,5.65,5.65,0,0,0,.14-1.27,5.29,5.29,0,0,0-.08-1.12,2.57,2.57,0,0,0-.28-.76,1.06,1.06,0,0,0-.45-.42A1.21,1.21,0,0,0,242.21,23.88Z"/><path class="cls-2" d="M246.48,29.65v-.78l.84-.11V24.24l-.8-.24v-.89l2-.28h0l.31.25v1.4h0a2.32,2.32,0,0,1,.26-.47,2.86,2.86,0,0,1,.45-.55,2.92,2.92,0,0,1,.63-.46,1.57,1.57,0,0,1,.77-.19h.28l.16,0v2a.91.91,0,0,0-.34-.1,3,3,0,0,0-.64-.06l-.41,0-.39.07a1.5,1.5,0,0,0-.32.09,1,1,0,0,0-.21.1v3.74l1.45.14v.76Z"/><path class="cls-2" d="M252.18,29.65v-.78l.85-.11V24.24l-.79-.25v-.88l2.15-.28h0l.43.25v5.67l.85.12v.78Zm1.56-7.81a.87.87,0,0,1-.37-.08.79.79,0,0,1-.27-.2.87.87,0,0,1-.16-.3,1.15,1.15,0,0,1-.06-.37,1.54,1.54,0,0,1,.06-.43.94.94,0,0,1,.51-.59,1.06,1.06,0,0,1,.45-.09h0a1,1,0,0,1,.41.08.7.7,0,0,1,.29.21.92.92,0,0,1,.18.3,1.36,1.36,0,0,1,.05.36,1.61,1.61,0,0,1-.06.44.94.94,0,0,1-.2.35.93.93,0,0,1-.34.23,1.22,1.22,0,0,1-.49.09Z"/><path class="cls-2" d="M256.39,26.34a4.11,4.11,0,0,1,.27-1.56,3.21,3.21,0,0,1,.73-1.1,3,3,0,0,1,1.06-.65,3.79,3.79,0,0,1,2.6,0,2.44,2.44,0,0,1,1,.68,3,3,0,0,1,.61,1.08,5,5,0,0,1,.2,1.45,4.18,4.18,0,0,1-.27,1.58,3.13,3.13,0,0,1-.74,1.1,2.83,2.83,0,0,1-1.05.64,3.73,3.73,0,0,1-1.25.21,3.57,3.57,0,0,1-1.35-.24,2.65,2.65,0,0,1-1-.68,3,3,0,0,1-.61-1.09A4.56,4.56,0,0,1,256.39,26.34ZM259.63,29a1,1,0,0,0,.56-.15,1.1,1.1,0,0,0,.39-.45,2.68,2.68,0,0,0,.23-.78,7.7,7.7,0,0,0,.07-1.15,8.83,8.83,0,0,0-.07-1.22,3.33,3.33,0,0,0-.21-.89,1.26,1.26,0,0,0-.4-.54,1,1,0,0,0-.59-.18,1.11,1.11,0,0,0-.56.14,1.18,1.18,0,0,0-.4.45,2.86,2.86,0,0,0-.23.79,7.48,7.48,0,0,0-.08,1.15,10.54,10.54,0,0,0,.07,1.21,3.58,3.58,0,0,0,.23.89,1.28,1.28,0,0,0,.4.54A.91.91,0,0,0,259.63,29Z"/><path class="cls-2" d="M263.74,29.65v-.78l.84-.11V24.24l-.79-.24v-.89l2-.28h0l.31.25v1.4h0a3,3,0,0,1,.26-.47,2.59,2.59,0,0,1,.46-.55,2.85,2.85,0,0,1,.62-.46,1.6,1.6,0,0,1,.77-.19h.28l.16,0v2a.9.9,0,0,0-.33-.1,3.13,3.13,0,0,0-.65-.06l-.41,0-.39.07a1.5,1.5,0,0,0-.32.09,1,1,0,0,0-.21.1v3.74l1.46.14v.76Z"/><path class="cls-2" d="M269.44,29.65v-.78l.86-.11V24.24l-.8-.25v-.88l2.16-.28h0l.43.25v5.67l.85.12v.78ZM271,21.84a.87.87,0,0,1-.37-.08,1.05,1.05,0,0,1-.27-.2,1.08,1.08,0,0,1-.16-.3,1.15,1.15,0,0,1-.06-.37,1.25,1.25,0,0,1,.07-.43,1,1,0,0,1,.5-.59,1.06,1.06,0,0,1,.45-.09h0a1.08,1.08,0,0,1,.42.08.86.86,0,0,1,.29.21,1.11,1.11,0,0,1,.17.3,1,1,0,0,1,0,.36,1.61,1.61,0,0,1-.06.44.94.94,0,0,1-.2.35.85.85,0,0,1-.34.23,1.19,1.19,0,0,1-.49.09Z"/><path class="cls-2" d="M274.42,28.25V23.93h-.83v-.66l.15-.05.22-.08.19-.08.11-.06a1.72,1.72,0,0,0,.42-.56l.13-.27c0-.11.09-.21.14-.33l.12-.34c0-.11.07-.21.1-.3h1l0,1.74H278v1h-1.72v3.25c0,.31,0,.56,0,.74a1.29,1.29,0,0,0,.07.42.28.28,0,0,0,.17.18.92.92,0,0,0,.32,0h0l.29,0,.31-.06.27-.07.21-.06h0l.27.68a2.68,2.68,0,0,1-.43.27,4.1,4.1,0,0,1-.56.24,4.43,4.43,0,0,1-.65.18,4,4,0,0,1-.69.07h0a2.08,2.08,0,0,1-.66-.1,1.08,1.08,0,0,1-.44-.3,1.21,1.21,0,0,1-.24-.48A2.59,2.59,0,0,1,274.42,28.25Z"/><path class="cls-2" d="M278.73,29.65v-.78l.86-.11V24.24L278.8,24v-.88l2.15-.28h0l.43.25v5.67l.84.12v.78Zm1.56-7.81a.83.83,0,0,1-.36-.08.79.79,0,0,1-.27-.2.9.9,0,0,1-.17-.3,1.5,1.5,0,0,1-.05-.37,1.54,1.54,0,0,1,.06-.43.92.92,0,0,1,.19-.35.87.87,0,0,1,.32-.24,1,1,0,0,1,.44-.09h0a1,1,0,0,1,.41.08.86.86,0,0,1,.29.21.9.9,0,0,1,.17.3,1,1,0,0,1,.06.36,1.31,1.31,0,0,1-.07.44,1.08,1.08,0,0,1-.19.35.93.93,0,0,1-.34.23,1.22,1.22,0,0,1-.49.09Z"/><path class="cls-2" d="M286.12,29.79a3.57,3.57,0,0,1-1.42-.26,2.48,2.48,0,0,1-1-.72,2.88,2.88,0,0,1-.57-1.1,5.08,5.08,0,0,1-.18-1.39,4.45,4.45,0,0,1,.23-1.47,3.24,3.24,0,0,1,.65-1.1,2.9,2.9,0,0,1,1-.7,3.43,3.43,0,0,1,1.31-.24,2.24,2.24,0,0,1,2.54,2.38c0,.27,0,.51,0,.73a2.61,2.61,0,0,1-.06.54h-3.82a3.53,3.53,0,0,0,.17,1,1.75,1.75,0,0,0,.37.66,1.36,1.36,0,0,0,.54.38,1.92,1.92,0,0,0,.69.12,3.12,3.12,0,0,0,.55-.05,3.06,3.06,0,0,0,.48-.12,3,3,0,0,0,.4-.16,2.88,2.88,0,0,0,.31-.17l.3.71a2.17,2.17,0,0,1-.41.32,3.62,3.62,0,0,1-.59.31,5.19,5.19,0,0,1-.73.23A3,3,0,0,1,286.12,29.79ZM286,23.6a1.22,1.22,0,0,0-.43.08.83.83,0,0,0-.34.31,2.18,2.18,0,0,0-.25.64,6.36,6.36,0,0,0-.12,1.05h2.1s0-.05,0-.08v-.11a.45.45,0,0,0,0-.11V25.3c0-.2,0-.4,0-.61a2.21,2.21,0,0,0-.15-.55,1.19,1.19,0,0,0-.3-.39A.77.77,0,0,0,286,23.6Z"/><path class="cls-2" d="M289.81,29.28V27.63h1.08l.31.91a.49.49,0,0,0,.16.16,1.26,1.26,0,0,0,.26.13,2.17,2.17,0,0,0,.33.1,2.58,2.58,0,0,0,.39,0,1.52,1.52,0,0,0,.48-.07,1,1,0,0,0,.3-.18.64.64,0,0,0,.15-.25.82.82,0,0,0,0-.26.75.75,0,0,0-.12-.43,1.45,1.45,0,0,0-.36-.33,4.79,4.79,0,0,0-.56-.29l-.73-.3a4,4,0,0,1-.72-.37,2.25,2.25,0,0,1-.55-.45,1.82,1.82,0,0,1-.47-1.26A1.64,1.64,0,0,1,290,24a1.67,1.67,0,0,1,.51-.62,2.69,2.69,0,0,1,.85-.41,4,4,0,0,1,1.16-.15,4.65,4.65,0,0,1,.69.05l.55.11.45.13a3.34,3.34,0,0,0,.4.1v1.62l-1,0-.28-.78a.76.76,0,0,0-.31-.26,1.11,1.11,0,0,0-.58-.13,1.42,1.42,0,0,0-.44.06.72.72,0,0,0-.29.15.62.62,0,0,0-.15.22.7.7,0,0,0-.05.25.75.75,0,0,0,.16.5,1.31,1.31,0,0,0,.4.33,3.56,3.56,0,0,0,.52.24,3.94,3.94,0,0,1,.55.22c.26.11.5.23.74.36a2.78,2.78,0,0,1,.62.44,1.87,1.87,0,0,1,.43.58,1.74,1.74,0,0,1,.17.79,1.9,1.9,0,0,1-.17.79,1.77,1.77,0,0,1-.5.63,2.5,2.5,0,0,1-.85.42,3.85,3.85,0,0,1-1.19.16,4.39,4.39,0,0,1-.84-.07,5.68,5.68,0,0,1-.7-.15,5.38,5.38,0,0,1-.56-.17A3.64,3.64,0,0,0,289.81,29.28Z"/><path class="cls-2" d="M297.22,29.75a1.23,1.23,0,0,1-.39-.06,1.06,1.06,0,0,1-.33-.19.84.84,0,0,1-.22-.3.8.8,0,0,1-.09-.39,1.09,1.09,0,0,1,.1-.44,1.1,1.1,0,0,1,.26-.35,1.23,1.23,0,0,1,.38-.24,1.17,1.17,0,0,1,.46-.08,1.45,1.45,0,0,1,.49.07.81.81,0,0,1,.32.21.58.58,0,0,1,.18.3,1,1,0,0,1,.06.36,1.14,1.14,0,0,1-.09.46,1,1,0,0,1-.64.57A1.29,1.29,0,0,1,297.22,29.75Z"/></svg>