<svg id="Layer_1" data-name="Layer 1" xmlns="http://www.w3.org/2000/svg" viewBox="0 0 1200 628"><defs><style>.cls-1{fill:#435563;}.cls-2{opacity:0.05;}.cls-3{fill:#fff;}.cls-4{fill:#e87824;}.cls-5{fill:#d4262f;}.cls-6{fill:#f1b533;}.cls-7{fill:none;stroke:#f1b533;stroke-miterlimit:10;stroke-width:3px;}</style></defs><rect class="cls-1" width="1200" height="628"/><g class="cls-2"><polygon class="cls-3" points="1182.35 421.89 1173.53 430.88 1164.71 439.87 1155.88 430.88 1147.06 421.89 1129.41 439.87 1111.77 421.89 1094.12 439.87 1094.12 439.87 1076.47 421.89 1058.82 439.87 1041.18 421.89 1023.53 439.87 1023.53 439.87 1005.88 421.89 988.24 439.87 988.24 439.87 970.59 421.89 952.94 439.87 935.29 421.89 917.65 439.87 917.65 439.87 900 421.89 882.35 439.87 864.71 421.89 847.06 439.87 829.41 421.89 811.76 439.87 811.76 439.87 794.12 421.89 776.47 439.87 758.82 421.89 741.18 439.87 741.18 439.87 723.53 421.89 705.88 439.87 705.88 439.87 688.24 421.89 670.59 439.87 652.94 421.89 635.29 439.87 635.29 439.87 617.65 421.89 600 439.87 582.35 421.89 573.53 430.88 564.71 439.87 555.88 430.88 547.06 421.89 529.41 439.87 529.41 439.87 511.76 421.89 494.12 439.87 476.47 421.89 458.82 439.87 458.82 439.87 441.18 421.89 423.53 439.87 423.53 439.87 405.88 421.89 388.24 439.87 370.59 421.89 352.94 439.87 335.29 421.89 317.65 439.87 300 421.89 282.35 439.87 264.71 421.89 247.06 439.87 247.06 439.87 229.41 421.89 211.76 439.87 194.12 421.89 176.47 439.87 176.47 439.87 158.82 421.89 141.18 439.87 141.18 439.87 123.53 421.89 105.88 439.87 88.23 421.89 70.59 439.87 70.59 439.87 52.94 421.89 35.29 439.87 17.65 421.89 0 439.87 0 457.85 17.65 439.87 35.29 457.85 52.94 439.87 70.59 457.85 88.23 439.87 105.88 457.85 123.53 439.87 141.18 457.85 158.82 439.87 158.82 439.87 176.47 457.85 194.12 439.87 211.76 457.85 229.41 439.87 229.41 439.87 247.06 457.85 264.71 439.87 282.35 457.85 300 439.87 317.65 457.85 335.29 439.87 335.29 439.87 352.94 457.85 370.59 439.87 388.24 457.85 405.88 439.87 423.53 457.85 441.18 439.87 441.18 439.87 458.82 457.85 476.47 439.87 494.12 457.85 511.76 439.87 511.76 439.87 529.41 457.85 547.06 439.87 564.71 457.85 582.35 439.87 582.35 439.87 600 457.85 617.65 439.87 635.29 457.85 652.94 439.87 652.94 439.87 670.59 457.85 688.24 439.87 705.88 457.85 723.53 439.87 723.53 439.87 741.18 457.85 758.82 439.87 776.47 457.85 794.12 439.87 811.76 457.85 829.41 439.87 847.06 457.85 864.71 439.87 882.35 457.85 900 439.87 917.65 457.85 935.29 439.87 935.29 439.87 952.94 457.85 970.59 439.87 988.24 457.85 1005.88 439.87 1005.88 439.87 1023.53 457.85 1041.18 439.87 1058.82 457.85 1076.47 439.87 1076.47 439.87 1094.12 457.85 1111.77 439.87 1129.41 457.85 1147.06 439.87 1164.71 457.85 1182.35 439.87 1200 457.85 1200 457.85 1200 439.87 1200 439.87 1182.35 421.89"/><polygon class="cls-3" points="1182.35 349.96 1173.53 358.95 1164.71 367.94 1147.06 349.96 1129.41 367.94 1111.77 349.96 1094.12 367.94 1094.12 367.94 1076.47 349.96 1058.82 367.94 1041.18 349.96 1023.53 367.94 1023.53 367.94 1005.88 349.96 988.24 367.94 988.24 367.94 970.59 349.96 952.94 367.94 935.29 349.96 917.65 367.94 917.65 367.94 900 349.96 882.35 367.94 864.71 349.96 847.06 367.94 829.41 349.96 811.76 367.94 811.76 367.94 794.12 349.96 776.47 367.94 758.82 349.96 741.18 367.94 741.18 367.94 723.53 349.96 705.88 367.94 705.88 367.94 688.24 349.96 670.59 367.94 652.94 349.96 635.29 367.94 635.29 367.94 617.65 349.96 600 367.94 582.35 349.96 573.53 358.95 564.71 367.94 547.06 349.96 529.41 367.94 529.41 367.94 511.76 349.96 494.12 367.94 476.47 349.96 458.82 367.94 458.82 367.94 441.18 349.96 423.53 367.94 423.53 367.94 405.88 349.96 388.24 367.94 370.59 349.96 352.94 367.94 335.29 349.96 317.65 367.94 300 349.96 282.35 367.94 264.71 349.96 247.06 367.94 247.06 367.94 229.41 349.96 211.76 367.94 194.12 349.96 176.47 367.94 176.47 367.94 158.82 349.96 141.18 367.94 141.18 367.94 123.53 349.96 105.88 367.94 88.23 349.96 70.59 367.94 70.59 367.94 52.94 349.96 35.29 367.94 17.65 349.96 0 367.94 0 385.92 17.65 367.94 35.29 385.92 52.94 367.94 70.59 385.92 88.23 367.94 105.88 385.92 123.53 367.94 141.18 385.92 158.82 367.94 158.82 367.94 176.47 385.92 194.12 367.94 211.76 385.92 229.41 367.94 229.41 367.94 247.06 385.92 264.71 367.94 282.35 385.92 300 367.94 317.65 385.92 335.29 367.94 335.29 367.94 335.29 367.94 352.94 385.92 370.59 367.94 388.24 385.92 405.88 367.94 423.53 385.92 441.18 367.94 441.18 367.94 458.82 385.92 476.47 367.94 494.12 385.92 511.76 367.94 511.76 367.94 529.41 385.92 547.06 367.94 564.71 385.92 582.35 367.94 582.35 367.94 600 385.92 617.65 367.94 635.29 385.92 652.94 367.94 652.94 367.94 670.59 385.92 688.24 367.94 705.88 385.92 723.53 367.94 723.53 367.94 741.18 385.92 758.82 367.94 776.47 385.92 794.12 367.94 811.76 385.92 829.41 367.94 847.06 385.92 864.71 367.94 882.35 385.92 900 367.94 917.65 385.92 935.29 367.94 935.29 367.94 935.29 367.94 952.94 385.92 970.59 367.94 988.24 385.92 1005.88 367.94 1005.88 367.94 1023.53 385.92 1041.18 367.94 1058.82 385.92 1076.47 367.94 1076.47 367.94 1094.12 385.92 1111.77 367.94 1129.41 385.92 1147.06 367.94 1164.71 385.92 1182.35 367.94 1200 385.92 1200 385.92 1200 367.94 1200 367.94 1182.35 349.96"/><polygon class="cls-3" points="1182.35 385.93 1173.53 394.92 1164.71 403.91 1147.06 385.93 1129.41 403.91 1111.77 385.93 1094.12 403.91 1094.12 403.91 1076.47 385.93 1058.82 403.91 1041.18 385.93 1023.53 403.91 1023.53 403.91 1005.88 385.93 988.24 403.91 988.24 403.91 970.59 385.93 952.94 403.91 935.29 385.93 917.65 403.91 917.65 403.91 900 385.93 882.35 403.91 864.71 385.93 847.06 403.91 829.41 385.93 811.76 403.91 811.76 403.91 794.12 385.93 776.47 403.91 758.82 385.93 741.18 403.91 741.18 403.91 723.53 385.93 705.88 403.91 705.88 403.91 688.24 385.93 670.59 403.91 652.94 385.93 635.29 403.91 635.29 403.91 617.65 385.93 600 403.91 582.35 385.93 573.53 394.92 564.71 403.91 547.06 385.93 529.41 403.91 529.41 403.91 511.76 385.93 494.12 403.91 476.47 385.93 458.82 403.91 458.82 403.91 441.18 385.93 423.53 403.91 423.53 403.91 405.88 385.93 388.24 403.91 370.59 385.93 352.94 403.91 335.29 385.93 317.65 403.91 300 385.93 282.35 403.91 264.71 385.93 247.06 403.91 247.06 403.91 229.41 385.93 211.76 403.91 194.12 385.93 176.47 403.91 176.47 403.91 158.82 385.93 141.18 403.91 141.18 403.91 123.53 385.93 105.88 403.91 88.23 385.93 70.59 403.91 70.59 403.91 52.94 385.93 35.29 403.91 17.65 385.93 0 403.91 0 421.89 17.65 403.91 35.29 421.89 52.94 403.91 70.59 421.89 88.23 403.91 105.88 421.89 123.53 403.91 141.18 421.89 158.82 403.91 158.82 403.91 176.47 421.89 194.12 403.91 211.76 421.89 229.41 403.91 229.41 403.91 247.06 421.89 264.71 403.91 282.35 421.89 300 403.91 317.65 421.89 335.29 403.91 335.29 403.91 352.94 421.89 370.59 403.91 388.24 421.89 405.88 403.91 423.53 421.89 441.18 403.91 441.18 403.91 458.82 421.89 476.47 403.91 494.12 421.89 511.76 403.91 511.76 403.91 529.41 421.89 547.06 403.91 564.71 421.89 582.35 403.91 582.35 403.91 600 421.89 617.65 403.91 635.29 421.89 652.94 403.91 652.94 403.91 670.59 421.89 688.24 403.91 705.88 421.89 723.53 403.91 723.53 403.91 741.18 421.89 758.82 403.91 776.47 421.89 794.12 403.91 811.76 421.89 829.41 403.91 847.06 421.89 864.71 403.91 882.35 421.89 900 403.91 917.65 421.89 935.29 403.91 935.29 403.91 952.94 421.89 970.59 403.91 988.24 421.89 1005.88 403.91 1005.88 403.91 1023.53 421.89 1041.18 403.91 1058.82 421.89 1076.47 403.91 1076.47 403.91 1094.12 421.89 1111.77 403.91 1129.41 421.89 1147.06 403.91 1164.71 421.89 1182.35 403.91 1200 421.89 1200 421.89 1200 403.91 1200 403.91 1182.35 385.93"/><polygon class="cls-3" points="1182.35 457.85 1173.53 466.84 1164.71 475.83 1147.06 457.85 1129.41 475.83 1111.77 457.85 1094.12 475.83 1094.12 475.83 1076.47 457.85 1058.82 475.83 1041.18 457.85 1023.53 475.83 1023.53 475.83 1005.88 457.85 988.24 475.83 988.24 475.83 970.59 457.85 952.94 475.83 935.29 457.85 917.65 475.83 917.65 475.83 900 457.85 882.35 475.83 864.71 457.85 847.06 475.83 829.41 457.85 811.76 475.83 811.76 475.83 794.12 457.85 776.47 475.83 758.82 457.85 741.18 475.83 741.18 475.83 723.53 457.85 705.88 475.83 705.88 475.83 688.24 457.85 670.59 475.83 652.94 457.85 635.29 475.83 635.29 475.83 617.65 457.85 600 475.83 582.35 457.85 573.53 466.84 564.71 475.83 547.06 457.85 529.41 475.83 529.41 475.83 511.76 457.85 494.12 475.83 476.47 457.85 458.82 475.83 458.82 475.83 441.18 457.85 423.53 475.83 423.53 475.83 405.88 457.85 388.24 475.83 370.59 457.85 352.94 475.83 335.29 457.85 317.65 475.83 300 457.85 282.35 475.83 264.71 457.85 247.06 475.83 247.06 475.83 229.41 457.85 211.76 475.83 194.12 457.85 176.47 475.83 176.47 475.83 158.82 457.85 141.18 475.83 141.18 475.83 123.53 457.85 105.88 475.83 88.23 457.85 70.59 475.83 70.59 475.83 52.94 457.85 35.29 475.83 17.65 457.85 0 475.83 0 493.81 17.65 475.83 35.29 493.81 52.94 475.83 70.59 493.81 88.23 475.83 105.88 493.81 123.53 475.83 141.18 493.81 158.82 475.83 158.82 475.83 176.47 493.81 194.12 475.83 211.76 493.81 229.41 475.83 229.41 475.83 247.06 493.81 264.71 475.83 282.35 493.81 300 475.83 317.65 493.81 335.29 475.83 335.29 475.83 335.29 475.83 352.94 493.81 370.59 475.83 388.24 493.81 405.88 475.83 423.53 493.81 441.18 475.83 441.18 475.83 458.82 493.81 476.47 475.83 494.12 493.81 511.76 475.83 511.76 475.83 529.41 493.81 547.06 475.83 564.71 493.81 582.35 475.83 582.35 475.83 600 493.81 617.65 475.83 635.29 493.81 652.94 475.83 652.94 475.83 670.59 493.81 688.24 475.83 705.88 493.81 723.53 475.83 723.53 475.83 741.18 493.81 758.82 475.83 776.47 493.81 794.12 475.83 811.76 493.81 829.41 475.83 847.06 493.81 864.71 475.83 882.35 493.81 900 475.83 917.65 493.81 935.29 475.83 935.29 475.83 935.29 475.83 952.94 493.81 970.59 475.83 988.24 493.81 1005.88 475.83 1005.88 475.83 1023.53 493.81 1041.18 475.83 1058.82 493.81 1076.47 475.83 1076.47 475.83 1094.12 493.81 1111.77 475.83 1129.41 493.81 1147.06 475.83 1164.71 493.81 1182.35 475.83 1200 493.81 1200 493.81 1200 475.83 1200 475.83 1182.35 457.85"/><polygon class="cls-3" points="1182.35 565.74 1173.53 574.73 1164.71 583.72 1155.88 574.73 1147.06 565.74 1129.41 583.72 1111.77 565.74 1094.12 583.72 1094.12 583.72 1076.47 565.74 1058.82 583.72 1041.18 565.74 1023.53 583.72 1023.53 583.72 1005.88 565.74 988.24 583.72 988.24 583.72 970.59 565.74 952.94 583.72 935.29 565.74 917.65 583.72 917.65 583.72 900 565.74 882.35 583.72 864.71 565.74 847.06 583.72 829.41 565.74 811.76 583.72 811.76 583.72 794.12 565.74 776.47 583.72 758.82 565.74 741.18 583.72 741.18 583.72 723.53 565.74 705.88 583.72 705.88 583.72 688.24 565.74 670.59 583.72 652.94 565.74 635.29 583.72 635.29 583.72 617.65 565.74 600 583.72 582.35 565.74 573.53 574.73 564.71 583.72 555.88 574.73 547.06 565.74 529.41 583.72 529.41 583.72 511.76 565.74 494.12 583.72 476.47 565.74 458.82 583.72 458.82 583.72 441.18 565.74 423.53 583.72 423.53 583.72 405.88 565.74 388.24 583.72 370.59 565.74 352.94 583.72 335.29 565.74 317.65 583.72 300 565.74 282.35 583.72 264.71 565.74 247.06 583.72 247.06 583.72 229.41 565.74 211.76 583.72 194.12 565.74 176.47 583.72 176.47 583.72 158.82 565.74 141.18 583.72 141.18 583.72 123.53 565.74 105.88 583.72 88.23 565.74 70.59 583.72 70.59 583.72 70.59 583.72 52.94 565.74 35.29 583.72 17.65 565.74 0 583.72 0 601.7 17.65 583.72 35.29 601.7 52.94 583.72 70.59 601.7 88.23 583.72 105.88 601.7 123.53 583.72 141.18 601.7 158.82 583.72 158.82 583.72 176.47 601.7 194.12 583.72 211.76 601.7 229.41 583.72 229.41 583.72 247.06 601.7 264.71 583.72 282.35 601.7 300 583.72 317.65 601.7 335.29 583.72 335.29 583.72 352.94 601.7 370.59 583.72 388.24 601.7 405.88 583.72 423.53 601.7 441.18 583.72 441.18 583.72 458.82 601.7 476.47 583.72 494.12 601.7 511.76 583.72 511.76 583.72 529.41 601.7 547.06 583.72 564.71 601.7 582.35 583.72 582.35 583.72 600 601.7 617.65 583.72 635.29 601.7 652.94 583.72 652.94 583.72 670.59 601.7 688.24 583.72 705.88 601.7 723.53 583.72 723.53 583.72 741.18 601.7 758.82 583.72 776.47 601.7 794.12 583.72 811.76 601.7 829.41 583.72 847.06 601.7 864.71 583.72 882.35 601.7 900 583.72 917.65 601.7 935.29 583.72 935.29 583.72 952.94 601.7 970.59 583.72 988.24 601.7 1005.88 583.72 1005.88 583.72 1023.53 601.7 1041.18 583.72 1058.82 601.7 1076.47 583.72 1076.47 583.72 1094.12 601.7 1111.77 583.72 1129.41 601.7 1147.06 583.72 1164.71 601.7 1182.35 583.72 1200 601.7 1200 601.7 1200 583.72 1200 583.72 1182.35 565.74"/><polygon class="cls-3" points="1182.35 493.81 1173.53 502.8 1164.71 511.79 1147.06 493.81 1129.41 511.79 1111.77 493.81 1094.12 511.79 1094.12 511.79 1076.47 493.81 1058.82 511.79 1041.18 493.81 1023.53 511.79 1023.53 511.79 1005.88 493.81 988.24 511.79 988.24 511.79 970.59 493.81 952.94 511.79 935.29 493.81 917.65 511.79 917.65 511.79 900 493.81 882.35 511.79 864.71 493.81 847.06 511.79 829.41 493.81 811.76 511.79 811.76 511.79 794.12 493.81 776.47 511.79 758.82 493.81 741.18 511.79 741.18 511.79 723.53 493.81 705.88 511.79 705.88 511.79 688.24 493.81 670.59 511.79 652.94 493.81 635.29 511.79 635.29 511.79 617.65 493.81 600 511.79 582.35 493.81 573.53 502.8 564.71 511.79 547.06 493.81 529.41 511.79 529.41 511.79 511.76 493.81 494.12 511.79 476.47 493.81 458.82 511.79 458.82 511.79 441.18 493.81 423.53 511.79 423.53 511.79 405.88 493.81 388.24 511.79 370.59 493.81 352.94 511.79 335.29 493.81 317.65 511.79 300 493.81 282.35 511.79 264.71 493.81 247.06 511.79 247.06 511.79 229.41 493.81 211.76 511.79 194.12 493.81 176.47 511.79 176.47 511.79 158.82 493.81 141.18 511.79 141.18 511.79 123.53 493.81 105.88 511.79 88.23 493.81 70.59 511.79 70.59 511.79 52.94 493.81 35.29 511.79 17.65 493.81 0 511.79 0 529.77 17.65 511.79 35.29 529.77 52.94 511.79 70.59 529.77 88.23 511.79 105.88 529.77 123.53 511.79 141.18 529.77 158.82 511.79 158.82 511.79 176.47 529.77 194.12 511.79 211.76 529.77 229.41 511.79 229.41 511.79 247.06 529.77 264.71 511.79 282.35 529.77 300 511.79 317.65 529.77 335.29 511.79 335.29 511.79 352.94 529.77 370.59 511.79 388.24 529.77 405.88 511.79 423.53 529.77 441.18 511.79 441.18 511.79 458.82 529.77 476.47 511.79 494.12 529.77 511.76 511.79 511.76 511.79 529.41 529.77 547.06 511.79 564.71 529.77 582.35 511.79 582.35 511.79 600 529.77 617.65 511.79 635.29 529.77 652.94 511.79 652.94 511.79 670.59 529.77 688.24 511.79 705.88 529.77 723.53 511.79 723.53 511.79 741.18 529.77 758.82 511.79 776.47 529.77 794.12 511.79 811.76 529.77 829.41 511.79 847.06 529.77 864.71 511.79 882.35 529.77 900 511.79 917.65 529.77 935.29 511.79 935.29 511.79 952.94 529.77 970.59 511.79 988.24 529.77 1005.88 511.79 1005.88 511.79 1023.53 529.77 1041.18 511.79 1058.82 529.77 1076.47 511.79 1076.47 511.79 1094.12 529.77 1111.77 511.79 1129.41 529.77 1147.06 511.79 1164.71 529.77 1182.35 511.79 1200 529.77 1200 529.77 1200 511.79 1200 511.79 1182.35 493.81"/><polygon class="cls-3" points="1182.35 601.7 1173.53 610.69 1164.71 619.68 1147.06 601.7 1129.41 619.68 1111.77 601.7 1094.12 619.68 1094.12 619.68 1076.47 601.7 1058.82 619.68 1041.18 601.7 1023.53 619.68 1023.53 619.68 1005.88 601.7 988.24 619.68 988.24 619.68 970.59 601.7 952.94 619.68 935.29 601.7 917.65 619.68 917.65 619.68 900 601.7 882.35 619.68 864.71 601.7 847.06 619.68 829.41 601.7 811.76 619.68 811.76 619.68 794.12 601.7 776.47 619.68 758.82 601.7 741.18 619.68 741.18 619.68 723.53 601.7 705.88 619.68 705.88 619.68 688.24 601.7 670.59 619.68 652.94 601.7 635.29 619.68 635.29 619.68 617.65 601.7 600 619.68 582.35 601.7 573.53 610.69 564.71 619.68 547.06 601.7 529.41 619.68 529.41 619.68 511.76 601.7 494.12 619.68 476.47 601.7 458.82 619.68 458.82 619.68 441.18 601.7 423.53 619.68 423.53 619.68 405.88 601.7 388.24 619.68 370.59 601.7 352.94 619.68 335.29 601.7 317.65 619.68 300 601.7 282.35 619.68 264.71 601.7 247.06 619.68 247.06 619.68 229.41 601.7 211.76 619.68 194.12 601.7 176.47 619.68 176.47 619.68 158.82 601.7 141.18 619.68 141.18 619.68 123.53 601.7 105.88 619.68 88.23 601.7 70.59 619.68 70.59 619.68 52.94 601.7 35.29 619.68 17.65 601.7 0 619.68 0 628 9.48 628 17.65 619.68 25.81 628 44.77 628 52.94 619.68 61.11 628 80.07 628 88.23 619.68 96.4 628 115.36 628 123.53 619.68 131.7 628 150.66 628 158.82 619.68 158.82 619.68 166.99 628 185.95 628 194.12 619.68 202.28 628 221.25 628 229.41 619.68 229.41 619.68 237.58 628 256.54 628 264.71 619.68 272.87 628 291.83 628 300 619.68 308.17 628 327.13 628 335.29 619.68 335.29 619.68 343.46 628 362.42 628 370.59 619.68 378.75 628 397.72 628 405.88 619.68 414.05 628 433.01 628 441.18 619.68 441.18 619.68 449.34 628 468.3 628 476.47 619.68 484.64 628 503.6 628 511.76 619.68 511.76 619.68 519.93 628 538.89 628 547.06 619.68 555.23 628 574.19 628 582.35 619.68 582.35 619.68 590.52 628 609.48 628 617.65 619.68 625.81 628 644.77 628 652.94 619.68 652.94 619.68 661.11 628 680.07 628 688.24 619.68 696.4 628 715.36 628 723.53 619.68 723.53 619.68 731.7 628 750.66 628 758.82 619.68 766.99 628 785.95 628 794.12 619.68 802.28 628 821.25 628 829.41 619.68 837.58 628 856.54 628 864.71 619.68 872.87 628 891.83 628 900 619.68 908.17 628 927.13 628 935.29 619.68 935.29 619.68 943.46 628 962.42 628 970.59 619.68 978.75 628 997.72 628 1005.88 619.68 1005.88 619.68 1014.05 628 1033.01 628 1041.18 619.68 1049.34 628 1068.3 628 1076.47 619.68 1076.47 619.68 1084.64 628 1103.6 628 1111.77 619.68 1119.93 628 1138.89 628 1147.06 619.68 1155.22 628 1174.19 628 1182.35 619.68 1190.52 628 1200 628 1200 619.68 1200 619.68 1182.35 601.7"/><polygon class="cls-3" points="1182.35 314 1173.53 322.99 1164.71 331.98 1147.06 314 1129.41 331.98 1111.77 314 1094.12 331.98 1094.12 331.98 1076.47 314 1058.82 331.98 1041.18 314 1023.53 331.98 1023.53 331.98 1005.88 314 988.24 331.98 988.24 331.98 970.59 314 952.94 331.98 935.29 314 917.65 331.98 917.65 331.98 900 314 882.35 331.98 864.71 314 847.06 331.98 829.41 314 811.76 331.98 811.76 331.98 794.12 314 776.47 331.98 758.82 314 741.18 331.98 741.18 331.98 723.53 314 705.88 331.98 705.88 331.98 688.24 314 670.59 331.98 652.94 314 635.29 331.98 635.29 331.98 617.65 314 600 331.98 582.35 314 573.53 322.99 564.71 331.98 547.06 314 529.41 331.98 529.41 331.98 511.76 314 494.12 331.98 476.47 314 458.82 331.98 458.82 331.98 441.18 314 423.53 331.98 423.53 331.98 405.88 314 388.24 331.98 370.59 314 352.94 331.98 335.29 314 317.65 331.98 300 314 282.35 331.98 264.71 314 247.06 331.98 247.06 331.98 229.41 314 211.76 331.98 194.12 314 176.47 331.98 176.47 331.98 158.82 314 141.18 331.98 141.18 331.98 123.53 314 105.88 331.98 88.23 314 70.59 331.98 70.59 331.98 52.94 314 35.29 331.98 17.65 314 0 331.98 0 349.96 17.65 331.98 35.29 349.96 52.94 331.98 70.59 349.96 88.23 331.98 105.88 349.96 123.53 331.98 141.18 349.96 158.82 331.98 158.82 331.98 176.47 349.96 194.12 331.98 211.76 349.96 229.41 331.98 229.41 331.98 247.06 349.96 264.71 331.98 282.35 349.96 300 331.98 317.65 349.96 335.29 331.98 335.29 331.98 335.29 331.98 352.94 349.96 370.59 331.98 388.24 349.96 405.88 331.98 423.53 349.96 441.18 331.98 441.18 331.98 458.82 349.96 476.47 331.98 494.12 349.96 511.76 331.98 511.76 331.98 529.41 349.96 547.06 331.98 564.71 349.96 582.35 331.98 582.35 331.98 600 349.96 617.65 331.98 635.29 349.96 652.94 331.98 652.94 331.98 670.59 349.96 688.24 331.98 705.88 349.96 723.53 331.98 723.53 331.98 741.18 349.96 758.82 331.98 776.47 349.96 794.12 331.98 811.76 349.96 829.41 331.98 847.06 349.96 864.71 331.98 882.35 349.96 900 331.98 917.65 349.96 935.29 331.98 935.29 331.98 935.29 331.98 952.94 349.96 970.59 331.98 988.24 349.96 1005.88 331.98 1005.88 331.98 1023.53 349.96 1041.18 331.98 1058.82 349.96 1076.47 331.98 1076.47 331.98 1094.12 349.96 1111.77 331.98 1129.41 349.96 1147.06 331.98 1164.71 349.96 1182.35 331.98 1200 349.96 1200 349.96 1200 331.98 1200 331.98 1182.35 314"/><polygon class="cls-3" points="1182.35 529.77 1173.53 538.76 1164.71 547.75 1155.88 538.76 1147.06 529.77 1129.41 547.75 1111.77 529.77 1094.12 547.75 1094.12 547.75 1076.47 529.77 1058.82 547.75 1041.18 529.77 1023.53 547.75 1023.53 547.75 1005.88 529.77 988.24 547.75 988.24 547.75 970.59 529.77 952.94 547.75 935.29 529.77 917.65 547.75 917.65 547.75 900 529.77 882.35 547.75 864.71 529.77 847.06 547.75 829.41 529.77 811.76 547.75 811.76 547.75 794.12 529.77 776.47 547.75 758.82 529.77 741.18 547.75 741.18 547.75 723.53 529.77 705.88 547.75 705.88 547.75 688.24 529.77 670.59 547.75 652.94 529.77 635.29 547.75 635.29 547.75 617.65 529.77 600 547.75 582.35 529.77 573.53 538.76 564.71 547.75 555.88 538.76 547.06 529.77 529.41 547.75 529.41 547.75 511.76 529.77 494.12 547.75 476.47 529.77 458.82 547.75 458.82 547.75 441.18 529.77 423.53 547.75 423.53 547.75 405.88 529.77 388.24 547.75 370.59 529.77 352.94 547.75 335.29 529.77 317.65 547.75 300 529.77 282.35 547.75 264.71 529.77 247.06 547.75 247.06 547.75 229.41 529.77 211.76 547.75 194.12 529.77 176.47 547.75 176.47 547.75 158.82 529.77 141.18 547.75 141.18 547.75 123.53 529.77 105.88 547.75 88.23 529.77 70.59 547.75 70.59 547.75 52.94 529.77 35.29 547.75 17.65 529.77 0 547.75 0 565.74 17.65 547.75 35.29 565.74 52.94 547.75 70.59 565.74 88.23 547.75 105.88 565.74 123.53 547.75 141.18 565.74 158.82 547.75 158.82 547.75 176.47 565.74 194.12 547.75 211.76 565.74 229.41 547.75 229.41 547.75 247.06 565.74 264.71 547.75 282.35 565.74 300 547.75 317.65 565.74 335.29 547.75 335.29 547.75 352.94 565.74 370.59 547.75 388.24 565.74 405.88 547.75 423.53 565.74 441.18 547.75 441.18 547.75 458.82 565.74 476.47 547.75 494.12 565.74 511.76 547.75 511.76 547.75 529.41 565.74 547.06 547.75 564.71 565.74 582.35 547.75 582.35 547.75 600 565.74 617.65 547.75 635.29 565.74 652.94 547.75 652.94 547.75 670.59 565.74 688.24 547.75 705.88 565.74 723.53 547.75 723.53 547.75 741.18 565.74 758.82 547.75 776.47 565.74 794.12 547.75 811.76 565.74 829.41 547.75 847.06 565.74 864.71 547.75 882.35 565.74 900 547.75 917.65 565.74 935.29 547.75 935.29 547.75 952.94 565.74 970.59 547.75 988.24 565.74 1005.88 547.75 1005.88 547.75 1023.53 565.74 1041.18 547.75 1058.82 565.74 1076.47 547.75 1076.47 547.75 1094.12 565.74 1111.77 547.75 1129.41 565.74 1147.06 547.75 1164.71 565.74 1182.35 547.75 1200 565.74 1200 565.74 1200 547.75 1200 547.75 1182.35 529.77"/><polygon class="cls-3" points="1182.35 26.3 1173.53 35.29 1164.71 44.28 1155.88 35.29 1147.06 26.3 1129.41 44.28 1111.77 26.3 1094.12 44.28 1094.12 44.28 1076.47 26.3 1058.82 44.28 1041.18 26.3 1023.53 44.28 1023.53 44.28 1005.88 26.3 988.24 44.28 988.24 44.28 970.59 26.3 952.94 44.28 935.29 26.3 917.65 44.28 917.65 44.28 900 26.3 882.35 44.28 864.71 26.3 847.06 44.28 829.41 26.3 811.76 44.28 811.76 44.28 794.12 26.3 776.47 44.28 758.82 26.3 741.18 44.28 741.18 44.28 723.53 26.3 705.88 44.28 705.88 44.28 688.24 26.3 670.59 44.28 652.94 26.3 635.29 44.28 635.29 44.28 617.65 26.3 600 44.28 582.35 26.3 573.53 35.29 564.71 44.28 555.88 35.29 547.06 26.3 529.41 44.28 529.41 44.28 511.76 26.3 494.12 44.28 476.47 26.3 458.82 44.28 458.82 44.28 441.18 26.3 423.53 44.28 423.53 44.28 405.88 26.3 388.24 44.28 370.59 26.3 352.94 44.28 335.29 26.3 317.65 44.28 300 26.3 282.35 44.28 264.71 26.3 247.06 44.28 247.06 44.28 229.41 26.3 211.76 44.28 194.12 26.3 176.47 44.28 176.47 44.28 158.82 26.3 141.18 44.28 141.18 44.28 123.53 26.3 105.88 44.28 88.23 26.3 70.59 44.28 70.59 44.28 52.94 26.3 35.29 44.28 17.65 26.3 0 44.28 0 62.26 17.65 44.28 35.29 62.26 52.94 44.28 70.59 62.26 88.23 44.28 105.88 62.26 123.53 44.28 141.18 62.26 158.82 44.28 158.82 44.28 158.82 44.28 176.47 62.26 194.12 44.28 211.76 62.26 229.41 44.28 229.41 44.28 229.41 44.28 247.06 62.26 264.71 44.28 282.35 62.26 300 44.28 317.65 62.26 335.29 44.28 335.29 44.28 335.29 44.28 352.94 62.26 370.59 44.28 388.24 62.26 405.88 44.28 423.53 62.26 441.18 44.28 441.18 44.28 441.18 44.28 458.82 62.26 476.47 44.28 494.12 62.26 511.76 44.28 511.76 44.28 511.76 44.28 529.41 62.26 547.06 44.28 564.71 62.26 582.35 44.28 582.35 44.28 582.35 44.28 600 62.26 617.65 44.28 635.29 62.26 652.94 44.28 652.94 44.28 652.94 44.28 670.59 62.26 688.24 44.28 705.88 62.26 723.53 44.28 723.53 44.28 723.53 44.28 741.18 62.26 758.82 44.28 776.47 62.26 794.12 44.28 811.76 62.26 829.41 44.28 847.06 62.26 864.71 44.28 882.35 62.26 900 44.28 917.65 62.26 935.29 44.28 935.29 44.28 935.29 44.28 952.94 62.26 970.59 44.28 988.24 62.26 1005.88 44.28 1005.88 44.28 1023.53 62.26 1041.18 44.28 1058.82 62.26 1076.47 44.28 1076.47 44.28 1076.47 44.28 1094.12 62.26 1111.77 44.28 1129.41 62.26 1147.06 44.28 1164.71 62.26 1182.35 44.28 1200 62.26 1200 62.26 1200 44.28 1200 44.28 1182.35 26.3"/><polygon class="cls-3" points="1182.35 62.26 1173.53 71.25 1164.71 80.25 1147.06 62.26 1129.41 80.25 1111.77 62.26 1094.12 80.25 1094.12 80.25 1094.12 80.25 1076.47 62.26 1058.82 80.25 1041.18 62.26 1023.53 80.25 1023.53 80.25 1023.53 80.25 1005.88 62.26 988.24 80.25 988.24 80.25 988.24 80.25 970.59 62.26 952.94 80.25 935.29 62.26 917.65 80.25 917.65 80.25 917.65 80.25 900 62.26 882.35 80.25 864.71 62.26 847.06 80.25 829.41 62.26 811.76 80.25 811.76 80.25 811.76 80.25 794.12 62.26 776.47 80.25 758.82 62.26 741.18 80.25 741.18 80.25 741.18 80.25 723.53 62.26 705.88 80.25 705.88 80.25 705.88 80.25 688.24 62.26 670.59 80.25 652.94 62.26 635.29 80.25 635.29 80.25 635.29 80.25 617.65 62.26 600 80.25 582.35 62.26 573.53 71.25 564.71 80.25 547.06 62.26 529.41 80.25 529.41 80.25 529.41 80.25 511.76 62.26 494.12 80.25 476.47 62.26 458.82 80.25 458.82 80.25 458.82 80.25 441.18 62.26 423.53 80.25 423.53 80.25 423.53 80.25 405.88 62.26 388.24 80.25 370.59 62.26 352.94 80.25 335.29 62.26 317.65 80.25 300 62.26 282.35 80.25 264.71 62.26 247.06 80.25 247.06 80.25 247.06 80.25 229.41 62.26 211.76 80.25 194.12 62.26 176.47 80.25 176.47 80.25 176.47 80.25 158.82 62.26 141.18 80.25 141.18 80.25 141.18 80.25 123.53 62.26 105.88 80.25 88.23 62.26 70.59 80.25 70.59 80.25 70.59 80.25 52.94 62.26 35.29 80.25 17.65 62.26 0 80.25 0 98.23 17.65 80.25 35.29 98.23 52.94 80.25 70.59 98.23 88.23 80.25 105.88 98.23 123.53 80.25 141.18 98.23 158.82 80.25 158.82 80.25 176.47 98.23 194.12 80.25 211.76 98.23 229.41 80.25 229.41 80.25 247.06 98.23 264.71 80.25 282.35 98.23 300 80.25 317.65 98.23 335.29 80.25 335.29 80.25 352.94 98.23 370.59 80.25 388.24 98.23 405.88 80.25 423.53 98.23 441.18 80.25 441.18 80.25 458.82 98.23 476.47 80.25 494.12 98.23 511.76 80.25 511.76 80.25 529.41 98.23 547.06 80.25 564.71 98.23 582.35 80.25 582.35 80.25 600 98.23 617.65 80.25 635.29 98.23 652.94 80.25 652.94 80.25 670.59 98.23 688.24 80.25 705.88 98.23 723.53 80.25 723.53 80.25 741.18 98.23 758.82 80.25 776.47 98.23 794.12 80.25 811.76 98.23 829.41 80.25 847.06 98.23 864.71 80.25 882.35 98.23 900 80.25 917.65 98.23 935.29 80.25 935.29 80.25 952.94 98.23 970.59 80.25 988.24 98.23 1005.88 80.25 1005.88 80.25 1023.53 98.23 1041.18 80.25 1058.82 98.23 1076.47 80.25 1076.47 80.25 1094.12 98.23 1111.77 80.25 1129.41 98.23 1147.06 80.25 1164.71 98.23 1182.35 80.25 1200 98.23 1200 98.23 1200 80.25 1200 80.25 1182.35 62.26"/><polygon class="cls-3" points="1182.35 98.23 1173.53 107.22 1164.71 116.21 1147.06 98.23 1129.41 116.21 1111.77 98.23 1094.12 116.21 1094.12 116.21 1076.47 98.23 1058.82 116.21 1041.18 98.23 1023.53 116.21 1023.53 116.21 1005.88 98.23 988.24 116.21 988.24 116.21 970.59 98.23 952.94 116.21 935.29 98.23 917.65 116.21 917.65 116.21 900 98.23 882.35 116.21 864.71 98.23 847.06 116.21 829.41 98.23 811.76 116.21 811.76 116.21 794.12 98.23 776.47 116.21 758.82 98.23 741.18 116.21 741.18 116.21 723.53 98.23 705.88 116.21 705.88 116.21 688.24 98.23 670.59 116.21 652.94 98.23 635.29 116.21 635.29 116.21 617.65 98.23 600 116.21 582.35 98.23 573.53 107.22 564.71 116.21 547.06 98.23 529.41 116.21 529.41 116.21 511.76 98.23 494.12 116.21 476.47 98.23 458.82 116.21 458.82 116.21 441.18 98.23 423.53 116.21 423.53 116.21 405.88 98.23 388.24 116.21 370.59 98.23 352.94 116.21 335.29 98.23 317.65 116.21 300 98.23 282.35 116.21 264.71 98.23 247.06 116.21 247.06 116.21 229.41 98.23 211.76 116.21 194.12 98.23 176.47 116.21 176.47 116.21 158.82 98.23 141.18 116.21 141.18 116.21 123.53 98.23 105.88 116.21 88.23 98.23 70.59 116.21 70.59 116.21 52.94 98.23 35.29 116.21 17.65 98.23 0 116.21 0 134.19 17.65 116.21 35.29 134.19 52.94 116.21 70.59 134.19 88.23 116.21 105.88 134.19 123.53 116.21 141.18 134.19 158.82 116.21 158.82 116.21 158.82 116.21 176.47 134.19 194.12 116.21 211.76 134.19 229.41 116.21 229.41 116.21 229.41 116.21 247.06 134.19 264.71 116.21 282.35 134.19 300 116.21 317.65 134.19 335.29 116.21 335.29 116.21 335.29 116.21 352.94 134.19 370.59 116.21 388.24 134.19 405.88 116.21 423.53 134.19 441.18 116.21 441.18 116.21 441.18 116.21 458.82 134.19 476.47 116.21 494.12 134.19 511.76 116.21 511.76 116.21 511.76 116.21 529.41 134.19 547.06 116.21 564.71 134.19 582.35 116.21 582.35 116.21 582.35 116.21 600 134.19 617.65 116.21 635.29 134.19 652.94 116.21 652.94 116.21 652.94 116.21 670.59 134.19 688.24 116.21 705.88 134.19 723.53 116.21 723.53 116.21 723.53 116.21 741.18 134.19 758.82 116.21 776.47 134.19 794.12 116.21 811.76 134.19 829.41 116.21 847.06 134.19 864.71 116.21 882.35 134.19 900 116.21 917.65 134.19 935.29 116.21 935.29 116.21 935.29 116.21 952.94 134.19 970.59 116.21 988.24 134.19 1005.88 116.21 1005.88 116.21 1023.53 134.19 1041.18 116.21 1058.82 134.19 1076.47 116.21 1076.47 116.21 1076.47 116.21 1094.12 134.19 1111.77 116.21 1129.41 134.19 1147.06 116.21 1164.71 134.19 1182.35 116.21 1200 134.19 1200 134.19 1200 116.21 1200 116.21 1182.35 98.23"/><polygon class="cls-3" points="1182.35 278.04 1173.53 287.03 1164.71 296.02 1155.88 287.03 1147.06 278.04 1129.41 296.02 1111.77 278.04 1094.12 296.02 1094.12 296.02 1076.47 278.04 1058.82 296.02 1041.18 278.04 1023.53 296.02 1023.53 296.02 1005.88 278.04 988.24 296.02 988.24 296.02 970.59 278.04 952.94 296.02 935.29 278.04 917.65 296.02 917.65 296.02 900 278.04 882.35 296.02 864.71 278.04 847.06 296.02 829.41 278.04 811.76 296.02 811.76 296.02 794.12 278.04 776.47 296.02 758.82 278.04 741.18 296.02 741.18 296.02 723.53 278.04 705.88 296.02 705.88 296.02 688.24 278.04 670.59 296.02 652.94 278.04 635.29 296.02 635.29 296.02 617.65 278.04 600 296.02 582.35 278.04 573.53 287.03 564.71 296.02 555.88 287.03 547.06 278.04 529.41 296.02 529.41 296.02 511.76 278.04 494.12 296.02 476.47 278.04 458.82 296.02 458.82 296.02 441.18 278.04 423.53 296.02 423.53 296.02 405.88 278.04 388.24 296.02 370.59 278.04 352.94 296.02 335.29 278.04 317.65 296.02 300 278.04 282.35 296.02 264.71 278.04 247.06 296.02 247.06 296.02 229.41 278.04 211.76 296.02 194.12 278.04 176.47 296.02 176.47 296.02 158.82 278.04 141.18 296.02 141.18 296.02 123.53 278.04 105.88 296.02 88.23 278.04 70.59 296.02 70.59 296.02 52.94 278.04 35.29 296.02 17.65 278.04 0 296.02 0 314 17.65 296.02 35.29 314 52.94 296.02 70.59 314 88.23 296.02 105.88 314 123.53 296.02 141.18 314 158.82 296.02 158.82 296.02 176.47 314 194.12 296.02 211.76 314 229.41 296.02 229.41 296.02 247.06 314 264.71 296.02 282.35 314 300 296.02 317.65 314 335.29 296.02 335.29 296.02 352.94 314 370.59 296.02 388.24 314 405.88 296.02 423.53 314 441.18 296.02 441.18 296.02 458.82 314 476.47 296.02 494.12 314 511.76 296.02 511.76 296.02 529.41 314 547.06 296.02 564.71 314 582.35 296.02 582.35 296.02 600 314 617.65 296.02 635.29 314 652.94 296.02 652.94 296.02 670.59 314 688.24 296.02 705.88 314 723.53 296.02 723.53 296.02 741.18 314 758.82 296.02 776.47 314 794.12 296.02 811.76 314 829.41 296.02 847.06 314 864.71 296.02 882.35 314 900 296.02 917.65 314 935.29 296.02 935.29 296.02 952.94 314 970.59 296.02 988.24 314 1005.88 296.02 1005.88 296.02 1023.53 314 1041.18 296.02 1058.82 314 1076.47 296.02 1076.47 296.02 1094.12 314 1111.77 296.02 1129.41 314 1147.06 296.02 1164.71 314 1182.35 296.02 1200 314 1200 314 1200 296.02 1200 296.02 1182.35 278.04"/><polygon class="cls-3" points="1182.35 134.19 1173.53 143.18 1164.71 152.17 1155.88 143.18 1147.06 134.19 1129.41 152.17 1111.77 134.19 1094.12 152.17 1094.12 152.17 1076.47 134.19 1058.82 152.17 1041.18 134.19 1023.53 152.17 1023.53 152.17 1005.88 134.19 988.24 152.17 988.24 152.17 970.59 134.19 952.94 152.17 935.29 134.19 917.65 152.17 917.65 152.17 900 134.19 882.35 152.17 864.71 134.19 847.06 152.17 829.41 134.19 811.76 152.17 811.76 152.17 794.12 134.19 776.47 152.17 758.82 134.19 741.18 152.17 741.18 152.17 723.53 134.19 705.88 152.17 705.88 152.17 688.24 134.19 670.59 152.17 652.94 134.19 635.29 152.17 635.29 152.17 617.65 134.19 600 152.17 582.35 134.19 573.53 143.18 564.71 152.17 555.88 143.18 547.06 134.19 529.41 152.17 529.41 152.17 511.76 134.19 494.12 152.17 476.47 134.19 458.82 152.17 458.82 152.17 441.18 134.19 423.53 152.17 423.53 152.17 405.88 134.19 388.24 152.17 370.59 134.19 352.94 152.17 335.29 134.19 317.65 152.17 300 134.19 282.35 152.17 264.71 134.19 247.06 152.17 247.06 152.17 229.41 134.19 211.76 152.17 194.12 134.19 176.47 152.17 176.47 152.17 158.82 134.19 141.18 152.17 141.18 152.17 123.53 134.19 105.88 152.17 88.23 134.19 70.59 152.17 70.59 152.17 52.94 134.19 35.29 152.17 17.65 134.19 0 152.17 0 170.15 17.65 152.17 35.29 170.15 52.94 152.17 70.59 170.15 88.23 152.17 105.88 170.15 123.53 152.17 141.18 170.15 158.82 152.17 158.82 152.17 158.82 152.17 176.47 170.15 194.12 152.17 211.76 170.15 229.41 152.17 229.41 152.17 229.41 152.17 247.06 170.15 264.71 152.17 282.35 170.15 300 152.17 317.65 170.15 335.29 152.17 335.29 152.17 335.29 152.17 352.94 170.15 370.59 152.17 388.24 170.15 405.88 152.17 423.53 170.15 441.18 152.17 441.18 152.17 441.18 152.17 458.82 170.15 476.47 152.17 494.12 170.15 511.76 152.17 511.76 152.17 511.76 152.17 529.41 170.15 547.06 152.17 564.71 170.15 582.35 152.17 582.35 152.17 582.35 152.17 600 170.15 617.65 152.17 635.29 170.15 652.94 152.17 652.94 152.17 652.94 152.17 670.59 170.15 688.24 152.17 705.88 170.15 723.53 152.17 723.53 152.17 723.53 152.17 741.18 170.15 758.82 152.17 776.47 170.15 794.12 152.17 811.76 170.15 829.41 152.17 847.06 170.15 864.71 152.17 882.35 170.15 900 152.17 917.65 170.15 935.29 152.17 935.29 152.17 935.29 152.17 952.94 170.15 970.59 152.17 988.24 170.15 1005.88 152.17 1005.88 152.17 1023.53 170.15 1041.18 152.17 1058.82 170.15 1076.47 152.17 1076.47 152.17 1076.47 152.17 1094.12 170.15 1111.77 152.17 1129.41 170.15 1147.06 152.17 1164.71 170.15 1182.35 152.17 1200 170.15 1200 170.15 1200 152.17 1200 152.17 1182.35 134.19"/><polygon class="cls-3" points="1191.83 0 1172.87 0 1164.71 8.32 1156.54 0 1137.58 0 1129.41 8.32 1121.25 0 1102.28 0 1094.12 8.32 1094.12 8.32 1085.95 0 1066.99 0 1058.82 8.32 1050.66 0 1031.7 0 1023.53 8.32 1023.53 8.32 1015.36 0 996.4 0 988.24 8.32 988.24 8.32 980.07 0 961.11 0 952.94 8.32 944.77 0 925.81 0 917.65 8.32 917.65 8.32 909.48 0 890.52 0 882.35 8.32 874.19 0 855.23 0 847.06 8.32 838.89 0 819.93 0 811.76 8.32 811.76 8.32 803.6 0 784.64 0 776.47 8.32 768.3 0 749.34 0 741.18 8.32 741.18 8.32 733.01 0 714.05 0 705.88 8.32 705.88 8.32 697.72 0 678.75 0 670.59 8.32 662.42 0 643.46 0 635.29 8.32 635.29 8.32 627.13 0 608.17 0 600 8.32 591.83 0 572.87 0 564.71 8.32 556.54 0 537.58 0 529.41 8.32 529.41 8.32 521.25 0 502.28 0 494.12 8.32 485.95 0 466.99 0 458.82 8.32 458.82 8.32 450.66 0 431.7 0 423.53 8.32 423.53 8.32 415.36 0 396.4 0 388.24 8.32 380.07 0 361.11 0 352.94 8.32 344.77 0 325.81 0 317.65 8.32 309.48 0 290.52 0 282.35 8.32 274.19 0 255.22 0 247.06 8.32 247.06 8.32 238.89 0 219.93 0 211.76 8.32 203.6 0 184.64 0 176.47 8.32 176.47 8.32 168.3 0 149.34 0 141.18 8.32 141.18 8.32 133.01 0 114.05 0 105.88 8.32 97.72 0 78.75 0 70.59 8.32 70.59 8.32 70.59 8.32 62.42 0 43.46 0 35.29 8.32 27.13 0 8.17 0 0 8.32 0 26.3 17.65 8.32 35.29 26.3 52.94 8.32 70.59 26.3 88.23 8.32 105.88 26.3 123.53 8.32 141.18 26.3 158.82 8.32 158.82 8.32 176.47 26.3 194.12 8.32 211.76 26.3 229.41 8.32 229.41 8.32 247.06 26.3 264.71 8.32 282.35 26.3 300 8.32 317.65 26.3 335.29 8.32 335.29 8.32 352.94 26.3 370.59 8.32 388.24 26.3 405.88 8.32 423.53 26.3 441.18 8.32 441.18 8.32 458.82 26.3 476.47 8.32 494.12 26.3 511.76 8.32 511.76 8.32 529.41 26.3 547.06 8.32 564.71 26.3 582.35 8.32 582.35 8.32 600 26.3 617.65 8.32 635.29 26.3 652.94 8.32 652.94 8.32 670.59 26.3 688.24 8.32 705.88 26.3 723.53 8.32 723.53 8.32 741.18 26.3 758.82 8.32 776.47 26.3 794.12 8.32 811.76 26.3 829.41 8.32 847.06 26.3 864.71 8.32 882.35 26.3 900 8.32 917.65 26.3 935.29 8.32 935.29 8.32 952.94 26.3 970.59 8.32 988.24 26.3 1005.88 8.32 1005.88 8.32 1023.53 26.3 1041.18 8.32 1058.82 26.3 1076.47 8.32 1076.47 8.32 1094.12 26.3 1111.77 8.32 1129.41 26.3 1147.06 8.32 1164.71 26.3 1182.35 8.32 1200 26.3 1200 26.3 1200 8.32 1200 8.32 1191.83 0"/><polygon class="cls-3" points="1182.35 170.15 1173.53 179.14 1164.71 188.13 1155.88 179.14 1147.06 170.15 1129.41 188.13 1111.77 170.15 1094.12 188.13 1094.12 188.13 1076.47 170.15 1058.82 188.13 1041.18 170.15 1023.53 188.13 1023.53 188.13 1005.88 170.15 988.24 188.13 988.24 188.13 970.59 170.15 952.94 188.13 935.29 170.15 917.65 188.13 917.65 188.13 900 170.15 882.35 188.13 864.71 170.15 847.06 188.13 829.41 170.15 811.76 188.13 811.76 188.13 794.12 170.15 776.47 188.13 758.82 170.15 741.18 188.13 741.18 188.13 723.53 170.15 705.88 188.13 705.88 188.13 688.24 170.15 670.59 188.13 652.94 170.15 635.29 188.13 635.29 188.13 617.65 170.15 600 188.13 582.35 170.15 573.53 179.14 564.71 188.13 555.88 179.14 547.06 170.15 529.41 188.13 529.41 188.13 511.76 170.15 494.12 188.13 476.47 170.15 458.82 188.13 458.82 188.13 441.18 170.15 423.53 188.13 423.53 188.13 405.88 170.15 388.24 188.13 370.59 170.15 352.94 188.13 335.29 170.15 317.65 188.13 300 170.15 282.35 188.13 264.71 170.15 247.06 188.13 247.06 188.13 229.41 170.15 211.76 188.13 194.12 170.15 176.47 188.13 176.47 188.13 158.82 170.15 141.18 188.13 141.18 188.13 123.53 170.15 105.88 188.13 88.23 170.15 70.59 188.13 70.59 188.13 52.94 170.15 35.29 188.13 17.65 170.15 0 188.13 0 206.11 17.65 188.13 35.29 206.11 52.94 188.13 70.59 206.11 88.23 188.13 105.88 206.11 123.53 188.13 141.18 206.11 158.82 188.13 158.82 188.13 158.82 188.13 176.47 206.11 194.12 188.13 211.76 206.11 229.41 188.13 229.41 188.13 229.41 188.13 247.06 206.11 264.71 188.13 282.35 206.11 300 188.13 317.65 206.11 335.29 188.13 335.29 188.13 335.29 188.13 352.94 206.11 370.59 188.13 388.24 206.11 405.88 188.13 423.53 206.11 441.18 188.13 441.18 188.13 441.18 188.13 458.82 206.11 476.47 188.13 494.12 206.11 511.76 188.13 511.76 188.13 511.76 188.13 529.41 206.11 547.06 188.13 564.71 206.11 582.35 188.13 582.35 188.13 582.35 188.13 600 206.11 617.65 188.13 635.29 206.11 652.94 188.13 652.94 188.13 652.94 188.13 670.59 206.11 688.24 188.13 705.88 206.11 723.53 188.13 723.53 188.13 723.53 188.13 741.18 206.11 758.82 188.13 776.47 206.11 794.12 188.13 811.76 206.11 829.41 188.13 847.06 206.11 864.71 188.13 882.35 206.11 900 188.13 917.65 206.11 935.29 188.13 935.29 188.13 935.29 188.13 952.94 206.11 970.59 188.13 988.24 206.11 1005.88 188.13 1005.88 188.13 1023.53 206.11 1041.18 188.13 1058.82 206.11 1076.47 188.13 1076.47 188.13 1076.47 188.13 1094.12 206.11 1111.77 188.13 1129.41 206.11 1147.06 188.13 1164.71 206.11 1182.35 188.13 1200 206.11 1200 206.11 1200 188.13 1200 188.13 1182.35 170.15"/><polygon class="cls-3" points="1182.35 242.07 1173.53 251.07 1164.71 260.06 1147.06 242.07 1129.41 260.06 1111.77 242.07 1094.12 260.06 1094.12 260.06 1076.47 242.07 1058.82 260.06 1041.18 242.07 1023.53 260.06 1023.53 260.06 1005.88 242.07 988.24 260.06 988.24 260.06 970.59 242.07 952.94 260.06 935.29 242.07 917.65 260.06 917.65 260.06 900 242.07 882.35 260.06 864.71 242.07 847.06 260.06 829.41 242.07 811.76 260.06 811.76 260.06 794.12 242.07 776.47 260.06 758.82 242.07 741.18 260.06 741.18 260.06 723.53 242.07 705.88 260.06 705.88 260.06 688.24 242.07 670.59 260.06 652.94 242.07 635.29 260.06 635.29 260.06 617.65 242.07 600 260.06 582.35 242.07 573.53 251.07 564.71 260.06 547.06 242.07 529.41 260.06 529.41 260.06 511.76 242.07 494.12 260.06 476.47 242.07 458.82 260.06 458.82 260.06 441.18 242.07 423.53 260.06 423.53 260.06 405.88 242.07 388.24 260.06 370.59 242.07 352.94 260.06 335.29 242.07 317.65 260.06 300 242.07 282.35 260.06 264.71 242.07 247.06 260.06 247.06 260.06 229.41 242.07 211.76 260.06 194.12 242.07 176.47 260.06 176.47 260.06 158.82 242.07 141.18 260.06 141.18 260.06 123.53 242.07 105.88 260.06 88.23 242.07 70.59 260.06 70.59 260.06 52.94 242.07 35.29 260.06 17.65 242.07 0 260.06 0 278.04 17.65 260.06 35.29 278.04 52.94 260.06 70.59 278.04 88.23 260.06 105.88 278.04 123.53 260.06 141.18 278.04 158.82 260.06 158.82 260.06 158.82 260.06 176.47 278.04 194.12 260.06 211.76 278.04 229.41 260.06 229.41 260.06 229.41 260.06 247.06 278.04 264.71 260.06 282.35 278.04 300 260.06 317.65 278.04 335.29 260.06 335.29 260.06 335.29 260.06 352.94 278.04 370.59 260.06 388.24 278.04 405.88 260.06 423.53 278.04 441.18 260.06 441.18 260.06 441.18 260.06 458.82 278.04 476.47 260.06 494.12 278.04 511.76 260.06 511.76 260.06 511.76 260.06 529.41 278.04 547.06 260.06 564.71 278.04 582.35 260.06 582.35 260.06 582.35 260.06 600 278.04 617.65 260.06 635.29 278.04 652.94 260.06 652.94 260.06 652.94 260.06 670.59 278.04 688.24 260.06 705.88 278.04 723.53 260.06 723.53 260.06 723.53 260.06 741.18 278.04 758.82 260.06 776.47 278.04 794.12 260.06 811.76 278.04 829.41 260.06 847.06 278.04 864.71 260.06 882.35 278.04 900 260.06 917.65 278.04 935.29 260.06 935.29 260.06 935.29 260.06 952.94 278.04 970.59 260.06 988.24 278.04 1005.88 260.06 1005.88 260.06 1023.53 278.04 1041.18 260.06 1058.82 278.04 1076.47 260.06 1076.47 260.06 1076.47 260.06 1094.12 278.04 1111.77 260.06 1129.41 278.04 1147.06 260.06 1164.71 278.04 1182.35 260.06 1200 278.04 1200 278.04 1200 260.06 1200 260.06 1182.35 242.07"/><polygon class="cls-3" points="1182.35 206.11 1173.53 215.1 1164.71 224.09 1147.06 206.11 1129.41 224.09 1111.77 206.11 1094.12 224.09 1094.12 224.09 1076.47 206.11 1058.82 224.09 1041.18 206.11 1023.53 224.09 1023.53 224.09 1005.88 206.11 988.24 224.09 988.24 224.09 970.59 206.11 952.94 224.09 935.29 206.11 917.65 224.09 917.65 224.09 900 206.11 882.35 224.09 864.71 206.11 847.06 224.09 829.41 206.11 811.76 224.09 811.76 224.09 794.12 206.11 776.47 224.09 758.82 206.11 741.18 224.09 741.18 224.09 723.53 206.11 705.88 224.09 705.88 224.09 688.24 206.11 670.59 224.09 652.94 206.11 635.29 224.09 635.29 224.09 617.65 206.11 600 224.09 582.35 206.11 573.53 215.1 564.71 224.09 547.06 206.11 529.41 224.09 529.41 224.09 511.76 206.11 494.12 224.09 476.47 206.11 458.82 224.09 458.82 224.09 441.18 206.11 423.53 224.09 423.53 224.09 405.88 206.11 388.24 224.09 370.59 206.11 352.94 224.09 335.29 206.11 317.65 224.09 300 206.11 282.35 224.09 264.71 206.11 247.06 224.09 247.06 224.09 229.41 206.11 211.76 224.09 194.12 206.11 176.47 224.09 176.47 224.09 158.82 206.11 141.18 224.09 141.18 224.09 123.53 206.11 105.88 224.09 88.23 206.11 70.59 224.09 70.59 224.09 52.94 206.11 35.29 224.09 17.65 206.11 0 224.09 0 242.07 17.65 224.09 35.29 242.07 52.94 224.09 70.59 242.07 88.23 224.09 105.88 242.07 123.53 224.09 141.18 242.07 158.82 224.09 158.82 224.09 176.47 242.07 194.12 224.09 211.76 242.07 229.41 224.09 229.41 224.09 247.06 242.07 264.71 224.09 282.35 242.07 300 224.09 317.65 242.07 335.29 224.09 335.29 224.09 335.29 224.09 352.94 242.07 370.59 224.09 388.24 242.07 405.88 224.09 423.53 242.07 441.18 224.09 441.18 224.09 458.82 242.07 476.47 224.09 494.12 242.07 511.76 224.09 511.76 224.09 529.41 242.07 547.06 224.09 564.71 242.07 582.35 224.09 582.35 224.09 600 242.07 617.65 224.09 635.29 242.07 652.94 224.09 652.94 224.09 670.59 242.07 688.24 224.09 705.88 242.07 723.53 224.09 723.53 224.09 741.18 242.07 758.82 224.09 776.47 242.07 794.12 224.09 811.76 242.07 829.41 224.09 847.06 242.07 864.71 224.09 882.35 242.07 900 224.09 917.65 242.07 935.29 224.09 935.29 224.09 935.29 224.09 952.94 242.07 970.59 224.09 988.24 242.07 1005.88 224.09 1005.88 224.09 1023.53 242.07 1041.18 224.09 1058.82 242.07 1076.47 224.09 1076.47 224.09 1094.12 242.07 1111.77 224.09 1129.41 242.07 1147.06 224.09 1164.71 242.07 1182.35 224.09 1200 242.07 1200 242.07 1200 224.09 1200 224.09 1182.35 206.11"/></g><path class="cls-4" d="M371.11,146.79l-22,22a2.13,2.13,0,0,1-1.62.59v14.11a2,2,0,0,0,1.13-.56l22.24-22.23a2.1,2.1,0,0,1,1.59-.59V146.2a2.08,2.08,0,0,0-1.37.59"/><path class="cls-4" d="M401.45,179.22h-31.1a2.11,2.11,0,0,1-1.56-.72l-10.38,9.59a2.06,2.06,0,0,0,1.6.77h31.44a2.09,2.09,0,0,1,1.48.63l10-9.67a2.06,2.06,0,0,0-1.45-.6"/><path class="cls-4" d="M400,223.58l-22-22a2,2,0,0,1-.55-1.91H363.24a2.07,2.07,0,0,0,.6,1.44l22.24,22.23a2.1,2.1,0,0,1,.6,1.45h13.86a1.93,1.93,0,0,0-.57-1.21"/><path class="cls-4" d="M357.91,212.47V243.9a2,2,0,0,1-.7,1.53l9.81,9.84a2.06,2.06,0,0,0,.53-1.38V222.82a2.06,2.06,0,0,1,.51-1.34L358.51,211a2,2,0,0,0-.6,1.46"/><path class="cls-4" d="M345.66,216.31l-22.23,22.23a2,2,0,0,1-1.35.59V253a2,2,0,0,0,1.12-.57l22-22a2,2,0,0,1,1.52-.59V215.74a2.17,2.17,0,0,0-1.06.57"/><path class="cls-4" d="M334.31,210.37H302.86a2.05,2.05,0,0,1-1.54-.7l-9.83,9.82a2.09,2.09,0,0,0,1.38.54H324a2.06,2.06,0,0,1,1.47.62l10.24-9.76a2.07,2.07,0,0,0-1.36-.52"/><path class="cls-4" d="M331.05,199.44a2.06,2.06,0,0,0-.59-1.3l-22.22-22.25a2.09,2.09,0,0,1-.48-2.18H293.82a2,2,0,0,0,.53,1.95l22,22a2.07,2.07,0,0,1,.57,1.8h14.15"/><path class="cls-4" d="M336.41,186.76V155.33a2,2,0,0,1,.75-1.57l-9.83-9.85a2,2,0,0,0-.58,1.42v31.1a2.06,2.06,0,0,1-.53,1.38l9.66,10.31a2.08,2.08,0,0,0,.53-1.36"/><path class="cls-5" d="M346.21,168.78,342.43,165c-.8-.8-1.46-.53-1.46.61V176.1a5.76,5.76,0,0,0,1.46,3.52l3.29,3.3a2.07,2.07,0,0,0,1.8.56V169.37a2.05,2.05,0,0,1-1.31-.59"/><path class="cls-5" d="M368.28,177.15V171.8c0-1.14-.66-1.41-1.45-.6l-7.42,7.41a5.7,5.7,0,0,0-1.46,3.53v4.66a2,2,0,0,0,.46,1.29l10.38-9.59a2.09,2.09,0,0,1-.51-1.35"/><path class="cls-5" d="M378,198.66l3.78-3.79c.8-.8.53-1.45-.6-1.45H370.67a5.77,5.77,0,0,0-3.53,1.45l-3.3,3.31a2.06,2.06,0,0,0-.6,1.49h14.19a2,2,0,0,1,.55-1"/><path class="cls-5" d="M375.56,219.29l-7.4-7.43a5.76,5.76,0,0,0-3.52-1.46H360a2.09,2.09,0,0,0-1.46.61l9.55,10.47a2.08,2.08,0,0,1,1.57-.73H375c1.13,0,1.41-.66.6-1.46"/><path class="cls-5" d="M351.88,219.59l-3.28-3.28a2.13,2.13,0,0,0-1.88-.57v14.11a2.1,2.1,0,0,1,1.4.59l3.77,3.77c.8.8,1.46.53,1.46-.6V223.12a5.74,5.74,0,0,0-1.47-3.53"/><path class="cls-5" d="M335.67,210.89l-10.24,9.76a2,2,0,0,1,.6,1.45v5.31c0,1.13.66,1.4,1.47.6l7.41-7.4a5.74,5.74,0,0,0,1.47-3.53v-4.64a2.08,2.08,0,0,0-.71-1.55"/><path class="cls-5" d="M316.9,199.44a2.08,2.08,0,0,1-.57,1.12l-3.76,3.77c-.81.81-.54,1.47.6,1.47h10.48a5.71,5.71,0,0,0,3.53-1.47l3.28-3.27a2,2,0,0,0,.59-1.62H316.9"/><path class="cls-5" d="M326.22,177.81a2.08,2.08,0,0,1-1.54.69h-5.34c-1.13,0-1.4.65-.6,1.46l7.42,7.4a5.77,5.77,0,0,0,3.53,1.45h4.65a2.08,2.08,0,0,0,1.54-.69l-9.66-10.31"/><path class="cls-6" d="M397.93,170.7,374,146.79a2,2,0,0,0-1.55-.59v13.9a2.13,2.13,0,0,1,1.33.59l10,10a5.76,5.76,0,0,0,3.52,1.46l10,0c1.14,0,1.41-.66.61-1.46"/><path class="cls-6" d="M402.9,179.82l-10,9.67a2.09,2.09,0,0,1,.59,1.45v14.17A5.54,5.54,0,0,0,395,208.6l7,6.77c.82.8,1.49.51,1.49-.63V181.29a2.05,2.05,0,0,0-.61-1.47"/><path class="cls-6" d="M386.68,224.79a2.06,2.06,0,0,1-.6,1.48l-10,10a5.74,5.74,0,0,0-1.47,3.54l0,10c0,1.14.65,1.41,1.46.6L400,226.51a2,2,0,0,0,.57-1.72H386.68"/><path class="cls-6" d="M355.84,246H341.68a5.58,5.58,0,0,0-3.5,1.49l-6.79,7c-.79.83-.51,1.49.63,1.49h33.47a2,2,0,0,0,1.53-.69l-9.81-9.84a2,2,0,0,1-1.37.54"/><path class="cls-6" d="M320.5,238.54l-10-10A5.83,5.83,0,0,0,307,227l-10.1,0c-1.14,0-1.41.65-.61,1.45l24,24a2,2,0,0,0,1.79.57V239.13a2,2,0,0,1-1.58-.59"/><path class="cls-6" d="M300.79,208.31V194.13a5.6,5.6,0,0,0-1.49-3.51l-7-6.77c-.82-.79-1.48-.51-1.48.62V218a2.06,2.06,0,0,0,.68,1.52l9.83-9.82a2.06,2.06,0,0,1-.53-1.36"/><path class="cls-6" d="M308.24,173l10-10a5.62,5.62,0,0,0,1.43-3.51l-.17-9.79c0-1.13-.7-1.4-1.49-.6l-23.66,23.68a2,2,0,0,0-.53,1h13.94a2.05,2.05,0,0,1,.48-.74"/><path class="cls-6" d="M362.3,143.26H328.82a2.06,2.06,0,0,0-1.49.65l9.83,9.85a2,2,0,0,1,1.32-.5h14.16a5.64,5.64,0,0,0,3.5-1.48l6.79-7c.78-.82.51-1.49-.63-1.49"/><path class="cls-6" d="M398.61,246.28a4.84,4.84,0,1,1,0,9.68,4.84,4.84,0,1,1,0-9.68h0m-.1,1.1a3.74,3.74,0,1,0,3.62,3.74,3.61,3.61,0,0,0-3.62-3.74Zm-.62,6.13H396.6v-4.63a9.63,9.63,0,0,1,1.91-.17,2.73,2.73,0,0,1,1.73.37,1.1,1.1,0,0,1,.49,1,1.24,1.24,0,0,1-1,1.08v.07a1.39,1.39,0,0,1,.89,1.18,5.1,5.1,0,0,0,.32,1.12h-1.38a3.53,3.53,0,0,1-.35-1.08.74.74,0,0,0-.86-.68h-.45Zm0-2.64h.47c.54,0,.94-.21.94-.64s-.27-.64-.89-.64c-.23,0-.4,0-.52,0Z"/><path class="cls-3" d="M455.37,215.06c-11.3,0-18-7.12-18-18.44,0-12.66,7.88-18.77,17.9-18.77A27.1,27.1,0,0,1,466,179.93l2.68-10.05c-2.26-1.17-7.28-2.51-13.89-2.51C437.72,167.37,424,178,424,197.3c0,16.18,10,28.41,29.54,28.41,6.77,0,12.13-1.35,14.38-2.44l-1.84-10.05a30.36,30.36,0,0,1-10.71,1.84"/><path class="cls-3" d="M490.79,182.87c-13.23,0-21.92,8.47-21.92,21.71S478.08,225.7,490,225.7h.08c10.88,0,21.51-6.88,21.51-21.79,0-12.41-8.37-21-20.83-21m-.51,33.68h-.09c-5.34,0-8.28-5.26-8.28-12.22,0-6.11,2.34-12.33,8.37-12.33,5.78,0,8.12,6.22,8.12,12.25C498.4,211.62,495.3,216.55,490.28,216.55Z"/><path class="cls-3" d="M613.28,182.87a15.69,15.69,0,0,0-7.76,2,17.79,17.79,0,0,0-5.36,5H600c-1.73-4.3-5.84-7-11.21-7a14.14,14.14,0,0,0-12.37,6.55l-.75.89a12.39,12.39,0,0,0-11.83-7.44,15.74,15.74,0,0,0-7.78,2,17.79,17.79,0,0,0-5.36,5h-.16c-1.75-4.3-5.86-7-11.21-7a14.18,14.18,0,0,0-12.39,6.55h-.24l-.51-5.63H515.38c.17,3.69.33,8,.33,13.08v27.91H528.1V201a8.88,8.88,0,0,1,.5-3.26,6.5,6.5,0,0,1,5.94-4.54c4.1,0,6,3.53,6,8.63v23h12.38v-24a13.4,13.4,0,0,1,.41-3.19,6.32,6.32,0,0,1,5.93-4.44c3.81,0,5.71,3,6,8.11v23.49h12.44V200.64c0-.24,0-.46,0-.7a6.82,6.82,0,0,1,.47-2.22c.75-2,2.68-4.54,5.93-4.54,4.1,0,5.93,3.53,5.93,8.63v23h12.39v-24a12.92,12.92,0,0,1,.43-3.19,6.31,6.31,0,0,1,5.92-4.44c4.11,0,6,3.43,6,9.39v22.21H627.1V200.64c0-12.23-5.94-17.77-13.82-17.77"/><path class="cls-3" d="M670.35,183.79H657.63v24.4a7.1,7.1,0,0,1-6.87,7.2c-4.52,0-6.44-3.61-6.44-9.53V183.79H631.61v24.07c0,12.62,6,17.84,14.39,17.84A14.62,14.62,0,0,0,658.8,219H659l.6,5.77h11c-.16-3.44-.32-7.79-.32-13.16V183.79"/><path class="cls-3" d="M699.76,182.87a14.68,14.68,0,0,0-12.62,6.62h-.27l-.57-5.7h-11c.16,3.69.35,8,.35,13.08v27.91h12.7V201.14a9.29,9.29,0,0,1,.42-3.18,7,7,0,0,1,6.53-4.78c4.61,0,6.44,3.61,6.44,8.9v22.7h12.7V200.56c0-12.08-6.26-17.69-14.63-17.69"/><path class="cls-3" d="M726,164.86c-4.37,0-7.2,2.93-7.2,6.78a6.66,6.66,0,0,0,7,6.8h.08c4.45,0,7.2-3,7.2-6.8a6.66,6.66,0,0,0-7.09-6.78"/><path class="cls-3" d="M794.08,183.79l-5,20.12c-.62,2.36-1.29,5.43-1.86,7.63H787c-.52-2.2-1.35-5.21-2-7.63l-6.11-20.12H754.92V172.65l-12.46,3.44v7.7H719.57v41h12.7v-31.6h10.19V210c0,5.79,1.16,9.74,3.5,12.15a13.6,13.6,0,0,0,9.64,3.53,26.62,26.62,0,0,0,8.19-1.09l-.08-9.63a16.91,16.91,0,0,1-3.77.33c-3.77,0-5-2.25-5-7.21V193.18h13.55l11.29,28.07a5.58,5.58,0,0,1,.49,2.09,3.54,3.54,0,0,1-.65,1.86,14.66,14.66,0,0,1-5.28,5.11,20,20,0,0,1-5.52,2.17l2.69,10.73a22.42,22.42,0,0,0,12.29-5.61c4.61-4.11,8.54-10.58,14.38-26.82l9.54-27H794.08"/><polyline class="cls-3" points="523.19 252.12 523.19 268.53 540.51 268.53 540.51 252.12 547.99 252.12 547.99 293.09 540.51 293.09 540.51 275.03 523.19 275.03 523.19 293.09 515.71 293.09 515.71 252.12 523.19 252.12"/><path class="cls-3" d="M560.21,280.39c.18,5.35,4.31,7.65,9.12,7.65a24.36,24.36,0,0,0,8.21-1.33l1.09,5.11a26.86,26.86,0,0,1-10.33,1.87c-9.61,0-15.26-5.89-15.26-14.95,0-8.21,5-15.92,14.47-15.92s12.76,7.9,12.76,14.39a18.9,18.9,0,0,1-.24,3.18H560.21m13-5.24c.06-2.73-1.16-7.23-6.15-7.23-4.61,0-6.57,4.19-6.87,7.23Z"/><path class="cls-3" d="M608.15,286a39.38,39.38,0,0,0,.49,7.11H601.9l-.56-3.29h-.17a10.81,10.81,0,0,1-8.76,3.95c-5.95,0-9.3-4.31-9.3-8.81,0-7.42,6.62-11.24,17.57-11.18v-.49c0-1.95-.79-5.16-6-5.16a15.77,15.77,0,0,0-8,2.18l-1.45-4.86a21.3,21.3,0,0,1,10.7-2.61c9.48,0,12.21,6,12.21,12.51V286m-7.29-7.36c-5.28-.07-10.33,1-10.33,5.53a3.92,3.92,0,0,0,4.25,4.25,6.14,6.14,0,0,0,5.9-4.07,5.07,5.07,0,0,0,.18-1.64Z"/><rect class="cls-3" x="614.83" y="249.93" width="7.49" height="43.16"/><path class="cls-3" d="M637.81,255.88v7.6h7.11v5.6h-7.11v13.06c0,3.65,1,5.47,3.82,5.47a10,10,0,0,0,2.93-.3l.12,5.66a16.65,16.65,0,0,1-5.42.78,8.56,8.56,0,0,1-6.43-2.42c-1.65-1.71-2.38-4.44-2.38-8.34V269.08h-4.19v-5.6h4.19V258l7.36-2.07"/><path class="cls-3" d="M649.35,249.93h7.48v17.56H657a9.83,9.83,0,0,1,3.7-3.33,10.5,10.5,0,0,1,5.17-1.34c5,0,10.34,3.33,10.34,12.82v17.45h-7.48V276.43c0-4.25-1.59-7.53-5.71-7.53a6.24,6.24,0,0,0-5.84,4.19,6.79,6.79,0,0,0-.3,2.24v17.76h-7.48V249.93"/><path class="cls-3" d="M694.5,293.09v-41h8.57l10.58,17.57a118.5,118.5,0,0,1,7,13.73h.13a166.47,166.47,0,0,1-.67-17V252.12H727v41h-7.79L708.54,275a140.79,140.79,0,0,1-7.29-14.1L701,261c.31,5.29.43,10.7.43,17.44v14.66H694.5"/><path class="cls-3" d="M739.41,280.39c.19,5.35,4.32,7.65,9.13,7.65a24.23,24.23,0,0,0,8.19-1.33l1.11,5.11a27,27,0,0,1-10.34,1.87c-9.6,0-15.26-5.89-15.26-14.95,0-8.21,5-15.92,14.47-15.92s12.77,7.9,12.77,14.39a18.67,18.67,0,0,1-.25,3.18H739.41m13-5.24c.06-2.73-1.15-7.23-6.14-7.23-4.62,0-6.56,4.19-6.87,7.23Z"/><path class="cls-3" d="M772.84,255.88v7.6H780v5.6h-7.11v13.06c0,3.65,1,5.47,3.83,5.47a9.83,9.83,0,0,0,2.91-.3l.13,5.66a16.63,16.63,0,0,1-5.41.78,8.6,8.6,0,0,1-6.45-2.42c-1.64-1.71-2.36-4.44-2.36-8.34V269.08h-4.2v-5.6h4.2V258l7.35-2.07"/><path class="cls-3" d="M789.31,263.48l3,13.44c.74,3.16,1.41,6.38,1.95,9.6h.13c.6-3.22,1.57-6.49,2.36-9.55l3.89-13.49h6.08l3.72,13.14c.9,3.46,1.69,6.68,2.36,9.9H813c.43-3.22,1.16-6.44,1.94-9.9l3.29-13.14h7.35l-9.3,29.61h-6.92l-3.53-12a91.87,91.87,0,0,1-2.25-9.48h-.12a92.52,92.52,0,0,1-2.25,9.48l-3.77,12h-7l-8.75-29.61h7.66"/><path class="cls-3" d="M856.47,278c0,10.88-7.66,15.74-15.2,15.74-8.33,0-14.83-5.71-14.83-15.26,0-9.72,6.38-15.67,15.31-15.67S856.47,269,856.47,278m-22.31.3c0,5.72,2.86,10,7.35,10,4.26,0,7.24-4.13,7.24-10.15,0-4.61-2.07-10-7.18-10C836.29,268.23,834.16,273.39,834.16,278.31Z"/><path class="cls-3" d="M861.11,273c0-4-.06-6.93-.24-9.55h6.45l.3,5.6h.18a8.86,8.86,0,0,1,8.14-6.26,7.94,7.94,0,0,1,1.77.17v7a12,12,0,0,0-2.25-.19,6.58,6.58,0,0,0-6.68,5.66,13.12,13.12,0,0,0-.18,2.24v15.39h-7.49V273"/><path class="cls-3" d="M889,276.5h.12c.73-1.17,1.59-2.44,2.31-3.47l7.24-9.55h9l-11,12.1,12.51,17.51H900L891.51,280l-2.5,3v10.1h-7.47V249.93H889V276.5"/><path class="cls-6" d="M313.17,433.23h-8.43V427.3h24v5.93h-8.55v25.3h-7.06Z"/><path class="cls-6" d="M336.43,450.51l-2.2,8h-7.31l9.54-31.23h9.24l9.72,31.23h-7.61l-2.4-8Zm7.93-5.26-1.94-6.64c-.54-1.84-1.09-4.18-1.57-6h-.1c-.46,1.84-.93,4.21-1.43,6l-1.87,6.63Z"/><path class="cls-6" d="M359.59,427.3h7v13.8h.12c.68-1.18,1.43-2.31,2.14-3.4l7.08-10.4h8.67l-10.33,13.29,10.88,17.94h-8.22l-7.68-13.46-2.66,3.26v10.2h-7Z"/><path class="cls-6" d="M406.59,445.32H395.1v7.43H408v5.78H388V427.3h19.24v5.78H395.1v6.51h11.49Z"/><path class="cls-6" d="M426.36,433.23h-8.43V427.3h24v5.93h-8.55v25.3h-7.06Z"/><path class="cls-6" d="M452.78,427.3v12h11.65v-12h7.06v31.23h-7.06V445.46H452.78v13.07h-7.06V427.3Z"/><path class="cls-6" d="M496.2,445.32H484.71v7.43h12.85v5.78H477.65V427.3h19.24v5.78H484.71v6.51H496.2Z"/><path class="cls-6" d="M511.75,427.3h19.08v5.78h-12v7.16h11.24V446H518.81v12.56h-7.06Z"/><path class="cls-6" d="M536.17,427.73a58.65,58.65,0,0,1,9.38-.68c4.64,0,7.88.71,10.11,2.48a7.91,7.91,0,0,1,2.89,6.55,8.29,8.29,0,0,1-5.51,7.67v.15c2.16.88,3.38,3,4.17,5.82,1,3.53,1.91,7.6,2.52,8.81H552.5a39.29,39.29,0,0,1-2.15-7.28c-.87-3.9-2.18-4.94-5.09-5h-2.09v12.26h-7Zm7,13.43h2.76c3.5,0,5.6-1.79,5.6-4.5,0-2.86-2-4.32-5.19-4.34a14.15,14.15,0,0,0-3.17.24Z"/><path class="cls-6" d="M582.2,445.32H570.71v7.43h12.84v5.78H563.64V427.3h19.24v5.78H570.71v6.51H582.2Z"/><path class="cls-6" d="M606.94,445.32H595.45v7.43H608.3v5.78H588.39V427.3h19.24v5.78H595.45v6.51h11.49Z"/><path class="cls-6" d="M629.73,450.51l-2.21,8h-7.3l9.53-31.23H639l9.72,31.23h-7.61l-2.4-8Zm7.93-5.26-1.94-6.64c-.54-1.84-1.09-4.18-1.57-6h-.1c-.46,1.84-.93,4.21-1.43,6l-1.87,6.63Z"/><path class="cls-6" d="M653.11,451.24a17.38,17.38,0,0,0,7.83,2c3.25,0,5-1.34,5-3.4s-1.49-3.05-5.23-4.36c-5.22-1.85-8.62-4.69-8.62-9.25,0-5.33,4.47-9.38,11.82-9.38a18.56,18.56,0,0,1,8,1.57l-1.56,5.67a15,15,0,0,0-6.52-1.49c-3.08,0-4.54,1.43-4.54,3,0,2,1.73,2.87,5.78,4.4,5.53,2.06,8.09,4.93,8.09,9.35,0,5.21-4,9.69-12.59,9.69a20.16,20.16,0,0,1-8.82-1.94Z"/><path class="cls-6" d="M678.13,451.24a17.38,17.38,0,0,0,7.83,2c3.25,0,5-1.34,5-3.4s-1.49-3.05-5.23-4.36c-5.21-1.85-8.62-4.69-8.62-9.25,0-5.33,4.47-9.38,11.82-9.38a18.56,18.56,0,0,1,8,1.57l-1.56,5.67a15,15,0,0,0-6.52-1.49c-3.08,0-4.54,1.43-4.54,3,0,2,1.73,2.87,5.78,4.4,5.53,2.06,8.09,4.93,8.09,9.35,0,5.21-4,9.69-12.59,9.69a20.16,20.16,0,0,1-8.82-1.94Z"/><path class="cls-6" d="M721.48,445.32H710v7.43h12.84v5.78H702.92V427.3h19.25v5.78H710v6.51h11.49Z"/><path class="cls-6" d="M727.9,451.24a17.38,17.38,0,0,0,7.83,2c3.24,0,5-1.34,5-3.4s-1.49-3.05-5.23-4.36c-5.21-1.85-8.62-4.69-8.62-9.25,0-5.33,4.48-9.38,11.82-9.38a18.56,18.56,0,0,1,8,1.57l-1.56,5.67a15,15,0,0,0-6.52-1.49c-3.07,0-4.54,1.43-4.54,3,0,2,1.73,2.87,5.78,4.4,5.53,2.06,8.09,4.93,8.09,9.35,0,5.21-4,9.69-12.59,9.69a20.16,20.16,0,0,1-8.82-1.94Z"/><path class="cls-6" d="M752.92,451.24a17.38,17.38,0,0,0,7.83,2c3.24,0,5-1.34,5-3.4s-1.49-3.05-5.23-4.36c-5.21-1.85-8.61-4.69-8.61-9.25,0-5.33,4.47-9.38,11.81-9.38a18.65,18.65,0,0,1,8,1.57l-1.57,5.67a14.92,14.92,0,0,0-6.52-1.49c-3.07,0-4.54,1.43-4.54,3,0,2,1.73,2.87,5.78,4.4,5.53,2.06,8.09,4.93,8.09,9.35,0,5.21-4,9.69-12.59,9.69a20.16,20.16,0,0,1-8.82-1.94Z"/><path class="cls-6" d="M804.11,446.59c-.15-3.79-.29-8.29-.28-12.87h-.12c-1,4-2.31,8.44-3.49,12.12L796.4,458h-5.49L787.54,446c-1-3.68-2-8.11-2.82-12.23h-.09c-.16,4.25-.33,9.07-.52,13l-.58,11.85H777l2-31.23h9.42l3,10.44c1,3.58,2,7.5,2.65,11.16h.15c.86-3.61,1.91-7.73,3-11.21l3.32-10.39h9.24l1.68,31.23h-6.87Z"/><path class="cls-6" d="M835.46,445.32H824v7.43h12.85v5.78H816.91V427.3h19.24v5.78H824v6.51h11.49Z"/><path class="cls-6" d="M841.65,458.53V427.3h8.23l6.48,11.45a88.43,88.43,0,0,1,5.1,10.72l.12,0A125,125,0,0,1,861,436.4v-9.1h6.48v31.23h-7.4l-6.69-12a111.77,111.77,0,0,1-5.43-11h-.16c.22,4.14.31,8.56.31,13.66v9.39Z"/><path class="cls-6" d="M879.65,433.23h-8.43V427.3h24v5.93h-8.55v25.3h-7.06Z"/><rect class="cls-7" x="282.35" y="405.12" width="635.29" height="79.62" rx="2.7"/></svg>