<svg id="Layer_1" data-name="Layer 1" xmlns="http://www.w3.org/2000/svg" viewBox="0 0 1200 628"><defs><style>.cls-1{fill:#fff;}.cls-2{fill:#f1b533;}</style></defs><path class="cls-1" d="M80,497.63l0-3.35,3.15-.68,11.76-33.28h7.84l11.74,33.28,3.4.68v3.35H102v-3.35l4-.68-1.83-6H90.86l-1.73,6,4,.66v3.35ZM96.5,468.08,92,483.83h11l-4.81-15.75-.85-3.56Z"/><path class="cls-1" d="M134.79,496.06V489.2h4.49l1.27,3.81a2.59,2.59,0,0,0,.67.64,5.11,5.11,0,0,0,1.07.56,9.16,9.16,0,0,0,1.41.4,7.84,7.84,0,0,0,1.63.16,5.77,5.77,0,0,0,2-.29,3.57,3.57,0,0,0,1.23-.75,2.32,2.32,0,0,0,.64-1,4.11,4.11,0,0,0,.17-1.11,3,3,0,0,0-.52-1.77,5.23,5.23,0,0,0-1.49-1.37,15.32,15.32,0,0,0-2.34-1.21L142,486a17.86,17.86,0,0,1-3-1.53,10.25,10.25,0,0,1-2.28-1.89,7.48,7.48,0,0,1-2-5.25,7.26,7.26,0,0,1,.72-3.21,7.13,7.13,0,0,1,2.14-2.56,10.84,10.84,0,0,1,3.51-1.71,17,17,0,0,1,4.86-.62,18.9,18.9,0,0,1,2.87.19q1.26.19,2.28.45c.69.18,1.31.35,1.88.54a12.72,12.72,0,0,0,1.66.43v6.74l-4.24-.08-1.15-3.24a3.35,3.35,0,0,0-1.3-1.09,5.17,5.17,0,0,0-2.41-.55,5.79,5.79,0,0,0-1.85.25,3.29,3.29,0,0,0-1.19.65,2.55,2.55,0,0,0-.65.92,2.74,2.74,0,0,0-.19,1,3.26,3.26,0,0,0,.65,2.09A5.62,5.62,0,0,0,144,478.9a14.34,14.34,0,0,0,2.2,1c.8.28,1.56.59,2.27.91,1.08.48,2.1,1,3.08,1.51a12.39,12.39,0,0,1,2.6,1.84,8.12,8.12,0,0,1,1.81,2.43,7.52,7.52,0,0,1,.67,3.28,7.72,7.72,0,0,1-.7,3.3,7,7,0,0,1-2.1,2.63,10.23,10.23,0,0,1-3.51,1.76,17,17,0,0,1-4.95.64,21.37,21.37,0,0,1-3.53-.27c-1.06-.18-2-.39-2.9-.62s-1.65-.48-2.33-.71S135.29,496.18,134.79,496.06Z"/><path class="cls-1" d="M160.3,497.63v-3.28l3.56-.46v-18.8l-3.29-1v-3.66l9-1.2h.12l1.78,1.05v23.64l3.54.48v3.28Zm6.49-32.57a3.5,3.5,0,0,1-1.52-.32,3.31,3.31,0,0,1-1.13-.84,3.52,3.52,0,0,1-.68-1.25,4.79,4.79,0,0,1-.23-1.52,6.17,6.17,0,0,1,.25-1.8,4.19,4.19,0,0,1,.8-1.47,3.73,3.73,0,0,1,1.33-1,4.41,4.41,0,0,1,1.84-.36h0a4.12,4.12,0,0,1,1.72.33,3.53,3.53,0,0,1,1.93,2.13,4.94,4.94,0,0,1,.23,1.49,5.93,5.93,0,0,1-.27,1.82,4.08,4.08,0,0,1-.82,1.47,3.66,3.66,0,0,1-1.42,1,5.22,5.22,0,0,1-2,.36Z"/><path class="cls-1" d="M178.66,497.63v-3.18l3.05-.56v-18.8l-3.32-1v-3.69l8.64-1.2h.12l1.3,1.05v2.91a11.42,11.42,0,0,1,2-1.47,17.6,17.6,0,0,1,2.54-1.24,18.91,18.91,0,0,1,2.77-.86,12.33,12.33,0,0,1,2.68-.31,9.43,9.43,0,0,1,4.47.9,5.75,5.75,0,0,1,2.52,2.88,11.79,11.79,0,0,1,1.79-1.28,18,18,0,0,1,2.45-1.22,21.14,21.14,0,0,1,2.82-.92,12.13,12.13,0,0,1,2.87-.36,10.83,10.83,0,0,1,3.83.58,5.21,5.21,0,0,1,2.47,1.91,8.61,8.61,0,0,1,1.32,3.43,28.77,28.77,0,0,1,.39,5.14v13.57l3.44.56v3.18H213.28v-3.18l2.56-.56V480.54a20.48,20.48,0,0,0-.21-3.19,6,6,0,0,0-.69-2.11,2.87,2.87,0,0,0-1.32-1.17,5.09,5.09,0,0,0-2.08-.37,6.22,6.22,0,0,0-1.34.17,15.21,15.21,0,0,0-1.46.43,15,15,0,0,0-1.42.57,10.89,10.89,0,0,0-1.2.64,17.69,17.69,0,0,1,.27,2.23c.05.81.07,1.68.07,2.63v13.54l3.25.54v3.18H196v-3.18l2.93-.54V480.27a18.84,18.84,0,0,0-.2-2.92,5.46,5.46,0,0,0-.67-2,2.9,2.9,0,0,0-1.29-1.16,4.8,4.8,0,0,0-2.06-.38,7.54,7.54,0,0,0-1.53.17,13.11,13.11,0,0,0-1.55.43,9.83,9.83,0,0,0-1.39.58,7.84,7.84,0,0,0-1.08.67v18.24l3.3.56v3.18Z"/><path class="cls-1" d="M229.24,506.63l3.67-.61V475.09l-3.33-1v-3.69l8.75-1.2h.12l1.24,1.05v2.59a11.92,11.92,0,0,1,1.44-1.38,10,10,0,0,1,1.86-1.18,11.41,11.41,0,0,1,2.24-.83,10.61,10.61,0,0,1,2.64-.32,11.49,11.49,0,0,1,4.21.76,8.64,8.64,0,0,1,3.43,2.4,11.7,11.7,0,0,1,2.31,4.26,20.71,20.71,0,0,1,.84,6.3,17.92,17.92,0,0,1-1,6,14.3,14.3,0,0,1-2.84,4.87,13,13,0,0,1-4.52,3.26,14.57,14.57,0,0,1-6,1.19c-.41,0-.81,0-1.21-.05s-.78-.07-1.15-.12l-1-.15c-.29-.05-.53-.1-.71-.15l.15,4.06V506l4.83.61v3.11h-16Zm15.53-33.08a6.18,6.18,0,0,0-2.61.53,5.45,5.45,0,0,0-1.76,1.18v18.48a3.35,3.35,0,0,0,1.34.82,6.24,6.24,0,0,0,2.25.36,5.7,5.7,0,0,0,2.5-.58,5.19,5.19,0,0,0,2.06-1.89A11,11,0,0,0,250,489a23.91,23.91,0,0,0,.59-5.27,21.53,21.53,0,0,0-.36-4.69,9.79,9.79,0,0,0-1.16-3.15,4.71,4.71,0,0,0-1.84-1.77A5.36,5.36,0,0,0,244.77,473.55Z"/><path class="cls-1" d="M261.79,497.63v-3.28l3.54-.48v-32.6l-3.64-.61v-2.85l9.55-1.2h.07l1.54,1.15v36.11l3.68.48v3.28Z"/><path class="cls-1" d="M292.5,498.19a14.76,14.76,0,0,1-5.92-1.08,10.77,10.77,0,0,1-4.08-3,12.29,12.29,0,0,1-2.35-4.58,21,21,0,0,1-.76-5.81,18.18,18.18,0,0,1,1-6.11,13.12,13.12,0,0,1,2.73-4.59,11.61,11.61,0,0,1,4.22-2.89,14.36,14.36,0,0,1,5.47-1q10.13,0,10.57,9.89c0,1.13,0,2.14,0,3a14.12,14.12,0,0,1-.26,2.28H287.13a15.12,15.12,0,0,0,.71,4.13,7.94,7.94,0,0,0,1.54,2.78,5.57,5.57,0,0,0,2.25,1.57,8.27,8.27,0,0,0,2.87.48,13,13,0,0,0,2.32-.19,14.85,14.85,0,0,0,2-.49,11,11,0,0,0,1.66-.66,12,12,0,0,0,1.28-.71l1.27,3a9.21,9.21,0,0,1-1.69,1.33,16.64,16.64,0,0,1-2.5,1.28,19.79,19.79,0,0,1-3,1A14.13,14.13,0,0,1,292.5,498.19Zm-.66-25.78a4.54,4.54,0,0,0-1.77.34,3.35,3.35,0,0,0-1.44,1.29,8.71,8.71,0,0,0-1,2.65,24.34,24.34,0,0,0-.5,4.38h8.77c0-.08,0-.19,0-.34l0-.46c0-.16,0-.32,0-.47v-.31a19.79,19.79,0,0,0-.17-2.53,7.92,7.92,0,0,0-.63-2.28,4.28,4.28,0,0,0-1.24-1.64A3.18,3.18,0,0,0,291.84,472.41Z"/><path class="cls-1" d="M323.6,496.06V489.2h4.5l1.27,3.81a2.59,2.59,0,0,0,.67.64,5.11,5.11,0,0,0,1.07.56,9.35,9.35,0,0,0,1.4.4,8,8,0,0,0,1.64.16,5.81,5.81,0,0,0,2-.29,3.67,3.67,0,0,0,1.23-.75,2.41,2.41,0,0,0,.64-1,4.11,4.11,0,0,0,.17-1.11,3,3,0,0,0-.53-1.77,5.1,5.1,0,0,0-1.49-1.37,15.18,15.18,0,0,0-2.33-1.21l-3-1.27a17.86,17.86,0,0,1-3-1.53,10.25,10.25,0,0,1-2.28-1.89,7.73,7.73,0,0,1-1.46-2.34,7.86,7.86,0,0,1-.51-2.91,7.26,7.26,0,0,1,.72-3.21,7.13,7.13,0,0,1,2.14-2.56,10.84,10.84,0,0,1,3.51-1.71,17,17,0,0,1,4.86-.62,19,19,0,0,1,2.87.19q1.26.19,2.28.45c.69.18,1.31.35,1.88.54a12.72,12.72,0,0,0,1.66.43v6.74l-4.25-.08-1.14-3.24a3.35,3.35,0,0,0-1.3-1.09,5.17,5.17,0,0,0-2.41-.55,5.79,5.79,0,0,0-1.85.25,3.29,3.29,0,0,0-1.19.65,2.43,2.43,0,0,0-.65.92,2.75,2.75,0,0,0-.2,1,3.21,3.21,0,0,0,.66,2.09,5.62,5.62,0,0,0,1.66,1.38,14.34,14.34,0,0,0,2.2,1c.8.28,1.55.59,2.27.91,1.08.48,2.1,1,3.08,1.51a12.65,12.65,0,0,1,2.6,1.84,8.09,8.09,0,0,1,1.8,2.43,7.38,7.38,0,0,1,.68,3.28,7.87,7.87,0,0,1-.7,3.3,7,7,0,0,1-2.1,2.63,10.28,10.28,0,0,1-3.52,1.76,16.92,16.92,0,0,1-4.94.64,21.28,21.28,0,0,1-3.53-.27c-1.06-.18-2-.39-2.9-.62s-1.65-.48-2.33-.71A18,18,0,0,0,323.6,496.06Z"/><path class="cls-1" d="M348.87,484a17.58,17.58,0,0,1,1-6,13.62,13.62,0,0,1,2.82-4.7,12.58,12.58,0,0,1,4.43-3.05,14.87,14.87,0,0,1,5.82-1.09,23.2,23.2,0,0,1,3,.18c.91.12,1.72.27,2.44.43s1.33.33,1.85.5.95.31,1.27.4l-.24,8.33H367l-1.41-4.3a4.75,4.75,0,0,0-1.32-1.61,3.1,3.1,0,0,0-1.91-.59,4.28,4.28,0,0,0-2.08.55,5.11,5.11,0,0,0-1.76,1.74,9.9,9.9,0,0,0-1.23,3.06,19.19,19.19,0,0,0-.47,4.54,23.41,23.41,0,0,0,.48,5.13,9.49,9.49,0,0,0,1.39,3.39,5.24,5.24,0,0,0,2.23,1.87,7.41,7.41,0,0,0,3,.57,11.25,11.25,0,0,0,3.92-.61,15,15,0,0,0,2.77-1.31l1.29,2.95a8.48,8.48,0,0,1-1.48,1.23,14.18,14.18,0,0,1-2.24,1.26,16.77,16.77,0,0,1-2.83,1,13.31,13.31,0,0,1-3.24.39,14.85,14.85,0,0,1-5.93-1.08,10.81,10.81,0,0,1-4.09-3,12.2,12.2,0,0,1-2.37-4.5A19.94,19.94,0,0,1,348.87,484Z"/><path class="cls-1" d="M375.31,497.63v-3.28l3.52-.46v-18.8l-3.32-1v-3.69l8.35-1.2H384l1.3,1.05v2l0,3.81h.1a11.34,11.34,0,0,1,1.06-2,13.73,13.73,0,0,1,1.91-2.29A11.26,11.26,0,0,1,391,469.9a6.64,6.64,0,0,1,3.21-.79,8.5,8.5,0,0,1,1.16.06,3.89,3.89,0,0,1,.67.16v8.45a4.47,4.47,0,0,0-1.4-.43,15.44,15.44,0,0,0-4.41-.13c-.57.06-1.1.15-1.6.25a9.27,9.27,0,0,0-1.33.38,4.18,4.18,0,0,0-.9.44v15.58l6.08.58v3.18Z"/><path class="cls-1" d="M411.88,498.19a14.8,14.8,0,0,1-5.92-1.08,10.66,10.66,0,0,1-4.07-3,12.3,12.3,0,0,1-2.36-4.58,21.33,21.33,0,0,1-.76-5.81,18.17,18.17,0,0,1,1-6.11,13.1,13.1,0,0,1,2.72-4.59,11.61,11.61,0,0,1,4.22-2.89,14.4,14.4,0,0,1,5.47-1q10.14,0,10.57,9.89c0,1.13,0,2.14,0,3a14.25,14.25,0,0,1-.25,2.28H406.51a15.12,15.12,0,0,0,.71,4.13,7.94,7.94,0,0,0,1.54,2.78,5.61,5.61,0,0,0,2.26,1.57,8.23,8.23,0,0,0,2.87.48,13,13,0,0,0,2.32-.19,15.65,15.65,0,0,0,2-.49,11,11,0,0,0,1.66-.66,13.11,13.11,0,0,0,1.28-.71l1.27,3a9.68,9.68,0,0,1-1.7,1.33,16,16,0,0,1-2.49,1.28,19.92,19.92,0,0,1-3,1A14.07,14.07,0,0,1,411.88,498.19Zm-.65-25.78a4.47,4.47,0,0,0-1.77.34A3.32,3.32,0,0,0,408,474a8.72,8.72,0,0,0-1,2.65,22.64,22.64,0,0,0-.5,4.38h8.76c0-.08,0-.19,0-.34s0-.3,0-.46,0-.32,0-.47v-.31a18.12,18.12,0,0,0-.17-2.53,7.92,7.92,0,0,0-.62-2.28,4.3,4.3,0,0,0-1.25-1.64A3.14,3.14,0,0,0,411.23,472.41Z"/><path class="cls-1" d="M439.38,498.19a14.81,14.81,0,0,1-5.93-1.08,10.66,10.66,0,0,1-4.07-3,12.3,12.3,0,0,1-2.36-4.58,21.33,21.33,0,0,1-.76-5.81,18.17,18.17,0,0,1,1-6.11A13.1,13.1,0,0,1,430,473a11.61,11.61,0,0,1,4.22-2.89,14.4,14.4,0,0,1,5.47-1q10.14,0,10.57,9.89c0,1.13,0,2.14,0,3a14.25,14.25,0,0,1-.25,2.28H434a15.12,15.12,0,0,0,.71,4.13,8.1,8.1,0,0,0,1.54,2.78,5.61,5.61,0,0,0,2.26,1.57,8.23,8.23,0,0,0,2.87.48,13,13,0,0,0,2.32-.19,15.24,15.24,0,0,0,2-.49,11,11,0,0,0,1.66-.66,13.11,13.11,0,0,0,1.28-.71l1.27,3a9.68,9.68,0,0,1-1.7,1.33,16,16,0,0,1-2.49,1.28,19.92,19.92,0,0,1-3,1A14,14,0,0,1,439.38,498.19Zm-.66-25.78a4.47,4.47,0,0,0-1.77.34A3.32,3.32,0,0,0,435.5,474a8.72,8.72,0,0,0-1,2.65,22.64,22.64,0,0,0-.5,4.38h8.76c0-.08,0-.19,0-.34s0-.3,0-.46,0-.32,0-.47v-.31a18.12,18.12,0,0,0-.17-2.53,7.92,7.92,0,0,0-.62-2.28,4.3,4.3,0,0,0-1.25-1.64A3.14,3.14,0,0,0,438.72,472.41Z"/><path class="cls-1" d="M454.37,497.63v-3.28l3.14-.48V475.09l-3.32-1v-3.69l8.74-1.2h.13l1.29,1.05v2.91a14.49,14.49,0,0,1,1.9-1.44,15.86,15.86,0,0,1,2.39-1.25,17.61,17.61,0,0,1,2.69-.86,12.62,12.62,0,0,1,2.86-.33,10.87,10.87,0,0,1,3.92.61,5.27,5.27,0,0,1,2.5,1.95,8.89,8.89,0,0,1,1.32,3.45,28.6,28.6,0,0,1,.39,5.1v13.52l3.47.46v3.28H472v-3.28l2.66-.46V480.27a22.2,22.2,0,0,0-.17-2.92,5.48,5.48,0,0,0-.62-2,2.8,2.8,0,0,0-1.25-1.16,4.61,4.61,0,0,0-2-.38A7.47,7.47,0,0,0,469,474a9.11,9.11,0,0,0-1.53.48,9.4,9.4,0,0,0-1.31.64,9.84,9.84,0,0,0-1,.7v18.07l3.27.48v3.28Z"/><path class="cls-1" d="M488.64,497.63v-3.28l3.57-.46v-18.8l-3.3-1v-3.66l9-1.2H498l1.79,1.05v23.64l3.54.48v3.28Zm6.5-32.57a3.58,3.58,0,0,1-1.53-.32,3.27,3.27,0,0,1-1.12-.84,3.7,3.7,0,0,1-.69-1.25,5.08,5.08,0,0,1-.23-1.52,6.17,6.17,0,0,1,.26-1.8,4,4,0,0,1,.79-1.47,3.82,3.82,0,0,1,1.33-1,4.46,4.46,0,0,1,1.85-.36h0a4.09,4.09,0,0,1,1.72.33,3.6,3.6,0,0,1,1.21.88,3.33,3.33,0,0,1,.72,1.25,4.94,4.94,0,0,1,.23,1.49,5.93,5.93,0,0,1-.27,1.82,4.21,4.21,0,0,1-.81,1.47,3.74,3.74,0,0,1-1.42,1,5.31,5.31,0,0,1-2,.36Z"/><path class="cls-1" d="M506.9,497.63v-3.28l3.15-.48V475.09l-3.32-1v-3.69l8.74-1.2h.13l1.29,1.05v2.91a14.49,14.49,0,0,1,1.9-1.44,16.24,16.24,0,0,1,2.38-1.25,18.09,18.09,0,0,1,2.7-.86,12.62,12.62,0,0,1,2.86-.33,10.87,10.87,0,0,1,3.92.61,5.27,5.27,0,0,1,2.5,1.95,8.89,8.89,0,0,1,1.32,3.45,28.6,28.6,0,0,1,.39,5.1v13.52l3.47.46v3.28H524.58v-3.28l2.66-.46V480.27a22.2,22.2,0,0,0-.17-2.92,5.48,5.48,0,0,0-.62-2,2.8,2.8,0,0,0-1.25-1.16,4.64,4.64,0,0,0-2-.38,7.47,7.47,0,0,0-1.63.18,9.11,9.11,0,0,0-1.53.48,10.12,10.12,0,0,0-1.32.64,10.76,10.76,0,0,0-1,.7v18.07l3.27.48v3.28Z"/><path class="cls-1" d="M553.66,488.08a22.26,22.26,0,0,1-3.71-.29,3.51,3.51,0,0,0-.69,1A2.87,2.87,0,0,0,549,490a2.6,2.6,0,0,0,.32,1.37,2,2,0,0,0,1,.79,5.92,5.92,0,0,0,1.75.38c.71.07,1.56.1,2.55.1h4.88c3.52,0,6.13.59,7.85,1.78s2.58,3.14,2.58,5.84a8,8,0,0,1-1.29,4.46,11.23,11.23,0,0,1-3.45,3.41,17.42,17.42,0,0,1-5,2.17,22.59,22.59,0,0,1-6,.77h0a24.54,24.54,0,0,1-5.9-.61,12.64,12.64,0,0,1-4-1.68,6.81,6.81,0,0,1-2.32-2.57,7.21,7.21,0,0,1-.74-3.24,5.29,5.29,0,0,1,.41-2.11,7,7,0,0,1,1.1-1.81,7.55,7.55,0,0,1,1.6-1.43,8.37,8.37,0,0,1,1.89-.95,5.71,5.71,0,0,1-2.17-1.86,4.55,4.55,0,0,1-.76-2.63,5,5,0,0,1,1-3.14,9.55,9.55,0,0,1,2.49-2.26,7.74,7.74,0,0,1-3.67-3.17,9.63,9.63,0,0,1-1.19-4.89,8.08,8.08,0,0,1,1-4,9.4,9.4,0,0,1,2.7-3,13,13,0,0,1,4-1.95,16.94,16.94,0,0,1,4.86-.68h0q6.11,0,9.06,2.34a4.93,4.93,0,0,1,.93-.84,7.73,7.73,0,0,1,1.34-.77,10,10,0,0,1,1.68-.57,7.8,7.8,0,0,1,2-.23h1.14v5.47h-4.81a11.79,11.79,0,0,1,.43,1.63,9.84,9.84,0,0,1,.16,1.86,9,9,0,0,1-.92,4,9.39,9.39,0,0,1-2.58,3.18,12.37,12.37,0,0,1-4,2.1,16.15,16.15,0,0,1-5.1.76Zm-1.25,9.86a18.08,18.08,0,0,1-2.93-.22,6.14,6.14,0,0,0-.91,1.41,5.36,5.36,0,0,0-.43,2.38,7.81,7.81,0,0,0,.44,2.79,4.45,4.45,0,0,0,1.29,1.86,5.36,5.36,0,0,0,2.11,1,12.11,12.11,0,0,0,2.92.31H555a12.32,12.32,0,0,0,2.91-.34,8.36,8.36,0,0,0,2.52-1,5.62,5.62,0,0,0,1.79-1.74,4.54,4.54,0,0,0,.67-2.47,6.52,6.52,0,0,0-.23-1.83,2.57,2.57,0,0,0-.83-1.23,4,4,0,0,0-1.64-.7,13.67,13.67,0,0,0-2.65-.22Zm1.83-13.13h0a3.9,3.9,0,0,0,2.06-.5,3.56,3.56,0,0,0,1.28-1.36,6.15,6.15,0,0,0,.65-2,16.31,16.31,0,0,0,.18-2.47,8.08,8.08,0,0,0-1-4.67,3.88,3.88,0,0,0-3.4-1.46h0a3.78,3.78,0,0,0-3.34,1.47,7.85,7.85,0,0,0-1,4.47,15.31,15.31,0,0,0,.22,2.64,6,6,0,0,0,.76,2.08,3.75,3.75,0,0,0,1.43,1.34A4.66,4.66,0,0,0,554.24,484.81Z"/><path class="cls-1" d="M82.93,557.63V554.4l3.91-.66V534.07h-4.3v-2.93l4.3-1.22V528.5A11.19,11.19,0,0,1,88,523.29a13,13,0,0,1,3.08-4,13.6,13.6,0,0,1,4.2-2.51,12.71,12.71,0,0,1,4.56-.88,9.63,9.63,0,0,1,1.88.14,10,10,0,0,1,1,.27v7.3a3.74,3.74,0,0,0-.89-.67,8.74,8.74,0,0,0-1.3-.59A10.91,10.91,0,0,0,99,522a7.85,7.85,0,0,0-1.68-.17,4.49,4.49,0,0,0-1.2.14,2,2,0,0,0-.91.53,2.52,2.52,0,0,0-.59,1,5.43,5.43,0,0,0-.21,1.65l0,4.79h6.27v4.15H94.43v19.82l5.42.51v3.23Z"/><path class="cls-1" d="M103.39,543.81a16.65,16.65,0,0,1,1.15-6.47,13.31,13.31,0,0,1,3-4.59A12.46,12.46,0,0,1,112,530a15.22,15.22,0,0,1,5.21-.9,14.86,14.86,0,0,1,5.61,1,10.91,10.91,0,0,1,4.1,2.84,12.36,12.36,0,0,1,2.52,4.52,19.65,19.65,0,0,1,.85,6,17.3,17.3,0,0,1-1.14,6.59,13.06,13.06,0,0,1-3.06,4.58,12.13,12.13,0,0,1-4.39,2.66,15.64,15.64,0,0,1-5.2.87,14.87,14.87,0,0,1-5.62-1,11,11,0,0,1-4.11-2.85,12.25,12.25,0,0,1-2.53-4.51A19.74,19.74,0,0,1,103.39,543.81Zm13.52,11a4.33,4.33,0,0,0,2.32-.6,4.55,4.55,0,0,0,1.63-1.88,11,11,0,0,0,1-3.28,32.92,32.92,0,0,0,.3-4.79,40,40,0,0,0-.28-5.06,14.21,14.21,0,0,0-.9-3.7,5.29,5.29,0,0,0-1.64-2.26,4,4,0,0,0-2.47-.77,4.37,4.37,0,0,0-2.33.6,4.52,4.52,0,0,0-1.65,1.88,10.9,10.9,0,0,0-1,3.28,31.31,31.31,0,0,0-.32,4.79,38,38,0,0,0,.3,5.06,13.36,13.36,0,0,0,.94,3.7,5.47,5.47,0,0,0,1.66,2.26A4,4,0,0,0,116.91,554.82Z"/><path class="cls-1" d="M134,557.63v-3.28l3.51-.46v-18.8l-3.32-1v-3.69l8.35-1.2h.15l1.29,1.05v2l0,3.81h.1a10.69,10.69,0,0,1,1.06-2,13.65,13.65,0,0,1,1.9-2.29,11.54,11.54,0,0,1,2.62-1.91,6.64,6.64,0,0,1,3.21-.79,8.5,8.5,0,0,1,1.16.06,4.14,4.14,0,0,1,.67.16v8.45a4.47,4.47,0,0,0-1.41-.43,15.37,15.37,0,0,0-4.4-.13c-.57.06-1.11.15-1.6.25a9.27,9.27,0,0,0-1.33.38,4.3,4.3,0,0,0-.91.44v15.58l6.08.58v3.18Z"/><path class="cls-2" d="M173.21,557.63v-3.28l3-.48v-32.6l-3.67-.61v-2.85l9.5-1.2h.12l1.49,1.15.05,11.5-.39,3.88a15.37,15.37,0,0,1,6.6-3.5,12.24,12.24,0,0,1,3.12-.38,10.21,10.21,0,0,1,4,.66,5.48,5.48,0,0,1,2.48,2,9,9,0,0,1,1.29,3.46,27.33,27.33,0,0,1,.38,4.94v13.53l3.44.48v3.28H190.91v-3.18l2.71-.54V540.27a20.59,20.59,0,0,0-.17-2.92,5.29,5.29,0,0,0-.64-2,2.92,2.92,0,0,0-1.32-1.16,5.19,5.19,0,0,0-2.16-.38,7.85,7.85,0,0,0-1.57.17,13.11,13.11,0,0,0-1.55.43,11.73,11.73,0,0,0-1.4.58,7.06,7.06,0,0,0-1.1.67v18.22l3.35.48v3.28Z"/><path class="cls-2" d="M220.28,558.19a14.76,14.76,0,0,1-5.92-1.08,10.66,10.66,0,0,1-4.07-3,12.16,12.16,0,0,1-2.36-4.58,21,21,0,0,1-.76-5.81,17.93,17.93,0,0,1,1-6.11,13.1,13.1,0,0,1,2.72-4.59,11.61,11.61,0,0,1,4.22-2.89,14.4,14.4,0,0,1,5.47-1q10.14,0,10.57,9.89c0,1.13,0,2.14,0,3a14.12,14.12,0,0,1-.26,2.28H214.91a15.12,15.12,0,0,0,.71,4.13,7.94,7.94,0,0,0,1.54,2.78,5.61,5.61,0,0,0,2.26,1.57,8.23,8.23,0,0,0,2.87.48,12.86,12.86,0,0,0,2.31-.19,14.85,14.85,0,0,0,2-.49,10.63,10.63,0,0,0,1.66-.66,12.26,12.26,0,0,0,1.29-.71l1.27,3a9.68,9.68,0,0,1-1.7,1.33,17,17,0,0,1-2.49,1.28,20.29,20.29,0,0,1-3,1A14.07,14.07,0,0,1,220.28,558.19Zm-.66-25.78a4.54,4.54,0,0,0-1.77.34,3.35,3.35,0,0,0-1.44,1.29,8.72,8.72,0,0,0-1,2.65,22.64,22.64,0,0,0-.5,4.38h8.76c0-.08,0-.19,0-.34s0-.3,0-.46,0-.32,0-.47v-.31a19.79,19.79,0,0,0-.17-2.53,7.92,7.92,0,0,0-.62-2.28,4.3,4.3,0,0,0-1.25-1.64A3.18,3.18,0,0,0,219.62,532.41Z"/><path class="cls-2" d="M234.47,550.2a7.48,7.48,0,0,1,.64-3.19,7.86,7.86,0,0,1,1.79-2.45,10.72,10.72,0,0,1,2.67-1.78,19.44,19.44,0,0,1,3.32-1.21,25.89,25.89,0,0,1,3.71-.69c1.29-.15,2.57-.24,3.86-.27v-1.17a5.62,5.62,0,0,0-1.14-4,5,5,0,0,0-3.72-1.18,18.29,18.29,0,0,0-2.65.2c-.89.14-1.74.31-2.55.52a22.51,22.51,0,0,0-2.26.68q-1,.38-1.77.72h0l-1.44-3.27a12.66,12.66,0,0,1,1.73-1.09,21.17,21.17,0,0,1,2.93-1.3,28.34,28.34,0,0,1,3.78-1.1,19.56,19.56,0,0,1,4.28-.47,15.73,15.73,0,0,1,4.6.59,7.09,7.09,0,0,1,3.08,1.81,7.42,7.42,0,0,1,1.73,3.08,15.63,15.63,0,0,1,.55,4.41v15.24h3v3c-.31.06-.7.15-1.15.26s-1,.2-1.52.29-1.14.16-1.78.23-1.28.1-2,.1a12.55,12.55,0,0,1-1.5-.08,2,2,0,0,1-1-.34,1.43,1.43,0,0,1-.55-.77,4.11,4.11,0,0,1-.17-1.35v-1.42a9.52,9.52,0,0,1-1.15,1.25,10.12,10.12,0,0,1-1.77,1.29,10.36,10.36,0,0,1-2.36,1,9.82,9.82,0,0,1-2.9.41,11,11,0,0,1-3.25-.47,7.33,7.33,0,0,1-2.65-1.44,6.87,6.87,0,0,1-1.79-2.49A8.92,8.92,0,0,1,234.47,550.2Zm11.59,3.28a4.37,4.37,0,0,0,1-.13,8.83,8.83,0,0,0,1.17-.34,9.54,9.54,0,0,0,1.19-.52,5.31,5.31,0,0,0,1-.7v-8.08a15.38,15.38,0,0,0-4,.44,7.37,7.37,0,0,0-2.55,1.17,4.25,4.25,0,0,0-1.36,1.69,5.27,5.27,0,0,0-.4,2,4.9,4.9,0,0,0,1,3.31A3.62,3.62,0,0,0,246.06,553.48Z"/><path class="cls-2" d="M263.59,557.63v-3.28l3.52-.46v-18.8l-3.32-1v-3.69l8.35-1.2h.15l1.29,1.05v2l0,3.81h.1a11.34,11.34,0,0,1,1.06-2,13.73,13.73,0,0,1,1.91-2.29,11.7,11.7,0,0,1,2.61-1.91,6.69,6.69,0,0,1,3.21-.79,8.4,8.4,0,0,1,1.16.06,3.89,3.89,0,0,1,.67.16v8.45a4.47,4.47,0,0,0-1.4-.43,15.44,15.44,0,0,0-4.41-.13c-.57.06-1.1.15-1.6.25a9.66,9.66,0,0,0-1.33.38,4.18,4.18,0,0,0-.9.44v15.58l6.08.58v3.18Z"/><path class="cls-2" d="M290.16,551.77v-18h-3.45V531c.13,0,.34-.1.63-.2l.88-.33.81-.33a5.19,5.19,0,0,0,.47-.23,7.59,7.59,0,0,0,1.73-2.35c.16-.32.34-.7.54-1.13s.38-.89.57-1.36.36-.94.53-1.4.3-.88.41-1.26h4.35l.07,7.23h7.18v4.15H297.7v13.52c0,1.31,0,2.34.06,3.1a6,6,0,0,0,.29,1.74,1.22,1.22,0,0,0,.72.75,4.11,4.11,0,0,0,1.35.17h0a8.91,8.91,0,0,0,1.23-.09c.44-.07.86-.15,1.27-.24a10.14,10.14,0,0,0,1.15-.29c.35-.1.64-.2.87-.28h0l1.15,2.86a13.31,13.31,0,0,1-1.79,1.12,16.44,16.44,0,0,1-2.35,1,18.53,18.53,0,0,1-2.71.74,15.42,15.42,0,0,1-2.87.28h-.05a7.93,7.93,0,0,1-2.74-.42,4.21,4.21,0,0,1-1.83-1.23,5,5,0,0,1-1-2A10.93,10.93,0,0,1,290.16,551.77Z"/><path class="cls-2" d="M323.55,557.63v-3.28l3-.48v-32.6l-3.66-.61v-2.85l9.49-1.2h.12l1.49,1.15.05,11.5-.39,3.88a15.32,15.32,0,0,1,6.61-3.5,12.1,12.1,0,0,1,3.11-.38,10.21,10.21,0,0,1,3.95.66,5.43,5.43,0,0,1,2.48,2,9.16,9.16,0,0,1,1.3,3.46,28.36,28.36,0,0,1,.37,4.94v13.53l3.45.48v3.28H341.25v-3.18l2.71-.54V540.27a20.59,20.59,0,0,0-.17-2.92,5.29,5.29,0,0,0-.64-2,2.92,2.92,0,0,0-1.32-1.16,5.16,5.16,0,0,0-2.16-.38,7.68,7.68,0,0,0-1.56.17,12.13,12.13,0,0,0-1.55.43,11.23,11.23,0,0,0-1.41.58,7.57,7.57,0,0,0-1.1.67v18.22l3.35.48v3.28Z"/><path class="cls-2" d="M370.62,558.19a14.8,14.8,0,0,1-5.92-1.08,10.66,10.66,0,0,1-4.07-3,12.3,12.3,0,0,1-2.36-4.58,21.33,21.33,0,0,1-.76-5.81,18.17,18.17,0,0,1,1-6.11A13.1,13.1,0,0,1,361.2,533a11.61,11.61,0,0,1,4.22-2.89,14.4,14.4,0,0,1,5.47-1q10.14,0,10.57,9.89c0,1.13,0,2.14,0,3a14.25,14.25,0,0,1-.25,2.28H365.25a15.12,15.12,0,0,0,.71,4.13,8.1,8.1,0,0,0,1.54,2.78,5.61,5.61,0,0,0,2.26,1.57,8.23,8.23,0,0,0,2.87.48,13,13,0,0,0,2.32-.19,15.24,15.24,0,0,0,2-.49,11,11,0,0,0,1.66-.66,13.11,13.11,0,0,0,1.28-.71l1.27,3a9.68,9.68,0,0,1-1.7,1.33,16,16,0,0,1-2.49,1.28,19.92,19.92,0,0,1-3,1A14.07,14.07,0,0,1,370.62,558.19ZM370,532.41a4.47,4.47,0,0,0-1.77.34,3.32,3.32,0,0,0-1.45,1.29,8.72,8.72,0,0,0-1,2.65,22.64,22.64,0,0,0-.5,4.38H374c0-.08,0-.19,0-.34s0-.3,0-.46,0-.32,0-.47v-.31a18.12,18.12,0,0,0-.17-2.53,7.92,7.92,0,0,0-.62-2.28A4.3,4.3,0,0,0,372,533,3.14,3.14,0,0,0,370,532.41Z"/><path class="cls-2" d="M384.81,550.2a7.48,7.48,0,0,1,.65-3.19,7.68,7.68,0,0,1,1.78-2.45,11.1,11.1,0,0,1,2.67-1.78,19.44,19.44,0,0,1,3.32-1.21,25.89,25.89,0,0,1,3.71-.69c1.29-.15,2.57-.24,3.86-.27v-1.17a5.67,5.67,0,0,0-1.13-4,5,5,0,0,0-3.73-1.18,18.29,18.29,0,0,0-2.65.2c-.88.14-1.73.31-2.55.52a23.33,23.33,0,0,0-2.26.68q-1,.38-1.77.72h0l-1.44-3.27a12.66,12.66,0,0,1,1.73-1.09,21.72,21.72,0,0,1,2.93-1.3,28.06,28.06,0,0,1,3.79-1.1,19.4,19.4,0,0,1,4.27-.47,15.68,15.68,0,0,1,4.6.59,7.09,7.09,0,0,1,3.08,1.81,7.31,7.31,0,0,1,1.73,3.08,15.63,15.63,0,0,1,.55,4.41v15.24h3v3c-.31.06-.7.15-1.15.26s-1,.2-1.51.29-1.15.16-1.79.23-1.28.1-1.95.1a12.55,12.55,0,0,1-1.5-.08,2,2,0,0,1-1-.34,1.48,1.48,0,0,1-.55-.77,4.11,4.11,0,0,1-.17-1.35v-1.42a9.52,9.52,0,0,1-1.15,1.25,10.12,10.12,0,0,1-1.77,1.29,10.36,10.36,0,0,1-2.36,1,9.77,9.77,0,0,1-2.9.41,11,11,0,0,1-3.25-.47,7.33,7.33,0,0,1-2.65-1.44,6.87,6.87,0,0,1-1.79-2.49A8.92,8.92,0,0,1,384.81,550.2Zm11.6,3.28a4.36,4.36,0,0,0,1-.13,8.83,8.83,0,0,0,1.17-.34,9.67,9.67,0,0,0,1.2-.52,5.23,5.23,0,0,0,1-.7v-8.08a15.38,15.38,0,0,0-4,.44,7.37,7.37,0,0,0-2.55,1.17,4.22,4.22,0,0,0-1.35,1.69,5.1,5.1,0,0,0-.41,2,4.9,4.9,0,0,0,1,3.31A3.64,3.64,0,0,0,396.41,553.48Z"/><path class="cls-2" d="M413.18,557.63v-3.28l3.54-.48v-32.6l-3.64-.61v-2.85l9.55-1.2h.07l1.54,1.15v36.11l3.68.48v3.28Z"/><path class="cls-2" d="M433.88,551.77v-18h-3.44V531c.13,0,.34-.1.62-.2l.88-.33.82-.33a4.54,4.54,0,0,0,.46-.23,7.59,7.59,0,0,0,1.74-2.35c.16-.32.34-.7.53-1.13s.39-.89.58-1.36.36-.94.52-1.4.3-.88.42-1.26h4.34l.08,7.23h7.17v4.15h-7.17v13.52c0,1.31,0,2.34.06,3.1a5.64,5.64,0,0,0,.29,1.74,1.17,1.17,0,0,0,.72.75,4,4,0,0,0,1.34.17h0a8.91,8.91,0,0,0,1.23-.09c.43-.07.86-.15,1.27-.24a10.14,10.14,0,0,0,1.15-.29c.35-.1.64-.2.86-.28h0l1.15,2.86a12.86,12.86,0,0,1-1.8,1.12,16.8,16.8,0,0,1-2.34,1,18.88,18.88,0,0,1-2.71.74,15.42,15.42,0,0,1-2.87.28h0a8,8,0,0,1-2.75-.42,4.33,4.33,0,0,1-1.83-1.23,5.15,5.15,0,0,1-1-2A10.9,10.9,0,0,1,433.88,551.77Z"/><path class="cls-2" d="M451.58,557.63v-3.28l3-.48v-32.6l-3.66-.61v-2.85l9.5-1.2h.12l1.49,1.15.05,11.5-.39,3.88a15.37,15.37,0,0,1,6.6-3.5,12.24,12.24,0,0,1,3.12-.38,10.21,10.21,0,0,1,3.95.66,5.48,5.48,0,0,1,2.48,2,9,9,0,0,1,1.29,3.46,27.33,27.33,0,0,1,.38,4.94v13.53l3.44.48v3.28H469.28v-3.18l2.71-.54V540.27a22.2,22.2,0,0,0-.17-2.92,5.12,5.12,0,0,0-.65-2,2.84,2.84,0,0,0-1.31-1.16,5.23,5.23,0,0,0-2.16-.38,7.85,7.85,0,0,0-1.57.17,13.11,13.11,0,0,0-1.55.43,11.73,11.73,0,0,0-1.4.58,7.06,7.06,0,0,0-1.1.67v18.22l3.34.48v3.28Z"/><path class="cls-2" d="M492.18,558a4.93,4.93,0,0,1-1.63-.27,4.11,4.11,0,0,1-1.37-.78,3.78,3.78,0,0,1-.93-1.23,3.71,3.71,0,0,1-.34-1.63,4.34,4.34,0,0,1,.39-1.84,4.74,4.74,0,0,1,1.08-1.48,4.84,4.84,0,0,1,1.58-1,5.17,5.17,0,0,1,1.93-.36,5.76,5.76,0,0,1,2,.32,3.8,3.8,0,0,1,1.35.85,3.29,3.29,0,0,1,.76,1.25,5,5,0,0,1,.23,1.51,4.72,4.72,0,0,1-.38,1.91,4.17,4.17,0,0,1-1.05,1.46,4.59,4.59,0,0,1-1.61.94A6.1,6.1,0,0,1,492.18,558Z"/><path class="cls-1" d="M80,497.63l0-3.35,3.15-.68,11.76-33.28h7.84l11.74,33.28,3.4.68v3.35H102v-3.35l4-.68-1.83-6H90.86l-1.73,6,4,.66v3.35ZM96.5,468.08,92,483.83h11l-4.81-15.75-.85-3.56Z"/><path class="cls-1" d="M134.79,496.06V489.2h4.49l1.27,3.81a2.59,2.59,0,0,0,.67.64,5.11,5.11,0,0,0,1.07.56,9.16,9.16,0,0,0,1.41.4,7.84,7.84,0,0,0,1.63.16,5.77,5.77,0,0,0,2-.29,3.57,3.57,0,0,0,1.23-.75,2.32,2.32,0,0,0,.64-1,4.11,4.11,0,0,0,.17-1.11,3,3,0,0,0-.52-1.77,5.23,5.23,0,0,0-1.49-1.37,15.32,15.32,0,0,0-2.34-1.21L142,486a17.86,17.86,0,0,1-3-1.53,10.25,10.25,0,0,1-2.28-1.89,7.48,7.48,0,0,1-2-5.25,7.26,7.26,0,0,1,.72-3.21,7.13,7.13,0,0,1,2.14-2.56,10.84,10.84,0,0,1,3.51-1.71,17,17,0,0,1,4.86-.62,18.9,18.9,0,0,1,2.87.19q1.26.19,2.28.45c.69.18,1.31.35,1.88.54a12.72,12.72,0,0,0,1.66.43v6.74l-4.24-.08-1.15-3.24a3.35,3.35,0,0,0-1.3-1.09,5.17,5.17,0,0,0-2.41-.55,5.79,5.79,0,0,0-1.85.25,3.29,3.29,0,0,0-1.19.65,2.55,2.55,0,0,0-.65.92,2.74,2.74,0,0,0-.19,1,3.26,3.26,0,0,0,.65,2.09A5.62,5.62,0,0,0,144,478.9a14.34,14.34,0,0,0,2.2,1c.8.28,1.56.59,2.27.91,1.08.48,2.1,1,3.08,1.51a12.39,12.39,0,0,1,2.6,1.84,8.12,8.12,0,0,1,1.81,2.43,7.52,7.52,0,0,1,.67,3.28,7.72,7.72,0,0,1-.7,3.3,7,7,0,0,1-2.1,2.63,10.23,10.23,0,0,1-3.51,1.76,17,17,0,0,1-4.95.64,21.37,21.37,0,0,1-3.53-.27c-1.06-.18-2-.39-2.9-.62s-1.65-.48-2.33-.71S135.29,496.18,134.79,496.06Z"/><path class="cls-1" d="M160.3,497.63v-3.28l3.56-.46v-18.8l-3.29-1v-3.66l9-1.2h.12l1.78,1.05v23.64l3.54.48v3.28Zm6.49-32.57a3.5,3.5,0,0,1-1.52-.32,3.31,3.31,0,0,1-1.13-.84,3.52,3.52,0,0,1-.68-1.25,4.79,4.79,0,0,1-.23-1.52,6.17,6.17,0,0,1,.25-1.8,4.19,4.19,0,0,1,.8-1.47,3.73,3.73,0,0,1,1.33-1,4.41,4.41,0,0,1,1.84-.36h0a4.12,4.12,0,0,1,1.72.33,3.53,3.53,0,0,1,1.93,2.13,4.94,4.94,0,0,1,.23,1.49,5.93,5.93,0,0,1-.27,1.82,4.08,4.08,0,0,1-.82,1.47,3.66,3.66,0,0,1-1.42,1,5.22,5.22,0,0,1-2,.36Z"/><path class="cls-1" d="M178.66,497.63v-3.18l3.05-.56v-18.8l-3.32-1v-3.69l8.64-1.2h.12l1.3,1.05v2.91a11.42,11.42,0,0,1,2-1.47,17.6,17.6,0,0,1,2.54-1.24,18.91,18.91,0,0,1,2.77-.86,12.33,12.33,0,0,1,2.68-.31,9.43,9.43,0,0,1,4.47.9,5.75,5.75,0,0,1,2.52,2.88,11.79,11.79,0,0,1,1.79-1.28,18,18,0,0,1,2.45-1.22,21.14,21.14,0,0,1,2.82-.92,12.13,12.13,0,0,1,2.87-.36,10.83,10.83,0,0,1,3.83.58,5.21,5.21,0,0,1,2.47,1.91,8.61,8.61,0,0,1,1.32,3.43,28.77,28.77,0,0,1,.39,5.14v13.57l3.44.56v3.18H213.28v-3.18l2.56-.56V480.54a20.48,20.48,0,0,0-.21-3.19,6,6,0,0,0-.69-2.11,2.87,2.87,0,0,0-1.32-1.17,5.09,5.09,0,0,0-2.08-.37,6.22,6.22,0,0,0-1.34.17,15.21,15.21,0,0,0-1.46.43,15,15,0,0,0-1.42.57,10.89,10.89,0,0,0-1.2.64,17.69,17.69,0,0,1,.27,2.23c.05.81.07,1.68.07,2.63v13.54l3.25.54v3.18H196v-3.18l2.93-.54V480.27a18.84,18.84,0,0,0-.2-2.92,5.46,5.46,0,0,0-.67-2,2.9,2.9,0,0,0-1.29-1.16,4.8,4.8,0,0,0-2.06-.38,7.54,7.54,0,0,0-1.53.17,13.11,13.11,0,0,0-1.55.43,9.83,9.83,0,0,0-1.39.58,7.84,7.84,0,0,0-1.08.67v18.24l3.3.56v3.18Z"/><path class="cls-1" d="M229.24,506.63l3.67-.61V475.09l-3.33-1v-3.69l8.75-1.2h.12l1.24,1.05v2.59a11.92,11.92,0,0,1,1.44-1.38,10,10,0,0,1,1.86-1.18,11.41,11.41,0,0,1,2.24-.83,10.61,10.61,0,0,1,2.64-.32,11.49,11.49,0,0,1,4.21.76,8.64,8.64,0,0,1,3.43,2.4,11.7,11.7,0,0,1,2.31,4.26,20.71,20.71,0,0,1,.84,6.3,17.92,17.92,0,0,1-1,6,14.3,14.3,0,0,1-2.84,4.87,13,13,0,0,1-4.52,3.26,14.57,14.57,0,0,1-6,1.19c-.41,0-.81,0-1.21-.05s-.78-.07-1.15-.12l-1-.15c-.29-.05-.53-.1-.71-.15l.15,4.06V506l4.83.61v3.11h-16Zm15.53-33.08a6.18,6.18,0,0,0-2.61.53,5.45,5.45,0,0,0-1.76,1.18v18.48a3.35,3.35,0,0,0,1.34.82,6.24,6.24,0,0,0,2.25.36,5.7,5.7,0,0,0,2.5-.58,5.19,5.19,0,0,0,2.06-1.89A11,11,0,0,0,250,489a23.91,23.91,0,0,0,.59-5.27,21.53,21.53,0,0,0-.36-4.69,9.79,9.79,0,0,0-1.16-3.15,4.71,4.71,0,0,0-1.84-1.77A5.36,5.36,0,0,0,244.77,473.55Z"/><path class="cls-1" d="M261.79,497.63v-3.28l3.54-.48v-32.6l-3.64-.61v-2.85l9.55-1.2h.07l1.54,1.15v36.11l3.68.48v3.28Z"/><path class="cls-1" d="M292.5,498.19a14.76,14.76,0,0,1-5.92-1.08,10.77,10.77,0,0,1-4.08-3,12.29,12.29,0,0,1-2.35-4.58,21,21,0,0,1-.76-5.81,18.18,18.18,0,0,1,1-6.11,13.12,13.12,0,0,1,2.73-4.59,11.61,11.61,0,0,1,4.22-2.89,14.36,14.36,0,0,1,5.47-1q10.13,0,10.57,9.89c0,1.13,0,2.14,0,3a14.12,14.12,0,0,1-.26,2.28H287.13a15.12,15.12,0,0,0,.71,4.13,7.94,7.94,0,0,0,1.54,2.78,5.57,5.57,0,0,0,2.25,1.57,8.27,8.27,0,0,0,2.87.48,13,13,0,0,0,2.32-.19,14.85,14.85,0,0,0,2-.49,11,11,0,0,0,1.66-.66,12,12,0,0,0,1.28-.71l1.27,3a9.21,9.21,0,0,1-1.69,1.33,16.64,16.64,0,0,1-2.5,1.28,19.79,19.79,0,0,1-3,1A14.13,14.13,0,0,1,292.5,498.19Zm-.66-25.78a4.54,4.54,0,0,0-1.77.34,3.35,3.35,0,0,0-1.44,1.29,8.71,8.71,0,0,0-1,2.65,24.34,24.34,0,0,0-.5,4.38h8.77c0-.08,0-.19,0-.34l0-.46c0-.16,0-.32,0-.47v-.31a19.79,19.79,0,0,0-.17-2.53,7.92,7.92,0,0,0-.63-2.28,4.28,4.28,0,0,0-1.24-1.64A3.18,3.18,0,0,0,291.84,472.41Z"/><path class="cls-1" d="M323.6,496.06V489.2h4.5l1.27,3.81a2.59,2.59,0,0,0,.67.64,5.11,5.11,0,0,0,1.07.56,9.35,9.35,0,0,0,1.4.4,8,8,0,0,0,1.64.16,5.81,5.81,0,0,0,2-.29,3.67,3.67,0,0,0,1.23-.75,2.41,2.41,0,0,0,.64-1,4.11,4.11,0,0,0,.17-1.11,3,3,0,0,0-.53-1.77,5.1,5.1,0,0,0-1.49-1.37,15.18,15.18,0,0,0-2.33-1.21l-3-1.27a17.86,17.86,0,0,1-3-1.53,10.25,10.25,0,0,1-2.28-1.89,7.73,7.73,0,0,1-1.46-2.34,7.86,7.86,0,0,1-.51-2.91,7.26,7.26,0,0,1,.72-3.21,7.13,7.13,0,0,1,2.14-2.56,10.84,10.84,0,0,1,3.51-1.71,17,17,0,0,1,4.86-.62,19,19,0,0,1,2.87.19q1.26.19,2.28.45c.69.18,1.31.35,1.88.54a12.72,12.72,0,0,0,1.66.43v6.74l-4.25-.08-1.14-3.24a3.35,3.35,0,0,0-1.3-1.09,5.17,5.17,0,0,0-2.41-.55,5.79,5.79,0,0,0-1.85.25,3.29,3.29,0,0,0-1.19.65,2.43,2.43,0,0,0-.65.92,2.75,2.75,0,0,0-.2,1,3.21,3.21,0,0,0,.66,2.09,5.62,5.62,0,0,0,1.66,1.38,14.34,14.34,0,0,0,2.2,1c.8.28,1.55.59,2.27.91,1.08.48,2.1,1,3.08,1.51a12.65,12.65,0,0,1,2.6,1.84,8.09,8.09,0,0,1,1.8,2.43,7.38,7.38,0,0,1,.68,3.28,7.87,7.87,0,0,1-.7,3.3,7,7,0,0,1-2.1,2.63,10.28,10.28,0,0,1-3.52,1.76,16.92,16.92,0,0,1-4.94.64,21.28,21.28,0,0,1-3.53-.27c-1.06-.18-2-.39-2.9-.62s-1.65-.48-2.33-.71A18,18,0,0,0,323.6,496.06Z"/><path class="cls-1" d="M348.87,484a17.58,17.58,0,0,1,1-6,13.62,13.62,0,0,1,2.82-4.7,12.58,12.58,0,0,1,4.43-3.05,14.87,14.87,0,0,1,5.82-1.09,23.2,23.2,0,0,1,3,.18c.91.12,1.72.27,2.44.43s1.33.33,1.85.5.95.31,1.27.4l-.24,8.33H367l-1.41-4.3a4.75,4.75,0,0,0-1.32-1.61,3.1,3.1,0,0,0-1.91-.59,4.28,4.28,0,0,0-2.08.55,5.11,5.11,0,0,0-1.76,1.74,9.9,9.9,0,0,0-1.23,3.06,19.19,19.19,0,0,0-.47,4.54,23.41,23.41,0,0,0,.48,5.13,9.49,9.49,0,0,0,1.39,3.39,5.24,5.24,0,0,0,2.23,1.87,7.41,7.41,0,0,0,3,.57,11.25,11.25,0,0,0,3.92-.61,15,15,0,0,0,2.77-1.31l1.29,2.95a8.48,8.48,0,0,1-1.48,1.23,14.18,14.18,0,0,1-2.24,1.26,16.77,16.77,0,0,1-2.83,1,13.31,13.31,0,0,1-3.24.39,14.85,14.85,0,0,1-5.93-1.08,10.81,10.81,0,0,1-4.09-3,12.2,12.2,0,0,1-2.37-4.5A19.94,19.94,0,0,1,348.87,484Z"/><path class="cls-1" d="M375.31,497.63v-3.28l3.52-.46v-18.8l-3.32-1v-3.69l8.35-1.2H384l1.3,1.05v2l0,3.81h.1a11.34,11.34,0,0,1,1.06-2,13.73,13.73,0,0,1,1.91-2.29A11.26,11.26,0,0,1,391,469.9a6.64,6.64,0,0,1,3.21-.79,8.5,8.5,0,0,1,1.16.06,3.89,3.89,0,0,1,.67.16v8.45a4.47,4.47,0,0,0-1.4-.43,15.44,15.44,0,0,0-4.41-.13c-.57.06-1.1.15-1.6.25a9.27,9.27,0,0,0-1.33.38,4.18,4.18,0,0,0-.9.44v15.58l6.08.58v3.18Z"/><path class="cls-1" d="M411.88,498.19a14.8,14.8,0,0,1-5.92-1.08,10.66,10.66,0,0,1-4.07-3,12.3,12.3,0,0,1-2.36-4.58,21.33,21.33,0,0,1-.76-5.81,18.17,18.17,0,0,1,1-6.11,13.1,13.1,0,0,1,2.72-4.59,11.61,11.61,0,0,1,4.22-2.89,14.4,14.4,0,0,1,5.47-1q10.14,0,10.57,9.89c0,1.13,0,2.14,0,3a14.25,14.25,0,0,1-.25,2.28H406.51a15.12,15.12,0,0,0,.71,4.13,7.94,7.94,0,0,0,1.54,2.78,5.61,5.61,0,0,0,2.26,1.57,8.23,8.23,0,0,0,2.87.48,13,13,0,0,0,2.32-.19,15.65,15.65,0,0,0,2-.49,11,11,0,0,0,1.66-.66,13.11,13.11,0,0,0,1.28-.71l1.27,3a9.68,9.68,0,0,1-1.7,1.33,16,16,0,0,1-2.49,1.28,19.92,19.92,0,0,1-3,1A14.07,14.07,0,0,1,411.88,498.19Zm-.65-25.78a4.47,4.47,0,0,0-1.77.34A3.32,3.32,0,0,0,408,474a8.72,8.72,0,0,0-1,2.65,22.64,22.64,0,0,0-.5,4.38h8.76c0-.08,0-.19,0-.34s0-.3,0-.46,0-.32,0-.47v-.31a18.12,18.12,0,0,0-.17-2.53,7.92,7.92,0,0,0-.62-2.28,4.3,4.3,0,0,0-1.25-1.64A3.14,3.14,0,0,0,411.23,472.41Z"/><path class="cls-1" d="M439.38,498.19a14.81,14.81,0,0,1-5.93-1.08,10.66,10.66,0,0,1-4.07-3,12.3,12.3,0,0,1-2.36-4.58,21.33,21.33,0,0,1-.76-5.81,18.17,18.17,0,0,1,1-6.11A13.1,13.1,0,0,1,430,473a11.61,11.61,0,0,1,4.22-2.89,14.4,14.4,0,0,1,5.47-1q10.14,0,10.57,9.89c0,1.13,0,2.14,0,3a14.25,14.25,0,0,1-.25,2.28H434a15.12,15.12,0,0,0,.71,4.13,8.1,8.1,0,0,0,1.54,2.78,5.61,5.61,0,0,0,2.26,1.57,8.23,8.23,0,0,0,2.87.48,13,13,0,0,0,2.32-.19,15.24,15.24,0,0,0,2-.49,11,11,0,0,0,1.66-.66,13.11,13.11,0,0,0,1.28-.71l1.27,3a9.68,9.68,0,0,1-1.7,1.33,16,16,0,0,1-2.49,1.28,19.92,19.92,0,0,1-3,1A14,14,0,0,1,439.38,498.19Zm-.66-25.78a4.47,4.47,0,0,0-1.77.34A3.32,3.32,0,0,0,435.5,474a8.72,8.72,0,0,0-1,2.65,22.64,22.64,0,0,0-.5,4.38h8.76c0-.08,0-.19,0-.34s0-.3,0-.46,0-.32,0-.47v-.31a18.12,18.12,0,0,0-.17-2.53,7.92,7.92,0,0,0-.62-2.28,4.3,4.3,0,0,0-1.25-1.64A3.14,3.14,0,0,0,438.72,472.41Z"/><path class="cls-1" d="M454.37,497.63v-3.28l3.14-.48V475.09l-3.32-1v-3.69l8.74-1.2h.13l1.29,1.05v2.91a14.49,14.49,0,0,1,1.9-1.44,15.86,15.86,0,0,1,2.39-1.25,17.61,17.61,0,0,1,2.69-.86,12.62,12.62,0,0,1,2.86-.33,10.87,10.87,0,0,1,3.92.61,5.27,5.27,0,0,1,2.5,1.95,8.89,8.89,0,0,1,1.32,3.45,28.6,28.6,0,0,1,.39,5.1v13.52l3.47.46v3.28H472v-3.28l2.66-.46V480.27a22.2,22.2,0,0,0-.17-2.92,5.48,5.48,0,0,0-.62-2,2.8,2.8,0,0,0-1.25-1.16,4.61,4.61,0,0,0-2-.38A7.47,7.47,0,0,0,469,474a9.11,9.11,0,0,0-1.53.48,9.4,9.4,0,0,0-1.31.64,9.84,9.84,0,0,0-1,.7v18.07l3.27.48v3.28Z"/><path class="cls-1" d="M488.64,497.63v-3.28l3.57-.46v-18.8l-3.3-1v-3.66l9-1.2H498l1.79,1.05v23.64l3.54.48v3.28Zm6.5-32.57a3.58,3.58,0,0,1-1.53-.32,3.27,3.27,0,0,1-1.12-.84,3.7,3.7,0,0,1-.69-1.25,5.08,5.08,0,0,1-.23-1.52,6.17,6.17,0,0,1,.26-1.8,4,4,0,0,1,.79-1.47,3.82,3.82,0,0,1,1.33-1,4.46,4.46,0,0,1,1.85-.36h0a4.09,4.09,0,0,1,1.72.33,3.6,3.6,0,0,1,1.21.88,3.33,3.33,0,0,1,.72,1.25,4.94,4.94,0,0,1,.23,1.49,5.93,5.93,0,0,1-.27,1.82,4.21,4.21,0,0,1-.81,1.47,3.74,3.74,0,0,1-1.42,1,5.31,5.31,0,0,1-2,.36Z"/><path class="cls-1" d="M506.9,497.63v-3.28l3.15-.48V475.09l-3.32-1v-3.69l8.74-1.2h.13l1.29,1.05v2.91a14.49,14.49,0,0,1,1.9-1.44,16.24,16.24,0,0,1,2.38-1.25,18.09,18.09,0,0,1,2.7-.86,12.62,12.62,0,0,1,2.86-.33,10.87,10.87,0,0,1,3.92.61,5.27,5.27,0,0,1,2.5,1.95,8.89,8.89,0,0,1,1.32,3.45,28.6,28.6,0,0,1,.39,5.1v13.52l3.47.46v3.28H524.58v-3.28l2.66-.46V480.27a22.2,22.2,0,0,0-.17-2.92,5.48,5.48,0,0,0-.62-2,2.8,2.8,0,0,0-1.25-1.16,4.64,4.64,0,0,0-2-.38,7.47,7.47,0,0,0-1.63.18,9.11,9.11,0,0,0-1.53.48,10.12,10.12,0,0,0-1.32.64,10.76,10.76,0,0,0-1,.7v18.07l3.27.48v3.28Z"/><path class="cls-1" d="M553.66,488.08a22.26,22.26,0,0,1-3.71-.29,3.51,3.51,0,0,0-.69,1A2.87,2.87,0,0,0,549,490a2.6,2.6,0,0,0,.32,1.37,2,2,0,0,0,1,.79,5.92,5.92,0,0,0,1.75.38c.71.07,1.56.1,2.55.1h4.88c3.52,0,6.13.59,7.85,1.78s2.58,3.14,2.58,5.84a8,8,0,0,1-1.29,4.46,11.23,11.23,0,0,1-3.45,3.41,17.42,17.42,0,0,1-5,2.17,22.59,22.59,0,0,1-6,.77h0a24.54,24.54,0,0,1-5.9-.61,12.64,12.64,0,0,1-4-1.68,6.81,6.81,0,0,1-2.32-2.57,7.21,7.21,0,0,1-.74-3.24,5.29,5.29,0,0,1,.41-2.11,7,7,0,0,1,1.1-1.81,7.55,7.55,0,0,1,1.6-1.43,8.37,8.37,0,0,1,1.89-.95,5.71,5.71,0,0,1-2.17-1.86,4.55,4.55,0,0,1-.76-2.63,5,5,0,0,1,1-3.14,9.55,9.55,0,0,1,2.49-2.26,7.74,7.74,0,0,1-3.67-3.17,9.63,9.63,0,0,1-1.19-4.89,8.08,8.08,0,0,1,1-4,9.4,9.4,0,0,1,2.7-3,13,13,0,0,1,4-1.95,16.94,16.94,0,0,1,4.86-.68h0q6.11,0,9.06,2.34a4.93,4.93,0,0,1,.93-.84,7.73,7.73,0,0,1,1.34-.77,10,10,0,0,1,1.68-.57,7.8,7.8,0,0,1,2-.23h1.14v5.47h-4.81a11.79,11.79,0,0,1,.43,1.63,9.84,9.84,0,0,1,.16,1.86,9,9,0,0,1-.92,4,9.39,9.39,0,0,1-2.58,3.18,12.37,12.37,0,0,1-4,2.1,16.15,16.15,0,0,1-5.1.76Zm-1.25,9.86a18.08,18.08,0,0,1-2.93-.22,6.14,6.14,0,0,0-.91,1.41,5.36,5.36,0,0,0-.43,2.38,7.81,7.81,0,0,0,.44,2.79,4.45,4.45,0,0,0,1.29,1.86,5.36,5.36,0,0,0,2.11,1,12.11,12.11,0,0,0,2.92.31H555a12.32,12.32,0,0,0,2.91-.34,8.36,8.36,0,0,0,2.52-1,5.62,5.62,0,0,0,1.79-1.74,4.54,4.54,0,0,0,.67-2.47,6.52,6.52,0,0,0-.23-1.83,2.57,2.57,0,0,0-.83-1.23,4,4,0,0,0-1.64-.7,13.67,13.67,0,0,0-2.65-.22Zm1.83-13.13h0a3.9,3.9,0,0,0,2.06-.5,3.56,3.56,0,0,0,1.28-1.36,6.15,6.15,0,0,0,.65-2,16.31,16.31,0,0,0,.18-2.47,8.08,8.08,0,0,0-1-4.67,3.88,3.88,0,0,0-3.4-1.46h0a3.78,3.78,0,0,0-3.34,1.47,7.85,7.85,0,0,0-1,4.47,15.31,15.31,0,0,0,.22,2.64,6,6,0,0,0,.76,2.08,3.75,3.75,0,0,0,1.43,1.34A4.66,4.66,0,0,0,554.24,484.81Z"/><path class="cls-1" d="M82.93,557.63V554.4l3.91-.66V534.07h-4.3v-2.93l4.3-1.22V528.5A11.19,11.19,0,0,1,88,523.29a13,13,0,0,1,3.08-4,13.6,13.6,0,0,1,4.2-2.51,12.71,12.71,0,0,1,4.56-.88,9.63,9.63,0,0,1,1.88.14,10,10,0,0,1,1,.27v7.3a3.74,3.74,0,0,0-.89-.67,8.74,8.74,0,0,0-1.3-.59A10.91,10.91,0,0,0,99,522a7.85,7.85,0,0,0-1.68-.17,4.49,4.49,0,0,0-1.2.14,2,2,0,0,0-.91.53,2.52,2.52,0,0,0-.59,1,5.43,5.43,0,0,0-.21,1.65l0,4.79h6.27v4.15H94.43v19.82l5.42.51v3.23Z"/><path class="cls-1" d="M103.39,543.81a16.65,16.65,0,0,1,1.15-6.47,13.31,13.31,0,0,1,3-4.59A12.46,12.46,0,0,1,112,530a15.22,15.22,0,0,1,5.21-.9,14.86,14.86,0,0,1,5.61,1,10.91,10.91,0,0,1,4.1,2.84,12.36,12.36,0,0,1,2.52,4.52,19.65,19.65,0,0,1,.85,6,17.3,17.3,0,0,1-1.14,6.59,13.06,13.06,0,0,1-3.06,4.58,12.13,12.13,0,0,1-4.39,2.66,15.64,15.64,0,0,1-5.2.87,14.87,14.87,0,0,1-5.62-1,11,11,0,0,1-4.11-2.85,12.25,12.25,0,0,1-2.53-4.51A19.74,19.74,0,0,1,103.39,543.81Zm13.52,11a4.33,4.33,0,0,0,2.32-.6,4.55,4.55,0,0,0,1.63-1.88,11,11,0,0,0,1-3.28,32.92,32.92,0,0,0,.3-4.79,40,40,0,0,0-.28-5.06,14.21,14.21,0,0,0-.9-3.7,5.29,5.29,0,0,0-1.64-2.26,4,4,0,0,0-2.47-.77,4.37,4.37,0,0,0-2.33.6,4.52,4.52,0,0,0-1.65,1.88,10.9,10.9,0,0,0-1,3.28,31.31,31.31,0,0,0-.32,4.79,38,38,0,0,0,.3,5.06,13.36,13.36,0,0,0,.94,3.7,5.47,5.47,0,0,0,1.66,2.26A4,4,0,0,0,116.91,554.82Z"/><path class="cls-1" d="M134,557.63v-3.28l3.51-.46v-18.8l-3.32-1v-3.69l8.35-1.2h.15l1.29,1.05v2l0,3.81h.1a10.69,10.69,0,0,1,1.06-2,13.65,13.65,0,0,1,1.9-2.29,11.54,11.54,0,0,1,2.62-1.91,6.64,6.64,0,0,1,3.21-.79,8.5,8.5,0,0,1,1.16.06,4.14,4.14,0,0,1,.67.16v8.45a4.47,4.47,0,0,0-1.41-.43,15.37,15.37,0,0,0-4.4-.13c-.57.06-1.11.15-1.6.25a9.27,9.27,0,0,0-1.33.38,4.3,4.3,0,0,0-.91.44v15.58l6.08.58v3.18Z"/><path class="cls-2" d="M173.21,557.63v-3.28l3-.48v-32.6l-3.67-.61v-2.85l9.5-1.2h.12l1.49,1.15.05,11.5-.39,3.88a15.37,15.37,0,0,1,6.6-3.5,12.24,12.24,0,0,1,3.12-.38,10.21,10.21,0,0,1,4,.66,5.48,5.48,0,0,1,2.48,2,9,9,0,0,1,1.29,3.46,27.33,27.33,0,0,1,.38,4.94v13.53l3.44.48v3.28H190.91v-3.18l2.71-.54V540.27a20.59,20.59,0,0,0-.17-2.92,5.29,5.29,0,0,0-.64-2,2.92,2.92,0,0,0-1.32-1.16,5.19,5.19,0,0,0-2.16-.38,7.85,7.85,0,0,0-1.57.17,13.11,13.11,0,0,0-1.55.43,11.73,11.73,0,0,0-1.4.58,7.06,7.06,0,0,0-1.1.67v18.22l3.35.48v3.28Z"/><path class="cls-2" d="M220.28,558.19a14.76,14.76,0,0,1-5.92-1.08,10.66,10.66,0,0,1-4.07-3,12.16,12.16,0,0,1-2.36-4.58,21,21,0,0,1-.76-5.81,17.93,17.93,0,0,1,1-6.11,13.1,13.1,0,0,1,2.72-4.59,11.61,11.61,0,0,1,4.22-2.89,14.4,14.4,0,0,1,5.47-1q10.14,0,10.57,9.89c0,1.13,0,2.14,0,3a14.12,14.12,0,0,1-.26,2.28H214.91a15.12,15.12,0,0,0,.71,4.13,7.94,7.94,0,0,0,1.54,2.78,5.61,5.61,0,0,0,2.26,1.57,8.23,8.23,0,0,0,2.87.48,12.86,12.86,0,0,0,2.31-.19,14.85,14.85,0,0,0,2-.49,10.63,10.63,0,0,0,1.66-.66,12.26,12.26,0,0,0,1.29-.71l1.27,3a9.68,9.68,0,0,1-1.7,1.33,17,17,0,0,1-2.49,1.28,20.29,20.29,0,0,1-3,1A14.07,14.07,0,0,1,220.28,558.19Zm-.66-25.78a4.54,4.54,0,0,0-1.77.34,3.35,3.35,0,0,0-1.44,1.29,8.72,8.72,0,0,0-1,2.65,22.64,22.64,0,0,0-.5,4.38h8.76c0-.08,0-.19,0-.34s0-.3,0-.46,0-.32,0-.47v-.31a19.79,19.79,0,0,0-.17-2.53,7.92,7.92,0,0,0-.62-2.28,4.3,4.3,0,0,0-1.25-1.64A3.18,3.18,0,0,0,219.62,532.41Z"/><path class="cls-2" d="M234.47,550.2a7.48,7.48,0,0,1,.64-3.19,7.86,7.86,0,0,1,1.79-2.45,10.72,10.72,0,0,1,2.67-1.78,19.44,19.44,0,0,1,3.32-1.21,25.89,25.89,0,0,1,3.71-.69c1.29-.15,2.57-.24,3.86-.27v-1.17a5.62,5.62,0,0,0-1.14-4,5,5,0,0,0-3.72-1.18,18.29,18.29,0,0,0-2.65.2c-.89.14-1.74.31-2.55.52a22.51,22.51,0,0,0-2.26.68q-1,.38-1.77.72h0l-1.44-3.27a12.66,12.66,0,0,1,1.73-1.09,21.17,21.17,0,0,1,2.93-1.3,28.34,28.34,0,0,1,3.78-1.1,19.56,19.56,0,0,1,4.28-.47,15.73,15.73,0,0,1,4.6.59,7.09,7.09,0,0,1,3.08,1.81,7.42,7.42,0,0,1,1.73,3.08,15.63,15.63,0,0,1,.55,4.41v15.24h3v3c-.31.06-.7.15-1.15.26s-1,.2-1.52.29-1.14.16-1.78.23-1.28.1-2,.1a12.55,12.55,0,0,1-1.5-.08,2,2,0,0,1-1-.34,1.43,1.43,0,0,1-.55-.77,4.11,4.11,0,0,1-.17-1.35v-1.42a9.52,9.52,0,0,1-1.15,1.25,10.12,10.12,0,0,1-1.77,1.29,10.36,10.36,0,0,1-2.36,1,9.82,9.82,0,0,1-2.9.41,11,11,0,0,1-3.25-.47,7.33,7.33,0,0,1-2.65-1.44,6.87,6.87,0,0,1-1.79-2.49A8.92,8.92,0,0,1,234.47,550.2Zm11.59,3.28a4.37,4.37,0,0,0,1-.13,8.83,8.83,0,0,0,1.17-.34,9.54,9.54,0,0,0,1.19-.52,5.31,5.31,0,0,0,1-.7v-8.08a15.38,15.38,0,0,0-4,.44,7.37,7.37,0,0,0-2.55,1.17,4.25,4.25,0,0,0-1.36,1.69,5.27,5.27,0,0,0-.4,2,4.9,4.9,0,0,0,1,3.31A3.62,3.62,0,0,0,246.06,553.48Z"/><path class="cls-2" d="M263.59,557.63v-3.28l3.52-.46v-18.8l-3.32-1v-3.69l8.35-1.2h.15l1.29,1.05v2l0,3.81h.1a11.34,11.34,0,0,1,1.06-2,13.73,13.73,0,0,1,1.91-2.29,11.7,11.7,0,0,1,2.61-1.91,6.69,6.69,0,0,1,3.21-.79,8.4,8.4,0,0,1,1.16.06,3.89,3.89,0,0,1,.67.16v8.45a4.47,4.47,0,0,0-1.4-.43,15.44,15.44,0,0,0-4.41-.13c-.57.06-1.1.15-1.6.25a9.66,9.66,0,0,0-1.33.38,4.18,4.18,0,0,0-.9.44v15.58l6.08.58v3.18Z"/><path class="cls-2" d="M290.16,551.77v-18h-3.45V531c.13,0,.34-.1.63-.2l.88-.33.81-.33a5.19,5.19,0,0,0,.47-.23,7.59,7.59,0,0,0,1.73-2.35c.16-.32.34-.7.54-1.13s.38-.89.57-1.36.36-.94.53-1.4.3-.88.41-1.26h4.35l.07,7.23h7.18v4.15H297.7v13.52c0,1.31,0,2.34.06,3.1a6,6,0,0,0,.29,1.74,1.22,1.22,0,0,0,.72.75,4.11,4.11,0,0,0,1.35.17h0a8.91,8.91,0,0,0,1.23-.09c.44-.07.86-.15,1.27-.24a10.14,10.14,0,0,0,1.15-.29c.35-.1.64-.2.87-.28h0l1.15,2.86a13.31,13.31,0,0,1-1.79,1.12,16.44,16.44,0,0,1-2.35,1,18.53,18.53,0,0,1-2.71.74,15.42,15.42,0,0,1-2.87.28h-.05a7.93,7.93,0,0,1-2.74-.42,4.21,4.21,0,0,1-1.83-1.23,5,5,0,0,1-1-2A10.93,10.93,0,0,1,290.16,551.77Z"/><path class="cls-2" d="M323.55,557.63v-3.28l3-.48v-32.6l-3.66-.61v-2.85l9.49-1.2h.12l1.49,1.15.05,11.5-.39,3.88a15.32,15.32,0,0,1,6.61-3.5,12.1,12.1,0,0,1,3.11-.38,10.21,10.21,0,0,1,3.95.66,5.43,5.43,0,0,1,2.48,2,9.16,9.16,0,0,1,1.3,3.46,28.36,28.36,0,0,1,.37,4.94v13.53l3.45.48v3.28H341.25v-3.18l2.71-.54V540.27a20.59,20.59,0,0,0-.17-2.92,5.29,5.29,0,0,0-.64-2,2.92,2.92,0,0,0-1.32-1.16,5.16,5.16,0,0,0-2.16-.38,7.68,7.68,0,0,0-1.56.17,12.13,12.13,0,0,0-1.55.43,11.23,11.23,0,0,0-1.41.58,7.57,7.57,0,0,0-1.1.67v18.22l3.35.48v3.28Z"/><path class="cls-2" d="M370.62,558.19a14.8,14.8,0,0,1-5.92-1.08,10.66,10.66,0,0,1-4.07-3,12.3,12.3,0,0,1-2.36-4.58,21.33,21.33,0,0,1-.76-5.81,18.17,18.17,0,0,1,1-6.11A13.1,13.1,0,0,1,361.2,533a11.61,11.61,0,0,1,4.22-2.89,14.4,14.4,0,0,1,5.47-1q10.14,0,10.57,9.89c0,1.13,0,2.14,0,3a14.25,14.25,0,0,1-.25,2.28H365.25a15.12,15.12,0,0,0,.71,4.13,8.1,8.1,0,0,0,1.54,2.78,5.61,5.61,0,0,0,2.26,1.57,8.23,8.23,0,0,0,2.87.48,13,13,0,0,0,2.32-.19,15.24,15.24,0,0,0,2-.49,11,11,0,0,0,1.66-.66,13.11,13.11,0,0,0,1.28-.71l1.27,3a9.68,9.68,0,0,1-1.7,1.33,16,16,0,0,1-2.49,1.28,19.92,19.92,0,0,1-3,1A14.07,14.07,0,0,1,370.62,558.19ZM370,532.41a4.47,4.47,0,0,0-1.77.34,3.32,3.32,0,0,0-1.45,1.29,8.72,8.72,0,0,0-1,2.65,22.64,22.64,0,0,0-.5,4.38H374c0-.08,0-.19,0-.34s0-.3,0-.46,0-.32,0-.47v-.31a18.12,18.12,0,0,0-.17-2.53,7.92,7.92,0,0,0-.62-2.28A4.3,4.3,0,0,0,372,533,3.14,3.14,0,0,0,370,532.41Z"/><path class="cls-2" d="M384.81,550.2a7.48,7.48,0,0,1,.65-3.19,7.68,7.68,0,0,1,1.78-2.45,11.1,11.1,0,0,1,2.67-1.78,19.44,19.44,0,0,1,3.32-1.21,25.89,25.89,0,0,1,3.71-.69c1.29-.15,2.57-.24,3.86-.27v-1.17a5.67,5.67,0,0,0-1.13-4,5,5,0,0,0-3.73-1.18,18.29,18.29,0,0,0-2.65.2c-.88.14-1.73.31-2.55.52a23.33,23.33,0,0,0-2.26.68q-1,.38-1.77.72h0l-1.44-3.27a12.66,12.66,0,0,1,1.73-1.09,21.72,21.72,0,0,1,2.93-1.3,28.06,28.06,0,0,1,3.79-1.1,19.4,19.4,0,0,1,4.27-.47,15.68,15.68,0,0,1,4.6.59,7.09,7.09,0,0,1,3.08,1.81,7.31,7.31,0,0,1,1.73,3.08,15.63,15.63,0,0,1,.55,4.41v15.24h3v3c-.31.06-.7.15-1.15.26s-1,.2-1.51.29-1.15.16-1.79.23-1.28.1-1.95.1a12.55,12.55,0,0,1-1.5-.08,2,2,0,0,1-1-.34,1.48,1.48,0,0,1-.55-.77,4.11,4.11,0,0,1-.17-1.35v-1.42a9.52,9.52,0,0,1-1.15,1.25,10.12,10.12,0,0,1-1.77,1.29,10.36,10.36,0,0,1-2.36,1,9.77,9.77,0,0,1-2.9.41,11,11,0,0,1-3.25-.47,7.33,7.33,0,0,1-2.65-1.44,6.87,6.87,0,0,1-1.79-2.49A8.92,8.92,0,0,1,384.81,550.2Zm11.6,3.28a4.36,4.36,0,0,0,1-.13,8.83,8.83,0,0,0,1.17-.34,9.67,9.67,0,0,0,1.2-.52,5.23,5.23,0,0,0,1-.7v-8.08a15.38,15.38,0,0,0-4,.44,7.37,7.37,0,0,0-2.55,1.17,4.22,4.22,0,0,0-1.35,1.69,5.1,5.1,0,0,0-.41,2,4.9,4.9,0,0,0,1,3.31A3.64,3.64,0,0,0,396.41,553.48Z"/><path class="cls-2" d="M413.18,557.63v-3.28l3.54-.48v-32.6l-3.64-.61v-2.85l9.55-1.2h.07l1.54,1.15v36.11l3.68.48v3.28Z"/><path class="cls-2" d="M433.88,551.77v-18h-3.44V531c.13,0,.34-.1.62-.2l.88-.33.82-.33a4.54,4.54,0,0,0,.46-.23,7.59,7.59,0,0,0,1.74-2.35c.16-.32.34-.7.53-1.13s.39-.89.58-1.36.36-.94.52-1.4.3-.88.42-1.26h4.34l.08,7.23h7.17v4.15h-7.17v13.52c0,1.31,0,2.34.06,3.1a5.64,5.64,0,0,0,.29,1.74,1.17,1.17,0,0,0,.72.75,4,4,0,0,0,1.34.17h0a8.91,8.91,0,0,0,1.23-.09c.43-.07.86-.15,1.27-.24a10.14,10.14,0,0,0,1.15-.29c.35-.1.64-.2.86-.28h0l1.15,2.86a12.86,12.86,0,0,1-1.8,1.12,16.8,16.8,0,0,1-2.34,1,18.88,18.88,0,0,1-2.71.74,15.42,15.42,0,0,1-2.87.28h0a8,8,0,0,1-2.75-.42,4.33,4.33,0,0,1-1.83-1.23,5.15,5.15,0,0,1-1-2A10.9,10.9,0,0,1,433.88,551.77Z"/><path class="cls-2" d="M451.58,557.63v-3.28l3-.48v-32.6l-3.66-.61v-2.85l9.5-1.2h.12l1.49,1.15.05,11.5-.39,3.88a15.37,15.37,0,0,1,6.6-3.5,12.24,12.24,0,0,1,3.12-.38,10.21,10.21,0,0,1,3.95.66,5.48,5.48,0,0,1,2.48,2,9,9,0,0,1,1.29,3.46,27.33,27.33,0,0,1,.38,4.94v13.53l3.44.48v3.28H469.28v-3.18l2.71-.54V540.27a22.2,22.2,0,0,0-.17-2.92,5.12,5.12,0,0,0-.65-2,2.84,2.84,0,0,0-1.31-1.16,5.23,5.23,0,0,0-2.16-.38,7.85,7.85,0,0,0-1.57.17,13.11,13.11,0,0,0-1.55.43,11.73,11.73,0,0,0-1.4.58,7.06,7.06,0,0,0-1.1.67v18.22l3.34.48v3.28Z"/><path class="cls-2" d="M492.18,558a4.93,4.93,0,0,1-1.63-.27,4.11,4.11,0,0,1-1.37-.78,3.78,3.78,0,0,1-.93-1.23,3.71,3.71,0,0,1-.34-1.63,4.34,4.34,0,0,1,.39-1.84,4.74,4.74,0,0,1,1.08-1.48,4.84,4.84,0,0,1,1.58-1,5.17,5.17,0,0,1,1.93-.36,5.76,5.76,0,0,1,2,.32,3.8,3.8,0,0,1,1.35.85,3.29,3.29,0,0,1,.76,1.25,5,5,0,0,1,.23,1.51,4.72,4.72,0,0,1-.38,1.91,4.17,4.17,0,0,1-1.05,1.46,4.59,4.59,0,0,1-1.61.94A6.1,6.1,0,0,1,492.18,558Z"/><path class="cls-1" d="M80,497.63l0-3.35,3.15-.68,11.76-33.28h7.84l11.74,33.28,3.4.68v3.35H102v-3.35l4-.68-1.83-6H90.86l-1.73,6,4,.66v3.35ZM96.5,468.08,92,483.83h11l-4.81-15.75-.85-3.56Z"/><path class="cls-1" d="M134.79,496.06V489.2h4.49l1.27,3.81a2.59,2.59,0,0,0,.67.64,5.11,5.11,0,0,0,1.07.56,9.16,9.16,0,0,0,1.41.4,7.84,7.84,0,0,0,1.63.16,5.77,5.77,0,0,0,2-.29,3.57,3.57,0,0,0,1.23-.75,2.32,2.32,0,0,0,.64-1,4.11,4.11,0,0,0,.17-1.11,3,3,0,0,0-.52-1.77,5.23,5.23,0,0,0-1.49-1.37,15.32,15.32,0,0,0-2.34-1.21L142,486a17.86,17.86,0,0,1-3-1.53,10.25,10.25,0,0,1-2.28-1.89,7.48,7.48,0,0,1-2-5.25,7.26,7.26,0,0,1,.72-3.21,7.13,7.13,0,0,1,2.14-2.56,10.84,10.84,0,0,1,3.51-1.71,17,17,0,0,1,4.86-.62,18.9,18.9,0,0,1,2.87.19q1.26.19,2.28.45c.69.18,1.31.35,1.88.54a12.72,12.72,0,0,0,1.66.43v6.74l-4.24-.08-1.15-3.24a3.35,3.35,0,0,0-1.3-1.09,5.17,5.17,0,0,0-2.41-.55,5.79,5.79,0,0,0-1.85.25,3.29,3.29,0,0,0-1.19.65,2.55,2.55,0,0,0-.65.92,2.74,2.74,0,0,0-.19,1,3.26,3.26,0,0,0,.65,2.09A5.62,5.62,0,0,0,144,478.9a14.34,14.34,0,0,0,2.2,1c.8.28,1.56.59,2.27.91,1.08.48,2.1,1,3.08,1.51a12.39,12.39,0,0,1,2.6,1.84,8.12,8.12,0,0,1,1.81,2.43,7.52,7.52,0,0,1,.67,3.28,7.72,7.72,0,0,1-.7,3.3,7,7,0,0,1-2.1,2.63,10.23,10.23,0,0,1-3.51,1.76,17,17,0,0,1-4.95.64,21.37,21.37,0,0,1-3.53-.27c-1.06-.18-2-.39-2.9-.62s-1.65-.48-2.33-.71S135.29,496.18,134.79,496.06Z"/><path class="cls-1" d="M160.3,497.63v-3.28l3.56-.46v-18.8l-3.29-1v-3.66l9-1.2h.12l1.78,1.05v23.64l3.54.48v3.28Zm6.49-32.57a3.5,3.5,0,0,1-1.52-.32,3.31,3.31,0,0,1-1.13-.84,3.52,3.52,0,0,1-.68-1.25,4.79,4.79,0,0,1-.23-1.52,6.17,6.17,0,0,1,.25-1.8,4.19,4.19,0,0,1,.8-1.47,3.73,3.73,0,0,1,1.33-1,4.41,4.41,0,0,1,1.84-.36h0a4.12,4.12,0,0,1,1.72.33,3.53,3.53,0,0,1,1.93,2.13,4.94,4.94,0,0,1,.23,1.49,5.93,5.93,0,0,1-.27,1.82,4.08,4.08,0,0,1-.82,1.47,3.66,3.66,0,0,1-1.42,1,5.22,5.22,0,0,1-2,.36Z"/><path class="cls-1" d="M178.66,497.63v-3.18l3.05-.56v-18.8l-3.32-1v-3.69l8.64-1.2h.12l1.3,1.05v2.91a11.42,11.42,0,0,1,2-1.47,17.6,17.6,0,0,1,2.54-1.24,18.91,18.91,0,0,1,2.77-.86,12.33,12.33,0,0,1,2.68-.31,9.43,9.43,0,0,1,4.47.9,5.75,5.75,0,0,1,2.52,2.88,11.79,11.79,0,0,1,1.79-1.28,18,18,0,0,1,2.45-1.22,21.14,21.14,0,0,1,2.82-.92,12.13,12.13,0,0,1,2.87-.36,10.83,10.83,0,0,1,3.83.58,5.21,5.21,0,0,1,2.47,1.91,8.61,8.61,0,0,1,1.32,3.43,28.77,28.77,0,0,1,.39,5.14v13.57l3.44.56v3.18H213.28v-3.18l2.56-.56V480.54a20.48,20.48,0,0,0-.21-3.19,6,6,0,0,0-.69-2.11,2.87,2.87,0,0,0-1.32-1.17,5.09,5.09,0,0,0-2.08-.37,6.22,6.22,0,0,0-1.34.17,15.21,15.21,0,0,0-1.46.43,15,15,0,0,0-1.42.57,10.89,10.89,0,0,0-1.2.64,17.69,17.69,0,0,1,.27,2.23c.05.81.07,1.68.07,2.63v13.54l3.25.54v3.18H196v-3.18l2.93-.54V480.27a18.84,18.84,0,0,0-.2-2.92,5.46,5.46,0,0,0-.67-2,2.9,2.9,0,0,0-1.29-1.16,4.8,4.8,0,0,0-2.06-.38,7.54,7.54,0,0,0-1.53.17,13.11,13.11,0,0,0-1.55.43,9.83,9.83,0,0,0-1.39.58,7.84,7.84,0,0,0-1.08.67v18.24l3.3.56v3.18Z"/><path class="cls-1" d="M229.24,506.63l3.67-.61V475.09l-3.33-1v-3.69l8.75-1.2h.12l1.24,1.05v2.59a11.92,11.92,0,0,1,1.44-1.38,10,10,0,0,1,1.86-1.18,11.41,11.41,0,0,1,2.24-.83,10.61,10.61,0,0,1,2.64-.32,11.49,11.49,0,0,1,4.21.76,8.64,8.64,0,0,1,3.43,2.4,11.7,11.7,0,0,1,2.31,4.26,20.71,20.71,0,0,1,.84,6.3,17.92,17.92,0,0,1-1,6,14.3,14.3,0,0,1-2.84,4.87,13,13,0,0,1-4.52,3.26,14.57,14.57,0,0,1-6,1.19c-.41,0-.81,0-1.21-.05s-.78-.07-1.15-.12l-1-.15c-.29-.05-.53-.1-.71-.15l.15,4.06V506l4.83.61v3.11h-16Zm15.53-33.08a6.18,6.18,0,0,0-2.61.53,5.45,5.45,0,0,0-1.76,1.18v18.48a3.35,3.35,0,0,0,1.34.82,6.24,6.24,0,0,0,2.25.36,5.7,5.7,0,0,0,2.5-.58,5.19,5.19,0,0,0,2.06-1.89A11,11,0,0,0,250,489a23.91,23.91,0,0,0,.59-5.27,21.53,21.53,0,0,0-.36-4.69,9.79,9.79,0,0,0-1.16-3.15,4.71,4.71,0,0,0-1.84-1.77A5.36,5.36,0,0,0,244.77,473.55Z"/><path class="cls-1" d="M261.79,497.63v-3.28l3.54-.48v-32.6l-3.64-.61v-2.85l9.55-1.2h.07l1.54,1.15v36.11l3.68.48v3.28Z"/><path class="cls-1" d="M292.5,498.19a14.76,14.76,0,0,1-5.92-1.08,10.77,10.77,0,0,1-4.08-3,12.29,12.29,0,0,1-2.35-4.58,21,21,0,0,1-.76-5.81,18.18,18.18,0,0,1,1-6.11,13.12,13.12,0,0,1,2.73-4.59,11.61,11.61,0,0,1,4.22-2.89,14.36,14.36,0,0,1,5.47-1q10.13,0,10.57,9.89c0,1.13,0,2.14,0,3a14.12,14.12,0,0,1-.26,2.28H287.13a15.12,15.12,0,0,0,.71,4.13,7.94,7.94,0,0,0,1.54,2.78,5.57,5.57,0,0,0,2.25,1.57,8.27,8.27,0,0,0,2.87.48,13,13,0,0,0,2.32-.19,14.85,14.85,0,0,0,2-.49,11,11,0,0,0,1.66-.66,12,12,0,0,0,1.28-.71l1.27,3a9.21,9.21,0,0,1-1.69,1.33,16.64,16.64,0,0,1-2.5,1.28,19.79,19.79,0,0,1-3,1A14.13,14.13,0,0,1,292.5,498.19Zm-.66-25.78a4.54,4.54,0,0,0-1.77.34,3.35,3.35,0,0,0-1.44,1.29,8.71,8.71,0,0,0-1,2.65,24.34,24.34,0,0,0-.5,4.38h8.77c0-.08,0-.19,0-.34l0-.46c0-.16,0-.32,0-.47v-.31a19.79,19.79,0,0,0-.17-2.53,7.92,7.92,0,0,0-.63-2.28,4.28,4.28,0,0,0-1.24-1.64A3.18,3.18,0,0,0,291.84,472.41Z"/><path class="cls-1" d="M323.6,496.06V489.2h4.5l1.27,3.81a2.59,2.59,0,0,0,.67.64,5.11,5.11,0,0,0,1.07.56,9.35,9.35,0,0,0,1.4.4,8,8,0,0,0,1.64.16,5.81,5.81,0,0,0,2-.29,3.67,3.67,0,0,0,1.23-.75,2.41,2.41,0,0,0,.64-1,4.11,4.11,0,0,0,.17-1.11,3,3,0,0,0-.53-1.77,5.1,5.1,0,0,0-1.49-1.37,15.18,15.18,0,0,0-2.33-1.21l-3-1.27a17.86,17.86,0,0,1-3-1.53,10.25,10.25,0,0,1-2.28-1.89,7.73,7.73,0,0,1-1.46-2.34,7.86,7.86,0,0,1-.51-2.91,7.26,7.26,0,0,1,.72-3.21,7.13,7.13,0,0,1,2.14-2.56,10.84,10.84,0,0,1,3.51-1.71,17,17,0,0,1,4.86-.62,19,19,0,0,1,2.87.19q1.26.19,2.28.45c.69.18,1.31.35,1.88.54a12.72,12.72,0,0,0,1.66.43v6.74l-4.25-.08-1.14-3.24a3.35,3.35,0,0,0-1.3-1.09,5.17,5.17,0,0,0-2.41-.55,5.79,5.79,0,0,0-1.85.25,3.29,3.29,0,0,0-1.19.65,2.43,2.43,0,0,0-.65.92,2.75,2.75,0,0,0-.2,1,3.21,3.21,0,0,0,.66,2.09,5.62,5.62,0,0,0,1.66,1.38,14.34,14.34,0,0,0,2.2,1c.8.28,1.55.59,2.27.91,1.08.48,2.1,1,3.08,1.51a12.65,12.65,0,0,1,2.6,1.84,8.09,8.09,0,0,1,1.8,2.43,7.38,7.38,0,0,1,.68,3.28,7.87,7.87,0,0,1-.7,3.3,7,7,0,0,1-2.1,2.63,10.28,10.28,0,0,1-3.52,1.76,16.92,16.92,0,0,1-4.94.64,21.28,21.28,0,0,1-3.53-.27c-1.06-.18-2-.39-2.9-.62s-1.65-.48-2.33-.71A18,18,0,0,0,323.6,496.06Z"/><path class="cls-1" d="M348.87,484a17.58,17.58,0,0,1,1-6,13.62,13.62,0,0,1,2.82-4.7,12.58,12.58,0,0,1,4.43-3.05,14.87,14.87,0,0,1,5.82-1.09,23.2,23.2,0,0,1,3,.18c.91.12,1.72.27,2.44.43s1.33.33,1.85.5.95.31,1.27.4l-.24,8.33H367l-1.41-4.3a4.75,4.75,0,0,0-1.32-1.61,3.1,3.1,0,0,0-1.91-.59,4.28,4.28,0,0,0-2.08.55,5.11,5.11,0,0,0-1.76,1.74,9.9,9.9,0,0,0-1.23,3.06,19.19,19.19,0,0,0-.47,4.54,23.41,23.41,0,0,0,.48,5.13,9.49,9.49,0,0,0,1.39,3.39,5.24,5.24,0,0,0,2.23,1.87,7.41,7.41,0,0,0,3,.57,11.25,11.25,0,0,0,3.92-.61,15,15,0,0,0,2.77-1.31l1.29,2.95a8.48,8.48,0,0,1-1.48,1.23,14.18,14.18,0,0,1-2.24,1.26,16.77,16.77,0,0,1-2.83,1,13.31,13.31,0,0,1-3.24.39,14.85,14.85,0,0,1-5.93-1.08,10.81,10.81,0,0,1-4.09-3,12.2,12.2,0,0,1-2.37-4.5A19.94,19.94,0,0,1,348.87,484Z"/><path class="cls-1" d="M375.31,497.63v-3.28l3.52-.46v-18.8l-3.32-1v-3.69l8.35-1.2H384l1.3,1.05v2l0,3.81h.1a11.34,11.34,0,0,1,1.06-2,13.73,13.73,0,0,1,1.91-2.29A11.26,11.26,0,0,1,391,469.9a6.64,6.64,0,0,1,3.21-.79,8.5,8.5,0,0,1,1.16.06,3.89,3.89,0,0,1,.67.16v8.45a4.47,4.47,0,0,0-1.4-.43,15.44,15.44,0,0,0-4.41-.13c-.57.06-1.1.15-1.6.25a9.27,9.27,0,0,0-1.33.38,4.18,4.18,0,0,0-.9.44v15.58l6.08.58v3.18Z"/><path class="cls-1" d="M411.88,498.19a14.8,14.8,0,0,1-5.92-1.08,10.66,10.66,0,0,1-4.07-3,12.3,12.3,0,0,1-2.36-4.58,21.33,21.33,0,0,1-.76-5.81,18.17,18.17,0,0,1,1-6.11,13.1,13.1,0,0,1,2.72-4.59,11.61,11.61,0,0,1,4.22-2.89,14.4,14.4,0,0,1,5.47-1q10.14,0,10.57,9.89c0,1.13,0,2.14,0,3a14.25,14.25,0,0,1-.25,2.28H406.51a15.12,15.12,0,0,0,.71,4.13,7.94,7.94,0,0,0,1.54,2.78,5.61,5.61,0,0,0,2.26,1.57,8.23,8.23,0,0,0,2.87.48,13,13,0,0,0,2.32-.19,15.65,15.65,0,0,0,2-.49,11,11,0,0,0,1.66-.66,13.11,13.11,0,0,0,1.28-.71l1.27,3a9.68,9.68,0,0,1-1.7,1.33,16,16,0,0,1-2.49,1.28,19.92,19.92,0,0,1-3,1A14.07,14.07,0,0,1,411.88,498.19Zm-.65-25.78a4.47,4.47,0,0,0-1.77.34A3.32,3.32,0,0,0,408,474a8.72,8.72,0,0,0-1,2.65,22.64,22.64,0,0,0-.5,4.38h8.76c0-.08,0-.19,0-.34s0-.3,0-.46,0-.32,0-.47v-.31a18.12,18.12,0,0,0-.17-2.53,7.92,7.92,0,0,0-.62-2.28,4.3,4.3,0,0,0-1.25-1.64A3.14,3.14,0,0,0,411.23,472.41Z"/><path class="cls-1" d="M439.38,498.19a14.81,14.81,0,0,1-5.93-1.08,10.66,10.66,0,0,1-4.07-3,12.3,12.3,0,0,1-2.36-4.58,21.33,21.33,0,0,1-.76-5.81,18.17,18.17,0,0,1,1-6.11A13.1,13.1,0,0,1,430,473a11.61,11.61,0,0,1,4.22-2.89,14.4,14.4,0,0,1,5.47-1q10.14,0,10.57,9.89c0,1.13,0,2.14,0,3a14.25,14.25,0,0,1-.25,2.28H434a15.12,15.12,0,0,0,.71,4.13,8.1,8.1,0,0,0,1.54,2.78,5.61,5.61,0,0,0,2.26,1.57,8.23,8.23,0,0,0,2.87.48,13,13,0,0,0,2.32-.19,15.24,15.24,0,0,0,2-.49,11,11,0,0,0,1.66-.66,13.11,13.11,0,0,0,1.28-.71l1.27,3a9.68,9.68,0,0,1-1.7,1.33,16,16,0,0,1-2.49,1.28,19.92,19.92,0,0,1-3,1A14,14,0,0,1,439.38,498.19Zm-.66-25.78a4.47,4.47,0,0,0-1.77.34A3.32,3.32,0,0,0,435.5,474a8.72,8.72,0,0,0-1,2.65,22.64,22.64,0,0,0-.5,4.38h8.76c0-.08,0-.19,0-.34s0-.3,0-.46,0-.32,0-.47v-.31a18.12,18.12,0,0,0-.17-2.53,7.92,7.92,0,0,0-.62-2.28,4.3,4.3,0,0,0-1.25-1.64A3.14,3.14,0,0,0,438.72,472.41Z"/><path class="cls-1" d="M454.37,497.63v-3.28l3.14-.48V475.09l-3.32-1v-3.69l8.74-1.2h.13l1.29,1.05v2.91a14.49,14.49,0,0,1,1.9-1.44,15.86,15.86,0,0,1,2.39-1.25,17.61,17.61,0,0,1,2.69-.86,12.62,12.62,0,0,1,2.86-.33,10.87,10.87,0,0,1,3.92.61,5.27,5.27,0,0,1,2.5,1.95,8.89,8.89,0,0,1,1.32,3.45,28.6,28.6,0,0,1,.39,5.1v13.52l3.47.46v3.28H472v-3.28l2.66-.46V480.27a22.2,22.2,0,0,0-.17-2.92,5.48,5.48,0,0,0-.62-2,2.8,2.8,0,0,0-1.25-1.16,4.61,4.61,0,0,0-2-.38A7.47,7.47,0,0,0,469,474a9.11,9.11,0,0,0-1.53.48,9.4,9.4,0,0,0-1.31.64,9.84,9.84,0,0,0-1,.7v18.07l3.27.48v3.28Z"/><path class="cls-1" d="M488.64,497.63v-3.28l3.57-.46v-18.8l-3.3-1v-3.66l9-1.2H498l1.79,1.05v23.64l3.54.48v3.28Zm6.5-32.57a3.58,3.58,0,0,1-1.53-.32,3.27,3.27,0,0,1-1.12-.84,3.7,3.7,0,0,1-.69-1.25,5.08,5.08,0,0,1-.23-1.52,6.17,6.17,0,0,1,.26-1.8,4,4,0,0,1,.79-1.47,3.82,3.82,0,0,1,1.33-1,4.46,4.46,0,0,1,1.85-.36h0a4.09,4.09,0,0,1,1.72.33,3.6,3.6,0,0,1,1.21.88,3.33,3.33,0,0,1,.72,1.25,4.94,4.94,0,0,1,.23,1.49,5.93,5.93,0,0,1-.27,1.82,4.21,4.21,0,0,1-.81,1.47,3.74,3.74,0,0,1-1.42,1,5.31,5.31,0,0,1-2,.36Z"/><path class="cls-1" d="M506.9,497.63v-3.28l3.15-.48V475.09l-3.32-1v-3.69l8.74-1.2h.13l1.29,1.05v2.91a14.49,14.49,0,0,1,1.9-1.44,16.24,16.24,0,0,1,2.38-1.25,18.09,18.09,0,0,1,2.7-.86,12.62,12.62,0,0,1,2.86-.33,10.87,10.87,0,0,1,3.92.61,5.27,5.27,0,0,1,2.5,1.95,8.89,8.89,0,0,1,1.32,3.45,28.6,28.6,0,0,1,.39,5.1v13.52l3.47.46v3.28H524.58v-3.28l2.66-.46V480.27a22.2,22.2,0,0,0-.17-2.92,5.48,5.48,0,0,0-.62-2,2.8,2.8,0,0,0-1.25-1.16,4.64,4.64,0,0,0-2-.38,7.47,7.47,0,0,0-1.63.18,9.11,9.11,0,0,0-1.53.48,10.12,10.12,0,0,0-1.32.64,10.76,10.76,0,0,0-1,.7v18.07l3.27.48v3.28Z"/><path class="cls-1" d="M553.66,488.08a22.26,22.26,0,0,1-3.71-.29,3.51,3.51,0,0,0-.69,1A2.87,2.87,0,0,0,549,490a2.6,2.6,0,0,0,.32,1.37,2,2,0,0,0,1,.79,5.92,5.92,0,0,0,1.75.38c.71.07,1.56.1,2.55.1h4.88c3.52,0,6.13.59,7.85,1.78s2.58,3.14,2.58,5.84a8,8,0,0,1-1.29,4.46,11.23,11.23,0,0,1-3.45,3.41,17.42,17.42,0,0,1-5,2.17,22.59,22.59,0,0,1-6,.77h0a24.54,24.54,0,0,1-5.9-.61,12.64,12.64,0,0,1-4-1.68,6.81,6.81,0,0,1-2.32-2.57,7.21,7.21,0,0,1-.74-3.24,5.29,5.29,0,0,1,.41-2.11,7,7,0,0,1,1.1-1.81,7.55,7.55,0,0,1,1.6-1.43,8.37,8.37,0,0,1,1.89-.95,5.71,5.71,0,0,1-2.17-1.86,4.55,4.55,0,0,1-.76-2.63,5,5,0,0,1,1-3.14,9.55,9.55,0,0,1,2.49-2.26,7.74,7.74,0,0,1-3.67-3.17,9.63,9.63,0,0,1-1.19-4.89,8.08,8.08,0,0,1,1-4,9.4,9.4,0,0,1,2.7-3,13,13,0,0,1,4-1.95,16.94,16.94,0,0,1,4.86-.68h0q6.11,0,9.06,2.34a4.93,4.93,0,0,1,.93-.84,7.73,7.73,0,0,1,1.34-.77,10,10,0,0,1,1.68-.57,7.8,7.8,0,0,1,2-.23h1.14v5.47h-4.81a11.79,11.79,0,0,1,.43,1.63,9.84,9.84,0,0,1,.16,1.86,9,9,0,0,1-.92,4,9.39,9.39,0,0,1-2.58,3.18,12.37,12.37,0,0,1-4,2.1,16.15,16.15,0,0,1-5.1.76Zm-1.25,9.86a18.08,18.08,0,0,1-2.93-.22,6.14,6.14,0,0,0-.91,1.41,5.36,5.36,0,0,0-.43,2.38,7.81,7.81,0,0,0,.44,2.79,4.45,4.45,0,0,0,1.29,1.86,5.36,5.36,0,0,0,2.11,1,12.11,12.11,0,0,0,2.92.31H555a12.32,12.32,0,0,0,2.91-.34,8.36,8.36,0,0,0,2.52-1,5.62,5.62,0,0,0,1.79-1.74,4.54,4.54,0,0,0,.67-2.47,6.52,6.52,0,0,0-.23-1.83,2.57,2.57,0,0,0-.83-1.23,4,4,0,0,0-1.64-.7,13.67,13.67,0,0,0-2.65-.22Zm1.83-13.13h0a3.9,3.9,0,0,0,2.06-.5,3.56,3.56,0,0,0,1.28-1.36,6.15,6.15,0,0,0,.65-2,16.31,16.31,0,0,0,.18-2.47,8.08,8.08,0,0,0-1-4.67,3.88,3.88,0,0,0-3.4-1.46h0a3.78,3.78,0,0,0-3.34,1.47,7.85,7.85,0,0,0-1,4.47,15.31,15.31,0,0,0,.22,2.64,6,6,0,0,0,.76,2.08,3.75,3.75,0,0,0,1.43,1.34A4.66,4.66,0,0,0,554.24,484.81Z"/><path class="cls-1" d="M82.93,557.63V554.4l3.91-.66V534.07h-4.3v-2.93l4.3-1.22V528.5A11.19,11.19,0,0,1,88,523.29a13,13,0,0,1,3.08-4,13.6,13.6,0,0,1,4.2-2.51,12.71,12.71,0,0,1,4.56-.88,9.63,9.63,0,0,1,1.88.14,10,10,0,0,1,1,.27v7.3a3.74,3.74,0,0,0-.89-.67,8.74,8.74,0,0,0-1.3-.59A10.91,10.91,0,0,0,99,522a7.85,7.85,0,0,0-1.68-.17,4.49,4.49,0,0,0-1.2.14,2,2,0,0,0-.91.53,2.52,2.52,0,0,0-.59,1,5.43,5.43,0,0,0-.21,1.65l0,4.79h6.27v4.15H94.43v19.82l5.42.51v3.23Z"/><path class="cls-1" d="M103.39,543.81a16.65,16.65,0,0,1,1.15-6.47,13.31,13.31,0,0,1,3-4.59A12.46,12.46,0,0,1,112,530a15.22,15.22,0,0,1,5.21-.9,14.86,14.86,0,0,1,5.61,1,10.91,10.91,0,0,1,4.1,2.84,12.36,12.36,0,0,1,2.52,4.52,19.65,19.65,0,0,1,.85,6,17.3,17.3,0,0,1-1.14,6.59,13.06,13.06,0,0,1-3.06,4.58,12.13,12.13,0,0,1-4.39,2.66,15.64,15.64,0,0,1-5.2.87,14.87,14.87,0,0,1-5.62-1,11,11,0,0,1-4.11-2.85,12.25,12.25,0,0,1-2.53-4.51A19.74,19.74,0,0,1,103.39,543.81Zm13.52,11a4.33,4.33,0,0,0,2.32-.6,4.55,4.55,0,0,0,1.63-1.88,11,11,0,0,0,1-3.28,32.92,32.92,0,0,0,.3-4.79,40,40,0,0,0-.28-5.06,14.21,14.21,0,0,0-.9-3.7,5.29,5.29,0,0,0-1.64-2.26,4,4,0,0,0-2.47-.77,4.37,4.37,0,0,0-2.33.6,4.52,4.52,0,0,0-1.65,1.88,10.9,10.9,0,0,0-1,3.28,31.31,31.31,0,0,0-.32,4.79,38,38,0,0,0,.3,5.06,13.36,13.36,0,0,0,.94,3.7,5.47,5.47,0,0,0,1.66,2.26A4,4,0,0,0,116.91,554.82Z"/><path class="cls-1" d="M134,557.63v-3.28l3.51-.46v-18.8l-3.32-1v-3.69l8.35-1.2h.15l1.29,1.05v2l0,3.81h.1a10.69,10.69,0,0,1,1.06-2,13.65,13.65,0,0,1,1.9-2.29,11.54,11.54,0,0,1,2.62-1.91,6.64,6.64,0,0,1,3.21-.79,8.5,8.5,0,0,1,1.16.06,4.14,4.14,0,0,1,.67.16v8.45a4.47,4.47,0,0,0-1.41-.43,15.37,15.37,0,0,0-4.4-.13c-.57.06-1.11.15-1.6.25a9.27,9.27,0,0,0-1.33.38,4.3,4.3,0,0,0-.91.44v15.58l6.08.58v3.18Z"/><path class="cls-2" d="M173.21,557.63v-3.28l3-.48v-32.6l-3.67-.61v-2.85l9.5-1.2h.12l1.49,1.15.05,11.5-.39,3.88a15.37,15.37,0,0,1,6.6-3.5,12.24,12.24,0,0,1,3.12-.38,10.21,10.21,0,0,1,4,.66,5.48,5.48,0,0,1,2.48,2,9,9,0,0,1,1.29,3.46,27.33,27.33,0,0,1,.38,4.94v13.53l3.44.48v3.28H190.91v-3.18l2.71-.54V540.27a20.59,20.59,0,0,0-.17-2.92,5.29,5.29,0,0,0-.64-2,2.92,2.92,0,0,0-1.32-1.16,5.19,5.19,0,0,0-2.16-.38,7.85,7.85,0,0,0-1.57.17,13.11,13.11,0,0,0-1.55.43,11.73,11.73,0,0,0-1.4.58,7.06,7.06,0,0,0-1.1.67v18.22l3.35.48v3.28Z"/><path class="cls-2" d="M220.28,558.19a14.76,14.76,0,0,1-5.92-1.08,10.66,10.66,0,0,1-4.07-3,12.16,12.16,0,0,1-2.36-4.58,21,21,0,0,1-.76-5.81,17.93,17.93,0,0,1,1-6.11,13.1,13.1,0,0,1,2.72-4.59,11.61,11.61,0,0,1,4.22-2.89,14.4,14.4,0,0,1,5.47-1q10.14,0,10.57,9.89c0,1.13,0,2.14,0,3a14.12,14.12,0,0,1-.26,2.28H214.91a15.12,15.12,0,0,0,.71,4.13,7.94,7.94,0,0,0,1.54,2.78,5.61,5.61,0,0,0,2.26,1.57,8.23,8.23,0,0,0,2.87.48,12.86,12.86,0,0,0,2.31-.19,14.85,14.85,0,0,0,2-.49,10.63,10.63,0,0,0,1.66-.66,12.26,12.26,0,0,0,1.29-.71l1.27,3a9.68,9.68,0,0,1-1.7,1.33,17,17,0,0,1-2.49,1.28,20.29,20.29,0,0,1-3,1A14.07,14.07,0,0,1,220.28,558.19Zm-.66-25.78a4.54,4.54,0,0,0-1.77.34,3.35,3.35,0,0,0-1.44,1.29,8.72,8.72,0,0,0-1,2.65,22.64,22.64,0,0,0-.5,4.38h8.76c0-.08,0-.19,0-.34s0-.3,0-.46,0-.32,0-.47v-.31a19.79,19.79,0,0,0-.17-2.53,7.92,7.92,0,0,0-.62-2.28,4.3,4.3,0,0,0-1.25-1.64A3.18,3.18,0,0,0,219.62,532.41Z"/><path class="cls-2" d="M234.47,550.2a7.48,7.48,0,0,1,.64-3.19,7.86,7.86,0,0,1,1.79-2.45,10.72,10.72,0,0,1,2.67-1.78,19.44,19.44,0,0,1,3.32-1.21,25.89,25.89,0,0,1,3.71-.69c1.29-.15,2.57-.24,3.86-.27v-1.17a5.62,5.62,0,0,0-1.14-4,5,5,0,0,0-3.72-1.18,18.29,18.29,0,0,0-2.65.2c-.89.14-1.74.31-2.55.52a22.51,22.51,0,0,0-2.26.68q-1,.38-1.77.72h0l-1.44-3.27a12.66,12.66,0,0,1,1.73-1.09,21.17,21.17,0,0,1,2.93-1.3,28.34,28.34,0,0,1,3.78-1.1,19.56,19.56,0,0,1,4.28-.47,15.73,15.73,0,0,1,4.6.59,7.09,7.09,0,0,1,3.08,1.81,7.42,7.42,0,0,1,1.73,3.08,15.63,15.63,0,0,1,.55,4.41v15.24h3v3c-.31.06-.7.15-1.15.26s-1,.2-1.52.29-1.14.16-1.78.23-1.28.1-2,.1a12.55,12.55,0,0,1-1.5-.08,2,2,0,0,1-1-.34,1.43,1.43,0,0,1-.55-.77,4.11,4.11,0,0,1-.17-1.35v-1.42a9.52,9.52,0,0,1-1.15,1.25,10.12,10.12,0,0,1-1.77,1.29,10.36,10.36,0,0,1-2.36,1,9.82,9.82,0,0,1-2.9.41,11,11,0,0,1-3.25-.47,7.33,7.33,0,0,1-2.65-1.44,6.87,6.87,0,0,1-1.79-2.49A8.92,8.92,0,0,1,234.47,550.2Zm11.59,3.28a4.37,4.37,0,0,0,1-.13,8.83,8.83,0,0,0,1.17-.34,9.54,9.54,0,0,0,1.19-.52,5.31,5.31,0,0,0,1-.7v-8.08a15.38,15.38,0,0,0-4,.44,7.37,7.37,0,0,0-2.55,1.17,4.25,4.25,0,0,0-1.36,1.69,5.27,5.27,0,0,0-.4,2,4.9,4.9,0,0,0,1,3.31A3.62,3.62,0,0,0,246.06,553.48Z"/><path class="cls-2" d="M263.59,557.63v-3.28l3.52-.46v-18.8l-3.32-1v-3.69l8.35-1.2h.15l1.29,1.05v2l0,3.81h.1a11.34,11.34,0,0,1,1.06-2,13.73,13.73,0,0,1,1.91-2.29,11.7,11.7,0,0,1,2.61-1.91,6.69,6.69,0,0,1,3.21-.79,8.4,8.4,0,0,1,1.16.06,3.89,3.89,0,0,1,.67.16v8.45a4.47,4.47,0,0,0-1.4-.43,15.44,15.44,0,0,0-4.41-.13c-.57.06-1.1.15-1.6.25a9.66,9.66,0,0,0-1.33.38,4.18,4.18,0,0,0-.9.44v15.58l6.08.58v3.18Z"/><path class="cls-2" d="M290.16,551.77v-18h-3.45V531c.13,0,.34-.1.63-.2l.88-.33.81-.33a5.19,5.19,0,0,0,.47-.23,7.59,7.59,0,0,0,1.73-2.35c.16-.32.34-.7.54-1.13s.38-.89.57-1.36.36-.94.53-1.4.3-.88.41-1.26h4.35l.07,7.23h7.18v4.15H297.7v13.52c0,1.31,0,2.34.06,3.1a6,6,0,0,0,.29,1.74,1.22,1.22,0,0,0,.72.75,4.11,4.11,0,0,0,1.35.17h0a8.91,8.91,0,0,0,1.23-.09c.44-.07.86-.15,1.27-.24a10.14,10.14,0,0,0,1.15-.29c.35-.1.64-.2.87-.28h0l1.15,2.86a13.31,13.31,0,0,1-1.79,1.12,16.44,16.44,0,0,1-2.35,1,18.53,18.53,0,0,1-2.71.74,15.42,15.42,0,0,1-2.87.28h-.05a7.93,7.93,0,0,1-2.74-.42,4.21,4.21,0,0,1-1.83-1.23,5,5,0,0,1-1-2A10.93,10.93,0,0,1,290.16,551.77Z"/><path class="cls-2" d="M323.55,557.63v-3.28l3-.48v-32.6l-3.66-.61v-2.85l9.49-1.2h.12l1.49,1.15.05,11.5-.39,3.88a15.32,15.32,0,0,1,6.61-3.5,12.1,12.1,0,0,1,3.11-.38,10.21,10.21,0,0,1,3.95.66,5.43,5.43,0,0,1,2.48,2,9.16,9.16,0,0,1,1.3,3.46,28.36,28.36,0,0,1,.37,4.94v13.53l3.45.48v3.28H341.25v-3.18l2.71-.54V540.27a20.59,20.59,0,0,0-.17-2.92,5.29,5.29,0,0,0-.64-2,2.92,2.92,0,0,0-1.32-1.16,5.16,5.16,0,0,0-2.16-.38,7.68,7.68,0,0,0-1.56.17,12.13,12.13,0,0,0-1.55.43,11.23,11.23,0,0,0-1.41.58,7.57,7.57,0,0,0-1.1.67v18.22l3.35.48v3.28Z"/><path class="cls-2" d="M370.62,558.19a14.8,14.8,0,0,1-5.92-1.08,10.66,10.66,0,0,1-4.07-3,12.3,12.3,0,0,1-2.36-4.58,21.33,21.33,0,0,1-.76-5.81,18.17,18.17,0,0,1,1-6.11A13.1,13.1,0,0,1,361.2,533a11.61,11.61,0,0,1,4.22-2.89,14.4,14.4,0,0,1,5.47-1q10.14,0,10.57,9.89c0,1.13,0,2.14,0,3a14.25,14.25,0,0,1-.25,2.28H365.25a15.12,15.12,0,0,0,.71,4.13,8.1,8.1,0,0,0,1.54,2.78,5.61,5.61,0,0,0,2.26,1.57,8.23,8.23,0,0,0,2.87.48,13,13,0,0,0,2.32-.19,15.24,15.24,0,0,0,2-.49,11,11,0,0,0,1.66-.66,13.11,13.11,0,0,0,1.28-.71l1.27,3a9.68,9.68,0,0,1-1.7,1.33,16,16,0,0,1-2.49,1.28,19.92,19.92,0,0,1-3,1A14.07,14.07,0,0,1,370.62,558.19ZM370,532.41a4.47,4.47,0,0,0-1.77.34,3.32,3.32,0,0,0-1.45,1.29,8.72,8.72,0,0,0-1,2.65,22.64,22.64,0,0,0-.5,4.38H374c0-.08,0-.19,0-.34s0-.3,0-.46,0-.32,0-.47v-.31a18.12,18.12,0,0,0-.17-2.53,7.92,7.92,0,0,0-.62-2.28A4.3,4.3,0,0,0,372,533,3.14,3.14,0,0,0,370,532.41Z"/><path class="cls-2" d="M384.81,550.2a7.48,7.48,0,0,1,.65-3.19,7.68,7.68,0,0,1,1.78-2.45,11.1,11.1,0,0,1,2.67-1.78,19.44,19.44,0,0,1,3.32-1.21,25.89,25.89,0,0,1,3.71-.69c1.29-.15,2.57-.24,3.86-.27v-1.17a5.67,5.67,0,0,0-1.13-4,5,5,0,0,0-3.73-1.18,18.29,18.29,0,0,0-2.65.2c-.88.14-1.73.31-2.55.52a23.33,23.33,0,0,0-2.26.68q-1,.38-1.77.72h0l-1.44-3.27a12.66,12.66,0,0,1,1.73-1.09,21.72,21.72,0,0,1,2.93-1.3,28.06,28.06,0,0,1,3.79-1.1,19.4,19.4,0,0,1,4.27-.47,15.68,15.68,0,0,1,4.6.59,7.09,7.09,0,0,1,3.08,1.81,7.31,7.31,0,0,1,1.73,3.08,15.63,15.63,0,0,1,.55,4.41v15.24h3v3c-.31.06-.7.15-1.15.26s-1,.2-1.51.29-1.15.16-1.79.23-1.28.1-1.95.1a12.55,12.55,0,0,1-1.5-.08,2,2,0,0,1-1-.34,1.48,1.48,0,0,1-.55-.77,4.11,4.11,0,0,1-.17-1.35v-1.42a9.52,9.52,0,0,1-1.15,1.25,10.12,10.12,0,0,1-1.77,1.29,10.36,10.36,0,0,1-2.36,1,9.77,9.77,0,0,1-2.9.41,11,11,0,0,1-3.25-.47,7.33,7.33,0,0,1-2.65-1.44,6.87,6.87,0,0,1-1.79-2.49A8.92,8.92,0,0,1,384.81,550.2Zm11.6,3.28a4.36,4.36,0,0,0,1-.13,8.83,8.83,0,0,0,1.17-.34,9.67,9.67,0,0,0,1.2-.52,5.23,5.23,0,0,0,1-.7v-8.08a15.38,15.38,0,0,0-4,.44,7.37,7.37,0,0,0-2.55,1.17,4.22,4.22,0,0,0-1.35,1.69,5.1,5.1,0,0,0-.41,2,4.9,4.9,0,0,0,1,3.31A3.64,3.64,0,0,0,396.41,553.48Z"/><path class="cls-2" d="M413.18,557.63v-3.28l3.54-.48v-32.6l-3.64-.61v-2.85l9.55-1.2h.07l1.54,1.15v36.11l3.68.48v3.28Z"/><path class="cls-2" d="M433.88,551.77v-18h-3.44V531c.13,0,.34-.1.62-.2l.88-.33.82-.33a4.54,4.54,0,0,0,.46-.23,7.59,7.59,0,0,0,1.74-2.35c.16-.32.34-.7.53-1.13s.39-.89.58-1.36.36-.94.52-1.4.3-.88.42-1.26h4.34l.08,7.23h7.17v4.15h-7.17v13.52c0,1.31,0,2.34.06,3.1a5.64,5.64,0,0,0,.29,1.74,1.17,1.17,0,0,0,.72.75,4,4,0,0,0,1.34.17h0a8.91,8.91,0,0,0,1.23-.09c.43-.07.86-.15,1.27-.24a10.14,10.14,0,0,0,1.15-.29c.35-.1.64-.2.86-.28h0l1.15,2.86a12.86,12.86,0,0,1-1.8,1.12,16.8,16.8,0,0,1-2.34,1,18.88,18.88,0,0,1-2.71.74,15.42,15.42,0,0,1-2.87.28h0a8,8,0,0,1-2.75-.42,4.33,4.33,0,0,1-1.83-1.23,5.15,5.15,0,0,1-1-2A10.9,10.9,0,0,1,433.88,551.77Z"/><path class="cls-2" d="M451.58,557.63v-3.28l3-.48v-32.6l-3.66-.61v-2.85l9.5-1.2h.12l1.49,1.15.05,11.5-.39,3.88a15.37,15.37,0,0,1,6.6-3.5,12.24,12.24,0,0,1,3.12-.38,10.21,10.21,0,0,1,3.95.66,5.48,5.48,0,0,1,2.48,2,9,9,0,0,1,1.29,3.46,27.33,27.33,0,0,1,.38,4.94v13.53l3.44.48v3.28H469.28v-3.18l2.71-.54V540.27a22.2,22.2,0,0,0-.17-2.92,5.12,5.12,0,0,0-.65-2,2.84,2.84,0,0,0-1.31-1.16,5.23,5.23,0,0,0-2.16-.38,7.85,7.85,0,0,0-1.57.17,13.11,13.11,0,0,0-1.55.43,11.73,11.73,0,0,0-1.4.58,7.06,7.06,0,0,0-1.1.67v18.22l3.34.48v3.28Z"/><path class="cls-2" d="M492.18,558a4.93,4.93,0,0,1-1.63-.27,4.11,4.11,0,0,1-1.37-.78,3.78,3.78,0,0,1-.93-1.23,3.71,3.71,0,0,1-.34-1.63,4.34,4.34,0,0,1,.39-1.84,4.74,4.74,0,0,1,1.08-1.48,4.84,4.84,0,0,1,1.58-1,5.17,5.17,0,0,1,1.93-.36,5.76,5.76,0,0,1,2,.32,3.8,3.8,0,0,1,1.35.85,3.29,3.29,0,0,1,.76,1.25,5,5,0,0,1,.23,1.51,4.72,4.72,0,0,1-.38,1.91,4.17,4.17,0,0,1-1.05,1.46,4.59,4.59,0,0,1-1.61.94A6.1,6.1,0,0,1,492.18,558Z"/></svg>