<svg id="Layer_1" data-name="Layer 1" xmlns="http://www.w3.org/2000/svg" viewBox="0 0 300 250"><defs><style>.cls-1{fill:#fff;}.cls-2{fill:#f1b533;}</style></defs><path class="cls-1" d="M26,228.41v-1.07l1.28-.22v-9.31l-1.25-.24v-1H31.1v1l-1.33.24v3.91h4.66v-3.91l-1.27-.24v-1h5v1l-1.25.24v9.32l1.25.21v1.07h-5v-1.07l1.25-.22V223H29.77v4.16l1.33.22v1.07Z"/><path class="cls-1" d="M39.34,226a2.38,2.38,0,0,1,.2-1,2.46,2.46,0,0,1,.57-.78,3.78,3.78,0,0,1,.86-.57,5.79,5.79,0,0,1,1.06-.39,9,9,0,0,1,1.19-.22q.62-.08,1.23-.09v-.37a1.82,1.82,0,0,0-.36-1.27,1.6,1.6,0,0,0-1.19-.38,4.88,4.88,0,0,0-.85.07c-.28,0-.56.1-.82.16s-.5.14-.72.22-.41.16-.56.23h0l-.46-1.05a3.72,3.72,0,0,1,.55-.34,5.58,5.58,0,0,1,.94-.42,7.53,7.53,0,0,1,1.21-.35,6.19,6.19,0,0,1,1.37-.15,4.86,4.86,0,0,1,1.47.19,2.21,2.21,0,0,1,1,.57,2.29,2.29,0,0,1,.56,1,5,5,0,0,1,.17,1.41v4.88h1v1l-.36.08c-.15,0-.31.07-.49.09l-.57.08c-.2,0-.41,0-.62,0l-.48,0a.8.8,0,0,1-.32-.11.47.47,0,0,1-.18-.25,1.27,1.27,0,0,1-.06-.43v-.46a2.49,2.49,0,0,1-.36.4,3.24,3.24,0,0,1-.57.42,3.68,3.68,0,0,1-.75.32,3,3,0,0,1-.93.13,3.49,3.49,0,0,1-1-.15,2.33,2.33,0,0,1-.85-.46,2.16,2.16,0,0,1-.57-.8A2.85,2.85,0,0,1,39.34,226Zm3.71,1.05a1.33,1.33,0,0,0,.32,0,1.92,1.92,0,0,0,.37-.11,1.84,1.84,0,0,0,.38-.17,1.36,1.36,0,0,0,.33-.22V224a4.64,4.64,0,0,0-1.27.14,2.35,2.35,0,0,0-.81.37,1.39,1.39,0,0,0-.44.54,1.75,1.75,0,0,0-.13.65,1.58,1.58,0,0,0,.32,1.06A1.17,1.17,0,0,0,43.05,227.08Z"/><path class="cls-1" d="M48.71,228.41v-1l1-.15v-6l-1.06-.33v-1.18l2.79-.38h0l.42.33v.93a4.61,4.61,0,0,1,.61-.46,4.94,4.94,0,0,1,.76-.4,5.75,5.75,0,0,1,.86-.27,4,4,0,0,1,.91-.11,3.54,3.54,0,0,1,1.26.2,1.76,1.76,0,0,1,.8.62,2.8,2.8,0,0,1,.42,1.11,9.35,9.35,0,0,1,.13,1.63v4.32l1.11.15v1h-4.4v-1l.85-.15v-4.36a6.31,6.31,0,0,0-.06-.93,1.56,1.56,0,0,0-.2-.64.82.82,0,0,0-.39-.37,1.41,1.41,0,0,0-.66-.13,2.31,2.31,0,0,0-.52.06,2.81,2.81,0,0,0-.49.16,4.09,4.09,0,0,0-.42.2l-.33.22v5.79l1.05.15v1Z"/><path class="cls-1" d="M63.05,228.58a3.58,3.58,0,0,1-1.36-.26,3,3,0,0,1-1.1-.81,3.93,3.93,0,0,1-.73-1.38,6.36,6.36,0,0,1-.27-2,5.9,5.9,0,0,1,.32-2,4.56,4.56,0,0,1,.91-1.54,4.2,4.2,0,0,1,1.46-1,5,5,0,0,1,2-.37,4.26,4.26,0,0,1,.63,0,4.89,4.89,0,0,1,.59.09v-2.66L64,216.51v-.89l3.31-.34h0l.48.37v11.67h.87v1l-.89.18a5.42,5.42,0,0,1-1.1.1,1.18,1.18,0,0,1-.74-.21.93.93,0,0,1-.26-.77v-.3a4.21,4.21,0,0,1-.47.48,2.92,2.92,0,0,1-.61.4,3.26,3.26,0,0,1-.74.29A3.44,3.44,0,0,1,63.05,228.58Zm1-1.41a1.93,1.93,0,0,0,.85-.18,1.81,1.81,0,0,0,.56-.41v-5.89a1.13,1.13,0,0,0-.43-.25,2.29,2.29,0,0,0-.73-.11,1.84,1.84,0,0,0-.8.18,1.65,1.65,0,0,0-.65.59,3.41,3.41,0,0,0-.45,1.1,8.62,8.62,0,0,0-.08,3.18,3.26,3.26,0,0,0,.37,1,1.41,1.41,0,0,0,.58.58A1.55,1.55,0,0,0,64,227.17Z"/><path class="cls-1" d="M74.88,228.41v-1l1.14-.15v-6L75,220.86v-1.17l2.87-.38h0l.57.33v7.57l1.13.15v1ZM77,218a1.3,1.3,0,0,1-.49-.1,1.06,1.06,0,0,1-.35-.27,1.2,1.2,0,0,1-.22-.4,1.62,1.62,0,0,1-.08-.49,2.07,2.07,0,0,1,.08-.57,1.4,1.4,0,0,1,.26-.48,1.23,1.23,0,0,1,.42-.32,1.38,1.38,0,0,1,.59-.11h0a1.29,1.29,0,0,1,.55.1,1.11,1.11,0,0,1,.39.28,1.23,1.23,0,0,1,.23.4,1.55,1.55,0,0,1,.07.48,1.81,1.81,0,0,1-.08.58,1.43,1.43,0,0,1-.26.47,1.17,1.17,0,0,1-.46.31A1.6,1.6,0,0,1,77,218Z"/><path class="cls-1" d="M80.72,228.41v-1l1-.15v-6l-1.07-.33v-1.18l2.8-.38h0l.41.33v.93a6.46,6.46,0,0,1,.61-.46,5.58,5.58,0,0,1,.77-.4,5.75,5.75,0,0,1,.86-.27,4,4,0,0,1,.91-.11,3.54,3.54,0,0,1,1.26.2,1.76,1.76,0,0,1,.8.62,3,3,0,0,1,.42,1.11,9.45,9.45,0,0,1,.12,1.63v4.32l1.11.15v1H86.38v-1l.85-.15v-4.36a6.31,6.31,0,0,0-.06-.93,1.56,1.56,0,0,0-.2-.64.84.84,0,0,0-.4-.37,1.37,1.37,0,0,0-.65-.13,2.24,2.24,0,0,0-.52.06,2.56,2.56,0,0,0-.49.16,4.09,4.09,0,0,0-.42.2l-.33.22v5.79l1,.15v1Z"/><path class="cls-1" d="M96.62,228.41v-1l1-.15V216.78l-1.18-.2v-.91l3-.39h0l.48.37v3.68l-.12,1.24a4.27,4.27,0,0,1,.53-.41,4.37,4.37,0,0,1,.71-.4,4.71,4.71,0,0,1,.87-.31,4.09,4.09,0,0,1,1-.12,3.25,3.25,0,0,1,1.26.21,1.77,1.77,0,0,1,.8.65,3,3,0,0,1,.41,1.11,9,9,0,0,1,.12,1.58v4.33l1.1.15v1h-4.37v-1l.87-.17v-4.37a6.31,6.31,0,0,0-.06-.93,1.56,1.56,0,0,0-.21-.64.89.89,0,0,0-.42-.37,1.55,1.55,0,0,0-.69-.13,2.2,2.2,0,0,0-.5.06,3.5,3.5,0,0,0-.49.14,3,3,0,0,0-.45.18,2,2,0,0,0-.36.22v5.83l1.07.15v1Z"/><path class="cls-1" d="M107.43,226a2.38,2.38,0,0,1,.21-1,2.19,2.19,0,0,1,.57-.78,3.51,3.51,0,0,1,.85-.57,5.79,5.79,0,0,1,1.06-.39,9,9,0,0,1,1.19-.22c.41-.05.83-.08,1.24-.09v-.37a1.77,1.77,0,0,0-.37-1.27,1.6,1.6,0,0,0-1.19-.38,5,5,0,0,0-.85.07c-.28,0-.55.1-.81.16s-.5.14-.72.22-.41.16-.57.23h0l-.46-1.05a3.72,3.72,0,0,1,.55-.34,6.42,6.42,0,0,1,.94-.42,7.84,7.84,0,0,1,1.21-.35,6.25,6.25,0,0,1,1.37-.15,4.81,4.81,0,0,1,1.47.19,2.25,2.25,0,0,1,1,.57,2.28,2.28,0,0,1,.55,1,4.93,4.93,0,0,1,.18,1.41v4.88h1v1l-.37.08c-.15,0-.31.07-.48.09l-.57.08q-.31,0-.63,0l-.48,0a.86.86,0,0,1-.32-.11.52.52,0,0,1-.18-.25,1.63,1.63,0,0,1,0-.43v-.46a2.61,2.61,0,0,1-.37.4,2.82,2.82,0,0,1-.56.42,4,4,0,0,1-.76.32,3,3,0,0,1-.93.13,3.53,3.53,0,0,1-1-.15,2.42,2.42,0,0,1-.85-.46,2.16,2.16,0,0,1-.57-.8A2.85,2.85,0,0,1,107.43,226Zm3.71,1.05a1.33,1.33,0,0,0,.32,0,2,2,0,0,0,.38-.11,2.11,2.11,0,0,0,.38-.17,1.9,1.9,0,0,0,.33-.22V224a4.59,4.59,0,0,0-1.27.14,2.41,2.41,0,0,0-.82.37,1.36,1.36,0,0,0-.43.54,1.85,1.85,0,0,0,.18,1.71A1.18,1.18,0,0,0,111.14,227.08Z"/><path class="cls-1" d="M116.8,228.41v-1l1-.15v-6l-1.06-.33v-1.18l2.8-.38h0l.41.33v.93a5.38,5.38,0,0,1,.61-.46,5.45,5.45,0,0,1,.76-.4,5.75,5.75,0,0,1,.86-.27,4.13,4.13,0,0,1,.92-.11,3.44,3.44,0,0,1,1.25.2,1.71,1.71,0,0,1,.8.62,2.8,2.8,0,0,1,.42,1.11,8.46,8.46,0,0,1,.13,1.63v4.32l1.11.15v1h-4.4v-1l.85-.15v-4.36a8.28,8.28,0,0,0,0-.93,1.93,1.93,0,0,0-.2-.64.89.89,0,0,0-.4-.37,1.39,1.39,0,0,0-.65-.13,2.39,2.39,0,0,0-.53.06,2.46,2.46,0,0,0-.48.16,3.45,3.45,0,0,0-.43.2l-.33.22v5.79l1.05.15v1Z"/><path class="cls-1" d="M131.14,228.58a3.53,3.53,0,0,1-1.35-.26,2.89,2.89,0,0,1-1.1-.81,3.94,3.94,0,0,1-.74-1.38,6.7,6.7,0,0,1-.26-2,5.9,5.9,0,0,1,.31-2,4.42,4.42,0,0,1,.92-1.54,4.11,4.11,0,0,1,1.46-1,5,5,0,0,1,1.94-.37,4.49,4.49,0,0,1,.64,0,5.58,5.58,0,0,1,.59.09v-2.66l-1.43-.24v-.89l3.3-.34h0l.49.37v11.67h.86v1l-.89.18a5.32,5.32,0,0,1-1.09.1,1.14,1.14,0,0,1-.74-.21.93.93,0,0,1-.27-.77v-.3a4.08,4.08,0,0,1-.46.48,3.21,3.21,0,0,1-.61.4,3.54,3.54,0,0,1-.75.29A3.33,3.33,0,0,1,131.14,228.58Zm1-1.41A1.93,1.93,0,0,0,133,227a1.75,1.75,0,0,0,.57-.41v-5.89a1.18,1.18,0,0,0-.44-.25,2.24,2.24,0,0,0-.73-.11,1.79,1.79,0,0,0-.79.18,1.75,1.75,0,0,0-.66.59,3.41,3.41,0,0,0-.45,1.1,7.88,7.88,0,0,0-.18,1.69,6.61,6.61,0,0,0,.11,1.49,3,3,0,0,0,.36,1,1.43,1.43,0,0,0,.59.58A1.54,1.54,0,0,0,132.13,227.17Z"/><path class="cls-1" d="M142.89,228.41v-1l1.25-.21v-6.3h-1.37v-.94l1.37-.39v-.45a3.66,3.66,0,0,1,.38-1.67,4.3,4.3,0,0,1,2.33-2.07,4.06,4.06,0,0,1,1.46-.28,3,3,0,0,1,.6,0l.32.09v2.33a1.45,1.45,0,0,0-.29-.21,3.14,3.14,0,0,0-.41-.19,3.65,3.65,0,0,0-.5-.13,2.48,2.48,0,0,0-.54-.06,1.46,1.46,0,0,0-.38.05.54.54,0,0,0-.29.17.78.78,0,0,0-.19.32,1.62,1.62,0,0,0-.07.53v1.53h2v1.33h-2v6.34l1.73.17v1Z"/><path class="cls-1" d="M149.44,224a5.47,5.47,0,0,1,.36-2.07,4.45,4.45,0,0,1,1-1.47,4.14,4.14,0,0,1,1.41-.88,5,5,0,0,1,1.67-.29,4.78,4.78,0,0,1,1.8.32,3.59,3.59,0,0,1,1.31.91,4,4,0,0,1,.8,1.45,6,6,0,0,1,.28,1.93,5.64,5.64,0,0,1-.37,2.11,4.17,4.17,0,0,1-1,1.46,3.79,3.79,0,0,1-1.4.85,4.92,4.92,0,0,1-1.67.28,4.76,4.76,0,0,1-1.79-.32,3.43,3.43,0,0,1-1.32-.91,3.83,3.83,0,0,1-.81-1.44A6.38,6.38,0,0,1,149.44,224Zm4.33,3.52a1.38,1.38,0,0,0,.74-.19,1.48,1.48,0,0,0,.52-.6,3.45,3.45,0,0,0,.3-1.05,9.72,9.72,0,0,0,.1-1.53,13.21,13.21,0,0,0-.09-1.63,4.73,4.73,0,0,0-.29-1.18,1.68,1.68,0,0,0-.52-.72,1.25,1.25,0,0,0-.8-.25,1.48,1.48,0,0,0-.74.19,1.46,1.46,0,0,0-.53.61,3.54,3.54,0,0,0-.31,1.05,9.55,9.55,0,0,0-.1,1.53,12.93,12.93,0,0,0,.09,1.62,4.31,4.31,0,0,0,.3,1.18,1.78,1.78,0,0,0,.53.72A1.25,1.25,0,0,0,153.77,227.51Z"/><path class="cls-1" d="M159.24,228.41v-1l1.13-.15v-6l-1.07-.33v-1.18l2.68-.38h0l.42.33v1.87h0a3.37,3.37,0,0,1,.34-.63,4.08,4.08,0,0,1,.61-.73,3.48,3.48,0,0,1,.84-.61,2.09,2.09,0,0,1,1-.26l.37,0,.22,0v2.71a1.56,1.56,0,0,0-.45-.14,4.33,4.33,0,0,0-.86-.07,4.93,4.93,0,0,0-.55,0l-.51.08a2.43,2.43,0,0,0-.43.12,1.58,1.58,0,0,0-.29.14v5l1.95.18v1Z"/><path class="cls-2" d="M171.78,228.41v-1l1-.15V216.78l-1.17-.2v-.91l3-.39h0l.47.37,0,3.68-.12,1.24a4.63,4.63,0,0,1,1.24-.81,4.24,4.24,0,0,1,.87-.31,4,4,0,0,1,1-.12,3.27,3.27,0,0,1,1.27.21,1.74,1.74,0,0,1,.79.65,2.8,2.8,0,0,1,.42,1.11,9,9,0,0,1,.12,1.58v4.33l1.1.15v1h-4.37v-1l.86-.17v-4.37a8.28,8.28,0,0,0-.05-.93,1.72,1.72,0,0,0-.21-.64.89.89,0,0,0-.42-.37,1.55,1.55,0,0,0-.69-.13,2.2,2.2,0,0,0-.5.06,4.1,4.1,0,0,0-.5.14,3,3,0,0,0-.45.18,1.62,1.62,0,0,0-.35.22v5.83l1.07.15v1Z"/><path class="cls-2" d="M186.84,228.59a4.91,4.91,0,0,1-1.89-.34,3.54,3.54,0,0,1-1.31-1,3.94,3.94,0,0,1-.75-1.47,6.76,6.76,0,0,1-.24-1.86,5.62,5.62,0,0,1,.31-2,4,4,0,0,1,.87-1.47,3.67,3.67,0,0,1,1.35-.93,4.7,4.7,0,0,1,1.75-.32q3.24,0,3.38,3.17c0,.36,0,.68,0,1a4.51,4.51,0,0,1-.08.73h-5.11a5.22,5.22,0,0,0,.23,1.32,2.79,2.79,0,0,0,.49.89,1.8,1.8,0,0,0,.73.5,2.63,2.63,0,0,0,.91.16,3.54,3.54,0,0,0,.75-.07,4.87,4.87,0,0,0,.63-.15,3.9,3.9,0,0,0,.53-.21l.41-.23.41.95a3.4,3.4,0,0,1-.54.42,4.6,4.6,0,0,1-.8.41,5.51,5.51,0,0,1-1,.31A4.16,4.16,0,0,1,186.84,228.59Zm-.21-8.25a1.47,1.47,0,0,0-.56.11,1,1,0,0,0-.46.41,2.51,2.51,0,0,0-.33.85,7,7,0,0,0-.16,1.4h2.8a.54.54,0,0,1,0-.11v-.15a.71.71,0,0,0,0-.14v-.11a5.49,5.49,0,0,0-.06-.8,2.23,2.23,0,0,0-.2-.73,1.41,1.41,0,0,0-.39-.53A1.06,1.06,0,0,0,186.63,220.34Z"/><path class="cls-2" d="M191.38,226a2.38,2.38,0,0,1,.21-1,2.46,2.46,0,0,1,.57-.78,3.57,3.57,0,0,1,.86-.57,5.53,5.53,0,0,1,1.06-.39,8.66,8.66,0,0,1,1.19-.22q.61-.08,1.23-.09v-.37a1.82,1.82,0,0,0-.36-1.27,1.62,1.62,0,0,0-1.19-.38,4.8,4.8,0,0,0-.85.07c-.29,0-.56.1-.82.16s-.5.14-.72.22l-.57.23h0l-.46-1.05a4,4,0,0,1,.56-.34,5.58,5.58,0,0,1,.94-.42,7.24,7.24,0,0,1,1.21-.35,6.1,6.1,0,0,1,1.36-.15,4.93,4.93,0,0,1,1.48.19,2.21,2.21,0,0,1,1,.57,2.4,2.4,0,0,1,.56,1,5.34,5.34,0,0,1,.17,1.41v4.88h1v1l-.37.08a4.61,4.61,0,0,1-.48.09l-.57.08c-.21,0-.41,0-.63,0l-.48,0a.86.86,0,0,1-.32-.11.45.45,0,0,1-.17-.25,1.27,1.27,0,0,1-.06-.43v-.46a2.61,2.61,0,0,1-.37.4,2.82,2.82,0,0,1-.56.42,3.55,3.55,0,0,1-.76.32,3,3,0,0,1-.93.13,3.42,3.42,0,0,1-1-.15,2.26,2.26,0,0,1-.85-.46,2.18,2.18,0,0,1-.58-.8A2.85,2.85,0,0,1,191.38,226Zm3.71,1.05a1.27,1.27,0,0,0,.32,0,2,2,0,0,0,.38-.11,1.84,1.84,0,0,0,.38-.17,1.36,1.36,0,0,0,.33-.22V224a4.59,4.59,0,0,0-1.27.14,2.5,2.5,0,0,0-.82.37,1.45,1.45,0,0,0-.43.54,1.83,1.83,0,0,0,.19,1.71A1.16,1.16,0,0,0,195.09,227.08Z"/><path class="cls-2" d="M200.7,228.41v-1l1.13-.15v-6l-1.06-.33v-1.18l2.67-.38h0l.42.33v1.87h0a3.37,3.37,0,0,1,.34-.63,4.54,4.54,0,0,1,.61-.73,3.48,3.48,0,0,1,.84-.61,2.09,2.09,0,0,1,1-.26l.38,0,.21,0v2.71a1.56,1.56,0,0,0-.45-.14,4.33,4.33,0,0,0-.86-.07,5.07,5.07,0,0,0-.55,0L205,222a2.43,2.43,0,0,0-.43.12,1.58,1.58,0,0,0-.29.14v5l2,.18v1Z"/><path class="cls-2" d="M209.2,226.53v-5.75h-1.1v-.89l.2-.06.28-.11.26-.1.15-.08a2.49,2.49,0,0,0,.56-.75c0-.1.11-.22.17-.36l.18-.43.17-.45c.05-.15.1-.29.13-.41h1.39l0,2.32h2.29v1.32h-2.29v4.33c0,.42,0,.75,0,1a1.8,1.8,0,0,0,.09.56.39.39,0,0,0,.23.24,1.23,1.23,0,0,0,.43.06h0a1.84,1.84,0,0,0,.39,0l.41-.07.37-.09.27-.09h0l.37.91a4.2,4.2,0,0,1-.58.36,4.34,4.34,0,0,1-.75.32,5.71,5.71,0,0,1-.86.24,4.78,4.78,0,0,1-.92.09h0a2.86,2.86,0,0,1-.88-.13,1.34,1.34,0,0,1-.58-.4,1.62,1.62,0,0,1-.33-.64A3.9,3.9,0,0,1,209.2,226.53Z"/><path class="cls-2" d="M219.89,228.41v-1l1-.15V216.78l-1.17-.2v-.91l3-.39h0l.47.37,0,3.68-.13,1.24a5.18,5.18,0,0,1,.53-.41,4.09,4.09,0,0,1,.72-.4,4.24,4.24,0,0,1,.87-.31,4,4,0,0,1,1-.12,3.3,3.3,0,0,1,1.27.21,1.74,1.74,0,0,1,.79.65,2.8,2.8,0,0,1,.42,1.11,9,9,0,0,1,.12,1.58v4.33l1.1.15v1h-4.38v-1l.87-.17v-4.37a8.28,8.28,0,0,0,0-.93,1.72,1.72,0,0,0-.21-.64.89.89,0,0,0-.42-.37,1.55,1.55,0,0,0-.69-.13,2.2,2.2,0,0,0-.5.06,4.1,4.1,0,0,0-.5.14,3,3,0,0,0-.45.18,1.62,1.62,0,0,0-.35.22v5.83l1.07.15v1Z"/><path class="cls-2" d="M235,228.59a4.91,4.91,0,0,1-1.89-.34,3.46,3.46,0,0,1-1.31-1,3.94,3.94,0,0,1-.75-1.47,6.76,6.76,0,0,1-.24-1.86,5.62,5.62,0,0,1,.31-2,4,4,0,0,1,.87-1.47,3.67,3.67,0,0,1,1.35-.93,4.66,4.66,0,0,1,1.75-.32q3.24,0,3.38,3.17c0,.36,0,.68,0,1a6,6,0,0,1-.08.73h-5.11a5.22,5.22,0,0,0,.23,1.32,2.79,2.79,0,0,0,.49.89,1.8,1.8,0,0,0,.73.5,2.63,2.63,0,0,0,.91.16,3.54,3.54,0,0,0,.75-.07,5.3,5.3,0,0,0,.63-.15,4.5,4.5,0,0,0,.53-.21l.41-.23.41.95a3.4,3.4,0,0,1-.54.42,4.6,4.6,0,0,1-.8.41,5.51,5.51,0,0,1-1,.31A4.16,4.16,0,0,1,235,228.59Zm-.21-8.25a1.47,1.47,0,0,0-.56.11,1.06,1.06,0,0,0-.47.41,2.75,2.75,0,0,0-.32.85,7,7,0,0,0-.16,1.4H236a.54.54,0,0,1,0-.11v-.15a.71.71,0,0,0,0-.14v-.11a5.49,5.49,0,0,0-.06-.8,2.23,2.23,0,0,0-.2-.73,1.33,1.33,0,0,0-.4-.53A1,1,0,0,0,234.74,220.34Z"/><path class="cls-2" d="M239.49,226a2.38,2.38,0,0,1,.21-1,2.46,2.46,0,0,1,.57-.78,3.71,3.71,0,0,1,.85-.57,5.89,5.89,0,0,1,1.07-.39,8.66,8.66,0,0,1,1.19-.22q.62-.08,1.23-.09v-.37a1.82,1.82,0,0,0-.36-1.27,1.63,1.63,0,0,0-1.2-.38,4.76,4.76,0,0,0-.84.07c-.29,0-.56.1-.82.16s-.5.14-.72.22l-.57.23h0l-.46-1.05a4,4,0,0,1,.56-.34,5.83,5.83,0,0,1,.93-.42,7.66,7.66,0,0,1,1.22-.35,6.1,6.1,0,0,1,1.36-.15,4.93,4.93,0,0,1,1.48.19,2.21,2.21,0,0,1,1,.57,2.28,2.28,0,0,1,.55,1,4.93,4.93,0,0,1,.18,1.41v4.88h1v1l-.37.08c-.14,0-.31.07-.48.09l-.57.08c-.21,0-.41,0-.63,0l-.48,0a.86.86,0,0,1-.32-.11.45.45,0,0,1-.17-.25,1.27,1.27,0,0,1-.06-.43v-.46a2.61,2.61,0,0,1-.37.4,2.82,2.82,0,0,1-.56.42,3.55,3.55,0,0,1-.76.32,3,3,0,0,1-.93.13,3.53,3.53,0,0,1-1-.15,2.29,2.29,0,0,1-.84-.46,2.18,2.18,0,0,1-.58-.8A2.85,2.85,0,0,1,239.49,226Zm3.71,1.05a1.27,1.27,0,0,0,.32,0,2,2,0,0,0,.38-.11,1.84,1.84,0,0,0,.38-.17,1.36,1.36,0,0,0,.33-.22V224a4.59,4.59,0,0,0-1.27.14,2.5,2.5,0,0,0-.82.37,1.45,1.45,0,0,0-.43.54,1.83,1.83,0,0,0,.19,1.71A1.16,1.16,0,0,0,243.2,227.08Z"/><path class="cls-2" d="M248.57,228.41v-1l1.13-.15V216.78l-1.16-.2v-.91l3.05-.39h0l.49.37v11.56l1.18.15v1Z"/><path class="cls-2" d="M255.2,226.53v-5.75h-1.11v-.89l.2-.06.28-.11.27-.1.14-.08a2.34,2.34,0,0,0,.56-.75c.05-.1.11-.22.17-.36l.18-.43.17-.45.14-.41h1.39l0,2.32h2.3v1.32h-2.3v4.33c0,.42,0,.75,0,1a1.8,1.8,0,0,0,.09.56.39.39,0,0,0,.23.24,1.27,1.27,0,0,0,.43.06h0a1.87,1.87,0,0,0,.4,0l.4-.07.37-.09.28-.09h0l.37.91a4.72,4.72,0,0,1-.57.36,5.13,5.13,0,0,1-.75.32,6.2,6.2,0,0,1-.87.24,4.78,4.78,0,0,1-.92.09h0a2.77,2.77,0,0,1-.88-.13,1.32,1.32,0,0,1-.59-.4,1.49,1.49,0,0,1-.32-.64A3.41,3.41,0,0,1,255.2,226.53Z"/><path class="cls-2" d="M260.86,228.41v-1l1-.15V216.78l-1.17-.2v-.91l3-.39h0l.47.37,0,3.68-.13,1.24a4.27,4.27,0,0,1,.53-.41,4.09,4.09,0,0,1,.72-.4,4.24,4.24,0,0,1,.87-.31,4,4,0,0,1,1-.12,3.3,3.3,0,0,1,1.27.21,1.74,1.74,0,0,1,.79.65,3,3,0,0,1,.42,1.11,9,9,0,0,1,.12,1.58v4.33l1.1.15v1h-4.38v-1l.87-.17v-4.37a8.28,8.28,0,0,0-.05-.93,1.72,1.72,0,0,0-.21-.64.89.89,0,0,0-.42-.37,1.55,1.55,0,0,0-.69-.13,2.14,2.14,0,0,0-.5.06,3.65,3.65,0,0,0-.5.14,3,3,0,0,0-.45.18,1.62,1.62,0,0,0-.35.22v5.83l1.07.15v1Z"/><path class="cls-2" d="M273.85,228.54a1.77,1.77,0,0,1-.52-.08,1.36,1.36,0,0,1-.44-.25,1.5,1.5,0,0,1-.3-.4,1.24,1.24,0,0,1-.11-.52,1.45,1.45,0,0,1,.13-.59,1.57,1.57,0,0,1,.34-.47,1.69,1.69,0,0,1,.51-.32,2,2,0,0,1,1.27,0,1.32,1.32,0,0,1,.43.27,1.1,1.1,0,0,1,.24.4,1.57,1.57,0,0,1,.08.49,1.54,1.54,0,0,1-.12.61,1.62,1.62,0,0,1-.34.47,1.48,1.48,0,0,1-.52.3A1.93,1.93,0,0,1,273.85,228.54Z"/></svg>